<?xml version="1.0" encoding="utf-8" standalone="no"?>
<!DOCTYPE svg PUBLIC "-//W3C//DTD SVG 1.1//EN"
  "http://www.w3.org/Graphics/SVG/1.1/DTD/svg11.dtd">
<!-- Created with matplotlib (https://matplotlib.org/) -->
<svg height="396pt" version="1.1" viewBox="0 0 648 396" width="648pt" xmlns="http://www.w3.org/2000/svg" xmlns:xlink="http://www.w3.org/1999/xlink">
 <defs>
  <style type="text/css">
*{stroke-linecap:butt;stroke-linejoin:round;}
  </style>
 </defs>
 <g id="figure_1">
  <g id="patch_1">
   <path d="M 0 396 
L 648 396 
L 648 0 
L 0 0 
z
" style="fill:none;"/>
  </g>
  <g id="axes_1">
   <g id="patch_2">
    <path d="M 162 285.12 
L 583.2 285.12 
L 583.2 39.6 
L 162 39.6 
z
" style="fill:none;"/>
   </g>
   <g id="PathCollection_1">
    <defs>
     <path d="M 0 2.25 
C 0.596707 2.25 1.169055 2.012926 1.59099 1.59099 
C 2.012926 1.169055 2.25 0.596707 2.25 0 
C 2.25 -0.596707 2.012926 -1.169055 1.59099 -1.59099 
C 1.169055 -2.012926 0.596707 -2.25 0 -2.25 
C -0.596707 -2.25 -1.169055 -2.012926 -1.59099 -1.59099 
C -2.012926 -1.169055 -2.25 -0.596707 -2.25 0 
C -2.25 0.596707 -2.012926 1.169055 -1.59099 1.59099 
C -1.169055 2.012926 -0.596707 2.25 0 2.25 
z
" id="m47641871a7" style="stroke:#56b4e9;"/>
    </defs>
    <g clip-path="url(#p03c11bab94)">
     <use style="fill:#56b4e9;stroke:#56b4e9;" x="186.016933" xlink:href="#m47641871a7" y="159.408478"/>
     <use style="fill:#56b4e9;stroke:#56b4e9;" x="188.278546" xlink:href="#m47641871a7" y="108.743919"/>
     <use style="fill:#56b4e9;stroke:#56b4e9;" x="190.540159" xlink:href="#m47641871a7" y="111.995674"/>
     <use style="fill:#56b4e9;stroke:#56b4e9;" x="192.801771" xlink:href="#m47641871a7" y="124.893686"/>
     <use style="fill:#56b4e9;stroke:#56b4e9;" x="195.063384" xlink:href="#m47641871a7" y="90.850028"/>
     <use style="fill:#56b4e9;stroke:#56b4e9;" x="197.324997" xlink:href="#m47641871a7" y="120.219288"/>
     <use style="fill:#56b4e9;stroke:#56b4e9;" x="199.58661" xlink:href="#m47641871a7" y="117.021113"/>
     <use style="fill:#56b4e9;stroke:#56b4e9;" x="201.848223" xlink:href="#m47641871a7" y="162.96139"/>
     <use style="fill:#56b4e9;stroke:#56b4e9;" x="204.109836" xlink:href="#m47641871a7" y="105.603019"/>
     <use style="fill:#56b4e9;stroke:#56b4e9;" x="206.371449" xlink:href="#m47641871a7" y="79.866118"/>
     <use style="fill:#56b4e9;stroke:#56b4e9;" x="208.633062" xlink:href="#m47641871a7" y="127.979158"/>
     <use style="fill:#56b4e9;stroke:#56b4e9;" x="210.894675" xlink:href="#m47641871a7" y="138.289623"/>
     <use style="fill:#56b4e9;stroke:#56b4e9;" x="213.156288" xlink:href="#m47641871a7" y="114.6562"/>
     <use style="fill:#56b4e9;stroke:#56b4e9;" x="215.417901" xlink:href="#m47641871a7" y="95.154909"/>
     <use style="fill:#56b4e9;stroke:#56b4e9;" x="217.679514" xlink:href="#m47641871a7" y="105.926347"/>
     <use style="fill:#56b4e9;stroke:#56b4e9;" x="219.941127" xlink:href="#m47641871a7" y="77.593584"/>
     <use style="fill:#56b4e9;stroke:#56b4e9;" x="222.20274" xlink:href="#m47641871a7" y="121.641931"/>
     <use style="fill:#56b4e9;stroke:#56b4e9;" x="224.464353" xlink:href="#m47641871a7" y="83.228728"/>
     <use style="fill:#56b4e9;stroke:#56b4e9;" x="226.725966" xlink:href="#m47641871a7" y="87.746081"/>
     <use style="fill:#56b4e9;stroke:#56b4e9;" x="228.987578" xlink:href="#m47641871a7" y="133.006445"/>
     <use style="fill:#56b4e9;stroke:#56b4e9;" x="231.249191" xlink:href="#m47641871a7" y="87.247232"/>
     <use style="fill:#56b4e9;stroke:#56b4e9;" x="233.510804" xlink:href="#m47641871a7" y="136.945503"/>
     <use style="fill:#56b4e9;stroke:#56b4e9;" x="235.772417" xlink:href="#m47641871a7" y="84.438898"/>
     <use style="fill:#56b4e9;stroke:#56b4e9;" x="238.03403" xlink:href="#m47641871a7" y="110.905597"/>
     <use style="fill:#56b4e9;stroke:#56b4e9;" x="240.295643" xlink:href="#m47641871a7" y="104.947125"/>
     <use style="fill:#56b4e9;stroke:#56b4e9;" x="242.557256" xlink:href="#m47641871a7" y="113.769358"/>
     <use style="fill:#56b4e9;stroke:#56b4e9;" x="244.818869" xlink:href="#m47641871a7" y="111.635394"/>
     <use style="fill:#56b4e9;stroke:#56b4e9;" x="247.080482" xlink:href="#m47641871a7" y="188.465495"/>
     <use style="fill:#56b4e9;stroke:#56b4e9;" x="249.342095" xlink:href="#m47641871a7" y="80.854577"/>
     <use style="fill:#56b4e9;stroke:#56b4e9;" x="251.603708" xlink:href="#m47641871a7" y="97.935529"/>
     <use style="fill:#56b4e9;stroke:#56b4e9;" x="253.865321" xlink:href="#m47641871a7" y="122.361566"/>
     <use style="fill:#56b4e9;stroke:#56b4e9;" x="256.126934" xlink:href="#m47641871a7" y="129.631825"/>
     <use style="fill:#56b4e9;stroke:#56b4e9;" x="258.388547" xlink:href="#m47641871a7" y="113.196606"/>
     <use style="fill:#56b4e9;stroke:#56b4e9;" x="260.65016" xlink:href="#m47641871a7" y="93.843121"/>
     <use style="fill:#56b4e9;stroke:#56b4e9;" x="262.911773" xlink:href="#m47641871a7" y="130.802272"/>
     <use style="fill:#56b4e9;stroke:#56b4e9;" x="265.173385" xlink:href="#m47641871a7" y="88.799206"/>
     <use style="fill:#56b4e9;stroke:#56b4e9;" x="267.434998" xlink:href="#m47641871a7" y="121.455324"/>
     <use style="fill:#56b4e9;stroke:#56b4e9;" x="269.696611" xlink:href="#m47641871a7" y="82.415789"/>
     <use style="fill:#56b4e9;stroke:#56b4e9;" x="271.958224" xlink:href="#m47641871a7" y="116.300554"/>
     <use style="fill:#56b4e9;stroke:#56b4e9;" x="274.219837" xlink:href="#m47641871a7" y="109.252005"/>
     <use style="fill:#56b4e9;stroke:#56b4e9;" x="276.48145" xlink:href="#m47641871a7" y="129.163462"/>
     <use style="fill:#56b4e9;stroke:#56b4e9;" x="278.743063" xlink:href="#m47641871a7" y="92.429716"/>
     <use style="fill:#56b4e9;stroke:#56b4e9;" x="281.004676" xlink:href="#m47641871a7" y="100.836242"/>
     <use style="fill:#56b4e9;stroke:#56b4e9;" x="283.266289" xlink:href="#m47641871a7" y="68.217075"/>
     <use style="fill:#56b4e9;stroke:#56b4e9;" x="285.527902" xlink:href="#m47641871a7" y="99.154937"/>
     <use style="fill:#56b4e9;stroke:#56b4e9;" x="287.789515" xlink:href="#m47641871a7" y="148.701705"/>
     <use style="fill:#56b4e9;stroke:#56b4e9;" x="290.051128" xlink:href="#m47641871a7" y="107.275086"/>
     <use style="fill:#56b4e9;stroke:#56b4e9;" x="292.312741" xlink:href="#m47641871a7" y="133.150557"/>
     <use style="fill:#56b4e9;stroke:#56b4e9;" x="294.574354" xlink:href="#m47641871a7" y="55.671952"/>
     <use style="fill:#56b4e9;stroke:#56b4e9;" x="296.835967" xlink:href="#m47641871a7" y="121.006361"/>
     <use style="fill:#56b4e9;stroke:#56b4e9;" x="299.09758" xlink:href="#m47641871a7" y="120.797583"/>
     <use style="fill:#56b4e9;stroke:#56b4e9;" x="301.359192" xlink:href="#m47641871a7" y="91.053263"/>
     <use style="fill:#56b4e9;stroke:#56b4e9;" x="303.620805" xlink:href="#m47641871a7" y="97.445918"/>
     <use style="fill:#56b4e9;stroke:#56b4e9;" x="305.882418" xlink:href="#m47641871a7" y="76.374176"/>
     <use style="fill:#56b4e9;stroke:#56b4e9;" x="308.144031" xlink:href="#m47641871a7" y="115.931036"/>
     <use style="fill:#56b4e9;stroke:#56b4e9;" x="310.405644" xlink:href="#m47641871a7" y="132.451245"/>
     <use style="fill:#56b4e9;stroke:#56b4e9;" x="312.667257" xlink:href="#m47641871a7" y="116.309792"/>
     <use style="fill:#56b4e9;stroke:#56b4e9;" x="314.92887" xlink:href="#m47641871a7" y="70.665129"/>
     <use style="fill:#56b4e9;stroke:#56b4e9;" x="317.190483" xlink:href="#m47641871a7" y="117.732435"/>
     <use style="fill:#56b4e9;stroke:#56b4e9;" x="319.452096" xlink:href="#m47641871a7" y="81.094764"/>
     <use style="fill:#56b4e9;stroke:#56b4e9;" x="321.713709" xlink:href="#m47641871a7" y="101.723084"/>
     <use style="fill:#56b4e9;stroke:#56b4e9;" x="323.975322" xlink:href="#m47641871a7" y="114.129638"/>
     <use style="fill:#56b4e9;stroke:#56b4e9;" x="326.236935" xlink:href="#m47641871a7" y="109.168864"/>
     <use style="fill:#56b4e9;stroke:#56b4e9;" x="328.498548" xlink:href="#m47641871a7" y="120.192498"/>
     <use style="fill:#56b4e9;stroke:#56b4e9;" x="330.760161" xlink:href="#m47641871a7" y="147.521097"/>
     <use style="fill:#56b4e9;stroke:#56b4e9;" x="333.021774" xlink:href="#m47641871a7" y="152.031059"/>
     <use style="fill:#56b4e9;stroke:#56b4e9;" x="335.283387" xlink:href="#m47641871a7" y="135.778751"/>
     <use style="fill:#56b4e9;stroke:#56b4e9;" x="337.544999" xlink:href="#m47641871a7" y="115.385998"/>
     <use style="fill:#56b4e9;stroke:#56b4e9;" x="339.806612" xlink:href="#m47641871a7" y="116.014178"/>
     <use style="fill:#56b4e9;stroke:#56b4e9;" x="342.068225" xlink:href="#m47641871a7" y="145.233783"/>
     <use style="fill:#56b4e9;stroke:#56b4e9;" x="344.329838" xlink:href="#m47641871a7" y="118.683019"/>
     <use style="fill:#56b4e9;stroke:#56b4e9;" x="346.591451" xlink:href="#m47641871a7" y="160.065296"/>
     <use style="fill:#56b4e9;stroke:#56b4e9;" x="348.853064" xlink:href="#m47641871a7" y="169.578526"/>
     <use style="fill:#56b4e9;stroke:#56b4e9;" x="351.114677" xlink:href="#m47641871a7" y="195.404112"/>
     <use style="fill:#56b4e9;stroke:#56b4e9;" x="353.37629" xlink:href="#m47641871a7" y="209.992667"/>
     <use style="fill:#56b4e9;stroke:#56b4e9;" x="355.637903" xlink:href="#m47641871a7" y="204.39078"/>
     <use style="fill:#56b4e9;stroke:#56b4e9;" x="357.899516" xlink:href="#m47641871a7" y="234.353116"/>
     <use style="fill:#56b4e9;stroke:#56b4e9;" x="360.161129" xlink:href="#m47641871a7" y="217.18348"/>
     <use style="fill:#56b4e9;stroke:#56b4e9;" x="362.422742" xlink:href="#m47641871a7" y="259.425809"/>
     <use style="fill:#56b4e9;stroke:#56b4e9;" x="364.684355" xlink:href="#m47641871a7" y="271.911809"/>
     <use style="fill:#56b4e9;stroke:#56b4e9;" x="366.945968" xlink:href="#m47641871a7" y="271.466541"/>
     <use style="fill:#56b4e9;stroke:#56b4e9;" x="369.207581" xlink:href="#m47641871a7" y="222.873128"/>
     <use style="fill:#56b4e9;stroke:#56b4e9;" x="371.469194" xlink:href="#m47641871a7" y="211.804228"/>
     <use style="fill:#56b4e9;stroke:#56b4e9;" x="373.730806" xlink:href="#m47641871a7" y="208.985732"/>
     <use style="fill:#56b4e9;stroke:#56b4e9;" x="375.992419" xlink:href="#m47641871a7" y="182.784162"/>
     <use style="fill:#56b4e9;stroke:#56b4e9;" x="378.254032" xlink:href="#m47641871a7" y="201.957507"/>
     <use style="fill:#56b4e9;stroke:#56b4e9;" x="380.515645" xlink:href="#m47641871a7" y="153.208896"/>
     <use style="fill:#56b4e9;stroke:#56b4e9;" x="382.777258" xlink:href="#m47641871a7" y="154.931772"/>
     <use style="fill:#56b4e9;stroke:#56b4e9;" x="385.038871" xlink:href="#m47641871a7" y="141.246688"/>
     <use style="fill:#56b4e9;stroke:#56b4e9;" x="387.300484" xlink:href="#m47641871a7" y="151.173778"/>
     <use style="fill:#56b4e9;stroke:#56b4e9;" x="389.562097" xlink:href="#m47641871a7" y="148.218561"/>
     <use style="fill:#56b4e9;stroke:#56b4e9;" x="391.82371" xlink:href="#m47641871a7" y="148.743276"/>
     <use style="fill:#56b4e9;stroke:#56b4e9;" x="394.085323" xlink:href="#m47641871a7" y="148.892931"/>
     <use style="fill:#56b4e9;stroke:#56b4e9;" x="396.346936" xlink:href="#m47641871a7" y="99.54293"/>
     <use style="fill:#56b4e9;stroke:#56b4e9;" x="398.608549" xlink:href="#m47641871a7" y="155.217225"/>
     <use style="fill:#56b4e9;stroke:#56b4e9;" x="400.870162" xlink:href="#m47641871a7" y="86.831524"/>
     <use style="fill:#56b4e9;stroke:#56b4e9;" x="403.131775" xlink:href="#m47641871a7" y="144.297055"/>
     <use style="fill:#56b4e9;stroke:#56b4e9;" x="405.393388" xlink:href="#m47641871a7" y="112.947181"/>
     <use style="fill:#56b4e9;stroke:#56b4e9;" x="407.655001" xlink:href="#m47641871a7" y="111.478349"/>
     <use style="fill:#56b4e9;stroke:#56b4e9;" x="409.916613" xlink:href="#m47641871a7" y="169.135105"/>
     <use style="fill:#56b4e9;stroke:#56b4e9;" x="412.178226" xlink:href="#m47641871a7" y="140.514119"/>
     <use style="fill:#56b4e9;stroke:#56b4e9;" x="414.439839" xlink:href="#m47641871a7" y="159.049122"/>
     <use style="fill:#56b4e9;stroke:#56b4e9;" x="416.701452" xlink:href="#m47641871a7" y="130.634142"/>
     <use style="fill:#56b4e9;stroke:#56b4e9;" x="418.963065" xlink:href="#m47641871a7" y="115.044194"/>
     <use style="fill:#56b4e9;stroke:#56b4e9;" x="421.224678" xlink:href="#m47641871a7" y="81.28876"/>
     <use style="fill:#56b4e9;stroke:#56b4e9;" x="423.486291" xlink:href="#m47641871a7" y="119.725058"/>
     <use style="fill:#56b4e9;stroke:#56b4e9;" x="425.747904" xlink:href="#m47641871a7" y="124.901076"/>
     <use style="fill:#56b4e9;stroke:#56b4e9;" x="428.009517" xlink:href="#m47641871a7" y="135.182904"/>
     <use style="fill:#56b4e9;stroke:#56b4e9;" x="430.27113" xlink:href="#m47641871a7" y="118.535212"/>
     <use style="fill:#56b4e9;stroke:#56b4e9;" x="432.532743" xlink:href="#m47641871a7" y="106.665382"/>
     <use style="fill:#56b4e9;stroke:#56b4e9;" x="434.794356" xlink:href="#m47641871a7" y="113.889451"/>
     <use style="fill:#56b4e9;stroke:#56b4e9;" x="437.055969" xlink:href="#m47641871a7" y="116.374457"/>
     <use style="fill:#56b4e9;stroke:#56b4e9;" x="439.317582" xlink:href="#m47641871a7" y="136.862361"/>
     <use style="fill:#56b4e9;stroke:#56b4e9;" x="441.579195" xlink:href="#m47641871a7" y="143.666104"/>
     <use style="fill:#56b4e9;stroke:#56b4e9;" x="443.840808" xlink:href="#m47641871a7" y="163.339222"/>
     <use style="fill:#56b4e9;stroke:#56b4e9;" x="446.10242" xlink:href="#m47641871a7" y="80.420394"/>
     <use style="fill:#56b4e9;stroke:#56b4e9;" x="448.364033" xlink:href="#m47641871a7" y="125.168976"/>
     <use style="fill:#56b4e9;stroke:#56b4e9;" x="450.625646" xlink:href="#m47641871a7" y="162.158613"/>
     <use style="fill:#56b4e9;stroke:#56b4e9;" x="452.887259" xlink:href="#m47641871a7" y="111.404445"/>
     <use style="fill:#56b4e9;stroke:#56b4e9;" x="455.148872" xlink:href="#m47641871a7" y="142.2139"/>
     <use style="fill:#56b4e9;stroke:#56b4e9;" x="457.410485" xlink:href="#m47641871a7" y="94.184925"/>
     <use style="fill:#56b4e9;stroke:#56b4e9;" x="459.672098" xlink:href="#m47641871a7" y="139.974623"/>
     <use style="fill:#56b4e9;stroke:#56b4e9;" x="461.933711" xlink:href="#m47641871a7" y="95.044053"/>
     <use style="fill:#56b4e9;stroke:#56b4e9;" x="464.195324" xlink:href="#m47641871a7" y="120.853935"/>
     <use style="fill:#56b4e9;stroke:#56b4e9;" x="466.456937" xlink:href="#m47641871a7" y="90.064804"/>
     <use style="fill:#56b4e9;stroke:#56b4e9;" x="468.71855" xlink:href="#m47641871a7" y="89.020916"/>
     <use style="fill:#56b4e9;stroke:#56b4e9;" x="470.980163" xlink:href="#m47641871a7" y="90.175659"/>
     <use style="fill:#56b4e9;stroke:#56b4e9;" x="473.241776" xlink:href="#m47641871a7" y="77.427301"/>
     <use style="fill:#56b4e9;stroke:#56b4e9;" x="475.503389" xlink:href="#m47641871a7" y="102.73002"/>
     <use style="fill:#56b4e9;stroke:#56b4e9;" x="477.765002" xlink:href="#m47641871a7" y="144.060564"/>
     <use style="fill:#56b4e9;stroke:#56b4e9;" x="480.026615" xlink:href="#m47641871a7" y="136.505777"/>
     <use style="fill:#56b4e9;stroke:#56b4e9;" x="482.288227" xlink:href="#m47641871a7" y="69.612004"/>
     <use style="fill:#56b4e9;stroke:#56b4e9;" x="484.54984" xlink:href="#m47641871a7" y="148.525261"/>
     <use style="fill:#56b4e9;stroke:#56b4e9;" x="486.811453" xlink:href="#m47641871a7" y="115.210477"/>
     <use style="fill:#56b4e9;stroke:#56b4e9;" x="489.073066" xlink:href="#m47641871a7" y="109.603047"/>
     <use style="fill:#56b4e9;stroke:#56b4e9;" x="491.334679" xlink:href="#m47641871a7" y="122.162027"/>
     <use style="fill:#56b4e9;stroke:#56b4e9;" x="493.596292" xlink:href="#m47641871a7" y="106.471385"/>
     <use style="fill:#56b4e9;stroke:#56b4e9;" x="495.857905" xlink:href="#m47641871a7" y="103.182679"/>
     <use style="fill:#56b4e9;stroke:#56b4e9;" x="498.119518" xlink:href="#m47641871a7" y="85.353454"/>
     <use style="fill:#56b4e9;stroke:#56b4e9;" x="500.381131" xlink:href="#m47641871a7" y="145.132165"/>
     <use style="fill:#56b4e9;stroke:#56b4e9;" x="502.642744" xlink:href="#m47641871a7" y="100.771576"/>
     <use style="fill:#56b4e9;stroke:#56b4e9;" x="504.904357" xlink:href="#m47641871a7" y="134.389365"/>
     <use style="fill:#56b4e9;stroke:#56b4e9;" x="507.16597" xlink:href="#m47641871a7" y="91.348877"/>
     <use style="fill:#56b4e9;stroke:#56b4e9;" x="509.427583" xlink:href="#m47641871a7" y="105.178074"/>
     <use style="fill:#56b4e9;stroke:#56b4e9;" x="511.689196" xlink:href="#m47641871a7" y="127.603174"/>
     <use style="fill:#56b4e9;stroke:#56b4e9;" x="513.950809" xlink:href="#m47641871a7" y="129.157919"/>
     <use style="fill:#56b4e9;stroke:#56b4e9;" x="516.212422" xlink:href="#m47641871a7" y="137.126566"/>
     <use style="fill:#56b4e9;stroke:#56b4e9;" x="518.474034" xlink:href="#m47641871a7" y="123.328779"/>
     <use style="fill:#56b4e9;stroke:#56b4e9;" x="520.735647" xlink:href="#m47641871a7" y="108.300498"/>
     <use style="fill:#56b4e9;stroke:#56b4e9;" x="522.99726" xlink:href="#m47641871a7" y="101.270425"/>
     <use style="fill:#56b4e9;stroke:#56b4e9;" x="525.258873" xlink:href="#m47641871a7" y="132.997207"/>
     <use style="fill:#56b4e9;stroke:#56b4e9;" x="527.520486" xlink:href="#m47641871a7" y="106.554527"/>
     <use style="fill:#56b4e9;stroke:#56b4e9;" x="529.782099" xlink:href="#m47641871a7" y="138.933507"/>
     <use style="fill:#56b4e9;stroke:#56b4e9;" x="532.043712" xlink:href="#m47641871a7" y="89.36272"/>
     <use style="fill:#56b4e9;stroke:#56b4e9;" x="534.305325" xlink:href="#m47641871a7" y="125.899697"/>
     <use style="fill:#56b4e9;stroke:#56b4e9;" x="536.566938" xlink:href="#m47641871a7" y="143.360328"/>
     <use style="fill:#56b4e9;stroke:#56b4e9;" x="538.828551" xlink:href="#m47641871a7" y="90.480511"/>
     <use style="fill:#56b4e9;stroke:#56b4e9;" x="541.090164" xlink:href="#m47641871a7" y="101.630705"/>
     <use style="fill:#56b4e9;stroke:#56b4e9;" x="543.351777" xlink:href="#m47641871a7" y="136.064203"/>
     <use style="fill:#56b4e9;stroke:#56b4e9;" x="545.61339" xlink:href="#m47641871a7" y="118.988794"/>
     <use style="fill:#56b4e9;stroke:#56b4e9;" x="547.875003" xlink:href="#m47641871a7" y="131.314978"/>
     <use style="fill:#56b4e9;stroke:#56b4e9;" x="550.136616" xlink:href="#m47641871a7" y="124.279363"/>
     <use style="fill:#56b4e9;stroke:#56b4e9;" x="552.398229" xlink:href="#m47641871a7" y="80.401918"/>
     <use style="fill:#56b4e9;stroke:#56b4e9;" x="554.659841" xlink:href="#m47641871a7" y="103.26582"/>
     <use style="fill:#56b4e9;stroke:#56b4e9;" x="556.921454" xlink:href="#m47641871a7" y="137.697471"/>
     <use style="fill:#56b4e9;stroke:#56b4e9;" x="559.183067" xlink:href="#m47641871a7" y="52.808191"/>
    </g>
   </g>
   <g id="matplotlib.axis_1">
    <g id="xtick_1">
     <g id="line2d_1">
      <path clip-path="url(#p03c11bab94)" d="M 192.801771 285.12 
L 192.801771 39.6 
" style="fill:none;stroke:#b2b2b2;stroke-dasharray:2.96,1.28;stroke-dashoffset:0;stroke-opacity:0.3;stroke-width:0.8;"/>
     </g>
     <g id="line2d_2">
      <defs>
       <path d="M 0 0 
L 0 3.5 
" id="ma859c6b74d" style="stroke:#000000;stroke-width:0.8;"/>
      </defs>
      <g>
       <use style="stroke:#000000;stroke-width:0.8;" x="192.801771" xlink:href="#ma859c6b74d" y="285.12"/>
      </g>
     </g>
     <g id="text_1">
      <!-- 10.00 -->
      <defs>
       <path d="M 12.40625 8.296875 
L 28.515625 8.296875 
L 28.515625 63.921875 
L 10.984375 60.40625 
L 10.984375 69.390625 
L 28.421875 72.90625 
L 38.28125 72.90625 
L 38.28125 8.296875 
L 54.390625 8.296875 
L 54.390625 0 
L 12.40625 0 
z
" id="DejaVuSans-49"/>
       <path d="M 31.78125 66.40625 
Q 24.171875 66.40625 20.328125 58.90625 
Q 16.5 51.421875 16.5 36.375 
Q 16.5 21.390625 20.328125 13.890625 
Q 24.171875 6.390625 31.78125 6.390625 
Q 39.453125 6.390625 43.28125 13.890625 
Q 47.125 21.390625 47.125 36.375 
Q 47.125 51.421875 43.28125 58.90625 
Q 39.453125 66.40625 31.78125 66.40625 
z
M 31.78125 74.21875 
Q 44.046875 74.21875 50.515625 64.515625 
Q 56.984375 54.828125 56.984375 36.375 
Q 56.984375 17.96875 50.515625 8.265625 
Q 44.046875 -1.421875 31.78125 -1.421875 
Q 19.53125 -1.421875 13.0625 8.265625 
Q 6.59375 17.96875 6.59375 36.375 
Q 6.59375 54.828125 13.0625 64.515625 
Q 19.53125 74.21875 31.78125 74.21875 
z
" id="DejaVuSans-48"/>
       <path d="M 10.6875 12.40625 
L 21 12.40625 
L 21 0 
L 10.6875 0 
z
" id="DejaVuSans-46"/>
      </defs>
      <g transform="translate(128.38849 326.312969)scale(0.45 -0.45)">
       <use xlink:href="#DejaVuSans-49"/>
       <use x="63.623047" xlink:href="#DejaVuSans-48"/>
       <use x="127.246094" xlink:href="#DejaVuSans-46"/>
       <use x="159.033203" xlink:href="#DejaVuSans-48"/>
       <use x="222.65625" xlink:href="#DejaVuSans-48"/>
      </g>
     </g>
    </g>
    <g id="xtick_2">
     <g id="line2d_3">
      <path clip-path="url(#p03c11bab94)" d="M 381.269516 285.12 
L 381.269516 39.6 
" style="fill:none;stroke:#b2b2b2;stroke-dasharray:2.96,1.28;stroke-dashoffset:0;stroke-opacity:0.3;stroke-width:0.8;"/>
     </g>
     <g id="line2d_4">
      <g>
       <use style="stroke:#000000;stroke-width:0.8;" x="381.269516" xlink:href="#ma859c6b74d" y="285.12"/>
      </g>
     </g>
     <g id="text_2">
      <!-- 10.05 -->
      <defs>
       <path d="M 10.796875 72.90625 
L 49.515625 72.90625 
L 49.515625 64.59375 
L 19.828125 64.59375 
L 19.828125 46.734375 
Q 21.96875 47.46875 24.109375 47.828125 
Q 26.265625 48.1875 28.421875 48.1875 
Q 40.625 48.1875 47.75 41.5 
Q 54.890625 34.8125 54.890625 23.390625 
Q 54.890625 11.625 47.5625 5.09375 
Q 40.234375 -1.421875 26.90625 -1.421875 
Q 22.3125 -1.421875 17.546875 -0.640625 
Q 12.796875 0.140625 7.71875 1.703125 
L 7.71875 11.625 
Q 12.109375 9.234375 16.796875 8.0625 
Q 21.484375 6.890625 26.703125 6.890625 
Q 35.15625 6.890625 40.078125 11.328125 
Q 45.015625 15.765625 45.015625 23.390625 
Q 45.015625 31 40.078125 35.4375 
Q 35.15625 39.890625 26.703125 39.890625 
Q 22.75 39.890625 18.8125 39.015625 
Q 14.890625 38.140625 10.796875 36.28125 
z
" id="DejaVuSans-53"/>
      </defs>
      <g transform="translate(316.856235 326.312969)scale(0.45 -0.45)">
       <use xlink:href="#DejaVuSans-49"/>
       <use x="63.623047" xlink:href="#DejaVuSans-48"/>
       <use x="127.246094" xlink:href="#DejaVuSans-46"/>
       <use x="159.033203" xlink:href="#DejaVuSans-48"/>
       <use x="222.65625" xlink:href="#DejaVuSans-53"/>
      </g>
     </g>
    </g>
    <g id="xtick_3">
     <g id="line2d_5">
      <path clip-path="url(#p03c11bab94)" d="M 569.737261 285.12 
L 569.737261 39.6 
" style="fill:none;stroke:#b2b2b2;stroke-dasharray:2.96,1.28;stroke-dashoffset:0;stroke-opacity:0.3;stroke-width:0.8;"/>
     </g>
     <g id="line2d_6">
      <g>
       <use style="stroke:#000000;stroke-width:0.8;" x="569.737261" xlink:href="#ma859c6b74d" y="285.12"/>
      </g>
     </g>
     <g id="text_3">
      <!-- 10.10 -->
      <g transform="translate(505.32398 326.312969)scale(0.45 -0.45)">
       <use xlink:href="#DejaVuSans-49"/>
       <use x="63.623047" xlink:href="#DejaVuSans-48"/>
       <use x="127.246094" xlink:href="#DejaVuSans-46"/>
       <use x="159.033203" xlink:href="#DejaVuSans-49"/>
       <use x="222.65625" xlink:href="#DejaVuSans-48"/>
      </g>
     </g>
    </g>
    <g id="text_4">
     <!-- $\omega_{21}/ 2 \pi$ (GHz) -->
     <defs>
      <path d="M 12.109375 -1.125 
Q 6.453125 -1.125 3.9375 3.015625 
Q 1.421875 7.171875 1.421875 13.1875 
Q 1.421875 17.140625 2.125 20.921875 
Q 2.828125 24.703125 4.265625 28.578125 
Q 5.71875 32.46875 7.5625 35.859375 
Q 9.421875 39.265625 11.71875 42.484375 
Q 12.15625 43.109375 12.890625 43.109375 
Q 13.53125 43.109375 13.921875 42.71875 
Q 14.3125 42.328125 14.3125 41.796875 
Q 14.3125 41.265625 14.015625 40.828125 
Q 4.890625 28.265625 4.890625 17.671875 
Q 4.890625 13.09375 7 9.796875 
Q 9.125 6.5 13.484375 6.5 
Q 17.234375 6.5 20.4375 8.6875 
Q 23.640625 10.890625 25.984375 14.3125 
Q 25.984375 16.0625 26.59375 19.765625 
Q 27.203125 23.484375 28.484375 26.390625 
Q 29.78125 29.296875 31.59375 29.296875 
Q 33.890625 29.296875 33.890625 26.609375 
Q 33.890625 25.046875 33.21875 22.671875 
Q 32.5625 20.3125 31.75 18.265625 
Q 30.953125 16.21875 29.78125 13.625 
Q 30.953125 6.5 36.921875 6.5 
Q 40.375 6.5 43.859375 8.5 
Q 47.359375 10.5 50.046875 13.75 
Q 52.734375 17 54.265625 20.75 
Q 55.8125 24.515625 55.8125 27.875 
Q 55.8125 30.90625 54.859375 32.59375 
Q 53.90625 34.28125 52.34375 36.125 
Q 50.78125 37.984375 50.78125 39.109375 
Q 50.78125 41.0625 52.4375 42.671875 
Q 54.109375 44.28125 56 44.28125 
Q 58.453125 44.28125 59.46875 42.0625 
Q 60.5 39.84375 60.5 37.015625 
Q 60.5 32.421875 58.671875 25.4375 
Q 56.84375 18.453125 54.5 13.8125 
Q 51.265625 7.515625 46.40625 3.1875 
Q 41.546875 -1.125 35.5 -1.125 
Q 31.640625 -1.125 29.265625 1.1875 
Q 26.90625 3.515625 26.21875 7.515625 
Q 23.4375 3.5625 19.875 1.21875 
Q 16.3125 -1.125 12.109375 -1.125 
z
" id="Cmmi10-33"/>
      <path d="M 4.984375 0 
L 4.984375 2.6875 
Q 4.984375 2.9375 5.171875 3.21875 
L 20.703125 20.40625 
Q 24.21875 24.21875 26.40625 26.796875 
Q 28.609375 29.390625 30.75 32.765625 
Q 32.90625 36.140625 34.15625 39.625 
Q 35.40625 43.109375 35.40625 47.015625 
Q 35.40625 51.125 33.890625 54.859375 
Q 32.375 58.59375 29.375 60.84375 
Q 26.375 63.09375 22.125 63.09375 
Q 17.78125 63.09375 14.3125 60.46875 
Q 10.84375 57.859375 9.421875 53.71875 
Q 9.8125 53.8125 10.5 53.8125 
Q 12.75 53.8125 14.328125 52.296875 
Q 15.921875 50.78125 15.921875 48.390625 
Q 15.921875 46.09375 14.328125 44.5 
Q 12.75 42.921875 10.5 42.921875 
Q 8.15625 42.921875 6.5625 44.546875 
Q 4.984375 46.1875 4.984375 48.390625 
Q 4.984375 52.15625 6.390625 55.4375 
Q 7.8125 58.734375 10.46875 61.296875 
Q 13.140625 63.875 16.484375 65.234375 
Q 19.828125 66.609375 23.578125 66.609375 
Q 29.296875 66.609375 34.21875 64.1875 
Q 39.15625 61.765625 42.03125 57.34375 
Q 44.921875 52.9375 44.921875 47.015625 
Q 44.921875 42.671875 43.015625 38.765625 
Q 41.109375 34.859375 38.125 31.65625 
Q 35.15625 28.46875 30.515625 24.40625 
Q 25.875 20.359375 24.421875 19 
L 13.09375 8.109375 
L 22.703125 8.109375 
Q 29.78125 8.109375 34.546875 8.21875 
Q 39.3125 8.34375 39.59375 8.59375 
Q 40.765625 9.859375 42 17.828125 
L 44.921875 17.828125 
L 42.09375 0 
z
" id="Cmr10-50"/>
      <path d="M 9.28125 0 
L 9.28125 3.515625 
Q 21.78125 3.515625 21.78125 6.6875 
L 21.78125 59.1875 
Q 16.609375 56.6875 8.6875 56.6875 
L 8.6875 60.203125 
Q 20.953125 60.203125 27.203125 66.609375 
L 28.609375 66.609375 
Q 28.953125 66.609375 29.265625 66.328125 
Q 29.59375 66.0625 29.59375 65.71875 
L 29.59375 6.6875 
Q 29.59375 3.515625 42.09375 3.515625 
L 42.09375 0 
z
" id="Cmr10-49"/>
      <path d="M 5.609375 -23 
Q 5.609375 -22.703125 5.71875 -22.609375 
L 40.484375 73.78125 
Q 40.671875 74.359375 41.15625 74.671875 
Q 41.65625 75 42.28125 75 
Q 43.171875 75 43.71875 74.453125 
Q 44.28125 73.921875 44.28125 73 
L 44.28125 72.609375 
L 9.515625 -23.78125 
Q 8.9375 -25 7.625 -25 
Q 6.78125 -25 6.1875 -24.40625 
Q 5.609375 -23.828125 5.609375 -23 
z
" id="Cmmi10-61"/>
      <path d="M 10.109375 1.703125 
Q 10.109375 2.25 10.5 3.328125 
Q 13.28125 9.125 15.6875 14.71875 
Q 18.109375 20.3125 20.03125 25.609375 
Q 21.96875 30.90625 23.578125 36.921875 
L 17.1875 36.921875 
Q 13.53125 36.921875 10.34375 34.625 
Q 7.171875 32.328125 5.078125 28.8125 
Q 4.890625 28.421875 4.5 28.421875 
L 3.328125 28.421875 
Q 2.390625 28.421875 2.390625 29.390625 
Q 2.390625 29.59375 2.59375 29.984375 
Q 5.859375 35.546875 9.59375 39.328125 
Q 13.328125 43.109375 18.015625 43.109375 
L 54.296875 43.109375 
Q 55.328125 43.109375 56.046875 42.421875 
Q 56.78125 41.75 56.78125 40.578125 
Q 56.78125 39.109375 55.734375 38.015625 
Q 54.6875 36.921875 53.21875 36.921875 
L 40.484375 36.921875 
Q 38.875 29.046875 38.71875 21.578125 
Q 38.71875 11.96875 42.09375 4.203125 
Q 42.390625 3.609375 42.390625 2.984375 
Q 42.390625 1.90625 41.75 0.96875 
Q 41.109375 0.046875 40.109375 -0.53125 
Q 39.109375 -1.125 37.984375 -1.125 
Q 35.359375 -1.125 34.375 3.171875 
Q 33.40625 7.46875 33.40625 11.53125 
Q 33.40625 17.234375 34.375 22.53125 
Q 35.359375 27.828125 37.5 36.921875 
L 26.609375 36.921875 
Q 18.703125 4.890625 17.09375 1.609375 
Q 15.671875 -1.125 13.1875 -1.125 
Q 11.96875 -1.125 11.03125 -0.3125 
Q 10.109375 0.484375 10.109375 1.703125 
z
" id="Cmmi10-188"/>
      <path id="DejaVuSans-32"/>
      <path d="M 31 75.875 
Q 24.46875 64.65625 21.28125 53.65625 
Q 18.109375 42.671875 18.109375 31.390625 
Q 18.109375 20.125 21.3125 9.0625 
Q 24.515625 -2 31 -13.1875 
L 23.1875 -13.1875 
Q 15.875 -1.703125 12.234375 9.375 
Q 8.59375 20.453125 8.59375 31.390625 
Q 8.59375 42.28125 12.203125 53.3125 
Q 15.828125 64.359375 23.1875 75.875 
z
" id="DejaVuSans-40"/>
      <path d="M 59.515625 10.40625 
L 59.515625 29.984375 
L 43.40625 29.984375 
L 43.40625 38.09375 
L 69.28125 38.09375 
L 69.28125 6.78125 
Q 63.578125 2.734375 56.6875 0.65625 
Q 49.8125 -1.421875 42 -1.421875 
Q 24.90625 -1.421875 15.25 8.5625 
Q 5.609375 18.5625 5.609375 36.375 
Q 5.609375 54.25 15.25 64.234375 
Q 24.90625 74.21875 42 74.21875 
Q 49.125 74.21875 55.546875 72.453125 
Q 61.96875 70.703125 67.390625 67.28125 
L 67.390625 56.78125 
Q 61.921875 61.421875 55.765625 63.765625 
Q 49.609375 66.109375 42.828125 66.109375 
Q 29.4375 66.109375 22.71875 58.640625 
Q 16.015625 51.171875 16.015625 36.375 
Q 16.015625 21.625 22.71875 14.15625 
Q 29.4375 6.6875 42.828125 6.6875 
Q 48.046875 6.6875 52.140625 7.59375 
Q 56.25 8.5 59.515625 10.40625 
z
" id="DejaVuSans-71"/>
      <path d="M 9.8125 72.90625 
L 19.671875 72.90625 
L 19.671875 43.015625 
L 55.515625 43.015625 
L 55.515625 72.90625 
L 65.375 72.90625 
L 65.375 0 
L 55.515625 0 
L 55.515625 34.71875 
L 19.671875 34.71875 
L 19.671875 0 
L 9.8125 0 
z
" id="DejaVuSans-72"/>
      <path d="M 5.515625 54.6875 
L 48.1875 54.6875 
L 48.1875 46.484375 
L 14.40625 7.171875 
L 48.1875 7.171875 
L 48.1875 0 
L 4.296875 0 
L 4.296875 8.203125 
L 38.09375 47.515625 
L 5.515625 47.515625 
z
" id="DejaVuSans-122"/>
      <path d="M 8.015625 75.875 
L 15.828125 75.875 
Q 23.140625 64.359375 26.78125 53.3125 
Q 30.421875 42.28125 30.421875 31.390625 
Q 30.421875 20.453125 26.78125 9.375 
Q 23.140625 -1.703125 15.828125 -13.1875 
L 8.015625 -13.1875 
Q 14.5 -2 17.703125 9.0625 
Q 20.90625 20.125 20.90625 31.390625 
Q 20.90625 42.671875 17.703125 53.65625 
Q 14.5 64.65625 8.015625 75.875 
z
" id="DejaVuSans-41"/>
     </defs>
     <g transform="translate(235.125 373.871562)scale(0.45 -0.45)">
      <use transform="translate(0 0.125)" xlink:href="#Cmmi10-33"/>
      <use transform="translate(62.207031 -16.88125)scale(0.7)" xlink:href="#Cmr10-50"/>
      <use transform="translate(97.207031 -16.88125)scale(0.7)" xlink:href="#Cmr10-49"/>
      <use transform="translate(138.584375 0.125)" xlink:href="#Cmmi10-61"/>
      <use transform="translate(188.584375 0.125)" xlink:href="#Cmr10-50"/>
      <use transform="translate(238.584375 0.125)" xlink:href="#Cmmi10-188"/>
      <use transform="translate(295.566797 0.125)" xlink:href="#DejaVuSans-32"/>
      <use transform="translate(327.353906 0.125)" xlink:href="#DejaVuSans-40"/>
      <use transform="translate(366.367578 0.125)" xlink:href="#DejaVuSans-71"/>
      <use transform="translate(443.857813 0.125)" xlink:href="#DejaVuSans-72"/>
      <use transform="translate(519.053125 0.125)" xlink:href="#DejaVuSans-122"/>
      <use transform="translate(571.543359 0.125)" xlink:href="#DejaVuSans-41"/>
     </g>
    </g>
   </g>
   <g id="matplotlib.axis_2">
    <g id="ytick_1">
     <g id="line2d_7">
      <path clip-path="url(#p03c11bab94)" d="M 162 210.776969 
L 583.2 210.776969 
" style="fill:none;stroke:#b2b2b2;stroke-dasharray:2.96,1.28;stroke-dashoffset:0;stroke-opacity:0.3;stroke-width:0.8;"/>
     </g>
     <g id="line2d_8">
      <defs>
       <path d="M 0 0 
L -3.5 0 
" id="m6c495c91ac" style="stroke:#000000;stroke-width:0.8;"/>
      </defs>
      <g>
       <use style="stroke:#000000;stroke-width:0.8;" x="162" xlink:href="#m6c495c91ac" y="210.776969"/>
      </g>
     </g>
     <g id="text_5">
      <!-- 0.9 -->
      <defs>
       <path d="M 10.984375 1.515625 
L 10.984375 10.5 
Q 14.703125 8.734375 18.5 7.8125 
Q 22.3125 6.890625 25.984375 6.890625 
Q 35.75 6.890625 40.890625 13.453125 
Q 46.046875 20.015625 46.78125 33.40625 
Q 43.953125 29.203125 39.59375 26.953125 
Q 35.25 24.703125 29.984375 24.703125 
Q 19.046875 24.703125 12.671875 31.3125 
Q 6.296875 37.9375 6.296875 49.421875 
Q 6.296875 60.640625 12.9375 67.421875 
Q 19.578125 74.21875 30.609375 74.21875 
Q 43.265625 74.21875 49.921875 64.515625 
Q 56.59375 54.828125 56.59375 36.375 
Q 56.59375 19.140625 48.40625 8.859375 
Q 40.234375 -1.421875 26.421875 -1.421875 
Q 22.703125 -1.421875 18.890625 -0.6875 
Q 15.09375 0.046875 10.984375 1.515625 
z
M 30.609375 32.421875 
Q 37.25 32.421875 41.125 36.953125 
Q 45.015625 41.5 45.015625 49.421875 
Q 45.015625 57.28125 41.125 61.84375 
Q 37.25 66.40625 30.609375 66.40625 
Q 23.96875 66.40625 20.09375 61.84375 
Q 16.21875 57.28125 16.21875 49.421875 
Q 16.21875 41.5 20.09375 36.953125 
Q 23.96875 32.421875 30.609375 32.421875 
z
" id="DejaVuSans-57"/>
      </defs>
      <g transform="translate(83.435937 227.873453)scale(0.45 -0.45)">
       <use xlink:href="#DejaVuSans-48"/>
       <use x="63.623047" xlink:href="#DejaVuSans-46"/>
       <use x="95.410156" xlink:href="#DejaVuSans-57"/>
      </g>
     </g>
    </g>
    <g id="ytick_2">
     <g id="line2d_9">
      <path clip-path="url(#p03c11bab94)" d="M 162 118.397566 
L 583.2 118.397566 
" style="fill:none;stroke:#b2b2b2;stroke-dasharray:2.96,1.28;stroke-dashoffset:0;stroke-opacity:0.3;stroke-width:0.8;"/>
     </g>
     <g id="line2d_10">
      <g>
       <use style="stroke:#000000;stroke-width:0.8;" x="162" xlink:href="#m6c495c91ac" y="118.397566"/>
      </g>
     </g>
     <g id="text_6">
      <!-- 1.0 -->
      <g transform="translate(83.435937 135.494051)scale(0.45 -0.45)">
       <use xlink:href="#DejaVuSans-49"/>
       <use x="63.623047" xlink:href="#DejaVuSans-46"/>
       <use x="95.410156" xlink:href="#DejaVuSans-48"/>
      </g>
     </g>
    </g>
    <g id="text_7">
     <!-- $|t|^2$ -->
     <defs>
      <path d="M 11.921875 -23.1875 
L 11.921875 73.1875 
Q 11.921875 73.96875 12.5 74.484375 
Q 13.09375 75 13.921875 75 
Q 14.65625 75 15.28125 74.484375 
Q 15.921875 73.96875 15.921875 73.1875 
L 15.921875 -23.1875 
Q 15.921875 -23.96875 15.28125 -24.484375 
Q 14.65625 -25 13.921875 -25 
Q 13.09375 -25 12.5 -24.484375 
Q 11.921875 -23.96875 11.921875 -23.1875 
z
" id="Cmsy10-106"/>
      <path d="M 6.203125 8.109375 
Q 6.203125 9.578125 6.5 10.890625 
L 13.71875 39.59375 
L 3.21875 39.59375 
Q 2.203125 39.59375 2.203125 40.921875 
Q 2.59375 43.109375 3.515625 43.109375 
L 14.59375 43.109375 
L 18.609375 59.421875 
Q 19 60.75 20.171875 61.671875 
Q 21.34375 62.59375 22.796875 62.59375 
Q 24.078125 62.59375 24.921875 61.828125 
Q 25.78125 61.078125 25.78125 59.8125 
Q 25.78125 59.515625 25.75 59.34375 
Q 25.734375 59.1875 25.6875 58.984375 
L 21.6875 43.109375 
L 31.984375 43.109375 
Q 33.015625 43.109375 33.015625 41.796875 
Q 32.953125 41.546875 32.8125 40.953125 
Q 32.671875 40.375 32.421875 39.984375 
Q 32.171875 39.59375 31.6875 39.59375 
L 20.796875 39.59375 
L 13.625 10.6875 
Q 12.890625 7.859375 12.890625 5.8125 
Q 12.890625 1.515625 15.828125 1.515625 
Q 20.21875 1.515625 23.609375 5.640625 
Q 27 9.765625 28.8125 14.703125 
Q 29.203125 15.28125 29.59375 15.28125 
L 30.8125 15.28125 
Q 31.203125 15.28125 31.4375 15.015625 
Q 31.6875 14.75 31.6875 14.40625 
Q 31.6875 14.203125 31.59375 14.109375 
Q 29.390625 8.0625 25.1875 3.46875 
Q 21 -1.125 15.578125 -1.125 
Q 11.625 -1.125 8.90625 1.453125 
Q 6.203125 4.046875 6.203125 8.109375 
z
" id="Cmmi10-116"/>
     </defs>
     <g transform="translate(68.185937 193.41)rotate(-90)scale(0.45 -0.45)">
      <use transform="translate(0 0.109375)" xlink:href="#Cmsy10-106"/>
      <use transform="translate(27.685547 0.109375)" xlink:href="#Cmmi10-116"/>
      <use transform="translate(63.769531 0.109375)" xlink:href="#Cmsy10-106"/>
      <use transform="translate(95.919219 38.373438)scale(0.7)" xlink:href="#Cmr10-50"/>
     </g>
    </g>
   </g>
   <g id="line2d_11">
    <defs>
     <path d="M 0 7 
C 1.856422 7 3.637059 6.262436 4.949747 4.949747 
C 6.262436 3.637059 7 1.856422 7 0 
C 7 -1.856422 6.262436 -3.637059 4.949747 -4.949747 
C 3.637059 -6.262436 1.856422 -7 0 -7 
C -1.856422 -7 -3.637059 -6.262436 -4.949747 -4.949747 
C -6.262436 -3.637059 -7 -1.856422 -7 0 
C -7 1.856422 -6.262436 3.637059 -4.949747 4.949747 
C -3.637059 6.262436 -1.856422 7 0 7 
z
" id="mbd42f3f7e3" style="stroke:#56b4e9;stroke-opacity:0.95;"/>
    </defs>
    <g clip-path="url(#p03c11bab94)">
     <use style="fill:#004ba8;fill-opacity:0.95;stroke:#56b4e9;stroke-opacity:0.95;" x="364.407885" xlink:href="#mbd42f3f7e3" y="264.678565"/>
    </g>
   </g>
   <g id="line2d_12">
    <path clip-path="url(#p03c11bab94)" d="M 186.016933 118.914197 
L 226.154897 119.255339 
L 251.426949 119.67772 
L 268.522748 120.168157 
L 281.158774 120.736244 
L 290.821617 121.376229 
L 298.254574 122.064042 
L 304.944234 122.906595 
L 310.147304 123.777286 
L 314.607077 124.737714 
L 318.323556 125.74517 
L 322.040034 127.00754 
L 325.013216 128.261003 
L 327.986399 129.800766 
L 330.216286 131.196836 
L 332.446173 132.855517 
L 334.67606 134.843689 
L 336.905947 137.249487 
L 338.392538 139.141745 
L 339.879129 141.314892 
L 341.36572 143.822524 
L 342.852312 146.729971 
L 344.338903 150.116773 
L 345.825494 154.07931 
L 347.312085 158.733201 
L 348.798677 164.214557 
L 350.285268 170.678261 
L 351.771859 178.289802 
L 353.25845 187.204659 
L 354.745042 197.525749 
L 356.231633 209.22683 
L 359.204816 235.270802 
L 360.691407 247.750384 
L 361.434702 253.199386 
L 362.177998 257.816944 
L 362.921294 261.383525 
L 363.664589 263.713686 
L 364.407885 264.678565 
L 365.151181 264.222984 
L 365.894476 262.373129 
L 366.637772 259.232882 
L 367.381068 254.969722 
L 368.867659 243.933689 
L 374.814024 194.068243 
L 376.300615 184.202417 
L 377.787206 175.719461 
L 379.273798 168.493189 
L 380.760389 162.361567 
L 382.24698 157.16101 
L 383.733572 152.742153 
L 385.220163 148.97545 
L 386.706754 145.751652 
L 388.193345 142.980054 
L 389.679937 140.585946 
L 391.166528 138.508005 
L 393.396415 135.876366 
L 395.626302 133.711316 
L 397.856189 131.91267 
L 400.086075 130.404723 
L 402.315962 129.129726 
L 405.289145 127.716673 
L 408.262327 126.560504 
L 411.978806 125.390198 
L 415.695284 124.451486 
L 420.155058 123.552246 
L 425.358127 122.732949 
L 431.304492 122.013268 
L 438.737448 121.338924 
L 448.400292 120.710206 
L 460.293022 120.177948 
L 475.90223 119.718003 
L 497.457804 119.326946 
L 527.932925 119.01391 
L 556.921454 118.84268 
L 556.921454 118.84268 
" style="fill:none;stroke:#004ba8;stroke-linecap:square;stroke-width:1.8;"/>
   </g>
   <g id="patch_3">
    <path d="M 162 285.12 
L 162 39.6 
" style="fill:none;stroke:#8787ff;stroke-linecap:square;stroke-linejoin:miter;stroke-width:0.8;"/>
   </g>
   <g id="patch_4">
    <path d="M 583.2 285.12 
L 583.2 39.6 
" style="fill:none;stroke:#8787ff;stroke-linecap:square;stroke-linejoin:miter;stroke-width:0.8;"/>
   </g>
   <g id="patch_5">
    <path d="M 162 285.12 
L 583.2 285.12 
" style="fill:none;stroke:#8787ff;stroke-linecap:square;stroke-linejoin:miter;stroke-width:0.8;"/>
   </g>
   <g id="patch_6">
    <path d="M 162 39.6 
L 583.2 39.6 
" style="fill:none;stroke:#8787ff;stroke-linecap:square;stroke-linejoin:miter;stroke-width:0.8;"/>
   </g>
  </g>
 </g>
 <defs>
  <clipPath id="p03c11bab94">
   <rect height="245.52" width="421.2" x="162" y="39.6"/>
  </clipPath>
 </defs>
</svg>
