<?xml version="1.0" encoding="utf-8" standalone="no"?>
<!DOCTYPE svg PUBLIC "-//W3C//DTD SVG 1.1//EN"
  "http://www.w3.org/Graphics/SVG/1.1/DTD/svg11.dtd">
<!-- Created with matplotlib (https://matplotlib.org/) -->
<svg height="396pt" version="1.1" viewBox="0 0 648 396" width="648pt" xmlns="http://www.w3.org/2000/svg" xmlns:xlink="http://www.w3.org/1999/xlink">
 <defs>
  <style type="text/css">
*{stroke-linecap:butt;stroke-linejoin:round;}
  </style>
 </defs>
 <g id="figure_1">
  <g id="patch_1">
   <path d="M 0 396 
L 648 396 
L 648 0 
L 0 0 
z
" style="fill:none;"/>
  </g>
  <g id="axes_1">
   <g id="patch_2">
    <path d="M 129.6 336.6 
L 583.2 336.6 
L 583.2 39.6 
L 129.6 39.6 
z
" style="fill:none;"/>
   </g>
   <g id="matplotlib.axis_1">
    <g id="xtick_1">
     <g id="line2d_1">
      <path clip-path="url(#p5602048a5c)" d="M 243 336.6 
L 243 39.6 
" style="fill:none;stroke:#b2b2b2;stroke-dasharray:2.96,1.28;stroke-dashoffset:0;stroke-opacity:0.3;stroke-width:0.8;"/>
     </g>
     <g id="line2d_2">
      <defs>
       <path d="M 0 0 
L 0 3.5 
" id="mb4efb7185a" style="stroke:#000000;stroke-width:0.8;"/>
      </defs>
      <g>
       <use style="stroke:#000000;stroke-width:0.8;" x="243" xlink:href="#mb4efb7185a" y="336.6"/>
      </g>
     </g>
     <g id="text_1">
      <!-- 0.45 -->
      <defs>
       <path d="M 31.78125 66.40625 
Q 24.171875 66.40625 20.328125 58.90625 
Q 16.5 51.421875 16.5 36.375 
Q 16.5 21.390625 20.328125 13.890625 
Q 24.171875 6.390625 31.78125 6.390625 
Q 39.453125 6.390625 43.28125 13.890625 
Q 47.125 21.390625 47.125 36.375 
Q 47.125 51.421875 43.28125 58.90625 
Q 39.453125 66.40625 31.78125 66.40625 
z
M 31.78125 74.21875 
Q 44.046875 74.21875 50.515625 64.515625 
Q 56.984375 54.828125 56.984375 36.375 
Q 56.984375 17.96875 50.515625 8.265625 
Q 44.046875 -1.421875 31.78125 -1.421875 
Q 19.53125 -1.421875 13.0625 8.265625 
Q 6.59375 17.96875 6.59375 36.375 
Q 6.59375 54.828125 13.0625 64.515625 
Q 19.53125 74.21875 31.78125 74.21875 
z
" id="DejaVuSans-48"/>
       <path d="M 10.6875 12.40625 
L 21 12.40625 
L 21 0 
L 10.6875 0 
z
" id="DejaVuSans-46"/>
       <path d="M 37.796875 64.3125 
L 12.890625 25.390625 
L 37.796875 25.390625 
z
M 35.203125 72.90625 
L 47.609375 72.90625 
L 47.609375 25.390625 
L 58.015625 25.390625 
L 58.015625 17.1875 
L 47.609375 17.1875 
L 47.609375 0 
L 37.796875 0 
L 37.796875 17.1875 
L 4.890625 17.1875 
L 4.890625 26.703125 
z
" id="DejaVuSans-52"/>
       <path d="M 10.796875 72.90625 
L 49.515625 72.90625 
L 49.515625 64.59375 
L 19.828125 64.59375 
L 19.828125 46.734375 
Q 21.96875 47.46875 24.109375 47.828125 
Q 26.265625 48.1875 28.421875 48.1875 
Q 40.625 48.1875 47.75 41.5 
Q 54.890625 34.8125 54.890625 23.390625 
Q 54.890625 11.625 47.5625 5.09375 
Q 40.234375 -1.421875 26.90625 -1.421875 
Q 22.3125 -1.421875 17.546875 -0.640625 
Q 12.796875 0.140625 7.71875 1.703125 
L 7.71875 11.625 
Q 12.109375 9.234375 16.796875 8.0625 
Q 21.484375 6.890625 26.703125 6.890625 
Q 35.15625 6.890625 40.078125 11.328125 
Q 45.015625 15.765625 45.015625 23.390625 
Q 45.015625 31 40.078125 35.4375 
Q 35.15625 39.890625 26.703125 39.890625 
Q 22.75 39.890625 18.8125 39.015625 
Q 14.890625 38.140625 10.796875 36.28125 
z
" id="DejaVuSans-53"/>
      </defs>
      <g transform="translate(215.167969 362.596094)scale(0.25 -0.25)">
       <use xlink:href="#DejaVuSans-48"/>
       <use x="63.623047" xlink:href="#DejaVuSans-46"/>
       <use x="95.410156" xlink:href="#DejaVuSans-52"/>
       <use x="159.033203" xlink:href="#DejaVuSans-53"/>
      </g>
     </g>
    </g>
    <g id="xtick_2">
     <g id="line2d_3">
      <path clip-path="url(#p5602048a5c)" d="M 356.4 336.6 
L 356.4 39.6 
" style="fill:none;stroke:#b2b2b2;stroke-dasharray:2.96,1.28;stroke-dashoffset:0;stroke-opacity:0.3;stroke-width:0.8;"/>
     </g>
     <g id="line2d_4">
      <g>
       <use style="stroke:#000000;stroke-width:0.8;" x="356.4" xlink:href="#mb4efb7185a" y="336.6"/>
      </g>
     </g>
     <g id="text_2">
      <!-- 0.50 -->
      <g transform="translate(328.567969 362.596094)scale(0.25 -0.25)">
       <use xlink:href="#DejaVuSans-48"/>
       <use x="63.623047" xlink:href="#DejaVuSans-46"/>
       <use x="95.410156" xlink:href="#DejaVuSans-53"/>
       <use x="159.033203" xlink:href="#DejaVuSans-48"/>
      </g>
     </g>
    </g>
    <g id="xtick_3">
     <g id="line2d_5">
      <path clip-path="url(#p5602048a5c)" d="M 469.8 336.6 
L 469.8 39.6 
" style="fill:none;stroke:#b2b2b2;stroke-dasharray:2.96,1.28;stroke-dashoffset:0;stroke-opacity:0.3;stroke-width:0.8;"/>
     </g>
     <g id="line2d_6">
      <g>
       <use style="stroke:#000000;stroke-width:0.8;" x="469.8" xlink:href="#mb4efb7185a" y="336.6"/>
      </g>
     </g>
     <g id="text_3">
      <!-- 0.55 -->
      <g transform="translate(441.967969 362.596094)scale(0.25 -0.25)">
       <use xlink:href="#DejaVuSans-48"/>
       <use x="63.623047" xlink:href="#DejaVuSans-46"/>
       <use x="95.410156" xlink:href="#DejaVuSans-53"/>
       <use x="159.033203" xlink:href="#DejaVuSans-53"/>
      </g>
     </g>
    </g>
    <g id="text_4">
     <!-- Normalized Magnetic Flux ($\Phi/\Phi_0$) -->
     <defs>
      <path d="M 9.8125 72.90625 
L 23.09375 72.90625 
L 55.421875 11.921875 
L 55.421875 72.90625 
L 64.984375 72.90625 
L 64.984375 0 
L 51.703125 0 
L 19.390625 60.984375 
L 19.390625 0 
L 9.8125 0 
z
" id="DejaVuSans-78"/>
      <path d="M 30.609375 48.390625 
Q 23.390625 48.390625 19.1875 42.75 
Q 14.984375 37.109375 14.984375 27.296875 
Q 14.984375 17.484375 19.15625 11.84375 
Q 23.34375 6.203125 30.609375 6.203125 
Q 37.796875 6.203125 41.984375 11.859375 
Q 46.1875 17.53125 46.1875 27.296875 
Q 46.1875 37.015625 41.984375 42.703125 
Q 37.796875 48.390625 30.609375 48.390625 
z
M 30.609375 56 
Q 42.328125 56 49.015625 48.375 
Q 55.71875 40.765625 55.71875 27.296875 
Q 55.71875 13.875 49.015625 6.21875 
Q 42.328125 -1.421875 30.609375 -1.421875 
Q 18.84375 -1.421875 12.171875 6.21875 
Q 5.515625 13.875 5.515625 27.296875 
Q 5.515625 40.765625 12.171875 48.375 
Q 18.84375 56 30.609375 56 
z
" id="DejaVuSans-111"/>
      <path d="M 41.109375 46.296875 
Q 39.59375 47.171875 37.8125 47.578125 
Q 36.03125 48 33.890625 48 
Q 26.265625 48 22.1875 43.046875 
Q 18.109375 38.09375 18.109375 28.8125 
L 18.109375 0 
L 9.078125 0 
L 9.078125 54.6875 
L 18.109375 54.6875 
L 18.109375 46.1875 
Q 20.953125 51.171875 25.484375 53.578125 
Q 30.03125 56 36.53125 56 
Q 37.453125 56 38.578125 55.875 
Q 39.703125 55.765625 41.0625 55.515625 
z
" id="DejaVuSans-114"/>
      <path d="M 52 44.1875 
Q 55.375 50.25 60.0625 53.125 
Q 64.75 56 71.09375 56 
Q 79.640625 56 84.28125 50.015625 
Q 88.921875 44.046875 88.921875 33.015625 
L 88.921875 0 
L 79.890625 0 
L 79.890625 32.71875 
Q 79.890625 40.578125 77.09375 44.375 
Q 74.3125 48.1875 68.609375 48.1875 
Q 61.625 48.1875 57.5625 43.546875 
Q 53.515625 38.921875 53.515625 30.90625 
L 53.515625 0 
L 44.484375 0 
L 44.484375 32.71875 
Q 44.484375 40.625 41.703125 44.40625 
Q 38.921875 48.1875 33.109375 48.1875 
Q 26.21875 48.1875 22.15625 43.53125 
Q 18.109375 38.875 18.109375 30.90625 
L 18.109375 0 
L 9.078125 0 
L 9.078125 54.6875 
L 18.109375 54.6875 
L 18.109375 46.1875 
Q 21.1875 51.21875 25.484375 53.609375 
Q 29.78125 56 35.6875 56 
Q 41.65625 56 45.828125 52.96875 
Q 50 49.953125 52 44.1875 
z
" id="DejaVuSans-109"/>
      <path d="M 34.28125 27.484375 
Q 23.390625 27.484375 19.1875 25 
Q 14.984375 22.515625 14.984375 16.5 
Q 14.984375 11.71875 18.140625 8.90625 
Q 21.296875 6.109375 26.703125 6.109375 
Q 34.1875 6.109375 38.703125 11.40625 
Q 43.21875 16.703125 43.21875 25.484375 
L 43.21875 27.484375 
z
M 52.203125 31.203125 
L 52.203125 0 
L 43.21875 0 
L 43.21875 8.296875 
Q 40.140625 3.328125 35.546875 0.953125 
Q 30.953125 -1.421875 24.3125 -1.421875 
Q 15.921875 -1.421875 10.953125 3.296875 
Q 6 8.015625 6 15.921875 
Q 6 25.140625 12.171875 29.828125 
Q 18.359375 34.515625 30.609375 34.515625 
L 43.21875 34.515625 
L 43.21875 35.40625 
Q 43.21875 41.609375 39.140625 45 
Q 35.0625 48.390625 27.6875 48.390625 
Q 23 48.390625 18.546875 47.265625 
Q 14.109375 46.140625 10.015625 43.890625 
L 10.015625 52.203125 
Q 14.9375 54.109375 19.578125 55.046875 
Q 24.21875 56 28.609375 56 
Q 40.484375 56 46.34375 49.84375 
Q 52.203125 43.703125 52.203125 31.203125 
z
" id="DejaVuSans-97"/>
      <path d="M 9.421875 75.984375 
L 18.40625 75.984375 
L 18.40625 0 
L 9.421875 0 
z
" id="DejaVuSans-108"/>
      <path d="M 9.421875 54.6875 
L 18.40625 54.6875 
L 18.40625 0 
L 9.421875 0 
z
M 9.421875 75.984375 
L 18.40625 75.984375 
L 18.40625 64.59375 
L 9.421875 64.59375 
z
" id="DejaVuSans-105"/>
      <path d="M 5.515625 54.6875 
L 48.1875 54.6875 
L 48.1875 46.484375 
L 14.40625 7.171875 
L 48.1875 7.171875 
L 48.1875 0 
L 4.296875 0 
L 4.296875 8.203125 
L 38.09375 47.515625 
L 5.515625 47.515625 
z
" id="DejaVuSans-122"/>
      <path d="M 56.203125 29.59375 
L 56.203125 25.203125 
L 14.890625 25.203125 
Q 15.484375 15.921875 20.484375 11.0625 
Q 25.484375 6.203125 34.421875 6.203125 
Q 39.59375 6.203125 44.453125 7.46875 
Q 49.3125 8.734375 54.109375 11.28125 
L 54.109375 2.78125 
Q 49.265625 0.734375 44.1875 -0.34375 
Q 39.109375 -1.421875 33.890625 -1.421875 
Q 20.796875 -1.421875 13.15625 6.1875 
Q 5.515625 13.8125 5.515625 26.8125 
Q 5.515625 40.234375 12.765625 48.109375 
Q 20.015625 56 32.328125 56 
Q 43.359375 56 49.78125 48.890625 
Q 56.203125 41.796875 56.203125 29.59375 
z
M 47.21875 32.234375 
Q 47.125 39.59375 43.09375 43.984375 
Q 39.0625 48.390625 32.421875 48.390625 
Q 24.90625 48.390625 20.390625 44.140625 
Q 15.875 39.890625 15.1875 32.171875 
z
" id="DejaVuSans-101"/>
      <path d="M 45.40625 46.390625 
L 45.40625 75.984375 
L 54.390625 75.984375 
L 54.390625 0 
L 45.40625 0 
L 45.40625 8.203125 
Q 42.578125 3.328125 38.25 0.953125 
Q 33.9375 -1.421875 27.875 -1.421875 
Q 17.96875 -1.421875 11.734375 6.484375 
Q 5.515625 14.40625 5.515625 27.296875 
Q 5.515625 40.1875 11.734375 48.09375 
Q 17.96875 56 27.875 56 
Q 33.9375 56 38.25 53.625 
Q 42.578125 51.265625 45.40625 46.390625 
z
M 14.796875 27.296875 
Q 14.796875 17.390625 18.875 11.75 
Q 22.953125 6.109375 30.078125 6.109375 
Q 37.203125 6.109375 41.296875 11.75 
Q 45.40625 17.390625 45.40625 27.296875 
Q 45.40625 37.203125 41.296875 42.84375 
Q 37.203125 48.484375 30.078125 48.484375 
Q 22.953125 48.484375 18.875 42.84375 
Q 14.796875 37.203125 14.796875 27.296875 
z
" id="DejaVuSans-100"/>
      <path id="DejaVuSans-32"/>
      <path d="M 9.8125 72.90625 
L 24.515625 72.90625 
L 43.109375 23.296875 
L 61.8125 72.90625 
L 76.515625 72.90625 
L 76.515625 0 
L 66.890625 0 
L 66.890625 64.015625 
L 48.09375 14.015625 
L 38.1875 14.015625 
L 19.390625 64.015625 
L 19.390625 0 
L 9.8125 0 
z
" id="DejaVuSans-77"/>
      <path d="M 45.40625 27.984375 
Q 45.40625 37.75 41.375 43.109375 
Q 37.359375 48.484375 30.078125 48.484375 
Q 22.859375 48.484375 18.828125 43.109375 
Q 14.796875 37.75 14.796875 27.984375 
Q 14.796875 18.265625 18.828125 12.890625 
Q 22.859375 7.515625 30.078125 7.515625 
Q 37.359375 7.515625 41.375 12.890625 
Q 45.40625 18.265625 45.40625 27.984375 
z
M 54.390625 6.78125 
Q 54.390625 -7.171875 48.1875 -13.984375 
Q 42 -20.796875 29.203125 -20.796875 
Q 24.46875 -20.796875 20.265625 -20.09375 
Q 16.0625 -19.390625 12.109375 -17.921875 
L 12.109375 -9.1875 
Q 16.0625 -11.328125 19.921875 -12.34375 
Q 23.78125 -13.375 27.78125 -13.375 
Q 36.625 -13.375 41.015625 -8.765625 
Q 45.40625 -4.15625 45.40625 5.171875 
L 45.40625 9.625 
Q 42.625 4.78125 38.28125 2.390625 
Q 33.9375 0 27.875 0 
Q 17.828125 0 11.671875 7.65625 
Q 5.515625 15.328125 5.515625 27.984375 
Q 5.515625 40.671875 11.671875 48.328125 
Q 17.828125 56 27.875 56 
Q 33.9375 56 38.28125 53.609375 
Q 42.625 51.21875 45.40625 46.390625 
L 45.40625 54.6875 
L 54.390625 54.6875 
z
" id="DejaVuSans-103"/>
      <path d="M 54.890625 33.015625 
L 54.890625 0 
L 45.90625 0 
L 45.90625 32.71875 
Q 45.90625 40.484375 42.875 44.328125 
Q 39.84375 48.1875 33.796875 48.1875 
Q 26.515625 48.1875 22.3125 43.546875 
Q 18.109375 38.921875 18.109375 30.90625 
L 18.109375 0 
L 9.078125 0 
L 9.078125 54.6875 
L 18.109375 54.6875 
L 18.109375 46.1875 
Q 21.34375 51.125 25.703125 53.5625 
Q 30.078125 56 35.796875 56 
Q 45.21875 56 50.046875 50.171875 
Q 54.890625 44.34375 54.890625 33.015625 
z
" id="DejaVuSans-110"/>
      <path d="M 18.3125 70.21875 
L 18.3125 54.6875 
L 36.8125 54.6875 
L 36.8125 47.703125 
L 18.3125 47.703125 
L 18.3125 18.015625 
Q 18.3125 11.328125 20.140625 9.421875 
Q 21.96875 7.515625 27.59375 7.515625 
L 36.8125 7.515625 
L 36.8125 0 
L 27.59375 0 
Q 17.1875 0 13.234375 3.875 
Q 9.28125 7.765625 9.28125 18.015625 
L 9.28125 47.703125 
L 2.6875 47.703125 
L 2.6875 54.6875 
L 9.28125 54.6875 
L 9.28125 70.21875 
z
" id="DejaVuSans-116"/>
      <path d="M 48.78125 52.59375 
L 48.78125 44.1875 
Q 44.96875 46.296875 41.140625 47.34375 
Q 37.3125 48.390625 33.40625 48.390625 
Q 24.65625 48.390625 19.8125 42.84375 
Q 14.984375 37.3125 14.984375 27.296875 
Q 14.984375 17.28125 19.8125 11.734375 
Q 24.65625 6.203125 33.40625 6.203125 
Q 37.3125 6.203125 41.140625 7.25 
Q 44.96875 8.296875 48.78125 10.40625 
L 48.78125 2.09375 
Q 45.015625 0.34375 40.984375 -0.53125 
Q 36.96875 -1.421875 32.421875 -1.421875 
Q 20.0625 -1.421875 12.78125 6.34375 
Q 5.515625 14.109375 5.515625 27.296875 
Q 5.515625 40.671875 12.859375 48.328125 
Q 20.21875 56 33.015625 56 
Q 37.15625 56 41.109375 55.140625 
Q 45.0625 54.296875 48.78125 52.59375 
z
" id="DejaVuSans-99"/>
      <path d="M 9.8125 72.90625 
L 51.703125 72.90625 
L 51.703125 64.59375 
L 19.671875 64.59375 
L 19.671875 43.109375 
L 48.578125 43.109375 
L 48.578125 34.8125 
L 19.671875 34.8125 
L 19.671875 0 
L 9.8125 0 
z
" id="DejaVuSans-70"/>
      <path d="M 8.5 21.578125 
L 8.5 54.6875 
L 17.484375 54.6875 
L 17.484375 21.921875 
Q 17.484375 14.15625 20.5 10.265625 
Q 23.53125 6.390625 29.59375 6.390625 
Q 36.859375 6.390625 41.078125 11.03125 
Q 45.3125 15.671875 45.3125 23.6875 
L 45.3125 54.6875 
L 54.296875 54.6875 
L 54.296875 0 
L 45.3125 0 
L 45.3125 8.40625 
Q 42.046875 3.421875 37.71875 1 
Q 33.40625 -1.421875 27.6875 -1.421875 
Q 18.265625 -1.421875 13.375 4.4375 
Q 8.5 10.296875 8.5 21.578125 
z
M 31.109375 56 
z
" id="DejaVuSans-117"/>
      <path d="M 54.890625 54.6875 
L 35.109375 28.078125 
L 55.90625 0 
L 45.3125 0 
L 29.390625 21.484375 
L 13.484375 0 
L 2.875 0 
L 24.125 28.609375 
L 4.6875 54.6875 
L 15.28125 54.6875 
L 29.78125 35.203125 
L 44.28125 54.6875 
z
" id="DejaVuSans-120"/>
      <path d="M 31 75.875 
Q 24.46875 64.65625 21.28125 53.65625 
Q 18.109375 42.671875 18.109375 31.390625 
Q 18.109375 20.125 21.3125 9.0625 
Q 24.515625 -2 31 -13.1875 
L 23.1875 -13.1875 
Q 15.875 -1.703125 12.234375 9.375 
Q 8.59375 20.453125 8.59375 31.390625 
Q 8.59375 42.28125 12.203125 53.3125 
Q 15.828125 64.359375 23.1875 75.875 
z
" id="DejaVuSans-40"/>
      <path d="M 18.609375 0 
L 18.609375 3.515625 
Q 31.390625 3.515625 31.390625 6.6875 
L 31.390625 13.921875 
Q 21.78125 14.84375 14.5 19.671875 
Q 10.6875 22.265625 8.140625 26.078125 
Q 5.609375 29.890625 5.609375 34.1875 
Q 5.609375 38.421875 8.140625 42.25 
Q 10.6875 46.09375 14.5 48.578125 
Q 18.265625 51.125 22.4375 52.515625 
Q 26.609375 53.90625 31.390625 54.390625 
L 31.390625 61.625 
Q 31.390625 64.796875 18.609375 64.796875 
L 18.609375 68.3125 
L 52.875 68.3125 
L 52.875 64.796875 
Q 40.09375 64.796875 40.09375 61.625 
L 40.09375 54.390625 
Q 44.234375 54.390625 48.875 52.84375 
Q 53.515625 51.3125 57.46875 48.671875 
Q 61.421875 46.046875 63.953125 42.265625 
Q 66.5 38.484375 66.5 34.1875 
Q 66.5 29.890625 63.953125 26.125 
Q 61.421875 22.359375 57.34375 19.625 
Q 53.265625 16.890625 48.625 15.40625 
Q 44 13.921875 40.09375 13.921875 
L 40.09375 6.6875 
Q 40.09375 3.515625 52.875 3.515625 
L 52.875 0 
z
M 40.09375 16.5 
Q 48.140625 17.53125 52.125 21.890625 
Q 56.109375 26.265625 56.109375 34.1875 
Q 56.109375 42.140625 52.078125 46.484375 
Q 48.046875 50.828125 40.09375 51.8125 
z
M 31.390625 16.609375 
L 31.390625 51.703125 
Q 16.015625 49.5625 16.015625 34.1875 
Q 16.015625 18.75 31.390625 16.609375 
z
" id="Cmr10-169"/>
      <path d="M 5.609375 -23 
Q 5.609375 -22.703125 5.71875 -22.609375 
L 40.484375 73.78125 
Q 40.671875 74.359375 41.15625 74.671875 
Q 41.65625 75 42.28125 75 
Q 43.171875 75 43.71875 74.453125 
Q 44.28125 73.921875 44.28125 73 
L 44.28125 72.609375 
L 9.515625 -23.78125 
Q 8.9375 -25 7.625 -25 
Q 6.78125 -25 6.1875 -24.40625 
Q 5.609375 -23.828125 5.609375 -23 
z
" id="Cmmi10-61"/>
      <path d="M 25 -2.203125 
Q 12.75 -2.203125 8.328125 7.875 
Q 3.90625 17.96875 3.90625 31.890625 
Q 3.90625 40.578125 5.484375 48.234375 
Q 7.078125 55.90625 11.78125 61.25 
Q 16.5 66.609375 25 66.609375 
Q 31.59375 66.609375 35.78125 63.375 
Q 39.984375 60.15625 42.1875 55.046875 
Q 44.390625 49.953125 45.1875 44.109375 
Q 46 38.28125 46 31.890625 
Q 46 23.296875 44.40625 15.796875 
Q 42.828125 8.296875 38.1875 3.046875 
Q 33.546875 -2.203125 25 -2.203125 
z
M 25 0.390625 
Q 30.5625 0.390625 33.296875 6.09375 
Q 36.03125 11.8125 36.671875 18.75 
Q 37.3125 25.6875 37.3125 33.5 
Q 37.3125 41.015625 36.671875 47.359375 
Q 36.03125 53.71875 33.3125 58.859375 
Q 30.609375 64.015625 25 64.015625 
Q 19.34375 64.015625 16.609375 58.828125 
Q 13.875 53.65625 13.234375 47.328125 
Q 12.59375 41.015625 12.59375 33.5 
Q 12.59375 27.9375 12.859375 23 
Q 13.140625 18.0625 14.3125 12.8125 
Q 15.484375 7.5625 18.09375 3.96875 
Q 20.703125 0.390625 25 0.390625 
z
" id="Cmr10-48"/>
      <path d="M 8.015625 75.875 
L 15.828125 75.875 
Q 23.140625 64.359375 26.78125 53.3125 
Q 30.421875 42.28125 30.421875 31.390625 
Q 30.421875 20.453125 26.78125 9.375 
Q 23.140625 -1.703125 15.828125 -13.1875 
L 8.015625 -13.1875 
Q 14.5 -2 17.703125 9.0625 
Q 20.90625 20.125 20.90625 31.390625 
Q 20.90625 42.671875 17.703125 53.65625 
Q 14.5 64.65625 8.015625 75.875 
z
" id="DejaVuSans-41"/>
     </defs>
     <g transform="translate(150.275 390.795313)scale(0.25 -0.25)">
      <use transform="translate(0 0.015625)" xlink:href="#DejaVuSans-78"/>
      <use transform="translate(74.804688 0.015625)" xlink:href="#DejaVuSans-111"/>
      <use transform="translate(135.986328 0.015625)" xlink:href="#DejaVuSans-114"/>
      <use transform="translate(177.099609 0.015625)" xlink:href="#DejaVuSans-109"/>
      <use transform="translate(274.511719 0.015625)" xlink:href="#DejaVuSans-97"/>
      <use transform="translate(335.791016 0.015625)" xlink:href="#DejaVuSans-108"/>
      <use transform="translate(363.574219 0.015625)" xlink:href="#DejaVuSans-105"/>
      <use transform="translate(391.357422 0.015625)" xlink:href="#DejaVuSans-122"/>
      <use transform="translate(443.847656 0.015625)" xlink:href="#DejaVuSans-101"/>
      <use transform="translate(505.371094 0.015625)" xlink:href="#DejaVuSans-100"/>
      <use transform="translate(568.847656 0.015625)" xlink:href="#DejaVuSans-32"/>
      <use transform="translate(600.634766 0.015625)" xlink:href="#DejaVuSans-77"/>
      <use transform="translate(686.914062 0.015625)" xlink:href="#DejaVuSans-97"/>
      <use transform="translate(748.193359 0.015625)" xlink:href="#DejaVuSans-103"/>
      <use transform="translate(811.669922 0.015625)" xlink:href="#DejaVuSans-110"/>
      <use transform="translate(875.048828 0.015625)" xlink:href="#DejaVuSans-101"/>
      <use transform="translate(936.572266 0.015625)" xlink:href="#DejaVuSans-116"/>
      <use transform="translate(975.78125 0.015625)" xlink:href="#DejaVuSans-105"/>
      <use transform="translate(1003.564453 0.015625)" xlink:href="#DejaVuSans-99"/>
      <use transform="translate(1058.544922 0.015625)" xlink:href="#DejaVuSans-32"/>
      <use transform="translate(1090.332031 0.015625)" xlink:href="#DejaVuSans-70"/>
      <use transform="translate(1147.851562 0.015625)" xlink:href="#DejaVuSans-108"/>
      <use transform="translate(1175.634766 0.015625)" xlink:href="#DejaVuSans-117"/>
      <use transform="translate(1239.013672 0.015625)" xlink:href="#DejaVuSans-120"/>
      <use transform="translate(1298.193359 0.015625)" xlink:href="#DejaVuSans-32"/>
      <use transform="translate(1329.980469 0.015625)" xlink:href="#DejaVuSans-40"/>
      <use transform="translate(1368.994141 0.015625)" xlink:href="#Cmr10-169"/>
      <use transform="translate(1441.210938 0.015625)" xlink:href="#Cmmi10-61"/>
      <use transform="translate(1491.210938 0.015625)" xlink:href="#Cmr10-169"/>
      <use transform="translate(1567.891875 -16.990625)scale(0.7)" xlink:href="#Cmr10-48"/>
      <use transform="translate(1609.269219 0.015625)" xlink:href="#DejaVuSans-41"/>
     </g>
    </g>
   </g>
   <g id="matplotlib.axis_2">
    <g id="ytick_1">
     <g id="line2d_7">
      <path clip-path="url(#p5602048a5c)" d="M 129.6 336.6 
L 583.2 336.6 
" style="fill:none;stroke:#b2b2b2;stroke-dasharray:2.96,1.28;stroke-dashoffset:0;stroke-opacity:0.3;stroke-width:0.8;"/>
     </g>
     <g id="line2d_8">
      <defs>
       <path d="M 0 0 
L -3.5 0 
" id="m7942b0a04d" style="stroke:#000000;stroke-width:0.8;"/>
      </defs>
      <g>
       <use style="stroke:#000000;stroke-width:0.8;" x="129.6" xlink:href="#m7942b0a04d" y="336.6"/>
      </g>
     </g>
     <g id="text_5">
      <!-- 5 -->
      <g transform="translate(106.69375 346.098047)scale(0.25 -0.25)">
       <use xlink:href="#DejaVuSans-53"/>
      </g>
     </g>
    </g>
    <g id="ytick_2">
     <g id="line2d_9">
      <path clip-path="url(#p5602048a5c)" d="M 129.6 237.6 
L 583.2 237.6 
" style="fill:none;stroke:#b2b2b2;stroke-dasharray:2.96,1.28;stroke-dashoffset:0;stroke-opacity:0.3;stroke-width:0.8;"/>
     </g>
     <g id="line2d_10">
      <g>
       <use style="stroke:#000000;stroke-width:0.8;" x="129.6" xlink:href="#m7942b0a04d" y="237.6"/>
      </g>
     </g>
     <g id="text_6">
      <!-- 10 -->
      <defs>
       <path d="M 12.40625 8.296875 
L 28.515625 8.296875 
L 28.515625 63.921875 
L 10.984375 60.40625 
L 10.984375 69.390625 
L 28.421875 72.90625 
L 38.28125 72.90625 
L 38.28125 8.296875 
L 54.390625 8.296875 
L 54.390625 0 
L 12.40625 0 
z
" id="DejaVuSans-49"/>
      </defs>
      <g transform="translate(90.7875 247.098047)scale(0.25 -0.25)">
       <use xlink:href="#DejaVuSans-49"/>
       <use x="63.623047" xlink:href="#DejaVuSans-48"/>
      </g>
     </g>
    </g>
    <g id="ytick_3">
     <g id="line2d_11">
      <path clip-path="url(#p5602048a5c)" d="M 129.6 138.6 
L 583.2 138.6 
" style="fill:none;stroke:#b2b2b2;stroke-dasharray:2.96,1.28;stroke-dashoffset:0;stroke-opacity:0.3;stroke-width:0.8;"/>
     </g>
     <g id="line2d_12">
      <g>
       <use style="stroke:#000000;stroke-width:0.8;" x="129.6" xlink:href="#m7942b0a04d" y="138.6"/>
      </g>
     </g>
     <g id="text_7">
      <!-- 15 -->
      <g transform="translate(90.7875 148.098047)scale(0.25 -0.25)">
       <use xlink:href="#DejaVuSans-49"/>
       <use x="63.623047" xlink:href="#DejaVuSans-53"/>
      </g>
     </g>
    </g>
    <g id="ytick_4">
     <g id="line2d_13">
      <path clip-path="url(#p5602048a5c)" d="M 129.6 39.6 
L 583.2 39.6 
" style="fill:none;stroke:#b2b2b2;stroke-dasharray:2.96,1.28;stroke-dashoffset:0;stroke-opacity:0.3;stroke-width:0.8;"/>
     </g>
     <g id="line2d_14">
      <g>
       <use style="stroke:#000000;stroke-width:0.8;" x="129.6" xlink:href="#m7942b0a04d" y="39.6"/>
      </g>
     </g>
     <g id="text_8">
      <!-- 20 -->
      <defs>
       <path d="M 19.1875 8.296875 
L 53.609375 8.296875 
L 53.609375 0 
L 7.328125 0 
L 7.328125 8.296875 
Q 12.9375 14.109375 22.625 23.890625 
Q 32.328125 33.6875 34.8125 36.53125 
Q 39.546875 41.84375 41.421875 45.53125 
Q 43.3125 49.21875 43.3125 52.78125 
Q 43.3125 58.59375 39.234375 62.25 
Q 35.15625 65.921875 28.609375 65.921875 
Q 23.96875 65.921875 18.8125 64.3125 
Q 13.671875 62.703125 7.8125 59.421875 
L 7.8125 69.390625 
Q 13.765625 71.78125 18.9375 73 
Q 24.125 74.21875 28.421875 74.21875 
Q 39.75 74.21875 46.484375 68.546875 
Q 53.21875 62.890625 53.21875 53.421875 
Q 53.21875 48.921875 51.53125 44.890625 
Q 49.859375 40.875 45.40625 35.40625 
Q 44.1875 33.984375 37.640625 27.21875 
Q 31.109375 20.453125 19.1875 8.296875 
z
" id="DejaVuSans-50"/>
      </defs>
      <g transform="translate(90.7875 49.098047)scale(0.25 -0.25)">
       <use xlink:href="#DejaVuSans-50"/>
       <use x="63.623047" xlink:href="#DejaVuSans-48"/>
      </g>
     </g>
    </g>
    <g id="text_9">
     <!-- $\omega/2\pi$ (GHz) -->
     <defs>
      <path d="M 12.109375 -1.125 
Q 6.453125 -1.125 3.9375 3.015625 
Q 1.421875 7.171875 1.421875 13.1875 
Q 1.421875 17.140625 2.125 20.921875 
Q 2.828125 24.703125 4.265625 28.578125 
Q 5.71875 32.46875 7.5625 35.859375 
Q 9.421875 39.265625 11.71875 42.484375 
Q 12.15625 43.109375 12.890625 43.109375 
Q 13.53125 43.109375 13.921875 42.71875 
Q 14.3125 42.328125 14.3125 41.796875 
Q 14.3125 41.265625 14.015625 40.828125 
Q 4.890625 28.265625 4.890625 17.671875 
Q 4.890625 13.09375 7 9.796875 
Q 9.125 6.5 13.484375 6.5 
Q 17.234375 6.5 20.4375 8.6875 
Q 23.640625 10.890625 25.984375 14.3125 
Q 25.984375 16.0625 26.59375 19.765625 
Q 27.203125 23.484375 28.484375 26.390625 
Q 29.78125 29.296875 31.59375 29.296875 
Q 33.890625 29.296875 33.890625 26.609375 
Q 33.890625 25.046875 33.21875 22.671875 
Q 32.5625 20.3125 31.75 18.265625 
Q 30.953125 16.21875 29.78125 13.625 
Q 30.953125 6.5 36.921875 6.5 
Q 40.375 6.5 43.859375 8.5 
Q 47.359375 10.5 50.046875 13.75 
Q 52.734375 17 54.265625 20.75 
Q 55.8125 24.515625 55.8125 27.875 
Q 55.8125 30.90625 54.859375 32.59375 
Q 53.90625 34.28125 52.34375 36.125 
Q 50.78125 37.984375 50.78125 39.109375 
Q 50.78125 41.0625 52.4375 42.671875 
Q 54.109375 44.28125 56 44.28125 
Q 58.453125 44.28125 59.46875 42.0625 
Q 60.5 39.84375 60.5 37.015625 
Q 60.5 32.421875 58.671875 25.4375 
Q 56.84375 18.453125 54.5 13.8125 
Q 51.265625 7.515625 46.40625 3.1875 
Q 41.546875 -1.125 35.5 -1.125 
Q 31.640625 -1.125 29.265625 1.1875 
Q 26.90625 3.515625 26.21875 7.515625 
Q 23.4375 3.5625 19.875 1.21875 
Q 16.3125 -1.125 12.109375 -1.125 
z
" id="Cmmi10-33"/>
      <path d="M 4.984375 0 
L 4.984375 2.6875 
Q 4.984375 2.9375 5.171875 3.21875 
L 20.703125 20.40625 
Q 24.21875 24.21875 26.40625 26.796875 
Q 28.609375 29.390625 30.75 32.765625 
Q 32.90625 36.140625 34.15625 39.625 
Q 35.40625 43.109375 35.40625 47.015625 
Q 35.40625 51.125 33.890625 54.859375 
Q 32.375 58.59375 29.375 60.84375 
Q 26.375 63.09375 22.125 63.09375 
Q 17.78125 63.09375 14.3125 60.46875 
Q 10.84375 57.859375 9.421875 53.71875 
Q 9.8125 53.8125 10.5 53.8125 
Q 12.75 53.8125 14.328125 52.296875 
Q 15.921875 50.78125 15.921875 48.390625 
Q 15.921875 46.09375 14.328125 44.5 
Q 12.75 42.921875 10.5 42.921875 
Q 8.15625 42.921875 6.5625 44.546875 
Q 4.984375 46.1875 4.984375 48.390625 
Q 4.984375 52.15625 6.390625 55.4375 
Q 7.8125 58.734375 10.46875 61.296875 
Q 13.140625 63.875 16.484375 65.234375 
Q 19.828125 66.609375 23.578125 66.609375 
Q 29.296875 66.609375 34.21875 64.1875 
Q 39.15625 61.765625 42.03125 57.34375 
Q 44.921875 52.9375 44.921875 47.015625 
Q 44.921875 42.671875 43.015625 38.765625 
Q 41.109375 34.859375 38.125 31.65625 
Q 35.15625 28.46875 30.515625 24.40625 
Q 25.875 20.359375 24.421875 19 
L 13.09375 8.109375 
L 22.703125 8.109375 
Q 29.78125 8.109375 34.546875 8.21875 
Q 39.3125 8.34375 39.59375 8.59375 
Q 40.765625 9.859375 42 17.828125 
L 44.921875 17.828125 
L 42.09375 0 
z
" id="Cmr10-50"/>
      <path d="M 10.109375 1.703125 
Q 10.109375 2.25 10.5 3.328125 
Q 13.28125 9.125 15.6875 14.71875 
Q 18.109375 20.3125 20.03125 25.609375 
Q 21.96875 30.90625 23.578125 36.921875 
L 17.1875 36.921875 
Q 13.53125 36.921875 10.34375 34.625 
Q 7.171875 32.328125 5.078125 28.8125 
Q 4.890625 28.421875 4.5 28.421875 
L 3.328125 28.421875 
Q 2.390625 28.421875 2.390625 29.390625 
Q 2.390625 29.59375 2.59375 29.984375 
Q 5.859375 35.546875 9.59375 39.328125 
Q 13.328125 43.109375 18.015625 43.109375 
L 54.296875 43.109375 
Q 55.328125 43.109375 56.046875 42.421875 
Q 56.78125 41.75 56.78125 40.578125 
Q 56.78125 39.109375 55.734375 38.015625 
Q 54.6875 36.921875 53.21875 36.921875 
L 40.484375 36.921875 
Q 38.875 29.046875 38.71875 21.578125 
Q 38.71875 11.96875 42.09375 4.203125 
Q 42.390625 3.609375 42.390625 2.984375 
Q 42.390625 1.90625 41.75 0.96875 
Q 41.109375 0.046875 40.109375 -0.53125 
Q 39.109375 -1.125 37.984375 -1.125 
Q 35.359375 -1.125 34.375 3.171875 
Q 33.40625 7.46875 33.40625 11.53125 
Q 33.40625 17.234375 34.375 22.53125 
Q 35.359375 27.828125 37.5 36.921875 
L 26.609375 36.921875 
Q 18.703125 4.890625 17.09375 1.609375 
Q 15.671875 -1.125 13.1875 -1.125 
Q 11.96875 -1.125 11.03125 -0.3125 
Q 10.109375 0.484375 10.109375 1.703125 
z
" id="Cmmi10-188"/>
      <path d="M 59.515625 10.40625 
L 59.515625 29.984375 
L 43.40625 29.984375 
L 43.40625 38.09375 
L 69.28125 38.09375 
L 69.28125 6.78125 
Q 63.578125 2.734375 56.6875 0.65625 
Q 49.8125 -1.421875 42 -1.421875 
Q 24.90625 -1.421875 15.25 8.5625 
Q 5.609375 18.5625 5.609375 36.375 
Q 5.609375 54.25 15.25 64.234375 
Q 24.90625 74.21875 42 74.21875 
Q 49.125 74.21875 55.546875 72.453125 
Q 61.96875 70.703125 67.390625 67.28125 
L 67.390625 56.78125 
Q 61.921875 61.421875 55.765625 63.765625 
Q 49.609375 66.109375 42.828125 66.109375 
Q 29.4375 66.109375 22.71875 58.640625 
Q 16.015625 51.171875 16.015625 36.375 
Q 16.015625 21.625 22.71875 14.15625 
Q 29.4375 6.6875 42.828125 6.6875 
Q 48.046875 6.6875 52.140625 7.59375 
Q 56.25 8.5 59.515625 10.40625 
z
" id="DejaVuSans-71"/>
      <path d="M 9.8125 72.90625 
L 19.671875 72.90625 
L 19.671875 43.015625 
L 55.515625 43.015625 
L 55.515625 72.90625 
L 65.375 72.90625 
L 65.375 0 
L 55.515625 0 
L 55.515625 34.71875 
L 19.671875 34.71875 
L 19.671875 0 
L 9.8125 0 
z
" id="DejaVuSans-72"/>
     </defs>
     <g transform="translate(80.5375 254.975)rotate(-90)scale(0.25 -0.25)">
      <use transform="translate(0 0.125)" xlink:href="#Cmmi10-33"/>
      <use transform="translate(62.207031 0.125)" xlink:href="#Cmmi10-61"/>
      <use transform="translate(112.207031 0.125)" xlink:href="#Cmr10-50"/>
      <use transform="translate(162.207031 0.125)" xlink:href="#Cmmi10-188"/>
      <use transform="translate(219.189453 0.125)" xlink:href="#DejaVuSans-32"/>
      <use transform="translate(250.976562 0.125)" xlink:href="#DejaVuSans-40"/>
      <use transform="translate(289.990234 0.125)" xlink:href="#DejaVuSans-71"/>
      <use transform="translate(367.480469 0.125)" xlink:href="#DejaVuSans-72"/>
      <use transform="translate(442.675781 0.125)" xlink:href="#DejaVuSans-122"/>
      <use transform="translate(495.166016 0.125)" xlink:href="#DejaVuSans-41"/>
     </g>
    </g>
   </g>
   <g id="line2d_15">
    <defs>
     <path d="M 0 3.5 
C 0.928211 3.5 1.81853 3.131218 2.474874 2.474874 
C 3.131218 1.81853 3.5 0.928211 3.5 0 
C 3.5 -0.928211 3.131218 -1.81853 2.474874 -2.474874 
C 1.81853 -3.131218 0.928211 -3.5 0 -3.5 
C -0.928211 -3.5 -1.81853 -3.131218 -2.474874 -2.474874 
C -3.131218 -1.81853 -3.5 -0.928211 -3.5 0 
C -3.5 0.928211 -3.131218 1.81853 -2.474874 2.474874 
C -1.81853 3.131218 -0.928211 3.5 0 3.5 
z
" id="m814610771b" style="stroke:#56b4e9;stroke-opacity:0.95;"/>
    </defs>
    <g clip-path="url(#p5602048a5c)"/>
   </g>
   <g id="line2d_16">
    <g clip-path="url(#p5602048a5c)"/>
   </g>
   <g id="line2d_17">
    <g clip-path="url(#p5602048a5c)"/>
   </g>
   <g id="line2d_18">
    <g clip-path="url(#p5602048a5c)">
     <use style="fill:#004ba8;fill-opacity:0.95;stroke:#56b4e9;stroke-opacity:0.95;" x="207.036" xlink:href="#m814610771b" y="250.686117"/>
     <use style="fill:#004ba8;fill-opacity:0.95;stroke:#56b4e9;stroke-opacity:0.95;" x="221.075892" xlink:href="#m814610771b" y="247.826165"/>
     <use style="fill:#004ba8;fill-opacity:0.95;stroke:#56b4e9;stroke-opacity:0.95;" x="235.116108" xlink:href="#m814610771b" y="244.815714"/>
     <use style="fill:#004ba8;fill-opacity:0.95;stroke:#56b4e9;stroke-opacity:0.95;" x="249.156" xlink:href="#m814610771b" y="242.557861"/>
     <use style="fill:#004ba8;fill-opacity:0.95;stroke:#56b4e9;stroke-opacity:0.95;" x="263.195892" xlink:href="#m814610771b" y="240.601066"/>
     <use style="fill:#004ba8;fill-opacity:0.95;stroke:#56b4e9;stroke-opacity:0.95;" x="277.236108" xlink:href="#m814610771b" y="239.24635"/>
     <use style="fill:#004ba8;fill-opacity:0.95;stroke:#56b4e9;stroke-opacity:0.95;" x="291.276" xlink:href="#m814610771b" y="237.891634"/>
     <use style="fill:#004ba8;fill-opacity:0.95;stroke:#56b4e9;stroke-opacity:0.95;" x="305.315892" xlink:href="#m814610771b" y="236.837898"/>
     <use style="fill:#004ba8;fill-opacity:0.95;stroke:#56b4e9;stroke-opacity:0.95;" x="319.356108" xlink:href="#m814610771b" y="235.78434"/>
     <use style="fill:#004ba8;fill-opacity:0.95;stroke:#56b4e9;stroke-opacity:0.95;" x="333.396" xlink:href="#m814610771b" y="235.483182"/>
     <use style="fill:#004ba8;fill-opacity:0.95;stroke:#56b4e9;stroke-opacity:0.95;" x="347.435892" xlink:href="#m814610771b" y="235.031742"/>
     <use style="fill:#004ba8;fill-opacity:0.95;stroke:#56b4e9;stroke-opacity:0.95;" x="361.476108" xlink:href="#m814610771b" y="235.182222"/>
     <use style="fill:#004ba8;fill-opacity:0.95;stroke:#56b4e9;stroke-opacity:0.95;" x="375.516" xlink:href="#m814610771b" y="235.182222"/>
     <use style="fill:#004ba8;fill-opacity:0.95;stroke:#56b4e9;stroke-opacity:0.95;" x="389.555892" xlink:href="#m814610771b" y="235.63386"/>
     <use style="fill:#004ba8;fill-opacity:0.95;stroke:#56b4e9;stroke-opacity:0.95;" x="403.596108" xlink:href="#m814610771b" y="236.386458"/>
     <use style="fill:#004ba8;fill-opacity:0.95;stroke:#56b4e9;stroke-opacity:0.95;" x="417.636" xlink:href="#m814610771b" y="237.590694"/>
     <use style="fill:#004ba8;fill-opacity:0.95;stroke:#56b4e9;stroke-opacity:0.95;" x="431.675892" xlink:href="#m814610771b" y="238.042174"/>
     <use style="fill:#004ba8;fill-opacity:0.95;stroke:#56b4e9;stroke-opacity:0.95;" x="445.716108" xlink:href="#m814610771b" y="240.300007"/>
     <use style="fill:#004ba8;fill-opacity:0.95;stroke:#56b4e9;stroke-opacity:0.95;" x="459.756" xlink:href="#m814610771b" y="242.256821"/>
     <use style="fill:#004ba8;fill-opacity:0.95;stroke:#56b4e9;stroke-opacity:0.95;" x="473.795892" xlink:href="#m814610771b" y="244.364135"/>
     <use style="fill:#004ba8;fill-opacity:0.95;stroke:#56b4e9;stroke-opacity:0.95;" x="487.836108" xlink:href="#m814610771b" y="246.32095"/>
     <use style="fill:#004ba8;fill-opacity:0.95;stroke:#56b4e9;stroke-opacity:0.95;" x="501.876" xlink:href="#m814610771b" y="249.481921"/>
    </g>
   </g>
   <g id="line2d_19">
    <g clip-path="url(#p5602048a5c)">
     <use style="fill:#004ba8;fill-opacity:0.95;stroke:#56b4e9;stroke-opacity:0.95;" x="2408.72292" xlink:href="#m814610771b" y="229.359438"/>
     <use style="fill:#004ba8;fill-opacity:0.95;stroke:#56b4e9;stroke-opacity:0.95;" x="2428.4448" xlink:href="#m814610771b" y="227.72277"/>
     <use style="fill:#004ba8;fill-opacity:0.95;stroke:#56b4e9;stroke-opacity:0.95;" x="2448.16668" xlink:href="#m814610771b" y="226.63179"/>
     <use style="fill:#004ba8;fill-opacity:0.95;stroke:#56b4e9;stroke-opacity:0.95;" x="2467.88532" xlink:href="#m814610771b" y="224.813358"/>
     <use style="fill:#004ba8;fill-opacity:0.95;stroke:#56b4e9;stroke-opacity:0.95;" x="2487.6072" xlink:href="#m814610771b" y="222.267474"/>
     <use style="fill:#004ba8;fill-opacity:0.95;stroke:#56b4e9;stroke-opacity:0.95;" x="2507.32908" xlink:href="#m814610771b" y="220.631004"/>
     <use style="fill:#004ba8;fill-opacity:0.95;stroke:#56b4e9;stroke-opacity:0.95;" x="2527.04772" xlink:href="#m814610771b" y="219.1761"/>
     <use style="fill:#004ba8;fill-opacity:0.95;stroke:#56b4e9;stroke-opacity:0.95;" x="2546.7696" xlink:href="#m814610771b" y="218.08512"/>
     <use style="fill:#004ba8;fill-opacity:0.95;stroke:#56b4e9;stroke-opacity:0.95;" x="2566.49148" xlink:href="#m814610771b" y="216.630414"/>
     <use style="fill:#004ba8;fill-opacity:0.95;stroke:#56b4e9;stroke-opacity:0.95;" x="2586.21012" xlink:href="#m814610771b" y="215.539236"/>
     <use style="fill:#004ba8;fill-opacity:0.95;stroke:#56b4e9;stroke-opacity:0.95;" x="2605.932" xlink:href="#m814610771b" y="215.175708"/>
     <use style="fill:#004ba8;fill-opacity:0.95;stroke:#56b4e9;stroke-opacity:0.95;" x="2625.65388" xlink:href="#m814610771b" y="214.993746"/>
     <use style="fill:#004ba8;fill-opacity:0.95;stroke:#56b4e9;stroke-opacity:0.95;" x="2645.37252" xlink:href="#m814610771b" y="215.357472"/>
     <use style="fill:#004ba8;fill-opacity:0.95;stroke:#56b4e9;stroke-opacity:0.95;" x="2665.0944" xlink:href="#m814610771b" y="216.084924"/>
     <use style="fill:#004ba8;fill-opacity:0.95;stroke:#56b4e9;stroke-opacity:0.95;" x="2684.81628" xlink:href="#m814610771b" y="217.357668"/>
     <use style="fill:#004ba8;fill-opacity:0.95;stroke:#56b4e9;stroke-opacity:0.95;" x="2704.53492" xlink:href="#m814610771b" y="219.358062"/>
     <use style="fill:#004ba8;fill-opacity:0.95;stroke:#56b4e9;stroke-opacity:0.95;" x="2724.2568" xlink:href="#m814610771b" y="221.176494"/>
     <use style="fill:#004ba8;fill-opacity:0.95;stroke:#56b4e9;stroke-opacity:0.95;" x="2743.97868" xlink:href="#m814610771b" y="223.540416"/>
     <use style="fill:#004ba8;fill-opacity:0.95;stroke:#56b4e9;stroke-opacity:0.95;" x="2763.69732" xlink:href="#m814610771b" y="226.63179"/>
     <use style="fill:#004ba8;fill-opacity:0.95;stroke:#56b4e9;stroke-opacity:0.95;" x="2783.4192" xlink:href="#m814610771b" y="229.904928"/>
     <use style="fill:#004ba8;fill-opacity:0.95;stroke:#56b4e9;stroke-opacity:0.95;" x="2803.14108" xlink:href="#m814610771b" y="233.723556"/>
    </g>
   </g>
   <g id="line2d_20">
    <g clip-path="url(#p5602048a5c)">
     <use style="fill:#004ba8;fill-opacity:0.95;stroke:#56b4e9;stroke-opacity:0.95;" x="4959.58788" xlink:href="#m814610771b" y="165.237138"/>
     <use style="fill:#004ba8;fill-opacity:0.95;stroke:#56b4e9;stroke-opacity:0.95;" x="4980.50532" xlink:href="#m814610771b" y="166.162986"/>
     <use style="fill:#004ba8;fill-opacity:0.95;stroke:#56b4e9;stroke-opacity:0.95;" x="5001.426" xlink:href="#m814610771b" y="167.55156"/>
     <use style="fill:#004ba8;fill-opacity:0.95;stroke:#56b4e9;stroke-opacity:0.95;" x="5022.34668" xlink:href="#m814610771b" y="169.171596"/>
     <use style="fill:#004ba8;fill-opacity:0.95;stroke:#56b4e9;stroke-opacity:0.95;" x="5043.26412" xlink:href="#m814610771b" y="171.948942"/>
     <use style="fill:#004ba8;fill-opacity:0.95;stroke:#56b4e9;stroke-opacity:0.95;" x="5064.1848" xlink:href="#m814610771b" y="174.957552"/>
     <use style="fill:#004ba8;fill-opacity:0.95;stroke:#56b4e9;stroke-opacity:0.95;" x="5085.10548" xlink:href="#m814610771b" y="178.197624"/>
     <use style="fill:#004ba8;fill-opacity:0.95;stroke:#56b4e9;stroke-opacity:0.95;" x="5106.02292" xlink:href="#m814610771b" y="181.669158"/>
     <use style="fill:#004ba8;fill-opacity:0.95;stroke:#56b4e9;stroke-opacity:0.95;" x="5126.9436" xlink:href="#m814610771b" y="185.372154"/>
    </g>
   </g>
   <g id="line2d_21">
    <defs>
     <path d="M 0 2.5 
C 0.663008 2.5 1.29895 2.236584 1.767767 1.767767 
C 2.236584 1.29895 2.5 0.663008 2.5 0 
C 2.5 -0.663008 2.236584 -1.29895 1.767767 -1.767767 
C 1.29895 -2.236584 0.663008 -2.5 0 -2.5 
C -0.663008 -2.5 -1.29895 -2.236584 -1.767767 -1.767767 
C -2.236584 -1.29895 -2.5 -0.663008 -2.5 0 
C -2.5 0.663008 -2.236584 1.29895 -1.767767 1.767767 
C -1.29895 2.236584 -0.663008 2.5 0 2.5 
z
" id="m719d1e351f" style="stroke:#fb2c07;stroke-opacity:0.95;stroke-width:0.4;"/>
    </defs>
    <g clip-path="url(#p5602048a5c)"/>
   </g>
   <g id="line2d_22">
    <g clip-path="url(#p5602048a5c)"/>
   </g>
   <g id="line2d_23">
    <g clip-path="url(#p5602048a5c)"/>
   </g>
   <g id="line2d_24">
    <g clip-path="url(#p5602048a5c)">
     <use style="fill:#990000;fill-opacity:0.95;stroke:#fb2c07;stroke-opacity:0.95;stroke-width:0.4;" x="276.696" xlink:href="#m719d1e351f" y="98.046036"/>
     <use style="fill:#990000;fill-opacity:0.95;stroke:#fb2c07;stroke-opacity:0.95;stroke-width:0.4;" x="282.149892" xlink:href="#m719d1e351f" y="97.456392"/>
     <use style="fill:#990000;fill-opacity:0.95;stroke:#fb2c07;stroke-opacity:0.95;stroke-width:0.4;" x="287.604108" xlink:href="#m719d1e351f" y="96.899418"/>
     <use style="fill:#990000;fill-opacity:0.95;stroke:#fb2c07;stroke-opacity:0.95;stroke-width:0.4;" x="293.058" xlink:href="#m719d1e351f" y="96.50619"/>
     <use style="fill:#990000;fill-opacity:0.95;stroke:#fb2c07;stroke-opacity:0.95;stroke-width:0.4;" x="298.511892" xlink:href="#m719d1e351f" y="96.211368"/>
     <use style="fill:#990000;fill-opacity:0.95;stroke:#fb2c07;stroke-opacity:0.95;stroke-width:0.4;" x="303.966108" xlink:href="#m719d1e351f" y="95.982084"/>
     <use style="fill:#990000;fill-opacity:0.95;stroke:#fb2c07;stroke-opacity:0.95;stroke-width:0.4;" x="309.42" xlink:href="#m719d1e351f" y="95.654592"/>
     <use style="fill:#990000;fill-opacity:0.95;stroke:#fb2c07;stroke-opacity:0.95;stroke-width:0.4;" x="314.873892" xlink:href="#m719d1e351f" y="95.326902"/>
     <use style="fill:#990000;fill-opacity:0.95;stroke:#fb2c07;stroke-opacity:0.95;stroke-width:0.4;" x="320.328108" xlink:href="#m719d1e351f" y="95.03208"/>
     <use style="fill:#990000;fill-opacity:0.95;stroke:#fb2c07;stroke-opacity:0.95;stroke-width:0.4;" x="325.782" xlink:href="#m719d1e351f" y="94.868334"/>
     <use style="fill:#990000;fill-opacity:0.95;stroke:#fb2c07;stroke-opacity:0.95;stroke-width:0.4;" x="331.235892" xlink:href="#m719d1e351f" y="94.737258"/>
     <use style="fill:#990000;fill-opacity:0.95;stroke:#fb2c07;stroke-opacity:0.95;stroke-width:0.4;" x="336.690108" xlink:href="#m719d1e351f" y="94.573512"/>
     <use style="fill:#990000;fill-opacity:0.95;stroke:#fb2c07;stroke-opacity:0.95;stroke-width:0.4;" x="342.144" xlink:href="#m719d1e351f" y="94.376898"/>
     <use style="fill:#990000;fill-opacity:0.95;stroke:#fb2c07;stroke-opacity:0.95;stroke-width:0.4;" x="347.597892" xlink:href="#m719d1e351f" y="94.245822"/>
     <use style="fill:#990000;fill-opacity:0.95;stroke:#fb2c07;stroke-opacity:0.95;stroke-width:0.4;" x="353.052108" xlink:href="#m719d1e351f" y="94.147614"/>
     <use style="fill:#990000;fill-opacity:0.95;stroke:#fb2c07;stroke-opacity:0.95;stroke-width:0.4;" x="358.506" xlink:href="#m719d1e351f" y="93.951"/>
     <use style="fill:#990000;fill-opacity:0.95;stroke:#fb2c07;stroke-opacity:0.95;stroke-width:0.4;" x="363.959892" xlink:href="#m719d1e351f" y="93.91833"/>
     <use style="fill:#990000;fill-opacity:0.95;stroke:#fb2c07;stroke-opacity:0.95;stroke-width:0.4;" x="369.414108" xlink:href="#m719d1e351f" y="93.91833"/>
     <use style="fill:#990000;fill-opacity:0.95;stroke:#fb2c07;stroke-opacity:0.95;stroke-width:0.4;" x="374.868" xlink:href="#m719d1e351f" y="93.91833"/>
     <use style="fill:#990000;fill-opacity:0.95;stroke:#fb2c07;stroke-opacity:0.95;stroke-width:0.4;" x="380.321892" xlink:href="#m719d1e351f" y="94.016538"/>
     <use style="fill:#990000;fill-opacity:0.95;stroke:#fb2c07;stroke-opacity:0.95;stroke-width:0.4;" x="385.776108" xlink:href="#m719d1e351f" y="93.98367"/>
     <use style="fill:#990000;fill-opacity:0.95;stroke:#fb2c07;stroke-opacity:0.95;stroke-width:0.4;" x="391.23" xlink:href="#m719d1e351f" y="93.91833"/>
     <use style="fill:#990000;fill-opacity:0.95;stroke:#fb2c07;stroke-opacity:0.95;stroke-width:0.4;" x="396.683892" xlink:href="#m719d1e351f" y="94.016538"/>
     <use style="fill:#990000;fill-opacity:0.95;stroke:#fb2c07;stroke-opacity:0.95;stroke-width:0.4;" x="402.138108" xlink:href="#m719d1e351f" y="93.91833"/>
     <use style="fill:#990000;fill-opacity:0.95;stroke:#fb2c07;stroke-opacity:0.95;stroke-width:0.4;" x="407.592" xlink:href="#m719d1e351f" y="94.147614"/>
     <use style="fill:#990000;fill-opacity:0.95;stroke:#fb2c07;stroke-opacity:0.95;stroke-width:0.4;" x="413.045892" xlink:href="#m719d1e351f" y="94.147614"/>
     <use style="fill:#990000;fill-opacity:0.95;stroke:#fb2c07;stroke-opacity:0.95;stroke-width:0.4;" x="418.500108" xlink:href="#m719d1e351f" y="94.27869"/>
     <use style="fill:#990000;fill-opacity:0.95;stroke:#fb2c07;stroke-opacity:0.95;stroke-width:0.4;" x="423.954" xlink:href="#m719d1e351f" y="94.507974"/>
     <use style="fill:#990000;fill-opacity:0.95;stroke:#fb2c07;stroke-opacity:0.95;stroke-width:0.4;" x="429.407892" xlink:href="#m719d1e351f" y="94.835466"/>
     <use style="fill:#990000;fill-opacity:0.95;stroke:#fb2c07;stroke-opacity:0.95;stroke-width:0.4;" x="434.862108" xlink:href="#m719d1e351f" y="94.99941"/>
     <use style="fill:#990000;fill-opacity:0.95;stroke:#fb2c07;stroke-opacity:0.95;stroke-width:0.4;" x="440.316" xlink:href="#m719d1e351f" y="95.490648"/>
    </g>
   </g>
   <g id="line2d_25">
    <g clip-path="url(#p5602048a5c)">
     <use style="fill:#990000;fill-opacity:0.95;stroke:#fb2c07;stroke-opacity:0.95;stroke-width:0.4;" x="2505.816" xlink:href="#m719d1e351f" y="111.403116"/>
     <use style="fill:#990000;fill-opacity:0.95;stroke:#fb2c07;stroke-opacity:0.95;stroke-width:0.4;" x="2516.1516" xlink:href="#m719d1e351f" y="110.17017"/>
     <use style="fill:#990000;fill-opacity:0.95;stroke:#fb2c07;stroke-opacity:0.95;stroke-width:0.4;" x="2526.4872" xlink:href="#m719d1e351f" y="109.485288"/>
     <use style="fill:#990000;fill-opacity:0.95;stroke:#fb2c07;stroke-opacity:0.95;stroke-width:0.4;" x="2536.8228" xlink:href="#m719d1e351f" y="108.800406"/>
     <use style="fill:#990000;fill-opacity:0.95;stroke:#fb2c07;stroke-opacity:0.95;stroke-width:0.4;" x="2547.1584" xlink:href="#m719d1e351f" y="107.430642"/>
     <use style="fill:#990000;fill-opacity:0.95;stroke:#fb2c07;stroke-opacity:0.95;stroke-width:0.4;" x="2557.494" xlink:href="#m719d1e351f" y="106.608744"/>
     <use style="fill:#990000;fill-opacity:0.95;stroke:#fb2c07;stroke-opacity:0.95;stroke-width:0.4;" x="2567.8296" xlink:href="#m719d1e351f" y="105.513012"/>
     <use style="fill:#990000;fill-opacity:0.95;stroke:#fb2c07;stroke-opacity:0.95;stroke-width:0.4;" x="2578.1652" xlink:href="#m719d1e351f" y="104.554098"/>
     <use style="fill:#990000;fill-opacity:0.95;stroke:#fb2c07;stroke-opacity:0.95;stroke-width:0.4;" x="2588.5008" xlink:href="#m719d1e351f" y="105.101964"/>
     <use style="fill:#990000;fill-opacity:0.95;stroke:#fb2c07;stroke-opacity:0.95;stroke-width:0.4;" x="2598.8364" xlink:href="#m719d1e351f" y="103.7322"/>
     <use style="fill:#990000;fill-opacity:0.95;stroke:#fb2c07;stroke-opacity:0.95;stroke-width:0.4;" x="2609.172" xlink:href="#m719d1e351f" y="102.773286"/>
     <use style="fill:#990000;fill-opacity:0.95;stroke:#fb2c07;stroke-opacity:0.95;stroke-width:0.4;" x="2619.5076" xlink:href="#m719d1e351f" y="102.499452"/>
     <use style="fill:#990000;fill-opacity:0.95;stroke:#fb2c07;stroke-opacity:0.95;stroke-width:0.4;" x="2629.8432" xlink:href="#m719d1e351f" y="101.403522"/>
     <use style="fill:#990000;fill-opacity:0.95;stroke:#fb2c07;stroke-opacity:0.95;stroke-width:0.4;" x="2640.1788" xlink:href="#m719d1e351f" y="101.12949"/>
     <use style="fill:#990000;fill-opacity:0.95;stroke:#fb2c07;stroke-opacity:0.95;stroke-width:0.4;" x="2650.5144" xlink:href="#m719d1e351f" y="100.855656"/>
     <use style="fill:#990000;fill-opacity:0.95;stroke:#fb2c07;stroke-opacity:0.95;stroke-width:0.4;" x="2660.85" xlink:href="#m719d1e351f" y="100.71864"/>
     <use style="fill:#990000;fill-opacity:0.95;stroke:#fb2c07;stroke-opacity:0.95;stroke-width:0.4;" x="2671.1856" xlink:href="#m719d1e351f" y="100.444608"/>
     <use style="fill:#990000;fill-opacity:0.95;stroke:#fb2c07;stroke-opacity:0.95;stroke-width:0.4;" x="2681.5212" xlink:href="#m719d1e351f" y="100.30779"/>
     <use style="fill:#990000;fill-opacity:0.95;stroke:#fb2c07;stroke-opacity:0.95;stroke-width:0.4;" x="2691.8568" xlink:href="#m719d1e351f" y="99.896742"/>
     <use style="fill:#990000;fill-opacity:0.95;stroke:#fb2c07;stroke-opacity:0.95;stroke-width:0.4;" x="2702.1924" xlink:href="#m719d1e351f" y="99.896742"/>
     <use style="fill:#990000;fill-opacity:0.95;stroke:#fb2c07;stroke-opacity:0.95;stroke-width:0.4;" x="2712.528" xlink:href="#m719d1e351f" y="100.033758"/>
     <use style="fill:#990000;fill-opacity:0.95;stroke:#fb2c07;stroke-opacity:0.95;stroke-width:0.4;" x="2722.8636" xlink:href="#m719d1e351f" y="100.444608"/>
     <use style="fill:#990000;fill-opacity:0.95;stroke:#fb2c07;stroke-opacity:0.95;stroke-width:0.4;" x="2733.1992" xlink:href="#m719d1e351f" y="100.992672"/>
     <use style="fill:#990000;fill-opacity:0.95;stroke:#fb2c07;stroke-opacity:0.95;stroke-width:0.4;" x="2743.5348" xlink:href="#m719d1e351f" y="101.266506"/>
     <use style="fill:#990000;fill-opacity:0.95;stroke:#fb2c07;stroke-opacity:0.95;stroke-width:0.4;" x="2753.8704" xlink:href="#m719d1e351f" y="101.677554"/>
     <use style="fill:#990000;fill-opacity:0.95;stroke:#fb2c07;stroke-opacity:0.95;stroke-width:0.4;" x="2764.206" xlink:href="#m719d1e351f" y="101.951388"/>
     <use style="fill:#990000;fill-opacity:0.95;stroke:#fb2c07;stroke-opacity:0.95;stroke-width:0.4;" x="2774.5416" xlink:href="#m719d1e351f" y="102.910302"/>
     <use style="fill:#990000;fill-opacity:0.95;stroke:#fb2c07;stroke-opacity:0.95;stroke-width:0.4;" x="2784.8772" xlink:href="#m719d1e351f" y="103.458168"/>
     <use style="fill:#990000;fill-opacity:0.95;stroke:#fb2c07;stroke-opacity:0.95;stroke-width:0.4;" x="2795.2128" xlink:href="#m719d1e351f" y="104.14305"/>
     <use style="fill:#990000;fill-opacity:0.95;stroke:#fb2c07;stroke-opacity:0.95;stroke-width:0.4;" x="2805.5484" xlink:href="#m719d1e351f" y="105.101964"/>
     <use style="fill:#990000;fill-opacity:0.95;stroke:#fb2c07;stroke-opacity:0.95;stroke-width:0.4;" x="2815.884" xlink:href="#m719d1e351f" y="105.23898"/>
    </g>
   </g>
   <g id="line2d_26">
    <path clip-path="url(#p5602048a5c)" d="M 127.513023 269.035438 
L 138.4016 265.352085 
L 149.290178 261.856566 
L 160.178756 258.548027 
L 171.067333 255.425667 
L 181.955911 252.488719 
L 192.844489 249.736451 
L 203.733067 247.16816 
L 214.621644 244.783169 
L 225.510222 242.580833 
L 236.3988 240.560535 
L 247.287377 238.721687 
L 258.175955 237.063732 
L 269.064533 235.586143 
L 279.953111 234.288425 
L 290.841688 233.170112 
L 301.730266 232.230768 
L 312.618844 231.469987 
L 326.229566 230.769538 
L 339.840288 230.346819 
L 353.45101 230.201202 
L 367.061732 230.332109 
L 380.672454 230.739003 
L 394.283177 231.421373 
L 407.893899 232.378719 
L 421.504621 233.610539 
L 435.115343 235.116301 
L 448.726065 236.895424 
L 462.336787 238.947238 
L 475.94751 241.270953 
L 489.558232 243.865608 
L 503.168954 246.730015 
L 516.779676 249.86269 
L 530.390398 253.26177 
L 544.00112 256.924914 
L 557.611842 260.849182 
L 571.222565 265.030901 
L 584.833287 269.465503 
L 584.833287 269.465503 
" style="fill:none;stroke:#004ba8;stroke-linecap:square;"/>
   </g>
   <g id="line2d_27">
    <path clip-path="url(#p5602048a5c)" d="M 127.513023 119.886283 
L 141.123745 116.782656 
L 154.734467 113.87602 
L 171.067333 110.636307 
L 187.4002 107.664753 
L 201.010922 105.394474 
L 214.621644 103.313601 
L 228.232366 101.424483 
L 241.843089 99.729525 
L 255.453811 98.231039 
L 269.064533 96.931167 
L 282.675255 95.83183 
L 296.285977 94.934706 
L 309.896699 94.241219 
L 323.507421 93.752536 
L 337.118144 93.469565 
L 350.728866 93.39296 
L 364.339588 93.523127 
L 377.95031 93.860228 
L 391.561032 94.404187 
L 405.171754 95.154703 
L 418.782476 96.111257 
L 432.393199 97.273128 
L 446.003921 98.639415 
L 459.614643 100.209072 
L 473.225365 101.980954 
L 486.836087 103.953893 
L 500.446809 106.12682 
L 514.057532 108.498964 
L 527.668254 111.070181 
L 541.278976 113.841566 
L 554.889698 116.816689 
L 568.50042 120.004544 
L 582.111142 123.428796 
L 584.833287 124.146877 
L 584.833287 124.146877 
" style="fill:none;stroke:#990000;stroke-linecap:square;"/>
   </g>
   <g id="patch_3">
    <path d="M 129.6 336.6 
L 129.6 39.6 
" style="fill:none;stroke:#8787ff;stroke-linecap:square;stroke-linejoin:miter;stroke-width:0.8;"/>
   </g>
   <g id="patch_4">
    <path d="M 583.2 336.6 
L 583.2 39.6 
" style="fill:none;stroke:#8787ff;stroke-linecap:square;stroke-linejoin:miter;stroke-width:0.8;"/>
   </g>
   <g id="patch_5">
    <path d="M 129.6 336.6 
L 583.2 336.6 
" style="fill:none;stroke:#8787ff;stroke-linecap:square;stroke-linejoin:miter;stroke-width:0.8;"/>
   </g>
   <g id="patch_6">
    <path d="M 129.6 39.6 
L 583.2 39.6 
" style="fill:none;stroke:#8787ff;stroke-linecap:square;stroke-linejoin:miter;stroke-width:0.8;"/>
   </g>
  </g>
 </g>
 <defs>
  <clipPath id="p5602048a5c">
   <rect height="297" width="453.6" x="129.6" y="39.6"/>
  </clipPath>
 </defs>
</svg>
