<?xml version="1.0" encoding="utf-8" standalone="no"?>
<!DOCTYPE svg PUBLIC "-//W3C//DTD SVG 1.1//EN"
  "http://www.w3.org/Graphics/SVG/1.1/DTD/svg11.dtd">
<!-- Created with matplotlib (https://matplotlib.org/) -->
<svg height="360pt" version="1.1" viewBox="0 0 360 360" width="360pt" xmlns="http://www.w3.org/2000/svg" xmlns:xlink="http://www.w3.org/1999/xlink">
 <defs>
  <style type="text/css">
*{stroke-linecap:butt;stroke-linejoin:round;}
  </style>
 </defs>
 <g id="figure_1">
  <g id="patch_1">
   <path d="M 0 360 
L 360 360 
L 360 0 
L 0 0 
z
" style="fill:none;"/>
  </g>
  <g id="axes_1">
   <g id="patch_2">
    <path d="M 50.78 153.883131 
L 349.2 153.883131 
L 349.2 10.8 
L 50.78 10.8 
z
" style="fill:none;"/>
   </g>
   <g id="matplotlib.axis_1">
    <g id="xtick_1">
     <g id="line2d_1">
      <path clip-path="url(#pa8488db4e4)" d="M 89.464074 153.883131 
L 89.464074 10.8 
" style="fill:none;stroke:#b2b2b2;stroke-dasharray:2.96,1.28;stroke-dashoffset:0;stroke-opacity:0.3;stroke-width:0.8;"/>
     </g>
     <g id="line2d_2">
      <defs>
       <path d="M 0 0 
L 0 3.5 
" id="m73ea12c367" style="stroke:#2b2b2b;stroke-width:0.8;"/>
      </defs>
      <g>
       <use style="fill:#2b2b2b;stroke:#2b2b2b;stroke-width:0.8;" x="89.464074" xlink:href="#m73ea12c367" y="153.883131"/>
      </g>
     </g>
    </g>
    <g id="xtick_2">
     <g id="line2d_3">
      <path clip-path="url(#pa8488db4e4)" d="M 144.727037 153.883131 
L 144.727037 10.8 
" style="fill:none;stroke:#b2b2b2;stroke-dasharray:2.96,1.28;stroke-dashoffset:0;stroke-opacity:0.3;stroke-width:0.8;"/>
     </g>
     <g id="line2d_4">
      <g>
       <use style="fill:#2b2b2b;stroke:#2b2b2b;stroke-width:0.8;" x="144.727037" xlink:href="#m73ea12c367" y="153.883131"/>
      </g>
     </g>
    </g>
    <g id="xtick_3">
     <g id="line2d_5">
      <path clip-path="url(#pa8488db4e4)" d="M 199.99 153.883131 
L 199.99 10.8 
" style="fill:none;stroke:#b2b2b2;stroke-dasharray:2.96,1.28;stroke-dashoffset:0;stroke-opacity:0.3;stroke-width:0.8;"/>
     </g>
     <g id="line2d_6">
      <g>
       <use style="fill:#2b2b2b;stroke:#2b2b2b;stroke-width:0.8;" x="199.99" xlink:href="#m73ea12c367" y="153.883131"/>
      </g>
     </g>
    </g>
    <g id="xtick_4">
     <g id="line2d_7">
      <path clip-path="url(#pa8488db4e4)" d="M 255.252963 153.883131 
L 255.252963 10.8 
" style="fill:none;stroke:#b2b2b2;stroke-dasharray:2.96,1.28;stroke-dashoffset:0;stroke-opacity:0.3;stroke-width:0.8;"/>
     </g>
     <g id="line2d_8">
      <g>
       <use style="fill:#2b2b2b;stroke:#2b2b2b;stroke-width:0.8;" x="255.252963" xlink:href="#m73ea12c367" y="153.883131"/>
      </g>
     </g>
    </g>
    <g id="xtick_5">
     <g id="line2d_9">
      <path clip-path="url(#pa8488db4e4)" d="M 310.515926 153.883131 
L 310.515926 10.8 
" style="fill:none;stroke:#b2b2b2;stroke-dasharray:2.96,1.28;stroke-dashoffset:0;stroke-opacity:0.3;stroke-width:0.8;"/>
     </g>
     <g id="line2d_10">
      <g>
       <use style="fill:#2b2b2b;stroke:#2b2b2b;stroke-width:0.8;" x="310.515926" xlink:href="#m73ea12c367" y="153.883131"/>
      </g>
     </g>
    </g>
   </g>
   <g id="matplotlib.axis_2">
    <g id="ytick_1">
     <g id="line2d_11">
      <path clip-path="url(#pa8488db4e4)" d="M 50.78 134.80538 
L 349.2 134.80538 
" style="fill:none;stroke:#b2b2b2;stroke-dasharray:2.96,1.28;stroke-dashoffset:0;stroke-opacity:0.3;stroke-width:0.8;"/>
     </g>
     <g id="line2d_12">
      <defs>
       <path d="M 0 0 
L -3.5 0 
" id="ma2ead5f8e3" style="stroke:#2b2b2b;stroke-width:0.8;"/>
      </defs>
      <g>
       <use style="fill:#2b2b2b;stroke:#2b2b2b;stroke-width:0.8;" x="50.78" xlink:href="#ma2ead5f8e3" y="134.80538"/>
      </g>
     </g>
     <g id="text_1">
      <!-- 5 -->
      <defs>
       <path d="M 10.796875 72.90625 
L 49.515625 72.90625 
L 49.515625 64.59375 
L 19.828125 64.59375 
L 19.828125 46.734375 
Q 21.96875 47.46875 24.109375 47.828125 
Q 26.265625 48.1875 28.421875 48.1875 
Q 40.625 48.1875 47.75 41.5 
Q 54.890625 34.8125 54.890625 23.390625 
Q 54.890625 11.625 47.5625 5.09375 
Q 40.234375 -1.421875 26.90625 -1.421875 
Q 22.3125 -1.421875 17.546875 -0.640625 
Q 12.796875 0.140625 7.71875 1.703125 
L 7.71875 11.625 
Q 12.109375 9.234375 16.796875 8.0625 
Q 21.484375 6.890625 26.703125 6.890625 
Q 35.15625 6.890625 40.078125 11.328125 
Q 45.015625 15.765625 45.015625 23.390625 
Q 45.015625 31 40.078125 35.4375 
Q 35.15625 39.890625 26.703125 39.890625 
Q 22.75 39.890625 18.8125 39.015625 
Q 14.890625 38.140625 10.796875 36.28125 
z
" id="DejaVuSans-53"/>
      </defs>
      <g style="fill:#2b2b2b;" transform="translate(36.145 139.364443)scale(0.12 -0.12)">
       <use xlink:href="#DejaVuSans-53"/>
      </g>
     </g>
    </g>
    <g id="ytick_2">
     <g id="line2d_13">
      <path clip-path="url(#pa8488db4e4)" d="M 50.78 87.111003 
L 349.2 87.111003 
" style="fill:none;stroke:#b2b2b2;stroke-dasharray:2.96,1.28;stroke-dashoffset:0;stroke-opacity:0.3;stroke-width:0.8;"/>
     </g>
     <g id="line2d_14">
      <g>
       <use style="fill:#2b2b2b;stroke:#2b2b2b;stroke-width:0.8;" x="50.78" xlink:href="#ma2ead5f8e3" y="87.111003"/>
      </g>
     </g>
     <g id="text_2">
      <!-- 10 -->
      <defs>
       <path d="M 12.40625 8.296875 
L 28.515625 8.296875 
L 28.515625 63.921875 
L 10.984375 60.40625 
L 10.984375 69.390625 
L 28.421875 72.90625 
L 38.28125 72.90625 
L 38.28125 8.296875 
L 54.390625 8.296875 
L 54.390625 0 
L 12.40625 0 
z
" id="DejaVuSans-49"/>
       <path d="M 31.78125 66.40625 
Q 24.171875 66.40625 20.328125 58.90625 
Q 16.5 51.421875 16.5 36.375 
Q 16.5 21.390625 20.328125 13.890625 
Q 24.171875 6.390625 31.78125 6.390625 
Q 39.453125 6.390625 43.28125 13.890625 
Q 47.125 21.390625 47.125 36.375 
Q 47.125 51.421875 43.28125 58.90625 
Q 39.453125 66.40625 31.78125 66.40625 
z
M 31.78125 74.21875 
Q 44.046875 74.21875 50.515625 64.515625 
Q 56.984375 54.828125 56.984375 36.375 
Q 56.984375 17.96875 50.515625 8.265625 
Q 44.046875 -1.421875 31.78125 -1.421875 
Q 19.53125 -1.421875 13.0625 8.265625 
Q 6.59375 17.96875 6.59375 36.375 
Q 6.59375 54.828125 13.0625 64.515625 
Q 19.53125 74.21875 31.78125 74.21875 
z
" id="DejaVuSans-48"/>
      </defs>
      <g style="fill:#2b2b2b;" transform="translate(28.51 91.670066)scale(0.12 -0.12)">
       <use xlink:href="#DejaVuSans-49"/>
       <use x="63.623047" xlink:href="#DejaVuSans-48"/>
      </g>
     </g>
    </g>
    <g id="ytick_3">
     <g id="line2d_15">
      <path clip-path="url(#pa8488db4e4)" d="M 50.78 39.416626 
L 349.2 39.416626 
" style="fill:none;stroke:#b2b2b2;stroke-dasharray:2.96,1.28;stroke-dashoffset:0;stroke-opacity:0.3;stroke-width:0.8;"/>
     </g>
     <g id="line2d_16">
      <g>
       <use style="fill:#2b2b2b;stroke:#2b2b2b;stroke-width:0.8;" x="50.78" xlink:href="#ma2ead5f8e3" y="39.416626"/>
      </g>
     </g>
     <g id="text_3">
      <!-- 15 -->
      <g style="fill:#2b2b2b;" transform="translate(28.51 43.975689)scale(0.12 -0.12)">
       <use xlink:href="#DejaVuSans-49"/>
       <use x="63.623047" xlink:href="#DejaVuSans-53"/>
      </g>
     </g>
    </g>
    <g id="text_4">
     <!-- $\omega/2\pi$ (GHz) -->
     <defs>
      <path d="M 12.109375 -1.125 
Q 6.453125 -1.125 3.9375 3.015625 
Q 1.421875 7.171875 1.421875 13.1875 
Q 1.421875 17.140625 2.125 20.921875 
Q 2.828125 24.703125 4.265625 28.578125 
Q 5.71875 32.46875 7.5625 35.859375 
Q 9.421875 39.265625 11.71875 42.484375 
Q 12.15625 43.109375 12.890625 43.109375 
Q 13.53125 43.109375 13.921875 42.71875 
Q 14.3125 42.328125 14.3125 41.796875 
Q 14.3125 41.265625 14.015625 40.828125 
Q 4.890625 28.265625 4.890625 17.671875 
Q 4.890625 13.09375 7 9.796875 
Q 9.125 6.5 13.484375 6.5 
Q 17.234375 6.5 20.4375 8.6875 
Q 23.640625 10.890625 25.984375 14.3125 
Q 25.984375 16.0625 26.59375 19.765625 
Q 27.203125 23.484375 28.484375 26.390625 
Q 29.78125 29.296875 31.59375 29.296875 
Q 33.890625 29.296875 33.890625 26.609375 
Q 33.890625 25.046875 33.21875 22.671875 
Q 32.5625 20.3125 31.75 18.265625 
Q 30.953125 16.21875 29.78125 13.625 
Q 30.953125 6.5 36.921875 6.5 
Q 40.375 6.5 43.859375 8.5 
Q 47.359375 10.5 50.046875 13.75 
Q 52.734375 17 54.265625 20.75 
Q 55.8125 24.515625 55.8125 27.875 
Q 55.8125 30.90625 54.859375 32.59375 
Q 53.90625 34.28125 52.34375 36.125 
Q 50.78125 37.984375 50.78125 39.109375 
Q 50.78125 41.0625 52.4375 42.671875 
Q 54.109375 44.28125 56 44.28125 
Q 58.453125 44.28125 59.46875 42.0625 
Q 60.5 39.84375 60.5 37.015625 
Q 60.5 32.421875 58.671875 25.4375 
Q 56.84375 18.453125 54.5 13.8125 
Q 51.265625 7.515625 46.40625 3.1875 
Q 41.546875 -1.125 35.5 -1.125 
Q 31.640625 -1.125 29.265625 1.1875 
Q 26.90625 3.515625 26.21875 7.515625 
Q 23.4375 3.5625 19.875 1.21875 
Q 16.3125 -1.125 12.109375 -1.125 
z
" id="Cmmi10-33"/>
      <path d="M 5.609375 -23 
Q 5.609375 -22.703125 5.71875 -22.609375 
L 40.484375 73.78125 
Q 40.671875 74.359375 41.15625 74.671875 
Q 41.65625 75 42.28125 75 
Q 43.171875 75 43.71875 74.453125 
Q 44.28125 73.921875 44.28125 73 
L 44.28125 72.609375 
L 9.515625 -23.78125 
Q 8.9375 -25 7.625 -25 
Q 6.78125 -25 6.1875 -24.40625 
Q 5.609375 -23.828125 5.609375 -23 
z
" id="Cmmi10-61"/>
      <path d="M 4.984375 0 
L 4.984375 2.6875 
Q 4.984375 2.9375 5.171875 3.21875 
L 20.703125 20.40625 
Q 24.21875 24.21875 26.40625 26.796875 
Q 28.609375 29.390625 30.75 32.765625 
Q 32.90625 36.140625 34.15625 39.625 
Q 35.40625 43.109375 35.40625 47.015625 
Q 35.40625 51.125 33.890625 54.859375 
Q 32.375 58.59375 29.375 60.84375 
Q 26.375 63.09375 22.125 63.09375 
Q 17.78125 63.09375 14.3125 60.46875 
Q 10.84375 57.859375 9.421875 53.71875 
Q 9.8125 53.8125 10.5 53.8125 
Q 12.75 53.8125 14.328125 52.296875 
Q 15.921875 50.78125 15.921875 48.390625 
Q 15.921875 46.09375 14.328125 44.5 
Q 12.75 42.921875 10.5 42.921875 
Q 8.15625 42.921875 6.5625 44.546875 
Q 4.984375 46.1875 4.984375 48.390625 
Q 4.984375 52.15625 6.390625 55.4375 
Q 7.8125 58.734375 10.46875 61.296875 
Q 13.140625 63.875 16.484375 65.234375 
Q 19.828125 66.609375 23.578125 66.609375 
Q 29.296875 66.609375 34.21875 64.1875 
Q 39.15625 61.765625 42.03125 57.34375 
Q 44.921875 52.9375 44.921875 47.015625 
Q 44.921875 42.671875 43.015625 38.765625 
Q 41.109375 34.859375 38.125 31.65625 
Q 35.15625 28.46875 30.515625 24.40625 
Q 25.875 20.359375 24.421875 19 
L 13.09375 8.109375 
L 22.703125 8.109375 
Q 29.78125 8.109375 34.546875 8.21875 
Q 39.3125 8.34375 39.59375 8.59375 
Q 40.765625 9.859375 42 17.828125 
L 44.921875 17.828125 
L 42.09375 0 
z
" id="Cmr10-50"/>
      <path d="M 10.109375 1.703125 
Q 10.109375 2.25 10.5 3.328125 
Q 13.28125 9.125 15.6875 14.71875 
Q 18.109375 20.3125 20.03125 25.609375 
Q 21.96875 30.90625 23.578125 36.921875 
L 17.1875 36.921875 
Q 13.53125 36.921875 10.34375 34.625 
Q 7.171875 32.328125 5.078125 28.8125 
Q 4.890625 28.421875 4.5 28.421875 
L 3.328125 28.421875 
Q 2.390625 28.421875 2.390625 29.390625 
Q 2.390625 29.59375 2.59375 29.984375 
Q 5.859375 35.546875 9.59375 39.328125 
Q 13.328125 43.109375 18.015625 43.109375 
L 54.296875 43.109375 
Q 55.328125 43.109375 56.046875 42.421875 
Q 56.78125 41.75 56.78125 40.578125 
Q 56.78125 39.109375 55.734375 38.015625 
Q 54.6875 36.921875 53.21875 36.921875 
L 40.484375 36.921875 
Q 38.875 29.046875 38.71875 21.578125 
Q 38.71875 11.96875 42.09375 4.203125 
Q 42.390625 3.609375 42.390625 2.984375 
Q 42.390625 1.90625 41.75 0.96875 
Q 41.109375 0.046875 40.109375 -0.53125 
Q 39.109375 -1.125 37.984375 -1.125 
Q 35.359375 -1.125 34.375 3.171875 
Q 33.40625 7.46875 33.40625 11.53125 
Q 33.40625 17.234375 34.375 22.53125 
Q 35.359375 27.828125 37.5 36.921875 
L 26.609375 36.921875 
Q 18.703125 4.890625 17.09375 1.609375 
Q 15.671875 -1.125 13.1875 -1.125 
Q 11.96875 -1.125 11.03125 -0.3125 
Q 10.109375 0.484375 10.109375 1.703125 
z
" id="Cmmi10-188"/>
      <path id="DejaVuSans-32"/>
      <path d="M 31 75.875 
Q 24.46875 64.65625 21.28125 53.65625 
Q 18.109375 42.671875 18.109375 31.390625 
Q 18.109375 20.125 21.3125 9.0625 
Q 24.515625 -2 31 -13.1875 
L 23.1875 -13.1875 
Q 15.875 -1.703125 12.234375 9.375 
Q 8.59375 20.453125 8.59375 31.390625 
Q 8.59375 42.28125 12.203125 53.3125 
Q 15.828125 64.359375 23.1875 75.875 
z
" id="DejaVuSans-40"/>
      <path d="M 59.515625 10.40625 
L 59.515625 29.984375 
L 43.40625 29.984375 
L 43.40625 38.09375 
L 69.28125 38.09375 
L 69.28125 6.78125 
Q 63.578125 2.734375 56.6875 0.65625 
Q 49.8125 -1.421875 42 -1.421875 
Q 24.90625 -1.421875 15.25 8.5625 
Q 5.609375 18.5625 5.609375 36.375 
Q 5.609375 54.25 15.25 64.234375 
Q 24.90625 74.21875 42 74.21875 
Q 49.125 74.21875 55.546875 72.453125 
Q 61.96875 70.703125 67.390625 67.28125 
L 67.390625 56.78125 
Q 61.921875 61.421875 55.765625 63.765625 
Q 49.609375 66.109375 42.828125 66.109375 
Q 29.4375 66.109375 22.71875 58.640625 
Q 16.015625 51.171875 16.015625 36.375 
Q 16.015625 21.625 22.71875 14.15625 
Q 29.4375 6.6875 42.828125 6.6875 
Q 48.046875 6.6875 52.140625 7.59375 
Q 56.25 8.5 59.515625 10.40625 
z
" id="DejaVuSans-71"/>
      <path d="M 9.8125 72.90625 
L 19.671875 72.90625 
L 19.671875 43.015625 
L 55.515625 43.015625 
L 55.515625 72.90625 
L 65.375 72.90625 
L 65.375 0 
L 55.515625 0 
L 55.515625 34.71875 
L 19.671875 34.71875 
L 19.671875 0 
L 9.8125 0 
z
" id="DejaVuSans-72"/>
      <path d="M 5.515625 54.6875 
L 48.1875 54.6875 
L 48.1875 46.484375 
L 14.40625 7.171875 
L 48.1875 7.171875 
L 48.1875 0 
L 4.296875 0 
L 4.296875 8.203125 
L 38.09375 47.515625 
L 5.515625 47.515625 
z
" id="DejaVuSans-122"/>
      <path d="M 8.015625 75.875 
L 15.828125 75.875 
Q 23.140625 64.359375 26.78125 53.3125 
Q 30.421875 42.28125 30.421875 31.390625 
Q 30.421875 20.453125 26.78125 9.375 
Q 23.140625 -1.703125 15.828125 -13.1875 
L 8.015625 -13.1875 
Q 14.5 -2 17.703125 9.0625 
Q 20.90625 20.125 20.90625 31.390625 
Q 20.90625 42.671875 17.703125 53.65625 
Q 14.5 64.65625 8.015625 75.875 
z
" id="DejaVuSans-41"/>
     </defs>
     <g transform="translate(21.51 114.441565)rotate(-90)scale(0.12 -0.12)">
      <use transform="translate(0 0.125)" xlink:href="#Cmmi10-33"/>
      <use transform="translate(62.207031 0.125)" xlink:href="#Cmmi10-61"/>
      <use transform="translate(112.207031 0.125)" xlink:href="#Cmr10-50"/>
      <use transform="translate(162.207031 0.125)" xlink:href="#Cmmi10-188"/>
      <use transform="translate(219.189453 0.125)" xlink:href="#DejaVuSans-32"/>
      <use transform="translate(250.976562 0.125)" xlink:href="#DejaVuSans-40"/>
      <use transform="translate(289.990234 0.125)" xlink:href="#DejaVuSans-71"/>
      <use transform="translate(367.480469 0.125)" xlink:href="#DejaVuSans-72"/>
      <use transform="translate(442.675781 0.125)" xlink:href="#DejaVuSans-122"/>
      <use transform="translate(495.166016 0.125)" xlink:href="#DejaVuSans-41"/>
     </g>
    </g>
   </g>
   <g id="line2d_17">
    <path clip-path="url(#pa8488db4e4)" d="M 34.201111 1.974977 
L 49.484255 171.414077 
L 50.14874 178.254579 
L 50.813224 177.971011 
L 53.471162 149.34182 
L 56.1291 120.235447 
L 56.793585 118.603735 
L 65.431884 114.783682 
L 73.405698 111.494398 
L 81.379512 108.429594 
L 90.017811 105.356833 
L 98.65611 102.535973 
L 107.294409 99.962166 
L 115.932708 97.631116 
L 124.571006 95.538983 
L 133.209305 93.682332 
L 141.847604 92.058113 
L 150.485903 90.663657 
L 159.124202 89.496669 
L 167.762501 88.555226 
L 176.400799 87.837776 
L 185.039098 87.343136 
L 193.677397 87.07049 
L 202.315696 87.01939 
L 210.953995 87.18975 
L 219.592293 87.581852 
L 228.230592 88.196342 
L 236.868891 89.034233 
L 245.50719 90.096907 
L 254.145489 91.386115 
L 262.783788 92.903981 
L 271.422086 94.653 
L 280.060385 96.636046 
L 288.698684 98.856374 
L 297.336983 101.317635 
L 305.975282 104.023904 
L 314.61358 106.979759 
L 322.587395 109.934268 
L 330.561209 113.110647 
L 338.535023 116.513985 
L 343.186415 118.603735 
L 343.8509 120.235447 
L 349.166776 177.971011 
L 349.83126 178.254579 
L 351.824714 156.895515 
L 361 55.229712 
L 361 55.229712 
" style="fill:none;stroke:#004ba8;stroke-linecap:square;stroke-width:1.2;"/>
   </g>
   <g id="line2d_18">
    <path clip-path="url(#pa8488db4e4)" d="M 34.201111 130.224732 
L 39.516987 127.238249 
L 46.161833 123.781956 
L 49.484255 122.230064 
L 50.14874 122.148864 
L 50.813224 125.629082 
L 55.464616 174.205932 
L 56.1291 181.172266 
L 56.793585 176.864821 
L 67.425337 66.656955 
L 68.754306 54.275738 
L 69.418791 50.167929 
L 70.083275 48.425466 
L 70.74776 47.701109 
L 72.076729 47.001597 
L 74.070183 46.386024 
L 78.05709 45.464118 
L 86.030904 43.889107 
L 97.327141 41.883456 
L 109.952347 39.871502 
L 121.913068 38.183523 
L 133.87379 36.715229 
L 145.834511 35.475574 
L 157.130748 34.522028 
L 168.426985 33.785206 
L 179.723222 33.269351 
L 191.019459 32.97738 
L 202.315696 32.910925 
L 213.611933 33.070356 
L 224.90817 33.454785 
L 236.204407 34.062054 
L 247.500644 34.888705 
L 258.79688 35.929947 
L 270.757602 37.259549 
L 282.718323 38.814344 
L 294.679045 40.585489 
L 307.304251 42.684385 
L 318.600488 44.784255 
L 325.245333 46.216546 
L 327.903271 47.001597 
L 329.23224 47.701109 
L 329.896725 48.425466 
L 330.561209 50.167929 
L 331.225694 54.275738 
L 332.554663 66.656955 
L 337.206054 114.44413 
L 343.186415 176.864821 
L 343.8509 181.172266 
L 349.166776 125.629082 
L 349.83126 122.148864 
L 350.495745 122.230064 
L 352.489198 123.127842 
L 358.469559 126.172609 
L 361 127.530014 
L 361 127.530014 
" style="fill:none;stroke:#990000;stroke-linecap:square;stroke-width:1.2;"/>
   </g>
   <g id="line2d_19">
    <path clip-path="url(#pa8488db4e4)" d="M 34.201111 26.821991 
L 47.490802 174.603613 
L 48.155286 180.063324 
L 48.819771 174.89255 
L 54.135647 117.177167 
L 60.780492 114.255278 
L 69.418791 110.686811 
L 78.05709 107.370567 
L 86.695389 104.302616 
L 95.333687 101.479157 
L 103.971986 98.896681 
L 112.610285 96.551894 
L 121.248584 94.441687 
L 129.886883 92.563149 
L 138.525181 90.913582 
L 147.16348 89.490523 
L 155.801779 88.291762 
L 164.440078 87.315349 
L 173.078377 86.5596 
L 181.716676 86.023097 
L 190.354974 85.704681 
L 198.993273 85.603448 
L 207.631572 85.718729 
L 216.269871 86.050077 
L 224.90817 86.597241 
L 233.546468 87.360134 
L 242.184767 88.338794 
L 250.823066 89.533327 
L 259.461365 90.943842 
L 268.099664 92.570355 
L 276.737963 94.41267 
L 285.376261 96.470223 
L 294.01456 98.741875 
L 303.317344 101.425422 
L 312.620127 104.350987 
L 321.92291 107.512443 
L 331.225694 110.900613 
L 339.199508 113.973953 
L 339.863992 115.501141 
L 345.844353 179.789602 
L 346.508838 175.812085 
L 350.495745 132.083864 
L 361 15.227764 
L 361 15.227764 
" style="fill:none;stroke:#0072b2;stroke-dasharray:1.2,1.98;stroke-dashoffset:0;stroke-width:1.2;"/>
   </g>
   <g id="line2d_20">
    <path clip-path="url(#pa8488db4e4)" d="M 34.201111 127.061824 
L 40.181472 123.909996 
L 46.161833 120.988921 
L 47.490802 120.47557 
L 48.155286 121.110265 
L 49.484255 133.99982 
L 54.135647 181.899655 
L 65.431884 64.209283 
L 66.760853 52.590254 
L 67.425337 49.697745 
L 68.089822 48.583328 
L 68.754306 48.045061 
L 70.083275 47.437962 
L 72.741214 46.673419 
L 78.05709 45.487943 
L 87.359873 43.670506 
L 99.320595 41.569198 
L 111.281316 39.692514 
L 123.242037 38.040457 
L 135.202759 36.620453 
L 146.498996 35.499809 
L 157.795233 34.599652 
L 169.09147 33.925083 
L 180.387707 33.480046 
L 191.683943 33.267345 
L 202.98018 33.288692 
L 214.276417 33.544758 
L 225.572654 34.035219 
L 236.868891 34.758807 
L 248.165128 35.713377 
L 259.461365 36.896036 
L 270.757602 38.303417 
L 282.053839 39.932325 
L 293.350076 41.781357 
L 304.646313 43.856004 
L 314.61358 45.90276 
L 321.258426 47.473904 
L 323.916364 48.295473 
L 325.245333 48.947369 
L 325.909817 49.531454 
L 326.574302 50.763938 
L 327.238786 53.917781 
L 327.903271 59.375994 
L 329.896725 79.250467 
L 337.870539 162.707907 
L 339.199508 176.731612 
L 339.863992 181.221641 
L 345.844353 118.598059 
L 346.508838 117.191262 
L 347.837807 117.581351 
L 352.489198 119.503227 
L 360.463013 123.04223 
L 361 123.292258 
L 361 123.292258 
" style="fill:none;stroke:#cc79a7;stroke-dasharray:1.2,1.98;stroke-dashoffset:0;stroke-width:1.2;"/>
   </g>
   <g id="patch_3">
    <path d="M 50.78 153.883131 
L 50.78 10.8 
" style="fill:none;stroke:#2b2b2b;stroke-linecap:square;stroke-linejoin:miter;stroke-width:0.8;"/>
   </g>
   <g id="patch_4">
    <path d="M 349.2 153.883131 
L 349.2 10.8 
" style="fill:none;stroke:#2b2b2b;stroke-linecap:square;stroke-linejoin:miter;stroke-width:0.8;"/>
   </g>
   <g id="patch_5">
    <path d="M 50.78 153.883131 
L 349.2 153.883131 
" style="fill:none;stroke:#2b2b2b;stroke-linecap:square;stroke-linejoin:miter;stroke-width:0.8;"/>
   </g>
   <g id="patch_6">
    <path d="M 50.78 10.8 
L 349.2 10.8 
" style="fill:none;stroke:#2b2b2b;stroke-linecap:square;stroke-linejoin:miter;stroke-width:0.8;"/>
   </g>
  </g>
  <g id="axes_2">
   <g id="patch_7">
    <path d="M 50.78 312.64 
L 349.2 312.64 
L 349.2 169.556869 
L 50.78 169.556869 
z
" style="fill:none;"/>
   </g>
   <g id="matplotlib.axis_3">
    <g id="xtick_6">
     <g id="line2d_21">
      <path clip-path="url(#p7d84979341)" d="M 89.464074 312.64 
L 89.464074 169.556869 
" style="fill:none;stroke:#b2b2b2;stroke-dasharray:2.96,1.28;stroke-dashoffset:0;stroke-opacity:0.3;stroke-width:0.8;"/>
     </g>
     <g id="line2d_22">
      <g>
       <use style="fill:#2b2b2b;stroke:#2b2b2b;stroke-width:0.8;" x="89.464074" xlink:href="#m73ea12c367" y="312.64"/>
      </g>
     </g>
     <g id="text_5">
      <!-- 0.40 -->
      <defs>
       <path d="M 10.6875 12.40625 
L 21 12.40625 
L 21 0 
L 10.6875 0 
z
" id="DejaVuSans-46"/>
       <path d="M 37.796875 64.3125 
L 12.890625 25.390625 
L 37.796875 25.390625 
z
M 35.203125 72.90625 
L 47.609375 72.90625 
L 47.609375 25.390625 
L 58.015625 25.390625 
L 58.015625 17.1875 
L 47.609375 17.1875 
L 47.609375 0 
L 37.796875 0 
L 37.796875 17.1875 
L 4.890625 17.1875 
L 4.890625 26.703125 
z
" id="DejaVuSans-52"/>
      </defs>
      <g style="fill:#2b2b2b;" transform="translate(78.331262 327.238438)scale(0.1 -0.1)">
       <use xlink:href="#DejaVuSans-48"/>
       <use x="63.623047" xlink:href="#DejaVuSans-46"/>
       <use x="95.410156" xlink:href="#DejaVuSans-52"/>
       <use x="159.033203" xlink:href="#DejaVuSans-48"/>
      </g>
     </g>
    </g>
    <g id="xtick_7">
     <g id="line2d_23">
      <path clip-path="url(#p7d84979341)" d="M 144.727037 312.64 
L 144.727037 169.556869 
" style="fill:none;stroke:#b2b2b2;stroke-dasharray:2.96,1.28;stroke-dashoffset:0;stroke-opacity:0.3;stroke-width:0.8;"/>
     </g>
     <g id="line2d_24">
      <g>
       <use style="fill:#2b2b2b;stroke:#2b2b2b;stroke-width:0.8;" x="144.727037" xlink:href="#m73ea12c367" y="312.64"/>
      </g>
     </g>
     <g id="text_6">
      <!-- 0.45 -->
      <g style="fill:#2b2b2b;" transform="translate(133.594225 327.238438)scale(0.1 -0.1)">
       <use xlink:href="#DejaVuSans-48"/>
       <use x="63.623047" xlink:href="#DejaVuSans-46"/>
       <use x="95.410156" xlink:href="#DejaVuSans-52"/>
       <use x="159.033203" xlink:href="#DejaVuSans-53"/>
      </g>
     </g>
    </g>
    <g id="xtick_8">
     <g id="line2d_25">
      <path clip-path="url(#p7d84979341)" d="M 199.99 312.64 
L 199.99 169.556869 
" style="fill:none;stroke:#b2b2b2;stroke-dasharray:2.96,1.28;stroke-dashoffset:0;stroke-opacity:0.3;stroke-width:0.8;"/>
     </g>
     <g id="line2d_26">
      <g>
       <use style="fill:#2b2b2b;stroke:#2b2b2b;stroke-width:0.8;" x="199.99" xlink:href="#m73ea12c367" y="312.64"/>
      </g>
     </g>
     <g id="text_7">
      <!-- 0.50 -->
      <g style="fill:#2b2b2b;" transform="translate(188.857187 327.238438)scale(0.1 -0.1)">
       <use xlink:href="#DejaVuSans-48"/>
       <use x="63.623047" xlink:href="#DejaVuSans-46"/>
       <use x="95.410156" xlink:href="#DejaVuSans-53"/>
       <use x="159.033203" xlink:href="#DejaVuSans-48"/>
      </g>
     </g>
    </g>
    <g id="xtick_9">
     <g id="line2d_27">
      <path clip-path="url(#p7d84979341)" d="M 255.252963 312.64 
L 255.252963 169.556869 
" style="fill:none;stroke:#b2b2b2;stroke-dasharray:2.96,1.28;stroke-dashoffset:0;stroke-opacity:0.3;stroke-width:0.8;"/>
     </g>
     <g id="line2d_28">
      <g>
       <use style="fill:#2b2b2b;stroke:#2b2b2b;stroke-width:0.8;" x="255.252963" xlink:href="#m73ea12c367" y="312.64"/>
      </g>
     </g>
     <g id="text_8">
      <!-- 0.55 -->
      <g style="fill:#2b2b2b;" transform="translate(244.12015 327.238438)scale(0.1 -0.1)">
       <use xlink:href="#DejaVuSans-48"/>
       <use x="63.623047" xlink:href="#DejaVuSans-46"/>
       <use x="95.410156" xlink:href="#DejaVuSans-53"/>
       <use x="159.033203" xlink:href="#DejaVuSans-53"/>
      </g>
     </g>
    </g>
    <g id="xtick_10">
     <g id="line2d_29">
      <path clip-path="url(#p7d84979341)" d="M 310.515926 312.64 
L 310.515926 169.556869 
" style="fill:none;stroke:#b2b2b2;stroke-dasharray:2.96,1.28;stroke-dashoffset:0;stroke-opacity:0.3;stroke-width:0.8;"/>
     </g>
     <g id="line2d_30">
      <g>
       <use style="fill:#2b2b2b;stroke:#2b2b2b;stroke-width:0.8;" x="310.515926" xlink:href="#m73ea12c367" y="312.64"/>
      </g>
     </g>
     <g id="text_9">
      <!-- 0.60 -->
      <defs>
       <path d="M 33.015625 40.375 
Q 26.375 40.375 22.484375 35.828125 
Q 18.609375 31.296875 18.609375 23.390625 
Q 18.609375 15.53125 22.484375 10.953125 
Q 26.375 6.390625 33.015625 6.390625 
Q 39.65625 6.390625 43.53125 10.953125 
Q 47.40625 15.53125 47.40625 23.390625 
Q 47.40625 31.296875 43.53125 35.828125 
Q 39.65625 40.375 33.015625 40.375 
z
M 52.59375 71.296875 
L 52.59375 62.3125 
Q 48.875 64.0625 45.09375 64.984375 
Q 41.3125 65.921875 37.59375 65.921875 
Q 27.828125 65.921875 22.671875 59.328125 
Q 17.53125 52.734375 16.796875 39.40625 
Q 19.671875 43.65625 24.015625 45.921875 
Q 28.375 48.1875 33.59375 48.1875 
Q 44.578125 48.1875 50.953125 41.515625 
Q 57.328125 34.859375 57.328125 23.390625 
Q 57.328125 12.15625 50.6875 5.359375 
Q 44.046875 -1.421875 33.015625 -1.421875 
Q 20.359375 -1.421875 13.671875 8.265625 
Q 6.984375 17.96875 6.984375 36.375 
Q 6.984375 53.65625 15.1875 63.9375 
Q 23.390625 74.21875 37.203125 74.21875 
Q 40.921875 74.21875 44.703125 73.484375 
Q 48.484375 72.75 52.59375 71.296875 
z
" id="DejaVuSans-54"/>
      </defs>
      <g style="fill:#2b2b2b;" transform="translate(299.383113 327.238438)scale(0.1 -0.1)">
       <use xlink:href="#DejaVuSans-48"/>
       <use x="63.623047" xlink:href="#DejaVuSans-46"/>
       <use x="95.410156" xlink:href="#DejaVuSans-54"/>
       <use x="159.033203" xlink:href="#DejaVuSans-48"/>
      </g>
     </g>
    </g>
    <g id="text_10">
     <!-- $\varphi_+/2\pi$ -->
     <defs>
      <path d="M 16.3125 -19 
Q 16.3125 -18.609375 16.5 -17.828125 
L 22.125 -0.203125 
Q 14.65625 1.65625 9.8125 6.6875 
Q 4.984375 11.71875 4.984375 19 
Q 4.984375 22.65625 6.34375 27.25 
Q 7.71875 31.84375 9.859375 35.96875 
Q 12.015625 40.09375 14.5 42.828125 
Q 15.09375 43.109375 15.1875 43.109375 
L 16.40625 43.109375 
Q 16.703125 43.109375 16.9375 42.8125 
Q 17.1875 42.53125 17.1875 42.1875 
Q 17.1875 41.796875 17 41.609375 
Q 15.328125 39.796875 13.734375 37.1875 
Q 12.15625 34.578125 10.90625 31.6875 
Q 9.671875 28.8125 8.84375 25.640625 
Q 8.015625 22.46875 8.015625 20.125 
Q 8.015625 14.203125 12.71875 10.5625 
Q 17.4375 6.9375 23.875 5.71875 
L 26.703125 14.703125 
Q 28.5625 20.515625 30.390625 25.078125 
Q 32.234375 29.640625 34.984375 34 
Q 37.75 38.375 41.65625 41.28125 
Q 45.5625 44.1875 50.390625 44.1875 
Q 54.203125 44.1875 56.765625 42.28125 
Q 59.328125 40.375 60.5625 37.203125 
Q 61.8125 34.03125 61.8125 30.421875 
Q 61.8125 24.46875 59.171875 18.78125 
Q 56.546875 13.09375 51.953125 8.5625 
Q 47.359375 4.046875 41.59375 1.453125 
Q 35.84375 -1.125 29.984375 -1.125 
Q 29.203125 -1.078125 28.296875 -1.03125 
Q 27.390625 -0.984375 26.8125 -0.984375 
L 23.484375 -18.40625 
Q 23.1875 -19.875 21.984375 -20.828125 
Q 20.796875 -21.78125 19.28125 -21.78125 
Q 18.0625 -21.78125 17.1875 -21.015625 
Q 16.3125 -20.265625 16.3125 -19 
z
M 27.875 5.171875 
Q 29 5.078125 31.109375 5.078125 
Q 37.3125 5.078125 43.71875 8.125 
Q 50.140625 11.1875 54.359375 16.5 
Q 58.59375 21.828125 58.59375 28.078125 
Q 58.59375 30.90625 57.4375 33.15625 
Q 56.296875 35.40625 54.21875 36.6875 
Q 52.15625 37.984375 49.421875 37.984375 
Q 41.65625 37.984375 36.421875 30.46875 
Q 31.203125 22.953125 29.59375 14.3125 
z
" id="Cmmi10-39"/>
      <path d="M 7.515625 23 
Q 6.6875 23 6.140625 23.625 
Q 5.609375 24.265625 5.609375 25 
Q 5.609375 25.734375 6.140625 26.359375 
Q 6.6875 27 7.515625 27 
L 36.921875 27 
L 36.921875 56.5 
Q 36.921875 57.28125 37.5 57.78125 
Q 38.09375 58.296875 38.921875 58.296875 
Q 39.65625 58.296875 40.28125 57.78125 
Q 40.921875 57.28125 40.921875 56.5 
L 40.921875 27 
L 70.3125 27 
Q 71.046875 27 71.578125 26.359375 
Q 72.125 25.734375 72.125 25 
Q 72.125 24.265625 71.578125 23.625 
Q 71.046875 23 70.3125 23 
L 40.921875 23 
L 40.921875 -6.5 
Q 40.921875 -7.28125 40.28125 -7.78125 
Q 39.65625 -8.296875 38.921875 -8.296875 
Q 38.09375 -8.296875 37.5 -7.78125 
Q 36.921875 -7.28125 36.921875 -6.5 
L 36.921875 23 
z
" id="Cmr10-43"/>
     </defs>
     <g transform="translate(178.43 343.818125)scale(0.14 -0.14)">
      <use xlink:href="#Cmmi10-39"/>
      <use transform="translate(77.671875 -17.00625)scale(0.7)" xlink:href="#Cmr10-43"/>
      <use transform="translate(150.720117 0)" xlink:href="#Cmmi10-61"/>
      <use transform="translate(200.720117 0)" xlink:href="#Cmr10-50"/>
      <use transform="translate(250.720117 0)" xlink:href="#Cmmi10-188"/>
     </g>
    </g>
   </g>
   <g id="matplotlib.axis_4">
    <g id="ytick_4">
     <g id="line2d_31">
      <path clip-path="url(#p7d84979341)" d="M 50.78 306.136221 
L 349.2 306.136221 
" style="fill:none;stroke:#b2b2b2;stroke-dasharray:2.96,1.28;stroke-dashoffset:0;stroke-opacity:0.3;stroke-width:0.8;"/>
     </g>
     <g id="line2d_32">
      <g>
       <use style="fill:#2b2b2b;stroke:#2b2b2b;stroke-width:0.8;" x="50.78" xlink:href="#ma2ead5f8e3" y="306.136221"/>
      </g>
     </g>
     <g id="text_11">
      <!-- 0 -->
      <g style="fill:#2b2b2b;" transform="translate(37.4175 309.93544)scale(0.1 -0.1)">
       <use xlink:href="#DejaVuSans-48"/>
      </g>
     </g>
    </g>
    <g id="ytick_5">
     <g id="line2d_33">
      <path clip-path="url(#p7d84979341)" d="M 50.78 269.164417 
L 349.2 269.164417 
" style="fill:none;stroke:#b2b2b2;stroke-dasharray:2.96,1.28;stroke-dashoffset:0;stroke-opacity:0.3;stroke-width:0.8;"/>
     </g>
     <g id="line2d_34">
      <g>
       <use style="fill:#2b2b2b;stroke:#2b2b2b;stroke-width:0.8;" x="50.78" xlink:href="#ma2ead5f8e3" y="269.164417"/>
      </g>
     </g>
     <g id="text_12">
      <!-- 2 -->
      <defs>
       <path d="M 19.1875 8.296875 
L 53.609375 8.296875 
L 53.609375 0 
L 7.328125 0 
L 7.328125 8.296875 
Q 12.9375 14.109375 22.625 23.890625 
Q 32.328125 33.6875 34.8125 36.53125 
Q 39.546875 41.84375 41.421875 45.53125 
Q 43.3125 49.21875 43.3125 52.78125 
Q 43.3125 58.59375 39.234375 62.25 
Q 35.15625 65.921875 28.609375 65.921875 
Q 23.96875 65.921875 18.8125 64.3125 
Q 13.671875 62.703125 7.8125 59.421875 
L 7.8125 69.390625 
Q 13.765625 71.78125 18.9375 73 
Q 24.125 74.21875 28.421875 74.21875 
Q 39.75 74.21875 46.484375 68.546875 
Q 53.21875 62.890625 53.21875 53.421875 
Q 53.21875 48.921875 51.53125 44.890625 
Q 49.859375 40.875 45.40625 35.40625 
Q 44.1875 33.984375 37.640625 27.21875 
Q 31.109375 20.453125 19.1875 8.296875 
z
" id="DejaVuSans-50"/>
      </defs>
      <g style="fill:#2b2b2b;" transform="translate(37.4175 272.963636)scale(0.1 -0.1)">
       <use xlink:href="#DejaVuSans-50"/>
      </g>
     </g>
    </g>
    <g id="ytick_6">
     <g id="line2d_35">
      <path clip-path="url(#p7d84979341)" d="M 50.78 232.192614 
L 349.2 232.192614 
" style="fill:none;stroke:#b2b2b2;stroke-dasharray:2.96,1.28;stroke-dashoffset:0;stroke-opacity:0.3;stroke-width:0.8;"/>
     </g>
     <g id="line2d_36">
      <g>
       <use style="fill:#2b2b2b;stroke:#2b2b2b;stroke-width:0.8;" x="50.78" xlink:href="#ma2ead5f8e3" y="232.192614"/>
      </g>
     </g>
     <g id="text_13">
      <!-- 4 -->
      <g style="fill:#2b2b2b;" transform="translate(37.4175 235.991832)scale(0.1 -0.1)">
       <use xlink:href="#DejaVuSans-52"/>
      </g>
     </g>
    </g>
    <g id="ytick_7">
     <g id="line2d_37">
      <path clip-path="url(#p7d84979341)" d="M 50.78 195.22081 
L 349.2 195.22081 
" style="fill:none;stroke:#b2b2b2;stroke-dasharray:2.96,1.28;stroke-dashoffset:0;stroke-opacity:0.3;stroke-width:0.8;"/>
     </g>
     <g id="line2d_38">
      <g>
       <use style="fill:#2b2b2b;stroke:#2b2b2b;stroke-width:0.8;" x="50.78" xlink:href="#ma2ead5f8e3" y="195.22081"/>
      </g>
     </g>
     <g id="text_14">
      <!-- 6 -->
      <g style="fill:#2b2b2b;" transform="translate(37.4175 199.020028)scale(0.1 -0.1)">
       <use xlink:href="#DejaVuSans-54"/>
      </g>
     </g>
    </g>
    <g id="text_15">
     <!-- Matrix elements ($\mu$V/e) -->
     <defs>
      <path d="M 9.8125 72.90625 
L 24.515625 72.90625 
L 43.109375 23.296875 
L 61.8125 72.90625 
L 76.515625 72.90625 
L 76.515625 0 
L 66.890625 0 
L 66.890625 64.015625 
L 48.09375 14.015625 
L 38.1875 14.015625 
L 19.390625 64.015625 
L 19.390625 0 
L 9.8125 0 
z
" id="DejaVuSans-77"/>
      <path d="M 34.28125 27.484375 
Q 23.390625 27.484375 19.1875 25 
Q 14.984375 22.515625 14.984375 16.5 
Q 14.984375 11.71875 18.140625 8.90625 
Q 21.296875 6.109375 26.703125 6.109375 
Q 34.1875 6.109375 38.703125 11.40625 
Q 43.21875 16.703125 43.21875 25.484375 
L 43.21875 27.484375 
z
M 52.203125 31.203125 
L 52.203125 0 
L 43.21875 0 
L 43.21875 8.296875 
Q 40.140625 3.328125 35.546875 0.953125 
Q 30.953125 -1.421875 24.3125 -1.421875 
Q 15.921875 -1.421875 10.953125 3.296875 
Q 6 8.015625 6 15.921875 
Q 6 25.140625 12.171875 29.828125 
Q 18.359375 34.515625 30.609375 34.515625 
L 43.21875 34.515625 
L 43.21875 35.40625 
Q 43.21875 41.609375 39.140625 45 
Q 35.0625 48.390625 27.6875 48.390625 
Q 23 48.390625 18.546875 47.265625 
Q 14.109375 46.140625 10.015625 43.890625 
L 10.015625 52.203125 
Q 14.9375 54.109375 19.578125 55.046875 
Q 24.21875 56 28.609375 56 
Q 40.484375 56 46.34375 49.84375 
Q 52.203125 43.703125 52.203125 31.203125 
z
" id="DejaVuSans-97"/>
      <path d="M 18.3125 70.21875 
L 18.3125 54.6875 
L 36.8125 54.6875 
L 36.8125 47.703125 
L 18.3125 47.703125 
L 18.3125 18.015625 
Q 18.3125 11.328125 20.140625 9.421875 
Q 21.96875 7.515625 27.59375 7.515625 
L 36.8125 7.515625 
L 36.8125 0 
L 27.59375 0 
Q 17.1875 0 13.234375 3.875 
Q 9.28125 7.765625 9.28125 18.015625 
L 9.28125 47.703125 
L 2.6875 47.703125 
L 2.6875 54.6875 
L 9.28125 54.6875 
L 9.28125 70.21875 
z
" id="DejaVuSans-116"/>
      <path d="M 41.109375 46.296875 
Q 39.59375 47.171875 37.8125 47.578125 
Q 36.03125 48 33.890625 48 
Q 26.265625 48 22.1875 43.046875 
Q 18.109375 38.09375 18.109375 28.8125 
L 18.109375 0 
L 9.078125 0 
L 9.078125 54.6875 
L 18.109375 54.6875 
L 18.109375 46.1875 
Q 20.953125 51.171875 25.484375 53.578125 
Q 30.03125 56 36.53125 56 
Q 37.453125 56 38.578125 55.875 
Q 39.703125 55.765625 41.0625 55.515625 
z
" id="DejaVuSans-114"/>
      <path d="M 9.421875 54.6875 
L 18.40625 54.6875 
L 18.40625 0 
L 9.421875 0 
z
M 9.421875 75.984375 
L 18.40625 75.984375 
L 18.40625 64.59375 
L 9.421875 64.59375 
z
" id="DejaVuSans-105"/>
      <path d="M 54.890625 54.6875 
L 35.109375 28.078125 
L 55.90625 0 
L 45.3125 0 
L 29.390625 21.484375 
L 13.484375 0 
L 2.875 0 
L 24.125 28.609375 
L 4.6875 54.6875 
L 15.28125 54.6875 
L 29.78125 35.203125 
L 44.28125 54.6875 
z
" id="DejaVuSans-120"/>
      <path d="M 56.203125 29.59375 
L 56.203125 25.203125 
L 14.890625 25.203125 
Q 15.484375 15.921875 20.484375 11.0625 
Q 25.484375 6.203125 34.421875 6.203125 
Q 39.59375 6.203125 44.453125 7.46875 
Q 49.3125 8.734375 54.109375 11.28125 
L 54.109375 2.78125 
Q 49.265625 0.734375 44.1875 -0.34375 
Q 39.109375 -1.421875 33.890625 -1.421875 
Q 20.796875 -1.421875 13.15625 6.1875 
Q 5.515625 13.8125 5.515625 26.8125 
Q 5.515625 40.234375 12.765625 48.109375 
Q 20.015625 56 32.328125 56 
Q 43.359375 56 49.78125 48.890625 
Q 56.203125 41.796875 56.203125 29.59375 
z
M 47.21875 32.234375 
Q 47.125 39.59375 43.09375 43.984375 
Q 39.0625 48.390625 32.421875 48.390625 
Q 24.90625 48.390625 20.390625 44.140625 
Q 15.875 39.890625 15.1875 32.171875 
z
" id="DejaVuSans-101"/>
      <path d="M 9.421875 75.984375 
L 18.40625 75.984375 
L 18.40625 0 
L 9.421875 0 
z
" id="DejaVuSans-108"/>
      <path d="M 52 44.1875 
Q 55.375 50.25 60.0625 53.125 
Q 64.75 56 71.09375 56 
Q 79.640625 56 84.28125 50.015625 
Q 88.921875 44.046875 88.921875 33.015625 
L 88.921875 0 
L 79.890625 0 
L 79.890625 32.71875 
Q 79.890625 40.578125 77.09375 44.375 
Q 74.3125 48.1875 68.609375 48.1875 
Q 61.625 48.1875 57.5625 43.546875 
Q 53.515625 38.921875 53.515625 30.90625 
L 53.515625 0 
L 44.484375 0 
L 44.484375 32.71875 
Q 44.484375 40.625 41.703125 44.40625 
Q 38.921875 48.1875 33.109375 48.1875 
Q 26.21875 48.1875 22.15625 43.53125 
Q 18.109375 38.875 18.109375 30.90625 
L 18.109375 0 
L 9.078125 0 
L 9.078125 54.6875 
L 18.109375 54.6875 
L 18.109375 46.1875 
Q 21.1875 51.21875 25.484375 53.609375 
Q 29.78125 56 35.6875 56 
Q 41.65625 56 45.828125 52.96875 
Q 50 49.953125 52 44.1875 
z
" id="DejaVuSans-109"/>
      <path d="M 54.890625 33.015625 
L 54.890625 0 
L 45.90625 0 
L 45.90625 32.71875 
Q 45.90625 40.484375 42.875 44.328125 
Q 39.84375 48.1875 33.796875 48.1875 
Q 26.515625 48.1875 22.3125 43.546875 
Q 18.109375 38.921875 18.109375 30.90625 
L 18.109375 0 
L 9.078125 0 
L 9.078125 54.6875 
L 18.109375 54.6875 
L 18.109375 46.1875 
Q 21.34375 51.125 25.703125 53.5625 
Q 30.078125 56 35.796875 56 
Q 45.21875 56 50.046875 50.171875 
Q 54.890625 44.34375 54.890625 33.015625 
z
" id="DejaVuSans-110"/>
      <path d="M 44.28125 53.078125 
L 44.28125 44.578125 
Q 40.484375 46.53125 36.375 47.5 
Q 32.28125 48.484375 27.875 48.484375 
Q 21.1875 48.484375 17.84375 46.4375 
Q 14.5 44.390625 14.5 40.28125 
Q 14.5 37.15625 16.890625 35.375 
Q 19.28125 33.59375 26.515625 31.984375 
L 29.59375 31.296875 
Q 39.15625 29.25 43.1875 25.515625 
Q 47.21875 21.78125 47.21875 15.09375 
Q 47.21875 7.46875 41.1875 3.015625 
Q 35.15625 -1.421875 24.609375 -1.421875 
Q 20.21875 -1.421875 15.453125 -0.5625 
Q 10.6875 0.296875 5.421875 2 
L 5.421875 11.28125 
Q 10.40625 8.6875 15.234375 7.390625 
Q 20.0625 6.109375 24.8125 6.109375 
Q 31.15625 6.109375 34.5625 8.28125 
Q 37.984375 10.453125 37.984375 14.40625 
Q 37.984375 18.0625 35.515625 20.015625 
Q 33.0625 21.96875 24.703125 23.78125 
L 21.578125 24.515625 
Q 13.234375 26.265625 9.515625 29.90625 
Q 5.8125 33.546875 5.8125 39.890625 
Q 5.8125 47.609375 11.28125 51.796875 
Q 16.75 56 26.8125 56 
Q 31.78125 56 36.171875 55.265625 
Q 40.578125 54.546875 44.28125 53.078125 
z
" id="DejaVuSans-115"/>
      <path d="M 2.78125 -18.796875 
Q 2.78125 -18.21875 2.875 -18.015625 
L 17.578125 41.015625 
Q 18.015625 42.4375 19.15625 43.3125 
Q 20.3125 44.1875 21.78125 44.1875 
Q 23.046875 44.1875 23.921875 43.421875 
Q 24.8125 42.671875 24.8125 41.40625 
Q 24.8125 41.109375 24.78125 40.9375 
Q 24.75 40.765625 24.703125 40.578125 
L 18.796875 17.1875 
Q 17.828125 13.03125 17.828125 10.015625 
Q 17.828125 6.296875 19.578125 3.90625 
Q 21.34375 1.515625 24.90625 1.515625 
Q 32.171875 1.515625 37.703125 10.59375 
Q 37.75 10.6875 37.765625 10.734375 
Q 37.796875 10.796875 37.796875 10.890625 
L 45.015625 39.890625 
Q 45.359375 41.21875 46.578125 42.15625 
Q 47.796875 43.109375 49.21875 43.109375 
Q 50.390625 43.109375 51.296875 42.328125 
Q 52.203125 41.546875 52.203125 40.28125 
Q 52.203125 39.703125 52.09375 39.5 
L 44.921875 10.6875 
Q 44.1875 7.859375 44.1875 5.8125 
Q 44.1875 1.515625 47.125 1.515625 
Q 50.25 1.515625 51.828125 5.375 
Q 53.421875 9.234375 54.59375 14.703125 
Q 54.78125 15.28125 55.421875 15.28125 
L 56.59375 15.28125 
Q 56.984375 15.28125 57.25 14.96875 
Q 57.515625 14.65625 57.515625 14.3125 
Q 55.765625 7.328125 53.6875 3.09375 
Q 51.609375 -1.125 46.921875 -1.125 
Q 43.609375 -1.125 41.046875 0.78125 
Q 38.484375 2.6875 37.703125 5.90625 
Q 35.203125 2.78125 31.859375 0.828125 
Q 28.515625 -1.125 24.8125 -1.125 
Q 18.5625 -1.125 14.984375 1.8125 
L 9.90625 -18.40625 
Q 9.625 -19.828125 8.453125 -20.703125 
Q 7.28125 -21.578125 5.8125 -21.578125 
Q 4.59375 -21.578125 3.6875 -20.8125 
Q 2.78125 -20.0625 2.78125 -18.796875 
z
" id="Cmmi10-185"/>
      <path d="M 28.609375 0 
L 0.78125 72.90625 
L 11.078125 72.90625 
L 34.1875 11.53125 
L 57.328125 72.90625 
L 67.578125 72.90625 
L 39.796875 0 
z
" id="DejaVuSans-86"/>
      <path d="M 25.390625 72.90625 
L 33.6875 72.90625 
L 8.296875 -9.28125 
L 0 -9.28125 
z
" id="DejaVuSans-47"/>
     </defs>
     <g transform="translate(30.9975 304.073435)rotate(-90)scale(0.11 -0.11)">
      <use transform="translate(0 0.015625)" xlink:href="#DejaVuSans-77"/>
      <use transform="translate(86.279297 0.015625)" xlink:href="#DejaVuSans-97"/>
      <use transform="translate(147.558594 0.015625)" xlink:href="#DejaVuSans-116"/>
      <use transform="translate(186.767578 0.015625)" xlink:href="#DejaVuSans-114"/>
      <use transform="translate(227.880859 0.015625)" xlink:href="#DejaVuSans-105"/>
      <use transform="translate(255.664062 0.015625)" xlink:href="#DejaVuSans-120"/>
      <use transform="translate(314.84375 0.015625)" xlink:href="#DejaVuSans-32"/>
      <use transform="translate(346.630859 0.015625)" xlink:href="#DejaVuSans-101"/>
      <use transform="translate(408.154297 0.015625)" xlink:href="#DejaVuSans-108"/>
      <use transform="translate(435.9375 0.015625)" xlink:href="#DejaVuSans-101"/>
      <use transform="translate(497.460938 0.015625)" xlink:href="#DejaVuSans-109"/>
      <use transform="translate(594.873047 0.015625)" xlink:href="#DejaVuSans-101"/>
      <use transform="translate(656.396484 0.015625)" xlink:href="#DejaVuSans-110"/>
      <use transform="translate(719.775391 0.015625)" xlink:href="#DejaVuSans-116"/>
      <use transform="translate(758.984375 0.015625)" xlink:href="#DejaVuSans-115"/>
      <use transform="translate(811.083984 0.015625)" xlink:href="#DejaVuSans-32"/>
      <use transform="translate(842.871094 0.015625)" xlink:href="#DejaVuSans-40"/>
      <use transform="translate(881.884766 0.015625)" xlink:href="#Cmmi10-185"/>
      <use transform="translate(942.089844 0.015625)" xlink:href="#DejaVuSans-86"/>
      <use transform="translate(1010.498047 0.015625)" xlink:href="#DejaVuSans-47"/>
      <use transform="translate(1044.189453 0.015625)" xlink:href="#DejaVuSans-101"/>
      <use transform="translate(1105.712891 0.015625)" xlink:href="#DejaVuSans-41"/>
     </g>
    </g>
   </g>
   <g id="line2d_39">
    <path clip-path="url(#p7d84979341)" d="M 34.201111 291.852333 
L 40.181472 290.19091 
L 46.161833 288.317412 
L 50.14874 287.053956 
L 50.813224 297.907482 
L 51.477709 301.041891 
L 52.142193 301.78069 
L 52.806678 302.078936 
L 54.135647 302.287203 
L 56.1291 302.273279 
L 58.787039 301.975963 
L 60.780492 301.54286 
L 62.109461 301.098414 
L 63.43843 300.441467 
L 64.767399 299.396056 
L 65.431884 298.608651 
L 66.096368 297.507003 
L 66.760853 295.865899 
L 67.425337 293.195112 
L 68.089822 288.277193 
L 68.754306 278.091187 
L 69.418791 262.543617 
L 70.083275 254.721943 
L 70.74776 252.386633 
L 71.412244 251.353048 
L 72.741214 250.108828 
L 76.063636 247.678355 
L 85.36642 240.930251 
L 94.669203 233.865489 
L 107.294409 223.96519 
L 124.571006 210.438185 
L 133.209305 203.971322 
L 139.854151 199.248216 
L 145.834511 195.241505 
L 151.814872 191.512333 
L 157.130748 188.465144 
L 161.78214 186.028799 
L 166.433532 183.825625 
L 171.084923 181.871848 
L 175.736315 180.18205 
L 179.723222 178.953479 
L 183.710129 177.935134 
L 187.697036 177.132753 
L 191.683943 176.550883 
L 195.670851 176.192833 
L 199.657758 176.060648 
L 203.644665 176.155081 
L 207.631572 176.475594 
L 211.618479 177.020357 
L 215.605386 177.786269 
L 219.592293 178.768987 
L 223.579201 179.962967 
L 227.566108 181.361519 
L 232.217499 183.241284 
L 236.868891 185.374789 
L 241.520283 187.746257 
L 246.836159 190.725668 
L 252.152035 193.965452 
L 258.132396 197.884533 
L 264.777241 202.527909 
L 272.086571 207.914765 
L 281.389354 215.065388 
L 315.278065 241.423515 
L 323.916364 247.678355 
L 327.238786 250.108828 
L 328.567756 251.353048 
L 329.23224 252.386633 
L 329.896725 254.721943 
L 330.561209 262.543617 
L 331.225694 278.091187 
L 331.890178 288.277193 
L 332.554663 293.195112 
L 333.219147 295.865899 
L 333.883632 297.507003 
L 334.548116 298.608651 
L 335.212601 299.396056 
L 336.54157 300.441467 
L 337.870539 301.098414 
L 339.863992 301.712518 
L 341.857446 302.076648 
L 344.515384 302.30272 
L 346.508838 302.220742 
L 347.173322 302.078936 
L 347.837807 301.78069 
L 348.502291 301.041891 
L 349.166776 297.907482 
L 349.83126 287.053956 
L 350.495745 287.085662 
L 353.153683 288.092058 
L 358.469559 289.79358 
L 361 290.541403 
L 361 290.541403 
" style="fill:none;stroke:#104e8b;stroke-linecap:square;stroke-width:1.2;"/>
   </g>
   <g id="line2d_40">
    <path clip-path="url(#p7d84979341)" d="M 34.201111 306.136221 
L 56.1291 306.136221 
L 56.793585 284.79219 
L 66.096368 281.191472 
L 74.734667 277.58638 
L 84.03745 273.439513 
L 94.004718 268.748306 
L 107.958893 261.908652 
L 127.893429 252.133768 
L 137.196212 247.823076 
L 145.170027 244.373542 
L 151.814872 241.725501 
L 158.459717 239.324963 
L 164.440078 237.406172 
L 169.755954 235.913152 
L 175.07183 234.635985 
L 180.387707 233.587776 
L 185.703583 232.779402 
L 191.019459 232.219333 
L 195.670851 231.937667 
L 200.322242 231.852955 
L 204.973634 231.965883 
L 209.625026 232.275535 
L 214.940902 232.867019 
L 220.256778 233.705886 
L 225.572654 234.783358 
L 230.88853 236.088266 
L 236.204407 237.607244 
L 242.184767 239.55282 
L 248.165128 241.725501 
L 254.809973 244.373542 
L 262.119303 247.525836 
L 270.757602 251.503026 
L 282.053839 256.972733 
L 311.955642 271.589826 
L 321.92291 276.134741 
L 330.561209 279.834871 
L 339.199508 283.282389 
L 343.186415 284.79219 
L 343.8509 306.136221 
L 361 306.136221 
L 361 306.136221 
" style="fill:none;stroke:#ed2200;stroke-linecap:square;stroke-width:1.2;"/>
   </g>
   <g id="line2d_41">
    <path clip-path="url(#p7d84979341)" d="M 34.201111 303.617114 
L 46.161833 303.804884 
L 47.490802 303.974584 
L 48.155286 304.150013 
L 48.819771 304.485325 
L 49.484255 305.298759 
L 50.14874 303.275799 
L 50.813224 288.430679 
L 51.477709 287.048839 
L 52.806678 286.322102 
L 56.1291 285.040822 
L 56.793585 306.136221 
L 343.186415 306.136221 
L 343.8509 285.040822 
L 347.837807 286.62737 
L 348.502291 287.048839 
L 349.166776 288.430679 
L 349.83126 303.275799 
L 350.495745 305.298759 
L 351.160229 304.485325 
L 351.824714 304.150013 
L 353.153683 303.870857 
L 355.811621 303.709054 
L 361 303.649982 
L 361 303.649982 
" style="fill:none;stroke:#9acd32;stroke-linecap:square;stroke-width:1.2;"/>
   </g>
   <g id="line2d_42">
    <path clip-path="url(#p7d84979341)" d="M 34.201111 292.277637 
L 40.845956 290.371781 
L 46.161833 288.623219 
L 47.490802 288.083633 
L 48.155286 290.981757 
L 48.819771 300.237745 
L 49.484255 301.59517 
L 50.14874 302.035711 
L 51.477709 302.318446 
L 52.806678 302.338797 
L 53.471162 302.268417 
L 54.135647 303.469415 
L 54.800131 302.355473 
L 58.122554 301.737299 
L 60.116008 301.079259 
L 61.444977 300.368526 
L 62.109461 299.867949 
L 62.773946 299.212104 
L 63.43843 298.31823 
L 64.102915 297.033405 
L 64.767399 295.045085 
L 65.431884 291.628097 
L 66.096368 284.896721 
L 67.425337 258.730359 
L 68.089822 254.519385 
L 68.754306 253.069049 
L 69.418791 252.274621 
L 70.74776 251.159978 
L 74.734667 248.348651 
L 83.372966 242.213295 
L 92.675749 235.316256 
L 107.294409 224.14592 
L 121.248584 213.557164 
L 129.886883 207.279874 
L 136.531728 202.699762 
L 142.512089 198.819002 
L 148.492449 195.212641 
L 153.808326 192.271548 
L 158.459717 189.925351 
L 163.111109 187.809538 
L 167.762501 185.940059 
L 172.413892 184.331212 
L 176.400799 183.169143 
L 180.387707 182.214437 
L 184.374614 181.472642 
L 188.361521 180.948108 
L 192.348428 180.643946 
L 196.335335 180.562002 
L 200.322242 180.70283 
L 204.309149 181.065692 
L 208.296057 181.648565 
L 212.282964 182.448156 
L 216.269871 183.459938 
L 220.256778 184.678192 
L 224.90817 186.351239 
L 229.559561 188.283218 
L 234.210953 190.459589 
L 238.862345 192.864169 
L 244.178221 195.869049 
L 249.494097 199.120737 
L 255.474458 203.036684 
L 262.119303 207.655895 
L 270.093117 213.486681 
L 280.72487 221.572842 
L 305.310797 240.393555 
L 313.949096 246.676948 
L 324.580848 254.298335 
L 325.245333 255.107596 
L 325.909817 256.634919 
L 326.574302 261.221967 
L 327.903271 286.47797 
L 328.567756 292.521227 
L 329.23224 295.633406 
L 329.896725 297.46712 
L 330.561209 298.662801 
L 331.225694 299.500352 
L 332.554663 300.592315 
L 333.883632 301.270293 
L 335.877085 301.909854 
L 339.199508 302.729104 
L 339.863992 301.025287 
L 340.528477 302.266723 
L 341.857446 302.436975 
L 343.186415 302.372782 
L 343.8509 302.228591 
L 344.515384 301.896524 
L 345.179869 300.942493 
L 346.508838 290.108681 
L 349.166776 291.142141 
L 354.482652 292.830118 
L 361 294.663641 
L 361 294.663641 
" style="fill:none;stroke:#104e8b;stroke-dasharray:1.2,1.98;stroke-dashoffset:0;stroke-width:1.2;"/>
   </g>
   <g id="line2d_43">
    <path clip-path="url(#p7d84979341)" d="M 34.201111 305.75117 
L 45.497348 305.91962 
L 46.826317 306.110598 
L 47.490802 305.799889 
L 48.155286 303.792484 
L 48.819771 304.982491 
L 49.484255 305.333531 
L 50.813224 305.524951 
L 53.471162 305.755233 
L 54.135647 286.282739 
L 54.800131 285.873467 
L 65.431884 281.821713 
L 74.070183 278.26295 
L 83.372966 274.183874 
L 94.004718 269.276803 
L 111.9458 260.700618 
L 125.899976 254.135624 
L 135.202759 250.004632 
L 142.512089 246.982094 
L 149.156934 244.453885 
L 155.801779 242.174359 
L 161.78214 240.364926 
L 167.098016 238.968998 
L 172.413892 237.788357 
L 177.729768 236.835627 
L 183.045645 236.121172 
L 188.361521 235.652914 
L 193.677397 235.436186 
L 198.328789 235.455031 
L 203.644665 235.714909 
L 208.960541 236.226557 
L 214.276417 236.984799 
L 219.592293 237.981857 
L 224.90817 239.20749 
L 230.224046 240.649177 
L 236.204407 242.511096 
L 242.184767 244.60448 
L 248.829613 247.170412 
L 256.138942 250.240536 
L 264.777241 254.132448 
L 275.408994 259.188297 
L 309.962189 275.829537 
L 319.264972 279.964604 
L 327.903271 283.567914 
L 336.54157 286.921195 
L 339.199508 287.92374 
L 339.863992 305.443509 
L 340.528477 305.444066 
L 341.857446 305.256394 
L 343.8509 305.039241 
L 344.515384 304.857864 
L 345.179869 304.396341 
L 345.844353 302.363123 
L 346.508838 305.371021 
L 347.173322 306.13555 
L 347.837807 305.893964 
L 349.166776 305.706458 
L 352.489198 305.56569 
L 361 305.44666 
L 361 305.44666 
" style="fill:none;stroke:#ed2200;stroke-dasharray:1.2,1.98;stroke-dashoffset:0;stroke-width:1.2;"/>
   </g>
   <g id="line2d_44">
    <path clip-path="url(#p7d84979341)" d="M 34.201111 303.657144 
L 43.503894 303.784709 
L 45.497348 304.029489 
L 46.161833 304.245964 
L 46.826317 304.698821 
L 47.490802 306.045175 
L 48.155286 295.922052 
L 48.819771 288.601568 
L 49.484255 287.967677 
L 50.813224 287.34843 
L 53.471162 286.348906 
L 54.135647 303.456272 
L 54.800131 305.394502 
L 56.1291 305.491073 
L 60.116008 305.418433 
L 62.773946 305.199726 
L 64.102915 304.93151 
L 64.767399 304.683594 
L 65.431884 304.255072 
L 66.096368 303.408008 
L 67.425337 300.120591 
L 68.089822 299.599551 
L 69.418791 299.330576 
L 74.734667 298.874095 
L 92.675749 297.301078 
L 115.932708 295.011041 
L 150.485903 291.610186 
L 165.769047 290.337503 
L 179.058737 289.445604 
L 191.019459 288.855897 
L 202.315696 288.508718 
L 213.611933 288.378616 
L 224.90817 288.469007 
L 236.868891 288.797841 
L 248.829613 289.347768 
L 262.119303 290.182357 
L 278.066932 291.423173 
L 300.659405 293.433365 
L 325.245333 295.764192 
L 325.909817 296.038294 
L 326.574302 296.933179 
L 327.903271 302.038557 
L 328.567756 303.264793 
L 329.23224 303.893497 
L 329.896725 304.261126 
L 331.225694 304.661949 
L 333.219147 304.936541 
L 336.54157 305.09239 
L 338.535023 305.031829 
L 339.199508 304.839805 
L 339.863992 288.134407 
L 343.8509 289.654307 
L 344.515384 289.97597 
L 345.179869 290.497835 
L 345.844353 294.247943 
L 346.508838 305.978675 
L 347.173322 304.724906 
L 347.837807 304.252207 
L 349.166776 303.919403 
L 351.160229 303.774821 
L 356.476106 303.71294 
L 361 303.696497 
L 361 303.696497 
" style="fill:none;stroke:#9acd32;stroke-dasharray:1.2,1.98;stroke-dashoffset:0;stroke-width:1.2;"/>
   </g>
   <g id="patch_8">
    <path d="M 50.78 312.64 
L 50.78 169.556869 
" style="fill:none;stroke:#2b2b2b;stroke-linecap:square;stroke-linejoin:miter;stroke-width:0.8;"/>
   </g>
   <g id="patch_9">
    <path d="M 349.2 312.64 
L 349.2 169.556869 
" style="fill:none;stroke:#2b2b2b;stroke-linecap:square;stroke-linejoin:miter;stroke-width:0.8;"/>
   </g>
   <g id="patch_10">
    <path d="M 50.78 312.64 
L 349.2 312.64 
" style="fill:none;stroke:#2b2b2b;stroke-linecap:square;stroke-linejoin:miter;stroke-width:0.8;"/>
   </g>
   <g id="patch_11">
    <path d="M 50.78 169.556869 
L 349.2 169.556869 
" style="fill:none;stroke:#2b2b2b;stroke-linecap:square;stroke-linejoin:miter;stroke-width:0.8;"/>
   </g>
  </g>
 </g>
 <defs>
  <clipPath id="pa8488db4e4">
   <rect height="143.083131" width="298.42" x="50.78" y="10.8"/>
  </clipPath>
  <clipPath id="p7d84979341">
   <rect height="143.083131" width="298.42" x="50.78" y="169.556869"/>
  </clipPath>
 </defs>
</svg>
