<?xml version="1.0" encoding="utf-8" standalone="no"?>
<!DOCTYPE svg PUBLIC "-//W3C//DTD SVG 1.1//EN"
  "http://www.w3.org/Graphics/SVG/1.1/DTD/svg11.dtd">
<!-- Created with matplotlib (https://matplotlib.org/) -->
<svg height="144pt" version="1.1" viewBox="0 0 288 144" width="288pt" xmlns="http://www.w3.org/2000/svg" xmlns:xlink="http://www.w3.org/1999/xlink">
 <defs>
  <style type="text/css">
*{stroke-linecap:butt;stroke-linejoin:round;}
  </style>
 </defs>
 <g id="figure_1">
  <g id="patch_1">
   <path d="M 0 144 
L 288 144 
L 288 0 
L 0 0 
z
" style="fill:none;"/>
  </g>
  <g id="axes_1">
   <g id="patch_2">
    <path d="M 67.522531 89.8 
L 277.2 89.8 
L 277.2 10.8 
L 67.522531 10.8 
z
" style="fill:none;"/>
   </g>
   <g id="PathCollection_1">
    <defs>
     <path d="M 0 0.5 
C 0.132602 0.5 0.25979 0.447317 0.353553 0.353553 
C 0.447317 0.25979 0.5 0.132602 0.5 0 
C 0.5 -0.132602 0.447317 -0.25979 0.353553 -0.353553 
C 0.25979 -0.447317 0.132602 -0.5 0 -0.5 
C -0.132602 -0.5 -0.25979 -0.447317 -0.353553 -0.353553 
C -0.447317 -0.25979 -0.5 -0.132602 -0.5 0 
C -0.5 0.132602 -0.447317 0.25979 -0.353553 0.353553 
C -0.25979 0.447317 -0.132602 0.5 0 0.5 
z
" id="m27154ccdc2" style="stroke:#56b4e9;"/>
    </defs>
    <g clip-path="url(#pb38a23cb05)">
     <use style="fill:#56b4e9;stroke:#56b4e9;" x="77.053325" xlink:href="#m27154ccdc2" y="48.823753"/>
     <use style="fill:#56b4e9;stroke:#56b4e9;" x="78.215617" xlink:href="#m27154ccdc2" y="34.3815"/>
     <use style="fill:#56b4e9;stroke:#56b4e9;" x="79.377909" xlink:href="#m27154ccdc2" y="35.308433"/>
     <use style="fill:#56b4e9;stroke:#56b4e9;" x="80.540201" xlink:href="#m27154ccdc2" y="38.985093"/>
     <use style="fill:#56b4e9;stroke:#56b4e9;" x="81.702493" xlink:href="#m27154ccdc2" y="29.280733"/>
     <use style="fill:#56b4e9;stroke:#56b4e9;" x="82.864785" xlink:href="#m27154ccdc2" y="37.652627"/>
     <use style="fill:#56b4e9;stroke:#56b4e9;" x="84.027077" xlink:href="#m27154ccdc2" y="36.740967"/>
     <use style="fill:#56b4e9;stroke:#56b4e9;" x="85.189369" xlink:href="#m27154ccdc2" y="49.836533"/>
     <use style="fill:#56b4e9;stroke:#56b4e9;" x="86.351661" xlink:href="#m27154ccdc2" y="33.486167"/>
     <use style="fill:#56b4e9;stroke:#56b4e9;" x="88.676245" xlink:href="#m27154ccdc2" y="39.864627"/>
     <use style="fill:#56b4e9;stroke:#56b4e9;" x="89.838537" xlink:href="#m27154ccdc2" y="42.80369"/>
     <use style="fill:#56b4e9;stroke:#56b4e9;" x="91.000829" xlink:href="#m27154ccdc2" y="36.066833"/>
     <use style="fill:#56b4e9;stroke:#56b4e9;" x="92.163121" xlink:href="#m27154ccdc2" y="30.507867"/>
     <use style="fill:#56b4e9;stroke:#56b4e9;" x="93.325413" xlink:href="#m27154ccdc2" y="33.578333"/>
     <use style="fill:#56b4e9;stroke:#56b4e9;" x="95.649997" xlink:href="#m27154ccdc2" y="38.05816"/>
     <use style="fill:#56b4e9;stroke:#56b4e9;" x="97.97458" xlink:href="#m27154ccdc2" y="28.395933"/>
     <use style="fill:#56b4e9;stroke:#56b4e9;" x="99.136872" xlink:href="#m27154ccdc2" y="41.297687"/>
     <use style="fill:#56b4e9;stroke:#56b4e9;" x="100.299164" xlink:href="#m27154ccdc2" y="28.253733"/>
     <use style="fill:#56b4e9;stroke:#56b4e9;" x="101.461456" xlink:href="#m27154ccdc2" y="42.42054"/>
     <use style="fill:#56b4e9;stroke:#56b4e9;" x="103.78604" xlink:href="#m27154ccdc2" y="34.9977"/>
     <use style="fill:#56b4e9;stroke:#56b4e9;" x="104.948332" xlink:href="#m27154ccdc2" y="33.2992"/>
     <use style="fill:#56b4e9;stroke:#56b4e9;" x="106.110624" xlink:href="#m27154ccdc2" y="35.814033"/>
     <use style="fill:#56b4e9;stroke:#56b4e9;" x="107.272916" xlink:href="#m27154ccdc2" y="35.205733"/>
     <use style="fill:#56b4e9;stroke:#56b4e9;" x="108.435208" xlink:href="#m27154ccdc2" y="57.10664"/>
     <use style="fill:#56b4e9;stroke:#56b4e9;" x="110.759792" xlink:href="#m27154ccdc2" y="31.3005"/>
     <use style="fill:#56b4e9;stroke:#56b4e9;" x="111.922084" xlink:href="#m27154ccdc2" y="38.263297"/>
     <use style="fill:#56b4e9;stroke:#56b4e9;" x="113.084376" xlink:href="#m27154ccdc2" y="40.33573"/>
     <use style="fill:#56b4e9;stroke:#56b4e9;" x="114.246668" xlink:href="#m27154ccdc2" y="35.650767"/>
     <use style="fill:#56b4e9;stroke:#56b4e9;" x="115.40896" xlink:href="#m27154ccdc2" y="30.133933"/>
     <use style="fill:#56b4e9;stroke:#56b4e9;" x="116.571252" xlink:href="#m27154ccdc2" y="40.669373"/>
     <use style="fill:#56b4e9;stroke:#56b4e9;" x="117.733544" xlink:href="#m27154ccdc2" y="28.696133"/>
     <use style="fill:#56b4e9;stroke:#56b4e9;" x="118.895836" xlink:href="#m27154ccdc2" y="38.004967"/>
     <use style="fill:#56b4e9;stroke:#56b4e9;" x="121.22042" xlink:href="#m27154ccdc2" y="36.535567"/>
     <use style="fill:#56b4e9;stroke:#56b4e9;" x="122.382712" xlink:href="#m27154ccdc2" y="34.526333"/>
     <use style="fill:#56b4e9;stroke:#56b4e9;" x="123.545003" xlink:href="#m27154ccdc2" y="40.20222"/>
     <use style="fill:#56b4e9;stroke:#56b4e9;" x="124.707295" xlink:href="#m27154ccdc2" y="29.731033"/>
     <use style="fill:#56b4e9;stroke:#56b4e9;" x="125.869587" xlink:href="#m27154ccdc2" y="32.127367"/>
     <use style="fill:#56b4e9;stroke:#56b4e9;" x="128.194171" xlink:href="#m27154ccdc2" y="31.6481"/>
     <use style="fill:#56b4e9;stroke:#56b4e9;" x="129.356463" xlink:href="#m27154ccdc2" y="45.77172"/>
     <use style="fill:#56b4e9;stroke:#56b4e9;" x="130.518755" xlink:href="#m27154ccdc2" y="33.9628"/>
     <use style="fill:#56b4e9;stroke:#56b4e9;" x="131.681047" xlink:href="#m27154ccdc2" y="41.338767"/>
     <use style="fill:#56b4e9;stroke:#56b4e9;" x="134.005631" xlink:href="#m27154ccdc2" y="37.876987"/>
     <use style="fill:#56b4e9;stroke:#56b4e9;" x="135.167923" xlink:href="#m27154ccdc2" y="37.817473"/>
     <use style="fill:#56b4e9;stroke:#56b4e9;" x="136.330215" xlink:href="#m27154ccdc2" y="29.338667"/>
     <use style="fill:#56b4e9;stroke:#56b4e9;" x="137.492507" xlink:href="#m27154ccdc2" y="31.160933"/>
     <use style="fill:#56b4e9;stroke:#56b4e9;" x="139.817091" xlink:href="#m27154ccdc2" y="36.430233"/>
     <use style="fill:#56b4e9;stroke:#56b4e9;" x="140.979383" xlink:href="#m27154ccdc2" y="41.139423"/>
     <use style="fill:#56b4e9;stroke:#56b4e9;" x="142.141675" xlink:href="#m27154ccdc2" y="36.5382"/>
     <use style="fill:#56b4e9;stroke:#56b4e9;" x="144.466259" xlink:href="#m27154ccdc2" y="36.943733"/>
     <use style="fill:#56b4e9;stroke:#56b4e9;" x="146.790843" xlink:href="#m27154ccdc2" y="32.380167"/>
     <use style="fill:#56b4e9;stroke:#56b4e9;" x="147.953135" xlink:href="#m27154ccdc2" y="35.916733"/>
     <use style="fill:#56b4e9;stroke:#56b4e9;" x="149.115427" xlink:href="#m27154ccdc2" y="34.502633"/>
     <use style="fill:#56b4e9;stroke:#56b4e9;" x="150.277718" xlink:href="#m27154ccdc2" y="37.64499"/>
     <use style="fill:#56b4e9;stroke:#56b4e9;" x="151.44001" xlink:href="#m27154ccdc2" y="45.43518"/>
     <use style="fill:#56b4e9;stroke:#56b4e9;" x="152.602302" xlink:href="#m27154ccdc2" y="46.720773"/>
     <use style="fill:#56b4e9;stroke:#56b4e9;" x="153.764594" xlink:href="#m27154ccdc2" y="42.08795"/>
     <use style="fill:#56b4e9;stroke:#56b4e9;" x="154.926886" xlink:href="#m27154ccdc2" y="36.274867"/>
     <use style="fill:#56b4e9;stroke:#56b4e9;" x="156.089178" xlink:href="#m27154ccdc2" y="36.453933"/>
     <use style="fill:#56b4e9;stroke:#56b4e9;" x="157.25147" xlink:href="#m27154ccdc2" y="44.783167"/>
     <use style="fill:#56b4e9;stroke:#56b4e9;" x="158.413762" xlink:href="#m27154ccdc2" y="37.214703"/>
     <use style="fill:#56b4e9;stroke:#56b4e9;" x="159.576054" xlink:href="#m27154ccdc2" y="49.010983"/>
     <use style="fill:#56b4e9;stroke:#56b4e9;" x="160.738346" xlink:href="#m27154ccdc2" y="51.72279"/>
     <use style="fill:#56b4e9;stroke:#56b4e9;" x="161.900638" xlink:href="#m27154ccdc2" y="59.084537"/>
     <use style="fill:#56b4e9;stroke:#56b4e9;" x="163.06293" xlink:href="#m27154ccdc2" y="63.243097"/>
     <use style="fill:#56b4e9;stroke:#56b4e9;" x="164.225222" xlink:href="#m27154ccdc2" y="61.646243"/>
     <use style="fill:#56b4e9;stroke:#56b4e9;" x="165.387514" xlink:href="#m27154ccdc2" y="70.187197"/>
     <use style="fill:#56b4e9;stroke:#56b4e9;" x="166.549806" xlink:href="#m27154ccdc2" y="65.292883"/>
     <use style="fill:#56b4e9;stroke:#56b4e9;" x="167.712098" xlink:href="#m27154ccdc2" y="77.334327"/>
     <use style="fill:#56b4e9;stroke:#56b4e9;" x="168.87439" xlink:href="#m27154ccdc2" y="80.89354"/>
     <use style="fill:#56b4e9;stroke:#56b4e9;" x="170.036682" xlink:href="#m27154ccdc2" y="80.766613"/>
     <use style="fill:#56b4e9;stroke:#56b4e9;" x="171.198974" xlink:href="#m27154ccdc2" y="66.914753"/>
     <use style="fill:#56b4e9;stroke:#56b4e9;" x="172.361266" xlink:href="#m27154ccdc2" y="63.759493"/>
     <use style="fill:#56b4e9;stroke:#56b4e9;" x="173.523558" xlink:href="#m27154ccdc2" y="62.956063"/>
     <use style="fill:#56b4e9;stroke:#56b4e9;" x="174.68585" xlink:href="#m27154ccdc2" y="55.48714"/>
     <use style="fill:#56b4e9;stroke:#56b4e9;" x="175.848141" xlink:href="#m27154ccdc2" y="60.952623"/>
     <use style="fill:#56b4e9;stroke:#56b4e9;" x="177.010433" xlink:href="#m27154ccdc2" y="47.056523"/>
     <use style="fill:#56b4e9;stroke:#56b4e9;" x="178.172725" xlink:href="#m27154ccdc2" y="47.54764"/>
     <use style="fill:#56b4e9;stroke:#56b4e9;" x="179.335017" xlink:href="#m27154ccdc2" y="43.64662"/>
     <use style="fill:#56b4e9;stroke:#56b4e9;" x="180.497309" xlink:href="#m27154ccdc2" y="46.4764"/>
     <use style="fill:#56b4e9;stroke:#56b4e9;" x="181.659601" xlink:href="#m27154ccdc2" y="45.633997"/>
     <use style="fill:#56b4e9;stroke:#56b4e9;" x="182.821893" xlink:href="#m27154ccdc2" y="45.78357"/>
     <use style="fill:#56b4e9;stroke:#56b4e9;" x="183.984185" xlink:href="#m27154ccdc2" y="45.82623"/>
     <use style="fill:#56b4e9;stroke:#56b4e9;" x="185.146477" xlink:href="#m27154ccdc2" y="31.7587"/>
     <use style="fill:#56b4e9;stroke:#56b4e9;" x="186.308769" xlink:href="#m27154ccdc2" y="47.62901"/>
     <use style="fill:#56b4e9;stroke:#56b4e9;" x="187.471061" xlink:href="#m27154ccdc2" y="28.135233"/>
     <use style="fill:#56b4e9;stroke:#56b4e9;" x="188.633353" xlink:href="#m27154ccdc2" y="44.516147"/>
     <use style="fill:#56b4e9;stroke:#56b4e9;" x="189.795645" xlink:href="#m27154ccdc2" y="35.579667"/>
     <use style="fill:#56b4e9;stroke:#56b4e9;" x="190.957937" xlink:href="#m27154ccdc2" y="35.160967"/>
     <use style="fill:#56b4e9;stroke:#56b4e9;" x="192.120229" xlink:href="#m27154ccdc2" y="51.59639"/>
     <use style="fill:#56b4e9;stroke:#56b4e9;" x="193.282521" xlink:href="#m27154ccdc2" y="43.437797"/>
     <use style="fill:#56b4e9;stroke:#56b4e9;" x="194.444813" xlink:href="#m27154ccdc2" y="48.721317"/>
     <use style="fill:#56b4e9;stroke:#56b4e9;" x="195.607105" xlink:href="#m27154ccdc2" y="40.621447"/>
     <use style="fill:#56b4e9;stroke:#56b4e9;" x="196.769397" xlink:href="#m27154ccdc2" y="36.177433"/>
     <use style="fill:#56b4e9;stroke:#56b4e9;" x="199.093981" xlink:href="#m27154ccdc2" y="37.511743"/>
     <use style="fill:#56b4e9;stroke:#56b4e9;" x="200.256273" xlink:href="#m27154ccdc2" y="38.9872"/>
     <use style="fill:#56b4e9;stroke:#56b4e9;" x="201.418565" xlink:href="#m27154ccdc2" y="41.9181"/>
     <use style="fill:#56b4e9;stroke:#56b4e9;" x="202.580856" xlink:href="#m27154ccdc2" y="37.17257"/>
     <use style="fill:#56b4e9;stroke:#56b4e9;" x="203.743148" xlink:href="#m27154ccdc2" y="33.789"/>
     <use style="fill:#56b4e9;stroke:#56b4e9;" x="204.90544" xlink:href="#m27154ccdc2" y="35.848267"/>
     <use style="fill:#56b4e9;stroke:#56b4e9;" x="206.067732" xlink:href="#m27154ccdc2" y="36.556633"/>
     <use style="fill:#56b4e9;stroke:#56b4e9;" x="207.230024" xlink:href="#m27154ccdc2" y="42.39684"/>
     <use style="fill:#56b4e9;stroke:#56b4e9;" x="208.392316" xlink:href="#m27154ccdc2" y="44.33629"/>
     <use style="fill:#56b4e9;stroke:#56b4e9;" x="209.554608" xlink:href="#m27154ccdc2" y="49.944237"/>
     <use style="fill:#56b4e9;stroke:#56b4e9;" x="211.879192" xlink:href="#m27154ccdc2" y="39.063567"/>
     <use style="fill:#56b4e9;stroke:#56b4e9;" x="213.041484" xlink:href="#m27154ccdc2" y="49.607697"/>
     <use style="fill:#56b4e9;stroke:#56b4e9;" x="214.203776" xlink:href="#m27154ccdc2" y="35.1399"/>
     <use style="fill:#56b4e9;stroke:#56b4e9;" x="215.366068" xlink:href="#m27154ccdc2" y="43.92233"/>
     <use style="fill:#56b4e9;stroke:#56b4e9;" x="216.52836" xlink:href="#m27154ccdc2" y="30.231367"/>
     <use style="fill:#56b4e9;stroke:#56b4e9;" x="217.690652" xlink:href="#m27154ccdc2" y="43.28401"/>
     <use style="fill:#56b4e9;stroke:#56b4e9;" x="218.852944" xlink:href="#m27154ccdc2" y="30.476267"/>
     <use style="fill:#56b4e9;stroke:#56b4e9;" x="220.015236" xlink:href="#m27154ccdc2" y="37.833537"/>
     <use style="fill:#56b4e9;stroke:#56b4e9;" x="221.177528" xlink:href="#m27154ccdc2" y="29.0569"/>
     <use style="fill:#56b4e9;stroke:#56b4e9;" x="222.33982" xlink:href="#m27154ccdc2" y="28.759333"/>
     <use style="fill:#56b4e9;stroke:#56b4e9;" x="223.502112" xlink:href="#m27154ccdc2" y="29.0885"/>
     <use style="fill:#56b4e9;stroke:#56b4e9;" x="225.826696" xlink:href="#m27154ccdc2" y="32.6672"/>
     <use style="fill:#56b4e9;stroke:#56b4e9;" x="226.988988" xlink:href="#m27154ccdc2" y="44.448733"/>
     <use style="fill:#56b4e9;stroke:#56b4e9;" x="228.151279" xlink:href="#m27154ccdc2" y="42.295193"/>
     <use style="fill:#56b4e9;stroke:#56b4e9;" x="230.475863" xlink:href="#m27154ccdc2" y="45.721423"/>
     <use style="fill:#56b4e9;stroke:#56b4e9;" x="231.638155" xlink:href="#m27154ccdc2" y="36.224833"/>
     <use style="fill:#56b4e9;stroke:#56b4e9;" x="232.800447" xlink:href="#m27154ccdc2" y="34.6264"/>
     <use style="fill:#56b4e9;stroke:#56b4e9;" x="233.962739" xlink:href="#m27154ccdc2" y="38.206417"/>
     <use style="fill:#56b4e9;stroke:#56b4e9;" x="235.125031" xlink:href="#m27154ccdc2" y="33.7337"/>
     <use style="fill:#56b4e9;stroke:#56b4e9;" x="236.287323" xlink:href="#m27154ccdc2" y="32.796233"/>
     <use style="fill:#56b4e9;stroke:#56b4e9;" x="238.611907" xlink:href="#m27154ccdc2" y="44.7542"/>
     <use style="fill:#56b4e9;stroke:#56b4e9;" x="239.774199" xlink:href="#m27154ccdc2" y="32.108933"/>
     <use style="fill:#56b4e9;stroke:#56b4e9;" x="240.936491" xlink:href="#m27154ccdc2" y="41.691897"/>
     <use style="fill:#56b4e9;stroke:#56b4e9;" x="242.098783" xlink:href="#m27154ccdc2" y="29.422933"/>
     <use style="fill:#56b4e9;stroke:#56b4e9;" x="243.261075" xlink:href="#m27154ccdc2" y="33.365033"/>
     <use style="fill:#56b4e9;stroke:#56b4e9;" x="244.423367" xlink:href="#m27154ccdc2" y="39.75745"/>
     <use style="fill:#56b4e9;stroke:#56b4e9;" x="245.585659" xlink:href="#m27154ccdc2" y="40.20064"/>
     <use style="fill:#56b4e9;stroke:#56b4e9;" x="246.747951" xlink:href="#m27154ccdc2" y="42.472153"/>
     <use style="fill:#56b4e9;stroke:#56b4e9;" x="247.910243" xlink:href="#m27154ccdc2" y="38.539007"/>
     <use style="fill:#56b4e9;stroke:#56b4e9;" x="249.072535" xlink:href="#m27154ccdc2" y="34.2551"/>
     <use style="fill:#56b4e9;stroke:#56b4e9;" x="250.234827" xlink:href="#m27154ccdc2" y="32.251133"/>
     <use style="fill:#56b4e9;stroke:#56b4e9;" x="251.397119" xlink:href="#m27154ccdc2" y="41.295053"/>
     <use style="fill:#56b4e9;stroke:#56b4e9;" x="252.559411" xlink:href="#m27154ccdc2" y="33.7574"/>
     <use style="fill:#56b4e9;stroke:#56b4e9;" x="253.721703" xlink:href="#m27154ccdc2" y="42.987233"/>
     <use style="fill:#56b4e9;stroke:#56b4e9;" x="254.883994" xlink:href="#m27154ccdc2" y="28.856767"/>
     <use style="fill:#56b4e9;stroke:#56b4e9;" x="256.046286" xlink:href="#m27154ccdc2" y="39.271863"/>
     <use style="fill:#56b4e9;stroke:#56b4e9;" x="257.208578" xlink:href="#m27154ccdc2" y="44.249127"/>
     <use style="fill:#56b4e9;stroke:#56b4e9;" x="258.37087" xlink:href="#m27154ccdc2" y="29.1754"/>
     <use style="fill:#56b4e9;stroke:#56b4e9;" x="259.533162" xlink:href="#m27154ccdc2" y="32.353833"/>
     <use style="fill:#56b4e9;stroke:#56b4e9;" x="260.695454" xlink:href="#m27154ccdc2" y="42.16932"/>
     <use style="fill:#56b4e9;stroke:#56b4e9;" x="261.857746" xlink:href="#m27154ccdc2" y="37.301867"/>
     <use style="fill:#56b4e9;stroke:#56b4e9;" x="263.020038" xlink:href="#m27154ccdc2" y="40.815523"/>
     <use style="fill:#56b4e9;stroke:#56b4e9;" x="264.18233" xlink:href="#m27154ccdc2" y="38.809977"/>
     <use style="fill:#56b4e9;stroke:#56b4e9;" x="266.506914" xlink:href="#m27154ccdc2" y="32.819933"/>
     <use style="fill:#56b4e9;stroke:#56b4e9;" x="267.669206" xlink:href="#m27154ccdc2" y="42.634893"/>
    </g>
   </g>
   <g id="matplotlib.axis_1">
    <g id="xtick_1">
     <g id="line2d_1">
      <path clip-path="url(#pb38a23cb05)" d="M 80.540201 89.8 
L 80.540201 10.8 
" style="fill:none;stroke:#b2b2b2;stroke-dasharray:2.96,1.28;stroke-dashoffset:0;stroke-opacity:0.3;stroke-width:0.8;"/>
     </g>
     <g id="line2d_2">
      <defs>
       <path d="M 0 0 
L 0 3.5 
" id="m4339e7c114" style="stroke:#2b2b2b;stroke-width:0.8;"/>
      </defs>
      <g>
       <use style="fill:#2b2b2b;stroke:#2b2b2b;stroke-width:0.8;" x="80.540201" xlink:href="#m4339e7c114" y="89.8"/>
      </g>
     </g>
     <g id="text_1">
      <!-- 10.00 -->
      <defs>
       <path d="M 12.40625 8.296875 
L 28.515625 8.296875 
L 28.515625 63.921875 
L 10.984375 60.40625 
L 10.984375 69.390625 
L 28.421875 72.90625 
L 38.28125 72.90625 
L 38.28125 8.296875 
L 54.390625 8.296875 
L 54.390625 0 
L 12.40625 0 
z
" id="DejaVuSans-49"/>
       <path d="M 31.78125 66.40625 
Q 24.171875 66.40625 20.328125 58.90625 
Q 16.5 51.421875 16.5 36.375 
Q 16.5 21.390625 20.328125 13.890625 
Q 24.171875 6.390625 31.78125 6.390625 
Q 39.453125 6.390625 43.28125 13.890625 
Q 47.125 21.390625 47.125 36.375 
Q 47.125 51.421875 43.28125 58.90625 
Q 39.453125 66.40625 31.78125 66.40625 
z
M 31.78125 74.21875 
Q 44.046875 74.21875 50.515625 64.515625 
Q 56.984375 54.828125 56.984375 36.375 
Q 56.984375 17.96875 50.515625 8.265625 
Q 44.046875 -1.421875 31.78125 -1.421875 
Q 19.53125 -1.421875 13.0625 8.265625 
Q 6.59375 17.96875 6.59375 36.375 
Q 6.59375 54.828125 13.0625 64.515625 
Q 19.53125 74.21875 31.78125 74.21875 
z
" id="DejaVuSans-48"/>
       <path d="M 10.6875 12.40625 
L 21 12.40625 
L 21 0 
L 10.6875 0 
z
" id="DejaVuSans-46"/>
      </defs>
      <g style="fill:#2b2b2b;" transform="translate(59.069107 108.197656)scale(0.15 -0.15)">
       <use xlink:href="#DejaVuSans-49"/>
       <use x="63.623047" xlink:href="#DejaVuSans-48"/>
       <use x="127.246094" xlink:href="#DejaVuSans-46"/>
       <use x="159.033203" xlink:href="#DejaVuSans-48"/>
       <use x="222.65625" xlink:href="#DejaVuSans-48"/>
      </g>
     </g>
    </g>
    <g id="xtick_2">
     <g id="line2d_3">
      <path clip-path="url(#pb38a23cb05)" d="M 158.026332 89.8 
L 158.026332 10.8 
" style="fill:none;stroke:#b2b2b2;stroke-dasharray:2.96,1.28;stroke-dashoffset:0;stroke-opacity:0.3;stroke-width:0.8;"/>
     </g>
     <g id="line2d_4">
      <g>
       <use style="fill:#2b2b2b;stroke:#2b2b2b;stroke-width:0.8;" x="158.026332" xlink:href="#m4339e7c114" y="89.8"/>
      </g>
     </g>
     <g id="text_2">
      <!-- 10.04 -->
      <defs>
       <path d="M 37.796875 64.3125 
L 12.890625 25.390625 
L 37.796875 25.390625 
z
M 35.203125 72.90625 
L 47.609375 72.90625 
L 47.609375 25.390625 
L 58.015625 25.390625 
L 58.015625 17.1875 
L 47.609375 17.1875 
L 47.609375 0 
L 37.796875 0 
L 37.796875 17.1875 
L 4.890625 17.1875 
L 4.890625 26.703125 
z
" id="DejaVuSans-52"/>
      </defs>
      <g style="fill:#2b2b2b;" transform="translate(136.555238 108.197656)scale(0.15 -0.15)">
       <use xlink:href="#DejaVuSans-49"/>
       <use x="63.623047" xlink:href="#DejaVuSans-48"/>
       <use x="127.246094" xlink:href="#DejaVuSans-46"/>
       <use x="159.033203" xlink:href="#DejaVuSans-48"/>
       <use x="222.65625" xlink:href="#DejaVuSans-52"/>
      </g>
     </g>
    </g>
    <g id="xtick_3">
     <g id="line2d_5">
      <path clip-path="url(#pb38a23cb05)" d="M 235.512462 89.8 
L 235.512462 10.8 
" style="fill:none;stroke:#b2b2b2;stroke-dasharray:2.96,1.28;stroke-dashoffset:0;stroke-opacity:0.3;stroke-width:0.8;"/>
     </g>
     <g id="line2d_6">
      <g>
       <use style="fill:#2b2b2b;stroke:#2b2b2b;stroke-width:0.8;" x="235.512462" xlink:href="#m4339e7c114" y="89.8"/>
      </g>
     </g>
     <g id="text_3">
      <!-- 10.08 -->
      <defs>
       <path d="M 31.78125 34.625 
Q 24.75 34.625 20.71875 30.859375 
Q 16.703125 27.09375 16.703125 20.515625 
Q 16.703125 13.921875 20.71875 10.15625 
Q 24.75 6.390625 31.78125 6.390625 
Q 38.8125 6.390625 42.859375 10.171875 
Q 46.921875 13.96875 46.921875 20.515625 
Q 46.921875 27.09375 42.890625 30.859375 
Q 38.875 34.625 31.78125 34.625 
z
M 21.921875 38.8125 
Q 15.578125 40.375 12.03125 44.71875 
Q 8.5 49.078125 8.5 55.328125 
Q 8.5 64.0625 14.71875 69.140625 
Q 20.953125 74.21875 31.78125 74.21875 
Q 42.671875 74.21875 48.875 69.140625 
Q 55.078125 64.0625 55.078125 55.328125 
Q 55.078125 49.078125 51.53125 44.71875 
Q 48 40.375 41.703125 38.8125 
Q 48.828125 37.15625 52.796875 32.3125 
Q 56.78125 27.484375 56.78125 20.515625 
Q 56.78125 9.90625 50.3125 4.234375 
Q 43.84375 -1.421875 31.78125 -1.421875 
Q 19.734375 -1.421875 13.25 4.234375 
Q 6.78125 9.90625 6.78125 20.515625 
Q 6.78125 27.484375 10.78125 32.3125 
Q 14.796875 37.15625 21.921875 38.8125 
z
M 18.3125 54.390625 
Q 18.3125 48.734375 21.84375 45.5625 
Q 25.390625 42.390625 31.78125 42.390625 
Q 38.140625 42.390625 41.71875 45.5625 
Q 45.3125 48.734375 45.3125 54.390625 
Q 45.3125 60.0625 41.71875 63.234375 
Q 38.140625 66.40625 31.78125 66.40625 
Q 25.390625 66.40625 21.84375 63.234375 
Q 18.3125 60.0625 18.3125 54.390625 
z
" id="DejaVuSans-56"/>
      </defs>
      <g style="fill:#2b2b2b;" transform="translate(214.041368 108.197656)scale(0.15 -0.15)">
       <use xlink:href="#DejaVuSans-49"/>
       <use x="63.623047" xlink:href="#DejaVuSans-48"/>
       <use x="127.246094" xlink:href="#DejaVuSans-46"/>
       <use x="159.033203" xlink:href="#DejaVuSans-48"/>
       <use x="222.65625" xlink:href="#DejaVuSans-56"/>
      </g>
     </g>
    </g>
    <g id="text_4">
     <!-- $\omega_{10}/ 2 \pi$ (GHz) -->
     <defs>
      <path d="M 12.109375 -1.125 
Q 6.453125 -1.125 3.9375 3.015625 
Q 1.421875 7.171875 1.421875 13.1875 
Q 1.421875 17.140625 2.125 20.921875 
Q 2.828125 24.703125 4.265625 28.578125 
Q 5.71875 32.46875 7.5625 35.859375 
Q 9.421875 39.265625 11.71875 42.484375 
Q 12.15625 43.109375 12.890625 43.109375 
Q 13.53125 43.109375 13.921875 42.71875 
Q 14.3125 42.328125 14.3125 41.796875 
Q 14.3125 41.265625 14.015625 40.828125 
Q 4.890625 28.265625 4.890625 17.671875 
Q 4.890625 13.09375 7 9.796875 
Q 9.125 6.5 13.484375 6.5 
Q 17.234375 6.5 20.4375 8.6875 
Q 23.640625 10.890625 25.984375 14.3125 
Q 25.984375 16.0625 26.59375 19.765625 
Q 27.203125 23.484375 28.484375 26.390625 
Q 29.78125 29.296875 31.59375 29.296875 
Q 33.890625 29.296875 33.890625 26.609375 
Q 33.890625 25.046875 33.21875 22.671875 
Q 32.5625 20.3125 31.75 18.265625 
Q 30.953125 16.21875 29.78125 13.625 
Q 30.953125 6.5 36.921875 6.5 
Q 40.375 6.5 43.859375 8.5 
Q 47.359375 10.5 50.046875 13.75 
Q 52.734375 17 54.265625 20.75 
Q 55.8125 24.515625 55.8125 27.875 
Q 55.8125 30.90625 54.859375 32.59375 
Q 53.90625 34.28125 52.34375 36.125 
Q 50.78125 37.984375 50.78125 39.109375 
Q 50.78125 41.0625 52.4375 42.671875 
Q 54.109375 44.28125 56 44.28125 
Q 58.453125 44.28125 59.46875 42.0625 
Q 60.5 39.84375 60.5 37.015625 
Q 60.5 32.421875 58.671875 25.4375 
Q 56.84375 18.453125 54.5 13.8125 
Q 51.265625 7.515625 46.40625 3.1875 
Q 41.546875 -1.125 35.5 -1.125 
Q 31.640625 -1.125 29.265625 1.1875 
Q 26.90625 3.515625 26.21875 7.515625 
Q 23.4375 3.5625 19.875 1.21875 
Q 16.3125 -1.125 12.109375 -1.125 
z
" id="Cmmi10-33"/>
      <path d="M 9.28125 0 
L 9.28125 3.515625 
Q 21.78125 3.515625 21.78125 6.6875 
L 21.78125 59.1875 
Q 16.609375 56.6875 8.6875 56.6875 
L 8.6875 60.203125 
Q 20.953125 60.203125 27.203125 66.609375 
L 28.609375 66.609375 
Q 28.953125 66.609375 29.265625 66.328125 
Q 29.59375 66.0625 29.59375 65.71875 
L 29.59375 6.6875 
Q 29.59375 3.515625 42.09375 3.515625 
L 42.09375 0 
z
" id="Cmr10-49"/>
      <path d="M 25 -2.203125 
Q 12.75 -2.203125 8.328125 7.875 
Q 3.90625 17.96875 3.90625 31.890625 
Q 3.90625 40.578125 5.484375 48.234375 
Q 7.078125 55.90625 11.78125 61.25 
Q 16.5 66.609375 25 66.609375 
Q 31.59375 66.609375 35.78125 63.375 
Q 39.984375 60.15625 42.1875 55.046875 
Q 44.390625 49.953125 45.1875 44.109375 
Q 46 38.28125 46 31.890625 
Q 46 23.296875 44.40625 15.796875 
Q 42.828125 8.296875 38.1875 3.046875 
Q 33.546875 -2.203125 25 -2.203125 
z
M 25 0.390625 
Q 30.5625 0.390625 33.296875 6.09375 
Q 36.03125 11.8125 36.671875 18.75 
Q 37.3125 25.6875 37.3125 33.5 
Q 37.3125 41.015625 36.671875 47.359375 
Q 36.03125 53.71875 33.3125 58.859375 
Q 30.609375 64.015625 25 64.015625 
Q 19.34375 64.015625 16.609375 58.828125 
Q 13.875 53.65625 13.234375 47.328125 
Q 12.59375 41.015625 12.59375 33.5 
Q 12.59375 27.9375 12.859375 23 
Q 13.140625 18.0625 14.3125 12.8125 
Q 15.484375 7.5625 18.09375 3.96875 
Q 20.703125 0.390625 25 0.390625 
z
" id="Cmr10-48"/>
      <path d="M 5.609375 -23 
Q 5.609375 -22.703125 5.71875 -22.609375 
L 40.484375 73.78125 
Q 40.671875 74.359375 41.15625 74.671875 
Q 41.65625 75 42.28125 75 
Q 43.171875 75 43.71875 74.453125 
Q 44.28125 73.921875 44.28125 73 
L 44.28125 72.609375 
L 9.515625 -23.78125 
Q 8.9375 -25 7.625 -25 
Q 6.78125 -25 6.1875 -24.40625 
Q 5.609375 -23.828125 5.609375 -23 
z
" id="Cmmi10-61"/>
      <path d="M 4.984375 0 
L 4.984375 2.6875 
Q 4.984375 2.9375 5.171875 3.21875 
L 20.703125 20.40625 
Q 24.21875 24.21875 26.40625 26.796875 
Q 28.609375 29.390625 30.75 32.765625 
Q 32.90625 36.140625 34.15625 39.625 
Q 35.40625 43.109375 35.40625 47.015625 
Q 35.40625 51.125 33.890625 54.859375 
Q 32.375 58.59375 29.375 60.84375 
Q 26.375 63.09375 22.125 63.09375 
Q 17.78125 63.09375 14.3125 60.46875 
Q 10.84375 57.859375 9.421875 53.71875 
Q 9.8125 53.8125 10.5 53.8125 
Q 12.75 53.8125 14.328125 52.296875 
Q 15.921875 50.78125 15.921875 48.390625 
Q 15.921875 46.09375 14.328125 44.5 
Q 12.75 42.921875 10.5 42.921875 
Q 8.15625 42.921875 6.5625 44.546875 
Q 4.984375 46.1875 4.984375 48.390625 
Q 4.984375 52.15625 6.390625 55.4375 
Q 7.8125 58.734375 10.46875 61.296875 
Q 13.140625 63.875 16.484375 65.234375 
Q 19.828125 66.609375 23.578125 66.609375 
Q 29.296875 66.609375 34.21875 64.1875 
Q 39.15625 61.765625 42.03125 57.34375 
Q 44.921875 52.9375 44.921875 47.015625 
Q 44.921875 42.671875 43.015625 38.765625 
Q 41.109375 34.859375 38.125 31.65625 
Q 35.15625 28.46875 30.515625 24.40625 
Q 25.875 20.359375 24.421875 19 
L 13.09375 8.109375 
L 22.703125 8.109375 
Q 29.78125 8.109375 34.546875 8.21875 
Q 39.3125 8.34375 39.59375 8.59375 
Q 40.765625 9.859375 42 17.828125 
L 44.921875 17.828125 
L 42.09375 0 
z
" id="Cmr10-50"/>
      <path d="M 10.109375 1.703125 
Q 10.109375 2.25 10.5 3.328125 
Q 13.28125 9.125 15.6875 14.71875 
Q 18.109375 20.3125 20.03125 25.609375 
Q 21.96875 30.90625 23.578125 36.921875 
L 17.1875 36.921875 
Q 13.53125 36.921875 10.34375 34.625 
Q 7.171875 32.328125 5.078125 28.8125 
Q 4.890625 28.421875 4.5 28.421875 
L 3.328125 28.421875 
Q 2.390625 28.421875 2.390625 29.390625 
Q 2.390625 29.59375 2.59375 29.984375 
Q 5.859375 35.546875 9.59375 39.328125 
Q 13.328125 43.109375 18.015625 43.109375 
L 54.296875 43.109375 
Q 55.328125 43.109375 56.046875 42.421875 
Q 56.78125 41.75 56.78125 40.578125 
Q 56.78125 39.109375 55.734375 38.015625 
Q 54.6875 36.921875 53.21875 36.921875 
L 40.484375 36.921875 
Q 38.875 29.046875 38.71875 21.578125 
Q 38.71875 11.96875 42.09375 4.203125 
Q 42.390625 3.609375 42.390625 2.984375 
Q 42.390625 1.90625 41.75 0.96875 
Q 41.109375 0.046875 40.109375 -0.53125 
Q 39.109375 -1.125 37.984375 -1.125 
Q 35.359375 -1.125 34.375 3.171875 
Q 33.40625 7.46875 33.40625 11.53125 
Q 33.40625 17.234375 34.375 22.53125 
Q 35.359375 27.828125 37.5 36.921875 
L 26.609375 36.921875 
Q 18.703125 4.890625 17.09375 1.609375 
Q 15.671875 -1.125 13.1875 -1.125 
Q 11.96875 -1.125 11.03125 -0.3125 
Q 10.109375 0.484375 10.109375 1.703125 
z
" id="Cmmi10-188"/>
      <path id="DejaVuSans-32"/>
      <path d="M 31 75.875 
Q 24.46875 64.65625 21.28125 53.65625 
Q 18.109375 42.671875 18.109375 31.390625 
Q 18.109375 20.125 21.3125 9.0625 
Q 24.515625 -2 31 -13.1875 
L 23.1875 -13.1875 
Q 15.875 -1.703125 12.234375 9.375 
Q 8.59375 20.453125 8.59375 31.390625 
Q 8.59375 42.28125 12.203125 53.3125 
Q 15.828125 64.359375 23.1875 75.875 
z
" id="DejaVuSans-40"/>
      <path d="M 59.515625 10.40625 
L 59.515625 29.984375 
L 43.40625 29.984375 
L 43.40625 38.09375 
L 69.28125 38.09375 
L 69.28125 6.78125 
Q 63.578125 2.734375 56.6875 0.65625 
Q 49.8125 -1.421875 42 -1.421875 
Q 24.90625 -1.421875 15.25 8.5625 
Q 5.609375 18.5625 5.609375 36.375 
Q 5.609375 54.25 15.25 64.234375 
Q 24.90625 74.21875 42 74.21875 
Q 49.125 74.21875 55.546875 72.453125 
Q 61.96875 70.703125 67.390625 67.28125 
L 67.390625 56.78125 
Q 61.921875 61.421875 55.765625 63.765625 
Q 49.609375 66.109375 42.828125 66.109375 
Q 29.4375 66.109375 22.71875 58.640625 
Q 16.015625 51.171875 16.015625 36.375 
Q 16.015625 21.625 22.71875 14.15625 
Q 29.4375 6.6875 42.828125 6.6875 
Q 48.046875 6.6875 52.140625 7.59375 
Q 56.25 8.5 59.515625 10.40625 
z
" id="DejaVuSans-71"/>
      <path d="M 9.8125 72.90625 
L 19.671875 72.90625 
L 19.671875 43.015625 
L 55.515625 43.015625 
L 55.515625 72.90625 
L 65.375 72.90625 
L 65.375 0 
L 55.515625 0 
L 55.515625 34.71875 
L 19.671875 34.71875 
L 19.671875 0 
L 9.8125 0 
z
" id="DejaVuSans-72"/>
      <path d="M 5.515625 54.6875 
L 48.1875 54.6875 
L 48.1875 46.484375 
L 14.40625 7.171875 
L 48.1875 7.171875 
L 48.1875 0 
L 4.296875 0 
L 4.296875 8.203125 
L 38.09375 47.515625 
L 5.515625 47.515625 
z
" id="DejaVuSans-122"/>
      <path d="M 8.015625 75.875 
L 15.828125 75.875 
Q 23.140625 64.359375 26.78125 53.3125 
Q 30.421875 42.28125 30.421875 31.390625 
Q 30.421875 20.453125 26.78125 9.375 
Q 23.140625 -1.703125 15.828125 -13.1875 
L 8.015625 -13.1875 
Q 14.5 -2 17.703125 9.0625 
Q 20.90625 20.125 20.90625 31.390625 
Q 20.90625 42.671875 17.703125 53.65625 
Q 14.5 64.65625 8.015625 75.875 
z
" id="DejaVuSans-41"/>
     </defs>
     <g transform="translate(126.536266 126.717187)scale(0.15 -0.15)">
      <use transform="translate(0 0.125)" xlink:href="#Cmmi10-33"/>
      <use transform="translate(62.207031 -16.88125)scale(0.7)" xlink:href="#Cmr10-49"/>
      <use transform="translate(97.207031 -16.88125)scale(0.7)" xlink:href="#Cmr10-48"/>
      <use transform="translate(138.584375 0.125)" xlink:href="#Cmmi10-61"/>
      <use transform="translate(188.584375 0.125)" xlink:href="#Cmr10-50"/>
      <use transform="translate(238.584375 0.125)" xlink:href="#Cmmi10-188"/>
      <use transform="translate(295.566797 0.125)" xlink:href="#DejaVuSans-32"/>
      <use transform="translate(327.353906 0.125)" xlink:href="#DejaVuSans-40"/>
      <use transform="translate(366.367578 0.125)" xlink:href="#DejaVuSans-71"/>
      <use transform="translate(443.857813 0.125)" xlink:href="#DejaVuSans-72"/>
      <use transform="translate(519.053125 0.125)" xlink:href="#DejaVuSans-122"/>
      <use transform="translate(571.543359 0.125)" xlink:href="#DejaVuSans-41"/>
     </g>
    </g>
   </g>
   <g id="matplotlib.axis_2">
    <g id="ytick_1">
     <g id="line2d_7">
      <path clip-path="url(#pb38a23cb05)" d="M 67.522531 89.8 
L 277.2 89.8 
" style="fill:none;stroke:#b2b2b2;stroke-dasharray:2.96,1.28;stroke-dashoffset:0;stroke-opacity:0.3;stroke-width:0.8;"/>
     </g>
     <g id="line2d_8">
      <defs>
       <path d="M 0 0 
L -3.5 0 
" id="m6204257771" style="stroke:#2b2b2b;stroke-width:0.8;"/>
      </defs>
      <g>
       <use style="fill:#2b2b2b;stroke:#2b2b2b;stroke-width:0.8;" x="67.522531" xlink:href="#m6204257771" y="89.8"/>
      </g>
     </g>
     <g id="text_5">
      <!-- 0.8 -->
      <g style="fill:#2b2b2b;" transform="translate(36.667844 95.498828)scale(0.15 -0.15)">
       <use xlink:href="#DejaVuSans-48"/>
       <use x="63.623047" xlink:href="#DejaVuSans-46"/>
       <use x="95.410156" xlink:href="#DejaVuSans-56"/>
      </g>
     </g>
    </g>
    <g id="ytick_2">
     <g id="line2d_9">
      <path clip-path="url(#pb38a23cb05)" d="M 67.522531 37.133333 
L 277.2 37.133333 
" style="fill:none;stroke:#b2b2b2;stroke-dasharray:2.96,1.28;stroke-dashoffset:0;stroke-opacity:0.3;stroke-width:0.8;"/>
     </g>
     <g id="line2d_10">
      <g>
       <use style="fill:#2b2b2b;stroke:#2b2b2b;stroke-width:0.8;" x="67.522531" xlink:href="#m6204257771" y="37.133333"/>
      </g>
     </g>
     <g id="text_6">
      <!-- 1.0 -->
      <g style="fill:#2b2b2b;" transform="translate(36.667844 42.832161)scale(0.15 -0.15)">
       <use xlink:href="#DejaVuSans-49"/>
       <use x="63.623047" xlink:href="#DejaVuSans-46"/>
       <use x="95.410156" xlink:href="#DejaVuSans-48"/>
      </g>
     </g>
    </g>
    <g id="text_7">
     <!-- $|t|^2$ -->
     <defs>
      <path d="M 11.921875 -23.1875 
L 11.921875 73.1875 
Q 11.921875 73.96875 12.5 74.484375 
Q 13.09375 75 13.921875 75 
Q 14.65625 75 15.28125 74.484375 
Q 15.921875 73.96875 15.921875 73.1875 
L 15.921875 -23.1875 
Q 15.921875 -23.96875 15.28125 -24.484375 
Q 14.65625 -25 13.921875 -25 
Q 13.09375 -25 12.5 -24.484375 
Q 11.921875 -23.96875 11.921875 -23.1875 
z
" id="Cmsy10-106"/>
      <path d="M 6.203125 8.109375 
Q 6.203125 9.578125 6.5 10.890625 
L 13.71875 39.59375 
L 3.21875 39.59375 
Q 2.203125 39.59375 2.203125 40.921875 
Q 2.59375 43.109375 3.515625 43.109375 
L 14.59375 43.109375 
L 18.609375 59.421875 
Q 19 60.75 20.171875 61.671875 
Q 21.34375 62.59375 22.796875 62.59375 
Q 24.078125 62.59375 24.921875 61.828125 
Q 25.78125 61.078125 25.78125 59.8125 
Q 25.78125 59.515625 25.75 59.34375 
Q 25.734375 59.1875 25.6875 58.984375 
L 21.6875 43.109375 
L 31.984375 43.109375 
Q 33.015625 43.109375 33.015625 41.796875 
Q 32.953125 41.546875 32.8125 40.953125 
Q 32.671875 40.375 32.421875 39.984375 
Q 32.171875 39.59375 31.6875 39.59375 
L 20.796875 39.59375 
L 13.625 10.6875 
Q 12.890625 7.859375 12.890625 5.8125 
Q 12.890625 1.515625 15.828125 1.515625 
Q 20.21875 1.515625 23.609375 5.640625 
Q 27 9.765625 28.8125 14.703125 
Q 29.203125 15.28125 29.59375 15.28125 
L 30.8125 15.28125 
Q 31.203125 15.28125 31.4375 15.015625 
Q 31.6875 14.75 31.6875 14.40625 
Q 31.6875 14.203125 31.59375 14.109375 
Q 29.390625 8.0625 25.1875 3.46875 
Q 21 -1.125 15.578125 -1.125 
Q 11.625 -1.125 8.90625 1.453125 
Q 6.203125 4.046875 6.203125 8.109375 
z
" id="Cmmi10-116"/>
     </defs>
     <g transform="translate(28.167844 62.72)rotate(-90)scale(0.18 -0.18)">
      <use transform="translate(0 0.109375)" xlink:href="#Cmsy10-106"/>
      <use transform="translate(27.685547 0.109375)" xlink:href="#Cmmi10-116"/>
      <use transform="translate(63.769531 0.109375)" xlink:href="#Cmsy10-106"/>
      <use transform="translate(95.919219 38.373438)scale(0.7)" xlink:href="#Cmr10-50"/>
     </g>
    </g>
   </g>
   <g id="line2d_11">
    <path clip-path="url(#pb38a23cb05)" d="M 77.053325 37.280602 
L 110.668952 37.498249 
L 125.948782 37.799988 
L 134.734684 38.178486 
L 140.46462 38.627258 
L 144.666574 39.165237 
L 147.72254 39.757419 
L 150.39651 40.509202 
L 152.306489 41.254664 
L 154.216467 42.263507 
L 155.74445 43.345435 
L 156.890438 44.380878 
L 158.036425 45.673703 
L 159.182412 47.30464 
L 160.328399 49.380376 
L 161.474387 52.036276 
L 162.620374 55.427788 
L 163.766361 59.689323 
L 164.912348 64.819486 
L 167.204323 75.559445 
L 167.968314 77.892386 
L 168.35031 78.556613 
L 168.732306 78.831658 
L 169.114302 78.701792 
L 169.496297 78.174479 
L 169.878293 77.279331 
L 170.642285 74.588616 
L 171.788272 69.245562 
L 173.698251 60.261884 
L 174.844238 55.891423 
L 175.990225 52.401372 
L 177.136213 49.66555 
L 178.2822 47.52788 
L 179.428187 45.849753 
L 180.574174 44.521074 
L 182.102157 43.151803 
L 183.63014 42.115776 
L 185.540119 41.146652 
L 187.450098 40.428216 
L 189.742072 39.789804 
L 192.798038 39.187447 
L 196.617996 38.681496 
L 201.583941 38.259678 
L 208.459864 37.9096 
L 218.77375 37.625625 
L 235.581563 37.410439 
L 267.28721 37.261199 
L 267.669206 37.260216 
L 267.669206 37.260216 
" style="fill:none;stroke:#004ba8;stroke-linecap:square;stroke-width:1.2;"/>
   </g>
   <g id="line2d_12">
    <defs>
     <path d="M 0 3.5 
C 0.928211 3.5 1.81853 3.131218 2.474874 2.474874 
C 3.131218 1.81853 3.5 0.928211 3.5 0 
C 3.5 -0.928211 3.131218 -1.81853 2.474874 -2.474874 
C 1.81853 -3.131218 0.928211 -3.5 0 -3.5 
C -0.928211 -3.5 -1.81853 -3.131218 -2.474874 -2.474874 
C -3.131218 -1.81853 -3.5 -0.928211 -3.5 0 
C -3.5 0.928211 -3.131218 1.81853 -2.474874 2.474874 
C -1.81853 3.131218 -0.928211 3.5 0 3.5 
z
" id="m4cb08fe714" style="stroke:#56b4e9;stroke-opacity:0.95;"/>
    </defs>
    <g clip-path="url(#pb38a23cb05)">
     <use style="fill:#004ba8;fill-opacity:0.95;stroke:#56b4e9;stroke-opacity:0.95;" x="168.732306" xlink:href="#m4cb08fe714" y="78.831658"/>
    </g>
   </g>
   <g id="patch_3">
    <path d="M 67.522531 89.8 
L 67.522531 10.8 
" style="fill:none;stroke:#2b2b2b;stroke-linecap:square;stroke-linejoin:miter;stroke-width:0.8;"/>
   </g>
   <g id="patch_4">
    <path d="M 277.2 89.8 
L 277.2 10.8 
" style="fill:none;stroke:#2b2b2b;stroke-linecap:square;stroke-linejoin:miter;stroke-width:0.8;"/>
   </g>
   <g id="patch_5">
    <path d="M 67.522531 89.8 
L 277.2 89.8 
" style="fill:none;stroke:#2b2b2b;stroke-linecap:square;stroke-linejoin:miter;stroke-width:0.8;"/>
   </g>
   <g id="patch_6">
    <path d="M 67.522531 10.8 
L 277.2 10.8 
" style="fill:none;stroke:#2b2b2b;stroke-linecap:square;stroke-linejoin:miter;stroke-width:0.8;"/>
   </g>
  </g>
 </g>
 <defs>
  <clipPath id="pb38a23cb05">
   <rect height="79" width="209.677469" x="67.522531" y="10.8"/>
  </clipPath>
 </defs>
</svg>
