<?xml version="1.0" encoding="utf-8" standalone="no"?>
<!DOCTYPE svg PUBLIC "-//W3C//DTD SVG 1.1//EN"
  "http://www.w3.org/Graphics/SVG/1.1/DTD/svg11.dtd">
<!-- Created with matplotlib (https://matplotlib.org/) -->
<svg height="216pt" version="1.1" viewBox="0 0 288 216" width="288pt" xmlns="http://www.w3.org/2000/svg" xmlns:xlink="http://www.w3.org/1999/xlink">
 <defs>
  <style type="text/css">
*{stroke-linecap:butt;stroke-linejoin:round;}
  </style>
 </defs>
 <g id="figure_1">
  <g id="patch_1">
   <path d="M 0 216 
L 288 216 
L 288 0 
L 0 0 
z
" style="fill:none;"/>
  </g>
  <g id="axes_1">
   <g id="patch_2">
    <path d="M 60.14 160.72 
L 277.2 160.72 
L 277.2 10.8 
L 60.14 10.8 
z
" style="fill:none;"/>
   </g>
   <g id="matplotlib.axis_1">
    <g id="xtick_1">
     <g id="line2d_1">
      <path clip-path="url(#p5efd31a52b)" d="M 78.228333 160.72 
L 78.228333 10.8 
" style="fill:none;stroke:#b2b2b2;stroke-dasharray:2.96,1.28;stroke-dashoffset:0;stroke-opacity:0.3;stroke-width:0.8;"/>
     </g>
     <g id="line2d_2">
      <defs>
       <path d="M 0 0 
L 0 3.5 
" id="mba0dc01435" style="stroke:#2b2b2b;stroke-width:0.8;"/>
      </defs>
      <g>
       <use style="fill:#2b2b2b;stroke:#2b2b2b;stroke-width:0.8;" x="78.228333" xlink:href="#mba0dc01435" y="160.72"/>
      </g>
     </g>
     <g id="text_1">
      <!-- 0.40 -->
      <defs>
       <path d="M 31.78125 66.40625 
Q 24.171875 66.40625 20.328125 58.90625 
Q 16.5 51.421875 16.5 36.375 
Q 16.5 21.390625 20.328125 13.890625 
Q 24.171875 6.390625 31.78125 6.390625 
Q 39.453125 6.390625 43.28125 13.890625 
Q 47.125 21.390625 47.125 36.375 
Q 47.125 51.421875 43.28125 58.90625 
Q 39.453125 66.40625 31.78125 66.40625 
z
M 31.78125 74.21875 
Q 44.046875 74.21875 50.515625 64.515625 
Q 56.984375 54.828125 56.984375 36.375 
Q 56.984375 17.96875 50.515625 8.265625 
Q 44.046875 -1.421875 31.78125 -1.421875 
Q 19.53125 -1.421875 13.0625 8.265625 
Q 6.59375 17.96875 6.59375 36.375 
Q 6.59375 54.828125 13.0625 64.515625 
Q 19.53125 74.21875 31.78125 74.21875 
z
" id="DejaVuSans-48"/>
       <path d="M 10.6875 12.40625 
L 21 12.40625 
L 21 0 
L 10.6875 0 
z
" id="DejaVuSans-46"/>
       <path d="M 37.796875 64.3125 
L 12.890625 25.390625 
L 37.796875 25.390625 
z
M 35.203125 72.90625 
L 47.609375 72.90625 
L 47.609375 25.390625 
L 58.015625 25.390625 
L 58.015625 17.1875 
L 47.609375 17.1875 
L 47.609375 0 
L 37.796875 0 
L 37.796875 17.1875 
L 4.890625 17.1875 
L 4.890625 26.703125 
z
" id="DejaVuSans-52"/>
      </defs>
      <g style="fill:#2b2b2b;" transform="translate(60.415833 179.8775)scale(0.16 -0.16)">
       <use xlink:href="#DejaVuSans-48"/>
       <use x="63.623047" xlink:href="#DejaVuSans-46"/>
       <use x="95.410156" xlink:href="#DejaVuSans-52"/>
       <use x="159.033203" xlink:href="#DejaVuSans-48"/>
      </g>
     </g>
    </g>
    <g id="xtick_2">
     <g id="line2d_3">
      <path clip-path="url(#p5efd31a52b)" d="M 123.449167 160.72 
L 123.449167 10.8 
" style="fill:none;stroke:#b2b2b2;stroke-dasharray:2.96,1.28;stroke-dashoffset:0;stroke-opacity:0.3;stroke-width:0.8;"/>
     </g>
     <g id="line2d_4">
      <g>
       <use style="fill:#2b2b2b;stroke:#2b2b2b;stroke-width:0.8;" x="123.449167" xlink:href="#mba0dc01435" y="160.72"/>
      </g>
     </g>
     <g id="text_2">
      <!-- 0.45 -->
      <defs>
       <path d="M 10.796875 72.90625 
L 49.515625 72.90625 
L 49.515625 64.59375 
L 19.828125 64.59375 
L 19.828125 46.734375 
Q 21.96875 47.46875 24.109375 47.828125 
Q 26.265625 48.1875 28.421875 48.1875 
Q 40.625 48.1875 47.75 41.5 
Q 54.890625 34.8125 54.890625 23.390625 
Q 54.890625 11.625 47.5625 5.09375 
Q 40.234375 -1.421875 26.90625 -1.421875 
Q 22.3125 -1.421875 17.546875 -0.640625 
Q 12.796875 0.140625 7.71875 1.703125 
L 7.71875 11.625 
Q 12.109375 9.234375 16.796875 8.0625 
Q 21.484375 6.890625 26.703125 6.890625 
Q 35.15625 6.890625 40.078125 11.328125 
Q 45.015625 15.765625 45.015625 23.390625 
Q 45.015625 31 40.078125 35.4375 
Q 35.15625 39.890625 26.703125 39.890625 
Q 22.75 39.890625 18.8125 39.015625 
Q 14.890625 38.140625 10.796875 36.28125 
z
" id="DejaVuSans-53"/>
      </defs>
      <g style="fill:#2b2b2b;" transform="translate(105.636667 179.8775)scale(0.16 -0.16)">
       <use xlink:href="#DejaVuSans-48"/>
       <use x="63.623047" xlink:href="#DejaVuSans-46"/>
       <use x="95.410156" xlink:href="#DejaVuSans-52"/>
       <use x="159.033203" xlink:href="#DejaVuSans-53"/>
      </g>
     </g>
    </g>
    <g id="xtick_3">
     <g id="line2d_5">
      <path clip-path="url(#p5efd31a52b)" d="M 168.67 160.72 
L 168.67 10.8 
" style="fill:none;stroke:#b2b2b2;stroke-dasharray:2.96,1.28;stroke-dashoffset:0;stroke-opacity:0.3;stroke-width:0.8;"/>
     </g>
     <g id="line2d_6">
      <g>
       <use style="fill:#2b2b2b;stroke:#2b2b2b;stroke-width:0.8;" x="168.67" xlink:href="#mba0dc01435" y="160.72"/>
      </g>
     </g>
     <g id="text_3">
      <!-- 0.50 -->
      <g style="fill:#2b2b2b;" transform="translate(150.8575 179.8775)scale(0.16 -0.16)">
       <use xlink:href="#DejaVuSans-48"/>
       <use x="63.623047" xlink:href="#DejaVuSans-46"/>
       <use x="95.410156" xlink:href="#DejaVuSans-53"/>
       <use x="159.033203" xlink:href="#DejaVuSans-48"/>
      </g>
     </g>
    </g>
    <g id="xtick_4">
     <g id="line2d_7">
      <path clip-path="url(#p5efd31a52b)" d="M 213.890833 160.72 
L 213.890833 10.8 
" style="fill:none;stroke:#b2b2b2;stroke-dasharray:2.96,1.28;stroke-dashoffset:0;stroke-opacity:0.3;stroke-width:0.8;"/>
     </g>
     <g id="line2d_8">
      <g>
       <use style="fill:#2b2b2b;stroke:#2b2b2b;stroke-width:0.8;" x="213.890833" xlink:href="#mba0dc01435" y="160.72"/>
      </g>
     </g>
     <g id="text_4">
      <!-- 0.55 -->
      <g style="fill:#2b2b2b;" transform="translate(196.078333 179.8775)scale(0.16 -0.16)">
       <use xlink:href="#DejaVuSans-48"/>
       <use x="63.623047" xlink:href="#DejaVuSans-46"/>
       <use x="95.410156" xlink:href="#DejaVuSans-53"/>
       <use x="159.033203" xlink:href="#DejaVuSans-53"/>
      </g>
     </g>
    </g>
    <g id="xtick_5">
     <g id="line2d_9">
      <path clip-path="url(#p5efd31a52b)" d="M 259.111667 160.72 
L 259.111667 10.8 
" style="fill:none;stroke:#b2b2b2;stroke-dasharray:2.96,1.28;stroke-dashoffset:0;stroke-opacity:0.3;stroke-width:0.8;"/>
     </g>
     <g id="line2d_10">
      <g>
       <use style="fill:#2b2b2b;stroke:#2b2b2b;stroke-width:0.8;" x="259.111667" xlink:href="#mba0dc01435" y="160.72"/>
      </g>
     </g>
     <g id="text_5">
      <!-- 0.60 -->
      <defs>
       <path d="M 33.015625 40.375 
Q 26.375 40.375 22.484375 35.828125 
Q 18.609375 31.296875 18.609375 23.390625 
Q 18.609375 15.53125 22.484375 10.953125 
Q 26.375 6.390625 33.015625 6.390625 
Q 39.65625 6.390625 43.53125 10.953125 
Q 47.40625 15.53125 47.40625 23.390625 
Q 47.40625 31.296875 43.53125 35.828125 
Q 39.65625 40.375 33.015625 40.375 
z
M 52.59375 71.296875 
L 52.59375 62.3125 
Q 48.875 64.0625 45.09375 64.984375 
Q 41.3125 65.921875 37.59375 65.921875 
Q 27.828125 65.921875 22.671875 59.328125 
Q 17.53125 52.734375 16.796875 39.40625 
Q 19.671875 43.65625 24.015625 45.921875 
Q 28.375 48.1875 33.59375 48.1875 
Q 44.578125 48.1875 50.953125 41.515625 
Q 57.328125 34.859375 57.328125 23.390625 
Q 57.328125 12.15625 50.6875 5.359375 
Q 44.046875 -1.421875 33.015625 -1.421875 
Q 20.359375 -1.421875 13.671875 8.265625 
Q 6.984375 17.96875 6.984375 36.375 
Q 6.984375 53.65625 15.1875 63.9375 
Q 23.390625 74.21875 37.203125 74.21875 
Q 40.921875 74.21875 44.703125 73.484375 
Q 48.484375 72.75 52.59375 71.296875 
z
" id="DejaVuSans-54"/>
      </defs>
      <g style="fill:#2b2b2b;" transform="translate(241.299167 179.8775)scale(0.16 -0.16)">
       <use xlink:href="#DejaVuSans-48"/>
       <use x="63.623047" xlink:href="#DejaVuSans-46"/>
       <use x="95.410156" xlink:href="#DejaVuSans-54"/>
       <use x="159.033203" xlink:href="#DejaVuSans-48"/>
      </g>
     </g>
    </g>
    <g id="text_6">
     <!-- Flux Number ($\Phi/\Phi_0$) -->
     <defs>
      <path d="M 9.8125 72.90625 
L 51.703125 72.90625 
L 51.703125 64.59375 
L 19.671875 64.59375 
L 19.671875 43.109375 
L 48.578125 43.109375 
L 48.578125 34.8125 
L 19.671875 34.8125 
L 19.671875 0 
L 9.8125 0 
z
" id="DejaVuSans-70"/>
      <path d="M 9.421875 75.984375 
L 18.40625 75.984375 
L 18.40625 0 
L 9.421875 0 
z
" id="DejaVuSans-108"/>
      <path d="M 8.5 21.578125 
L 8.5 54.6875 
L 17.484375 54.6875 
L 17.484375 21.921875 
Q 17.484375 14.15625 20.5 10.265625 
Q 23.53125 6.390625 29.59375 6.390625 
Q 36.859375 6.390625 41.078125 11.03125 
Q 45.3125 15.671875 45.3125 23.6875 
L 45.3125 54.6875 
L 54.296875 54.6875 
L 54.296875 0 
L 45.3125 0 
L 45.3125 8.40625 
Q 42.046875 3.421875 37.71875 1 
Q 33.40625 -1.421875 27.6875 -1.421875 
Q 18.265625 -1.421875 13.375 4.4375 
Q 8.5 10.296875 8.5 21.578125 
z
M 31.109375 56 
z
" id="DejaVuSans-117"/>
      <path d="M 54.890625 54.6875 
L 35.109375 28.078125 
L 55.90625 0 
L 45.3125 0 
L 29.390625 21.484375 
L 13.484375 0 
L 2.875 0 
L 24.125 28.609375 
L 4.6875 54.6875 
L 15.28125 54.6875 
L 29.78125 35.203125 
L 44.28125 54.6875 
z
" id="DejaVuSans-120"/>
      <path id="DejaVuSans-32"/>
      <path d="M 9.8125 72.90625 
L 23.09375 72.90625 
L 55.421875 11.921875 
L 55.421875 72.90625 
L 64.984375 72.90625 
L 64.984375 0 
L 51.703125 0 
L 19.390625 60.984375 
L 19.390625 0 
L 9.8125 0 
z
" id="DejaVuSans-78"/>
      <path d="M 52 44.1875 
Q 55.375 50.25 60.0625 53.125 
Q 64.75 56 71.09375 56 
Q 79.640625 56 84.28125 50.015625 
Q 88.921875 44.046875 88.921875 33.015625 
L 88.921875 0 
L 79.890625 0 
L 79.890625 32.71875 
Q 79.890625 40.578125 77.09375 44.375 
Q 74.3125 48.1875 68.609375 48.1875 
Q 61.625 48.1875 57.5625 43.546875 
Q 53.515625 38.921875 53.515625 30.90625 
L 53.515625 0 
L 44.484375 0 
L 44.484375 32.71875 
Q 44.484375 40.625 41.703125 44.40625 
Q 38.921875 48.1875 33.109375 48.1875 
Q 26.21875 48.1875 22.15625 43.53125 
Q 18.109375 38.875 18.109375 30.90625 
L 18.109375 0 
L 9.078125 0 
L 9.078125 54.6875 
L 18.109375 54.6875 
L 18.109375 46.1875 
Q 21.1875 51.21875 25.484375 53.609375 
Q 29.78125 56 35.6875 56 
Q 41.65625 56 45.828125 52.96875 
Q 50 49.953125 52 44.1875 
z
" id="DejaVuSans-109"/>
      <path d="M 48.6875 27.296875 
Q 48.6875 37.203125 44.609375 42.84375 
Q 40.53125 48.484375 33.40625 48.484375 
Q 26.265625 48.484375 22.1875 42.84375 
Q 18.109375 37.203125 18.109375 27.296875 
Q 18.109375 17.390625 22.1875 11.75 
Q 26.265625 6.109375 33.40625 6.109375 
Q 40.53125 6.109375 44.609375 11.75 
Q 48.6875 17.390625 48.6875 27.296875 
z
M 18.109375 46.390625 
Q 20.953125 51.265625 25.265625 53.625 
Q 29.59375 56 35.59375 56 
Q 45.5625 56 51.78125 48.09375 
Q 58.015625 40.1875 58.015625 27.296875 
Q 58.015625 14.40625 51.78125 6.484375 
Q 45.5625 -1.421875 35.59375 -1.421875 
Q 29.59375 -1.421875 25.265625 0.953125 
Q 20.953125 3.328125 18.109375 8.203125 
L 18.109375 0 
L 9.078125 0 
L 9.078125 75.984375 
L 18.109375 75.984375 
z
" id="DejaVuSans-98"/>
      <path d="M 56.203125 29.59375 
L 56.203125 25.203125 
L 14.890625 25.203125 
Q 15.484375 15.921875 20.484375 11.0625 
Q 25.484375 6.203125 34.421875 6.203125 
Q 39.59375 6.203125 44.453125 7.46875 
Q 49.3125 8.734375 54.109375 11.28125 
L 54.109375 2.78125 
Q 49.265625 0.734375 44.1875 -0.34375 
Q 39.109375 -1.421875 33.890625 -1.421875 
Q 20.796875 -1.421875 13.15625 6.1875 
Q 5.515625 13.8125 5.515625 26.8125 
Q 5.515625 40.234375 12.765625 48.109375 
Q 20.015625 56 32.328125 56 
Q 43.359375 56 49.78125 48.890625 
Q 56.203125 41.796875 56.203125 29.59375 
z
M 47.21875 32.234375 
Q 47.125 39.59375 43.09375 43.984375 
Q 39.0625 48.390625 32.421875 48.390625 
Q 24.90625 48.390625 20.390625 44.140625 
Q 15.875 39.890625 15.1875 32.171875 
z
" id="DejaVuSans-101"/>
      <path d="M 41.109375 46.296875 
Q 39.59375 47.171875 37.8125 47.578125 
Q 36.03125 48 33.890625 48 
Q 26.265625 48 22.1875 43.046875 
Q 18.109375 38.09375 18.109375 28.8125 
L 18.109375 0 
L 9.078125 0 
L 9.078125 54.6875 
L 18.109375 54.6875 
L 18.109375 46.1875 
Q 20.953125 51.171875 25.484375 53.578125 
Q 30.03125 56 36.53125 56 
Q 37.453125 56 38.578125 55.875 
Q 39.703125 55.765625 41.0625 55.515625 
z
" id="DejaVuSans-114"/>
      <path d="M 31 75.875 
Q 24.46875 64.65625 21.28125 53.65625 
Q 18.109375 42.671875 18.109375 31.390625 
Q 18.109375 20.125 21.3125 9.0625 
Q 24.515625 -2 31 -13.1875 
L 23.1875 -13.1875 
Q 15.875 -1.703125 12.234375 9.375 
Q 8.59375 20.453125 8.59375 31.390625 
Q 8.59375 42.28125 12.203125 53.3125 
Q 15.828125 64.359375 23.1875 75.875 
z
" id="DejaVuSans-40"/>
      <path d="M 18.609375 0 
L 18.609375 3.515625 
Q 31.390625 3.515625 31.390625 6.6875 
L 31.390625 13.921875 
Q 21.78125 14.84375 14.5 19.671875 
Q 10.6875 22.265625 8.140625 26.078125 
Q 5.609375 29.890625 5.609375 34.1875 
Q 5.609375 38.421875 8.140625 42.25 
Q 10.6875 46.09375 14.5 48.578125 
Q 18.265625 51.125 22.4375 52.515625 
Q 26.609375 53.90625 31.390625 54.390625 
L 31.390625 61.625 
Q 31.390625 64.796875 18.609375 64.796875 
L 18.609375 68.3125 
L 52.875 68.3125 
L 52.875 64.796875 
Q 40.09375 64.796875 40.09375 61.625 
L 40.09375 54.390625 
Q 44.234375 54.390625 48.875 52.84375 
Q 53.515625 51.3125 57.46875 48.671875 
Q 61.421875 46.046875 63.953125 42.265625 
Q 66.5 38.484375 66.5 34.1875 
Q 66.5 29.890625 63.953125 26.125 
Q 61.421875 22.359375 57.34375 19.625 
Q 53.265625 16.890625 48.625 15.40625 
Q 44 13.921875 40.09375 13.921875 
L 40.09375 6.6875 
Q 40.09375 3.515625 52.875 3.515625 
L 52.875 0 
z
M 40.09375 16.5 
Q 48.140625 17.53125 52.125 21.890625 
Q 56.109375 26.265625 56.109375 34.1875 
Q 56.109375 42.140625 52.078125 46.484375 
Q 48.046875 50.828125 40.09375 51.8125 
z
M 31.390625 16.609375 
L 31.390625 51.703125 
Q 16.015625 49.5625 16.015625 34.1875 
Q 16.015625 18.75 31.390625 16.609375 
z
" id="Cmr10-169"/>
      <path d="M 5.609375 -23 
Q 5.609375 -22.703125 5.71875 -22.609375 
L 40.484375 73.78125 
Q 40.671875 74.359375 41.15625 74.671875 
Q 41.65625 75 42.28125 75 
Q 43.171875 75 43.71875 74.453125 
Q 44.28125 73.921875 44.28125 73 
L 44.28125 72.609375 
L 9.515625 -23.78125 
Q 8.9375 -25 7.625 -25 
Q 6.78125 -25 6.1875 -24.40625 
Q 5.609375 -23.828125 5.609375 -23 
z
" id="Cmmi10-61"/>
      <path d="M 25 -2.203125 
Q 12.75 -2.203125 8.328125 7.875 
Q 3.90625 17.96875 3.90625 31.890625 
Q 3.90625 40.578125 5.484375 48.234375 
Q 7.078125 55.90625 11.78125 61.25 
Q 16.5 66.609375 25 66.609375 
Q 31.59375 66.609375 35.78125 63.375 
Q 39.984375 60.15625 42.1875 55.046875 
Q 44.390625 49.953125 45.1875 44.109375 
Q 46 38.28125 46 31.890625 
Q 46 23.296875 44.40625 15.796875 
Q 42.828125 8.296875 38.1875 3.046875 
Q 33.546875 -2.203125 25 -2.203125 
z
M 25 0.390625 
Q 30.5625 0.390625 33.296875 6.09375 
Q 36.03125 11.8125 36.671875 18.75 
Q 37.3125 25.6875 37.3125 33.5 
Q 37.3125 41.015625 36.671875 47.359375 
Q 36.03125 53.71875 33.3125 58.859375 
Q 30.609375 64.015625 25 64.015625 
Q 19.34375 64.015625 16.609375 58.828125 
Q 13.875 53.65625 13.234375 47.328125 
Q 12.59375 41.015625 12.59375 33.5 
Q 12.59375 27.9375 12.859375 23 
Q 13.140625 18.0625 14.3125 12.8125 
Q 15.484375 7.5625 18.09375 3.96875 
Q 20.703125 0.390625 25 0.390625 
z
" id="Cmr10-48"/>
      <path d="M 8.015625 75.875 
L 15.828125 75.875 
Q 23.140625 64.359375 26.78125 53.3125 
Q 30.421875 42.28125 30.421875 31.390625 
Q 30.421875 20.453125 26.78125 9.375 
Q 23.140625 -1.703125 15.828125 -13.1875 
L 8.015625 -13.1875 
Q 14.5 -2 17.703125 9.0625 
Q 20.90625 20.125 20.90625 31.390625 
Q 20.90625 42.671875 17.703125 53.65625 
Q 14.5 64.65625 8.015625 75.875 
z
" id="DejaVuSans-41"/>
     </defs>
     <g transform="translate(89.31 199.365)scale(0.16 -0.16)">
      <use transform="translate(0 0.015625)" xlink:href="#DejaVuSans-70"/>
      <use transform="translate(57.519531 0.015625)" xlink:href="#DejaVuSans-108"/>
      <use transform="translate(85.302734 0.015625)" xlink:href="#DejaVuSans-117"/>
      <use transform="translate(148.681641 0.015625)" xlink:href="#DejaVuSans-120"/>
      <use transform="translate(207.861328 0.015625)" xlink:href="#DejaVuSans-32"/>
      <use transform="translate(239.648438 0.015625)" xlink:href="#DejaVuSans-78"/>
      <use transform="translate(314.453125 0.015625)" xlink:href="#DejaVuSans-117"/>
      <use transform="translate(377.832031 0.015625)" xlink:href="#DejaVuSans-109"/>
      <use transform="translate(475.244141 0.015625)" xlink:href="#DejaVuSans-98"/>
      <use transform="translate(538.720703 0.015625)" xlink:href="#DejaVuSans-101"/>
      <use transform="translate(600.244141 0.015625)" xlink:href="#DejaVuSans-114"/>
      <use transform="translate(641.357422 0.015625)" xlink:href="#DejaVuSans-32"/>
      <use transform="translate(673.144531 0.015625)" xlink:href="#DejaVuSans-40"/>
      <use transform="translate(712.158203 0.015625)" xlink:href="#Cmr10-169"/>
      <use transform="translate(784.375 0.015625)" xlink:href="#Cmmi10-61"/>
      <use transform="translate(834.375 0.015625)" xlink:href="#Cmr10-169"/>
      <use transform="translate(911.055938 -16.990625)scale(0.7)" xlink:href="#Cmr10-48"/>
      <use transform="translate(952.433281 0.015625)" xlink:href="#DejaVuSans-41"/>
     </g>
    </g>
   </g>
   <g id="matplotlib.axis_2">
    <g id="ytick_1">
     <g id="line2d_11">
      <path clip-path="url(#p5efd31a52b)" d="M 60.14 143.082353 
L 277.2 143.082353 
" style="fill:none;stroke:#b2b2b2;stroke-dasharray:2.96,1.28;stroke-dashoffset:0;stroke-opacity:0.3;stroke-width:0.8;"/>
     </g>
     <g id="line2d_12">
      <defs>
       <path d="M 0 0 
L -3.5 0 
" id="mb3421825a1" style="stroke:#2b2b2b;stroke-width:0.8;"/>
      </defs>
      <g>
       <use style="fill:#2b2b2b;stroke:#2b2b2b;stroke-width:0.8;" x="60.14" xlink:href="#mb3421825a1" y="143.082353"/>
      </g>
     </g>
     <g id="text_7">
      <!-- 5 -->
      <g style="fill:#2b2b2b;" transform="translate(42.96 149.161103)scale(0.16 -0.16)">
       <use xlink:href="#DejaVuSans-53"/>
      </g>
     </g>
    </g>
    <g id="ytick_2">
     <g id="line2d_13">
      <path clip-path="url(#p5efd31a52b)" d="M 60.14 98.988235 
L 277.2 98.988235 
" style="fill:none;stroke:#b2b2b2;stroke-dasharray:2.96,1.28;stroke-dashoffset:0;stroke-opacity:0.3;stroke-width:0.8;"/>
     </g>
     <g id="line2d_14">
      <g>
       <use style="fill:#2b2b2b;stroke:#2b2b2b;stroke-width:0.8;" x="60.14" xlink:href="#mb3421825a1" y="98.988235"/>
      </g>
     </g>
     <g id="text_8">
      <!-- 10 -->
      <defs>
       <path d="M 12.40625 8.296875 
L 28.515625 8.296875 
L 28.515625 63.921875 
L 10.984375 60.40625 
L 10.984375 69.390625 
L 28.421875 72.90625 
L 38.28125 72.90625 
L 38.28125 8.296875 
L 54.390625 8.296875 
L 54.390625 0 
L 12.40625 0 
z
" id="DejaVuSans-49"/>
      </defs>
      <g style="fill:#2b2b2b;" transform="translate(32.78 105.066985)scale(0.16 -0.16)">
       <use xlink:href="#DejaVuSans-49"/>
       <use x="63.623047" xlink:href="#DejaVuSans-48"/>
      </g>
     </g>
    </g>
    <g id="ytick_3">
     <g id="line2d_15">
      <path clip-path="url(#p5efd31a52b)" d="M 60.14 54.894118 
L 277.2 54.894118 
" style="fill:none;stroke:#b2b2b2;stroke-dasharray:2.96,1.28;stroke-dashoffset:0;stroke-opacity:0.3;stroke-width:0.8;"/>
     </g>
     <g id="line2d_16">
      <g>
       <use style="fill:#2b2b2b;stroke:#2b2b2b;stroke-width:0.8;" x="60.14" xlink:href="#mb3421825a1" y="54.894118"/>
      </g>
     </g>
     <g id="text_9">
      <!-- 15 -->
      <g style="fill:#2b2b2b;" transform="translate(32.78 60.972868)scale(0.16 -0.16)">
       <use xlink:href="#DejaVuSans-49"/>
       <use x="63.623047" xlink:href="#DejaVuSans-53"/>
      </g>
     </g>
    </g>
    <g id="text_10">
     <!-- $\omega/2\pi$ (GHz) -->
     <defs>
      <path d="M 12.109375 -1.125 
Q 6.453125 -1.125 3.9375 3.015625 
Q 1.421875 7.171875 1.421875 13.1875 
Q 1.421875 17.140625 2.125 20.921875 
Q 2.828125 24.703125 4.265625 28.578125 
Q 5.71875 32.46875 7.5625 35.859375 
Q 9.421875 39.265625 11.71875 42.484375 
Q 12.15625 43.109375 12.890625 43.109375 
Q 13.53125 43.109375 13.921875 42.71875 
Q 14.3125 42.328125 14.3125 41.796875 
Q 14.3125 41.265625 14.015625 40.828125 
Q 4.890625 28.265625 4.890625 17.671875 
Q 4.890625 13.09375 7 9.796875 
Q 9.125 6.5 13.484375 6.5 
Q 17.234375 6.5 20.4375 8.6875 
Q 23.640625 10.890625 25.984375 14.3125 
Q 25.984375 16.0625 26.59375 19.765625 
Q 27.203125 23.484375 28.484375 26.390625 
Q 29.78125 29.296875 31.59375 29.296875 
Q 33.890625 29.296875 33.890625 26.609375 
Q 33.890625 25.046875 33.21875 22.671875 
Q 32.5625 20.3125 31.75 18.265625 
Q 30.953125 16.21875 29.78125 13.625 
Q 30.953125 6.5 36.921875 6.5 
Q 40.375 6.5 43.859375 8.5 
Q 47.359375 10.5 50.046875 13.75 
Q 52.734375 17 54.265625 20.75 
Q 55.8125 24.515625 55.8125 27.875 
Q 55.8125 30.90625 54.859375 32.59375 
Q 53.90625 34.28125 52.34375 36.125 
Q 50.78125 37.984375 50.78125 39.109375 
Q 50.78125 41.0625 52.4375 42.671875 
Q 54.109375 44.28125 56 44.28125 
Q 58.453125 44.28125 59.46875 42.0625 
Q 60.5 39.84375 60.5 37.015625 
Q 60.5 32.421875 58.671875 25.4375 
Q 56.84375 18.453125 54.5 13.8125 
Q 51.265625 7.515625 46.40625 3.1875 
Q 41.546875 -1.125 35.5 -1.125 
Q 31.640625 -1.125 29.265625 1.1875 
Q 26.90625 3.515625 26.21875 7.515625 
Q 23.4375 3.5625 19.875 1.21875 
Q 16.3125 -1.125 12.109375 -1.125 
z
" id="Cmmi10-33"/>
      <path d="M 4.984375 0 
L 4.984375 2.6875 
Q 4.984375 2.9375 5.171875 3.21875 
L 20.703125 20.40625 
Q 24.21875 24.21875 26.40625 26.796875 
Q 28.609375 29.390625 30.75 32.765625 
Q 32.90625 36.140625 34.15625 39.625 
Q 35.40625 43.109375 35.40625 47.015625 
Q 35.40625 51.125 33.890625 54.859375 
Q 32.375 58.59375 29.375 60.84375 
Q 26.375 63.09375 22.125 63.09375 
Q 17.78125 63.09375 14.3125 60.46875 
Q 10.84375 57.859375 9.421875 53.71875 
Q 9.8125 53.8125 10.5 53.8125 
Q 12.75 53.8125 14.328125 52.296875 
Q 15.921875 50.78125 15.921875 48.390625 
Q 15.921875 46.09375 14.328125 44.5 
Q 12.75 42.921875 10.5 42.921875 
Q 8.15625 42.921875 6.5625 44.546875 
Q 4.984375 46.1875 4.984375 48.390625 
Q 4.984375 52.15625 6.390625 55.4375 
Q 7.8125 58.734375 10.46875 61.296875 
Q 13.140625 63.875 16.484375 65.234375 
Q 19.828125 66.609375 23.578125 66.609375 
Q 29.296875 66.609375 34.21875 64.1875 
Q 39.15625 61.765625 42.03125 57.34375 
Q 44.921875 52.9375 44.921875 47.015625 
Q 44.921875 42.671875 43.015625 38.765625 
Q 41.109375 34.859375 38.125 31.65625 
Q 35.15625 28.46875 30.515625 24.40625 
Q 25.875 20.359375 24.421875 19 
L 13.09375 8.109375 
L 22.703125 8.109375 
Q 29.78125 8.109375 34.546875 8.21875 
Q 39.3125 8.34375 39.59375 8.59375 
Q 40.765625 9.859375 42 17.828125 
L 44.921875 17.828125 
L 42.09375 0 
z
" id="Cmr10-50"/>
      <path d="M 10.109375 1.703125 
Q 10.109375 2.25 10.5 3.328125 
Q 13.28125 9.125 15.6875 14.71875 
Q 18.109375 20.3125 20.03125 25.609375 
Q 21.96875 30.90625 23.578125 36.921875 
L 17.1875 36.921875 
Q 13.53125 36.921875 10.34375 34.625 
Q 7.171875 32.328125 5.078125 28.8125 
Q 4.890625 28.421875 4.5 28.421875 
L 3.328125 28.421875 
Q 2.390625 28.421875 2.390625 29.390625 
Q 2.390625 29.59375 2.59375 29.984375 
Q 5.859375 35.546875 9.59375 39.328125 
Q 13.328125 43.109375 18.015625 43.109375 
L 54.296875 43.109375 
Q 55.328125 43.109375 56.046875 42.421875 
Q 56.78125 41.75 56.78125 40.578125 
Q 56.78125 39.109375 55.734375 38.015625 
Q 54.6875 36.921875 53.21875 36.921875 
L 40.484375 36.921875 
Q 38.875 29.046875 38.71875 21.578125 
Q 38.71875 11.96875 42.09375 4.203125 
Q 42.390625 3.609375 42.390625 2.984375 
Q 42.390625 1.90625 41.75 0.96875 
Q 41.109375 0.046875 40.109375 -0.53125 
Q 39.109375 -1.125 37.984375 -1.125 
Q 35.359375 -1.125 34.375 3.171875 
Q 33.40625 7.46875 33.40625 11.53125 
Q 33.40625 17.234375 34.375 22.53125 
Q 35.359375 27.828125 37.5 36.921875 
L 26.609375 36.921875 
Q 18.703125 4.890625 17.09375 1.609375 
Q 15.671875 -1.125 13.1875 -1.125 
Q 11.96875 -1.125 11.03125 -0.3125 
Q 10.109375 0.484375 10.109375 1.703125 
z
" id="Cmmi10-188"/>
      <path d="M 59.515625 10.40625 
L 59.515625 29.984375 
L 43.40625 29.984375 
L 43.40625 38.09375 
L 69.28125 38.09375 
L 69.28125 6.78125 
Q 63.578125 2.734375 56.6875 0.65625 
Q 49.8125 -1.421875 42 -1.421875 
Q 24.90625 -1.421875 15.25 8.5625 
Q 5.609375 18.5625 5.609375 36.375 
Q 5.609375 54.25 15.25 64.234375 
Q 24.90625 74.21875 42 74.21875 
Q 49.125 74.21875 55.546875 72.453125 
Q 61.96875 70.703125 67.390625 67.28125 
L 67.390625 56.78125 
Q 61.921875 61.421875 55.765625 63.765625 
Q 49.609375 66.109375 42.828125 66.109375 
Q 29.4375 66.109375 22.71875 58.640625 
Q 16.015625 51.171875 16.015625 36.375 
Q 16.015625 21.625 22.71875 14.15625 
Q 29.4375 6.6875 42.828125 6.6875 
Q 48.046875 6.6875 52.140625 7.59375 
Q 56.25 8.5 59.515625 10.40625 
z
" id="DejaVuSans-71"/>
      <path d="M 9.8125 72.90625 
L 19.671875 72.90625 
L 19.671875 43.015625 
L 55.515625 43.015625 
L 55.515625 72.90625 
L 65.375 72.90625 
L 65.375 0 
L 55.515625 0 
L 55.515625 34.71875 
L 19.671875 34.71875 
L 19.671875 0 
L 9.8125 0 
z
" id="DejaVuSans-72"/>
      <path d="M 5.515625 54.6875 
L 48.1875 54.6875 
L 48.1875 46.484375 
L 14.40625 7.171875 
L 48.1875 7.171875 
L 48.1875 0 
L 4.296875 0 
L 4.296875 8.203125 
L 38.09375 47.515625 
L 5.515625 47.515625 
z
" id="DejaVuSans-122"/>
     </defs>
     <g transform="translate(24.78 128.56)rotate(-90)scale(0.16 -0.16)">
      <use transform="translate(0 0.125)" xlink:href="#Cmmi10-33"/>
      <use transform="translate(62.207031 0.125)" xlink:href="#Cmmi10-61"/>
      <use transform="translate(112.207031 0.125)" xlink:href="#Cmr10-50"/>
      <use transform="translate(162.207031 0.125)" xlink:href="#Cmmi10-188"/>
      <use transform="translate(219.189453 0.125)" xlink:href="#DejaVuSans-32"/>
      <use transform="translate(250.976562 0.125)" xlink:href="#DejaVuSans-40"/>
      <use transform="translate(289.990234 0.125)" xlink:href="#DejaVuSans-71"/>
      <use transform="translate(367.480469 0.125)" xlink:href="#DejaVuSans-72"/>
      <use transform="translate(442.675781 0.125)" xlink:href="#DejaVuSans-122"/>
      <use transform="translate(495.166016 0.125)" xlink:href="#DejaVuSans-41"/>
     </g>
    </g>
   </g>
   <g id="line2d_17">
    <defs>
     <path d="M 0 1.5 
C 0.397805 1.5 0.77937 1.341951 1.06066 1.06066 
C 1.341951 0.77937 1.5 0.397805 1.5 0 
C 1.5 -0.397805 1.341951 -0.77937 1.06066 -1.06066 
C 0.77937 -1.341951 0.397805 -1.5 0 -1.5 
C -0.397805 -1.5 -0.77937 -1.341951 -1.06066 -1.06066 
C -1.341951 -0.77937 -1.5 -0.397805 -1.5 0 
C -1.5 0.397805 -1.341951 0.77937 -1.06066 1.06066 
C -0.77937 1.341951 -0.397805 1.5 0 1.5 
z
" id="m5a4304fc9e" style="stroke:#56b4e9;stroke-opacity:0.95;stroke-width:0.8;"/>
    </defs>
    <g clip-path="url(#p5efd31a52b)">
     <use style="fill:#104e8b;fill-opacity:0.95;stroke:#56b4e9;stroke-opacity:0.95;stroke-width:0.8;" x="-1" xlink:href="#m5a4304fc9e" y="104.770131"/>
     <use style="fill:#104e8b;fill-opacity:0.95;stroke:#56b4e9;stroke-opacity:0.95;stroke-width:0.8;" x="109.107702" xlink:href="#m5a4304fc9e" y="104.816728"/>
     <use style="fill:#104e8b;fill-opacity:0.95;stroke:#56b4e9;stroke-opacity:0.95;stroke-width:0.8;" x="114.706429" xlink:href="#m5a4304fc9e" y="103.54292"/>
     <use style="fill:#104e8b;fill-opacity:0.95;stroke:#56b4e9;stroke-opacity:0.95;stroke-width:0.8;" x="120.305285" xlink:href="#m5a4304fc9e" y="102.202079"/>
     <use style="fill:#104e8b;fill-opacity:0.95;stroke:#56b4e9;stroke-opacity:0.95;stroke-width:0.8;" x="125.904012" xlink:href="#m5a4304fc9e" y="101.196442"/>
     <use style="fill:#104e8b;fill-opacity:0.95;stroke:#56b4e9;stroke-opacity:0.95;stroke-width:0.8;" x="131.502739" xlink:href="#m5a4304fc9e" y="100.324896"/>
     <use style="fill:#104e8b;fill-opacity:0.95;stroke:#56b4e9;stroke-opacity:0.95;stroke-width:0.8;" x="137.101595" xlink:href="#m5a4304fc9e" y="99.721512"/>
     <use style="fill:#104e8b;fill-opacity:0.95;stroke:#56b4e9;stroke-opacity:0.95;stroke-width:0.8;" x="142.700321" xlink:href="#m5a4304fc9e" y="99.118128"/>
     <use style="fill:#104e8b;fill-opacity:0.95;stroke:#56b4e9;stroke-opacity:0.95;stroke-width:0.8;" x="148.299048" xlink:href="#m5a4304fc9e" y="98.648799"/>
     <use style="fill:#104e8b;fill-opacity:0.95;stroke:#56b4e9;stroke-opacity:0.95;stroke-width:0.8;" x="153.897904" xlink:href="#m5a4304fc9e" y="98.179549"/>
     <use style="fill:#104e8b;fill-opacity:0.95;stroke:#56b4e9;stroke-opacity:0.95;stroke-width:0.8;" x="159.496631" xlink:href="#m5a4304fc9e" y="98.045415"/>
     <use style="fill:#104e8b;fill-opacity:0.95;stroke:#56b4e9;stroke-opacity:0.95;stroke-width:0.8;" x="165.095358" xlink:href="#m5a4304fc9e" y="97.844346"/>
     <use style="fill:#104e8b;fill-opacity:0.95;stroke:#56b4e9;stroke-opacity:0.95;stroke-width:0.8;" x="170.694214" xlink:href="#m5a4304fc9e" y="97.911369"/>
     <use style="fill:#104e8b;fill-opacity:0.95;stroke:#56b4e9;stroke-opacity:0.95;stroke-width:0.8;" x="176.29294" xlink:href="#m5a4304fc9e" y="97.911369"/>
     <use style="fill:#104e8b;fill-opacity:0.95;stroke:#56b4e9;stroke-opacity:0.95;stroke-width:0.8;" x="181.891667" xlink:href="#m5a4304fc9e" y="98.112526"/>
     <use style="fill:#104e8b;fill-opacity:0.95;stroke:#56b4e9;stroke-opacity:0.95;stroke-width:0.8;" x="187.490523" xlink:href="#m5a4304fc9e" y="98.44773"/>
     <use style="fill:#104e8b;fill-opacity:0.95;stroke:#56b4e9;stroke-opacity:0.95;stroke-width:0.8;" x="193.08925" xlink:href="#m5a4304fc9e" y="98.98409"/>
     <use style="fill:#104e8b;fill-opacity:0.95;stroke:#56b4e9;stroke-opacity:0.95;stroke-width:0.8;" x="198.687977" xlink:href="#m5a4304fc9e" y="99.185177"/>
     <use style="fill:#104e8b;fill-opacity:0.95;stroke:#56b4e9;stroke-opacity:0.95;stroke-width:0.8;" x="204.286833" xlink:href="#m5a4304fc9e" y="100.190805"/>
     <use style="fill:#104e8b;fill-opacity:0.95;stroke:#56b4e9;stroke-opacity:0.95;stroke-width:0.8;" x="209.88556" xlink:href="#m5a4304fc9e" y="101.062361"/>
     <use style="fill:#104e8b;fill-opacity:0.95;stroke:#56b4e9;stroke-opacity:0.95;stroke-width:0.8;" x="215.484286" xlink:href="#m5a4304fc9e" y="102.000948"/>
     <use style="fill:#104e8b;fill-opacity:0.95;stroke:#56b4e9;stroke-opacity:0.95;stroke-width:0.8;" x="221.083142" xlink:href="#m5a4304fc9e" y="102.872504"/>
     <use style="fill:#104e8b;fill-opacity:0.95;stroke:#56b4e9;stroke-opacity:0.95;stroke-width:0.8;" x="226.681869" xlink:href="#m5a4304fc9e" y="104.280385"/>
     <use style="fill:#104e8b;fill-opacity:0.95;stroke:#56b4e9;stroke-opacity:0.95;stroke-width:0.8;" x="987.080518" xlink:href="#m5a4304fc9e" y="95.317929"/>
     <use style="fill:#104e8b;fill-opacity:0.95;stroke:#56b4e9;stroke-opacity:0.95;stroke-width:0.8;" x="994.945067" xlink:href="#m5a4304fc9e" y="94.588965"/>
     <use style="fill:#104e8b;fill-opacity:0.95;stroke:#56b4e9;stroke-opacity:0.95;stroke-width:0.8;" x="1002.809616" xlink:href="#m5a4304fc9e" y="94.103048"/>
     <use style="fill:#104e8b;fill-opacity:0.95;stroke:#56b4e9;stroke-opacity:0.95;stroke-width:0.8;" x="1010.672872" xlink:href="#m5a4304fc9e" y="93.293127"/>
     <use style="fill:#104e8b;fill-opacity:0.95;stroke:#56b4e9;stroke-opacity:0.95;stroke-width:0.8;" x="1018.537421" xlink:href="#m5a4304fc9e" y="92.159203"/>
     <use style="fill:#104e8b;fill-opacity:0.95;stroke:#56b4e9;stroke-opacity:0.95;stroke-width:0.8;" x="1026.40197" xlink:href="#m5a4304fc9e" y="91.430327"/>
     <use style="fill:#104e8b;fill-opacity:0.95;stroke:#56b4e9;stroke-opacity:0.95;stroke-width:0.8;" x="1034.265227" xlink:href="#m5a4304fc9e" y="90.78232"/>
     <use style="fill:#104e8b;fill-opacity:0.95;stroke:#56b4e9;stroke-opacity:0.95;stroke-width:0.8;" x="1042.129776" xlink:href="#m5a4304fc9e" y="90.296403"/>
     <use style="fill:#104e8b;fill-opacity:0.95;stroke:#56b4e9;stroke-opacity:0.95;stroke-width:0.8;" x="1049.994325" xlink:href="#m5a4304fc9e" y="89.648484"/>
     <use style="fill:#104e8b;fill-opacity:0.95;stroke:#56b4e9;stroke-opacity:0.95;stroke-width:0.8;" x="1057.857582" xlink:href="#m5a4304fc9e" y="89.162478"/>
     <use style="fill:#104e8b;fill-opacity:0.95;stroke:#56b4e9;stroke-opacity:0.95;stroke-width:0.8;" x="1065.722131" xlink:href="#m5a4304fc9e" y="89.000565"/>
     <use style="fill:#104e8b;fill-opacity:0.95;stroke:#56b4e9;stroke-opacity:0.95;stroke-width:0.8;" x="1073.58668" xlink:href="#m5a4304fc9e" y="88.91952"/>
     <use style="fill:#104e8b;fill-opacity:0.95;stroke:#56b4e9;stroke-opacity:0.95;stroke-width:0.8;" x="1081.449937" xlink:href="#m5a4304fc9e" y="89.081522"/>
     <use style="fill:#104e8b;fill-opacity:0.95;stroke:#56b4e9;stroke-opacity:0.95;stroke-width:0.8;" x="1089.314486" xlink:href="#m5a4304fc9e" y="89.405525"/>
     <use style="fill:#104e8b;fill-opacity:0.95;stroke:#56b4e9;stroke-opacity:0.95;stroke-width:0.8;" x="1097.179035" xlink:href="#m5a4304fc9e" y="89.972399"/>
     <use style="fill:#104e8b;fill-opacity:0.95;stroke:#56b4e9;stroke-opacity:0.95;stroke-width:0.8;" x="1105.042292" xlink:href="#m5a4304fc9e" y="90.863365"/>
     <use style="fill:#104e8b;fill-opacity:0.95;stroke:#56b4e9;stroke-opacity:0.95;stroke-width:0.8;" x="1112.90684" xlink:href="#m5a4304fc9e" y="91.673286"/>
     <use style="fill:#104e8b;fill-opacity:0.95;stroke:#56b4e9;stroke-opacity:0.95;stroke-width:0.8;" x="1120.771389" xlink:href="#m5a4304fc9e" y="92.726165"/>
     <use style="fill:#104e8b;fill-opacity:0.95;stroke:#56b4e9;stroke-opacity:0.95;stroke-width:0.8;" x="1128.634646" xlink:href="#m5a4304fc9e" y="94.103048"/>
     <use style="fill:#104e8b;fill-opacity:0.95;stroke:#56b4e9;stroke-opacity:0.95;stroke-width:0.8;" x="1136.499195" xlink:href="#m5a4304fc9e" y="95.560888"/>
     <use style="fill:#104e8b;fill-opacity:0.95;stroke:#56b4e9;stroke-opacity:0.95;stroke-width:0.8;" x="1144.363744" xlink:href="#m5a4304fc9e" y="97.261686"/>
     <use style="fill:#104e8b;fill-opacity:0.95;stroke:#56b4e9;stroke-opacity:0.95;stroke-width:0.8;" x="2004.296031" xlink:href="#m5a4304fc9e" y="66.758169"/>
     <use style="fill:#104e8b;fill-opacity:0.95;stroke:#56b4e9;stroke-opacity:0.95;stroke-width:0.8;" x="2012.637337" xlink:href="#m5a4304fc9e" y="67.170537"/>
     <use style="fill:#104e8b;fill-opacity:0.95;stroke:#56b4e9;stroke-opacity:0.95;stroke-width:0.8;" x="2020.979935" xlink:href="#m5a4304fc9e" y="67.789001"/>
     <use style="fill:#104e8b;fill-opacity:0.95;stroke:#56b4e9;stroke-opacity:0.95;stroke-width:0.8;" x="2029.322532" xlink:href="#m5a4304fc9e" y="68.510558"/>
     <use style="fill:#104e8b;fill-opacity:0.95;stroke:#56b4e9;stroke-opacity:0.95;stroke-width:0.8;" x="2037.663838" xlink:href="#m5a4304fc9e" y="69.747574"/>
     <use style="fill:#104e8b;fill-opacity:0.95;stroke:#56b4e9;stroke-opacity:0.95;stroke-width:0.8;" x="2046.006436" xlink:href="#m5a4304fc9e" y="71.087594"/>
     <use style="fill:#104e8b;fill-opacity:0.95;stroke:#56b4e9;stroke-opacity:0.95;stroke-width:0.8;" x="2054.349033" xlink:href="#m5a4304fc9e" y="72.530706"/>
     <use style="fill:#104e8b;fill-opacity:0.95;stroke:#56b4e9;stroke-opacity:0.95;stroke-width:0.8;" x="2062.690339" xlink:href="#m5a4304fc9e" y="74.076911"/>
     <use style="fill:#104e8b;fill-opacity:0.95;stroke:#56b4e9;stroke-opacity:0.95;stroke-width:0.8;" x="2071.032937" xlink:href="#m5a4304fc9e" y="75.726207"/>
    </g>
   </g>
   <g id="line2d_18">
    <defs>
     <path d="M 0 1.5 
C 0.397805 1.5 0.77937 1.341951 1.06066 1.06066 
C 1.341951 0.77937 1.5 0.397805 1.5 0 
C 1.5 -0.397805 1.341951 -0.77937 1.06066 -1.06066 
C 0.77937 -1.341951 0.397805 -1.5 0 -1.5 
C -0.397805 -1.5 -0.77937 -1.341951 -1.06066 -1.06066 
C -1.341951 -0.77937 -1.5 -0.397805 -1.5 0 
C -1.5 0.397805 -1.341951 0.77937 -1.06066 1.06066 
C -0.77937 1.341951 -0.397805 1.5 0 1.5 
z
" id="m28e78770af" style="stroke:#fb2c07;stroke-opacity:0.95;stroke-width:0.8;"/>
    </defs>
    <g clip-path="url(#p5efd31a52b)">
     <use style="fill:#ed2200;fill-opacity:0.95;stroke:#fb2c07;stroke-opacity:0.95;stroke-width:0.8;" x="-1" xlink:href="#m28e78770af" y="37.429729"/>
     <use style="fill:#ed2200;fill-opacity:0.95;stroke:#fb2c07;stroke-opacity:0.95;stroke-width:0.8;" x="136.886214" xlink:href="#m28e78770af" y="36.83158"/>
     <use style="fill:#ed2200;fill-opacity:0.95;stroke:#fb2c07;stroke-opacity:0.95;stroke-width:0.8;" x="139.061078" xlink:href="#m28e78770af" y="36.568955"/>
     <use style="fill:#ed2200;fill-opacity:0.95;stroke:#fb2c07;stroke-opacity:0.95;stroke-width:0.8;" x="141.236071" xlink:href="#m28e78770af" y="36.320882"/>
     <use style="fill:#ed2200;fill-opacity:0.95;stroke:#fb2c07;stroke-opacity:0.95;stroke-width:0.8;" x="143.410935" xlink:href="#m28e78770af" y="36.14574"/>
     <use style="fill:#ed2200;fill-opacity:0.95;stroke:#fb2c07;stroke-opacity:0.95;stroke-width:0.8;" x="145.585798" xlink:href="#m28e78770af" y="36.014427"/>
     <use style="fill:#ed2200;fill-opacity:0.95;stroke:#fb2c07;stroke-opacity:0.95;stroke-width:0.8;" x="147.760791" xlink:href="#m28e78770af" y="35.912306"/>
     <use style="fill:#ed2200;fill-opacity:0.95;stroke:#fb2c07;stroke-opacity:0.95;stroke-width:0.8;" x="149.935655" xlink:href="#m28e78770af" y="35.766442"/>
     <use style="fill:#ed2200;fill-opacity:0.95;stroke:#fb2c07;stroke-opacity:0.95;stroke-width:0.8;" x="152.110518" xlink:href="#m28e78770af" y="35.620491"/>
     <use style="fill:#ed2200;fill-opacity:0.95;stroke:#fb2c07;stroke-opacity:0.95;stroke-width:0.8;" x="154.285511" xlink:href="#m28e78770af" y="35.489178"/>
     <use style="fill:#ed2200;fill-opacity:0.95;stroke:#fb2c07;stroke-opacity:0.95;stroke-width:0.8;" x="156.460375" xlink:href="#m28e78770af" y="35.416247"/>
     <use style="fill:#ed2200;fill-opacity:0.95;stroke:#fb2c07;stroke-opacity:0.95;stroke-width:0.8;" x="158.635239" xlink:href="#m28e78770af" y="35.357866"/>
     <use style="fill:#ed2200;fill-opacity:0.95;stroke:#fb2c07;stroke-opacity:0.95;stroke-width:0.8;" x="160.810232" xlink:href="#m28e78770af" y="35.284934"/>
     <use style="fill:#ed2200;fill-opacity:0.95;stroke:#fb2c07;stroke-opacity:0.95;stroke-width:0.8;" x="162.985095" xlink:href="#m28e78770af" y="35.197363"/>
     <use style="fill:#ed2200;fill-opacity:0.95;stroke:#fb2c07;stroke-opacity:0.95;stroke-width:0.8;" x="165.159959" xlink:href="#m28e78770af" y="35.138983"/>
     <use style="fill:#ed2200;fill-opacity:0.95;stroke:#fb2c07;stroke-opacity:0.95;stroke-width:0.8;" x="167.334952" xlink:href="#m28e78770af" y="35.095242"/>
     <use style="fill:#ed2200;fill-opacity:0.95;stroke:#fb2c07;stroke-opacity:0.95;stroke-width:0.8;" x="169.509815" xlink:href="#m28e78770af" y="35.007671"/>
     <use style="fill:#ed2200;fill-opacity:0.95;stroke:#fb2c07;stroke-opacity:0.95;stroke-width:0.8;" x="171.684679" xlink:href="#m28e78770af" y="34.99312"/>
     <use style="fill:#ed2200;fill-opacity:0.95;stroke:#fb2c07;stroke-opacity:0.95;stroke-width:0.8;" x="173.859672" xlink:href="#m28e78770af" y="34.99312"/>
     <use style="fill:#ed2200;fill-opacity:0.95;stroke:#fb2c07;stroke-opacity:0.95;stroke-width:0.8;" x="176.034536" xlink:href="#m28e78770af" y="34.99312"/>
     <use style="fill:#ed2200;fill-opacity:0.95;stroke:#fb2c07;stroke-opacity:0.95;stroke-width:0.8;" x="178.209399" xlink:href="#m28e78770af" y="35.036861"/>
     <use style="fill:#ed2200;fill-opacity:0.95;stroke:#fb2c07;stroke-opacity:0.95;stroke-width:0.8;" x="180.384392" xlink:href="#m28e78770af" y="35.022222"/>
     <use style="fill:#ed2200;fill-opacity:0.95;stroke:#fb2c07;stroke-opacity:0.95;stroke-width:0.8;" x="182.559256" xlink:href="#m28e78770af" y="34.99312"/>
     <use style="fill:#ed2200;fill-opacity:0.95;stroke:#fb2c07;stroke-opacity:0.95;stroke-width:0.8;" x="184.73412" xlink:href="#m28e78770af" y="35.036861"/>
     <use style="fill:#ed2200;fill-opacity:0.95;stroke:#fb2c07;stroke-opacity:0.95;stroke-width:0.8;" x="186.909113" xlink:href="#m28e78770af" y="34.99312"/>
     <use style="fill:#ed2200;fill-opacity:0.95;stroke:#fb2c07;stroke-opacity:0.95;stroke-width:0.8;" x="189.083976" xlink:href="#m28e78770af" y="35.095242"/>
     <use style="fill:#ed2200;fill-opacity:0.95;stroke:#fb2c07;stroke-opacity:0.95;stroke-width:0.8;" x="191.25884" xlink:href="#m28e78770af" y="35.095242"/>
     <use style="fill:#ed2200;fill-opacity:0.95;stroke:#fb2c07;stroke-opacity:0.95;stroke-width:0.8;" x="193.433833" xlink:href="#m28e78770af" y="35.153622"/>
     <use style="fill:#ed2200;fill-opacity:0.95;stroke:#fb2c07;stroke-opacity:0.95;stroke-width:0.8;" x="195.608696" xlink:href="#m28e78770af" y="35.255744"/>
     <use style="fill:#ed2200;fill-opacity:0.95;stroke:#fb2c07;stroke-opacity:0.95;stroke-width:0.8;" x="197.78356" xlink:href="#m28e78770af" y="35.401607"/>
     <use style="fill:#ed2200;fill-opacity:0.95;stroke:#fb2c07;stroke-opacity:0.95;stroke-width:0.8;" x="199.958553" xlink:href="#m28e78770af" y="35.474627"/>
     <use style="fill:#ed2200;fill-opacity:0.95;stroke:#fb2c07;stroke-opacity:0.95;stroke-width:0.8;" x="202.133417" xlink:href="#m28e78770af" y="35.693422"/>
     <use style="fill:#ed2200;fill-opacity:0.95;stroke:#fb2c07;stroke-opacity:0.95;stroke-width:0.8;" x="1025.798595" xlink:href="#m28e78770af" y="42.780758"/>
     <use style="fill:#ed2200;fill-opacity:0.95;stroke:#fb2c07;stroke-opacity:0.95;stroke-width:0.8;" x="1029.920151" xlink:href="#m28e78770af" y="42.23161"/>
     <use style="fill:#ed2200;fill-opacity:0.95;stroke:#fb2c07;stroke-opacity:0.95;stroke-width:0.8;" x="1034.041707" xlink:href="#m28e78770af" y="41.926567"/>
     <use style="fill:#ed2200;fill-opacity:0.95;stroke:#fb2c07;stroke-opacity:0.95;stroke-width:0.8;" x="1038.163263" xlink:href="#m28e78770af" y="41.621524"/>
     <use style="fill:#ed2200;fill-opacity:0.95;stroke:#fb2c07;stroke-opacity:0.95;stroke-width:0.8;" x="1042.284819" xlink:href="#m28e78770af" y="41.011437"/>
     <use style="fill:#ed2200;fill-opacity:0.95;stroke:#fb2c07;stroke-opacity:0.95;stroke-width:0.8;" x="1046.406375" xlink:href="#m28e78770af" y="40.645368"/>
     <use style="fill:#ed2200;fill-opacity:0.95;stroke:#fb2c07;stroke-opacity:0.95;stroke-width:0.8;" x="1050.527931" xlink:href="#m28e78770af" y="40.157334"/>
     <use style="fill:#ed2200;fill-opacity:0.95;stroke:#fb2c07;stroke-opacity:0.95;stroke-width:0.8;" x="1054.649487" xlink:href="#m28e78770af" y="39.730239"/>
     <use style="fill:#ed2200;fill-opacity:0.95;stroke:#fb2c07;stroke-opacity:0.95;stroke-width:0.8;" x="1058.771043" xlink:href="#m28e78770af" y="39.974256"/>
     <use style="fill:#ed2200;fill-opacity:0.95;stroke:#fb2c07;stroke-opacity:0.95;stroke-width:0.8;" x="1062.892599" xlink:href="#m28e78770af" y="39.364169"/>
     <use style="fill:#ed2200;fill-opacity:0.95;stroke:#fb2c07;stroke-opacity:0.95;stroke-width:0.8;" x="1067.014155" xlink:href="#m28e78770af" y="38.937074"/>
     <use style="fill:#ed2200;fill-opacity:0.95;stroke:#fb2c07;stroke-opacity:0.95;stroke-width:0.8;" x="1071.135711" xlink:href="#m28e78770af" y="38.815109"/>
     <use style="fill:#ed2200;fill-opacity:0.95;stroke:#fb2c07;stroke-opacity:0.95;stroke-width:0.8;" x="1075.257267" xlink:href="#m28e78770af" y="38.326988"/>
     <use style="fill:#ed2200;fill-opacity:0.95;stroke:#fb2c07;stroke-opacity:0.95;stroke-width:0.8;" x="1079.378823" xlink:href="#m28e78770af" y="38.204935"/>
     <use style="fill:#ed2200;fill-opacity:0.95;stroke:#fb2c07;stroke-opacity:0.95;stroke-width:0.8;" x="1083.500379" xlink:href="#m28e78770af" y="38.082971"/>
     <use style="fill:#ed2200;fill-opacity:0.95;stroke:#fb2c07;stroke-opacity:0.95;stroke-width:0.8;" x="1087.621935" xlink:href="#m28e78770af" y="38.021944"/>
     <use style="fill:#ed2200;fill-opacity:0.95;stroke:#fb2c07;stroke-opacity:0.95;stroke-width:0.8;" x="1091.74349" xlink:href="#m28e78770af" y="37.899892"/>
     <use style="fill:#ed2200;fill-opacity:0.95;stroke:#fb2c07;stroke-opacity:0.95;stroke-width:0.8;" x="1095.865046" xlink:href="#m28e78770af" y="37.838954"/>
     <use style="fill:#ed2200;fill-opacity:0.95;stroke:#fb2c07;stroke-opacity:0.95;stroke-width:0.8;" x="1099.986602" xlink:href="#m28e78770af" y="37.655875"/>
     <use style="fill:#ed2200;fill-opacity:0.95;stroke:#fb2c07;stroke-opacity:0.95;stroke-width:0.8;" x="1104.108158" xlink:href="#m28e78770af" y="37.655875"/>
     <use style="fill:#ed2200;fill-opacity:0.95;stroke:#fb2c07;stroke-opacity:0.95;stroke-width:0.8;" x="1108.229714" xlink:href="#m28e78770af" y="37.716901"/>
     <use style="fill:#ed2200;fill-opacity:0.95;stroke:#fb2c07;stroke-opacity:0.95;stroke-width:0.8;" x="1112.35127" xlink:href="#m28e78770af" y="37.899892"/>
     <use style="fill:#ed2200;fill-opacity:0.95;stroke:#fb2c07;stroke-opacity:0.95;stroke-width:0.8;" x="1116.472826" xlink:href="#m28e78770af" y="38.143997"/>
     <use style="fill:#ed2200;fill-opacity:0.95;stroke:#fb2c07;stroke-opacity:0.95;stroke-width:0.8;" x="1120.594382" xlink:href="#m28e78770af" y="38.265961"/>
     <use style="fill:#ed2200;fill-opacity:0.95;stroke:#fb2c07;stroke-opacity:0.95;stroke-width:0.8;" x="1124.715938" xlink:href="#m28e78770af" y="38.44904"/>
     <use style="fill:#ed2200;fill-opacity:0.95;stroke:#fb2c07;stroke-opacity:0.95;stroke-width:0.8;" x="1128.837494" xlink:href="#m28e78770af" y="38.571004"/>
     <use style="fill:#ed2200;fill-opacity:0.95;stroke:#fb2c07;stroke-opacity:0.95;stroke-width:0.8;" x="1132.95905" xlink:href="#m28e78770af" y="38.9981"/>
     <use style="fill:#ed2200;fill-opacity:0.95;stroke:#fb2c07;stroke-opacity:0.95;stroke-width:0.8;" x="1137.080606" xlink:href="#m28e78770af" y="39.242117"/>
     <use style="fill:#ed2200;fill-opacity:0.95;stroke:#fb2c07;stroke-opacity:0.95;stroke-width:0.8;" x="1141.202162" xlink:href="#m28e78770af" y="39.54716"/>
     <use style="fill:#ed2200;fill-opacity:0.95;stroke:#fb2c07;stroke-opacity:0.95;stroke-width:0.8;" x="1145.323718" xlink:href="#m28e78770af" y="39.974256"/>
     <use style="fill:#ed2200;fill-opacity:0.95;stroke:#fb2c07;stroke-opacity:0.95;stroke-width:0.8;" x="1149.445274" xlink:href="#m28e78770af" y="40.035282"/>
    </g>
   </g>
   <g id="line2d_19">
    <path clip-path="url(#p5efd31a52b)" d="M 29.509949 -1 
L 39.661617 126.948624 
L 45.093549 179.023249 
L 50.52548 125.028783 
L 55.957412 122.3311 
L 61.389344 119.767052 
L 66.821276 117.337477 
L 72.253208 115.041338 
L 77.68514 112.877614 
L 83.117072 110.845415 
L 88.549004 108.943954 
L 93.980936 107.172506 
L 99.412868 105.530396 
L 104.8448 104.016981 
L 110.276732 102.631653 
L 115.708664 101.373834 
L 121.140596 100.24298 
L 126.572528 99.238576 
L 132.004459 98.360141 
L 137.436391 97.607229 
L 142.868323 96.979426 
L 148.300255 96.47635 
L 153.732187 96.097652 
L 159.164119 95.843012 
L 164.596051 95.712136 
L 170.027983 95.704755 
L 175.459915 95.82062 
L 180.891847 96.059497 
L 186.323779 96.421162 
L 191.755711 96.905392 
L 197.187643 97.511958 
L 202.619575 98.240613 
L 208.051507 99.091082 
L 213.483438 100.063042 
L 218.91537 101.156108 
L 224.347302 102.369805 
L 229.779234 103.703546 
L 235.211166 105.156591 
L 240.643098 106.728014 
L 251.506962 110.221035 
L 262.370826 114.169337 
L 273.23469 118.552477 
L 278.666622 120.897409 
L 284.098554 137.769003 
L 289 165.810977 
L 289 165.810977 
" style="fill:none;stroke:#004ba8;stroke-linecap:square;stroke-width:0.9;"/>
   </g>
   <g id="line2d_20">
    <path clip-path="url(#p5efd31a52b)" d="M -1 179.463056 
L 7.070025 179.485441 
L 17.933889 179.764997 
L 23.365821 174.841888 
L 28.797753 137.563845 
L 34.229685 134.109491 
L 39.661617 130.929481 
L 45.093549 135.875656 
L 50.52548 173.977183 
L 55.957412 109.823074 
L 61.389344 53.154087 
L 66.821276 49.597083 
L 72.253208 47.961587 
L 83.117072 45.104614 
L 93.980936 42.606475 
L 104.8448 40.441658 
L 115.708664 38.613696 
L 126.572528 37.130721 
L 137.436391 36.00081 
L 148.300255 35.230662 
L 159.164119 34.825208 
L 170.027983 34.787548 
L 180.891847 35.118993 
L 191.755711 35.819148 
L 202.619575 36.886056 
L 213.483438 38.31645 
L 224.347302 40.106315 
L 235.211166 42.252252 
L 246.07503 44.755281 
L 256.938894 47.63571 
L 262.370826 49.250802 
L 267.802758 51.13652 
L 273.23469 73.514366 
L 278.666622 137.087273 
L 284.098554 172.736698 
L 289 130.551518 
L 289 130.551518 
" style="fill:none;stroke:#990000;stroke-linecap:square;stroke-width:0.9;"/>
   </g>
   <g id="patch_3">
    <path d="M 60.14 160.72 
L 60.14 10.8 
" style="fill:none;stroke:#2b2b2b;stroke-linecap:square;stroke-linejoin:miter;stroke-width:0.8;"/>
   </g>
   <g id="patch_4">
    <path d="M 277.2 160.72 
L 277.2 10.8 
" style="fill:none;stroke:#2b2b2b;stroke-linecap:square;stroke-linejoin:miter;stroke-width:0.8;"/>
   </g>
   <g id="patch_5">
    <path d="M 60.14 160.72 
L 277.2 160.72 
" style="fill:none;stroke:#2b2b2b;stroke-linecap:square;stroke-linejoin:miter;stroke-width:0.8;"/>
   </g>
   <g id="patch_6">
    <path d="M 60.14 10.8 
L 277.2 10.8 
" style="fill:none;stroke:#2b2b2b;stroke-linecap:square;stroke-linejoin:miter;stroke-width:0.8;"/>
   </g>
  </g>
 </g>
 <defs>
  <clipPath id="p5efd31a52b">
   <rect height="149.92" width="217.06" x="60.14" y="10.8"/>
  </clipPath>
 </defs>
</svg>
