<?xml version="1.0" encoding="utf-8" standalone="no"?>
<!DOCTYPE svg PUBLIC "-//W3C//DTD SVG 1.1//EN"
  "http://www.w3.org/Graphics/SVG/1.1/DTD/svg11.dtd">
<!-- Created with matplotlib (https://matplotlib.org/) -->
<svg height="216pt" version="1.1" viewBox="0 0 288 216" width="288pt" xmlns="http://www.w3.org/2000/svg" xmlns:xlink="http://www.w3.org/1999/xlink">
 <defs>
  <style type="text/css">
*{stroke-linecap:butt;stroke-linejoin:round;}
  </style>
 </defs>
 <g id="figure_1">
  <g id="patch_1">
   <path d="M 0 216 
L 288 216 
L 288 0 
L 0 0 
z
" style="fill:none;"/>
  </g>
  <g id="axes_1">
   <g id="patch_2">
    <path d="M 53.075 166.48 
L 276.364003 166.48 
L 276.364003 14.94 
L 53.075 14.94 
z
" style="fill:none;"/>
   </g>
   <g id="matplotlib.axis_1">
    <g id="xtick_1">
     <g id="line2d_1">
      <path clip-path="url(#p845cdf1b7e)" d="M 90.289834 166.48 
L 90.289834 14.94 
" style="fill:none;stroke:#b2b2b2;stroke-dasharray:2.96,1.28;stroke-dashoffset:0;stroke-opacity:0.3;stroke-width:0.8;"/>
     </g>
     <g id="line2d_2">
      <defs>
       <path d="M 0 0 
L 0 3.5 
" id="m1c5cc34af9" style="stroke:#2b2b2b;stroke-width:0.8;"/>
      </defs>
      <g>
       <use style="fill:#2b2b2b;stroke:#2b2b2b;stroke-width:0.8;" x="90.289834" xlink:href="#m1c5cc34af9" y="166.48"/>
      </g>
     </g>
     <g id="text_1">
      <!-- −2 -->
      <defs>
       <path d="M 10.59375 35.5 
L 73.1875 35.5 
L 73.1875 27.203125 
L 10.59375 27.203125 
z
" id="DejaVuSans-8722"/>
       <path d="M 19.1875 8.296875 
L 53.609375 8.296875 
L 53.609375 0 
L 7.328125 0 
L 7.328125 8.296875 
Q 12.9375 14.109375 22.625 23.890625 
Q 32.328125 33.6875 34.8125 36.53125 
Q 39.546875 41.84375 41.421875 45.53125 
Q 43.3125 49.21875 43.3125 52.78125 
Q 43.3125 58.59375 39.234375 62.25 
Q 35.15625 65.921875 28.609375 65.921875 
Q 23.96875 65.921875 18.8125 64.3125 
Q 13.671875 62.703125 7.8125 59.421875 
L 7.8125 69.390625 
Q 13.765625 71.78125 18.9375 73 
Q 24.125 74.21875 28.421875 74.21875 
Q 39.75 74.21875 46.484375 68.546875 
Q 53.21875 62.890625 53.21875 53.421875 
Q 53.21875 48.921875 51.53125 44.890625 
Q 49.859375 40.875 45.40625 35.40625 
Q 44.1875 33.984375 37.640625 27.21875 
Q 31.109375 20.453125 19.1875 8.296875 
z
" id="DejaVuSans-50"/>
      </defs>
      <g style="fill:#2b2b2b;" transform="translate(82.181631 181.838281)scale(0.11 -0.11)">
       <use xlink:href="#DejaVuSans-8722"/>
       <use x="83.789062" xlink:href="#DejaVuSans-50"/>
      </g>
     </g>
    </g>
    <g id="xtick_2">
     <g id="line2d_3">
      <path clip-path="url(#p845cdf1b7e)" d="M 127.504668 166.48 
L 127.504668 14.94 
" style="fill:none;stroke:#b2b2b2;stroke-dasharray:2.96,1.28;stroke-dashoffset:0;stroke-opacity:0.3;stroke-width:0.8;"/>
     </g>
     <g id="line2d_4">
      <g>
       <use style="fill:#2b2b2b;stroke:#2b2b2b;stroke-width:0.8;" x="127.504668" xlink:href="#m1c5cc34af9" y="166.48"/>
      </g>
     </g>
     <g id="text_2">
      <!-- −1 -->
      <defs>
       <path d="M 12.40625 8.296875 
L 28.515625 8.296875 
L 28.515625 63.921875 
L 10.984375 60.40625 
L 10.984375 69.390625 
L 28.421875 72.90625 
L 38.28125 72.90625 
L 38.28125 8.296875 
L 54.390625 8.296875 
L 54.390625 0 
L 12.40625 0 
z
" id="DejaVuSans-49"/>
      </defs>
      <g style="fill:#2b2b2b;" transform="translate(119.396465 181.838281)scale(0.11 -0.11)">
       <use xlink:href="#DejaVuSans-8722"/>
       <use x="83.789062" xlink:href="#DejaVuSans-49"/>
      </g>
     </g>
    </g>
    <g id="xtick_3">
     <g id="line2d_5">
      <path clip-path="url(#p845cdf1b7e)" d="M 164.719502 166.48 
L 164.719502 14.94 
" style="fill:none;stroke:#b2b2b2;stroke-dasharray:2.96,1.28;stroke-dashoffset:0;stroke-opacity:0.3;stroke-width:0.8;"/>
     </g>
     <g id="line2d_6">
      <g>
       <use style="fill:#2b2b2b;stroke:#2b2b2b;stroke-width:0.8;" x="164.719502" xlink:href="#m1c5cc34af9" y="166.48"/>
      </g>
     </g>
     <g id="text_3">
      <!-- 0 -->
      <defs>
       <path d="M 31.78125 66.40625 
Q 24.171875 66.40625 20.328125 58.90625 
Q 16.5 51.421875 16.5 36.375 
Q 16.5 21.390625 20.328125 13.890625 
Q 24.171875 6.390625 31.78125 6.390625 
Q 39.453125 6.390625 43.28125 13.890625 
Q 47.125 21.390625 47.125 36.375 
Q 47.125 51.421875 43.28125 58.90625 
Q 39.453125 66.40625 31.78125 66.40625 
z
M 31.78125 74.21875 
Q 44.046875 74.21875 50.515625 64.515625 
Q 56.984375 54.828125 56.984375 36.375 
Q 56.984375 17.96875 50.515625 8.265625 
Q 44.046875 -1.421875 31.78125 -1.421875 
Q 19.53125 -1.421875 13.0625 8.265625 
Q 6.59375 17.96875 6.59375 36.375 
Q 6.59375 54.828125 13.0625 64.515625 
Q 19.53125 74.21875 31.78125 74.21875 
z
" id="DejaVuSans-48"/>
      </defs>
      <g style="fill:#2b2b2b;" transform="translate(161.220127 181.838281)scale(0.11 -0.11)">
       <use xlink:href="#DejaVuSans-48"/>
      </g>
     </g>
    </g>
    <g id="xtick_4">
     <g id="line2d_7">
      <path clip-path="url(#p845cdf1b7e)" d="M 201.934335 166.48 
L 201.934335 14.94 
" style="fill:none;stroke:#b2b2b2;stroke-dasharray:2.96,1.28;stroke-dashoffset:0;stroke-opacity:0.3;stroke-width:0.8;"/>
     </g>
     <g id="line2d_8">
      <g>
       <use style="fill:#2b2b2b;stroke:#2b2b2b;stroke-width:0.8;" x="201.934335" xlink:href="#m1c5cc34af9" y="166.48"/>
      </g>
     </g>
     <g id="text_4">
      <!-- 1 -->
      <g style="fill:#2b2b2b;" transform="translate(198.43496 181.838281)scale(0.11 -0.11)">
       <use xlink:href="#DejaVuSans-49"/>
      </g>
     </g>
    </g>
    <g id="xtick_5">
     <g id="line2d_9">
      <path clip-path="url(#p845cdf1b7e)" d="M 239.149169 166.48 
L 239.149169 14.94 
" style="fill:none;stroke:#b2b2b2;stroke-dasharray:2.96,1.28;stroke-dashoffset:0;stroke-opacity:0.3;stroke-width:0.8;"/>
     </g>
     <g id="line2d_10">
      <g>
       <use style="fill:#2b2b2b;stroke:#2b2b2b;stroke-width:0.8;" x="239.149169" xlink:href="#m1c5cc34af9" y="166.48"/>
      </g>
     </g>
     <g id="text_5">
      <!-- 2 -->
      <g style="fill:#2b2b2b;" transform="translate(235.649794 181.838281)scale(0.11 -0.11)">
       <use xlink:href="#DejaVuSans-50"/>
      </g>
     </g>
    </g>
    <g id="text_6">
     <!-- Normalized Magnetic Flux ($\Phi/\Phi_0$) -->
     <defs>
      <path d="M 9.8125 72.90625 
L 23.09375 72.90625 
L 55.421875 11.921875 
L 55.421875 72.90625 
L 64.984375 72.90625 
L 64.984375 0 
L 51.703125 0 
L 19.390625 60.984375 
L 19.390625 0 
L 9.8125 0 
z
" id="DejaVuSans-78"/>
      <path d="M 30.609375 48.390625 
Q 23.390625 48.390625 19.1875 42.75 
Q 14.984375 37.109375 14.984375 27.296875 
Q 14.984375 17.484375 19.15625 11.84375 
Q 23.34375 6.203125 30.609375 6.203125 
Q 37.796875 6.203125 41.984375 11.859375 
Q 46.1875 17.53125 46.1875 27.296875 
Q 46.1875 37.015625 41.984375 42.703125 
Q 37.796875 48.390625 30.609375 48.390625 
z
M 30.609375 56 
Q 42.328125 56 49.015625 48.375 
Q 55.71875 40.765625 55.71875 27.296875 
Q 55.71875 13.875 49.015625 6.21875 
Q 42.328125 -1.421875 30.609375 -1.421875 
Q 18.84375 -1.421875 12.171875 6.21875 
Q 5.515625 13.875 5.515625 27.296875 
Q 5.515625 40.765625 12.171875 48.375 
Q 18.84375 56 30.609375 56 
z
" id="DejaVuSans-111"/>
      <path d="M 41.109375 46.296875 
Q 39.59375 47.171875 37.8125 47.578125 
Q 36.03125 48 33.890625 48 
Q 26.265625 48 22.1875 43.046875 
Q 18.109375 38.09375 18.109375 28.8125 
L 18.109375 0 
L 9.078125 0 
L 9.078125 54.6875 
L 18.109375 54.6875 
L 18.109375 46.1875 
Q 20.953125 51.171875 25.484375 53.578125 
Q 30.03125 56 36.53125 56 
Q 37.453125 56 38.578125 55.875 
Q 39.703125 55.765625 41.0625 55.515625 
z
" id="DejaVuSans-114"/>
      <path d="M 52 44.1875 
Q 55.375 50.25 60.0625 53.125 
Q 64.75 56 71.09375 56 
Q 79.640625 56 84.28125 50.015625 
Q 88.921875 44.046875 88.921875 33.015625 
L 88.921875 0 
L 79.890625 0 
L 79.890625 32.71875 
Q 79.890625 40.578125 77.09375 44.375 
Q 74.3125 48.1875 68.609375 48.1875 
Q 61.625 48.1875 57.5625 43.546875 
Q 53.515625 38.921875 53.515625 30.90625 
L 53.515625 0 
L 44.484375 0 
L 44.484375 32.71875 
Q 44.484375 40.625 41.703125 44.40625 
Q 38.921875 48.1875 33.109375 48.1875 
Q 26.21875 48.1875 22.15625 43.53125 
Q 18.109375 38.875 18.109375 30.90625 
L 18.109375 0 
L 9.078125 0 
L 9.078125 54.6875 
L 18.109375 54.6875 
L 18.109375 46.1875 
Q 21.1875 51.21875 25.484375 53.609375 
Q 29.78125 56 35.6875 56 
Q 41.65625 56 45.828125 52.96875 
Q 50 49.953125 52 44.1875 
z
" id="DejaVuSans-109"/>
      <path d="M 34.28125 27.484375 
Q 23.390625 27.484375 19.1875 25 
Q 14.984375 22.515625 14.984375 16.5 
Q 14.984375 11.71875 18.140625 8.90625 
Q 21.296875 6.109375 26.703125 6.109375 
Q 34.1875 6.109375 38.703125 11.40625 
Q 43.21875 16.703125 43.21875 25.484375 
L 43.21875 27.484375 
z
M 52.203125 31.203125 
L 52.203125 0 
L 43.21875 0 
L 43.21875 8.296875 
Q 40.140625 3.328125 35.546875 0.953125 
Q 30.953125 -1.421875 24.3125 -1.421875 
Q 15.921875 -1.421875 10.953125 3.296875 
Q 6 8.015625 6 15.921875 
Q 6 25.140625 12.171875 29.828125 
Q 18.359375 34.515625 30.609375 34.515625 
L 43.21875 34.515625 
L 43.21875 35.40625 
Q 43.21875 41.609375 39.140625 45 
Q 35.0625 48.390625 27.6875 48.390625 
Q 23 48.390625 18.546875 47.265625 
Q 14.109375 46.140625 10.015625 43.890625 
L 10.015625 52.203125 
Q 14.9375 54.109375 19.578125 55.046875 
Q 24.21875 56 28.609375 56 
Q 40.484375 56 46.34375 49.84375 
Q 52.203125 43.703125 52.203125 31.203125 
z
" id="DejaVuSans-97"/>
      <path d="M 9.421875 75.984375 
L 18.40625 75.984375 
L 18.40625 0 
L 9.421875 0 
z
" id="DejaVuSans-108"/>
      <path d="M 9.421875 54.6875 
L 18.40625 54.6875 
L 18.40625 0 
L 9.421875 0 
z
M 9.421875 75.984375 
L 18.40625 75.984375 
L 18.40625 64.59375 
L 9.421875 64.59375 
z
" id="DejaVuSans-105"/>
      <path d="M 5.515625 54.6875 
L 48.1875 54.6875 
L 48.1875 46.484375 
L 14.40625 7.171875 
L 48.1875 7.171875 
L 48.1875 0 
L 4.296875 0 
L 4.296875 8.203125 
L 38.09375 47.515625 
L 5.515625 47.515625 
z
" id="DejaVuSans-122"/>
      <path d="M 56.203125 29.59375 
L 56.203125 25.203125 
L 14.890625 25.203125 
Q 15.484375 15.921875 20.484375 11.0625 
Q 25.484375 6.203125 34.421875 6.203125 
Q 39.59375 6.203125 44.453125 7.46875 
Q 49.3125 8.734375 54.109375 11.28125 
L 54.109375 2.78125 
Q 49.265625 0.734375 44.1875 -0.34375 
Q 39.109375 -1.421875 33.890625 -1.421875 
Q 20.796875 -1.421875 13.15625 6.1875 
Q 5.515625 13.8125 5.515625 26.8125 
Q 5.515625 40.234375 12.765625 48.109375 
Q 20.015625 56 32.328125 56 
Q 43.359375 56 49.78125 48.890625 
Q 56.203125 41.796875 56.203125 29.59375 
z
M 47.21875 32.234375 
Q 47.125 39.59375 43.09375 43.984375 
Q 39.0625 48.390625 32.421875 48.390625 
Q 24.90625 48.390625 20.390625 44.140625 
Q 15.875 39.890625 15.1875 32.171875 
z
" id="DejaVuSans-101"/>
      <path d="M 45.40625 46.390625 
L 45.40625 75.984375 
L 54.390625 75.984375 
L 54.390625 0 
L 45.40625 0 
L 45.40625 8.203125 
Q 42.578125 3.328125 38.25 0.953125 
Q 33.9375 -1.421875 27.875 -1.421875 
Q 17.96875 -1.421875 11.734375 6.484375 
Q 5.515625 14.40625 5.515625 27.296875 
Q 5.515625 40.1875 11.734375 48.09375 
Q 17.96875 56 27.875 56 
Q 33.9375 56 38.25 53.625 
Q 42.578125 51.265625 45.40625 46.390625 
z
M 14.796875 27.296875 
Q 14.796875 17.390625 18.875 11.75 
Q 22.953125 6.109375 30.078125 6.109375 
Q 37.203125 6.109375 41.296875 11.75 
Q 45.40625 17.390625 45.40625 27.296875 
Q 45.40625 37.203125 41.296875 42.84375 
Q 37.203125 48.484375 30.078125 48.484375 
Q 22.953125 48.484375 18.875 42.84375 
Q 14.796875 37.203125 14.796875 27.296875 
z
" id="DejaVuSans-100"/>
      <path id="DejaVuSans-32"/>
      <path d="M 9.8125 72.90625 
L 24.515625 72.90625 
L 43.109375 23.296875 
L 61.8125 72.90625 
L 76.515625 72.90625 
L 76.515625 0 
L 66.890625 0 
L 66.890625 64.015625 
L 48.09375 14.015625 
L 38.1875 14.015625 
L 19.390625 64.015625 
L 19.390625 0 
L 9.8125 0 
z
" id="DejaVuSans-77"/>
      <path d="M 45.40625 27.984375 
Q 45.40625 37.75 41.375 43.109375 
Q 37.359375 48.484375 30.078125 48.484375 
Q 22.859375 48.484375 18.828125 43.109375 
Q 14.796875 37.75 14.796875 27.984375 
Q 14.796875 18.265625 18.828125 12.890625 
Q 22.859375 7.515625 30.078125 7.515625 
Q 37.359375 7.515625 41.375 12.890625 
Q 45.40625 18.265625 45.40625 27.984375 
z
M 54.390625 6.78125 
Q 54.390625 -7.171875 48.1875 -13.984375 
Q 42 -20.796875 29.203125 -20.796875 
Q 24.46875 -20.796875 20.265625 -20.09375 
Q 16.0625 -19.390625 12.109375 -17.921875 
L 12.109375 -9.1875 
Q 16.0625 -11.328125 19.921875 -12.34375 
Q 23.78125 -13.375 27.78125 -13.375 
Q 36.625 -13.375 41.015625 -8.765625 
Q 45.40625 -4.15625 45.40625 5.171875 
L 45.40625 9.625 
Q 42.625 4.78125 38.28125 2.390625 
Q 33.9375 0 27.875 0 
Q 17.828125 0 11.671875 7.65625 
Q 5.515625 15.328125 5.515625 27.984375 
Q 5.515625 40.671875 11.671875 48.328125 
Q 17.828125 56 27.875 56 
Q 33.9375 56 38.28125 53.609375 
Q 42.625 51.21875 45.40625 46.390625 
L 45.40625 54.6875 
L 54.390625 54.6875 
z
" id="DejaVuSans-103"/>
      <path d="M 54.890625 33.015625 
L 54.890625 0 
L 45.90625 0 
L 45.90625 32.71875 
Q 45.90625 40.484375 42.875 44.328125 
Q 39.84375 48.1875 33.796875 48.1875 
Q 26.515625 48.1875 22.3125 43.546875 
Q 18.109375 38.921875 18.109375 30.90625 
L 18.109375 0 
L 9.078125 0 
L 9.078125 54.6875 
L 18.109375 54.6875 
L 18.109375 46.1875 
Q 21.34375 51.125 25.703125 53.5625 
Q 30.078125 56 35.796875 56 
Q 45.21875 56 50.046875 50.171875 
Q 54.890625 44.34375 54.890625 33.015625 
z
" id="DejaVuSans-110"/>
      <path d="M 18.3125 70.21875 
L 18.3125 54.6875 
L 36.8125 54.6875 
L 36.8125 47.703125 
L 18.3125 47.703125 
L 18.3125 18.015625 
Q 18.3125 11.328125 20.140625 9.421875 
Q 21.96875 7.515625 27.59375 7.515625 
L 36.8125 7.515625 
L 36.8125 0 
L 27.59375 0 
Q 17.1875 0 13.234375 3.875 
Q 9.28125 7.765625 9.28125 18.015625 
L 9.28125 47.703125 
L 2.6875 47.703125 
L 2.6875 54.6875 
L 9.28125 54.6875 
L 9.28125 70.21875 
z
" id="DejaVuSans-116"/>
      <path d="M 48.78125 52.59375 
L 48.78125 44.1875 
Q 44.96875 46.296875 41.140625 47.34375 
Q 37.3125 48.390625 33.40625 48.390625 
Q 24.65625 48.390625 19.8125 42.84375 
Q 14.984375 37.3125 14.984375 27.296875 
Q 14.984375 17.28125 19.8125 11.734375 
Q 24.65625 6.203125 33.40625 6.203125 
Q 37.3125 6.203125 41.140625 7.25 
Q 44.96875 8.296875 48.78125 10.40625 
L 48.78125 2.09375 
Q 45.015625 0.34375 40.984375 -0.53125 
Q 36.96875 -1.421875 32.421875 -1.421875 
Q 20.0625 -1.421875 12.78125 6.34375 
Q 5.515625 14.109375 5.515625 27.296875 
Q 5.515625 40.671875 12.859375 48.328125 
Q 20.21875 56 33.015625 56 
Q 37.15625 56 41.109375 55.140625 
Q 45.0625 54.296875 48.78125 52.59375 
z
" id="DejaVuSans-99"/>
      <path d="M 9.8125 72.90625 
L 51.703125 72.90625 
L 51.703125 64.59375 
L 19.671875 64.59375 
L 19.671875 43.109375 
L 48.578125 43.109375 
L 48.578125 34.8125 
L 19.671875 34.8125 
L 19.671875 0 
L 9.8125 0 
z
" id="DejaVuSans-70"/>
      <path d="M 8.5 21.578125 
L 8.5 54.6875 
L 17.484375 54.6875 
L 17.484375 21.921875 
Q 17.484375 14.15625 20.5 10.265625 
Q 23.53125 6.390625 29.59375 6.390625 
Q 36.859375 6.390625 41.078125 11.03125 
Q 45.3125 15.671875 45.3125 23.6875 
L 45.3125 54.6875 
L 54.296875 54.6875 
L 54.296875 0 
L 45.3125 0 
L 45.3125 8.40625 
Q 42.046875 3.421875 37.71875 1 
Q 33.40625 -1.421875 27.6875 -1.421875 
Q 18.265625 -1.421875 13.375 4.4375 
Q 8.5 10.296875 8.5 21.578125 
z
M 31.109375 56 
z
" id="DejaVuSans-117"/>
      <path d="M 54.890625 54.6875 
L 35.109375 28.078125 
L 55.90625 0 
L 45.3125 0 
L 29.390625 21.484375 
L 13.484375 0 
L 2.875 0 
L 24.125 28.609375 
L 4.6875 54.6875 
L 15.28125 54.6875 
L 29.78125 35.203125 
L 44.28125 54.6875 
z
" id="DejaVuSans-120"/>
      <path d="M 31 75.875 
Q 24.46875 64.65625 21.28125 53.65625 
Q 18.109375 42.671875 18.109375 31.390625 
Q 18.109375 20.125 21.3125 9.0625 
Q 24.515625 -2 31 -13.1875 
L 23.1875 -13.1875 
Q 15.875 -1.703125 12.234375 9.375 
Q 8.59375 20.453125 8.59375 31.390625 
Q 8.59375 42.28125 12.203125 53.3125 
Q 15.828125 64.359375 23.1875 75.875 
z
" id="DejaVuSans-40"/>
      <path d="M 18.609375 0 
L 18.609375 3.515625 
Q 31.390625 3.515625 31.390625 6.6875 
L 31.390625 13.921875 
Q 21.78125 14.84375 14.5 19.671875 
Q 10.6875 22.265625 8.140625 26.078125 
Q 5.609375 29.890625 5.609375 34.1875 
Q 5.609375 38.421875 8.140625 42.25 
Q 10.6875 46.09375 14.5 48.578125 
Q 18.265625 51.125 22.4375 52.515625 
Q 26.609375 53.90625 31.390625 54.390625 
L 31.390625 61.625 
Q 31.390625 64.796875 18.609375 64.796875 
L 18.609375 68.3125 
L 52.875 68.3125 
L 52.875 64.796875 
Q 40.09375 64.796875 40.09375 61.625 
L 40.09375 54.390625 
Q 44.234375 54.390625 48.875 52.84375 
Q 53.515625 51.3125 57.46875 48.671875 
Q 61.421875 46.046875 63.953125 42.265625 
Q 66.5 38.484375 66.5 34.1875 
Q 66.5 29.890625 63.953125 26.125 
Q 61.421875 22.359375 57.34375 19.625 
Q 53.265625 16.890625 48.625 15.40625 
Q 44 13.921875 40.09375 13.921875 
L 40.09375 6.6875 
Q 40.09375 3.515625 52.875 3.515625 
L 52.875 0 
z
M 40.09375 16.5 
Q 48.140625 17.53125 52.125 21.890625 
Q 56.109375 26.265625 56.109375 34.1875 
Q 56.109375 42.140625 52.078125 46.484375 
Q 48.046875 50.828125 40.09375 51.8125 
z
M 31.390625 16.609375 
L 31.390625 51.703125 
Q 16.015625 49.5625 16.015625 34.1875 
Q 16.015625 18.75 31.390625 16.609375 
z
" id="Cmr10-169"/>
      <path d="M 5.609375 -23 
Q 5.609375 -22.703125 5.71875 -22.609375 
L 40.484375 73.78125 
Q 40.671875 74.359375 41.15625 74.671875 
Q 41.65625 75 42.28125 75 
Q 43.171875 75 43.71875 74.453125 
Q 44.28125 73.921875 44.28125 73 
L 44.28125 72.609375 
L 9.515625 -23.78125 
Q 8.9375 -25 7.625 -25 
Q 6.78125 -25 6.1875 -24.40625 
Q 5.609375 -23.828125 5.609375 -23 
z
" id="Cmmi10-61"/>
      <path d="M 25 -2.203125 
Q 12.75 -2.203125 8.328125 7.875 
Q 3.90625 17.96875 3.90625 31.890625 
Q 3.90625 40.578125 5.484375 48.234375 
Q 7.078125 55.90625 11.78125 61.25 
Q 16.5 66.609375 25 66.609375 
Q 31.59375 66.609375 35.78125 63.375 
Q 39.984375 60.15625 42.1875 55.046875 
Q 44.390625 49.953125 45.1875 44.109375 
Q 46 38.28125 46 31.890625 
Q 46 23.296875 44.40625 15.796875 
Q 42.828125 8.296875 38.1875 3.046875 
Q 33.546875 -2.203125 25 -2.203125 
z
M 25 0.390625 
Q 30.5625 0.390625 33.296875 6.09375 
Q 36.03125 11.8125 36.671875 18.75 
Q 37.3125 25.6875 37.3125 33.5 
Q 37.3125 41.015625 36.671875 47.359375 
Q 36.03125 53.71875 33.3125 58.859375 
Q 30.609375 64.015625 25 64.015625 
Q 19.34375 64.015625 16.609375 58.828125 
Q 13.875 53.65625 13.234375 47.328125 
Q 12.59375 41.015625 12.59375 33.5 
Q 12.59375 27.9375 12.859375 23 
Q 13.140625 18.0625 14.3125 12.8125 
Q 15.484375 7.5625 18.09375 3.96875 
Q 20.703125 0.390625 25 0.390625 
z
" id="Cmr10-48"/>
      <path d="M 8.015625 75.875 
L 15.828125 75.875 
Q 23.140625 64.359375 26.78125 53.3125 
Q 30.421875 42.28125 30.421875 31.390625 
Q 30.421875 20.453125 26.78125 9.375 
Q 23.140625 -1.703125 15.828125 -13.1875 
L 8.015625 -13.1875 
Q 14.5 -2 17.703125 9.0625 
Q 20.90625 20.125 20.90625 31.390625 
Q 20.90625 42.671875 17.703125 53.65625 
Q 14.5 64.65625 8.015625 75.875 
z
" id="DejaVuSans-41"/>
     </defs>
     <g transform="translate(41.044502 199.525937)scale(0.15 -0.15)">
      <use transform="translate(0 0.015625)" xlink:href="#DejaVuSans-78"/>
      <use transform="translate(74.804688 0.015625)" xlink:href="#DejaVuSans-111"/>
      <use transform="translate(135.986328 0.015625)" xlink:href="#DejaVuSans-114"/>
      <use transform="translate(177.099609 0.015625)" xlink:href="#DejaVuSans-109"/>
      <use transform="translate(274.511719 0.015625)" xlink:href="#DejaVuSans-97"/>
      <use transform="translate(335.791016 0.015625)" xlink:href="#DejaVuSans-108"/>
      <use transform="translate(363.574219 0.015625)" xlink:href="#DejaVuSans-105"/>
      <use transform="translate(391.357422 0.015625)" xlink:href="#DejaVuSans-122"/>
      <use transform="translate(443.847656 0.015625)" xlink:href="#DejaVuSans-101"/>
      <use transform="translate(505.371094 0.015625)" xlink:href="#DejaVuSans-100"/>
      <use transform="translate(568.847656 0.015625)" xlink:href="#DejaVuSans-32"/>
      <use transform="translate(600.634766 0.015625)" xlink:href="#DejaVuSans-77"/>
      <use transform="translate(686.914062 0.015625)" xlink:href="#DejaVuSans-97"/>
      <use transform="translate(748.193359 0.015625)" xlink:href="#DejaVuSans-103"/>
      <use transform="translate(811.669922 0.015625)" xlink:href="#DejaVuSans-110"/>
      <use transform="translate(875.048828 0.015625)" xlink:href="#DejaVuSans-101"/>
      <use transform="translate(936.572266 0.015625)" xlink:href="#DejaVuSans-116"/>
      <use transform="translate(975.78125 0.015625)" xlink:href="#DejaVuSans-105"/>
      <use transform="translate(1003.564453 0.015625)" xlink:href="#DejaVuSans-99"/>
      <use transform="translate(1058.544922 0.015625)" xlink:href="#DejaVuSans-32"/>
      <use transform="translate(1090.332031 0.015625)" xlink:href="#DejaVuSans-70"/>
      <use transform="translate(1147.851562 0.015625)" xlink:href="#DejaVuSans-108"/>
      <use transform="translate(1175.634766 0.015625)" xlink:href="#DejaVuSans-117"/>
      <use transform="translate(1239.013672 0.015625)" xlink:href="#DejaVuSans-120"/>
      <use transform="translate(1298.193359 0.015625)" xlink:href="#DejaVuSans-32"/>
      <use transform="translate(1329.980469 0.015625)" xlink:href="#DejaVuSans-40"/>
      <use transform="translate(1368.994141 0.015625)" xlink:href="#Cmr10-169"/>
      <use transform="translate(1441.210938 0.015625)" xlink:href="#Cmmi10-61"/>
      <use transform="translate(1491.210938 0.015625)" xlink:href="#Cmr10-169"/>
      <use transform="translate(1567.891875 -16.990625)scale(0.7)" xlink:href="#Cmr10-48"/>
      <use transform="translate(1609.269219 0.015625)" xlink:href="#DejaVuSans-41"/>
     </g>
    </g>
   </g>
   <g id="matplotlib.axis_2">
    <g id="ytick_1">
     <g id="line2d_11">
      <path clip-path="url(#p845cdf1b7e)" d="M 53.075 166.48 
L 276.364003 166.48 
" style="fill:none;stroke:#b2b2b2;stroke-dasharray:2.96,1.28;stroke-dashoffset:0;stroke-opacity:0.3;stroke-width:0.8;"/>
     </g>
     <g id="line2d_12">
      <defs>
       <path d="M 0 0 
L -3.5 0 
" id="m8ed7f2e238" style="stroke:#2b2b2b;stroke-width:0.8;"/>
      </defs>
      <g>
       <use style="fill:#2b2b2b;stroke:#2b2b2b;stroke-width:0.8;" x="53.075" xlink:href="#m8ed7f2e238" y="166.48"/>
      </g>
     </g>
     <g id="text_7">
      <!-- 8 -->
      <defs>
       <path d="M 31.78125 34.625 
Q 24.75 34.625 20.71875 30.859375 
Q 16.703125 27.09375 16.703125 20.515625 
Q 16.703125 13.921875 20.71875 10.15625 
Q 24.75 6.390625 31.78125 6.390625 
Q 38.8125 6.390625 42.859375 10.171875 
Q 46.921875 13.96875 46.921875 20.515625 
Q 46.921875 27.09375 42.890625 30.859375 
Q 38.875 34.625 31.78125 34.625 
z
M 21.921875 38.8125 
Q 15.578125 40.375 12.03125 44.71875 
Q 8.5 49.078125 8.5 55.328125 
Q 8.5 64.0625 14.71875 69.140625 
Q 20.953125 74.21875 31.78125 74.21875 
Q 42.671875 74.21875 48.875 69.140625 
Q 55.078125 64.0625 55.078125 55.328125 
Q 55.078125 49.078125 51.53125 44.71875 
Q 48 40.375 41.703125 38.8125 
Q 48.828125 37.15625 52.796875 32.3125 
Q 56.78125 27.484375 56.78125 20.515625 
Q 56.78125 9.90625 50.3125 4.234375 
Q 43.84375 -1.421875 31.78125 -1.421875 
Q 19.734375 -1.421875 13.25 4.234375 
Q 6.78125 9.90625 6.78125 20.515625 
Q 6.78125 27.484375 10.78125 32.3125 
Q 14.796875 37.15625 21.921875 38.8125 
z
M 18.3125 54.390625 
Q 18.3125 48.734375 21.84375 45.5625 
Q 25.390625 42.390625 31.78125 42.390625 
Q 38.140625 42.390625 41.71875 45.5625 
Q 45.3125 48.734375 45.3125 54.390625 
Q 45.3125 60.0625 41.71875 63.234375 
Q 38.140625 66.40625 31.78125 66.40625 
Q 25.390625 66.40625 21.84375 63.234375 
Q 18.3125 60.0625 18.3125 54.390625 
z
" id="DejaVuSans-56"/>
      </defs>
      <g style="fill:#2b2b2b;" transform="translate(39.07625 170.659141)scale(0.11 -0.11)">
       <use xlink:href="#DejaVuSans-56"/>
      </g>
     </g>
    </g>
    <g id="ytick_2">
     <g id="line2d_13">
      <path clip-path="url(#p845cdf1b7e)" d="M 53.075 141.223333 
L 276.364003 141.223333 
" style="fill:none;stroke:#b2b2b2;stroke-dasharray:2.96,1.28;stroke-dashoffset:0;stroke-opacity:0.3;stroke-width:0.8;"/>
     </g>
     <g id="line2d_14">
      <g>
       <use style="fill:#2b2b2b;stroke:#2b2b2b;stroke-width:0.8;" x="53.075" xlink:href="#m8ed7f2e238" y="141.223333"/>
      </g>
     </g>
     <g id="text_8">
      <!-- 10 -->
      <g style="fill:#2b2b2b;" transform="translate(32.0775 145.402474)scale(0.11 -0.11)">
       <use xlink:href="#DejaVuSans-49"/>
       <use x="63.623047" xlink:href="#DejaVuSans-48"/>
      </g>
     </g>
    </g>
    <g id="ytick_3">
     <g id="line2d_15">
      <path clip-path="url(#p845cdf1b7e)" d="M 53.075 115.966667 
L 276.364003 115.966667 
" style="fill:none;stroke:#b2b2b2;stroke-dasharray:2.96,1.28;stroke-dashoffset:0;stroke-opacity:0.3;stroke-width:0.8;"/>
     </g>
     <g id="line2d_16">
      <g>
       <use style="fill:#2b2b2b;stroke:#2b2b2b;stroke-width:0.8;" x="53.075" xlink:href="#m8ed7f2e238" y="115.966667"/>
      </g>
     </g>
     <g id="text_9">
      <!-- 12 -->
      <g style="fill:#2b2b2b;" transform="translate(32.0775 120.145807)scale(0.11 -0.11)">
       <use xlink:href="#DejaVuSans-49"/>
       <use x="63.623047" xlink:href="#DejaVuSans-50"/>
      </g>
     </g>
    </g>
    <g id="ytick_4">
     <g id="line2d_17">
      <path clip-path="url(#p845cdf1b7e)" d="M 53.075 90.71 
L 276.364003 90.71 
" style="fill:none;stroke:#b2b2b2;stroke-dasharray:2.96,1.28;stroke-dashoffset:0;stroke-opacity:0.3;stroke-width:0.8;"/>
     </g>
     <g id="line2d_18">
      <g>
       <use style="fill:#2b2b2b;stroke:#2b2b2b;stroke-width:0.8;" x="53.075" xlink:href="#m8ed7f2e238" y="90.71"/>
      </g>
     </g>
     <g id="text_10">
      <!-- 14 -->
      <defs>
       <path d="M 37.796875 64.3125 
L 12.890625 25.390625 
L 37.796875 25.390625 
z
M 35.203125 72.90625 
L 47.609375 72.90625 
L 47.609375 25.390625 
L 58.015625 25.390625 
L 58.015625 17.1875 
L 47.609375 17.1875 
L 47.609375 0 
L 37.796875 0 
L 37.796875 17.1875 
L 4.890625 17.1875 
L 4.890625 26.703125 
z
" id="DejaVuSans-52"/>
      </defs>
      <g style="fill:#2b2b2b;" transform="translate(32.0775 94.889141)scale(0.11 -0.11)">
       <use xlink:href="#DejaVuSans-49"/>
       <use x="63.623047" xlink:href="#DejaVuSans-52"/>
      </g>
     </g>
    </g>
    <g id="ytick_5">
     <g id="line2d_19">
      <path clip-path="url(#p845cdf1b7e)" d="M 53.075 65.453333 
L 276.364003 65.453333 
" style="fill:none;stroke:#b2b2b2;stroke-dasharray:2.96,1.28;stroke-dashoffset:0;stroke-opacity:0.3;stroke-width:0.8;"/>
     </g>
     <g id="line2d_20">
      <g>
       <use style="fill:#2b2b2b;stroke:#2b2b2b;stroke-width:0.8;" x="53.075" xlink:href="#m8ed7f2e238" y="65.453333"/>
      </g>
     </g>
     <g id="text_11">
      <!-- 16 -->
      <defs>
       <path d="M 33.015625 40.375 
Q 26.375 40.375 22.484375 35.828125 
Q 18.609375 31.296875 18.609375 23.390625 
Q 18.609375 15.53125 22.484375 10.953125 
Q 26.375 6.390625 33.015625 6.390625 
Q 39.65625 6.390625 43.53125 10.953125 
Q 47.40625 15.53125 47.40625 23.390625 
Q 47.40625 31.296875 43.53125 35.828125 
Q 39.65625 40.375 33.015625 40.375 
z
M 52.59375 71.296875 
L 52.59375 62.3125 
Q 48.875 64.0625 45.09375 64.984375 
Q 41.3125 65.921875 37.59375 65.921875 
Q 27.828125 65.921875 22.671875 59.328125 
Q 17.53125 52.734375 16.796875 39.40625 
Q 19.671875 43.65625 24.015625 45.921875 
Q 28.375 48.1875 33.59375 48.1875 
Q 44.578125 48.1875 50.953125 41.515625 
Q 57.328125 34.859375 57.328125 23.390625 
Q 57.328125 12.15625 50.6875 5.359375 
Q 44.046875 -1.421875 33.015625 -1.421875 
Q 20.359375 -1.421875 13.671875 8.265625 
Q 6.984375 17.96875 6.984375 36.375 
Q 6.984375 53.65625 15.1875 63.9375 
Q 23.390625 74.21875 37.203125 74.21875 
Q 40.921875 74.21875 44.703125 73.484375 
Q 48.484375 72.75 52.59375 71.296875 
z
" id="DejaVuSans-54"/>
      </defs>
      <g style="fill:#2b2b2b;" transform="translate(32.0775 69.632474)scale(0.11 -0.11)">
       <use xlink:href="#DejaVuSans-49"/>
       <use x="63.623047" xlink:href="#DejaVuSans-54"/>
      </g>
     </g>
    </g>
    <g id="ytick_6">
     <g id="line2d_21">
      <path clip-path="url(#p845cdf1b7e)" d="M 53.075 40.196667 
L 276.364003 40.196667 
" style="fill:none;stroke:#b2b2b2;stroke-dasharray:2.96,1.28;stroke-dashoffset:0;stroke-opacity:0.3;stroke-width:0.8;"/>
     </g>
     <g id="line2d_22">
      <g>
       <use style="fill:#2b2b2b;stroke:#2b2b2b;stroke-width:0.8;" x="53.075" xlink:href="#m8ed7f2e238" y="40.196667"/>
      </g>
     </g>
     <g id="text_12">
      <!-- 18 -->
      <g style="fill:#2b2b2b;" transform="translate(32.0775 44.375807)scale(0.11 -0.11)">
       <use xlink:href="#DejaVuSans-49"/>
       <use x="63.623047" xlink:href="#DejaVuSans-56"/>
      </g>
     </g>
    </g>
    <g id="ytick_7">
     <g id="line2d_23">
      <path clip-path="url(#p845cdf1b7e)" d="M 53.075 14.94 
L 276.364003 14.94 
" style="fill:none;stroke:#b2b2b2;stroke-dasharray:2.96,1.28;stroke-dashoffset:0;stroke-opacity:0.3;stroke-width:0.8;"/>
     </g>
     <g id="line2d_24">
      <g>
       <use style="fill:#2b2b2b;stroke:#2b2b2b;stroke-width:0.8;" x="53.075" xlink:href="#m8ed7f2e238" y="14.94"/>
      </g>
     </g>
     <g id="text_13">
      <!-- 20 -->
      <g style="fill:#2b2b2b;" transform="translate(32.0775 19.119141)scale(0.11 -0.11)">
       <use xlink:href="#DejaVuSans-50"/>
       <use x="63.623047" xlink:href="#DejaVuSans-48"/>
      </g>
     </g>
    </g>
    <g id="text_14">
     <!-- $\omega/2\pi$ (GHz) -->
     <defs>
      <path d="M 12.109375 -1.125 
Q 6.453125 -1.125 3.9375 3.015625 
Q 1.421875 7.171875 1.421875 13.1875 
Q 1.421875 17.140625 2.125 20.921875 
Q 2.828125 24.703125 4.265625 28.578125 
Q 5.71875 32.46875 7.5625 35.859375 
Q 9.421875 39.265625 11.71875 42.484375 
Q 12.15625 43.109375 12.890625 43.109375 
Q 13.53125 43.109375 13.921875 42.71875 
Q 14.3125 42.328125 14.3125 41.796875 
Q 14.3125 41.265625 14.015625 40.828125 
Q 4.890625 28.265625 4.890625 17.671875 
Q 4.890625 13.09375 7 9.796875 
Q 9.125 6.5 13.484375 6.5 
Q 17.234375 6.5 20.4375 8.6875 
Q 23.640625 10.890625 25.984375 14.3125 
Q 25.984375 16.0625 26.59375 19.765625 
Q 27.203125 23.484375 28.484375 26.390625 
Q 29.78125 29.296875 31.59375 29.296875 
Q 33.890625 29.296875 33.890625 26.609375 
Q 33.890625 25.046875 33.21875 22.671875 
Q 32.5625 20.3125 31.75 18.265625 
Q 30.953125 16.21875 29.78125 13.625 
Q 30.953125 6.5 36.921875 6.5 
Q 40.375 6.5 43.859375 8.5 
Q 47.359375 10.5 50.046875 13.75 
Q 52.734375 17 54.265625 20.75 
Q 55.8125 24.515625 55.8125 27.875 
Q 55.8125 30.90625 54.859375 32.59375 
Q 53.90625 34.28125 52.34375 36.125 
Q 50.78125 37.984375 50.78125 39.109375 
Q 50.78125 41.0625 52.4375 42.671875 
Q 54.109375 44.28125 56 44.28125 
Q 58.453125 44.28125 59.46875 42.0625 
Q 60.5 39.84375 60.5 37.015625 
Q 60.5 32.421875 58.671875 25.4375 
Q 56.84375 18.453125 54.5 13.8125 
Q 51.265625 7.515625 46.40625 3.1875 
Q 41.546875 -1.125 35.5 -1.125 
Q 31.640625 -1.125 29.265625 1.1875 
Q 26.90625 3.515625 26.21875 7.515625 
Q 23.4375 3.5625 19.875 1.21875 
Q 16.3125 -1.125 12.109375 -1.125 
z
" id="Cmmi10-33"/>
      <path d="M 4.984375 0 
L 4.984375 2.6875 
Q 4.984375 2.9375 5.171875 3.21875 
L 20.703125 20.40625 
Q 24.21875 24.21875 26.40625 26.796875 
Q 28.609375 29.390625 30.75 32.765625 
Q 32.90625 36.140625 34.15625 39.625 
Q 35.40625 43.109375 35.40625 47.015625 
Q 35.40625 51.125 33.890625 54.859375 
Q 32.375 58.59375 29.375 60.84375 
Q 26.375 63.09375 22.125 63.09375 
Q 17.78125 63.09375 14.3125 60.46875 
Q 10.84375 57.859375 9.421875 53.71875 
Q 9.8125 53.8125 10.5 53.8125 
Q 12.75 53.8125 14.328125 52.296875 
Q 15.921875 50.78125 15.921875 48.390625 
Q 15.921875 46.09375 14.328125 44.5 
Q 12.75 42.921875 10.5 42.921875 
Q 8.15625 42.921875 6.5625 44.546875 
Q 4.984375 46.1875 4.984375 48.390625 
Q 4.984375 52.15625 6.390625 55.4375 
Q 7.8125 58.734375 10.46875 61.296875 
Q 13.140625 63.875 16.484375 65.234375 
Q 19.828125 66.609375 23.578125 66.609375 
Q 29.296875 66.609375 34.21875 64.1875 
Q 39.15625 61.765625 42.03125 57.34375 
Q 44.921875 52.9375 44.921875 47.015625 
Q 44.921875 42.671875 43.015625 38.765625 
Q 41.109375 34.859375 38.125 31.65625 
Q 35.15625 28.46875 30.515625 24.40625 
Q 25.875 20.359375 24.421875 19 
L 13.09375 8.109375 
L 22.703125 8.109375 
Q 29.78125 8.109375 34.546875 8.21875 
Q 39.3125 8.34375 39.59375 8.59375 
Q 40.765625 9.859375 42 17.828125 
L 44.921875 17.828125 
L 42.09375 0 
z
" id="Cmr10-50"/>
      <path d="M 10.109375 1.703125 
Q 10.109375 2.25 10.5 3.328125 
Q 13.28125 9.125 15.6875 14.71875 
Q 18.109375 20.3125 20.03125 25.609375 
Q 21.96875 30.90625 23.578125 36.921875 
L 17.1875 36.921875 
Q 13.53125 36.921875 10.34375 34.625 
Q 7.171875 32.328125 5.078125 28.8125 
Q 4.890625 28.421875 4.5 28.421875 
L 3.328125 28.421875 
Q 2.390625 28.421875 2.390625 29.390625 
Q 2.390625 29.59375 2.59375 29.984375 
Q 5.859375 35.546875 9.59375 39.328125 
Q 13.328125 43.109375 18.015625 43.109375 
L 54.296875 43.109375 
Q 55.328125 43.109375 56.046875 42.421875 
Q 56.78125 41.75 56.78125 40.578125 
Q 56.78125 39.109375 55.734375 38.015625 
Q 54.6875 36.921875 53.21875 36.921875 
L 40.484375 36.921875 
Q 38.875 29.046875 38.71875 21.578125 
Q 38.71875 11.96875 42.09375 4.203125 
Q 42.390625 3.609375 42.390625 2.984375 
Q 42.390625 1.90625 41.75 0.96875 
Q 41.109375 0.046875 40.109375 -0.53125 
Q 39.109375 -1.125 37.984375 -1.125 
Q 35.359375 -1.125 34.375 3.171875 
Q 33.40625 7.46875 33.40625 11.53125 
Q 33.40625 17.234375 34.375 22.53125 
Q 35.359375 27.828125 37.5 36.921875 
L 26.609375 36.921875 
Q 18.703125 4.890625 17.09375 1.609375 
Q 15.671875 -1.125 13.1875 -1.125 
Q 11.96875 -1.125 11.03125 -0.3125 
Q 10.109375 0.484375 10.109375 1.703125 
z
" id="Cmmi10-188"/>
      <path d="M 59.515625 10.40625 
L 59.515625 29.984375 
L 43.40625 29.984375 
L 43.40625 38.09375 
L 69.28125 38.09375 
L 69.28125 6.78125 
Q 63.578125 2.734375 56.6875 0.65625 
Q 49.8125 -1.421875 42 -1.421875 
Q 24.90625 -1.421875 15.25 8.5625 
Q 5.609375 18.5625 5.609375 36.375 
Q 5.609375 54.25 15.25 64.234375 
Q 24.90625 74.21875 42 74.21875 
Q 49.125 74.21875 55.546875 72.453125 
Q 61.96875 70.703125 67.390625 67.28125 
L 67.390625 56.78125 
Q 61.921875 61.421875 55.765625 63.765625 
Q 49.609375 66.109375 42.828125 66.109375 
Q 29.4375 66.109375 22.71875 58.640625 
Q 16.015625 51.171875 16.015625 36.375 
Q 16.015625 21.625 22.71875 14.15625 
Q 29.4375 6.6875 42.828125 6.6875 
Q 48.046875 6.6875 52.140625 7.59375 
Q 56.25 8.5 59.515625 10.40625 
z
" id="DejaVuSans-71"/>
      <path d="M 9.8125 72.90625 
L 19.671875 72.90625 
L 19.671875 43.015625 
L 55.515625 43.015625 
L 55.515625 72.90625 
L 65.375 72.90625 
L 65.375 0 
L 55.515625 0 
L 55.515625 34.71875 
L 19.671875 34.71875 
L 19.671875 0 
L 9.8125 0 
z
" id="DejaVuSans-72"/>
     </defs>
     <g transform="translate(24.3275 130.835)rotate(-90)scale(0.15 -0.15)">
      <use transform="translate(0 0.125)" xlink:href="#Cmmi10-33"/>
      <use transform="translate(62.207031 0.125)" xlink:href="#Cmmi10-61"/>
      <use transform="translate(112.207031 0.125)" xlink:href="#Cmr10-50"/>
      <use transform="translate(162.207031 0.125)" xlink:href="#Cmmi10-188"/>
      <use transform="translate(219.189453 0.125)" xlink:href="#DejaVuSans-32"/>
      <use transform="translate(250.976562 0.125)" xlink:href="#DejaVuSans-40"/>
      <use transform="translate(289.990234 0.125)" xlink:href="#DejaVuSans-71"/>
      <use transform="translate(367.480469 0.125)" xlink:href="#DejaVuSans-72"/>
      <use transform="translate(442.675781 0.125)" xlink:href="#DejaVuSans-122"/>
      <use transform="translate(495.166016 0.125)" xlink:href="#DejaVuSans-41"/>
     </g>
    </g>
   </g>
   <g id="line2d_25">
    <defs>
     <path d="M 0 2 
C 0.530406 2 1.03916 1.789267 1.414214 1.414214 
C 1.789267 1.03916 2 0.530406 2 0 
C 2 -0.530406 1.789267 -1.03916 1.414214 -1.414214 
C 1.03916 -1.789267 0.530406 -2 0 -2 
C -0.530406 -2 -1.03916 -1.789267 -1.414214 -1.414214 
C -1.789267 -1.03916 -2 -0.530406 -2 0 
C -2 0.530406 -1.789267 1.03916 -1.414214 1.414214 
C -1.03916 1.789267 -0.530406 2 0 2 
z
" id="mb74b199548" style="stroke:#56b4e9;stroke-opacity:0.95;stroke-width:0.4;"/>
    </defs>
    <g clip-path="url(#p845cdf1b7e)">
     <use style="fill:#004ba8;fill-opacity:0.95;stroke:#56b4e9;stroke-opacity:0.95;stroke-width:0.4;" x="67.737538" xlink:href="#mb74b199548" y="105.560289"/>
     <use style="fill:#004ba8;fill-opacity:0.95;stroke:#56b4e9;stroke-opacity:0.95;stroke-width:0.4;" x="67.975554" xlink:href="#mb74b199548" y="103.84776"/>
     <use style="fill:#004ba8;fill-opacity:0.95;stroke:#56b4e9;stroke-opacity:0.95;stroke-width:0.4;" x="68.213569" xlink:href="#mb74b199548" y="102.290813"/>
     <use style="fill:#004ba8;fill-opacity:0.95;stroke:#56b4e9;stroke-opacity:0.95;stroke-width:0.4;" x="68.451638" xlink:href="#mb74b199548" y="100.8897"/>
     <use style="fill:#004ba8;fill-opacity:0.95;stroke:#56b4e9;stroke-opacity:0.95;stroke-width:0.4;" x="68.689653" xlink:href="#mb74b199548" y="99.48846"/>
     <use style="fill:#004ba8;fill-opacity:0.95;stroke:#56b4e9;stroke-opacity:0.95;stroke-width:0.4;" x="68.927722" xlink:href="#mb74b199548" y="98.398761"/>
     <use style="fill:#004ba8;fill-opacity:0.95;stroke:#56b4e9;stroke-opacity:0.95;stroke-width:0.4;" x="69.165737" xlink:href="#mb74b199548" y="97.257033"/>
     <use style="fill:#004ba8;fill-opacity:0.95;stroke:#56b4e9;stroke-opacity:0.95;stroke-width:0.4;" x="69.403806" xlink:href="#mb74b199548" y="96.21911"/>
     <use style="fill:#004ba8;fill-opacity:0.95;stroke:#56b4e9;stroke-opacity:0.95;stroke-width:0.4;" x="69.641874" xlink:href="#mb74b199548" y="95.181188"/>
     <use style="fill:#004ba8;fill-opacity:0.95;stroke:#56b4e9;stroke-opacity:0.95;stroke-width:0.4;" x="69.87989" xlink:href="#mb74b199548" y="94.402777"/>
     <use style="fill:#004ba8;fill-opacity:0.95;stroke:#56b4e9;stroke-opacity:0.95;stroke-width:0.4;" x="70.117958" xlink:href="#mb74b199548" y="93.987684"/>
     <use style="fill:#004ba8;fill-opacity:0.95;stroke:#56b4e9;stroke-opacity:0.95;stroke-width:0.4;" x="70.355974" xlink:href="#mb74b199548" y="91.704229"/>
     <use style="fill:#004ba8;fill-opacity:0.95;stroke:#56b4e9;stroke-opacity:0.95;stroke-width:0.4;" x="70.593989" xlink:href="#mb74b199548" y="91.289135"/>
     <use style="fill:#004ba8;fill-opacity:0.95;stroke:#56b4e9;stroke-opacity:0.95;stroke-width:0.4;" x="70.832058" xlink:href="#mb74b199548" y="90.718208"/>
     <use style="fill:#004ba8;fill-opacity:0.95;stroke:#56b4e9;stroke-opacity:0.95;stroke-width:0.4;" x="71.070073" xlink:href="#mb74b199548" y="90.303115"/>
     <use style="fill:#004ba8;fill-opacity:0.95;stroke:#56b4e9;stroke-opacity:0.95;stroke-width:0.4;" x="105.404373" xlink:href="#mb74b199548" y="141.509517"/>
     <use style="fill:#004ba8;fill-opacity:0.95;stroke:#56b4e9;stroke-opacity:0.95;stroke-width:0.4;" x="105.588453" xlink:href="#mb74b199548" y="139.494515"/>
     <use style="fill:#004ba8;fill-opacity:0.95;stroke:#56b4e9;stroke-opacity:0.95;stroke-width:0.4;" x="105.772534" xlink:href="#mb74b199548" y="138.062714"/>
     <use style="fill:#004ba8;fill-opacity:0.95;stroke:#56b4e9;stroke-opacity:0.95;stroke-width:0.4;" x="105.956614" xlink:href="#mb74b199548" y="136.737118"/>
     <use style="fill:#004ba8;fill-opacity:0.95;stroke:#56b4e9;stroke-opacity:0.95;stroke-width:0.4;" x="106.140695" xlink:href="#mb74b199548" y="134.98721"/>
     <use style="fill:#004ba8;fill-opacity:0.95;stroke:#56b4e9;stroke-opacity:0.95;stroke-width:0.4;" x="106.324775" xlink:href="#mb74b199548" y="133.661487"/>
     <use style="fill:#004ba8;fill-opacity:0.95;stroke:#56b4e9;stroke-opacity:0.95;stroke-width:0.4;" x="106.508856" xlink:href="#mb74b199548" y="132.547921"/>
     <use style="fill:#004ba8;fill-opacity:0.95;stroke:#56b4e9;stroke-opacity:0.95;stroke-width:0.4;" x="106.692936" xlink:href="#mb74b199548" y="131.487393"/>
     <use style="fill:#004ba8;fill-opacity:0.95;stroke:#56b4e9;stroke-opacity:0.95;stroke-width:0.4;" x="106.877017" xlink:href="#mb74b199548" y="130.585857"/>
     <use style="fill:#004ba8;fill-opacity:0.95;stroke:#56b4e9;stroke-opacity:0.95;stroke-width:0.4;" x="107.061097" xlink:href="#mb74b199548" y="129.790524"/>
     <use style="fill:#004ba8;fill-opacity:0.95;stroke:#56b4e9;stroke-opacity:0.95;stroke-width:0.4;" x="107.245178" xlink:href="#mb74b199548" y="128.995066"/>
     <use style="fill:#004ba8;fill-opacity:0.95;stroke:#56b4e9;stroke-opacity:0.95;stroke-width:0.4;" x="107.429258" xlink:href="#mb74b199548" y="128.146694"/>
     <use style="fill:#004ba8;fill-opacity:0.95;stroke:#56b4e9;stroke-opacity:0.95;stroke-width:0.4;" x="107.613339" xlink:href="#mb74b199548" y="127.510352"/>
     <use style="fill:#004ba8;fill-opacity:0.95;stroke:#56b4e9;stroke-opacity:0.95;stroke-width:0.4;" x="107.79742" xlink:href="#mb74b199548" y="127.033001"/>
     <use style="fill:#004ba8;fill-opacity:0.95;stroke:#56b4e9;stroke-opacity:0.95;stroke-width:0.4;" x="107.9815" xlink:href="#mb74b199548" y="126.555777"/>
     <use style="fill:#004ba8;fill-opacity:0.95;stroke:#56b4e9;stroke-opacity:0.95;stroke-width:0.4;" x="108.165581" xlink:href="#mb74b199548" y="126.131591"/>
     <use style="fill:#004ba8;fill-opacity:0.95;stroke:#56b4e9;stroke-opacity:0.95;stroke-width:0.4;" x="108.349661" xlink:href="#mb74b199548" y="125.919435"/>
     <use style="fill:#004ba8;fill-opacity:0.95;stroke:#56b4e9;stroke-opacity:0.95;stroke-width:0.4;" x="108.533742" xlink:href="#mb74b199548" y="125.760444"/>
     <use style="fill:#004ba8;fill-opacity:0.95;stroke:#56b4e9;stroke-opacity:0.95;stroke-width:0.4;" x="108.717822" xlink:href="#mb74b199548" y="125.654366"/>
     <use style="fill:#004ba8;fill-opacity:0.95;stroke:#56b4e9;stroke-opacity:0.95;stroke-width:0.4;" x="108.901903" xlink:href="#mb74b199548" y="125.760444"/>
     <use style="fill:#004ba8;fill-opacity:0.95;stroke:#56b4e9;stroke-opacity:0.95;stroke-width:0.4;" x="109.085983" xlink:href="#mb74b199548" y="125.919435"/>
     <use style="fill:#004ba8;fill-opacity:0.95;stroke:#56b4e9;stroke-opacity:0.95;stroke-width:0.4;" x="109.270064" xlink:href="#mb74b199548" y="126.078552"/>
     <use style="fill:#004ba8;fill-opacity:0.95;stroke:#56b4e9;stroke-opacity:0.95;stroke-width:0.4;" x="109.454144" xlink:href="#mb74b199548" y="126.290708"/>
     <use style="fill:#004ba8;fill-opacity:0.95;stroke:#56b4e9;stroke-opacity:0.95;stroke-width:0.4;" x="109.638225" xlink:href="#mb74b199548" y="126.608816"/>
     <use style="fill:#004ba8;fill-opacity:0.95;stroke:#56b4e9;stroke-opacity:0.95;stroke-width:0.4;" x="109.822305" xlink:href="#mb74b199548" y="126.92705"/>
     <use style="fill:#004ba8;fill-opacity:0.95;stroke:#56b4e9;stroke-opacity:0.95;stroke-width:0.4;" x="110.006386" xlink:href="#mb74b199548" y="127.351235"/>
     <use style="fill:#004ba8;fill-opacity:0.95;stroke:#56b4e9;stroke-opacity:0.95;stroke-width:0.4;" x="110.190466" xlink:href="#mb74b199548" y="127.722382"/>
     <use style="fill:#004ba8;fill-opacity:0.95;stroke:#56b4e9;stroke-opacity:0.95;stroke-width:0.4;" x="110.374547" xlink:href="#mb74b199548" y="128.358724"/>
     <use style="fill:#004ba8;fill-opacity:0.95;stroke:#56b4e9;stroke-opacity:0.95;stroke-width:0.4;" x="110.558627" xlink:href="#mb74b199548" y="129.101144"/>
     <use style="fill:#004ba8;fill-opacity:0.95;stroke:#56b4e9;stroke-opacity:0.95;stroke-width:0.4;" x="110.742708" xlink:href="#mb74b199548" y="129.631407"/>
     <use style="fill:#004ba8;fill-opacity:0.95;stroke:#56b4e9;stroke-opacity:0.95;stroke-width:0.4;" x="110.926788" xlink:href="#mb74b199548" y="130.267749"/>
     <use style="fill:#004ba8;fill-opacity:0.95;stroke:#56b4e9;stroke-opacity:0.95;stroke-width:0.4;" x="111.110869" xlink:href="#mb74b199548" y="131.063081"/>
     <use style="fill:#004ba8;fill-opacity:0.95;stroke:#56b4e9;stroke-opacity:0.95;stroke-width:0.4;" x="111.294949" xlink:href="#mb74b199548" y="131.328276"/>
     <use style="fill:#004ba8;fill-opacity:0.95;stroke:#56b4e9;stroke-opacity:0.95;stroke-width:0.4;" x="111.47903" xlink:href="#mb74b199548" y="132.017657"/>
     <use style="fill:#004ba8;fill-opacity:0.95;stroke:#56b4e9;stroke-opacity:0.95;stroke-width:0.4;" x="111.66311" xlink:href="#mb74b199548" y="132.547921"/>
     <use style="fill:#004ba8;fill-opacity:0.95;stroke:#56b4e9;stroke-opacity:0.95;stroke-width:0.4;" x="111.847191" xlink:href="#mb74b199548" y="133.184263"/>
     <use style="fill:#004ba8;fill-opacity:0.95;stroke:#56b4e9;stroke-opacity:0.95;stroke-width:0.4;" x="112.031271" xlink:href="#mb74b199548" y="133.449331"/>
     <use style="fill:#004ba8;fill-opacity:0.95;stroke:#56b4e9;stroke-opacity:0.95;stroke-width:0.4;" x="112.215352" xlink:href="#mb74b199548" y="133.873643"/>
     <use style="fill:#004ba8;fill-opacity:0.95;stroke:#56b4e9;stroke-opacity:0.95;stroke-width:0.4;" x="112.399432" xlink:href="#mb74b199548" y="134.085673"/>
     <use style="fill:#004ba8;fill-opacity:0.95;stroke:#56b4e9;stroke-opacity:0.95;stroke-width:0.4;" x="112.583513" xlink:href="#mb74b199548" y="134.297829"/>
     <use style="fill:#004ba8;fill-opacity:0.95;stroke:#56b4e9;stroke-opacity:0.95;stroke-width:0.4;" x="112.767593" xlink:href="#mb74b199548" y="134.297829"/>
     <use style="fill:#004ba8;fill-opacity:0.95;stroke:#56b4e9;stroke-opacity:0.95;stroke-width:0.4;" x="142.616017" xlink:href="#mb74b199548" y="157.623838"/>
     <use style="fill:#004ba8;fill-opacity:0.95;stroke:#56b4e9;stroke-opacity:0.95;stroke-width:0.4;" x="142.869476" xlink:href="#mb74b199548" y="155.28324"/>
     <use style="fill:#004ba8;fill-opacity:0.95;stroke:#56b4e9;stroke-opacity:0.95;stroke-width:0.4;" x="143.122936" xlink:href="#mb74b199548" y="152.640635"/>
     <use style="fill:#004ba8;fill-opacity:0.95;stroke:#56b4e9;stroke-opacity:0.95;stroke-width:0.4;" x="143.376396" xlink:href="#mb74b199548" y="150.149027"/>
     <use style="fill:#004ba8;fill-opacity:0.95;stroke:#56b4e9;stroke-opacity:0.95;stroke-width:0.4;" x="143.629855" xlink:href="#mb74b199548" y="148.03493"/>
     <use style="fill:#004ba8;fill-opacity:0.95;stroke:#56b4e9;stroke-opacity:0.95;stroke-width:0.4;" x="143.883315" xlink:href="#mb74b199548" y="146.373862"/>
     <use style="fill:#004ba8;fill-opacity:0.95;stroke:#56b4e9;stroke-opacity:0.95;stroke-width:0.4;" x="144.136774" xlink:href="#mb74b199548" y="144.63729"/>
     <use style="fill:#004ba8;fill-opacity:0.95;stroke:#56b4e9;stroke-opacity:0.95;stroke-width:0.4;" x="144.390234" xlink:href="#mb74b199548" y="143.051714"/>
     <use style="fill:#004ba8;fill-opacity:0.95;stroke:#56b4e9;stroke-opacity:0.95;stroke-width:0.4;" x="144.643694" xlink:href="#mb74b199548" y="141.843662"/>
     <use style="fill:#004ba8;fill-opacity:0.95;stroke:#56b4e9;stroke-opacity:0.95;stroke-width:0.4;" x="144.897153" xlink:href="#mb74b199548" y="140.93768"/>
     <use style="fill:#004ba8;fill-opacity:0.95;stroke:#56b4e9;stroke-opacity:0.95;stroke-width:0.4;" x="145.150613" xlink:href="#mb74b199548" y="140.25815"/>
     <use style="fill:#004ba8;fill-opacity:0.95;stroke:#56b4e9;stroke-opacity:0.95;stroke-width:0.4;" x="145.404072" xlink:href="#mb74b199548" y="139.65401"/>
     <use style="fill:#004ba8;fill-opacity:0.95;stroke:#56b4e9;stroke-opacity:0.95;stroke-width:0.4;" x="145.657532" xlink:href="#mb74b199548" y="139.427584"/>
     <use style="fill:#004ba8;fill-opacity:0.95;stroke:#56b4e9;stroke-opacity:0.95;stroke-width:0.4;" x="145.910992" xlink:href="#mb74b199548" y="139.352067"/>
     <use style="fill:#004ba8;fill-opacity:0.95;stroke:#56b4e9;stroke-opacity:0.95;stroke-width:0.4;" x="146.164451" xlink:href="#mb74b199548" y="139.352067"/>
     <use style="fill:#004ba8;fill-opacity:0.95;stroke:#56b4e9;stroke-opacity:0.95;stroke-width:0.4;" x="146.417911" xlink:href="#mb74b199548" y="139.65401"/>
     <use style="fill:#004ba8;fill-opacity:0.95;stroke:#56b4e9;stroke-opacity:0.95;stroke-width:0.4;" x="146.67137" xlink:href="#mb74b199548" y="140.107115"/>
     <use style="fill:#004ba8;fill-opacity:0.95;stroke:#56b4e9;stroke-opacity:0.95;stroke-width:0.4;" x="146.92483" xlink:href="#mb74b199548" y="140.786646"/>
     <use style="fill:#004ba8;fill-opacity:0.95;stroke:#56b4e9;stroke-opacity:0.95;stroke-width:0.4;" x="147.17829" xlink:href="#mb74b199548" y="141.768158"/>
     <use style="fill:#004ba8;fill-opacity:0.95;stroke:#56b4e9;stroke-opacity:0.95;stroke-width:0.4;" x="147.431749" xlink:href="#mb74b199548" y="143.051714"/>
     <use style="fill:#004ba8;fill-opacity:0.95;stroke:#56b4e9;stroke-opacity:0.95;stroke-width:0.4;" x="147.685209" xlink:href="#mb74b199548" y="144.33527"/>
     <use style="fill:#004ba8;fill-opacity:0.95;stroke:#56b4e9;stroke-opacity:0.95;stroke-width:0.4;" x="147.938668" xlink:href="#mb74b199548" y="145.694332"/>
     <use style="fill:#004ba8;fill-opacity:0.95;stroke:#56b4e9;stroke-opacity:0.95;stroke-width:0.4;" x="148.192128" xlink:href="#mb74b199548" y="147.355399"/>
     <use style="fill:#004ba8;fill-opacity:0.95;stroke:#56b4e9;stroke-opacity:0.95;stroke-width:0.4;" x="148.445588" xlink:href="#mb74b199548" y="149.091972"/>
     <use style="fill:#004ba8;fill-opacity:0.95;stroke:#56b4e9;stroke-opacity:0.95;stroke-width:0.4;" x="180.876056" xlink:href="#mb74b199548" y="149.569588"/>
     <use style="fill:#004ba8;fill-opacity:0.95;stroke:#56b4e9;stroke-opacity:0.95;stroke-width:0.4;" x="181.106432" xlink:href="#mb74b199548" y="147.745527"/>
     <use style="fill:#004ba8;fill-opacity:0.95;stroke:#56b4e9;stroke-opacity:0.95;stroke-width:0.4;" x="181.336813" xlink:href="#mb74b199548" y="145.825477"/>
     <use style="fill:#004ba8;fill-opacity:0.95;stroke:#56b4e9;stroke-opacity:0.95;stroke-width:0.4;" x="181.567188" xlink:href="#mb74b199548" y="144.38543"/>
     <use style="fill:#004ba8;fill-opacity:0.95;stroke:#56b4e9;stroke-opacity:0.95;stroke-width:0.4;" x="181.797564" xlink:href="#mb74b199548" y="143.137397"/>
     <use style="fill:#004ba8;fill-opacity:0.95;stroke:#56b4e9;stroke-opacity:0.95;stroke-width:0.4;" x="182.027945" xlink:href="#mb74b199548" y="142.273367"/>
     <use style="fill:#004ba8;fill-opacity:0.95;stroke:#56b4e9;stroke-opacity:0.95;stroke-width:0.4;" x="182.258321" xlink:href="#mb74b199548" y="141.409336"/>
     <use style="fill:#004ba8;fill-opacity:0.95;stroke:#56b4e9;stroke-opacity:0.95;stroke-width:0.4;" x="182.488697" xlink:href="#mb74b199548" y="140.737269"/>
     <use style="fill:#004ba8;fill-opacity:0.95;stroke:#56b4e9;stroke-opacity:0.95;stroke-width:0.4;" x="182.719078" xlink:href="#mb74b199548" y="140.065315"/>
     <use style="fill:#004ba8;fill-opacity:0.95;stroke:#56b4e9;stroke-opacity:0.95;stroke-width:0.4;" x="182.949454" xlink:href="#mb74b199548" y="139.873238"/>
     <use style="fill:#004ba8;fill-opacity:0.95;stroke:#56b4e9;stroke-opacity:0.95;stroke-width:0.4;" x="183.179829" xlink:href="#mb74b199548" y="139.585312"/>
     <use style="fill:#004ba8;fill-opacity:0.95;stroke:#56b4e9;stroke-opacity:0.95;stroke-width:0.4;" x="183.410211" xlink:href="#mb74b199548" y="139.681288"/>
     <use style="fill:#004ba8;fill-opacity:0.95;stroke:#56b4e9;stroke-opacity:0.95;stroke-width:0.4;" x="183.640586" xlink:href="#mb74b199548" y="139.681288"/>
     <use style="fill:#004ba8;fill-opacity:0.95;stroke:#56b4e9;stroke-opacity:0.95;stroke-width:0.4;" x="183.870962" xlink:href="#mb74b199548" y="139.96934"/>
     <use style="fill:#004ba8;fill-opacity:0.95;stroke:#56b4e9;stroke-opacity:0.95;stroke-width:0.4;" x="184.101343" xlink:href="#mb74b199548" y="140.449343"/>
     <use style="fill:#004ba8;fill-opacity:0.95;stroke:#56b4e9;stroke-opacity:0.95;stroke-width:0.4;" x="184.331719" xlink:href="#mb74b199548" y="141.217398"/>
     <use style="fill:#004ba8;fill-opacity:0.95;stroke:#56b4e9;stroke-opacity:0.95;stroke-width:0.4;" x="184.562095" xlink:href="#mb74b199548" y="141.505349"/>
     <use style="fill:#004ba8;fill-opacity:0.95;stroke:#56b4e9;stroke-opacity:0.95;stroke-width:0.4;" x="184.792476" xlink:href="#mb74b199548" y="142.945383"/>
     <use style="fill:#004ba8;fill-opacity:0.95;stroke:#56b4e9;stroke-opacity:0.95;stroke-width:0.4;" x="185.022852" xlink:href="#mb74b199548" y="144.193429"/>
     <use style="fill:#004ba8;fill-opacity:0.95;stroke:#56b4e9;stroke-opacity:0.95;stroke-width:0.4;" x="185.253227" xlink:href="#mb74b199548" y="145.537462"/>
     <use style="fill:#004ba8;fill-opacity:0.95;stroke:#56b4e9;stroke-opacity:0.95;stroke-width:0.4;" x="185.483608" xlink:href="#mb74b199548" y="146.785508"/>
     <use style="fill:#004ba8;fill-opacity:0.95;stroke:#56b4e9;stroke-opacity:0.95;stroke-width:0.4;" x="185.713984" xlink:href="#mb74b199548" y="148.801558"/>
     <use style="fill:#004ba8;fill-opacity:0.95;stroke:#56b4e9;stroke-opacity:0.95;stroke-width:0.4;" x="217.002781" xlink:href="#mb74b199548" y="135.967547"/>
     <use style="fill:#004ba8;fill-opacity:0.95;stroke:#56b4e9;stroke-opacity:0.95;stroke-width:0.4;" x="217.326391" xlink:href="#mb74b199548" y="134.923689"/>
     <use style="fill:#004ba8;fill-opacity:0.95;stroke:#56b4e9;stroke-opacity:0.95;stroke-width:0.4;" x="217.65" xlink:href="#mb74b199548" y="134.227868"/>
     <use style="fill:#004ba8;fill-opacity:0.95;stroke:#56b4e9;stroke-opacity:0.95;stroke-width:0.4;" x="217.973557" xlink:href="#mb74b199548" y="133.068082"/>
     <use style="fill:#004ba8;fill-opacity:0.95;stroke:#56b4e9;stroke-opacity:0.95;stroke-width:0.4;" x="218.297166" xlink:href="#mb74b199548" y="131.444331"/>
     <use style="fill:#004ba8;fill-opacity:0.95;stroke:#56b4e9;stroke-opacity:0.95;stroke-width:0.4;" x="218.620776" xlink:href="#mb74b199548" y="130.400599"/>
     <use style="fill:#004ba8;fill-opacity:0.95;stroke:#56b4e9;stroke-opacity:0.95;stroke-width:0.4;" x="218.944332" xlink:href="#mb74b199548" y="129.472669"/>
     <use style="fill:#004ba8;fill-opacity:0.95;stroke:#56b4e9;stroke-opacity:0.95;stroke-width:0.4;" x="219.267942" xlink:href="#mb74b199548" y="128.776848"/>
     <use style="fill:#004ba8;fill-opacity:0.95;stroke:#56b4e9;stroke-opacity:0.95;stroke-width:0.4;" x="219.591551" xlink:href="#mb74b199548" y="127.849044"/>
     <use style="fill:#004ba8;fill-opacity:0.95;stroke:#56b4e9;stroke-opacity:0.95;stroke-width:0.4;" x="219.915108" xlink:href="#mb74b199548" y="127.153097"/>
     <use style="fill:#004ba8;fill-opacity:0.95;stroke:#56b4e9;stroke-opacity:0.95;stroke-width:0.4;" x="220.238717" xlink:href="#mb74b199548" y="126.921241"/>
     <use style="fill:#004ba8;fill-opacity:0.95;stroke:#56b4e9;stroke-opacity:0.95;stroke-width:0.4;" x="220.562327" xlink:href="#mb74b199548" y="126.805186"/>
     <use style="fill:#004ba8;fill-opacity:0.95;stroke:#56b4e9;stroke-opacity:0.95;stroke-width:0.4;" x="220.885883" xlink:href="#mb74b199548" y="127.037169"/>
     <use style="fill:#004ba8;fill-opacity:0.95;stroke:#56b4e9;stroke-opacity:0.95;stroke-width:0.4;" x="221.209493" xlink:href="#mb74b199548" y="127.501134"/>
     <use style="fill:#004ba8;fill-opacity:0.95;stroke:#56b4e9;stroke-opacity:0.95;stroke-width:0.4;" x="221.533102" xlink:href="#mb74b199548" y="128.312883"/>
     <use style="fill:#004ba8;fill-opacity:0.95;stroke:#56b4e9;stroke-opacity:0.95;stroke-width:0.4;" x="221.856659" xlink:href="#mb74b199548" y="129.588724"/>
     <use style="fill:#004ba8;fill-opacity:0.95;stroke:#56b4e9;stroke-opacity:0.95;stroke-width:0.4;" x="222.180268" xlink:href="#mb74b199548" y="130.74851"/>
     <use style="fill:#004ba8;fill-opacity:0.95;stroke:#56b4e9;stroke-opacity:0.95;stroke-width:0.4;" x="222.503878" xlink:href="#mb74b199548" y="132.256206"/>
     <use style="fill:#004ba8;fill-opacity:0.95;stroke:#56b4e9;stroke-opacity:0.95;stroke-width:0.4;" x="222.827434" xlink:href="#mb74b199548" y="134.227868"/>
     <use style="fill:#004ba8;fill-opacity:0.95;stroke:#56b4e9;stroke-opacity:0.95;stroke-width:0.4;" x="223.151044" xlink:href="#mb74b199548" y="136.315458"/>
     <use style="fill:#004ba8;fill-opacity:0.95;stroke:#56b4e9;stroke-opacity:0.95;stroke-width:0.4;" x="223.474653" xlink:href="#mb74b199548" y="138.750958"/>
     <use style="fill:#004ba8;fill-opacity:0.95;stroke:#56b4e9;stroke-opacity:0.95;stroke-width:0.4;" x="258.859049" xlink:href="#mb74b199548" y="95.07069"/>
     <use style="fill:#004ba8;fill-opacity:0.95;stroke:#56b4e9;stroke-opacity:0.95;stroke-width:0.4;" x="259.202276" xlink:href="#mb74b199548" y="95.661191"/>
     <use style="fill:#004ba8;fill-opacity:0.95;stroke:#56b4e9;stroke-opacity:0.95;stroke-width:0.4;" x="259.545556" xlink:href="#mb74b199548" y="96.546816"/>
     <use style="fill:#004ba8;fill-opacity:0.95;stroke:#56b4e9;stroke-opacity:0.95;stroke-width:0.4;" x="259.888837" xlink:href="#mb74b199548" y="97.580066"/>
     <use style="fill:#004ba8;fill-opacity:0.95;stroke:#56b4e9;stroke-opacity:0.95;stroke-width:0.4;" x="260.232064" xlink:href="#mb74b199548" y="99.351442"/>
     <use style="fill:#004ba8;fill-opacity:0.95;stroke:#56b4e9;stroke-opacity:0.95;stroke-width:0.4;" x="260.575344" xlink:href="#mb74b199548" y="101.270317"/>
     <use style="fill:#004ba8;fill-opacity:0.95;stroke:#56b4e9;stroke-opacity:0.95;stroke-width:0.4;" x="260.918624" xlink:href="#mb74b199548" y="103.336818"/>
     <use style="fill:#004ba8;fill-opacity:0.95;stroke:#56b4e9;stroke-opacity:0.95;stroke-width:0.4;" x="261.261851" xlink:href="#mb74b199548" y="105.550944"/>
     <use style="fill:#004ba8;fill-opacity:0.95;stroke:#56b4e9;stroke-opacity:0.95;stroke-width:0.4;" x="261.605132" xlink:href="#mb74b199548" y="107.912695"/>
    </g>
   </g>
   <g id="line2d_26">
    <defs>
     <path d="M 0 2.5 
C 0.663008 2.5 1.29895 2.236584 1.767767 1.767767 
C 2.236584 1.29895 2.5 0.663008 2.5 0 
C 2.5 -0.663008 2.236584 -1.29895 1.767767 -1.767767 
C 1.29895 -2.236584 0.663008 -2.5 0 -2.5 
C -0.663008 -2.5 -1.29895 -2.236584 -1.767767 -1.767767 
C -2.236584 -1.29895 -2.5 -0.663008 -2.5 0 
C -2.5 0.663008 -2.236584 1.29895 -1.767767 1.767767 
C -1.29895 2.236584 -0.663008 2.5 0 2.5 
z
" id="m9af3d681d7" style="stroke:#fb2c07;stroke-opacity:0.95;stroke-width:0.4;"/>
    </defs>
    <g clip-path="url(#p845cdf1b7e)">
     <use style="fill:#990000;fill-opacity:0.95;stroke:#fb2c07;stroke-opacity:0.95;stroke-width:0.4;" x="68.192303" xlink:href="#m9af3d681d7" y="69.135629"/>
     <use style="fill:#990000;fill-opacity:0.95;stroke:#fb2c07;stroke-opacity:0.95;stroke-width:0.4;" x="68.458443" xlink:href="#m9af3d681d7" y="67.284694"/>
     <use style="fill:#990000;fill-opacity:0.95;stroke:#fb2c07;stroke-opacity:0.95;stroke-width:0.4;" x="68.724635" xlink:href="#m9af3d681d7" y="66.157994"/>
     <use style="fill:#990000;fill-opacity:0.95;stroke:#fb2c07;stroke-opacity:0.95;stroke-width:0.4;" x="68.990774" xlink:href="#m9af3d681d7" y="65.111737"/>
     <use style="fill:#990000;fill-opacity:0.95;stroke:#fb2c07;stroke-opacity:0.95;stroke-width:0.4;" x="69.256914" xlink:href="#m9af3d681d7" y="64.30706"/>
     <use style="fill:#990000;fill-opacity:0.95;stroke:#fb2c07;stroke-opacity:0.95;stroke-width:0.4;" x="69.523106" xlink:href="#m9af3d681d7" y="63.341245"/>
     <use style="fill:#990000;fill-opacity:0.95;stroke:#fb2c07;stroke-opacity:0.95;stroke-width:0.4;" x="69.789245" xlink:href="#m9af3d681d7" y="62.697452"/>
     <use style="fill:#990000;fill-opacity:0.95;stroke:#fb2c07;stroke-opacity:0.95;stroke-width:0.4;" x="70.055438" xlink:href="#m9af3d681d7" y="62.375556"/>
     <use style="fill:#990000;fill-opacity:0.95;stroke:#fb2c07;stroke-opacity:0.95;stroke-width:0.4;" x="70.321577" xlink:href="#m9af3d681d7" y="63.019348"/>
     <use style="fill:#990000;fill-opacity:0.95;stroke:#fb2c07;stroke-opacity:0.95;stroke-width:0.4;" x="70.587769" xlink:href="#m9af3d681d7" y="63.421813"/>
     <use style="fill:#990000;fill-opacity:0.95;stroke:#fb2c07;stroke-opacity:0.95;stroke-width:0.4;" x="70.853908" xlink:href="#m9af3d681d7" y="63.904595"/>
     <use style="fill:#990000;fill-opacity:0.95;stroke:#fb2c07;stroke-opacity:0.95;stroke-width:0.4;" x="71.120101" xlink:href="#m9af3d681d7" y="64.146048"/>
     <use style="fill:#990000;fill-opacity:0.95;stroke:#fb2c07;stroke-opacity:0.95;stroke-width:0.4;" x="71.38624" xlink:href="#m9af3d681d7" y="64.628956"/>
     <use style="fill:#990000;fill-opacity:0.95;stroke:#fb2c07;stroke-opacity:0.95;stroke-width:0.4;" x="71.652379" xlink:href="#m9af3d681d7" y="65.916541"/>
     <use style="fill:#990000;fill-opacity:0.95;stroke:#fb2c07;stroke-opacity:0.95;stroke-width:0.4;" x="71.918572" xlink:href="#m9af3d681d7" y="66.399448"/>
     <use style="fill:#990000;fill-opacity:0.95;stroke:#fb2c07;stroke-opacity:0.95;stroke-width:0.4;" x="72.184711" xlink:href="#m9af3d681d7" y="67.284694"/>
     <use style="fill:#990000;fill-opacity:0.95;stroke:#fb2c07;stroke-opacity:0.95;stroke-width:0.4;" x="72.450903" xlink:href="#m9af3d681d7" y="69.29664"/>
     <use style="fill:#990000;fill-opacity:0.95;stroke:#fb2c07;stroke-opacity:0.95;stroke-width:0.4;" x="72.717042" xlink:href="#m9af3d681d7" y="71.87181"/>
     <use style="fill:#990000;fill-opacity:0.95;stroke:#fb2c07;stroke-opacity:0.95;stroke-width:0.4;" x="72.983235" xlink:href="#m9af3d681d7" y="73.883756"/>
     <use style="fill:#990000;fill-opacity:0.95;stroke:#fb2c07;stroke-opacity:0.95;stroke-width:0.4;" x="73.249374" xlink:href="#m9af3d681d7" y="76.539495"/>
     <use style="fill:#990000;fill-opacity:0.95;stroke:#fb2c07;stroke-opacity:0.95;stroke-width:0.4;" x="73.515566" xlink:href="#m9af3d681d7" y="78.631883"/>
     <use style="fill:#990000;fill-opacity:0.95;stroke:#fb2c07;stroke-opacity:0.95;stroke-width:0.4;" x="73.781706" xlink:href="#m9af3d681d7" y="80.321933"/>
     <use style="fill:#990000;fill-opacity:0.95;stroke:#fb2c07;stroke-opacity:0.95;stroke-width:0.4;" x="74.047898" xlink:href="#m9af3d681d7" y="81.609518"/>
     <use style="fill:#990000;fill-opacity:0.95;stroke:#fb2c07;stroke-opacity:0.95;stroke-width:0.4;" x="74.314037" xlink:href="#m9af3d681d7" y="83.138683"/>
     <use style="fill:#990000;fill-opacity:0.95;stroke:#fb2c07;stroke-opacity:0.95;stroke-width:0.4;" x="105.563865" xlink:href="#m9af3d681d7" y="57.609244"/>
     <use style="fill:#990000;fill-opacity:0.95;stroke:#fb2c07;stroke-opacity:0.95;stroke-width:0.4;" x="105.830679" xlink:href="#m9af3d681d7" y="56.537983"/>
     <use style="fill:#990000;fill-opacity:0.95;stroke:#fb2c07;stroke-opacity:0.95;stroke-width:0.4;" x="106.097499" xlink:href="#m9af3d681d7" y="55.363042"/>
     <use style="fill:#990000;fill-opacity:0.95;stroke:#fb2c07;stroke-opacity:0.95;stroke-width:0.4;" x="106.364313" xlink:href="#m9af3d681d7" y="54.913853"/>
     <use style="fill:#990000;fill-opacity:0.95;stroke:#fb2c07;stroke-opacity:0.95;stroke-width:0.4;" x="106.631133" xlink:href="#m9af3d681d7" y="54.257306"/>
     <use style="fill:#990000;fill-opacity:0.95;stroke:#fb2c07;stroke-opacity:0.95;stroke-width:0.4;" x="106.897953" xlink:href="#m9af3d681d7" y="53.808116"/>
     <use style="fill:#990000;fill-opacity:0.95;stroke:#fb2c07;stroke-opacity:0.95;stroke-width:0.4;" x="107.164767" xlink:href="#m9af3d681d7" y="53.220646"/>
     <use style="fill:#990000;fill-opacity:0.95;stroke:#fb2c07;stroke-opacity:0.95;stroke-width:0.4;" x="107.431587" xlink:href="#m9af3d681d7" y="53.116967"/>
     <use style="fill:#990000;fill-opacity:0.95;stroke:#fb2c07;stroke-opacity:0.95;stroke-width:0.4;" x="107.698401" xlink:href="#m9af3d681d7" y="53.566157"/>
     <use style="fill:#990000;fill-opacity:0.95;stroke:#fb2c07;stroke-opacity:0.95;stroke-width:0.4;" x="107.965216" xlink:href="#m9af3d681d7" y="53.738912"/>
     <use style="fill:#990000;fill-opacity:0.95;stroke:#fb2c07;stroke-opacity:0.95;stroke-width:0.4;" x="108.232036" xlink:href="#m9af3d681d7" y="53.738912"/>
     <use style="fill:#990000;fill-opacity:0.95;stroke:#fb2c07;stroke-opacity:0.95;stroke-width:0.4;" x="108.49885" xlink:href="#m9af3d681d7" y="54.464663"/>
     <use style="fill:#990000;fill-opacity:0.95;stroke:#fb2c07;stroke-opacity:0.95;stroke-width:0.4;" x="108.76567" xlink:href="#m9af3d681d7" y="54.810174"/>
     <use style="fill:#990000;fill-opacity:0.95;stroke:#fb2c07;stroke-opacity:0.95;stroke-width:0.4;" x="109.032489" xlink:href="#m9af3d681d7" y="55.605001"/>
     <use style="fill:#990000;fill-opacity:0.95;stroke:#fb2c07;stroke-opacity:0.95;stroke-width:0.4;" x="109.299304" xlink:href="#m9af3d681d7" y="57.125453"/>
     <use style="fill:#990000;fill-opacity:0.95;stroke:#fb2c07;stroke-opacity:0.95;stroke-width:0.4;" x="109.566124" xlink:href="#m9af3d681d7" y="58.058434"/>
     <use style="fill:#990000;fill-opacity:0.95;stroke:#fb2c07;stroke-opacity:0.95;stroke-width:0.4;" x="109.832938" xlink:href="#m9af3d681d7" y="59.509808"/>
     <use style="fill:#990000;fill-opacity:0.95;stroke:#fb2c07;stroke-opacity:0.95;stroke-width:0.4;" x="142.661738" xlink:href="#m9af3d681d7" y="55.608916"/>
     <use style="fill:#990000;fill-opacity:0.95;stroke:#fb2c07;stroke-opacity:0.95;stroke-width:0.4;" x="142.928568" xlink:href="#m9af3d681d7" y="54.734151"/>
     <use style="fill:#990000;fill-opacity:0.95;stroke:#fb2c07;stroke-opacity:0.95;stroke-width:0.4;" x="143.195404" xlink:href="#m9af3d681d7" y="53.629299"/>
     <use style="fill:#990000;fill-opacity:0.95;stroke:#fb2c07;stroke-opacity:0.95;stroke-width:0.4;" x="143.462234" xlink:href="#m9af3d681d7" y="52.708567"/>
     <use style="fill:#990000;fill-opacity:0.95;stroke:#fb2c07;stroke-opacity:0.95;stroke-width:0.4;" x="143.72907" xlink:href="#m9af3d681d7" y="51.971956"/>
     <use style="fill:#990000;fill-opacity:0.95;stroke:#fb2c07;stroke-opacity:0.95;stroke-width:0.4;" x="143.9959" xlink:href="#m9af3d681d7" y="51.327532"/>
     <use style="fill:#990000;fill-opacity:0.95;stroke:#fb2c07;stroke-opacity:0.95;stroke-width:0.4;" x="144.262736" xlink:href="#m9af3d681d7" y="50.637015"/>
     <use style="fill:#990000;fill-opacity:0.95;stroke:#fb2c07;stroke-opacity:0.95;stroke-width:0.4;" x="144.529566" xlink:href="#m9af3d681d7" y="50.084525"/>
     <use style="fill:#990000;fill-opacity:0.95;stroke:#fb2c07;stroke-opacity:0.95;stroke-width:0.4;" x="144.796402" xlink:href="#m9af3d681d7" y="49.808344"/>
     <use style="fill:#990000;fill-opacity:0.95;stroke:#fb2c07;stroke-opacity:0.95;stroke-width:0.4;" x="145.063232" xlink:href="#m9af3d681d7" y="49.808344"/>
     <use style="fill:#990000;fill-opacity:0.95;stroke:#fb2c07;stroke-opacity:0.95;stroke-width:0.4;" x="145.330068" xlink:href="#m9af3d681d7" y="49.808344"/>
     <use style="fill:#990000;fill-opacity:0.95;stroke:#fb2c07;stroke-opacity:0.95;stroke-width:0.4;" x="145.596898" xlink:href="#m9af3d681d7" y="49.67019"/>
     <use style="fill:#990000;fill-opacity:0.95;stroke:#fb2c07;stroke-opacity:0.95;stroke-width:0.4;" x="145.863734" xlink:href="#m9af3d681d7" y="49.854311"/>
     <use style="fill:#990000;fill-opacity:0.95;stroke:#fb2c07;stroke-opacity:0.95;stroke-width:0.4;" x="146.130564" xlink:href="#m9af3d681d7" y="50.268646"/>
     <use style="fill:#990000;fill-opacity:0.95;stroke:#fb2c07;stroke-opacity:0.95;stroke-width:0.4;" x="146.3974" xlink:href="#m9af3d681d7" y="50.498861"/>
     <use style="fill:#990000;fill-opacity:0.95;stroke:#fb2c07;stroke-opacity:0.95;stroke-width:0.4;" x="146.66423" xlink:href="#m9af3d681d7" y="51.143411"/>
     <use style="fill:#990000;fill-opacity:0.95;stroke:#fb2c07;stroke-opacity:0.95;stroke-width:0.4;" x="146.931066" xlink:href="#m9af3d681d7" y="51.649807"/>
     <use style="fill:#990000;fill-opacity:0.95;stroke:#fb2c07;stroke-opacity:0.95;stroke-width:0.4;" x="147.197896" xlink:href="#m9af3d681d7" y="52.248264"/>
     <use style="fill:#990000;fill-opacity:0.95;stroke:#fb2c07;stroke-opacity:0.95;stroke-width:0.4;" x="147.464732" xlink:href="#m9af3d681d7" y="53.353117"/>
     <use style="fill:#990000;fill-opacity:0.95;stroke:#fb2c07;stroke-opacity:0.95;stroke-width:0.4;" x="147.731563" xlink:href="#m9af3d681d7" y="54.734151"/>
     <use style="fill:#990000;fill-opacity:0.95;stroke:#fb2c07;stroke-opacity:0.95;stroke-width:0.4;" x="147.998398" xlink:href="#m9af3d681d7" y="55.931065"/>
     <use style="fill:#990000;fill-opacity:0.95;stroke:#fb2c07;stroke-opacity:0.95;stroke-width:0.4;" x="148.265229" xlink:href="#m9af3d681d7" y="57.312226"/>
     <use style="fill:#990000;fill-opacity:0.95;stroke:#fb2c07;stroke-opacity:0.95;stroke-width:0.4;" x="182.019083" xlink:href="#m9af3d681d7" y="52.216567"/>
     <use style="fill:#990000;fill-opacity:0.95;stroke:#fb2c07;stroke-opacity:0.95;stroke-width:0.4;" x="182.108574" xlink:href="#m9af3d681d7" y="51.840495"/>
     <use style="fill:#990000;fill-opacity:0.95;stroke:#fb2c07;stroke-opacity:0.95;stroke-width:0.4;" x="182.19807" xlink:href="#m9af3d681d7" y="51.48526"/>
     <use style="fill:#990000;fill-opacity:0.95;stroke:#fb2c07;stroke-opacity:0.95;stroke-width:0.4;" x="182.287561" xlink:href="#m9af3d681d7" y="51.234461"/>
     <use style="fill:#990000;fill-opacity:0.95;stroke:#fb2c07;stroke-opacity:0.95;stroke-width:0.4;" x="182.377052" xlink:href="#m9af3d681d7" y="51.046426"/>
     <use style="fill:#990000;fill-opacity:0.95;stroke:#fb2c07;stroke-opacity:0.95;stroke-width:0.4;" x="182.466549" xlink:href="#m9af3d681d7" y="50.900189"/>
     <use style="fill:#990000;fill-opacity:0.95;stroke:#fb2c07;stroke-opacity:0.95;stroke-width:0.4;" x="182.55604" xlink:href="#m9af3d681d7" y="50.691317"/>
     <use style="fill:#990000;fill-opacity:0.95;stroke:#fb2c07;stroke-opacity:0.95;stroke-width:0.4;" x="182.645531" xlink:href="#m9af3d681d7" y="50.482318"/>
     <use style="fill:#990000;fill-opacity:0.95;stroke:#fb2c07;stroke-opacity:0.95;stroke-width:0.4;" x="182.735027" xlink:href="#m9af3d681d7" y="50.294282"/>
     <use style="fill:#990000;fill-opacity:0.95;stroke:#fb2c07;stroke-opacity:0.95;stroke-width:0.4;" x="182.824518" xlink:href="#m9af3d681d7" y="50.189846"/>
     <use style="fill:#990000;fill-opacity:0.95;stroke:#fb2c07;stroke-opacity:0.95;stroke-width:0.4;" x="182.914009" xlink:href="#m9af3d681d7" y="50.106246"/>
     <use style="fill:#990000;fill-opacity:0.95;stroke:#fb2c07;stroke-opacity:0.95;stroke-width:0.4;" x="183.003506" xlink:href="#m9af3d681d7" y="50.00181"/>
     <use style="fill:#990000;fill-opacity:0.95;stroke:#fb2c07;stroke-opacity:0.95;stroke-width:0.4;" x="183.092997" xlink:href="#m9af3d681d7" y="49.87641"/>
     <use style="fill:#990000;fill-opacity:0.95;stroke:#fb2c07;stroke-opacity:0.95;stroke-width:0.4;" x="183.182488" xlink:href="#m9af3d681d7" y="49.792811"/>
     <use style="fill:#990000;fill-opacity:0.95;stroke:#fb2c07;stroke-opacity:0.95;stroke-width:0.4;" x="183.271984" xlink:href="#m9af3d681d7" y="49.730174"/>
     <use style="fill:#990000;fill-opacity:0.95;stroke:#fb2c07;stroke-opacity:0.95;stroke-width:0.4;" x="183.361475" xlink:href="#m9af3d681d7" y="49.604775"/>
     <use style="fill:#990000;fill-opacity:0.95;stroke:#fb2c07;stroke-opacity:0.95;stroke-width:0.4;" x="183.450966" xlink:href="#m9af3d681d7" y="49.583938"/>
     <use style="fill:#990000;fill-opacity:0.95;stroke:#fb2c07;stroke-opacity:0.95;stroke-width:0.4;" x="183.540462" xlink:href="#m9af3d681d7" y="49.583938"/>
     <use style="fill:#990000;fill-opacity:0.95;stroke:#fb2c07;stroke-opacity:0.95;stroke-width:0.4;" x="183.629954" xlink:href="#m9af3d681d7" y="49.583938"/>
     <use style="fill:#990000;fill-opacity:0.95;stroke:#fb2c07;stroke-opacity:0.95;stroke-width:0.4;" x="183.719445" xlink:href="#m9af3d681d7" y="49.646575"/>
     <use style="fill:#990000;fill-opacity:0.95;stroke:#fb2c07;stroke-opacity:0.95;stroke-width:0.4;" x="183.808941" xlink:href="#m9af3d681d7" y="49.625612"/>
     <use style="fill:#990000;fill-opacity:0.95;stroke:#fb2c07;stroke-opacity:0.95;stroke-width:0.4;" x="183.898432" xlink:href="#m9af3d681d7" y="49.583938"/>
     <use style="fill:#990000;fill-opacity:0.95;stroke:#fb2c07;stroke-opacity:0.95;stroke-width:0.4;" x="183.987923" xlink:href="#m9af3d681d7" y="49.646575"/>
     <use style="fill:#990000;fill-opacity:0.95;stroke:#fb2c07;stroke-opacity:0.95;stroke-width:0.4;" x="184.077419" xlink:href="#m9af3d681d7" y="49.583938"/>
     <use style="fill:#990000;fill-opacity:0.95;stroke:#fb2c07;stroke-opacity:0.95;stroke-width:0.4;" x="184.16691" xlink:href="#m9af3d681d7" y="49.730174"/>
     <use style="fill:#990000;fill-opacity:0.95;stroke:#fb2c07;stroke-opacity:0.95;stroke-width:0.4;" x="184.256401" xlink:href="#m9af3d681d7" y="49.730174"/>
     <use style="fill:#990000;fill-opacity:0.95;stroke:#fb2c07;stroke-opacity:0.95;stroke-width:0.4;" x="184.345898" xlink:href="#m9af3d681d7" y="49.813774"/>
     <use style="fill:#990000;fill-opacity:0.95;stroke:#fb2c07;stroke-opacity:0.95;stroke-width:0.4;" x="184.435389" xlink:href="#m9af3d681d7" y="49.96001"/>
     <use style="fill:#990000;fill-opacity:0.95;stroke:#fb2c07;stroke-opacity:0.95;stroke-width:0.4;" x="184.52488" xlink:href="#m9af3d681d7" y="50.168883"/>
     <use style="fill:#990000;fill-opacity:0.95;stroke:#fb2c07;stroke-opacity:0.95;stroke-width:0.4;" x="184.614376" xlink:href="#m9af3d681d7" y="50.273445"/>
     <use style="fill:#990000;fill-opacity:0.95;stroke:#fb2c07;stroke-opacity:0.95;stroke-width:0.4;" x="184.703867" xlink:href="#m9af3d681d7" y="50.586754"/>
     <use style="fill:#990000;fill-opacity:0.95;stroke:#fb2c07;stroke-opacity:0.95;stroke-width:0.4;" x="218.595948" xlink:href="#m9af3d681d7" y="60.735641"/>
     <use style="fill:#990000;fill-opacity:0.95;stroke:#fb2c07;stroke-opacity:0.95;stroke-width:0.4;" x="218.765541" xlink:href="#m9af3d681d7" y="59.949274"/>
     <use style="fill:#990000;fill-opacity:0.95;stroke:#fb2c07;stroke-opacity:0.95;stroke-width:0.4;" x="218.935135" xlink:href="#m9af3d681d7" y="59.51246"/>
     <use style="fill:#990000;fill-opacity:0.95;stroke:#fb2c07;stroke-opacity:0.95;stroke-width:0.4;" x="219.104728" xlink:href="#m9af3d681d7" y="59.075646"/>
     <use style="fill:#990000;fill-opacity:0.95;stroke:#fb2c07;stroke-opacity:0.95;stroke-width:0.4;" x="219.274321" xlink:href="#m9af3d681d7" y="58.202018"/>
     <use style="fill:#990000;fill-opacity:0.95;stroke:#fb2c07;stroke-opacity:0.95;stroke-width:0.4;" x="219.443915" xlink:href="#m9af3d681d7" y="57.677816"/>
     <use style="fill:#990000;fill-opacity:0.95;stroke:#fb2c07;stroke-opacity:0.95;stroke-width:0.4;" x="219.613508" xlink:href="#m9af3d681d7" y="56.978964"/>
     <use style="fill:#990000;fill-opacity:0.95;stroke:#fb2c07;stroke-opacity:0.95;stroke-width:0.4;" x="219.783101" xlink:href="#m9af3d681d7" y="56.367374"/>
     <use style="fill:#990000;fill-opacity:0.95;stroke:#fb2c07;stroke-opacity:0.95;stroke-width:0.4;" x="219.952695" xlink:href="#m9af3d681d7" y="56.7168"/>
     <use style="fill:#990000;fill-opacity:0.95;stroke:#fb2c07;stroke-opacity:0.95;stroke-width:0.4;" x="220.122288" xlink:href="#m9af3d681d7" y="55.843172"/>
     <use style="fill:#990000;fill-opacity:0.95;stroke:#fb2c07;stroke-opacity:0.95;stroke-width:0.4;" x="220.291881" xlink:href="#m9af3d681d7" y="55.231581"/>
     <use style="fill:#990000;fill-opacity:0.95;stroke:#fb2c07;stroke-opacity:0.95;stroke-width:0.4;" x="220.461475" xlink:href="#m9af3d681d7" y="55.056932"/>
     <use style="fill:#990000;fill-opacity:0.95;stroke:#fb2c07;stroke-opacity:0.95;stroke-width:0.4;" x="220.631068" xlink:href="#m9af3d681d7" y="54.357953"/>
     <use style="fill:#990000;fill-opacity:0.95;stroke:#fb2c07;stroke-opacity:0.95;stroke-width:0.4;" x="220.800661" xlink:href="#m9af3d681d7" y="54.183177"/>
     <use style="fill:#990000;fill-opacity:0.95;stroke:#fb2c07;stroke-opacity:0.95;stroke-width:0.4;" x="220.970255" xlink:href="#m9af3d681d7" y="54.008527"/>
     <use style="fill:#990000;fill-opacity:0.95;stroke:#fb2c07;stroke-opacity:0.95;stroke-width:0.4;" x="221.139848" xlink:href="#m9af3d681d7" y="53.921139"/>
     <use style="fill:#990000;fill-opacity:0.95;stroke:#fb2c07;stroke-opacity:0.95;stroke-width:0.4;" x="221.309441" xlink:href="#m9af3d681d7" y="53.746363"/>
     <use style="fill:#990000;fill-opacity:0.95;stroke:#fb2c07;stroke-opacity:0.95;stroke-width:0.4;" x="221.479034" xlink:href="#m9af3d681d7" y="53.659101"/>
     <use style="fill:#990000;fill-opacity:0.95;stroke:#fb2c07;stroke-opacity:0.95;stroke-width:0.4;" x="221.648628" xlink:href="#m9af3d681d7" y="53.396937"/>
     <use style="fill:#990000;fill-opacity:0.95;stroke:#fb2c07;stroke-opacity:0.95;stroke-width:0.4;" x="221.818221" xlink:href="#m9af3d681d7" y="53.396937"/>
     <use style="fill:#990000;fill-opacity:0.95;stroke:#fb2c07;stroke-opacity:0.95;stroke-width:0.4;" x="221.987814" xlink:href="#m9af3d681d7" y="53.484325"/>
     <use style="fill:#990000;fill-opacity:0.95;stroke:#fb2c07;stroke-opacity:0.95;stroke-width:0.4;" x="222.157408" xlink:href="#m9af3d681d7" y="53.746363"/>
     <use style="fill:#990000;fill-opacity:0.95;stroke:#fb2c07;stroke-opacity:0.95;stroke-width:0.4;" x="222.327001" xlink:href="#m9af3d681d7" y="54.095915"/>
     <use style="fill:#990000;fill-opacity:0.95;stroke:#fb2c07;stroke-opacity:0.95;stroke-width:0.4;" x="222.496594" xlink:href="#m9af3d681d7" y="54.270565"/>
     <use style="fill:#990000;fill-opacity:0.95;stroke:#fb2c07;stroke-opacity:0.95;stroke-width:0.4;" x="222.666188" xlink:href="#m9af3d681d7" y="54.53273"/>
     <use style="fill:#990000;fill-opacity:0.95;stroke:#fb2c07;stroke-opacity:0.95;stroke-width:0.4;" x="222.835781" xlink:href="#m9af3d681d7" y="54.707379"/>
     <use style="fill:#990000;fill-opacity:0.95;stroke:#fb2c07;stroke-opacity:0.95;stroke-width:0.4;" x="223.005374" xlink:href="#m9af3d681d7" y="55.31897"/>
     <use style="fill:#990000;fill-opacity:0.95;stroke:#fb2c07;stroke-opacity:0.95;stroke-width:0.4;" x="223.174968" xlink:href="#m9af3d681d7" y="55.668396"/>
     <use style="fill:#990000;fill-opacity:0.95;stroke:#fb2c07;stroke-opacity:0.95;stroke-width:0.4;" x="223.344561" xlink:href="#m9af3d681d7" y="56.10521"/>
     <use style="fill:#990000;fill-opacity:0.95;stroke:#fb2c07;stroke-opacity:0.95;stroke-width:0.4;" x="223.514154" xlink:href="#m9af3d681d7" y="56.7168"/>
     <use style="fill:#990000;fill-opacity:0.95;stroke:#fb2c07;stroke-opacity:0.95;stroke-width:0.4;" x="223.683748" xlink:href="#m9af3d681d7" y="56.804188"/>
    </g>
   </g>
   <g id="line2d_27">
    <path clip-path="url(#p845cdf1b7e)" d="M 66.443301 -1 
L 67.01778 217 
M 67.188433 217 
L 67.379801 135.94825 
L 67.603314 108.85755 
L 68.273851 106.878476 
L 70.285464 100.115656 
L 70.956001 98.711841 
L 71.403026 98.185947 
L 71.850051 98.024031 
L 72.297076 98.244764 
L 72.744101 98.857063 
L 73.191126 99.860454 
L 73.861664 102.073983 
L 74.532201 105.062974 
L 75.649764 111.336624 
L 76.767327 118.086766 
L 76.990839 138.069329 
L 77.17626 217 
M 77.345308 217 
L 77.437864 205.539565 
L 77.91725 -1 
M 103.522299 -1 
L 104.027206 217 
M 104.262518 217 
L 104.482879 146.251855 
L 106.270979 132.030699 
L 107.165029 126.716671 
L 107.835566 123.964293 
L 108.282591 122.781481 
L 108.729616 122.145947 
L 108.953129 122.038142 
L 109.176641 122.072135 
L 109.400154 122.248898 
L 109.847179 123.03316 
L 110.294204 124.39291 
L 110.964742 127.504163 
L 111.635279 131.87024 
L 112.529329 139.515927 
L 113.646892 151.496349 
L 113.870404 154.120082 
L 114.191854 217 
M 114.362848 217 
L 114.864929 -1 
M 140.583479 -1 
L 141.083085 217 
M 141.260768 217 
L 141.585956 172.596718 
L 142.703519 157.30842 
L 143.597569 147.975539 
L 144.268106 142.76243 
L 144.938644 139.109341 
L 145.385669 137.547349 
L 145.832694 136.687388 
L 146.056206 136.521472 
L 146.279719 136.532041 
L 146.503232 136.719453 
L 146.950257 137.626377 
L 147.397282 139.245767 
L 148.067819 143.020096 
L 148.738357 148.42437 
L 149.408894 155.479672 
L 150.302944 167.498985 
L 150.973482 178.512742 
L 151.084741 217 
M 151.313387 217 
L 151.644019 83.415929 
L 151.836049 -1 
M 177.602954 -1 
L 178.125616 217 
M 178.354262 217 
L 178.465521 178.512742 
L 179.583084 161.112573 
L 180.477134 150.591542 
L 181.147671 144.639451 
L 181.818209 140.323918 
L 182.488747 137.626377 
L 182.935772 136.719453 
L 183.159284 136.532041 
L 183.382797 136.521472 
L 183.606309 136.687388 
L 184.053334 137.547349 
L 184.500359 139.109341 
L 185.170897 142.76243 
L 185.841434 147.975539 
L 186.735484 157.30842 
L 187.629534 169.238835 
L 187.853047 172.596718 
L 188.178235 217 
M 188.355918 217 
L 188.855524 -1 
M 214.574074 -1 
L 215.076155 217 
M 215.247149 217 
L 215.568599 154.120082 
L 216.909674 139.515927 
L 217.803724 131.87024 
L 218.474262 127.504163 
L 219.144799 124.39291 
L 219.591824 123.03316 
L 220.038849 122.248898 
L 220.262362 122.072135 
L 220.485874 122.038142 
L 220.709387 122.145947 
L 221.156412 122.781481 
L 221.603437 123.964293 
L 222.273974 126.716671 
L 222.944512 130.543502 
L 223.838562 137.009012 
L 224.956124 146.251855 
L 225.176485 217 
M 225.411798 217 
L 225.916705 -1 
M 251.521753 -1 
L 252.093695 217 
M 252.262743 217 
L 252.448164 138.069329 
L 252.671676 118.086766 
L 255.353827 102.9898 
L 256.024364 100.506053 
L 256.694902 98.857063 
L 257.141927 98.244764 
L 257.588952 98.024031 
L 258.035977 98.185947 
L 258.483002 98.711841 
L 258.930027 99.572363 
L 259.600564 101.395832 
L 260.718127 105.297834 
L 261.612177 108.273446 
L 261.83569 108.85755 
L 262.059202 135.94825 
L 262.25057 217 
M 262.421223 217 
L 262.506227 208.644591 
L 262.995703 -1 
L 262.995703 -1 
" style="fill:none;stroke:#004ba8;stroke-linecap:square;stroke-width:0.9;"/>
   </g>
   <g id="line2d_28">
    <path clip-path="url(#p845cdf1b7e)" d="M 66.288997 217 
L 66.485751 144.078344 
L 66.709263 110.085758 
L 66.932776 109.974973 
L 67.156288 146.443332 
L 67.323412 217 
M 67.511497 217 
L 67.603314 200.402393 
L 67.826826 109.377679 
L 68.050339 89.181942 
L 68.720876 78.70118 
L 69.614926 68.570915 
L 70.285464 63.143468 
L 70.956001 59.397282 
L 71.403026 57.792181 
L 71.850051 56.883545 
L 72.073564 56.687529 
L 72.297076 56.662776 
L 72.520589 56.808918 
L 72.967614 57.613732 
L 73.414639 59.104388 
L 73.861664 61.288125 
L 74.532201 65.894661 
L 75.202739 72.179119 
L 75.873277 80.336656 
L 76.320302 87.218979 
L 76.543814 102.829926 
L 76.863999 217 
M 77.066168 217 
L 77.214352 154.661263 
L 77.437864 121.643926 
L 77.661377 122.643246 
L 77.884889 146.581143 
L 78.073316 217 
M 103.350618 217 
L 103.365316 215.123609 
L 103.588829 153.435786 
L 104.035854 149.971511 
L 104.353122 217 
M 104.547951 217 
L 104.929904 83.18626 
L 105.376929 75.860657 
L 106.270979 66.07154 
L 107.165029 59.118983 
L 107.835566 55.575885 
L 108.282591 53.982816 
L 108.729616 52.996108 
L 109.176641 52.610762 
L 109.400154 52.642405 
L 109.623666 52.82307 
L 110.070691 53.630185 
L 110.517717 55.030032 
L 111.188254 58.239392 
L 111.858792 62.786895 
L 112.529329 68.711231 
L 113.199867 76.224605 
L 113.423379 79.554887 
L 113.646892 127.515398 
L 113.864528 217 
M 114.11378 217 
L 114.317429 159.638028 
L 114.764454 165.135888 
L 115.062478 217 
M 140.3884 217 
L 140.468394 196.056486 
L 140.691906 187.567226 
L 141.138931 179.883165 
L 141.262853 217 
M 141.493048 217 
L 141.585956 195.780197 
L 141.809469 104.745393 
L 142.032981 72.700881 
L 142.703519 65.553284 
L 143.597569 58.3788 
L 144.268106 54.342864 
L 144.938644 51.46529 
L 145.385669 50.199615 
L 145.832694 49.460787 
L 146.279719 49.250519 
L 146.503232 49.343493 
L 146.950257 49.924093 
L 147.397282 51.026926 
L 148.067819 53.644212 
L 148.738357 57.386108 
L 149.632407 64.063344 
L 150.302944 70.496446 
L 150.526457 75.589987 
L 150.896585 217 
M 151.102958 217 
L 151.196994 194.045191 
L 151.420507 186.962394 
L 151.867532 196.462636 
L 151.953524 217 
M 177.485479 217 
L 177.571471 196.462636 
L 178.018496 186.962394 
L 178.242009 194.045191 
L 178.336045 217 
M 178.542418 217 
L 178.912546 75.589987 
L 179.136059 70.496446 
L 180.030109 62.214651 
L 180.924159 56.016324 
L 181.594696 52.64493 
L 182.265234 50.41061 
L 182.712259 49.568175 
L 183.159284 49.250519 
L 183.382797 49.289565 
L 183.829822 49.764185 
L 184.276847 50.76679 
L 184.723872 52.294576 
L 185.394409 55.560401 
L 186.064947 59.978833 
L 186.958997 67.687809 
L 187.406022 72.700881 
L 187.629534 104.745393 
L 187.945955 217 
M 188.17615 217 
L 188.300072 179.883165 
L 188.747097 187.567226 
L 188.970609 196.056486 
L 189.050603 217 
M 214.376525 217 
L 214.674549 165.135888 
L 215.121574 159.638028 
L 215.325223 217 
M 215.574475 217 
L 216.015624 79.554887 
L 216.686161 71.01304 
L 217.580211 62.786895 
L 218.250749 58.239392 
L 218.921287 55.030032 
L 219.368312 53.630185 
L 219.815337 52.82307 
L 220.038849 52.642405 
L 220.262362 52.610762 
L 220.485874 52.72852 
L 220.932899 53.414017 
L 221.379924 54.703173 
L 221.826949 56.601917 
L 222.497487 60.613365 
L 223.168024 66.07154 
L 223.838562 73.105674 
L 224.285587 78.910874 
L 224.509099 83.18626 
L 224.891052 217 
M 225.085881 217 
L 225.40315 149.971511 
L 225.850175 153.435786 
L 226.088385 217 
M 251.365687 217 
L 251.554114 146.581143 
L 251.777626 122.643246 
L 252.001139 121.643926 
L 252.224651 154.661263 
L 252.372835 217 
M 252.575004 217 
L 252.671676 192.846981 
L 252.895189 102.829926 
L 253.118701 87.218979 
L 253.789239 77.387003 
L 254.683289 67.796757 
L 255.353827 62.643772 
L 256.024364 59.104388 
L 256.471389 57.613732 
L 256.918414 56.808918 
L 257.141927 56.662776 
L 257.365439 56.687529 
L 257.588952 56.883545 
L 258.035977 57.792181 
L 258.483002 59.397282 
L 258.930027 61.712915 
L 259.600564 66.567725 
L 260.271102 73.192133 
L 260.941639 81.831608 
L 261.388665 89.181942 
L 261.612177 109.377679 
L 261.927506 217 
M 262.115591 217 
L 262.282715 146.443332 
L 262.506227 109.974973 
L 262.72974 110.085758 
L 262.953252 144.078344 
L 263.150006 217 
L 263.150006 217 
" style="fill:none;stroke:#990000;stroke-linecap:square;stroke-width:0.9;"/>
   </g>
   <g id="patch_3">
    <path d="M 53.075 166.48 
L 53.075 14.94 
" style="fill:none;stroke:#2b2b2b;stroke-linecap:square;stroke-linejoin:miter;stroke-width:0.8;"/>
   </g>
   <g id="patch_4">
    <path d="M 276.364003 166.48 
L 276.364003 14.94 
" style="fill:none;stroke:#2b2b2b;stroke-linecap:square;stroke-linejoin:miter;stroke-width:0.8;"/>
   </g>
   <g id="patch_5">
    <path d="M 53.075 166.48 
L 276.364003 166.48 
" style="fill:none;stroke:#2b2b2b;stroke-linecap:square;stroke-linejoin:miter;stroke-width:0.8;"/>
   </g>
   <g id="patch_6">
    <path d="M 53.075 14.94 
L 276.364003 14.94 
" style="fill:none;stroke:#2b2b2b;stroke-linecap:square;stroke-linejoin:miter;stroke-width:0.8;"/>
   </g>
  </g>
 </g>
 <defs>
  <clipPath id="p845cdf1b7e">
   <rect height="151.54" width="223.289003" x="53.075" y="14.94"/>
  </clipPath>
 </defs>
</svg>
