<?xml version="1.0" encoding="utf-8" standalone="no"?>
<!DOCTYPE svg PUBLIC "-//W3C//DTD SVG 1.1//EN"
  "http://www.w3.org/Graphics/SVG/1.1/DTD/svg11.dtd">
<!-- Created with matplotlib (https://matplotlib.org/) -->
<svg height="216pt" version="1.1" viewBox="0 0 288 216" width="288pt" xmlns="http://www.w3.org/2000/svg" xmlns:xlink="http://www.w3.org/1999/xlink">
 <defs>
  <style type="text/css">
*{stroke-linecap:butt;stroke-linejoin:round;}
  </style>
 </defs>
 <g id="figure_1">
  <g id="patch_1">
   <path d="M 0 216 
L 288 216 
L 288 0 
L 0 0 
z
" style="fill:none;"/>
  </g>
  <g id="axes_1">
   <g id="patch_2">
    <path d="M 49.475 170.08 
L 277.2 170.08 
L 277.2 14.94 
L 49.475 14.94 
z
" style="fill:none;"/>
   </g>
   <g id="matplotlib.axis_1">
    <g id="xtick_1">
     <g id="line2d_1">
      <path clip-path="url(#p7b6b8ca621)" d="M 87.429167 170.08 
L 87.429167 14.94 
" style="fill:none;stroke:#b2b2b2;stroke-dasharray:2.96,1.28;stroke-dashoffset:0;stroke-opacity:0.3;stroke-width:0.8;"/>
     </g>
     <g id="line2d_2">
      <defs>
       <path d="M 0 0 
L 0 3.5 
" id="m58d9acd563" style="stroke:#2b2b2b;stroke-width:0.8;"/>
      </defs>
      <g>
       <use style="fill:#2b2b2b;stroke:#2b2b2b;stroke-width:0.8;" x="87.429167" xlink:href="#m58d9acd563" y="170.08"/>
      </g>
     </g>
     <g id="text_1">
      <!-- −2 -->
      <defs>
       <path d="M 10.59375 35.5 
L 73.1875 35.5 
L 73.1875 27.203125 
L 10.59375 27.203125 
z
" id="DejaVuSans-8722"/>
       <path d="M 19.1875 8.296875 
L 53.609375 8.296875 
L 53.609375 0 
L 7.328125 0 
L 7.328125 8.296875 
Q 12.9375 14.109375 22.625 23.890625 
Q 32.328125 33.6875 34.8125 36.53125 
Q 39.546875 41.84375 41.421875 45.53125 
Q 43.3125 49.21875 43.3125 52.78125 
Q 43.3125 58.59375 39.234375 62.25 
Q 35.15625 65.921875 28.609375 65.921875 
Q 23.96875 65.921875 18.8125 64.3125 
Q 13.671875 62.703125 7.8125 59.421875 
L 7.8125 69.390625 
Q 13.765625 71.78125 18.9375 73 
Q 24.125 74.21875 28.421875 74.21875 
Q 39.75 74.21875 46.484375 68.546875 
Q 53.21875 62.890625 53.21875 53.421875 
Q 53.21875 48.921875 51.53125 44.890625 
Q 49.859375 40.875 45.40625 35.40625 
Q 44.1875 33.984375 37.640625 27.21875 
Q 31.109375 20.453125 19.1875 8.296875 
z
" id="DejaVuSans-50"/>
      </defs>
      <g style="fill:#2b2b2b;" transform="translate(79.320964 185.438281)scale(0.11 -0.11)">
       <use xlink:href="#DejaVuSans-8722"/>
       <use x="83.789062" xlink:href="#DejaVuSans-50"/>
      </g>
     </g>
    </g>
    <g id="xtick_2">
     <g id="line2d_3">
      <path clip-path="url(#p7b6b8ca621)" d="M 125.383333 170.08 
L 125.383333 14.94 
" style="fill:none;stroke:#b2b2b2;stroke-dasharray:2.96,1.28;stroke-dashoffset:0;stroke-opacity:0.3;stroke-width:0.8;"/>
     </g>
     <g id="line2d_4">
      <g>
       <use style="fill:#2b2b2b;stroke:#2b2b2b;stroke-width:0.8;" x="125.383333" xlink:href="#m58d9acd563" y="170.08"/>
      </g>
     </g>
     <g id="text_2">
      <!-- −1 -->
      <defs>
       <path d="M 12.40625 8.296875 
L 28.515625 8.296875 
L 28.515625 63.921875 
L 10.984375 60.40625 
L 10.984375 69.390625 
L 28.421875 72.90625 
L 38.28125 72.90625 
L 38.28125 8.296875 
L 54.390625 8.296875 
L 54.390625 0 
L 12.40625 0 
z
" id="DejaVuSans-49"/>
      </defs>
      <g style="fill:#2b2b2b;" transform="translate(117.27513 185.438281)scale(0.11 -0.11)">
       <use xlink:href="#DejaVuSans-8722"/>
       <use x="83.789062" xlink:href="#DejaVuSans-49"/>
      </g>
     </g>
    </g>
    <g id="xtick_3">
     <g id="line2d_5">
      <path clip-path="url(#p7b6b8ca621)" d="M 163.3375 170.08 
L 163.3375 14.94 
" style="fill:none;stroke:#b2b2b2;stroke-dasharray:2.96,1.28;stroke-dashoffset:0;stroke-opacity:0.3;stroke-width:0.8;"/>
     </g>
     <g id="line2d_6">
      <g>
       <use style="fill:#2b2b2b;stroke:#2b2b2b;stroke-width:0.8;" x="163.3375" xlink:href="#m58d9acd563" y="170.08"/>
      </g>
     </g>
     <g id="text_3">
      <!-- 0 -->
      <defs>
       <path d="M 31.78125 66.40625 
Q 24.171875 66.40625 20.328125 58.90625 
Q 16.5 51.421875 16.5 36.375 
Q 16.5 21.390625 20.328125 13.890625 
Q 24.171875 6.390625 31.78125 6.390625 
Q 39.453125 6.390625 43.28125 13.890625 
Q 47.125 21.390625 47.125 36.375 
Q 47.125 51.421875 43.28125 58.90625 
Q 39.453125 66.40625 31.78125 66.40625 
z
M 31.78125 74.21875 
Q 44.046875 74.21875 50.515625 64.515625 
Q 56.984375 54.828125 56.984375 36.375 
Q 56.984375 17.96875 50.515625 8.265625 
Q 44.046875 -1.421875 31.78125 -1.421875 
Q 19.53125 -1.421875 13.0625 8.265625 
Q 6.59375 17.96875 6.59375 36.375 
Q 6.59375 54.828125 13.0625 64.515625 
Q 19.53125 74.21875 31.78125 74.21875 
z
" id="DejaVuSans-48"/>
      </defs>
      <g style="fill:#2b2b2b;" transform="translate(159.838125 185.438281)scale(0.11 -0.11)">
       <use xlink:href="#DejaVuSans-48"/>
      </g>
     </g>
    </g>
    <g id="xtick_4">
     <g id="line2d_7">
      <path clip-path="url(#p7b6b8ca621)" d="M 201.291667 170.08 
L 201.291667 14.94 
" style="fill:none;stroke:#b2b2b2;stroke-dasharray:2.96,1.28;stroke-dashoffset:0;stroke-opacity:0.3;stroke-width:0.8;"/>
     </g>
     <g id="line2d_8">
      <g>
       <use style="fill:#2b2b2b;stroke:#2b2b2b;stroke-width:0.8;" x="201.291667" xlink:href="#m58d9acd563" y="170.08"/>
      </g>
     </g>
     <g id="text_4">
      <!-- 1 -->
      <g style="fill:#2b2b2b;" transform="translate(197.792292 185.438281)scale(0.11 -0.11)">
       <use xlink:href="#DejaVuSans-49"/>
      </g>
     </g>
    </g>
    <g id="xtick_5">
     <g id="line2d_9">
      <path clip-path="url(#p7b6b8ca621)" d="M 239.245833 170.08 
L 239.245833 14.94 
" style="fill:none;stroke:#b2b2b2;stroke-dasharray:2.96,1.28;stroke-dashoffset:0;stroke-opacity:0.3;stroke-width:0.8;"/>
     </g>
     <g id="line2d_10">
      <g>
       <use style="fill:#2b2b2b;stroke:#2b2b2b;stroke-width:0.8;" x="239.245833" xlink:href="#m58d9acd563" y="170.08"/>
      </g>
     </g>
     <g id="text_5">
      <!-- 2 -->
      <g style="fill:#2b2b2b;" transform="translate(235.746458 185.438281)scale(0.11 -0.11)">
       <use xlink:href="#DejaVuSans-50"/>
      </g>
     </g>
    </g>
    <g id="text_6">
     <!-- Normalized Magnetic Flux ($\Phi/\Phi_0$) -->
     <defs>
      <path d="M 9.8125 72.90625 
L 23.09375 72.90625 
L 55.421875 11.921875 
L 55.421875 72.90625 
L 64.984375 72.90625 
L 64.984375 0 
L 51.703125 0 
L 19.390625 60.984375 
L 19.390625 0 
L 9.8125 0 
z
" id="DejaVuSans-78"/>
      <path d="M 30.609375 48.390625 
Q 23.390625 48.390625 19.1875 42.75 
Q 14.984375 37.109375 14.984375 27.296875 
Q 14.984375 17.484375 19.15625 11.84375 
Q 23.34375 6.203125 30.609375 6.203125 
Q 37.796875 6.203125 41.984375 11.859375 
Q 46.1875 17.53125 46.1875 27.296875 
Q 46.1875 37.015625 41.984375 42.703125 
Q 37.796875 48.390625 30.609375 48.390625 
z
M 30.609375 56 
Q 42.328125 56 49.015625 48.375 
Q 55.71875 40.765625 55.71875 27.296875 
Q 55.71875 13.875 49.015625 6.21875 
Q 42.328125 -1.421875 30.609375 -1.421875 
Q 18.84375 -1.421875 12.171875 6.21875 
Q 5.515625 13.875 5.515625 27.296875 
Q 5.515625 40.765625 12.171875 48.375 
Q 18.84375 56 30.609375 56 
z
" id="DejaVuSans-111"/>
      <path d="M 41.109375 46.296875 
Q 39.59375 47.171875 37.8125 47.578125 
Q 36.03125 48 33.890625 48 
Q 26.265625 48 22.1875 43.046875 
Q 18.109375 38.09375 18.109375 28.8125 
L 18.109375 0 
L 9.078125 0 
L 9.078125 54.6875 
L 18.109375 54.6875 
L 18.109375 46.1875 
Q 20.953125 51.171875 25.484375 53.578125 
Q 30.03125 56 36.53125 56 
Q 37.453125 56 38.578125 55.875 
Q 39.703125 55.765625 41.0625 55.515625 
z
" id="DejaVuSans-114"/>
      <path d="M 52 44.1875 
Q 55.375 50.25 60.0625 53.125 
Q 64.75 56 71.09375 56 
Q 79.640625 56 84.28125 50.015625 
Q 88.921875 44.046875 88.921875 33.015625 
L 88.921875 0 
L 79.890625 0 
L 79.890625 32.71875 
Q 79.890625 40.578125 77.09375 44.375 
Q 74.3125 48.1875 68.609375 48.1875 
Q 61.625 48.1875 57.5625 43.546875 
Q 53.515625 38.921875 53.515625 30.90625 
L 53.515625 0 
L 44.484375 0 
L 44.484375 32.71875 
Q 44.484375 40.625 41.703125 44.40625 
Q 38.921875 48.1875 33.109375 48.1875 
Q 26.21875 48.1875 22.15625 43.53125 
Q 18.109375 38.875 18.109375 30.90625 
L 18.109375 0 
L 9.078125 0 
L 9.078125 54.6875 
L 18.109375 54.6875 
L 18.109375 46.1875 
Q 21.1875 51.21875 25.484375 53.609375 
Q 29.78125 56 35.6875 56 
Q 41.65625 56 45.828125 52.96875 
Q 50 49.953125 52 44.1875 
z
" id="DejaVuSans-109"/>
      <path d="M 34.28125 27.484375 
Q 23.390625 27.484375 19.1875 25 
Q 14.984375 22.515625 14.984375 16.5 
Q 14.984375 11.71875 18.140625 8.90625 
Q 21.296875 6.109375 26.703125 6.109375 
Q 34.1875 6.109375 38.703125 11.40625 
Q 43.21875 16.703125 43.21875 25.484375 
L 43.21875 27.484375 
z
M 52.203125 31.203125 
L 52.203125 0 
L 43.21875 0 
L 43.21875 8.296875 
Q 40.140625 3.328125 35.546875 0.953125 
Q 30.953125 -1.421875 24.3125 -1.421875 
Q 15.921875 -1.421875 10.953125 3.296875 
Q 6 8.015625 6 15.921875 
Q 6 25.140625 12.171875 29.828125 
Q 18.359375 34.515625 30.609375 34.515625 
L 43.21875 34.515625 
L 43.21875 35.40625 
Q 43.21875 41.609375 39.140625 45 
Q 35.0625 48.390625 27.6875 48.390625 
Q 23 48.390625 18.546875 47.265625 
Q 14.109375 46.140625 10.015625 43.890625 
L 10.015625 52.203125 
Q 14.9375 54.109375 19.578125 55.046875 
Q 24.21875 56 28.609375 56 
Q 40.484375 56 46.34375 49.84375 
Q 52.203125 43.703125 52.203125 31.203125 
z
" id="DejaVuSans-97"/>
      <path d="M 9.421875 75.984375 
L 18.40625 75.984375 
L 18.40625 0 
L 9.421875 0 
z
" id="DejaVuSans-108"/>
      <path d="M 9.421875 54.6875 
L 18.40625 54.6875 
L 18.40625 0 
L 9.421875 0 
z
M 9.421875 75.984375 
L 18.40625 75.984375 
L 18.40625 64.59375 
L 9.421875 64.59375 
z
" id="DejaVuSans-105"/>
      <path d="M 5.515625 54.6875 
L 48.1875 54.6875 
L 48.1875 46.484375 
L 14.40625 7.171875 
L 48.1875 7.171875 
L 48.1875 0 
L 4.296875 0 
L 4.296875 8.203125 
L 38.09375 47.515625 
L 5.515625 47.515625 
z
" id="DejaVuSans-122"/>
      <path d="M 56.203125 29.59375 
L 56.203125 25.203125 
L 14.890625 25.203125 
Q 15.484375 15.921875 20.484375 11.0625 
Q 25.484375 6.203125 34.421875 6.203125 
Q 39.59375 6.203125 44.453125 7.46875 
Q 49.3125 8.734375 54.109375 11.28125 
L 54.109375 2.78125 
Q 49.265625 0.734375 44.1875 -0.34375 
Q 39.109375 -1.421875 33.890625 -1.421875 
Q 20.796875 -1.421875 13.15625 6.1875 
Q 5.515625 13.8125 5.515625 26.8125 
Q 5.515625 40.234375 12.765625 48.109375 
Q 20.015625 56 32.328125 56 
Q 43.359375 56 49.78125 48.890625 
Q 56.203125 41.796875 56.203125 29.59375 
z
M 47.21875 32.234375 
Q 47.125 39.59375 43.09375 43.984375 
Q 39.0625 48.390625 32.421875 48.390625 
Q 24.90625 48.390625 20.390625 44.140625 
Q 15.875 39.890625 15.1875 32.171875 
z
" id="DejaVuSans-101"/>
      <path d="M 45.40625 46.390625 
L 45.40625 75.984375 
L 54.390625 75.984375 
L 54.390625 0 
L 45.40625 0 
L 45.40625 8.203125 
Q 42.578125 3.328125 38.25 0.953125 
Q 33.9375 -1.421875 27.875 -1.421875 
Q 17.96875 -1.421875 11.734375 6.484375 
Q 5.515625 14.40625 5.515625 27.296875 
Q 5.515625 40.1875 11.734375 48.09375 
Q 17.96875 56 27.875 56 
Q 33.9375 56 38.25 53.625 
Q 42.578125 51.265625 45.40625 46.390625 
z
M 14.796875 27.296875 
Q 14.796875 17.390625 18.875 11.75 
Q 22.953125 6.109375 30.078125 6.109375 
Q 37.203125 6.109375 41.296875 11.75 
Q 45.40625 17.390625 45.40625 27.296875 
Q 45.40625 37.203125 41.296875 42.84375 
Q 37.203125 48.484375 30.078125 48.484375 
Q 22.953125 48.484375 18.875 42.84375 
Q 14.796875 37.203125 14.796875 27.296875 
z
" id="DejaVuSans-100"/>
      <path id="DejaVuSans-32"/>
      <path d="M 9.8125 72.90625 
L 24.515625 72.90625 
L 43.109375 23.296875 
L 61.8125 72.90625 
L 76.515625 72.90625 
L 76.515625 0 
L 66.890625 0 
L 66.890625 64.015625 
L 48.09375 14.015625 
L 38.1875 14.015625 
L 19.390625 64.015625 
L 19.390625 0 
L 9.8125 0 
z
" id="DejaVuSans-77"/>
      <path d="M 45.40625 27.984375 
Q 45.40625 37.75 41.375 43.109375 
Q 37.359375 48.484375 30.078125 48.484375 
Q 22.859375 48.484375 18.828125 43.109375 
Q 14.796875 37.75 14.796875 27.984375 
Q 14.796875 18.265625 18.828125 12.890625 
Q 22.859375 7.515625 30.078125 7.515625 
Q 37.359375 7.515625 41.375 12.890625 
Q 45.40625 18.265625 45.40625 27.984375 
z
M 54.390625 6.78125 
Q 54.390625 -7.171875 48.1875 -13.984375 
Q 42 -20.796875 29.203125 -20.796875 
Q 24.46875 -20.796875 20.265625 -20.09375 
Q 16.0625 -19.390625 12.109375 -17.921875 
L 12.109375 -9.1875 
Q 16.0625 -11.328125 19.921875 -12.34375 
Q 23.78125 -13.375 27.78125 -13.375 
Q 36.625 -13.375 41.015625 -8.765625 
Q 45.40625 -4.15625 45.40625 5.171875 
L 45.40625 9.625 
Q 42.625 4.78125 38.28125 2.390625 
Q 33.9375 0 27.875 0 
Q 17.828125 0 11.671875 7.65625 
Q 5.515625 15.328125 5.515625 27.984375 
Q 5.515625 40.671875 11.671875 48.328125 
Q 17.828125 56 27.875 56 
Q 33.9375 56 38.28125 53.609375 
Q 42.625 51.21875 45.40625 46.390625 
L 45.40625 54.6875 
L 54.390625 54.6875 
z
" id="DejaVuSans-103"/>
      <path d="M 54.890625 33.015625 
L 54.890625 0 
L 45.90625 0 
L 45.90625 32.71875 
Q 45.90625 40.484375 42.875 44.328125 
Q 39.84375 48.1875 33.796875 48.1875 
Q 26.515625 48.1875 22.3125 43.546875 
Q 18.109375 38.921875 18.109375 30.90625 
L 18.109375 0 
L 9.078125 0 
L 9.078125 54.6875 
L 18.109375 54.6875 
L 18.109375 46.1875 
Q 21.34375 51.125 25.703125 53.5625 
Q 30.078125 56 35.796875 56 
Q 45.21875 56 50.046875 50.171875 
Q 54.890625 44.34375 54.890625 33.015625 
z
" id="DejaVuSans-110"/>
      <path d="M 18.3125 70.21875 
L 18.3125 54.6875 
L 36.8125 54.6875 
L 36.8125 47.703125 
L 18.3125 47.703125 
L 18.3125 18.015625 
Q 18.3125 11.328125 20.140625 9.421875 
Q 21.96875 7.515625 27.59375 7.515625 
L 36.8125 7.515625 
L 36.8125 0 
L 27.59375 0 
Q 17.1875 0 13.234375 3.875 
Q 9.28125 7.765625 9.28125 18.015625 
L 9.28125 47.703125 
L 2.6875 47.703125 
L 2.6875 54.6875 
L 9.28125 54.6875 
L 9.28125 70.21875 
z
" id="DejaVuSans-116"/>
      <path d="M 48.78125 52.59375 
L 48.78125 44.1875 
Q 44.96875 46.296875 41.140625 47.34375 
Q 37.3125 48.390625 33.40625 48.390625 
Q 24.65625 48.390625 19.8125 42.84375 
Q 14.984375 37.3125 14.984375 27.296875 
Q 14.984375 17.28125 19.8125 11.734375 
Q 24.65625 6.203125 33.40625 6.203125 
Q 37.3125 6.203125 41.140625 7.25 
Q 44.96875 8.296875 48.78125 10.40625 
L 48.78125 2.09375 
Q 45.015625 0.34375 40.984375 -0.53125 
Q 36.96875 -1.421875 32.421875 -1.421875 
Q 20.0625 -1.421875 12.78125 6.34375 
Q 5.515625 14.109375 5.515625 27.296875 
Q 5.515625 40.671875 12.859375 48.328125 
Q 20.21875 56 33.015625 56 
Q 37.15625 56 41.109375 55.140625 
Q 45.0625 54.296875 48.78125 52.59375 
z
" id="DejaVuSans-99"/>
      <path d="M 9.8125 72.90625 
L 51.703125 72.90625 
L 51.703125 64.59375 
L 19.671875 64.59375 
L 19.671875 43.109375 
L 48.578125 43.109375 
L 48.578125 34.8125 
L 19.671875 34.8125 
L 19.671875 0 
L 9.8125 0 
z
" id="DejaVuSans-70"/>
      <path d="M 8.5 21.578125 
L 8.5 54.6875 
L 17.484375 54.6875 
L 17.484375 21.921875 
Q 17.484375 14.15625 20.5 10.265625 
Q 23.53125 6.390625 29.59375 6.390625 
Q 36.859375 6.390625 41.078125 11.03125 
Q 45.3125 15.671875 45.3125 23.6875 
L 45.3125 54.6875 
L 54.296875 54.6875 
L 54.296875 0 
L 45.3125 0 
L 45.3125 8.40625 
Q 42.046875 3.421875 37.71875 1 
Q 33.40625 -1.421875 27.6875 -1.421875 
Q 18.265625 -1.421875 13.375 4.4375 
Q 8.5 10.296875 8.5 21.578125 
z
M 31.109375 56 
z
" id="DejaVuSans-117"/>
      <path d="M 54.890625 54.6875 
L 35.109375 28.078125 
L 55.90625 0 
L 45.3125 0 
L 29.390625 21.484375 
L 13.484375 0 
L 2.875 0 
L 24.125 28.609375 
L 4.6875 54.6875 
L 15.28125 54.6875 
L 29.78125 35.203125 
L 44.28125 54.6875 
z
" id="DejaVuSans-120"/>
      <path d="M 31 75.875 
Q 24.46875 64.65625 21.28125 53.65625 
Q 18.109375 42.671875 18.109375 31.390625 
Q 18.109375 20.125 21.3125 9.0625 
Q 24.515625 -2 31 -13.1875 
L 23.1875 -13.1875 
Q 15.875 -1.703125 12.234375 9.375 
Q 8.59375 20.453125 8.59375 31.390625 
Q 8.59375 42.28125 12.203125 53.3125 
Q 15.828125 64.359375 23.1875 75.875 
z
" id="DejaVuSans-40"/>
      <path d="M 18.609375 0 
L 18.609375 3.515625 
Q 31.390625 3.515625 31.390625 6.6875 
L 31.390625 13.921875 
Q 21.78125 14.84375 14.5 19.671875 
Q 10.6875 22.265625 8.140625 26.078125 
Q 5.609375 29.890625 5.609375 34.1875 
Q 5.609375 38.421875 8.140625 42.25 
Q 10.6875 46.09375 14.5 48.578125 
Q 18.265625 51.125 22.4375 52.515625 
Q 26.609375 53.90625 31.390625 54.390625 
L 31.390625 61.625 
Q 31.390625 64.796875 18.609375 64.796875 
L 18.609375 68.3125 
L 52.875 68.3125 
L 52.875 64.796875 
Q 40.09375 64.796875 40.09375 61.625 
L 40.09375 54.390625 
Q 44.234375 54.390625 48.875 52.84375 
Q 53.515625 51.3125 57.46875 48.671875 
Q 61.421875 46.046875 63.953125 42.265625 
Q 66.5 38.484375 66.5 34.1875 
Q 66.5 29.890625 63.953125 26.125 
Q 61.421875 22.359375 57.34375 19.625 
Q 53.265625 16.890625 48.625 15.40625 
Q 44 13.921875 40.09375 13.921875 
L 40.09375 6.6875 
Q 40.09375 3.515625 52.875 3.515625 
L 52.875 0 
z
M 40.09375 16.5 
Q 48.140625 17.53125 52.125 21.890625 
Q 56.109375 26.265625 56.109375 34.1875 
Q 56.109375 42.140625 52.078125 46.484375 
Q 48.046875 50.828125 40.09375 51.8125 
z
M 31.390625 16.609375 
L 31.390625 51.703125 
Q 16.015625 49.5625 16.015625 34.1875 
Q 16.015625 18.75 31.390625 16.609375 
z
" id="Cmr10-169"/>
      <path d="M 5.609375 -23 
Q 5.609375 -22.703125 5.71875 -22.609375 
L 40.484375 73.78125 
Q 40.671875 74.359375 41.15625 74.671875 
Q 41.65625 75 42.28125 75 
Q 43.171875 75 43.71875 74.453125 
Q 44.28125 73.921875 44.28125 73 
L 44.28125 72.609375 
L 9.515625 -23.78125 
Q 8.9375 -25 7.625 -25 
Q 6.78125 -25 6.1875 -24.40625 
Q 5.609375 -23.828125 5.609375 -23 
z
" id="Cmmi10-61"/>
      <path d="M 25 -2.203125 
Q 12.75 -2.203125 8.328125 7.875 
Q 3.90625 17.96875 3.90625 31.890625 
Q 3.90625 40.578125 5.484375 48.234375 
Q 7.078125 55.90625 11.78125 61.25 
Q 16.5 66.609375 25 66.609375 
Q 31.59375 66.609375 35.78125 63.375 
Q 39.984375 60.15625 42.1875 55.046875 
Q 44.390625 49.953125 45.1875 44.109375 
Q 46 38.28125 46 31.890625 
Q 46 23.296875 44.40625 15.796875 
Q 42.828125 8.296875 38.1875 3.046875 
Q 33.546875 -2.203125 25 -2.203125 
z
M 25 0.390625 
Q 30.5625 0.390625 33.296875 6.09375 
Q 36.03125 11.8125 36.671875 18.75 
Q 37.3125 25.6875 37.3125 33.5 
Q 37.3125 41.015625 36.671875 47.359375 
Q 36.03125 53.71875 33.3125 58.859375 
Q 30.609375 64.015625 25 64.015625 
Q 19.34375 64.015625 16.609375 58.828125 
Q 13.875 53.65625 13.234375 47.328125 
Q 12.59375 41.015625 12.59375 33.5 
Q 12.59375 27.9375 12.859375 23 
Q 13.140625 18.0625 14.3125 12.8125 
Q 15.484375 7.5625 18.09375 3.96875 
Q 20.703125 0.390625 25 0.390625 
z
" id="Cmr10-48"/>
      <path d="M 8.015625 75.875 
L 15.828125 75.875 
Q 23.140625 64.359375 26.78125 53.3125 
Q 30.421875 42.28125 30.421875 31.390625 
Q 30.421875 20.453125 26.78125 9.375 
Q 23.140625 -1.703125 15.828125 -13.1875 
L 8.015625 -13.1875 
Q 14.5 -2 17.703125 9.0625 
Q 20.90625 20.125 20.90625 31.390625 
Q 20.90625 42.671875 17.703125 53.65625 
Q 14.5 64.65625 8.015625 75.875 
z
" id="DejaVuSans-41"/>
     </defs>
     <g transform="translate(64.3975 200.845938)scale(0.12 -0.12)">
      <use transform="translate(0 0.015625)" xlink:href="#DejaVuSans-78"/>
      <use transform="translate(74.804688 0.015625)" xlink:href="#DejaVuSans-111"/>
      <use transform="translate(135.986328 0.015625)" xlink:href="#DejaVuSans-114"/>
      <use transform="translate(177.099609 0.015625)" xlink:href="#DejaVuSans-109"/>
      <use transform="translate(274.511719 0.015625)" xlink:href="#DejaVuSans-97"/>
      <use transform="translate(335.791016 0.015625)" xlink:href="#DejaVuSans-108"/>
      <use transform="translate(363.574219 0.015625)" xlink:href="#DejaVuSans-105"/>
      <use transform="translate(391.357422 0.015625)" xlink:href="#DejaVuSans-122"/>
      <use transform="translate(443.847656 0.015625)" xlink:href="#DejaVuSans-101"/>
      <use transform="translate(505.371094 0.015625)" xlink:href="#DejaVuSans-100"/>
      <use transform="translate(568.847656 0.015625)" xlink:href="#DejaVuSans-32"/>
      <use transform="translate(600.634766 0.015625)" xlink:href="#DejaVuSans-77"/>
      <use transform="translate(686.914062 0.015625)" xlink:href="#DejaVuSans-97"/>
      <use transform="translate(748.193359 0.015625)" xlink:href="#DejaVuSans-103"/>
      <use transform="translate(811.669922 0.015625)" xlink:href="#DejaVuSans-110"/>
      <use transform="translate(875.048828 0.015625)" xlink:href="#DejaVuSans-101"/>
      <use transform="translate(936.572266 0.015625)" xlink:href="#DejaVuSans-116"/>
      <use transform="translate(975.78125 0.015625)" xlink:href="#DejaVuSans-105"/>
      <use transform="translate(1003.564453 0.015625)" xlink:href="#DejaVuSans-99"/>
      <use transform="translate(1058.544922 0.015625)" xlink:href="#DejaVuSans-32"/>
      <use transform="translate(1090.332031 0.015625)" xlink:href="#DejaVuSans-70"/>
      <use transform="translate(1147.851562 0.015625)" xlink:href="#DejaVuSans-108"/>
      <use transform="translate(1175.634766 0.015625)" xlink:href="#DejaVuSans-117"/>
      <use transform="translate(1239.013672 0.015625)" xlink:href="#DejaVuSans-120"/>
      <use transform="translate(1298.193359 0.015625)" xlink:href="#DejaVuSans-32"/>
      <use transform="translate(1329.980469 0.015625)" xlink:href="#DejaVuSans-40"/>
      <use transform="translate(1368.994141 0.015625)" xlink:href="#Cmr10-169"/>
      <use transform="translate(1441.210938 0.015625)" xlink:href="#Cmmi10-61"/>
      <use transform="translate(1491.210938 0.015625)" xlink:href="#Cmr10-169"/>
      <use transform="translate(1567.891875 -16.990625)scale(0.7)" xlink:href="#Cmr10-48"/>
      <use transform="translate(1609.269219 0.015625)" xlink:href="#DejaVuSans-41"/>
     </g>
    </g>
   </g>
   <g id="matplotlib.axis_2">
    <g id="ytick_1">
     <g id="line2d_11">
      <path clip-path="url(#p7b6b8ca621)" d="M 49.475 170.08 
L 277.2 170.08 
" style="fill:none;stroke:#b2b2b2;stroke-dasharray:2.96,1.28;stroke-dashoffset:0;stroke-opacity:0.3;stroke-width:0.8;"/>
     </g>
     <g id="line2d_12">
      <defs>
       <path d="M 0 0 
L -3.5 0 
" id="m97c5086ef8" style="stroke:#2b2b2b;stroke-width:0.8;"/>
      </defs>
      <g>
       <use style="fill:#2b2b2b;stroke:#2b2b2b;stroke-width:0.8;" x="49.475" xlink:href="#m97c5086ef8" y="170.08"/>
      </g>
     </g>
     <g id="text_7">
      <!-- 8 -->
      <defs>
       <path d="M 31.78125 34.625 
Q 24.75 34.625 20.71875 30.859375 
Q 16.703125 27.09375 16.703125 20.515625 
Q 16.703125 13.921875 20.71875 10.15625 
Q 24.75 6.390625 31.78125 6.390625 
Q 38.8125 6.390625 42.859375 10.171875 
Q 46.921875 13.96875 46.921875 20.515625 
Q 46.921875 27.09375 42.890625 30.859375 
Q 38.875 34.625 31.78125 34.625 
z
M 21.921875 38.8125 
Q 15.578125 40.375 12.03125 44.71875 
Q 8.5 49.078125 8.5 55.328125 
Q 8.5 64.0625 14.71875 69.140625 
Q 20.953125 74.21875 31.78125 74.21875 
Q 42.671875 74.21875 48.875 69.140625 
Q 55.078125 64.0625 55.078125 55.328125 
Q 55.078125 49.078125 51.53125 44.71875 
Q 48 40.375 41.703125 38.8125 
Q 48.828125 37.15625 52.796875 32.3125 
Q 56.78125 27.484375 56.78125 20.515625 
Q 56.78125 9.90625 50.3125 4.234375 
Q 43.84375 -1.421875 31.78125 -1.421875 
Q 19.734375 -1.421875 13.25 4.234375 
Q 6.78125 9.90625 6.78125 20.515625 
Q 6.78125 27.484375 10.78125 32.3125 
Q 14.796875 37.15625 21.921875 38.8125 
z
M 18.3125 54.390625 
Q 18.3125 48.734375 21.84375 45.5625 
Q 25.390625 42.390625 31.78125 42.390625 
Q 38.140625 42.390625 41.71875 45.5625 
Q 45.3125 48.734375 45.3125 54.390625 
Q 45.3125 60.0625 41.71875 63.234375 
Q 38.140625 66.40625 31.78125 66.40625 
Q 25.390625 66.40625 21.84375 63.234375 
Q 18.3125 60.0625 18.3125 54.390625 
z
" id="DejaVuSans-56"/>
      </defs>
      <g style="fill:#2b2b2b;" transform="translate(35.47625 174.259141)scale(0.11 -0.11)">
       <use xlink:href="#DejaVuSans-56"/>
      </g>
     </g>
    </g>
    <g id="ytick_2">
     <g id="line2d_13">
      <path clip-path="url(#p7b6b8ca621)" d="M 49.475 144.223333 
L 277.2 144.223333 
" style="fill:none;stroke:#b2b2b2;stroke-dasharray:2.96,1.28;stroke-dashoffset:0;stroke-opacity:0.3;stroke-width:0.8;"/>
     </g>
     <g id="line2d_14">
      <g>
       <use style="fill:#2b2b2b;stroke:#2b2b2b;stroke-width:0.8;" x="49.475" xlink:href="#m97c5086ef8" y="144.223333"/>
      </g>
     </g>
     <g id="text_8">
      <!-- 10 -->
      <g style="fill:#2b2b2b;" transform="translate(28.4775 148.402474)scale(0.11 -0.11)">
       <use xlink:href="#DejaVuSans-49"/>
       <use x="63.623047" xlink:href="#DejaVuSans-48"/>
      </g>
     </g>
    </g>
    <g id="ytick_3">
     <g id="line2d_15">
      <path clip-path="url(#p7b6b8ca621)" d="M 49.475 118.366667 
L 277.2 118.366667 
" style="fill:none;stroke:#b2b2b2;stroke-dasharray:2.96,1.28;stroke-dashoffset:0;stroke-opacity:0.3;stroke-width:0.8;"/>
     </g>
     <g id="line2d_16">
      <g>
       <use style="fill:#2b2b2b;stroke:#2b2b2b;stroke-width:0.8;" x="49.475" xlink:href="#m97c5086ef8" y="118.366667"/>
      </g>
     </g>
     <g id="text_9">
      <!-- 12 -->
      <g style="fill:#2b2b2b;" transform="translate(28.4775 122.545807)scale(0.11 -0.11)">
       <use xlink:href="#DejaVuSans-49"/>
       <use x="63.623047" xlink:href="#DejaVuSans-50"/>
      </g>
     </g>
    </g>
    <g id="ytick_4">
     <g id="line2d_17">
      <path clip-path="url(#p7b6b8ca621)" d="M 49.475 92.51 
L 277.2 92.51 
" style="fill:none;stroke:#b2b2b2;stroke-dasharray:2.96,1.28;stroke-dashoffset:0;stroke-opacity:0.3;stroke-width:0.8;"/>
     </g>
     <g id="line2d_18">
      <g>
       <use style="fill:#2b2b2b;stroke:#2b2b2b;stroke-width:0.8;" x="49.475" xlink:href="#m97c5086ef8" y="92.51"/>
      </g>
     </g>
     <g id="text_10">
      <!-- 14 -->
      <defs>
       <path d="M 37.796875 64.3125 
L 12.890625 25.390625 
L 37.796875 25.390625 
z
M 35.203125 72.90625 
L 47.609375 72.90625 
L 47.609375 25.390625 
L 58.015625 25.390625 
L 58.015625 17.1875 
L 47.609375 17.1875 
L 47.609375 0 
L 37.796875 0 
L 37.796875 17.1875 
L 4.890625 17.1875 
L 4.890625 26.703125 
z
" id="DejaVuSans-52"/>
      </defs>
      <g style="fill:#2b2b2b;" transform="translate(28.4775 96.689141)scale(0.11 -0.11)">
       <use xlink:href="#DejaVuSans-49"/>
       <use x="63.623047" xlink:href="#DejaVuSans-52"/>
      </g>
     </g>
    </g>
    <g id="ytick_5">
     <g id="line2d_19">
      <path clip-path="url(#p7b6b8ca621)" d="M 49.475 66.653333 
L 277.2 66.653333 
" style="fill:none;stroke:#b2b2b2;stroke-dasharray:2.96,1.28;stroke-dashoffset:0;stroke-opacity:0.3;stroke-width:0.8;"/>
     </g>
     <g id="line2d_20">
      <g>
       <use style="fill:#2b2b2b;stroke:#2b2b2b;stroke-width:0.8;" x="49.475" xlink:href="#m97c5086ef8" y="66.653333"/>
      </g>
     </g>
     <g id="text_11">
      <!-- 16 -->
      <defs>
       <path d="M 33.015625 40.375 
Q 26.375 40.375 22.484375 35.828125 
Q 18.609375 31.296875 18.609375 23.390625 
Q 18.609375 15.53125 22.484375 10.953125 
Q 26.375 6.390625 33.015625 6.390625 
Q 39.65625 6.390625 43.53125 10.953125 
Q 47.40625 15.53125 47.40625 23.390625 
Q 47.40625 31.296875 43.53125 35.828125 
Q 39.65625 40.375 33.015625 40.375 
z
M 52.59375 71.296875 
L 52.59375 62.3125 
Q 48.875 64.0625 45.09375 64.984375 
Q 41.3125 65.921875 37.59375 65.921875 
Q 27.828125 65.921875 22.671875 59.328125 
Q 17.53125 52.734375 16.796875 39.40625 
Q 19.671875 43.65625 24.015625 45.921875 
Q 28.375 48.1875 33.59375 48.1875 
Q 44.578125 48.1875 50.953125 41.515625 
Q 57.328125 34.859375 57.328125 23.390625 
Q 57.328125 12.15625 50.6875 5.359375 
Q 44.046875 -1.421875 33.015625 -1.421875 
Q 20.359375 -1.421875 13.671875 8.265625 
Q 6.984375 17.96875 6.984375 36.375 
Q 6.984375 53.65625 15.1875 63.9375 
Q 23.390625 74.21875 37.203125 74.21875 
Q 40.921875 74.21875 44.703125 73.484375 
Q 48.484375 72.75 52.59375 71.296875 
z
" id="DejaVuSans-54"/>
      </defs>
      <g style="fill:#2b2b2b;" transform="translate(28.4775 70.832474)scale(0.11 -0.11)">
       <use xlink:href="#DejaVuSans-49"/>
       <use x="63.623047" xlink:href="#DejaVuSans-54"/>
      </g>
     </g>
    </g>
    <g id="ytick_6">
     <g id="line2d_21">
      <path clip-path="url(#p7b6b8ca621)" d="M 49.475 40.796667 
L 277.2 40.796667 
" style="fill:none;stroke:#b2b2b2;stroke-dasharray:2.96,1.28;stroke-dashoffset:0;stroke-opacity:0.3;stroke-width:0.8;"/>
     </g>
     <g id="line2d_22">
      <g>
       <use style="fill:#2b2b2b;stroke:#2b2b2b;stroke-width:0.8;" x="49.475" xlink:href="#m97c5086ef8" y="40.796667"/>
      </g>
     </g>
     <g id="text_12">
      <!-- 18 -->
      <g style="fill:#2b2b2b;" transform="translate(28.4775 44.975807)scale(0.11 -0.11)">
       <use xlink:href="#DejaVuSans-49"/>
       <use x="63.623047" xlink:href="#DejaVuSans-56"/>
      </g>
     </g>
    </g>
    <g id="ytick_7">
     <g id="line2d_23">
      <path clip-path="url(#p7b6b8ca621)" d="M 49.475 14.94 
L 277.2 14.94 
" style="fill:none;stroke:#b2b2b2;stroke-dasharray:2.96,1.28;stroke-dashoffset:0;stroke-opacity:0.3;stroke-width:0.8;"/>
     </g>
     <g id="line2d_24">
      <g>
       <use style="fill:#2b2b2b;stroke:#2b2b2b;stroke-width:0.8;" x="49.475" xlink:href="#m97c5086ef8" y="14.94"/>
      </g>
     </g>
     <g id="text_13">
      <!-- 20 -->
      <g style="fill:#2b2b2b;" transform="translate(28.4775 19.119141)scale(0.11 -0.11)">
       <use xlink:href="#DejaVuSans-50"/>
       <use x="63.623047" xlink:href="#DejaVuSans-48"/>
      </g>
     </g>
    </g>
    <g id="text_14">
     <!-- $\omega/2\pi$ (GHz) -->
     <defs>
      <path d="M 12.109375 -1.125 
Q 6.453125 -1.125 3.9375 3.015625 
Q 1.421875 7.171875 1.421875 13.1875 
Q 1.421875 17.140625 2.125 20.921875 
Q 2.828125 24.703125 4.265625 28.578125 
Q 5.71875 32.46875 7.5625 35.859375 
Q 9.421875 39.265625 11.71875 42.484375 
Q 12.15625 43.109375 12.890625 43.109375 
Q 13.53125 43.109375 13.921875 42.71875 
Q 14.3125 42.328125 14.3125 41.796875 
Q 14.3125 41.265625 14.015625 40.828125 
Q 4.890625 28.265625 4.890625 17.671875 
Q 4.890625 13.09375 7 9.796875 
Q 9.125 6.5 13.484375 6.5 
Q 17.234375 6.5 20.4375 8.6875 
Q 23.640625 10.890625 25.984375 14.3125 
Q 25.984375 16.0625 26.59375 19.765625 
Q 27.203125 23.484375 28.484375 26.390625 
Q 29.78125 29.296875 31.59375 29.296875 
Q 33.890625 29.296875 33.890625 26.609375 
Q 33.890625 25.046875 33.21875 22.671875 
Q 32.5625 20.3125 31.75 18.265625 
Q 30.953125 16.21875 29.78125 13.625 
Q 30.953125 6.5 36.921875 6.5 
Q 40.375 6.5 43.859375 8.5 
Q 47.359375 10.5 50.046875 13.75 
Q 52.734375 17 54.265625 20.75 
Q 55.8125 24.515625 55.8125 27.875 
Q 55.8125 30.90625 54.859375 32.59375 
Q 53.90625 34.28125 52.34375 36.125 
Q 50.78125 37.984375 50.78125 39.109375 
Q 50.78125 41.0625 52.4375 42.671875 
Q 54.109375 44.28125 56 44.28125 
Q 58.453125 44.28125 59.46875 42.0625 
Q 60.5 39.84375 60.5 37.015625 
Q 60.5 32.421875 58.671875 25.4375 
Q 56.84375 18.453125 54.5 13.8125 
Q 51.265625 7.515625 46.40625 3.1875 
Q 41.546875 -1.125 35.5 -1.125 
Q 31.640625 -1.125 29.265625 1.1875 
Q 26.90625 3.515625 26.21875 7.515625 
Q 23.4375 3.5625 19.875 1.21875 
Q 16.3125 -1.125 12.109375 -1.125 
z
" id="Cmmi10-33"/>
      <path d="M 4.984375 0 
L 4.984375 2.6875 
Q 4.984375 2.9375 5.171875 3.21875 
L 20.703125 20.40625 
Q 24.21875 24.21875 26.40625 26.796875 
Q 28.609375 29.390625 30.75 32.765625 
Q 32.90625 36.140625 34.15625 39.625 
Q 35.40625 43.109375 35.40625 47.015625 
Q 35.40625 51.125 33.890625 54.859375 
Q 32.375 58.59375 29.375 60.84375 
Q 26.375 63.09375 22.125 63.09375 
Q 17.78125 63.09375 14.3125 60.46875 
Q 10.84375 57.859375 9.421875 53.71875 
Q 9.8125 53.8125 10.5 53.8125 
Q 12.75 53.8125 14.328125 52.296875 
Q 15.921875 50.78125 15.921875 48.390625 
Q 15.921875 46.09375 14.328125 44.5 
Q 12.75 42.921875 10.5 42.921875 
Q 8.15625 42.921875 6.5625 44.546875 
Q 4.984375 46.1875 4.984375 48.390625 
Q 4.984375 52.15625 6.390625 55.4375 
Q 7.8125 58.734375 10.46875 61.296875 
Q 13.140625 63.875 16.484375 65.234375 
Q 19.828125 66.609375 23.578125 66.609375 
Q 29.296875 66.609375 34.21875 64.1875 
Q 39.15625 61.765625 42.03125 57.34375 
Q 44.921875 52.9375 44.921875 47.015625 
Q 44.921875 42.671875 43.015625 38.765625 
Q 41.109375 34.859375 38.125 31.65625 
Q 35.15625 28.46875 30.515625 24.40625 
Q 25.875 20.359375 24.421875 19 
L 13.09375 8.109375 
L 22.703125 8.109375 
Q 29.78125 8.109375 34.546875 8.21875 
Q 39.3125 8.34375 39.59375 8.59375 
Q 40.765625 9.859375 42 17.828125 
L 44.921875 17.828125 
L 42.09375 0 
z
" id="Cmr10-50"/>
      <path d="M 10.109375 1.703125 
Q 10.109375 2.25 10.5 3.328125 
Q 13.28125 9.125 15.6875 14.71875 
Q 18.109375 20.3125 20.03125 25.609375 
Q 21.96875 30.90625 23.578125 36.921875 
L 17.1875 36.921875 
Q 13.53125 36.921875 10.34375 34.625 
Q 7.171875 32.328125 5.078125 28.8125 
Q 4.890625 28.421875 4.5 28.421875 
L 3.328125 28.421875 
Q 2.390625 28.421875 2.390625 29.390625 
Q 2.390625 29.59375 2.59375 29.984375 
Q 5.859375 35.546875 9.59375 39.328125 
Q 13.328125 43.109375 18.015625 43.109375 
L 54.296875 43.109375 
Q 55.328125 43.109375 56.046875 42.421875 
Q 56.78125 41.75 56.78125 40.578125 
Q 56.78125 39.109375 55.734375 38.015625 
Q 54.6875 36.921875 53.21875 36.921875 
L 40.484375 36.921875 
Q 38.875 29.046875 38.71875 21.578125 
Q 38.71875 11.96875 42.09375 4.203125 
Q 42.390625 3.609375 42.390625 2.984375 
Q 42.390625 1.90625 41.75 0.96875 
Q 41.109375 0.046875 40.109375 -0.53125 
Q 39.109375 -1.125 37.984375 -1.125 
Q 35.359375 -1.125 34.375 3.171875 
Q 33.40625 7.46875 33.40625 11.53125 
Q 33.40625 17.234375 34.375 22.53125 
Q 35.359375 27.828125 37.5 36.921875 
L 26.609375 36.921875 
Q 18.703125 4.890625 17.09375 1.609375 
Q 15.671875 -1.125 13.1875 -1.125 
Q 11.96875 -1.125 11.03125 -0.3125 
Q 10.109375 0.484375 10.109375 1.703125 
z
" id="Cmmi10-188"/>
      <path d="M 59.515625 10.40625 
L 59.515625 29.984375 
L 43.40625 29.984375 
L 43.40625 38.09375 
L 69.28125 38.09375 
L 69.28125 6.78125 
Q 63.578125 2.734375 56.6875 0.65625 
Q 49.8125 -1.421875 42 -1.421875 
Q 24.90625 -1.421875 15.25 8.5625 
Q 5.609375 18.5625 5.609375 36.375 
Q 5.609375 54.25 15.25 64.234375 
Q 24.90625 74.21875 42 74.21875 
Q 49.125 74.21875 55.546875 72.453125 
Q 61.96875 70.703125 67.390625 67.28125 
L 67.390625 56.78125 
Q 61.921875 61.421875 55.765625 63.765625 
Q 49.609375 66.109375 42.828125 66.109375 
Q 29.4375 66.109375 22.71875 58.640625 
Q 16.015625 51.171875 16.015625 36.375 
Q 16.015625 21.625 22.71875 14.15625 
Q 29.4375 6.6875 42.828125 6.6875 
Q 48.046875 6.6875 52.140625 7.59375 
Q 56.25 8.5 59.515625 10.40625 
z
" id="DejaVuSans-71"/>
      <path d="M 9.8125 72.90625 
L 19.671875 72.90625 
L 19.671875 43.015625 
L 55.515625 43.015625 
L 55.515625 72.90625 
L 65.375 72.90625 
L 65.375 0 
L 55.515625 0 
L 55.515625 34.71875 
L 19.671875 34.71875 
L 19.671875 0 
L 9.8125 0 
z
" id="DejaVuSans-72"/>
     </defs>
     <g transform="translate(21.4775 124.61)rotate(-90)scale(0.12 -0.12)">
      <use transform="translate(0 0.125)" xlink:href="#Cmmi10-33"/>
      <use transform="translate(62.207031 0.125)" xlink:href="#Cmmi10-61"/>
      <use transform="translate(112.207031 0.125)" xlink:href="#Cmr10-50"/>
      <use transform="translate(162.207031 0.125)" xlink:href="#Cmmi10-188"/>
      <use transform="translate(219.189453 0.125)" xlink:href="#DejaVuSans-32"/>
      <use transform="translate(250.976562 0.125)" xlink:href="#DejaVuSans-40"/>
      <use transform="translate(289.990234 0.125)" xlink:href="#DejaVuSans-71"/>
      <use transform="translate(367.480469 0.125)" xlink:href="#DejaVuSans-72"/>
      <use transform="translate(442.675781 0.125)" xlink:href="#DejaVuSans-122"/>
      <use transform="translate(495.166016 0.125)" xlink:href="#DejaVuSans-41"/>
     </g>
    </g>
   </g>
   <g id="line2d_25">
    <defs>
     <path d="M 0 2 
C 0.530406 2 1.03916 1.789267 1.414214 1.414214 
C 1.789267 1.03916 2 0.530406 2 0 
C 2 -0.530406 1.789267 -1.03916 1.414214 -1.414214 
C 1.03916 -1.789267 0.530406 -2 0 -2 
C -0.530406 -2 -1.03916 -1.789267 -1.414214 -1.414214 
C -1.789267 -1.03916 -2 -0.530406 -2 0 
C -2 0.530406 -1.789267 1.03916 -1.414214 1.414214 
C -1.03916 1.789267 -0.530406 2 0 2 
z
" id="mb8e910d980" style="stroke:#56b4e9;stroke-opacity:0.95;stroke-width:0.4;"/>
    </defs>
    <g clip-path="url(#p7b6b8ca621)">
     <use style="fill:#004ba8;fill-opacity:0.95;stroke:#56b4e9;stroke-opacity:0.95;stroke-width:0.4;" x="64.428833" xlink:href="#mb8e910d980" y="107.713074"/>
     <use style="fill:#004ba8;fill-opacity:0.95;stroke:#56b4e9;stroke-opacity:0.95;stroke-width:0.4;" x="64.671577" xlink:href="#mb8e910d980" y="105.959862"/>
     <use style="fill:#004ba8;fill-opacity:0.95;stroke:#56b4e9;stroke-opacity:0.95;stroke-width:0.4;" x="64.914321" xlink:href="#mb8e910d980" y="104.365928"/>
     <use style="fill:#004ba8;fill-opacity:0.95;stroke:#56b4e9;stroke-opacity:0.95;stroke-width:0.4;" x="65.157119" xlink:href="#mb8e910d980" y="102.931529"/>
     <use style="fill:#004ba8;fill-opacity:0.95;stroke:#56b4e9;stroke-opacity:0.95;stroke-width:0.4;" x="65.399863" xlink:href="#mb8e910d980" y="101.497002"/>
     <use style="fill:#004ba8;fill-opacity:0.95;stroke:#56b4e9;stroke-opacity:0.95;stroke-width:0.4;" x="65.642662" xlink:href="#mb8e910d980" y="100.381416"/>
     <use style="fill:#004ba8;fill-opacity:0.95;stroke:#56b4e9;stroke-opacity:0.95;stroke-width:0.4;" x="65.885406" xlink:href="#mb8e910d980" y="99.212565"/>
     <use style="fill:#004ba8;fill-opacity:0.95;stroke:#56b4e9;stroke-opacity:0.95;stroke-width:0.4;" x="66.128204" xlink:href="#mb8e910d980" y="98.149985"/>
     <use style="fill:#004ba8;fill-opacity:0.95;stroke:#56b4e9;stroke-opacity:0.95;stroke-width:0.4;" x="66.371002" xlink:href="#mb8e910d980" y="97.087406"/>
     <use style="fill:#004ba8;fill-opacity:0.95;stroke:#56b4e9;stroke-opacity:0.95;stroke-width:0.4;" x="66.613746" xlink:href="#mb8e910d980" y="96.290503"/>
     <use style="fill:#004ba8;fill-opacity:0.95;stroke:#56b4e9;stroke-opacity:0.95;stroke-width:0.4;" x="66.856544" xlink:href="#mb8e910d980" y="95.865549"/>
     <use style="fill:#004ba8;fill-opacity:0.95;stroke:#56b4e9;stroke-opacity:0.95;stroke-width:0.4;" x="67.099288" xlink:href="#mb8e910d980" y="93.527848"/>
     <use style="fill:#004ba8;fill-opacity:0.95;stroke:#56b4e9;stroke-opacity:0.95;stroke-width:0.4;" x="67.342032" xlink:href="#mb8e910d980" y="93.102893"/>
     <use style="fill:#004ba8;fill-opacity:0.95;stroke:#56b4e9;stroke-opacity:0.95;stroke-width:0.4;" x="67.584831" xlink:href="#mb8e910d980" y="92.518403"/>
     <use style="fill:#004ba8;fill-opacity:0.95;stroke:#56b4e9;stroke-opacity:0.95;stroke-width:0.4;" x="67.827575" xlink:href="#mb8e910d980" y="92.093449"/>
     <use style="fill:#004ba8;fill-opacity:0.95;stroke:#56b4e9;stroke-opacity:0.95;stroke-width:0.4;" x="102.84398" xlink:href="#mb8e910d980" y="144.516315"/>
     <use style="fill:#004ba8;fill-opacity:0.95;stroke:#56b4e9;stroke-opacity:0.95;stroke-width:0.4;" x="103.031718" xlink:href="#mb8e910d980" y="142.453444"/>
     <use style="fill:#004ba8;fill-opacity:0.95;stroke:#56b4e9;stroke-opacity:0.95;stroke-width:0.4;" x="103.219456" xlink:href="#mb8e910d980" y="140.98763"/>
     <use style="fill:#004ba8;fill-opacity:0.95;stroke:#56b4e9;stroke-opacity:0.95;stroke-width:0.4;" x="103.407193" xlink:href="#mb8e910d980" y="139.630543"/>
     <use style="fill:#004ba8;fill-opacity:0.95;stroke:#56b4e9;stroke-opacity:0.95;stroke-width:0.4;" x="103.594931" xlink:href="#mb8e910d980" y="137.839064"/>
     <use style="fill:#004ba8;fill-opacity:0.95;stroke:#56b4e9;stroke-opacity:0.95;stroke-width:0.4;" x="103.782668" xlink:href="#mb8e910d980" y="136.481847"/>
     <use style="fill:#004ba8;fill-opacity:0.95;stroke:#56b4e9;stroke-opacity:0.95;stroke-width:0.4;" x="103.970406" xlink:href="#mb8e910d980" y="135.341827"/>
     <use style="fill:#004ba8;fill-opacity:0.95;stroke:#56b4e9;stroke-opacity:0.95;stroke-width:0.4;" x="104.158143" xlink:href="#mb8e910d980" y="134.256105"/>
     <use style="fill:#004ba8;fill-opacity:0.95;stroke:#56b4e9;stroke-opacity:0.95;stroke-width:0.4;" x="104.345881" xlink:href="#mb8e910d980" y="133.333152"/>
     <use style="fill:#004ba8;fill-opacity:0.95;stroke:#56b4e9;stroke-opacity:0.95;stroke-width:0.4;" x="104.533619" xlink:href="#mb8e910d980" y="132.518925"/>
     <use style="fill:#004ba8;fill-opacity:0.95;stroke:#56b4e9;stroke-opacity:0.95;stroke-width:0.4;" x="104.721356" xlink:href="#mb8e910d980" y="131.70457"/>
     <use style="fill:#004ba8;fill-opacity:0.95;stroke:#56b4e9;stroke-opacity:0.95;stroke-width:0.4;" x="104.909094" xlink:href="#mb8e910d980" y="130.836044"/>
     <use style="fill:#004ba8;fill-opacity:0.95;stroke:#56b4e9;stroke-opacity:0.95;stroke-width:0.4;" x="105.096831" xlink:href="#mb8e910d980" y="130.184585"/>
     <use style="fill:#004ba8;fill-opacity:0.95;stroke:#56b4e9;stroke-opacity:0.95;stroke-width:0.4;" x="105.284569" xlink:href="#mb8e910d980" y="129.695894"/>
     <use style="fill:#004ba8;fill-opacity:0.95;stroke:#56b4e9;stroke-opacity:0.95;stroke-width:0.4;" x="105.472306" xlink:href="#mb8e910d980" y="129.207333"/>
     <use style="fill:#004ba8;fill-opacity:0.95;stroke:#56b4e9;stroke-opacity:0.95;stroke-width:0.4;" x="105.660044" xlink:href="#mb8e910d980" y="128.77307"/>
     <use style="fill:#004ba8;fill-opacity:0.95;stroke:#56b4e9;stroke-opacity:0.95;stroke-width:0.4;" x="105.847782" xlink:href="#mb8e910d980" y="128.555874"/>
     <use style="fill:#004ba8;fill-opacity:0.95;stroke:#56b4e9;stroke-opacity:0.95;stroke-width:0.4;" x="106.035519" xlink:href="#mb8e910d980" y="128.393106"/>
     <use style="fill:#004ba8;fill-opacity:0.95;stroke:#56b4e9;stroke-opacity:0.95;stroke-width:0.4;" x="106.223257" xlink:href="#mb8e910d980" y="128.284508"/>
     <use style="fill:#004ba8;fill-opacity:0.95;stroke:#56b4e9;stroke-opacity:0.95;stroke-width:0.4;" x="106.410994" xlink:href="#mb8e910d980" y="128.393106"/>
     <use style="fill:#004ba8;fill-opacity:0.95;stroke:#56b4e9;stroke-opacity:0.95;stroke-width:0.4;" x="106.598732" xlink:href="#mb8e910d980" y="128.555874"/>
     <use style="fill:#004ba8;fill-opacity:0.95;stroke:#56b4e9;stroke-opacity:0.95;stroke-width:0.4;" x="106.786469" xlink:href="#mb8e910d980" y="128.718771"/>
     <use style="fill:#004ba8;fill-opacity:0.95;stroke:#56b4e9;stroke-opacity:0.95;stroke-width:0.4;" x="106.974207" xlink:href="#mb8e910d980" y="128.935967"/>
     <use style="fill:#004ba8;fill-opacity:0.95;stroke:#56b4e9;stroke-opacity:0.95;stroke-width:0.4;" x="107.161945" xlink:href="#mb8e910d980" y="129.261632"/>
     <use style="fill:#004ba8;fill-opacity:0.95;stroke:#56b4e9;stroke-opacity:0.95;stroke-width:0.4;" x="107.349682" xlink:href="#mb8e910d980" y="129.587426"/>
     <use style="fill:#004ba8;fill-opacity:0.95;stroke:#56b4e9;stroke-opacity:0.95;stroke-width:0.4;" x="107.53742" xlink:href="#mb8e910d980" y="130.021688"/>
     <use style="fill:#004ba8;fill-opacity:0.95;stroke:#56b4e9;stroke-opacity:0.95;stroke-width:0.4;" x="107.725157" xlink:href="#mb8e910d980" y="130.401652"/>
     <use style="fill:#004ba8;fill-opacity:0.95;stroke:#56b4e9;stroke-opacity:0.95;stroke-width:0.4;" x="107.912895" xlink:href="#mb8e910d980" y="131.053111"/>
     <use style="fill:#004ba8;fill-opacity:0.95;stroke:#56b4e9;stroke-opacity:0.95;stroke-width:0.4;" x="108.100632" xlink:href="#mb8e910d980" y="131.813168"/>
     <use style="fill:#004ba8;fill-opacity:0.95;stroke:#56b4e9;stroke-opacity:0.95;stroke-width:0.4;" x="108.28837" xlink:href="#mb8e910d980" y="132.356028"/>
     <use style="fill:#004ba8;fill-opacity:0.95;stroke:#56b4e9;stroke-opacity:0.95;stroke-width:0.4;" x="108.476108" xlink:href="#mb8e910d980" y="133.007487"/>
     <use style="fill:#004ba8;fill-opacity:0.95;stroke:#56b4e9;stroke-opacity:0.95;stroke-width:0.4;" x="108.663845" xlink:href="#mb8e910d980" y="133.821713"/>
     <use style="fill:#004ba8;fill-opacity:0.95;stroke:#56b4e9;stroke-opacity:0.95;stroke-width:0.4;" x="108.851583" xlink:href="#mb8e910d980" y="134.093208"/>
     <use style="fill:#004ba8;fill-opacity:0.95;stroke:#56b4e9;stroke-opacity:0.95;stroke-width:0.4;" x="109.03932" xlink:href="#mb8e910d980" y="134.798966"/>
     <use style="fill:#004ba8;fill-opacity:0.95;stroke:#56b4e9;stroke-opacity:0.95;stroke-width:0.4;" x="109.227058" xlink:href="#mb8e910d980" y="135.341827"/>
     <use style="fill:#004ba8;fill-opacity:0.95;stroke:#56b4e9;stroke-opacity:0.95;stroke-width:0.4;" x="109.414795" xlink:href="#mb8e910d980" y="135.993286"/>
     <use style="fill:#004ba8;fill-opacity:0.95;stroke:#56b4e9;stroke-opacity:0.95;stroke-width:0.4;" x="109.602533" xlink:href="#mb8e910d980" y="136.264651"/>
     <use style="fill:#004ba8;fill-opacity:0.95;stroke:#56b4e9;stroke-opacity:0.95;stroke-width:0.4;" x="109.790271" xlink:href="#mb8e910d980" y="136.699043"/>
     <use style="fill:#004ba8;fill-opacity:0.95;stroke:#56b4e9;stroke-opacity:0.95;stroke-width:0.4;" x="109.978008" xlink:href="#mb8e910d980" y="136.91611"/>
     <use style="fill:#004ba8;fill-opacity:0.95;stroke:#56b4e9;stroke-opacity:0.95;stroke-width:0.4;" x="110.165746" xlink:href="#mb8e910d980" y="137.133306"/>
     <use style="fill:#004ba8;fill-opacity:0.95;stroke:#56b4e9;stroke-opacity:0.95;stroke-width:0.4;" x="110.353483" xlink:href="#mb8e910d980" y="137.133306"/>
     <use style="fill:#004ba8;fill-opacity:0.95;stroke:#56b4e9;stroke-opacity:0.95;stroke-width:0.4;" x="140.794894" xlink:href="#mb8e910d980" y="161.01345"/>
     <use style="fill:#004ba8;fill-opacity:0.95;stroke:#56b4e9;stroke-opacity:0.95;stroke-width:0.4;" x="141.053389" xlink:href="#mb8e910d980" y="158.617248"/>
     <use style="fill:#004ba8;fill-opacity:0.95;stroke:#56b4e9;stroke-opacity:0.95;stroke-width:0.4;" x="141.311884" xlink:href="#mb8e910d980" y="155.911865"/>
     <use style="fill:#004ba8;fill-opacity:0.95;stroke:#56b4e9;stroke-opacity:0.95;stroke-width:0.4;" x="141.570379" xlink:href="#mb8e910d980" y="153.361066"/>
     <use style="fill:#004ba8;fill-opacity:0.95;stroke:#56b4e9;stroke-opacity:0.95;stroke-width:0.4;" x="141.828874" xlink:href="#mb8e910d980" y="151.196747"/>
     <use style="fill:#004ba8;fill-opacity:0.95;stroke:#56b4e9;stroke-opacity:0.95;stroke-width:0.4;" x="142.087369" xlink:href="#mb8e910d980" y="149.496219"/>
     <use style="fill:#004ba8;fill-opacity:0.95;stroke:#56b4e9;stroke-opacity:0.95;stroke-width:0.4;" x="142.345864" xlink:href="#mb8e910d980" y="147.718392"/>
     <use style="fill:#004ba8;fill-opacity:0.95;stroke:#56b4e9;stroke-opacity:0.95;stroke-width:0.4;" x="142.604359" xlink:href="#mb8e910d980" y="146.095149"/>
     <use style="fill:#004ba8;fill-opacity:0.95;stroke:#56b4e9;stroke-opacity:0.95;stroke-width:0.4;" x="142.862854" xlink:href="#mb8e910d980" y="144.858399"/>
     <use style="fill:#004ba8;fill-opacity:0.95;stroke:#56b4e9;stroke-opacity:0.95;stroke-width:0.4;" x="143.121349" xlink:href="#mb8e910d980" y="143.930894"/>
     <use style="fill:#004ba8;fill-opacity:0.95;stroke:#56b4e9;stroke-opacity:0.95;stroke-width:0.4;" x="143.379844" xlink:href="#mb8e910d980" y="143.235221"/>
     <use style="fill:#004ba8;fill-opacity:0.95;stroke:#56b4e9;stroke-opacity:0.95;stroke-width:0.4;" x="143.638339" xlink:href="#mb8e910d980" y="142.616729"/>
     <use style="fill:#004ba8;fill-opacity:0.95;stroke:#56b4e9;stroke-opacity:0.95;stroke-width:0.4;" x="143.896834" xlink:href="#mb8e910d980" y="142.384924"/>
     <use style="fill:#004ba8;fill-opacity:0.95;stroke:#56b4e9;stroke-opacity:0.95;stroke-width:0.4;" x="144.155329" xlink:href="#mb8e910d980" y="142.307613"/>
     <use style="fill:#004ba8;fill-opacity:0.95;stroke:#56b4e9;stroke-opacity:0.95;stroke-width:0.4;" x="144.413824" xlink:href="#mb8e910d980" y="142.307613"/>
     <use style="fill:#004ba8;fill-opacity:0.95;stroke:#56b4e9;stroke-opacity:0.95;stroke-width:0.4;" x="144.672319" xlink:href="#mb8e910d980" y="142.616729"/>
     <use style="fill:#004ba8;fill-opacity:0.95;stroke:#56b4e9;stroke-opacity:0.95;stroke-width:0.4;" x="144.930814" xlink:href="#mb8e910d980" y="143.080598"/>
     <use style="fill:#004ba8;fill-opacity:0.95;stroke:#56b4e9;stroke-opacity:0.95;stroke-width:0.4;" x="145.189309" xlink:href="#mb8e910d980" y="143.776272"/>
     <use style="fill:#004ba8;fill-opacity:0.95;stroke:#56b4e9;stroke-opacity:0.95;stroke-width:0.4;" x="145.447804" xlink:href="#mb8e910d980" y="144.7811"/>
     <use style="fill:#004ba8;fill-opacity:0.95;stroke:#56b4e9;stroke-opacity:0.95;stroke-width:0.4;" x="145.706299" xlink:href="#mb8e910d980" y="146.095149"/>
     <use style="fill:#004ba8;fill-opacity:0.95;stroke:#56b4e9;stroke-opacity:0.95;stroke-width:0.4;" x="145.964794" xlink:href="#mb8e910d980" y="147.409198"/>
     <use style="fill:#004ba8;fill-opacity:0.95;stroke:#56b4e9;stroke-opacity:0.95;stroke-width:0.4;" x="146.223288" xlink:href="#mb8e910d980" y="148.800545"/>
     <use style="fill:#004ba8;fill-opacity:0.95;stroke:#56b4e9;stroke-opacity:0.95;stroke-width:0.4;" x="146.481783" xlink:href="#mb8e910d980" y="150.501073"/>
     <use style="fill:#004ba8;fill-opacity:0.95;stroke:#56b4e9;stroke-opacity:0.95;stroke-width:0.4;" x="146.740278" xlink:href="#mb8e910d980" y="152.2789"/>
     <use style="fill:#004ba8;fill-opacity:0.95;stroke:#56b4e9;stroke-opacity:0.95;stroke-width:0.4;" x="179.81503" xlink:href="#mb8e910d980" y="152.767863"/>
     <use style="fill:#004ba8;fill-opacity:0.95;stroke:#56b4e9;stroke-opacity:0.95;stroke-width:0.4;" x="180.049983" xlink:href="#mb8e910d980" y="150.900468"/>
     <use style="fill:#004ba8;fill-opacity:0.95;stroke:#56b4e9;stroke-opacity:0.95;stroke-width:0.4;" x="180.284941" xlink:href="#mb8e910d980" y="148.934806"/>
     <use style="fill:#004ba8;fill-opacity:0.95;stroke:#56b4e9;stroke-opacity:0.95;stroke-width:0.4;" x="180.519893" xlink:href="#mb8e910d980" y="147.460549"/>
     <use style="fill:#004ba8;fill-opacity:0.95;stroke:#56b4e9;stroke-opacity:0.95;stroke-width:0.4;" x="180.754846" xlink:href="#mb8e910d980" y="146.182868"/>
     <use style="fill:#004ba8;fill-opacity:0.95;stroke:#56b4e9;stroke-opacity:0.95;stroke-width:0.4;" x="180.989804" xlink:href="#mb8e910d980" y="145.298311"/>
     <use style="fill:#004ba8;fill-opacity:0.95;stroke:#56b4e9;stroke-opacity:0.95;stroke-width:0.4;" x="181.224757" xlink:href="#mb8e910d980" y="144.413755"/>
     <use style="fill:#004ba8;fill-opacity:0.95;stroke:#56b4e9;stroke-opacity:0.95;stroke-width:0.4;" x="181.459709" xlink:href="#mb8e910d980" y="143.725722"/>
     <use style="fill:#004ba8;fill-opacity:0.95;stroke:#56b4e9;stroke-opacity:0.95;stroke-width:0.4;" x="181.694667" xlink:href="#mb8e910d980" y="143.037805"/>
     <use style="fill:#004ba8;fill-opacity:0.95;stroke:#56b4e9;stroke-opacity:0.95;stroke-width:0.4;" x="181.92962" xlink:href="#mb8e910d980" y="142.841165"/>
     <use style="fill:#004ba8;fill-opacity:0.95;stroke:#56b4e9;stroke-opacity:0.95;stroke-width:0.4;" x="182.164572" xlink:href="#mb8e910d980" y="142.546399"/>
     <use style="fill:#004ba8;fill-opacity:0.95;stroke:#56b4e9;stroke-opacity:0.95;stroke-width:0.4;" x="182.39953" xlink:href="#mb8e910d980" y="142.644655"/>
     <use style="fill:#004ba8;fill-opacity:0.95;stroke:#56b4e9;stroke-opacity:0.95;stroke-width:0.4;" x="182.634483" xlink:href="#mb8e910d980" y="142.644655"/>
     <use style="fill:#004ba8;fill-opacity:0.95;stroke:#56b4e9;stroke-opacity:0.95;stroke-width:0.4;" x="182.869435" xlink:href="#mb8e910d980" y="142.93955"/>
     <use style="fill:#004ba8;fill-opacity:0.95;stroke:#56b4e9;stroke-opacity:0.95;stroke-width:0.4;" x="183.104393" xlink:href="#mb8e910d980" y="143.430956"/>
     <use style="fill:#004ba8;fill-opacity:0.95;stroke:#56b4e9;stroke-opacity:0.95;stroke-width:0.4;" x="183.339346" xlink:href="#mb8e910d980" y="144.217257"/>
     <use style="fill:#004ba8;fill-opacity:0.95;stroke:#56b4e9;stroke-opacity:0.95;stroke-width:0.4;" x="183.574298" xlink:href="#mb8e910d980" y="144.512049"/>
     <use style="fill:#004ba8;fill-opacity:0.95;stroke:#56b4e9;stroke-opacity:0.95;stroke-width:0.4;" x="183.809256" xlink:href="#mb8e910d980" y="145.986293"/>
     <use style="fill:#004ba8;fill-opacity:0.95;stroke:#56b4e9;stroke-opacity:0.95;stroke-width:0.4;" x="184.044209" xlink:href="#mb8e910d980" y="147.263987"/>
     <use style="fill:#004ba8;fill-opacity:0.95;stroke:#56b4e9;stroke-opacity:0.95;stroke-width:0.4;" x="184.279161" xlink:href="#mb8e910d980" y="148.639949"/>
     <use style="fill:#004ba8;fill-opacity:0.95;stroke:#56b4e9;stroke-opacity:0.95;stroke-width:0.4;" x="184.514119" xlink:href="#mb8e910d980" y="149.917644"/>
     <use style="fill:#004ba8;fill-opacity:0.95;stroke:#56b4e9;stroke-opacity:0.95;stroke-width:0.4;" x="184.749072" xlink:href="#mb8e910d980" y="151.981587"/>
     <use style="fill:#004ba8;fill-opacity:0.95;stroke:#56b4e9;stroke-opacity:0.95;stroke-width:0.4;" x="216.659471" xlink:href="#mb8e910d980" y="138.84269"/>
     <use style="fill:#004ba8;fill-opacity:0.95;stroke:#56b4e9;stroke-opacity:0.95;stroke-width:0.4;" x="216.98951" xlink:href="#mb8e910d980" y="137.774034"/>
     <use style="fill:#004ba8;fill-opacity:0.95;stroke:#56b4e9;stroke-opacity:0.95;stroke-width:0.4;" x="217.319549" xlink:href="#mb8e910d980" y="137.061683"/>
     <use style="fill:#004ba8;fill-opacity:0.95;stroke:#56b4e9;stroke-opacity:0.95;stroke-width:0.4;" x="217.649533" xlink:href="#mb8e910d980" y="135.874345"/>
     <use style="fill:#004ba8;fill-opacity:0.95;stroke:#56b4e9;stroke-opacity:0.95;stroke-width:0.4;" x="217.979572" xlink:href="#mb8e910d980" y="134.21202"/>
     <use style="fill:#004ba8;fill-opacity:0.95;stroke:#56b4e9;stroke-opacity:0.95;stroke-width:0.4;" x="218.30961" xlink:href="#mb8e910d980" y="133.143493"/>
     <use style="fill:#004ba8;fill-opacity:0.95;stroke:#56b4e9;stroke-opacity:0.95;stroke-width:0.4;" x="218.639595" xlink:href="#mb8e910d980" y="132.193519"/>
     <use style="fill:#004ba8;fill-opacity:0.95;stroke:#56b4e9;stroke-opacity:0.95;stroke-width:0.4;" x="218.969633" xlink:href="#mb8e910d980" y="131.481168"/>
     <use style="fill:#004ba8;fill-opacity:0.95;stroke:#56b4e9;stroke-opacity:0.95;stroke-width:0.4;" x="219.299672" xlink:href="#mb8e910d980" y="130.531323"/>
     <use style="fill:#004ba8;fill-opacity:0.95;stroke:#56b4e9;stroke-opacity:0.95;stroke-width:0.4;" x="219.629656" xlink:href="#mb8e910d980" y="129.818843"/>
     <use style="fill:#004ba8;fill-opacity:0.95;stroke:#56b4e9;stroke-opacity:0.95;stroke-width:0.4;" x="219.959695" xlink:href="#mb8e910d980" y="129.581479"/>
     <use style="fill:#004ba8;fill-opacity:0.95;stroke:#56b4e9;stroke-opacity:0.95;stroke-width:0.4;" x="220.289733" xlink:href="#mb8e910d980" y="129.462667"/>
     <use style="fill:#004ba8;fill-opacity:0.95;stroke:#56b4e9;stroke-opacity:0.95;stroke-width:0.4;" x="220.619718" xlink:href="#mb8e910d980" y="129.700161"/>
     <use style="fill:#004ba8;fill-opacity:0.95;stroke:#56b4e9;stroke-opacity:0.95;stroke-width:0.4;" x="220.949756" xlink:href="#mb8e910d980" y="130.175148"/>
     <use style="fill:#004ba8;fill-opacity:0.95;stroke:#56b4e9;stroke-opacity:0.95;stroke-width:0.4;" x="221.279795" xlink:href="#mb8e910d980" y="131.006181"/>
     <use style="fill:#004ba8;fill-opacity:0.95;stroke:#56b4e9;stroke-opacity:0.95;stroke-width:0.4;" x="221.609779" xlink:href="#mb8e910d980" y="132.312331"/>
     <use style="fill:#004ba8;fill-opacity:0.95;stroke:#56b4e9;stroke-opacity:0.95;stroke-width:0.4;" x="221.939818" xlink:href="#mb8e910d980" y="133.499669"/>
     <use style="fill:#004ba8;fill-opacity:0.95;stroke:#56b4e9;stroke-opacity:0.95;stroke-width:0.4;" x="222.269856" xlink:href="#mb8e910d980" y="135.043182"/>
     <use style="fill:#004ba8;fill-opacity:0.95;stroke:#56b4e9;stroke-opacity:0.95;stroke-width:0.4;" x="222.599841" xlink:href="#mb8e910d980" y="137.061683"/>
     <use style="fill:#004ba8;fill-opacity:0.95;stroke:#56b4e9;stroke-opacity:0.95;stroke-width:0.4;" x="222.929879" xlink:href="#mb8e910d980" y="139.198866"/>
     <use style="fill:#004ba8;fill-opacity:0.95;stroke:#56b4e9;stroke-opacity:0.95;stroke-width:0.4;" x="223.259918" xlink:href="#mb8e910d980" y="141.692224"/>
     <use style="fill:#004ba8;fill-opacity:0.95;stroke:#56b4e9;stroke-opacity:0.95;stroke-width:0.4;" x="259.347282" xlink:href="#mb8e910d980" y="96.974283"/>
     <use style="fill:#004ba8;fill-opacity:0.95;stroke:#56b4e9;stroke-opacity:0.95;stroke-width:0.4;" x="259.697328" xlink:href="#mb8e910d980" y="97.578812"/>
     <use style="fill:#004ba8;fill-opacity:0.95;stroke:#56b4e9;stroke-opacity:0.95;stroke-width:0.4;" x="260.047428" xlink:href="#mb8e910d980" y="98.485476"/>
     <use style="fill:#004ba8;fill-opacity:0.95;stroke:#56b4e9;stroke-opacity:0.95;stroke-width:0.4;" x="260.397528" xlink:href="#mb8e910d980" y="99.543272"/>
     <use style="fill:#004ba8;fill-opacity:0.95;stroke:#56b4e9;stroke-opacity:0.95;stroke-width:0.4;" x="260.747574" xlink:href="#mb8e910d980" y="101.356729"/>
     <use style="fill:#004ba8;fill-opacity:0.95;stroke:#56b4e9;stroke-opacity:0.95;stroke-width:0.4;" x="261.097674" xlink:href="#mb8e910d980" y="103.321189"/>
     <use style="fill:#004ba8;fill-opacity:0.95;stroke:#56b4e9;stroke-opacity:0.95;stroke-width:0.4;" x="261.447774" xlink:href="#mb8e910d980" y="105.436782"/>
     <use style="fill:#004ba8;fill-opacity:0.95;stroke:#56b4e9;stroke-opacity:0.95;stroke-width:0.4;" x="261.79782" xlink:href="#mb8e910d980" y="107.703507"/>
     <use style="fill:#004ba8;fill-opacity:0.95;stroke:#56b4e9;stroke-opacity:0.95;stroke-width:0.4;" x="262.14792" xlink:href="#mb8e910d980" y="110.121364"/>
    </g>
   </g>
   <g id="line2d_26">
    <defs>
     <path d="M 0 2.5 
C 0.663008 2.5 1.29895 2.236584 1.767767 1.767767 
C 2.236584 1.29895 2.5 0.663008 2.5 0 
C 2.5 -0.663008 2.236584 -1.29895 1.767767 -1.767767 
C 1.29895 -2.236584 0.663008 -2.5 0 -2.5 
C -0.663008 -2.5 -1.29895 -2.236584 -1.767767 -1.767767 
C -2.236584 -1.29895 -2.5 -0.663008 -2.5 0 
C -2.5 0.663008 -2.236584 1.29895 -1.767767 1.767767 
C -1.29895 2.236584 -0.663008 2.5 0 2.5 
z
" id="m532d3c822b" style="stroke:#fb2c07;stroke-opacity:0.95;stroke-width:0.4;"/>
    </defs>
    <g clip-path="url(#p7b6b8ca621)">
     <use style="fill:#990000;fill-opacity:0.95;stroke:#fb2c07;stroke-opacity:0.95;stroke-width:0.4;" x="64.892633" xlink:href="#m532d3c822b" y="70.423106"/>
     <use style="fill:#990000;fill-opacity:0.95;stroke:#fb2c07;stroke-opacity:0.95;stroke-width:0.4;" x="65.16406" xlink:href="#m532d3c822b" y="68.5282"/>
     <use style="fill:#990000;fill-opacity:0.95;stroke:#fb2c07;stroke-opacity:0.95;stroke-width:0.4;" x="65.43554" xlink:href="#m532d3c822b" y="67.374734"/>
     <use style="fill:#990000;fill-opacity:0.95;stroke:#fb2c07;stroke-opacity:0.95;stroke-width:0.4;" x="65.706967" xlink:href="#m532d3c822b" y="66.303622"/>
     <use style="fill:#990000;fill-opacity:0.95;stroke:#fb2c07;stroke-opacity:0.95;stroke-width:0.4;" x="65.978393" xlink:href="#m532d3c822b" y="65.479829"/>
     <use style="fill:#990000;fill-opacity:0.95;stroke:#fb2c07;stroke-opacity:0.95;stroke-width:0.4;" x="66.249874" xlink:href="#m532d3c822b" y="64.49107"/>
     <use style="fill:#990000;fill-opacity:0.95;stroke:#fb2c07;stroke-opacity:0.95;stroke-width:0.4;" x="66.521301" xlink:href="#m532d3c822b" y="63.831983"/>
     <use style="fill:#990000;fill-opacity:0.95;stroke:#fb2c07;stroke-opacity:0.95;stroke-width:0.4;" x="66.792781" xlink:href="#m532d3c822b" y="63.50244"/>
     <use style="fill:#990000;fill-opacity:0.95;stroke:#fb2c07;stroke-opacity:0.95;stroke-width:0.4;" x="67.064208" xlink:href="#m532d3c822b" y="64.161526"/>
     <use style="fill:#990000;fill-opacity:0.95;stroke:#fb2c07;stroke-opacity:0.95;stroke-width:0.4;" x="67.335689" xlink:href="#m532d3c822b" y="64.573552"/>
     <use style="fill:#990000;fill-opacity:0.95;stroke:#fb2c07;stroke-opacity:0.95;stroke-width:0.4;" x="67.607115" xlink:href="#m532d3c822b" y="65.067803"/>
     <use style="fill:#990000;fill-opacity:0.95;stroke:#fb2c07;stroke-opacity:0.95;stroke-width:0.4;" x="67.878596" xlink:href="#m532d3c822b" y="65.314992"/>
     <use style="fill:#990000;fill-opacity:0.95;stroke:#fb2c07;stroke-opacity:0.95;stroke-width:0.4;" x="68.150022" xlink:href="#m532d3c822b" y="65.809372"/>
     <use style="fill:#990000;fill-opacity:0.95;stroke:#fb2c07;stroke-opacity:0.95;stroke-width:0.4;" x="68.421449" xlink:href="#m532d3c822b" y="67.127545"/>
     <use style="fill:#990000;fill-opacity:0.95;stroke:#fb2c07;stroke-opacity:0.95;stroke-width:0.4;" x="68.69293" xlink:href="#m532d3c822b" y="67.621924"/>
     <use style="fill:#990000;fill-opacity:0.95;stroke:#fb2c07;stroke-opacity:0.95;stroke-width:0.4;" x="68.964356" xlink:href="#m532d3c822b" y="68.5282"/>
     <use style="fill:#990000;fill-opacity:0.95;stroke:#fb2c07;stroke-opacity:0.95;stroke-width:0.4;" x="69.235837" xlink:href="#m532d3c822b" y="70.587942"/>
     <use style="fill:#990000;fill-opacity:0.95;stroke:#fb2c07;stroke-opacity:0.95;stroke-width:0.4;" x="69.507263" xlink:href="#m532d3c822b" y="73.224288"/>
     <use style="fill:#990000;fill-opacity:0.95;stroke:#fb2c07;stroke-opacity:0.95;stroke-width:0.4;" x="69.778744" xlink:href="#m532d3c822b" y="75.28403"/>
     <use style="fill:#990000;fill-opacity:0.95;stroke:#fb2c07;stroke-opacity:0.95;stroke-width:0.4;" x="70.050171" xlink:href="#m532d3c822b" y="78.002859"/>
     <use style="fill:#990000;fill-opacity:0.95;stroke:#fb2c07;stroke-opacity:0.95;stroke-width:0.4;" x="70.321651" xlink:href="#m532d3c822b" y="80.144954"/>
     <use style="fill:#990000;fill-opacity:0.95;stroke:#fb2c07;stroke-opacity:0.95;stroke-width:0.4;" x="70.593078" xlink:href="#m532d3c822b" y="81.875153"/>
     <use style="fill:#990000;fill-opacity:0.95;stroke:#fb2c07;stroke-opacity:0.95;stroke-width:0.4;" x="70.864559" xlink:href="#m532d3c822b" y="83.193326"/>
     <use style="fill:#990000;fill-opacity:0.95;stroke:#fb2c07;stroke-opacity:0.95;stroke-width:0.4;" x="71.135985" xlink:href="#m532d3c822b" y="84.758818"/>
     <use style="fill:#990000;fill-opacity:0.95;stroke:#fb2c07;stroke-opacity:0.95;stroke-width:0.4;" x="103.006641" xlink:href="#m532d3c822b" y="58.622899"/>
     <use style="fill:#990000;fill-opacity:0.95;stroke:#fb2c07;stroke-opacity:0.95;stroke-width:0.4;" x="103.278756" xlink:href="#m532d3c822b" y="57.526189"/>
     <use style="fill:#990000;fill-opacity:0.95;stroke:#fb2c07;stroke-opacity:0.95;stroke-width:0.4;" x="103.550877" xlink:href="#m532d3c822b" y="56.323336"/>
     <use style="fill:#990000;fill-opacity:0.95;stroke:#fb2c07;stroke-opacity:0.95;stroke-width:0.4;" x="103.822992" xlink:href="#m532d3c822b" y="55.863476"/>
     <use style="fill:#990000;fill-opacity:0.95;stroke:#fb2c07;stroke-opacity:0.95;stroke-width:0.4;" x="104.095112" xlink:href="#m532d3c822b" y="55.191332"/>
     <use style="fill:#990000;fill-opacity:0.95;stroke:#fb2c07;stroke-opacity:0.95;stroke-width:0.4;" x="104.367233" xlink:href="#m532d3c822b" y="54.731471"/>
     <use style="fill:#990000;fill-opacity:0.95;stroke:#fb2c07;stroke-opacity:0.95;stroke-width:0.4;" x="104.639348" xlink:href="#m532d3c822b" y="54.130045"/>
     <use style="fill:#990000;fill-opacity:0.95;stroke:#fb2c07;stroke-opacity:0.95;stroke-width:0.4;" x="104.911469" xlink:href="#m532d3c822b" y="54.023903"/>
     <use style="fill:#990000;fill-opacity:0.95;stroke:#fb2c07;stroke-opacity:0.95;stroke-width:0.4;" x="105.183584" xlink:href="#m532d3c822b" y="54.483764"/>
     <use style="fill:#990000;fill-opacity:0.95;stroke:#fb2c07;stroke-opacity:0.95;stroke-width:0.4;" x="105.455699" xlink:href="#m532d3c822b" y="54.660623"/>
     <use style="fill:#990000;fill-opacity:0.95;stroke:#fb2c07;stroke-opacity:0.95;stroke-width:0.4;" x="105.727819" xlink:href="#m532d3c822b" y="54.660623"/>
     <use style="fill:#990000;fill-opacity:0.95;stroke:#fb2c07;stroke-opacity:0.95;stroke-width:0.4;" x="105.999934" xlink:href="#m532d3c822b" y="55.403615"/>
     <use style="fill:#990000;fill-opacity:0.95;stroke:#fb2c07;stroke-opacity:0.95;stroke-width:0.4;" x="106.272055" xlink:href="#m532d3c822b" y="55.757334"/>
     <use style="fill:#990000;fill-opacity:0.95;stroke:#fb2c07;stroke-opacity:0.95;stroke-width:0.4;" x="106.544175" xlink:href="#m532d3c822b" y="56.571043"/>
     <use style="fill:#990000;fill-opacity:0.95;stroke:#fb2c07;stroke-opacity:0.95;stroke-width:0.4;" x="106.816291" xlink:href="#m532d3c822b" y="58.127615"/>
     <use style="fill:#990000;fill-opacity:0.95;stroke:#fb2c07;stroke-opacity:0.95;stroke-width:0.4;" x="107.088411" xlink:href="#m532d3c822b" y="59.08276"/>
     <use style="fill:#990000;fill-opacity:0.95;stroke:#fb2c07;stroke-opacity:0.95;stroke-width:0.4;" x="107.360526" xlink:href="#m532d3c822b" y="60.568613"/>
     <use style="fill:#990000;fill-opacity:0.95;stroke:#fb2c07;stroke-opacity:0.95;stroke-width:0.4;" x="140.841523" xlink:href="#m532d3c822b" y="56.575051"/>
     <use style="fill:#990000;fill-opacity:0.95;stroke:#fb2c07;stroke-opacity:0.95;stroke-width:0.4;" x="141.113655" xlink:href="#m532d3c822b" y="55.679505"/>
     <use style="fill:#990000;fill-opacity:0.95;stroke:#fb2c07;stroke-opacity:0.95;stroke-width:0.4;" x="141.385791" xlink:href="#m532d3c822b" y="54.548406"/>
     <use style="fill:#990000;fill-opacity:0.95;stroke:#fb2c07;stroke-opacity:0.95;stroke-width:0.4;" x="141.657923" xlink:href="#m532d3c822b" y="53.605801"/>
     <use style="fill:#990000;fill-opacity:0.95;stroke:#fb2c07;stroke-opacity:0.95;stroke-width:0.4;" x="141.93006" xlink:href="#m532d3c822b" y="52.851691"/>
     <use style="fill:#990000;fill-opacity:0.95;stroke:#fb2c07;stroke-opacity:0.95;stroke-width:0.4;" x="142.202191" xlink:href="#m532d3c822b" y="52.191958"/>
     <use style="fill:#990000;fill-opacity:0.95;stroke:#fb2c07;stroke-opacity:0.95;stroke-width:0.4;" x="142.474328" xlink:href="#m532d3c822b" y="51.485037"/>
     <use style="fill:#990000;fill-opacity:0.95;stroke:#fb2c07;stroke-opacity:0.95;stroke-width:0.4;" x="142.746459" xlink:href="#m532d3c822b" y="50.919422"/>
     <use style="fill:#990000;fill-opacity:0.95;stroke:#fb2c07;stroke-opacity:0.95;stroke-width:0.4;" x="143.018596" xlink:href="#m532d3c822b" y="50.63668"/>
     <use style="fill:#990000;fill-opacity:0.95;stroke:#fb2c07;stroke-opacity:0.95;stroke-width:0.4;" x="143.290727" xlink:href="#m532d3c822b" y="50.63668"/>
     <use style="fill:#990000;fill-opacity:0.95;stroke:#fb2c07;stroke-opacity:0.95;stroke-width:0.4;" x="143.562864" xlink:href="#m532d3c822b" y="50.63668"/>
     <use style="fill:#990000;fill-opacity:0.95;stroke:#fb2c07;stroke-opacity:0.95;stroke-width:0.4;" x="143.834995" xlink:href="#m532d3c822b" y="50.495244"/>
     <use style="fill:#990000;fill-opacity:0.95;stroke:#fb2c07;stroke-opacity:0.95;stroke-width:0.4;" x="144.107132" xlink:href="#m532d3c822b" y="50.683739"/>
     <use style="fill:#990000;fill-opacity:0.95;stroke:#fb2c07;stroke-opacity:0.95;stroke-width:0.4;" x="144.379264" xlink:href="#m532d3c822b" y="51.107917"/>
     <use style="fill:#990000;fill-opacity:0.95;stroke:#fb2c07;stroke-opacity:0.95;stroke-width:0.4;" x="144.6514" xlink:href="#m532d3c822b" y="51.343601"/>
     <use style="fill:#990000;fill-opacity:0.95;stroke:#fb2c07;stroke-opacity:0.95;stroke-width:0.4;" x="144.923532" xlink:href="#m532d3c822b" y="52.003463"/>
     <use style="fill:#990000;fill-opacity:0.95;stroke:#fb2c07;stroke-opacity:0.95;stroke-width:0.4;" x="145.195669" xlink:href="#m532d3c822b" y="52.521889"/>
     <use style="fill:#990000;fill-opacity:0.95;stroke:#fb2c07;stroke-opacity:0.95;stroke-width:0.4;" x="145.4678" xlink:href="#m532d3c822b" y="53.134563"/>
     <use style="fill:#990000;fill-opacity:0.95;stroke:#fb2c07;stroke-opacity:0.95;stroke-width:0.4;" x="145.739937" xlink:href="#m532d3c822b" y="54.265663"/>
     <use style="fill:#990000;fill-opacity:0.95;stroke:#fb2c07;stroke-opacity:0.95;stroke-width:0.4;" x="146.012068" xlink:href="#m532d3c822b" y="55.679505"/>
     <use style="fill:#990000;fill-opacity:0.95;stroke:#fb2c07;stroke-opacity:0.95;stroke-width:0.4;" x="146.284205" xlink:href="#m532d3c822b" y="56.904853"/>
     <use style="fill:#990000;fill-opacity:0.95;stroke:#fb2c07;stroke-opacity:0.95;stroke-width:0.4;" x="146.556336" xlink:href="#m532d3c822b" y="58.318825"/>
     <use style="fill:#990000;fill-opacity:0.95;stroke:#fb2c07;stroke-opacity:0.95;stroke-width:0.4;" x="180.980765" xlink:href="#m532d3c822b" y="53.102113"/>
     <use style="fill:#990000;fill-opacity:0.95;stroke:#fb2c07;stroke-opacity:0.95;stroke-width:0.4;" x="181.072034" xlink:href="#m532d3c822b" y="52.717107"/>
     <use style="fill:#990000;fill-opacity:0.95;stroke:#fb2c07;stroke-opacity:0.95;stroke-width:0.4;" x="181.163309" xlink:href="#m532d3c822b" y="52.353433"/>
     <use style="fill:#990000;fill-opacity:0.95;stroke:#fb2c07;stroke-opacity:0.95;stroke-width:0.4;" x="181.254578" xlink:href="#m532d3c822b" y="52.096676"/>
     <use style="fill:#990000;fill-opacity:0.95;stroke:#fb2c07;stroke-opacity:0.95;stroke-width:0.4;" x="181.345847" xlink:href="#m532d3c822b" y="51.904174"/>
     <use style="fill:#990000;fill-opacity:0.95;stroke:#fb2c07;stroke-opacity:0.95;stroke-width:0.4;" x="181.437121" xlink:href="#m532d3c822b" y="51.754463"/>
     <use style="fill:#990000;fill-opacity:0.95;stroke:#fb2c07;stroke-opacity:0.95;stroke-width:0.4;" x="181.52839" xlink:href="#m532d3c822b" y="51.540629"/>
     <use style="fill:#990000;fill-opacity:0.95;stroke:#fb2c07;stroke-opacity:0.95;stroke-width:0.4;" x="181.619659" xlink:href="#m532d3c822b" y="51.326665"/>
     <use style="fill:#990000;fill-opacity:0.95;stroke:#fb2c07;stroke-opacity:0.95;stroke-width:0.4;" x="181.710933" xlink:href="#m532d3c822b" y="51.134162"/>
     <use style="fill:#990000;fill-opacity:0.95;stroke:#fb2c07;stroke-opacity:0.95;stroke-width:0.4;" x="181.802202" xlink:href="#m532d3c822b" y="51.027245"/>
     <use style="fill:#990000;fill-opacity:0.95;stroke:#fb2c07;stroke-opacity:0.95;stroke-width:0.4;" x="181.893471" xlink:href="#m532d3c822b" y="50.941659"/>
     <use style="fill:#990000;fill-opacity:0.95;stroke:#fb2c07;stroke-opacity:0.95;stroke-width:0.4;" x="181.984745" xlink:href="#m532d3c822b" y="50.834742"/>
     <use style="fill:#990000;fill-opacity:0.95;stroke:#fb2c07;stroke-opacity:0.95;stroke-width:0.4;" x="182.076014" xlink:href="#m532d3c822b" y="50.706363"/>
     <use style="fill:#990000;fill-opacity:0.95;stroke:#fb2c07;stroke-opacity:0.95;stroke-width:0.4;" x="182.167283" xlink:href="#m532d3c822b" y="50.620778"/>
     <use style="fill:#990000;fill-opacity:0.95;stroke:#fb2c07;stroke-opacity:0.95;stroke-width:0.4;" x="182.258558" xlink:href="#m532d3c822b" y="50.556653"/>
     <use style="fill:#990000;fill-opacity:0.95;stroke:#fb2c07;stroke-opacity:0.95;stroke-width:0.4;" x="182.349826" xlink:href="#m532d3c822b" y="50.428275"/>
     <use style="fill:#990000;fill-opacity:0.95;stroke:#fb2c07;stroke-opacity:0.95;stroke-width:0.4;" x="182.441095" xlink:href="#m532d3c822b" y="50.406943"/>
     <use style="fill:#990000;fill-opacity:0.95;stroke:#fb2c07;stroke-opacity:0.95;stroke-width:0.4;" x="182.53237" xlink:href="#m532d3c822b" y="50.406943"/>
     <use style="fill:#990000;fill-opacity:0.95;stroke:#fb2c07;stroke-opacity:0.95;stroke-width:0.4;" x="182.623639" xlink:href="#m532d3c822b" y="50.406943"/>
     <use style="fill:#990000;fill-opacity:0.95;stroke:#fb2c07;stroke-opacity:0.95;stroke-width:0.4;" x="182.714908" xlink:href="#m532d3c822b" y="50.471068"/>
     <use style="fill:#990000;fill-opacity:0.95;stroke:#fb2c07;stroke-opacity:0.95;stroke-width:0.4;" x="182.806182" xlink:href="#m532d3c822b" y="50.449607"/>
     <use style="fill:#990000;fill-opacity:0.95;stroke:#fb2c07;stroke-opacity:0.95;stroke-width:0.4;" x="182.897451" xlink:href="#m532d3c822b" y="50.406943"/>
     <use style="fill:#990000;fill-opacity:0.95;stroke:#fb2c07;stroke-opacity:0.95;stroke-width:0.4;" x="182.98872" xlink:href="#m532d3c822b" y="50.471068"/>
     <use style="fill:#990000;fill-opacity:0.95;stroke:#fb2c07;stroke-opacity:0.95;stroke-width:0.4;" x="183.079994" xlink:href="#m532d3c822b" y="50.406943"/>
     <use style="fill:#990000;fill-opacity:0.95;stroke:#fb2c07;stroke-opacity:0.95;stroke-width:0.4;" x="183.171263" xlink:href="#m532d3c822b" y="50.556653"/>
     <use style="fill:#990000;fill-opacity:0.95;stroke:#fb2c07;stroke-opacity:0.95;stroke-width:0.4;" x="183.262532" xlink:href="#m532d3c822b" y="50.556653"/>
     <use style="fill:#990000;fill-opacity:0.95;stroke:#fb2c07;stroke-opacity:0.95;stroke-width:0.4;" x="183.353806" xlink:href="#m532d3c822b" y="50.642239"/>
     <use style="fill:#990000;fill-opacity:0.95;stroke:#fb2c07;stroke-opacity:0.95;stroke-width:0.4;" x="183.445075" xlink:href="#m532d3c822b" y="50.791949"/>
     <use style="fill:#990000;fill-opacity:0.95;stroke:#fb2c07;stroke-opacity:0.95;stroke-width:0.4;" x="183.536344" xlink:href="#m532d3c822b" y="51.005784"/>
     <use style="fill:#990000;fill-opacity:0.95;stroke:#fb2c07;stroke-opacity:0.95;stroke-width:0.4;" x="183.627619" xlink:href="#m532d3c822b" y="51.11283"/>
     <use style="fill:#990000;fill-opacity:0.95;stroke:#fb2c07;stroke-opacity:0.95;stroke-width:0.4;" x="183.718887" xlink:href="#m532d3c822b" y="51.433582"/>
     <use style="fill:#990000;fill-opacity:0.95;stroke:#fb2c07;stroke-opacity:0.95;stroke-width:0.4;" x="218.284289" xlink:href="#m532d3c822b" y="61.823567"/>
     <use style="fill:#990000;fill-opacity:0.95;stroke:#fb2c07;stroke-opacity:0.95;stroke-width:0.4;" x="218.457252" xlink:href="#m532d3c822b" y="61.018519"/>
     <use style="fill:#990000;fill-opacity:0.95;stroke:#fb2c07;stroke-opacity:0.95;stroke-width:0.4;" x="218.630214" xlink:href="#m532d3c822b" y="60.571328"/>
     <use style="fill:#990000;fill-opacity:0.95;stroke:#fb2c07;stroke-opacity:0.95;stroke-width:0.4;" x="218.803177" xlink:href="#m532d3c822b" y="60.124137"/>
     <use style="fill:#990000;fill-opacity:0.95;stroke:#fb2c07;stroke-opacity:0.95;stroke-width:0.4;" x="218.97614" xlink:href="#m532d3c822b" y="59.229755"/>
     <use style="fill:#990000;fill-opacity:0.95;stroke:#fb2c07;stroke-opacity:0.95;stroke-width:0.4;" x="219.149102" xlink:href="#m532d3c822b" y="58.6931"/>
     <use style="fill:#990000;fill-opacity:0.95;stroke:#fb2c07;stroke-opacity:0.95;stroke-width:0.4;" x="219.322065" xlink:href="#m532d3c822b" y="57.977646"/>
     <use style="fill:#990000;fill-opacity:0.95;stroke:#fb2c07;stroke-opacity:0.95;stroke-width:0.4;" x="219.495027" xlink:href="#m532d3c822b" y="57.351527"/>
     <use style="fill:#990000;fill-opacity:0.95;stroke:#fb2c07;stroke-opacity:0.95;stroke-width:0.4;" x="219.66799" xlink:href="#m532d3c822b" y="57.709254"/>
     <use style="fill:#990000;fill-opacity:0.95;stroke:#fb2c07;stroke-opacity:0.95;stroke-width:0.4;" x="219.840952" xlink:href="#m532d3c822b" y="56.814872"/>
     <use style="fill:#990000;fill-opacity:0.95;stroke:#fb2c07;stroke-opacity:0.95;stroke-width:0.4;" x="220.013915" xlink:href="#m532d3c822b" y="56.188752"/>
     <use style="fill:#990000;fill-opacity:0.95;stroke:#fb2c07;stroke-opacity:0.95;stroke-width:0.4;" x="220.186877" xlink:href="#m532d3c822b" y="56.009954"/>
     <use style="fill:#990000;fill-opacity:0.95;stroke:#fb2c07;stroke-opacity:0.95;stroke-width:0.4;" x="220.35984" xlink:href="#m532d3c822b" y="55.29437"/>
     <use style="fill:#990000;fill-opacity:0.95;stroke:#fb2c07;stroke-opacity:0.95;stroke-width:0.4;" x="220.532803" xlink:href="#m532d3c822b" y="55.115442"/>
     <use style="fill:#990000;fill-opacity:0.95;stroke:#fb2c07;stroke-opacity:0.95;stroke-width:0.4;" x="220.705765" xlink:href="#m532d3c822b" y="54.936643"/>
     <use style="fill:#990000;fill-opacity:0.95;stroke:#fb2c07;stroke-opacity:0.95;stroke-width:0.4;" x="220.878728" xlink:href="#m532d3c822b" y="54.847179"/>
     <use style="fill:#990000;fill-opacity:0.95;stroke:#fb2c07;stroke-opacity:0.95;stroke-width:0.4;" x="221.05169" xlink:href="#m532d3c822b" y="54.668251"/>
     <use style="fill:#990000;fill-opacity:0.95;stroke:#fb2c07;stroke-opacity:0.95;stroke-width:0.4;" x="221.224653" xlink:href="#m532d3c822b" y="54.578916"/>
     <use style="fill:#990000;fill-opacity:0.95;stroke:#fb2c07;stroke-opacity:0.95;stroke-width:0.4;" x="221.397615" xlink:href="#m532d3c822b" y="54.310524"/>
     <use style="fill:#990000;fill-opacity:0.95;stroke:#fb2c07;stroke-opacity:0.95;stroke-width:0.4;" x="221.570578" xlink:href="#m532d3c822b" y="54.310524"/>
     <use style="fill:#990000;fill-opacity:0.95;stroke:#fb2c07;stroke-opacity:0.95;stroke-width:0.4;" x="221.74354" xlink:href="#m532d3c822b" y="54.399988"/>
     <use style="fill:#990000;fill-opacity:0.95;stroke:#fb2c07;stroke-opacity:0.95;stroke-width:0.4;" x="221.916503" xlink:href="#m532d3c822b" y="54.668251"/>
     <use style="fill:#990000;fill-opacity:0.95;stroke:#fb2c07;stroke-opacity:0.95;stroke-width:0.4;" x="222.089466" xlink:href="#m532d3c822b" y="55.026107"/>
     <use style="fill:#990000;fill-opacity:0.95;stroke:#fb2c07;stroke-opacity:0.95;stroke-width:0.4;" x="222.262428" xlink:href="#m532d3c822b" y="55.204906"/>
     <use style="fill:#990000;fill-opacity:0.95;stroke:#fb2c07;stroke-opacity:0.95;stroke-width:0.4;" x="222.435391" xlink:href="#m532d3c822b" y="55.473299"/>
     <use style="fill:#990000;fill-opacity:0.95;stroke:#fb2c07;stroke-opacity:0.95;stroke-width:0.4;" x="222.608353" xlink:href="#m532d3c822b" y="55.652097"/>
     <use style="fill:#990000;fill-opacity:0.95;stroke:#fb2c07;stroke-opacity:0.95;stroke-width:0.4;" x="222.781316" xlink:href="#m532d3c822b" y="56.278217"/>
     <use style="fill:#990000;fill-opacity:0.95;stroke:#fb2c07;stroke-opacity:0.95;stroke-width:0.4;" x="222.954278" xlink:href="#m532d3c822b" y="56.635944"/>
     <use style="fill:#990000;fill-opacity:0.95;stroke:#fb2c07;stroke-opacity:0.95;stroke-width:0.4;" x="223.127241" xlink:href="#m532d3c822b" y="57.083135"/>
     <use style="fill:#990000;fill-opacity:0.95;stroke:#fb2c07;stroke-opacity:0.95;stroke-width:0.4;" x="223.300204" xlink:href="#m532d3c822b" y="57.709254"/>
     <use style="fill:#990000;fill-opacity:0.95;stroke:#fb2c07;stroke-opacity:0.95;stroke-width:0.4;" x="223.473166" xlink:href="#m532d3c822b" y="57.798718"/>
    </g>
   </g>
   <g id="line2d_27">
    <path clip-path="url(#p7b6b8ca621)" d="M 63.109764 -1 
L 63.646127 217 
M 63.88011 217 
L 64.063989 138.822934 
L 64.291942 111.088665 
L 64.975801 109.062576 
L 67.027377 102.139098 
L 67.711236 100.701933 
L 68.167142 100.163546 
L 68.623048 99.997784 
L 69.078954 100.22376 
L 69.53486 100.850606 
L 69.990766 101.877834 
L 70.674625 104.143947 
L 71.358483 107.203945 
L 72.498248 113.626632 
L 73.638013 120.537131 
L 73.865966 140.994402 
L 74.043837 217 
M 74.266096 217 
L 74.321872 210.067468 
L 74.809907 -1 
M 100.925388 -1 
L 101.428355 217 
M 101.694335 217 
L 101.904179 149.371314 
L 103.727803 134.812318 
L 104.639615 129.372049 
L 105.323473 126.554285 
L 105.779379 125.343374 
L 106.235285 124.692742 
L 106.463238 124.582377 
L 106.691191 124.617177 
L 106.919144 124.798139 
L 107.37505 125.601033 
L 107.830956 126.993085 
L 108.514815 130.178249 
L 109.198674 134.648047 
L 110.110485 142.475365 
L 111.25025 154.740396 
L 111.478203 157.426459 
L 111.775483 217 
M 111.991482 217 
L 112.491619 -1 
M 138.722837 -1 
L 139.2205 217 
M 139.436739 217 
L 139.744369 176.342028 
L 140.884134 160.690539 
L 141.795946 151.135945 
L 142.479805 145.798993 
L 143.163664 142.059121 
L 143.61957 140.460022 
L 144.075475 139.579631 
L 144.303428 139.409774 
L 144.531381 139.420594 
L 144.759334 139.612458 
L 145.21524 140.540928 
L 145.671146 142.198788 
L 146.127052 144.590331 
L 146.810911 149.564558 
L 147.49477 156.221417 
L 148.406582 167.757069 
L 149.318393 182.398594 
L 149.418039 217 
M 149.679384 217 
L 150.002252 85.04265 
L 150.197239 -1 
M 176.477761 -1 
L 176.995616 217 
M 177.256961 217 
L 177.356607 182.398594 
L 178.268418 167.757069 
L 179.18023 156.221417 
L 180.092042 147.720605 
L 180.775901 143.302552 
L 181.231807 141.278433 
L 181.687713 139.985759 
L 182.143619 139.420594 
L 182.371572 139.409774 
L 182.599525 139.579631 
L 183.05543 140.460022 
L 183.511336 142.059121 
L 183.967242 144.374106 
L 184.651101 149.180691 
L 185.33496 155.569794 
L 186.246772 166.478722 
L 186.930631 176.342028 
L 187.238261 217 
M 187.4545 217 
L 187.952163 -1 
M 214.183381 -1 
L 214.683518 217 
M 214.899517 217 
L 215.196797 157.426459 
L 216.564515 142.475365 
L 217.476326 134.648047 
L 218.160185 130.178249 
L 218.844044 126.993085 
L 219.29995 125.601033 
L 219.755856 124.798139 
L 219.983809 124.617177 
L 220.211762 124.582377 
L 220.439715 124.692742 
L 220.895621 125.343374 
L 221.351527 126.554285 
L 222.035385 129.372049 
L 222.719244 133.289791 
L 223.631056 139.908896 
L 224.770821 149.371314 
L 224.980665 217 
M 225.246645 217 
L 225.749612 -1 
M 251.865093 -1 
L 252.408904 217 
M 252.631163 217 
L 252.809034 140.994402 
L 253.036987 120.537131 
L 255.772422 105.08152 
L 256.456281 102.538769 
L 257.14014 100.850606 
L 257.596046 100.22376 
L 258.051952 99.997784 
L 258.507858 100.163546 
L 258.963764 100.701933 
L 259.41967 101.582898 
L 260.103529 103.449685 
L 261.243293 107.444385 
L 262.155105 110.490685 
L 262.383058 111.088665 
L 262.611011 138.822934 
L 262.79489 217 
M 263.028873 217 
L 263.066917 213.246258 
L 263.565236 -1 
L 263.565236 -1 
" style="fill:none;stroke:#004ba8;stroke-linecap:square;stroke-width:0.9;"/>
   </g>
   <g id="line2d_28">
    <path clip-path="url(#p7b6b8ca621)" d="M 62.964416 217 
L 63.152177 147.146168 
L 63.38013 112.346051 
L 63.608083 112.232634 
L 63.836036 149.567339 
L 63.995153 217 
M 64.224755 217 
L 64.291942 204.808257 
L 64.519895 111.621151 
L 64.747848 90.945641 
L 65.431707 80.215897 
L 66.343519 69.844977 
L 67.027377 64.288594 
L 67.711236 60.453414 
L 68.167142 58.810182 
L 68.623048 57.87996 
L 68.851001 57.679288 
L 69.078954 57.653947 
L 69.306907 57.80356 
L 69.762813 58.627494 
L 70.218719 60.153562 
L 70.674625 62.389176 
L 71.358483 67.105145 
L 72.042342 73.538898 
L 72.726201 81.890225 
L 73.182107 88.936046 
L 73.41006 104.917849 
L 73.717467 217 
M 73.954159 217 
L 74.093919 157.980496 
L 74.321872 124.178796 
L 74.549825 125.201855 
L 74.777778 149.708424 
L 74.957152 217 
M 100.774807 217 
L 100.992367 156.725906 
L 101.448273 153.179334 
L 101.748824 217 
M 101.982089 217 
L 102.360085 84.807525 
L 102.815991 77.307894 
L 103.727803 67.286226 
L 104.411662 61.698386 
L 105.095521 57.591642 
L 105.779379 54.910321 
L 106.235285 53.900173 
L 106.691191 53.505673 
L 106.919144 53.538067 
L 107.147097 53.723024 
L 107.603003 54.549314 
L 108.058909 55.982415 
L 108.742768 59.268017 
L 109.426627 63.923551 
L 110.110485 69.988626 
L 110.794344 77.680489 
L 111.022297 81.089885 
L 111.25025 130.189751 
L 111.46058 217 
M 111.743391 217 
L 111.934109 163.07549 
L 112.390015 168.703957 
L 112.671068 217 
M 138.541286 217 
L 138.604605 200.359108 
L 138.832558 191.668176 
L 139.288463 183.801572 
L 139.398882 217 
M 139.670552 217 
L 139.744369 200.076256 
L 139.972322 106.87882 
L 140.200275 74.073054 
L 140.884134 66.755658 
L 141.795946 59.410737 
L 142.479805 55.278922 
L 143.163664 52.332989 
L 143.61957 51.037246 
L 144.075475 50.280866 
L 144.531381 50.065603 
L 144.759334 50.160785 
L 145.21524 50.755178 
L 145.671146 51.884211 
L 146.127052 53.540652 
L 146.810911 56.992138 
L 147.49477 61.568068 
L 148.406582 69.418625 
L 148.634535 71.816251 
L 148.862487 77.030794 
L 149.228335 217 
M 149.470031 217 
L 149.546346 198.300032 
L 149.774299 191.048976 
L 150.230205 200.774907 
L 150.297883 217 
M 176.377117 217 
L 176.444795 200.774907 
L 176.900701 191.048976 
L 177.128654 198.300032 
L 177.204969 217 
M 177.446665 217 
L 177.812513 77.030794 
L 178.040465 71.816251 
L 178.952277 63.337713 
L 179.864089 56.992138 
L 180.547948 53.540652 
L 181.231807 51.253254 
L 181.687713 50.390805 
L 182.143619 50.065603 
L 182.371572 50.105577 
L 182.827477 50.591472 
L 183.283383 51.617895 
L 183.739289 53.181975 
L 184.423148 56.525384 
L 185.107007 61.04878 
L 186.018819 68.940892 
L 186.474725 74.073054 
L 186.702678 106.87882 
L 187.004448 217 
M 187.276118 217 
L 187.386537 183.801572 
L 187.842442 191.668176 
L 188.070395 200.359108 
L 188.133714 217 
M 214.003932 217 
L 214.284985 168.703957 
L 214.740891 163.07549 
L 214.931609 217 
M 215.21442 217 
L 215.652703 81.089885 
L 216.336562 72.345117 
L 217.248373 63.923551 
L 217.932232 59.268017 
L 218.616091 55.982415 
L 219.071997 54.549314 
L 219.527903 53.723024 
L 219.755856 53.538067 
L 219.983809 53.505673 
L 220.211762 53.626228 
L 220.667668 54.32801 
L 221.123574 55.647791 
L 221.579479 57.591642 
L 222.263338 61.698386 
L 222.947197 67.286226 
L 223.631056 74.487464 
L 224.086962 80.430572 
L 224.314915 84.807525 
L 224.692911 217 
M 224.926176 217 
L 225.226727 153.179334 
L 225.682633 156.725906 
L 225.900193 217 
M 251.717848 217 
L 251.897222 149.708424 
L 252.125175 125.201855 
L 252.353128 124.178796 
L 252.581081 157.980496 
L 252.720841 217 
M 252.957533 217 
L 253.036987 197.073357 
L 253.26494 104.917849 
L 253.492893 88.936046 
L 254.176752 78.8705 
L 255.088564 69.052428 
L 255.772422 63.777027 
L 256.456281 60.153562 
L 256.912187 58.627494 
L 257.368093 57.80356 
L 257.596046 57.653947 
L 257.823999 57.679288 
L 258.051952 57.87996 
L 258.507858 58.810182 
L 258.963764 60.453414 
L 259.41967 62.824057 
L 260.103529 67.794199 
L 260.787387 74.575976 
L 261.471246 83.420692 
L 261.927152 90.945641 
L 262.155105 111.621151 
L 262.450245 217 
M 262.679847 217 
L 262.838964 149.567339 
L 263.066917 112.232634 
L 263.29487 112.346051 
L 263.522823 147.146168 
L 263.710584 217 
L 263.710584 217 
" style="fill:none;stroke:#990000;stroke-linecap:square;stroke-width:0.9;"/>
   </g>
   <g id="patch_3">
    <path d="M 49.475 170.08 
L 49.475 14.94 
" style="fill:none;stroke:#2b2b2b;stroke-linecap:square;stroke-linejoin:miter;stroke-width:0.8;"/>
   </g>
   <g id="patch_4">
    <path d="M 277.2 170.08 
L 277.2 14.94 
" style="fill:none;stroke:#2b2b2b;stroke-linecap:square;stroke-linejoin:miter;stroke-width:0.8;"/>
   </g>
   <g id="patch_5">
    <path d="M 49.475 170.08 
L 277.2 170.08 
" style="fill:none;stroke:#2b2b2b;stroke-linecap:square;stroke-linejoin:miter;stroke-width:0.8;"/>
   </g>
   <g id="patch_6">
    <path d="M 49.475 14.94 
L 277.2 14.94 
" style="fill:none;stroke:#2b2b2b;stroke-linecap:square;stroke-linejoin:miter;stroke-width:0.8;"/>
   </g>
  </g>
 </g>
 <defs>
  <clipPath id="p7b6b8ca621">
   <rect height="155.14" width="227.725" x="49.475" y="14.94"/>
  </clipPath>
 </defs>
</svg>
