<?xml version="1.0" encoding="utf-8" standalone="no"?>
<!DOCTYPE svg PUBLIC "-//W3C//DTD SVG 1.1//EN"
  "http://www.w3.org/Graphics/SVG/1.1/DTD/svg11.dtd">
<!-- Created with matplotlib (https://matplotlib.org/) -->
<svg height="144pt" version="1.1" viewBox="0 0 288 144" width="288pt" xmlns="http://www.w3.org/2000/svg" xmlns:xlink="http://www.w3.org/1999/xlink">
 <defs>
  <style type="text/css">
*{stroke-linecap:butt;stroke-linejoin:round;}
  </style>
 </defs>
 <g id="figure_1">
  <g id="patch_1">
   <path d="M 0 144 
L 288 144 
L 288 0 
L 0 0 
z
" style="fill:none;"/>
  </g>
  <g id="axes_1">
   <g id="patch_2">
    <path d="M 71.451313 88.72 
L 252.670194 88.72 
L 252.670194 10.8 
L 71.451313 10.8 
z
" style="fill:none;"/>
   </g>
   <g id="PathCollection_1">
    <defs>
     <path d="M 0 0.5 
C 0.132602 0.5 0.25979 0.447317 0.353553 0.353553 
C 0.447317 0.25979 0.5 0.132602 0.5 0 
C 0.5 -0.132602 0.447317 -0.25979 0.353553 -0.353553 
C 0.25979 -0.447317 0.132602 -0.5 0 -0.5 
C -0.132602 -0.5 -0.25979 -0.447317 -0.353553 -0.353553 
C -0.447317 -0.25979 -0.5 -0.132602 -0.5 0 
C -0.5 0.132602 -0.447317 0.25979 -0.353553 0.353553 
C -0.25979 0.447317 -0.132602 0.5 0 0.5 
z
" id="mbddd8f2c00" style="stroke:#56b4e9;"/>
    </defs>
    <g clip-path="url(#p9b61da3e36)">
     <use style="fill:#56b4e9;stroke:#56b4e9;" x="79.688534" xlink:href="#mbddd8f2c00" y="48.303935"/>
     <use style="fill:#56b4e9;stroke:#56b4e9;" x="80.693074" xlink:href="#mbddd8f2c00" y="34.05912"/>
     <use style="fill:#56b4e9;stroke:#56b4e9;" x="81.697613" xlink:href="#mbddd8f2c00" y="34.973381"/>
     <use style="fill:#56b4e9;stroke:#56b4e9;" x="82.702152" xlink:href="#mbddd8f2c00" y="38.599778"/>
     <use style="fill:#56b4e9;stroke:#56b4e9;" x="83.706691" xlink:href="#mbddd8f2c00" y="29.028085"/>
     <use style="fill:#56b4e9;stroke:#56b4e9;" x="84.711231" xlink:href="#mbddd8f2c00" y="37.285527"/>
     <use style="fill:#56b4e9;stroke:#56b4e9;" x="85.71577" xlink:href="#mbddd8f2c00" y="36.386331"/>
     <use style="fill:#56b4e9;stroke:#56b4e9;" x="86.720309" xlink:href="#mbddd8f2c00" y="49.302869"/>
     <use style="fill:#56b4e9;stroke:#56b4e9;" x="87.724848" xlink:href="#mbddd8f2c00" y="33.176027"/>
     <use style="fill:#56b4e9;stroke:#56b4e9;" x="89.733927" xlink:href="#mbddd8f2c00" y="39.467287"/>
     <use style="fill:#56b4e9;stroke:#56b4e9;" x="90.738466" xlink:href="#mbddd8f2c00" y="42.366171"/>
     <use style="fill:#56b4e9;stroke:#56b4e9;" x="91.743005" xlink:href="#mbddd8f2c00" y="35.721413"/>
     <use style="fill:#56b4e9;stroke:#56b4e9;" x="92.747545" xlink:href="#mbddd8f2c00" y="30.238443"/>
     <use style="fill:#56b4e9;stroke:#56b4e9;" x="93.752084" xlink:href="#mbddd8f2c00" y="33.266933"/>
     <use style="fill:#56b4e9;stroke:#56b4e9;" x="95.761162" xlink:href="#mbddd8f2c00" y="37.685517"/>
     <use style="fill:#56b4e9;stroke:#56b4e9;" x="97.770241" xlink:href="#mbddd8f2c00" y="28.155381"/>
     <use style="fill:#56b4e9;stroke:#56b4e9;" x="98.77478" xlink:href="#mbddd8f2c00" y="40.880756"/>
     <use style="fill:#56b4e9;stroke:#56b4e9;" x="99.779319" xlink:href="#mbddd8f2c00" y="28.015125"/>
     <use style="fill:#56b4e9;stroke:#56b4e9;" x="100.783859" xlink:href="#mbddd8f2c00" y="41.988259"/>
     <use style="fill:#56b4e9;stroke:#56b4e9;" x="102.792937" xlink:href="#mbddd8f2c00" y="34.666896"/>
     <use style="fill:#56b4e9;stroke:#56b4e9;" x="103.797476" xlink:href="#mbddd8f2c00" y="32.991616"/>
     <use style="fill:#56b4e9;stroke:#56b4e9;" x="104.802016" xlink:href="#mbddd8f2c00" y="35.472069"/>
     <use style="fill:#56b4e9;stroke:#56b4e9;" x="105.806555" xlink:href="#mbddd8f2c00" y="34.872085"/>
     <use style="fill:#56b4e9;stroke:#56b4e9;" x="106.811094" xlink:href="#mbddd8f2c00" y="56.473587"/>
     <use style="fill:#56b4e9;stroke:#56b4e9;" x="108.820173" xlink:href="#mbddd8f2c00" y="31.02024"/>
     <use style="fill:#56b4e9;stroke:#56b4e9;" x="109.824712" xlink:href="#mbddd8f2c00" y="37.887849"/>
     <use style="fill:#56b4e9;stroke:#56b4e9;" x="110.829251" xlink:href="#mbddd8f2c00" y="39.93195"/>
     <use style="fill:#56b4e9;stroke:#56b4e9;" x="111.833791" xlink:href="#mbddd8f2c00" y="35.311035"/>
     <use style="fill:#56b4e9;stroke:#56b4e9;" x="112.83833" xlink:href="#mbddd8f2c00" y="29.869621"/>
     <use style="fill:#56b4e9;stroke:#56b4e9;" x="113.842869" xlink:href="#mbddd8f2c00" y="40.261033"/>
     <use style="fill:#56b4e9;stroke:#56b4e9;" x="114.847408" xlink:href="#mbddd8f2c00" y="28.451477"/>
     <use style="fill:#56b4e9;stroke:#56b4e9;" x="115.851948" xlink:href="#mbddd8f2c00" y="37.633051"/>
     <use style="fill:#56b4e9;stroke:#56b4e9;" x="117.861026" xlink:href="#mbddd8f2c00" y="36.183739"/>
     <use style="fill:#56b4e9;stroke:#56b4e9;" x="118.865565" xlink:href="#mbddd8f2c00" y="34.201973"/>
     <use style="fill:#56b4e9;stroke:#56b4e9;" x="119.870105" xlink:href="#mbddd8f2c00" y="39.800266"/>
     <use style="fill:#56b4e9;stroke:#56b4e9;" x="120.874644" xlink:href="#mbddd8f2c00" y="29.472229"/>
     <use style="fill:#56b4e9;stroke:#56b4e9;" x="121.879183" xlink:href="#mbddd8f2c00" y="31.835803"/>
     <use style="fill:#56b4e9;stroke:#56b4e9;" x="123.888262" xlink:href="#mbddd8f2c00" y="31.363088"/>
     <use style="fill:#56b4e9;stroke:#56b4e9;" x="124.892801" xlink:href="#mbddd8f2c00" y="45.293626"/>
     <use style="fill:#56b4e9;stroke:#56b4e9;" x="125.89734" xlink:href="#mbddd8f2c00" y="33.646144"/>
     <use style="fill:#56b4e9;stroke:#56b4e9;" x="126.901879" xlink:href="#mbddd8f2c00" y="40.921275"/>
     <use style="fill:#56b4e9;stroke:#56b4e9;" x="128.910958" xlink:href="#mbddd8f2c00" y="37.50682"/>
     <use style="fill:#56b4e9;stroke:#56b4e9;" x="129.915497" xlink:href="#mbddd8f2c00" y="37.448121"/>
     <use style="fill:#56b4e9;stroke:#56b4e9;" x="130.920036" xlink:href="#mbddd8f2c00" y="29.085227"/>
     <use style="fill:#56b4e9;stroke:#56b4e9;" x="131.924576" xlink:href="#mbddd8f2c00" y="30.882581"/>
     <use style="fill:#56b4e9;stroke:#56b4e9;" x="133.933654" xlink:href="#mbddd8f2c00" y="36.079845"/>
     <use style="fill:#56b4e9;stroke:#56b4e9;" x="134.938193" xlink:href="#mbddd8f2c00" y="40.724657"/>
     <use style="fill:#56b4e9;stroke:#56b4e9;" x="135.942733" xlink:href="#mbddd8f2c00" y="36.186336"/>
     <use style="fill:#56b4e9;stroke:#56b4e9;" x="137.951811" xlink:href="#mbddd8f2c00" y="36.586325"/>
     <use style="fill:#56b4e9;stroke:#56b4e9;" x="139.96089" xlink:href="#mbddd8f2c00" y="32.085147"/>
     <use style="fill:#56b4e9;stroke:#56b4e9;" x="140.965429" xlink:href="#mbddd8f2c00" y="35.573365"/>
     <use style="fill:#56b4e9;stroke:#56b4e9;" x="141.969968" xlink:href="#mbddd8f2c00" y="34.178597"/>
     <use style="fill:#56b4e9;stroke:#56b4e9;" x="142.974507" xlink:href="#mbddd8f2c00" y="37.277995"/>
     <use style="fill:#56b4e9;stroke:#56b4e9;" x="143.979047" xlink:href="#mbddd8f2c00" y="44.961686"/>
     <use style="fill:#56b4e9;stroke:#56b4e9;" x="144.983586" xlink:href="#mbddd8f2c00" y="46.229705"/>
     <use style="fill:#56b4e9;stroke:#56b4e9;" x="145.988125" xlink:href="#mbddd8f2c00" y="41.660216"/>
     <use style="fill:#56b4e9;stroke:#56b4e9;" x="146.992664" xlink:href="#mbddd8f2c00" y="35.926603"/>
     <use style="fill:#56b4e9;stroke:#56b4e9;" x="147.997204" xlink:href="#mbddd8f2c00" y="36.103221"/>
     <use style="fill:#56b4e9;stroke:#56b4e9;" x="149.001743" xlink:href="#mbddd8f2c00" y="44.318587"/>
     <use style="fill:#56b4e9;stroke:#56b4e9;" x="150.006282" xlink:href="#mbddd8f2c00" y="36.853591"/>
     <use style="fill:#56b4e9;stroke:#56b4e9;" x="151.010821" xlink:href="#mbddd8f2c00" y="48.488605"/>
     <use style="fill:#56b4e9;stroke:#56b4e9;" x="152.015361" xlink:href="#mbddd8f2c00" y="51.163339"/>
     <use style="fill:#56b4e9;stroke:#56b4e9;" x="153.0199" xlink:href="#mbddd8f2c00" y="58.424444"/>
     <use style="fill:#56b4e9;stroke:#56b4e9;" x="154.024439" xlink:href="#mbddd8f2c00" y="62.526153"/>
     <use style="fill:#56b4e9;stroke:#56b4e9;" x="155.028978" xlink:href="#mbddd8f2c00" y="60.95113"/>
     <use style="fill:#56b4e9;stroke:#56b4e9;" x="156.033518" xlink:href="#mbddd8f2c00" y="69.375321"/>
     <use style="fill:#56b4e9;stroke:#56b4e9;" x="157.038057" xlink:href="#mbddd8f2c00" y="64.547917"/>
     <use style="fill:#56b4e9;stroke:#56b4e9;" x="158.042596" xlink:href="#mbddd8f2c00" y="76.424743"/>
     <use style="fill:#56b4e9;stroke:#56b4e9;" x="159.047135" xlink:href="#mbddd8f2c00" y="79.935299"/>
     <use style="fill:#56b4e9;stroke:#56b4e9;" x="160.051675" xlink:href="#mbddd8f2c00" y="79.810108"/>
     <use style="fill:#56b4e9;stroke:#56b4e9;" x="161.056214" xlink:href="#mbddd8f2c00" y="66.147615"/>
     <use style="fill:#56b4e9;stroke:#56b4e9;" x="162.060753" xlink:href="#mbddd8f2c00" y="63.03549"/>
     <use style="fill:#56b4e9;stroke:#56b4e9;" x="163.065293" xlink:href="#mbddd8f2c00" y="62.243044"/>
     <use style="fill:#56b4e9;stroke:#56b4e9;" x="164.069832" xlink:href="#mbddd8f2c00" y="54.876227"/>
     <use style="fill:#56b4e9;stroke:#56b4e9;" x="165.074371" xlink:href="#mbddd8f2c00" y="60.266993"/>
     <use style="fill:#56b4e9;stroke:#56b4e9;" x="166.07891" xlink:href="#mbddd8f2c00" y="46.560865"/>
     <use style="fill:#56b4e9;stroke:#56b4e9;" x="167.08345" xlink:href="#mbddd8f2c00" y="47.045267"/>
     <use style="fill:#56b4e9;stroke:#56b4e9;" x="168.087989" xlink:href="#mbddd8f2c00" y="43.197578"/>
     <use style="fill:#56b4e9;stroke:#56b4e9;" x="169.092528" xlink:href="#mbddd8f2c00" y="45.988672"/>
     <use style="fill:#56b4e9;stroke:#56b4e9;" x="170.097067" xlink:href="#mbddd8f2c00" y="45.157785"/>
     <use style="fill:#56b4e9;stroke:#56b4e9;" x="171.101607" xlink:href="#mbddd8f2c00" y="45.305314"/>
     <use style="fill:#56b4e9;stroke:#56b4e9;" x="172.106146" xlink:href="#mbddd8f2c00" y="45.34739"/>
     <use style="fill:#56b4e9;stroke:#56b4e9;" x="173.110685" xlink:href="#mbddd8f2c00" y="31.472176"/>
     <use style="fill:#56b4e9;stroke:#56b4e9;" x="174.115224" xlink:href="#mbddd8f2c00" y="47.125525"/>
     <use style="fill:#56b4e9;stroke:#56b4e9;" x="175.119764" xlink:href="#mbddd8f2c00" y="27.898245"/>
     <use style="fill:#56b4e9;stroke:#56b4e9;" x="176.124303" xlink:href="#mbddd8f2c00" y="44.055217"/>
     <use style="fill:#56b4e9;stroke:#56b4e9;" x="177.128842" xlink:href="#mbddd8f2c00" y="35.240907"/>
     <use style="fill:#56b4e9;stroke:#56b4e9;" x="178.133381" xlink:href="#mbddd8f2c00" y="34.827931"/>
     <use style="fill:#56b4e9;stroke:#56b4e9;" x="179.137921" xlink:href="#mbddd8f2c00" y="51.038667"/>
     <use style="fill:#56b4e9;stroke:#56b4e9;" x="180.14246" xlink:href="#mbddd8f2c00" y="42.991609"/>
     <use style="fill:#56b4e9;stroke:#56b4e9;" x="181.146999" xlink:href="#mbddd8f2c00" y="48.202899"/>
     <use style="fill:#56b4e9;stroke:#56b4e9;" x="182.151538" xlink:href="#mbddd8f2c00" y="40.213761"/>
     <use style="fill:#56b4e9;stroke:#56b4e9;" x="183.156078" xlink:href="#mbddd8f2c00" y="35.830501"/>
     <use style="fill:#56b4e9;stroke:#56b4e9;" x="185.165156" xlink:href="#mbddd8f2c00" y="37.14657"/>
     <use style="fill:#56b4e9;stroke:#56b4e9;" x="186.169695" xlink:href="#mbddd8f2c00" y="38.601856"/>
     <use style="fill:#56b4e9;stroke:#56b4e9;" x="187.174235" xlink:href="#mbddd8f2c00" y="41.492688"/>
     <use style="fill:#56b4e9;stroke:#56b4e9;" x="188.178774" xlink:href="#mbddd8f2c00" y="36.812034"/>
     <use style="fill:#56b4e9;stroke:#56b4e9;" x="189.183313" xlink:href="#mbddd8f2c00" y="33.47472"/>
     <use style="fill:#56b4e9;stroke:#56b4e9;" x="190.187852" xlink:href="#mbddd8f2c00" y="35.505835"/>
     <use style="fill:#56b4e9;stroke:#56b4e9;" x="191.192392" xlink:href="#mbddd8f2c00" y="36.204517"/>
     <use style="fill:#56b4e9;stroke:#56b4e9;" x="192.196931" xlink:href="#mbddd8f2c00" y="41.964883"/>
     <use style="fill:#56b4e9;stroke:#56b4e9;" x="193.20147" xlink:href="#mbddd8f2c00" y="43.877819"/>
     <use style="fill:#56b4e9;stroke:#56b4e9;" x="194.206009" xlink:href="#mbddd8f2c00" y="49.4091"/>
     <use style="fill:#56b4e9;stroke:#56b4e9;" x="196.215088" xlink:href="#mbddd8f2c00" y="38.677179"/>
     <use style="fill:#56b4e9;stroke:#56b4e9;" x="197.219627" xlink:href="#mbddd8f2c00" y="49.077161"/>
     <use style="fill:#56b4e9;stroke:#56b4e9;" x="198.224166" xlink:href="#mbddd8f2c00" y="34.807152"/>
     <use style="fill:#56b4e9;stroke:#56b4e9;" x="199.228706" xlink:href="#mbddd8f2c00" y="43.469518"/>
     <use style="fill:#56b4e9;stroke:#56b4e9;" x="200.233245" xlink:href="#mbddd8f2c00" y="29.965723"/>
     <use style="fill:#56b4e9;stroke:#56b4e9;" x="201.237784" xlink:href="#mbddd8f2c00" y="42.839925"/>
     <use style="fill:#56b4e9;stroke:#56b4e9;" x="202.242323" xlink:href="#mbddd8f2c00" y="30.207275"/>
     <use style="fill:#56b4e9;stroke:#56b4e9;" x="203.246863" xlink:href="#mbddd8f2c00" y="37.463964"/>
     <use style="fill:#56b4e9;stroke:#56b4e9;" x="204.251402" xlink:href="#mbddd8f2c00" y="28.807312"/>
     <use style="fill:#56b4e9;stroke:#56b4e9;" x="205.255941" xlink:href="#mbddd8f2c00" y="28.513813"/>
     <use style="fill:#56b4e9;stroke:#56b4e9;" x="206.26048" xlink:href="#mbddd8f2c00" y="28.83848"/>
     <use style="fill:#56b4e9;stroke:#56b4e9;" x="208.269559" xlink:href="#mbddd8f2c00" y="32.368256"/>
     <use style="fill:#56b4e9;stroke:#56b4e9;" x="209.274098" xlink:href="#mbddd8f2c00" y="43.988725"/>
     <use style="fill:#56b4e9;stroke:#56b4e9;" x="210.278637" xlink:href="#mbddd8f2c00" y="41.864626"/>
     <use style="fill:#56b4e9;stroke:#56b4e9;" x="212.287716" xlink:href="#mbddd8f2c00" y="45.244017"/>
     <use style="fill:#56b4e9;stroke:#56b4e9;" x="213.292255" xlink:href="#mbddd8f2c00" y="35.877253"/>
     <use style="fill:#56b4e9;stroke:#56b4e9;" x="214.296794" xlink:href="#mbddd8f2c00" y="34.300672"/>
     <use style="fill:#56b4e9;stroke:#56b4e9;" x="215.301334" xlink:href="#mbddd8f2c00" y="37.831747"/>
     <use style="fill:#56b4e9;stroke:#56b4e9;" x="216.305873" xlink:href="#mbddd8f2c00" y="33.420176"/>
     <use style="fill:#56b4e9;stroke:#56b4e9;" x="217.310412" xlink:href="#mbddd8f2c00" y="32.495525"/>
     <use style="fill:#56b4e9;stroke:#56b4e9;" x="219.319491" xlink:href="#mbddd8f2c00" y="44.290016"/>
     <use style="fill:#56b4e9;stroke:#56b4e9;" x="220.32403" xlink:href="#mbddd8f2c00" y="31.817621"/>
     <use style="fill:#56b4e9;stroke:#56b4e9;" x="221.328569" xlink:href="#mbddd8f2c00" y="41.269577"/>
     <use style="fill:#56b4e9;stroke:#56b4e9;" x="222.333109" xlink:href="#mbddd8f2c00" y="29.168341"/>
     <use style="fill:#56b4e9;stroke:#56b4e9;" x="223.337648" xlink:href="#mbddd8f2c00" y="33.056549"/>
     <use style="fill:#56b4e9;stroke:#56b4e9;" x="224.342187" xlink:href="#mbddd8f2c00" y="39.361576"/>
     <use style="fill:#56b4e9;stroke:#56b4e9;" x="225.346726" xlink:href="#mbddd8f2c00" y="39.798707"/>
     <use style="fill:#56b4e9;stroke:#56b4e9;" x="226.351266" xlink:href="#mbddd8f2c00" y="42.039167"/>
     <use style="fill:#56b4e9;stroke:#56b4e9;" x="227.355805" xlink:href="#mbddd8f2c00" y="38.15979"/>
     <use style="fill:#56b4e9;stroke:#56b4e9;" x="228.360344" xlink:href="#mbddd8f2c00" y="33.934448"/>
     <use style="fill:#56b4e9;stroke:#56b4e9;" x="229.364883" xlink:href="#mbddd8f2c00" y="31.957877"/>
     <use style="fill:#56b4e9;stroke:#56b4e9;" x="230.369423" xlink:href="#mbddd8f2c00" y="40.878159"/>
     <use style="fill:#56b4e9;stroke:#56b4e9;" x="231.373962" xlink:href="#mbddd8f2c00" y="33.443552"/>
     <use style="fill:#56b4e9;stroke:#56b4e9;" x="232.378501" xlink:href="#mbddd8f2c00" y="42.547205"/>
     <use style="fill:#56b4e9;stroke:#56b4e9;" x="233.38304" xlink:href="#mbddd8f2c00" y="28.609915"/>
     <use style="fill:#56b4e9;stroke:#56b4e9;" x="234.38758" xlink:href="#mbddd8f2c00" y="38.882628"/>
     <use style="fill:#56b4e9;stroke:#56b4e9;" x="235.392119" xlink:href="#mbddd8f2c00" y="43.791847"/>
     <use style="fill:#56b4e9;stroke:#56b4e9;" x="236.396658" xlink:href="#mbddd8f2c00" y="28.924192"/>
     <use style="fill:#56b4e9;stroke:#56b4e9;" x="237.401197" xlink:href="#mbddd8f2c00" y="32.059173"/>
     <use style="fill:#56b4e9;stroke:#56b4e9;" x="238.405737" xlink:href="#mbddd8f2c00" y="41.740474"/>
     <use style="fill:#56b4e9;stroke:#56b4e9;" x="239.410276" xlink:href="#mbddd8f2c00" y="36.939563"/>
     <use style="fill:#56b4e9;stroke:#56b4e9;" x="240.414815" xlink:href="#mbddd8f2c00" y="40.405185"/>
     <use style="fill:#56b4e9;stroke:#56b4e9;" x="241.419354" xlink:href="#mbddd8f2c00" y="38.427055"/>
     <use style="fill:#56b4e9;stroke:#56b4e9;" x="243.428433" xlink:href="#mbddd8f2c00" y="32.518901"/>
     <use style="fill:#56b4e9;stroke:#56b4e9;" x="244.432972" xlink:href="#mbddd8f2c00" y="42.199682"/>
    </g>
   </g>
   <g id="matplotlib.axis_1">
    <g id="xtick_1">
     <g id="line2d_1">
      <path clip-path="url(#p9b61da3e36)" d="M 82.702152 88.72 
L 82.702152 10.8 
" style="fill:none;stroke:#b2b2b2;stroke-dasharray:2.96,1.28;stroke-dashoffset:0;stroke-opacity:0.3;stroke-width:0.8;"/>
     </g>
     <g id="line2d_2">
      <defs>
       <path d="M 0 0 
L 0 3.5 
" id="m1db52fd542" style="stroke:#2b2b2b;stroke-width:0.8;"/>
      </defs>
      <g>
       <use style="fill:#2b2b2b;stroke:#2b2b2b;stroke-width:0.8;" x="82.702152" xlink:href="#m1db52fd542" y="88.72"/>
      </g>
     </g>
     <g id="text_1">
      <!-- 10.00 -->
      <defs>
       <path d="M 12.40625 8.296875 
L 28.515625 8.296875 
L 28.515625 63.921875 
L 10.984375 60.40625 
L 10.984375 69.390625 
L 28.421875 72.90625 
L 38.28125 72.90625 
L 38.28125 8.296875 
L 54.390625 8.296875 
L 54.390625 0 
L 12.40625 0 
z
" id="DejaVuSans-49"/>
       <path d="M 31.78125 66.40625 
Q 24.171875 66.40625 20.328125 58.90625 
Q 16.5 51.421875 16.5 36.375 
Q 16.5 21.390625 20.328125 13.890625 
Q 24.171875 6.390625 31.78125 6.390625 
Q 39.453125 6.390625 43.28125 13.890625 
Q 47.125 21.390625 47.125 36.375 
Q 47.125 51.421875 43.28125 58.90625 
Q 39.453125 66.40625 31.78125 66.40625 
z
M 31.78125 74.21875 
Q 44.046875 74.21875 50.515625 64.515625 
Q 56.984375 54.828125 56.984375 36.375 
Q 56.984375 17.96875 50.515625 8.265625 
Q 44.046875 -1.421875 31.78125 -1.421875 
Q 19.53125 -1.421875 13.0625 8.265625 
Q 6.59375 17.96875 6.59375 36.375 
Q 6.59375 54.828125 13.0625 64.515625 
Q 19.53125 74.21875 31.78125 74.21875 
z
" id="DejaVuSans-48"/>
       <path d="M 10.6875 12.40625 
L 21 12.40625 
L 21 0 
L 10.6875 0 
z
" id="DejaVuSans-46"/>
      </defs>
      <g style="fill:#2b2b2b;" transform="translate(59.799652 107.8775)scale(0.16 -0.16)">
       <use xlink:href="#DejaVuSans-49"/>
       <use x="63.623047" xlink:href="#DejaVuSans-48"/>
       <use x="127.246094" xlink:href="#DejaVuSans-46"/>
       <use x="159.033203" xlink:href="#DejaVuSans-48"/>
       <use x="222.65625" xlink:href="#DejaVuSans-48"/>
      </g>
     </g>
    </g>
    <g id="xtick_2">
     <g id="line2d_3">
      <path clip-path="url(#p9b61da3e36)" d="M 166.413757 88.72 
L 166.413757 10.8 
" style="fill:none;stroke:#b2b2b2;stroke-dasharray:2.96,1.28;stroke-dashoffset:0;stroke-opacity:0.3;stroke-width:0.8;"/>
     </g>
     <g id="line2d_4">
      <g>
       <use style="fill:#2b2b2b;stroke:#2b2b2b;stroke-width:0.8;" x="166.413757" xlink:href="#m1db52fd542" y="88.72"/>
      </g>
     </g>
     <g id="text_2">
      <!-- 10.05 -->
      <defs>
       <path d="M 10.796875 72.90625 
L 49.515625 72.90625 
L 49.515625 64.59375 
L 19.828125 64.59375 
L 19.828125 46.734375 
Q 21.96875 47.46875 24.109375 47.828125 
Q 26.265625 48.1875 28.421875 48.1875 
Q 40.625 48.1875 47.75 41.5 
Q 54.890625 34.8125 54.890625 23.390625 
Q 54.890625 11.625 47.5625 5.09375 
Q 40.234375 -1.421875 26.90625 -1.421875 
Q 22.3125 -1.421875 17.546875 -0.640625 
Q 12.796875 0.140625 7.71875 1.703125 
L 7.71875 11.625 
Q 12.109375 9.234375 16.796875 8.0625 
Q 21.484375 6.890625 26.703125 6.890625 
Q 35.15625 6.890625 40.078125 11.328125 
Q 45.015625 15.765625 45.015625 23.390625 
Q 45.015625 31 40.078125 35.4375 
Q 35.15625 39.890625 26.703125 39.890625 
Q 22.75 39.890625 18.8125 39.015625 
Q 14.890625 38.140625 10.796875 36.28125 
z
" id="DejaVuSans-53"/>
      </defs>
      <g style="fill:#2b2b2b;" transform="translate(143.511257 107.8775)scale(0.16 -0.16)">
       <use xlink:href="#DejaVuSans-49"/>
       <use x="63.623047" xlink:href="#DejaVuSans-48"/>
       <use x="127.246094" xlink:href="#DejaVuSans-46"/>
       <use x="159.033203" xlink:href="#DejaVuSans-48"/>
       <use x="222.65625" xlink:href="#DejaVuSans-53"/>
      </g>
     </g>
    </g>
    <g id="xtick_3">
     <g id="line2d_5">
      <path clip-path="url(#p9b61da3e36)" d="M 250.125361 88.72 
L 250.125361 10.8 
" style="fill:none;stroke:#b2b2b2;stroke-dasharray:2.96,1.28;stroke-dashoffset:0;stroke-opacity:0.3;stroke-width:0.8;"/>
     </g>
     <g id="line2d_6">
      <g>
       <use style="fill:#2b2b2b;stroke:#2b2b2b;stroke-width:0.8;" x="250.125361" xlink:href="#m1db52fd542" y="88.72"/>
      </g>
     </g>
     <g id="text_3">
      <!-- 10.10 -->
      <g style="fill:#2b2b2b;" transform="translate(227.222861 107.8775)scale(0.16 -0.16)">
       <use xlink:href="#DejaVuSans-49"/>
       <use x="63.623047" xlink:href="#DejaVuSans-48"/>
       <use x="127.246094" xlink:href="#DejaVuSans-46"/>
       <use x="159.033203" xlink:href="#DejaVuSans-49"/>
       <use x="222.65625" xlink:href="#DejaVuSans-48"/>
      </g>
     </g>
    </g>
    <g id="text_4">
     <!-- $\omega_{10}/ 2 \pi$ (GHz) -->
     <defs>
      <path d="M 12.109375 -1.125 
Q 6.453125 -1.125 3.9375 3.015625 
Q 1.421875 7.171875 1.421875 13.1875 
Q 1.421875 17.140625 2.125 20.921875 
Q 2.828125 24.703125 4.265625 28.578125 
Q 5.71875 32.46875 7.5625 35.859375 
Q 9.421875 39.265625 11.71875 42.484375 
Q 12.15625 43.109375 12.890625 43.109375 
Q 13.53125 43.109375 13.921875 42.71875 
Q 14.3125 42.328125 14.3125 41.796875 
Q 14.3125 41.265625 14.015625 40.828125 
Q 4.890625 28.265625 4.890625 17.671875 
Q 4.890625 13.09375 7 9.796875 
Q 9.125 6.5 13.484375 6.5 
Q 17.234375 6.5 20.4375 8.6875 
Q 23.640625 10.890625 25.984375 14.3125 
Q 25.984375 16.0625 26.59375 19.765625 
Q 27.203125 23.484375 28.484375 26.390625 
Q 29.78125 29.296875 31.59375 29.296875 
Q 33.890625 29.296875 33.890625 26.609375 
Q 33.890625 25.046875 33.21875 22.671875 
Q 32.5625 20.3125 31.75 18.265625 
Q 30.953125 16.21875 29.78125 13.625 
Q 30.953125 6.5 36.921875 6.5 
Q 40.375 6.5 43.859375 8.5 
Q 47.359375 10.5 50.046875 13.75 
Q 52.734375 17 54.265625 20.75 
Q 55.8125 24.515625 55.8125 27.875 
Q 55.8125 30.90625 54.859375 32.59375 
Q 53.90625 34.28125 52.34375 36.125 
Q 50.78125 37.984375 50.78125 39.109375 
Q 50.78125 41.0625 52.4375 42.671875 
Q 54.109375 44.28125 56 44.28125 
Q 58.453125 44.28125 59.46875 42.0625 
Q 60.5 39.84375 60.5 37.015625 
Q 60.5 32.421875 58.671875 25.4375 
Q 56.84375 18.453125 54.5 13.8125 
Q 51.265625 7.515625 46.40625 3.1875 
Q 41.546875 -1.125 35.5 -1.125 
Q 31.640625 -1.125 29.265625 1.1875 
Q 26.90625 3.515625 26.21875 7.515625 
Q 23.4375 3.5625 19.875 1.21875 
Q 16.3125 -1.125 12.109375 -1.125 
z
" id="Cmmi10-33"/>
      <path d="M 9.28125 0 
L 9.28125 3.515625 
Q 21.78125 3.515625 21.78125 6.6875 
L 21.78125 59.1875 
Q 16.609375 56.6875 8.6875 56.6875 
L 8.6875 60.203125 
Q 20.953125 60.203125 27.203125 66.609375 
L 28.609375 66.609375 
Q 28.953125 66.609375 29.265625 66.328125 
Q 29.59375 66.0625 29.59375 65.71875 
L 29.59375 6.6875 
Q 29.59375 3.515625 42.09375 3.515625 
L 42.09375 0 
z
" id="Cmr10-49"/>
      <path d="M 25 -2.203125 
Q 12.75 -2.203125 8.328125 7.875 
Q 3.90625 17.96875 3.90625 31.890625 
Q 3.90625 40.578125 5.484375 48.234375 
Q 7.078125 55.90625 11.78125 61.25 
Q 16.5 66.609375 25 66.609375 
Q 31.59375 66.609375 35.78125 63.375 
Q 39.984375 60.15625 42.1875 55.046875 
Q 44.390625 49.953125 45.1875 44.109375 
Q 46 38.28125 46 31.890625 
Q 46 23.296875 44.40625 15.796875 
Q 42.828125 8.296875 38.1875 3.046875 
Q 33.546875 -2.203125 25 -2.203125 
z
M 25 0.390625 
Q 30.5625 0.390625 33.296875 6.09375 
Q 36.03125 11.8125 36.671875 18.75 
Q 37.3125 25.6875 37.3125 33.5 
Q 37.3125 41.015625 36.671875 47.359375 
Q 36.03125 53.71875 33.3125 58.859375 
Q 30.609375 64.015625 25 64.015625 
Q 19.34375 64.015625 16.609375 58.828125 
Q 13.875 53.65625 13.234375 47.328125 
Q 12.59375 41.015625 12.59375 33.5 
Q 12.59375 27.9375 12.859375 23 
Q 13.140625 18.0625 14.3125 12.8125 
Q 15.484375 7.5625 18.09375 3.96875 
Q 20.703125 0.390625 25 0.390625 
z
" id="Cmr10-48"/>
      <path d="M 5.609375 -23 
Q 5.609375 -22.703125 5.71875 -22.609375 
L 40.484375 73.78125 
Q 40.671875 74.359375 41.15625 74.671875 
Q 41.65625 75 42.28125 75 
Q 43.171875 75 43.71875 74.453125 
Q 44.28125 73.921875 44.28125 73 
L 44.28125 72.609375 
L 9.515625 -23.78125 
Q 8.9375 -25 7.625 -25 
Q 6.78125 -25 6.1875 -24.40625 
Q 5.609375 -23.828125 5.609375 -23 
z
" id="Cmmi10-61"/>
      <path d="M 4.984375 0 
L 4.984375 2.6875 
Q 4.984375 2.9375 5.171875 3.21875 
L 20.703125 20.40625 
Q 24.21875 24.21875 26.40625 26.796875 
Q 28.609375 29.390625 30.75 32.765625 
Q 32.90625 36.140625 34.15625 39.625 
Q 35.40625 43.109375 35.40625 47.015625 
Q 35.40625 51.125 33.890625 54.859375 
Q 32.375 58.59375 29.375 60.84375 
Q 26.375 63.09375 22.125 63.09375 
Q 17.78125 63.09375 14.3125 60.46875 
Q 10.84375 57.859375 9.421875 53.71875 
Q 9.8125 53.8125 10.5 53.8125 
Q 12.75 53.8125 14.328125 52.296875 
Q 15.921875 50.78125 15.921875 48.390625 
Q 15.921875 46.09375 14.328125 44.5 
Q 12.75 42.921875 10.5 42.921875 
Q 8.15625 42.921875 6.5625 44.546875 
Q 4.984375 46.1875 4.984375 48.390625 
Q 4.984375 52.15625 6.390625 55.4375 
Q 7.8125 58.734375 10.46875 61.296875 
Q 13.140625 63.875 16.484375 65.234375 
Q 19.828125 66.609375 23.578125 66.609375 
Q 29.296875 66.609375 34.21875 64.1875 
Q 39.15625 61.765625 42.03125 57.34375 
Q 44.921875 52.9375 44.921875 47.015625 
Q 44.921875 42.671875 43.015625 38.765625 
Q 41.109375 34.859375 38.125 31.65625 
Q 35.15625 28.46875 30.515625 24.40625 
Q 25.875 20.359375 24.421875 19 
L 13.09375 8.109375 
L 22.703125 8.109375 
Q 29.78125 8.109375 34.546875 8.21875 
Q 39.3125 8.34375 39.59375 8.59375 
Q 40.765625 9.859375 42 17.828125 
L 44.921875 17.828125 
L 42.09375 0 
z
" id="Cmr10-50"/>
      <path d="M 10.109375 1.703125 
Q 10.109375 2.25 10.5 3.328125 
Q 13.28125 9.125 15.6875 14.71875 
Q 18.109375 20.3125 20.03125 25.609375 
Q 21.96875 30.90625 23.578125 36.921875 
L 17.1875 36.921875 
Q 13.53125 36.921875 10.34375 34.625 
Q 7.171875 32.328125 5.078125 28.8125 
Q 4.890625 28.421875 4.5 28.421875 
L 3.328125 28.421875 
Q 2.390625 28.421875 2.390625 29.390625 
Q 2.390625 29.59375 2.59375 29.984375 
Q 5.859375 35.546875 9.59375 39.328125 
Q 13.328125 43.109375 18.015625 43.109375 
L 54.296875 43.109375 
Q 55.328125 43.109375 56.046875 42.421875 
Q 56.78125 41.75 56.78125 40.578125 
Q 56.78125 39.109375 55.734375 38.015625 
Q 54.6875 36.921875 53.21875 36.921875 
L 40.484375 36.921875 
Q 38.875 29.046875 38.71875 21.578125 
Q 38.71875 11.96875 42.09375 4.203125 
Q 42.390625 3.609375 42.390625 2.984375 
Q 42.390625 1.90625 41.75 0.96875 
Q 41.109375 0.046875 40.109375 -0.53125 
Q 39.109375 -1.125 37.984375 -1.125 
Q 35.359375 -1.125 34.375 3.171875 
Q 33.40625 7.46875 33.40625 11.53125 
Q 33.40625 17.234375 34.375 22.53125 
Q 35.359375 27.828125 37.5 36.921875 
L 26.609375 36.921875 
Q 18.703125 4.890625 17.09375 1.609375 
Q 15.671875 -1.125 13.1875 -1.125 
Q 11.96875 -1.125 11.03125 -0.3125 
Q 10.109375 0.484375 10.109375 1.703125 
z
" id="Cmmi10-188"/>
      <path id="DejaVuSans-32"/>
      <path d="M 31 75.875 
Q 24.46875 64.65625 21.28125 53.65625 
Q 18.109375 42.671875 18.109375 31.390625 
Q 18.109375 20.125 21.3125 9.0625 
Q 24.515625 -2 31 -13.1875 
L 23.1875 -13.1875 
Q 15.875 -1.703125 12.234375 9.375 
Q 8.59375 20.453125 8.59375 31.390625 
Q 8.59375 42.28125 12.203125 53.3125 
Q 15.828125 64.359375 23.1875 75.875 
z
" id="DejaVuSans-40"/>
      <path d="M 59.515625 10.40625 
L 59.515625 29.984375 
L 43.40625 29.984375 
L 43.40625 38.09375 
L 69.28125 38.09375 
L 69.28125 6.78125 
Q 63.578125 2.734375 56.6875 0.65625 
Q 49.8125 -1.421875 42 -1.421875 
Q 24.90625 -1.421875 15.25 8.5625 
Q 5.609375 18.5625 5.609375 36.375 
Q 5.609375 54.25 15.25 64.234375 
Q 24.90625 74.21875 42 74.21875 
Q 49.125 74.21875 55.546875 72.453125 
Q 61.96875 70.703125 67.390625 67.28125 
L 67.390625 56.78125 
Q 61.921875 61.421875 55.765625 63.765625 
Q 49.609375 66.109375 42.828125 66.109375 
Q 29.4375 66.109375 22.71875 58.640625 
Q 16.015625 51.171875 16.015625 36.375 
Q 16.015625 21.625 22.71875 14.15625 
Q 29.4375 6.6875 42.828125 6.6875 
Q 48.046875 6.6875 52.140625 7.59375 
Q 56.25 8.5 59.515625 10.40625 
z
" id="DejaVuSans-71"/>
      <path d="M 9.8125 72.90625 
L 19.671875 72.90625 
L 19.671875 43.015625 
L 55.515625 43.015625 
L 55.515625 72.90625 
L 65.375 72.90625 
L 65.375 0 
L 55.515625 0 
L 55.515625 34.71875 
L 19.671875 34.71875 
L 19.671875 0 
L 9.8125 0 
z
" id="DejaVuSans-72"/>
      <path d="M 5.515625 54.6875 
L 48.1875 54.6875 
L 48.1875 46.484375 
L 14.40625 7.171875 
L 48.1875 7.171875 
L 48.1875 0 
L 4.296875 0 
L 4.296875 8.203125 
L 38.09375 47.515625 
L 5.515625 47.515625 
z
" id="DejaVuSans-122"/>
      <path d="M 8.015625 75.875 
L 15.828125 75.875 
Q 23.140625 64.359375 26.78125 53.3125 
Q 30.421875 42.28125 30.421875 31.390625 
Q 30.421875 20.453125 26.78125 9.375 
Q 23.140625 -1.703125 15.828125 -13.1875 
L 8.015625 -13.1875 
Q 14.5 -2 17.703125 9.0625 
Q 20.90625 20.125 20.90625 31.390625 
Q 20.90625 42.671875 17.703125 53.65625 
Q 14.5 64.65625 8.015625 75.875 
z
" id="DejaVuSans-41"/>
     </defs>
     <g transform="translate(113.180753 127.365)scale(0.16 -0.16)">
      <use transform="translate(0 0.125)" xlink:href="#Cmmi10-33"/>
      <use transform="translate(62.207031 -16.88125)scale(0.7)" xlink:href="#Cmr10-49"/>
      <use transform="translate(97.207031 -16.88125)scale(0.7)" xlink:href="#Cmr10-48"/>
      <use transform="translate(138.584375 0.125)" xlink:href="#Cmmi10-61"/>
      <use transform="translate(188.584375 0.125)" xlink:href="#Cmr10-50"/>
      <use transform="translate(238.584375 0.125)" xlink:href="#Cmmi10-188"/>
      <use transform="translate(295.566797 0.125)" xlink:href="#DejaVuSans-32"/>
      <use transform="translate(327.353906 0.125)" xlink:href="#DejaVuSans-40"/>
      <use transform="translate(366.367578 0.125)" xlink:href="#DejaVuSans-71"/>
      <use transform="translate(443.857813 0.125)" xlink:href="#DejaVuSans-72"/>
      <use transform="translate(519.053125 0.125)" xlink:href="#DejaVuSans-122"/>
      <use transform="translate(571.543359 0.125)" xlink:href="#DejaVuSans-41"/>
     </g>
    </g>
   </g>
   <g id="matplotlib.axis_2">
    <g id="ytick_1">
     <g id="line2d_7">
      <path clip-path="url(#p9b61da3e36)" d="M 71.451313 88.72 
L 252.670194 88.72 
" style="fill:none;stroke:#b2b2b2;stroke-dasharray:2.96,1.28;stroke-dashoffset:0;stroke-opacity:0.3;stroke-width:0.8;"/>
     </g>
     <g id="line2d_8">
      <defs>
       <path d="M 0 0 
L -3.5 0 
" id="me257bd5ff6" style="stroke:#2b2b2b;stroke-width:0.8;"/>
      </defs>
      <g>
       <use style="fill:#2b2b2b;stroke:#2b2b2b;stroke-width:0.8;" x="71.451313" xlink:href="#me257bd5ff6" y="88.72"/>
      </g>
     </g>
     <g id="text_5">
      <!-- 0.8 -->
      <defs>
       <path d="M 31.78125 34.625 
Q 24.75 34.625 20.71875 30.859375 
Q 16.703125 27.09375 16.703125 20.515625 
Q 16.703125 13.921875 20.71875 10.15625 
Q 24.75 6.390625 31.78125 6.390625 
Q 38.8125 6.390625 42.859375 10.171875 
Q 46.921875 13.96875 46.921875 20.515625 
Q 46.921875 27.09375 42.890625 30.859375 
Q 38.875 34.625 31.78125 34.625 
z
M 21.921875 38.8125 
Q 15.578125 40.375 12.03125 44.71875 
Q 8.5 49.078125 8.5 55.328125 
Q 8.5 64.0625 14.71875 69.140625 
Q 20.953125 74.21875 31.78125 74.21875 
Q 42.671875 74.21875 48.875 69.140625 
Q 55.078125 64.0625 55.078125 55.328125 
Q 55.078125 49.078125 51.53125 44.71875 
Q 48 40.375 41.703125 38.8125 
Q 48.828125 37.15625 52.796875 32.3125 
Q 56.78125 27.484375 56.78125 20.515625 
Q 56.78125 9.90625 50.3125 4.234375 
Q 43.84375 -1.421875 31.78125 -1.421875 
Q 19.734375 -1.421875 13.25 4.234375 
Q 6.78125 9.90625 6.78125 20.515625 
Q 6.78125 27.484375 10.78125 32.3125 
Q 14.796875 37.15625 21.921875 38.8125 
z
M 18.3125 54.390625 
Q 18.3125 48.734375 21.84375 45.5625 
Q 25.390625 42.390625 31.78125 42.390625 
Q 38.140625 42.390625 41.71875 45.5625 
Q 45.3125 48.734375 45.3125 54.390625 
Q 45.3125 60.0625 41.71875 63.234375 
Q 38.140625 66.40625 31.78125 66.40625 
Q 25.390625 66.40625 21.84375 63.234375 
Q 18.3125 60.0625 18.3125 54.390625 
z
" id="DejaVuSans-56"/>
      </defs>
      <g style="fill:#2b2b2b;" transform="translate(39.006312 94.79875)scale(0.16 -0.16)">
       <use xlink:href="#DejaVuSans-48"/>
       <use x="63.623047" xlink:href="#DejaVuSans-46"/>
       <use x="95.410156" xlink:href="#DejaVuSans-56"/>
      </g>
     </g>
    </g>
    <g id="ytick_2">
     <g id="line2d_9">
      <path clip-path="url(#p9b61da3e36)" d="M 71.451313 36.773333 
L 252.670194 36.773333 
" style="fill:none;stroke:#b2b2b2;stroke-dasharray:2.96,1.28;stroke-dashoffset:0;stroke-opacity:0.3;stroke-width:0.8;"/>
     </g>
     <g id="line2d_10">
      <g>
       <use style="fill:#2b2b2b;stroke:#2b2b2b;stroke-width:0.8;" x="71.451313" xlink:href="#me257bd5ff6" y="36.773333"/>
      </g>
     </g>
     <g id="text_6">
      <!-- 1.0 -->
      <g style="fill:#2b2b2b;" transform="translate(39.006312 42.852083)scale(0.16 -0.16)">
       <use xlink:href="#DejaVuSans-49"/>
       <use x="63.623047" xlink:href="#DejaVuSans-46"/>
       <use x="95.410156" xlink:href="#DejaVuSans-48"/>
      </g>
     </g>
    </g>
    <g id="text_7">
     <!-- $|t|^2$ -->
     <defs>
      <path d="M 11.921875 -23.1875 
L 11.921875 73.1875 
Q 11.921875 73.96875 12.5 74.484375 
Q 13.09375 75 13.921875 75 
Q 14.65625 75 15.28125 74.484375 
Q 15.921875 73.96875 15.921875 73.1875 
L 15.921875 -23.1875 
Q 15.921875 -23.96875 15.28125 -24.484375 
Q 14.65625 -25 13.921875 -25 
Q 13.09375 -25 12.5 -24.484375 
Q 11.921875 -23.96875 11.921875 -23.1875 
z
" id="Cmsy10-106"/>
      <path d="M 6.203125 8.109375 
Q 6.203125 9.578125 6.5 10.890625 
L 13.71875 39.59375 
L 3.21875 39.59375 
Q 2.203125 39.59375 2.203125 40.921875 
Q 2.59375 43.109375 3.515625 43.109375 
L 14.59375 43.109375 
L 18.609375 59.421875 
Q 19 60.75 20.171875 61.671875 
Q 21.34375 62.59375 22.796875 62.59375 
Q 24.078125 62.59375 24.921875 61.828125 
Q 25.78125 61.078125 25.78125 59.8125 
Q 25.78125 59.515625 25.75 59.34375 
Q 25.734375 59.1875 25.6875 58.984375 
L 21.6875 43.109375 
L 31.984375 43.109375 
Q 33.015625 43.109375 33.015625 41.796875 
Q 32.953125 41.546875 32.8125 40.953125 
Q 32.671875 40.375 32.421875 39.984375 
Q 32.171875 39.59375 31.6875 39.59375 
L 20.796875 39.59375 
L 13.625 10.6875 
Q 12.890625 7.859375 12.890625 5.8125 
Q 12.890625 1.515625 15.828125 1.515625 
Q 20.21875 1.515625 23.609375 5.640625 
Q 27 9.765625 28.8125 14.703125 
Q 29.203125 15.28125 29.59375 15.28125 
L 30.8125 15.28125 
Q 31.203125 15.28125 31.4375 15.015625 
Q 31.6875 14.75 31.6875 14.40625 
Q 31.6875 14.203125 31.59375 14.109375 
Q 29.390625 8.0625 25.1875 3.46875 
Q 21 -1.125 15.578125 -1.125 
Q 11.625 -1.125 8.90625 1.453125 
Q 6.203125 4.046875 6.203125 8.109375 
z
" id="Cmmi10-116"/>
     </defs>
     <g transform="translate(30.006312 63.56)rotate(-90)scale(0.2 -0.2)">
      <use transform="translate(0 0.109375)" xlink:href="#Cmsy10-106"/>
      <use transform="translate(27.685547 0.109375)" xlink:href="#Cmmi10-116"/>
      <use transform="translate(63.769531 0.109375)" xlink:href="#Cmsy10-106"/>
      <use transform="translate(95.919219 38.373438)scale(0.7)" xlink:href="#Cmr10-50"/>
     </g>
    </g>
   </g>
   <g id="line2d_11">
    <path clip-path="url(#p9b61da3e36)" d="M 79.688534 36.918589 
L 108.741662 37.133261 
L 121.947629 37.430874 
L 129.54106 37.804197 
L 134.493297 38.246835 
L 138.124938 38.777459 
L 140.766132 39.361546 
L 143.077176 40.103051 
L 144.727922 40.838321 
L 146.378667 41.833373 
L 147.699264 42.90051 
L 149.019861 44.315179 
L 150.010308 45.691485 
L 151.000756 47.433278 
L 151.991203 49.655209 
L 152.981651 52.499327 
L 153.972098 56.119091 
L 154.962546 60.620113 
L 156.613292 69.633337 
L 157.603739 74.674126 
L 158.264038 76.975173 
L 158.594187 77.63032 
L 158.924336 77.901605 
L 159.254485 77.773514 
L 159.584634 77.25341 
L 160.244933 75.171873 
L 160.905231 72.068989 
L 163.876574 56.611914 
L 164.867021 52.88992 
L 165.857469 49.960669 
L 166.847916 47.672038 
L 167.838364 45.879243 
L 168.828811 44.464191 
L 170.149408 43.011804 
L 171.470005 41.918088 
L 173.120751 40.900095 
L 174.771496 40.149258 
L 176.752391 39.48529 
L 179.393585 38.862092 
L 182.695077 38.34152 
L 186.987016 37.909903 
L 192.929701 37.55367 
L 201.843729 37.266314 
L 216.370292 37.049784 
L 243.772674 36.900432 
L 244.432972 36.898481 
L 244.432972 36.898481 
" style="fill:none;stroke:#004ba8;stroke-linecap:square;stroke-width:1.2;"/>
   </g>
   <g id="line2d_12">
    <defs>
     <path d="M 0 3.5 
C 0.928211 3.5 1.81853 3.131218 2.474874 2.474874 
C 3.131218 1.81853 3.5 0.928211 3.5 0 
C 3.5 -0.928211 3.131218 -1.81853 2.474874 -2.474874 
C 1.81853 -3.131218 0.928211 -3.5 0 -3.5 
C -0.928211 -3.5 -1.81853 -3.131218 -2.474874 -2.474874 
C -3.131218 -1.81853 -3.5 -0.928211 -3.5 0 
C -3.5 0.928211 -3.131218 1.81853 -2.474874 2.474874 
C -1.81853 3.131218 -0.928211 3.5 0 3.5 
z
" id="meb8f21f003" style="stroke:#56b4e9;stroke-opacity:0.95;"/>
    </defs>
    <g clip-path="url(#p9b61da3e36)">
     <use style="fill:#004ba8;fill-opacity:0.95;stroke:#56b4e9;stroke-opacity:0.95;" x="158.924336" xlink:href="#meb8f21f003" y="77.901605"/>
    </g>
   </g>
   <g id="patch_3">
    <path d="M 71.451313 88.72 
L 71.451313 10.8 
" style="fill:none;stroke:#2b2b2b;stroke-linecap:square;stroke-linejoin:miter;stroke-width:0.8;"/>
   </g>
   <g id="patch_4">
    <path d="M 252.670194 88.72 
L 252.670194 10.8 
" style="fill:none;stroke:#2b2b2b;stroke-linecap:square;stroke-linejoin:miter;stroke-width:0.8;"/>
   </g>
   <g id="patch_5">
    <path d="M 71.451313 88.72 
L 252.670194 88.72 
" style="fill:none;stroke:#2b2b2b;stroke-linecap:square;stroke-linejoin:miter;stroke-width:0.8;"/>
   </g>
   <g id="patch_6">
    <path d="M 71.451313 10.8 
L 252.670194 10.8 
" style="fill:none;stroke:#2b2b2b;stroke-linecap:square;stroke-linejoin:miter;stroke-width:0.8;"/>
   </g>
  </g>
 </g>
 <defs>
  <clipPath id="p9b61da3e36">
   <rect height="77.92" width="181.218882" x="71.451313" y="10.8"/>
  </clipPath>
 </defs>
</svg>
