<?xml version="1.0" encoding="utf-8" standalone="no"?>
<!DOCTYPE svg PUBLIC "-//W3C//DTD SVG 1.1//EN"
  "http://www.w3.org/Graphics/SVG/1.1/DTD/svg11.dtd">
<!-- Created with matplotlib (https://matplotlib.org/) -->
<svg height="360pt" version="1.1" viewBox="0 0 216 360" width="216pt" xmlns="http://www.w3.org/2000/svg" xmlns:xlink="http://www.w3.org/1999/xlink">
 <defs>
  <style type="text/css">
*{stroke-linecap:butt;stroke-linejoin:round;}
  </style>
 </defs>
 <g id="figure_1">
  <g id="patch_1">
   <path d="M 0 360 
L 216 360 
L 216 0 
L 0 0 
z
" style="fill:none;"/>
  </g>
  <g id="axes_1">
   <g id="patch_2">
    <path d="M 47.52 158.727273 
L 205.2 158.727273 
L 205.2 36 
L 47.52 36 
z
" style="fill:none;"/>
   </g>
   <g id="matplotlib.axis_1">
    <g id="xtick_1">
     <g id="line2d_1">
      <path clip-path="url(#p6444d94d81)" d="M 72.722214 158.727273 
L 72.722214 36 
" style="fill:none;stroke:#b2b2b2;stroke-dasharray:2.96,1.28;stroke-dashoffset:0;stroke-opacity:0.3;stroke-width:0.8;"/>
     </g>
     <g id="line2d_2">
      <defs>
       <path d="M 0 0 
L 0 3.5 
" id="me2bad7af3c" style="stroke:#2b2b2b;stroke-width:0.8;"/>
      </defs>
      <g>
       <use style="fill:#2b2b2b;stroke:#2b2b2b;stroke-width:0.8;" x="72.722214" xlink:href="#me2bad7af3c" y="158.727273"/>
      </g>
     </g>
    </g>
    <g id="xtick_2">
     <g id="line2d_3">
      <path clip-path="url(#p6444d94d81)" d="M 126.36 158.727273 
L 126.36 36 
" style="fill:none;stroke:#b2b2b2;stroke-dasharray:2.96,1.28;stroke-dashoffset:0;stroke-opacity:0.3;stroke-width:0.8;"/>
     </g>
     <g id="line2d_4">
      <g>
       <use style="fill:#2b2b2b;stroke:#2b2b2b;stroke-width:0.8;" x="126.36" xlink:href="#me2bad7af3c" y="158.727273"/>
      </g>
     </g>
    </g>
    <g id="xtick_3">
     <g id="line2d_5">
      <path clip-path="url(#p6444d94d81)" d="M 179.997786 158.727273 
L 179.997786 36 
" style="fill:none;stroke:#b2b2b2;stroke-dasharray:2.96,1.28;stroke-dashoffset:0;stroke-opacity:0.3;stroke-width:0.8;"/>
     </g>
     <g id="line2d_6">
      <g>
       <use style="fill:#2b2b2b;stroke:#2b2b2b;stroke-width:0.8;" x="179.997786" xlink:href="#me2bad7af3c" y="158.727273"/>
      </g>
     </g>
    </g>
   </g>
   <g id="matplotlib.axis_2">
    <g id="ytick_1">
     <g id="line2d_7">
      <path clip-path="url(#p6444d94d81)" d="M 47.52 158.727273 
L 205.2 158.727273 
" style="fill:none;stroke:#b2b2b2;stroke-dasharray:2.96,1.28;stroke-dashoffset:0;stroke-opacity:0.3;stroke-width:0.8;"/>
     </g>
     <g id="line2d_8">
      <defs>
       <path d="M 0 0 
L -3.5 0 
" id="m7c6690c301" style="stroke:#2b2b2b;stroke-width:0.8;"/>
      </defs>
      <g>
       <use style="fill:#2b2b2b;stroke:#2b2b2b;stroke-width:0.8;" x="47.52" xlink:href="#m7c6690c301" y="158.727273"/>
      </g>
     </g>
     <g id="text_1">
      <!-- −240 -->
      <defs>
       <path d="M 10.59375 35.5 
L 73.1875 35.5 
L 73.1875 27.203125 
L 10.59375 27.203125 
z
" id="DejaVuSans-8722"/>
       <path d="M 19.1875 8.296875 
L 53.609375 8.296875 
L 53.609375 0 
L 7.328125 0 
L 7.328125 8.296875 
Q 12.9375 14.109375 22.625 23.890625 
Q 32.328125 33.6875 34.8125 36.53125 
Q 39.546875 41.84375 41.421875 45.53125 
Q 43.3125 49.21875 43.3125 52.78125 
Q 43.3125 58.59375 39.234375 62.25 
Q 35.15625 65.921875 28.609375 65.921875 
Q 23.96875 65.921875 18.8125 64.3125 
Q 13.671875 62.703125 7.8125 59.421875 
L 7.8125 69.390625 
Q 13.765625 71.78125 18.9375 73 
Q 24.125 74.21875 28.421875 74.21875 
Q 39.75 74.21875 46.484375 68.546875 
Q 53.21875 62.890625 53.21875 53.421875 
Q 53.21875 48.921875 51.53125 44.890625 
Q 49.859375 40.875 45.40625 35.40625 
Q 44.1875 33.984375 37.640625 27.21875 
Q 31.109375 20.453125 19.1875 8.296875 
z
" id="DejaVuSans-50"/>
       <path d="M 37.796875 64.3125 
L 12.890625 25.390625 
L 37.796875 25.390625 
z
M 35.203125 72.90625 
L 47.609375 72.90625 
L 47.609375 25.390625 
L 58.015625 25.390625 
L 58.015625 17.1875 
L 47.609375 17.1875 
L 47.609375 0 
L 37.796875 0 
L 37.796875 17.1875 
L 4.890625 17.1875 
L 4.890625 26.703125 
z
" id="DejaVuSans-52"/>
       <path d="M 31.78125 66.40625 
Q 24.171875 66.40625 20.328125 58.90625 
Q 16.5 51.421875 16.5 36.375 
Q 16.5 21.390625 20.328125 13.890625 
Q 24.171875 6.390625 31.78125 6.390625 
Q 39.453125 6.390625 43.28125 13.890625 
Q 47.125 21.390625 47.125 36.375 
Q 47.125 51.421875 43.28125 58.90625 
Q 39.453125 66.40625 31.78125 66.40625 
z
M 31.78125 74.21875 
Q 44.046875 74.21875 50.515625 64.515625 
Q 56.984375 54.828125 56.984375 36.375 
Q 56.984375 17.96875 50.515625 8.265625 
Q 44.046875 -1.421875 31.78125 -1.421875 
Q 19.53125 -1.421875 13.0625 8.265625 
Q 6.59375 17.96875 6.59375 36.375 
Q 6.59375 54.828125 13.0625 64.515625 
Q 19.53125 74.21875 31.78125 74.21875 
z
" id="DejaVuSans-48"/>
      </defs>
      <g style="fill:#2b2b2b;" transform="translate(2.065937 164.046179)scale(0.14 -0.14)">
       <use xlink:href="#DejaVuSans-8722"/>
       <use x="83.789062" xlink:href="#DejaVuSans-50"/>
       <use x="147.412109" xlink:href="#DejaVuSans-52"/>
       <use x="211.035156" xlink:href="#DejaVuSans-48"/>
      </g>
     </g>
    </g>
    <g id="ytick_2">
     <g id="line2d_9">
      <path clip-path="url(#p6444d94d81)" d="M 47.52 128.045455 
L 205.2 128.045455 
" style="fill:none;stroke:#b2b2b2;stroke-dasharray:2.96,1.28;stroke-dashoffset:0;stroke-opacity:0.3;stroke-width:0.8;"/>
     </g>
     <g id="line2d_10">
      <g>
       <use style="fill:#2b2b2b;stroke:#2b2b2b;stroke-width:0.8;" x="47.52" xlink:href="#m7c6690c301" y="128.045455"/>
      </g>
     </g>
     <g id="text_2">
      <!-- −220 -->
      <g style="fill:#2b2b2b;" transform="translate(2.065937 133.364361)scale(0.14 -0.14)">
       <use xlink:href="#DejaVuSans-8722"/>
       <use x="83.789062" xlink:href="#DejaVuSans-50"/>
       <use x="147.412109" xlink:href="#DejaVuSans-50"/>
       <use x="211.035156" xlink:href="#DejaVuSans-48"/>
      </g>
     </g>
    </g>
    <g id="ytick_3">
     <g id="line2d_11">
      <path clip-path="url(#p6444d94d81)" d="M 47.52 97.363636 
L 205.2 97.363636 
" style="fill:none;stroke:#b2b2b2;stroke-dasharray:2.96,1.28;stroke-dashoffset:0;stroke-opacity:0.3;stroke-width:0.8;"/>
     </g>
     <g id="line2d_12">
      <g>
       <use style="fill:#2b2b2b;stroke:#2b2b2b;stroke-width:0.8;" x="47.52" xlink:href="#m7c6690c301" y="97.363636"/>
      </g>
     </g>
     <g id="text_3">
      <!-- −200 -->
      <g style="fill:#2b2b2b;" transform="translate(2.065937 102.682543)scale(0.14 -0.14)">
       <use xlink:href="#DejaVuSans-8722"/>
       <use x="83.789062" xlink:href="#DejaVuSans-50"/>
       <use x="147.412109" xlink:href="#DejaVuSans-48"/>
       <use x="211.035156" xlink:href="#DejaVuSans-48"/>
      </g>
     </g>
    </g>
    <g id="ytick_4">
     <g id="line2d_13">
      <path clip-path="url(#p6444d94d81)" d="M 47.52 66.681818 
L 205.2 66.681818 
" style="fill:none;stroke:#b2b2b2;stroke-dasharray:2.96,1.28;stroke-dashoffset:0;stroke-opacity:0.3;stroke-width:0.8;"/>
     </g>
     <g id="line2d_14">
      <g>
       <use style="fill:#2b2b2b;stroke:#2b2b2b;stroke-width:0.8;" x="47.52" xlink:href="#m7c6690c301" y="66.681818"/>
      </g>
     </g>
     <g id="text_4">
      <!-- −180 -->
      <defs>
       <path d="M 12.40625 8.296875 
L 28.515625 8.296875 
L 28.515625 63.921875 
L 10.984375 60.40625 
L 10.984375 69.390625 
L 28.421875 72.90625 
L 38.28125 72.90625 
L 38.28125 8.296875 
L 54.390625 8.296875 
L 54.390625 0 
L 12.40625 0 
z
" id="DejaVuSans-49"/>
       <path d="M 31.78125 34.625 
Q 24.75 34.625 20.71875 30.859375 
Q 16.703125 27.09375 16.703125 20.515625 
Q 16.703125 13.921875 20.71875 10.15625 
Q 24.75 6.390625 31.78125 6.390625 
Q 38.8125 6.390625 42.859375 10.171875 
Q 46.921875 13.96875 46.921875 20.515625 
Q 46.921875 27.09375 42.890625 30.859375 
Q 38.875 34.625 31.78125 34.625 
z
M 21.921875 38.8125 
Q 15.578125 40.375 12.03125 44.71875 
Q 8.5 49.078125 8.5 55.328125 
Q 8.5 64.0625 14.71875 69.140625 
Q 20.953125 74.21875 31.78125 74.21875 
Q 42.671875 74.21875 48.875 69.140625 
Q 55.078125 64.0625 55.078125 55.328125 
Q 55.078125 49.078125 51.53125 44.71875 
Q 48 40.375 41.703125 38.8125 
Q 48.828125 37.15625 52.796875 32.3125 
Q 56.78125 27.484375 56.78125 20.515625 
Q 56.78125 9.90625 50.3125 4.234375 
Q 43.84375 -1.421875 31.78125 -1.421875 
Q 19.734375 -1.421875 13.25 4.234375 
Q 6.78125 9.90625 6.78125 20.515625 
Q 6.78125 27.484375 10.78125 32.3125 
Q 14.796875 37.15625 21.921875 38.8125 
z
M 18.3125 54.390625 
Q 18.3125 48.734375 21.84375 45.5625 
Q 25.390625 42.390625 31.78125 42.390625 
Q 38.140625 42.390625 41.71875 45.5625 
Q 45.3125 48.734375 45.3125 54.390625 
Q 45.3125 60.0625 41.71875 63.234375 
Q 38.140625 66.40625 31.78125 66.40625 
Q 25.390625 66.40625 21.84375 63.234375 
Q 18.3125 60.0625 18.3125 54.390625 
z
" id="DejaVuSans-56"/>
      </defs>
      <g style="fill:#2b2b2b;" transform="translate(2.065937 72.000724)scale(0.14 -0.14)">
       <use xlink:href="#DejaVuSans-8722"/>
       <use x="83.789062" xlink:href="#DejaVuSans-49"/>
       <use x="147.412109" xlink:href="#DejaVuSans-56"/>
       <use x="211.035156" xlink:href="#DejaVuSans-48"/>
      </g>
     </g>
    </g>
    <g id="ytick_5">
     <g id="line2d_15">
      <path clip-path="url(#p6444d94d81)" d="M 47.52 36 
L 205.2 36 
" style="fill:none;stroke:#b2b2b2;stroke-dasharray:2.96,1.28;stroke-dashoffset:0;stroke-opacity:0.3;stroke-width:0.8;"/>
     </g>
     <g id="line2d_16">
      <g>
       <use style="fill:#2b2b2b;stroke:#2b2b2b;stroke-width:0.8;" x="47.52" xlink:href="#m7c6690c301" y="36"/>
      </g>
     </g>
     <g id="text_5">
      <!-- −160 -->
      <defs>
       <path d="M 33.015625 40.375 
Q 26.375 40.375 22.484375 35.828125 
Q 18.609375 31.296875 18.609375 23.390625 
Q 18.609375 15.53125 22.484375 10.953125 
Q 26.375 6.390625 33.015625 6.390625 
Q 39.65625 6.390625 43.53125 10.953125 
Q 47.40625 15.53125 47.40625 23.390625 
Q 47.40625 31.296875 43.53125 35.828125 
Q 39.65625 40.375 33.015625 40.375 
z
M 52.59375 71.296875 
L 52.59375 62.3125 
Q 48.875 64.0625 45.09375 64.984375 
Q 41.3125 65.921875 37.59375 65.921875 
Q 27.828125 65.921875 22.671875 59.328125 
Q 17.53125 52.734375 16.796875 39.40625 
Q 19.671875 43.65625 24.015625 45.921875 
Q 28.375 48.1875 33.59375 48.1875 
Q 44.578125 48.1875 50.953125 41.515625 
Q 57.328125 34.859375 57.328125 23.390625 
Q 57.328125 12.15625 50.6875 5.359375 
Q 44.046875 -1.421875 33.015625 -1.421875 
Q 20.359375 -1.421875 13.671875 8.265625 
Q 6.984375 17.96875 6.984375 36.375 
Q 6.984375 53.65625 15.1875 63.9375 
Q 23.390625 74.21875 37.203125 74.21875 
Q 40.921875 74.21875 44.703125 73.484375 
Q 48.484375 72.75 52.59375 71.296875 
z
" id="DejaVuSans-54"/>
      </defs>
      <g style="fill:#2b2b2b;" transform="translate(2.065937 41.318906)scale(0.14 -0.14)">
       <use xlink:href="#DejaVuSans-8722"/>
       <use x="83.789062" xlink:href="#DejaVuSans-49"/>
       <use x="147.412109" xlink:href="#DejaVuSans-54"/>
       <use x="211.035156" xlink:href="#DejaVuSans-48"/>
      </g>
     </g>
    </g>
   </g>
   <g id="line2d_17">
    <path clip-path="url(#p6444d94d81)" d="M 54.687273 86.445126 
L 60.421091 92.380458 
L 65.438182 97.243229 
L 70.096909 101.459077 
L 74.755636 105.374006 
L 79.056 108.712085 
L 83.356364 111.778698 
L 87.656727 114.568212 
L 91.957091 117.075803 
L 95.899091 119.123235 
L 99.841091 120.92759 
L 103.783091 122.486554 
L 107.725091 123.798184 
L 111.667091 124.860882 
L 115.609091 125.673374 
L 119.192727 126.194072 
L 122.776364 126.50669 
L 126.36 126.61093 
L 129.943636 126.50669 
L 133.527273 126.194072 
L 137.110909 125.673374 
L 140.694545 124.9451 
L 144.636545 123.905101 
L 148.578545 122.61604 
L 152.520545 121.079486 
L 156.462545 119.29735 
L 160.404545 117.27191 
L 164.346545 115.005841 
L 168.646909 112.262999 
L 172.947273 109.242202 
L 177.247636 105.948937 
L 181.548 102.389622 
L 186.206727 98.242236 
L 190.865455 93.802973 
L 195.882545 88.712982 
L 198.032727 86.445126 
L 198.032727 86.445126 
" style="fill:none;stroke:#104e8b;stroke-linecap:square;stroke-width:1.2;"/>
   </g>
   <g id="line2d_18">
    <path clip-path="url(#p6444d94d81)" d="M 54.687273 83.171475 
L 56.479091 78.56278 
L 56.837455 78.441425 
L 62.212909 83.102561 
L 67.588364 87.463696 
L 72.605455 91.242399 
L 77.264182 94.485285 
L 81.922909 97.461719 
L 86.581636 100.163166 
L 90.882 102.406447 
L 95.182364 104.404361 
L 99.482727 106.152747 
L 103.783091 107.648091 
L 107.725091 108.794027 
L 111.667091 109.723034 
L 115.609091 110.433646 
L 119.551091 110.924757 
L 123.493091 111.195609 
L 127.435091 111.245785 
L 131.377091 111.075209 
L 135.319091 110.684143 
L 139.261091 110.073188 
L 143.203091 109.243291 
L 147.145091 108.195754 
L 151.087091 106.932246 
L 155.387455 105.309979 
L 159.687818 103.436351 
L 163.988182 101.315191 
L 168.288545 98.951004 
L 172.947273 96.121666 
L 177.606 93.021107 
L 182.264727 89.65854 
L 187.281818 85.756901 
L 192.298909 81.580809 
L 195.882545 78.441425 
L 196.240909 78.56278 
L 198.032727 83.171475 
L 198.032727 83.171475 
" style="fill:none;stroke:#ed2200;stroke-linecap:square;stroke-width:1.2;"/>
   </g>
   <g id="line2d_19">
    <path clip-path="url(#p6444d94d81)" d="M 54.687273 76.499843 
L 56.479091 78.120742 
L 56.837455 77.638992 
L 62.571273 63.05869 
L 62.929636 62.517434 
L 63.288 62.452591 
L 64.004727 62.838964 
L 67.946727 65.651912 
L 73.322182 69.32878 
L 78.339273 72.482468 
L 82.998 75.155112 
L 87.656727 77.572981 
L 92.315455 79.729725 
L 96.615818 81.484316 
L 100.916182 83.008629 
L 105.216545 84.299855 
L 109.516909 85.355689 
L 113.817273 86.174289 
L 118.117636 86.754252 
L 122.418 87.094595 
L 126.718364 87.194747 
L 131.018727 87.054541 
L 135.319091 86.67421 
L 139.619455 86.054395 
L 143.919818 85.196147 
L 148.220182 84.100941 
L 152.520545 82.770694 
L 156.820909 81.207792 
L 161.121273 79.415133 
L 165.421636 77.396189 
L 170.080364 74.958479 
L 174.739091 72.266545 
L 179.397818 69.32878 
L 184.414909 65.905793 
L 189.432 62.452591 
L 189.790364 62.517434 
L 190.148727 63.05869 
L 191.223818 65.645028 
L 196.240909 78.120742 
L 198.032727 76.499843 
L 198.032727 76.499843 
" style="fill:none;stroke:#9acd32;stroke-linecap:square;stroke-width:1.2;"/>
   </g>
   <g id="line2d_20">
    <path clip-path="url(#p6444d94d81)" d="M 54.687273 55.304443 
L 60.421091 59.919729 
L 62.212909 61.201769 
L 62.571273 61.353347 
L 62.929636 61.2391 
L 63.288 60.647085 
L 64.721455 57.123073 
L 70.455273 42.299976 
L 70.813636 42.377006 
L 76.905818 45.692323 
L 82.281273 48.376166 
L 87.298364 50.643828 
L 92.315455 52.664281 
L 96.974182 54.308343 
L 101.632909 55.72152 
L 106.291636 56.898361 
L 110.950364 57.834726 
L 115.250727 58.482949 
L 119.551091 58.921912 
L 123.851455 59.150479 
L 128.151818 59.16807 
L 132.452182 58.97464 
L 136.752545 58.570679 
L 141.052909 57.95723 
L 145.711636 57.058158 
L 150.370364 55.918073 
L 155.029091 54.540937 
L 159.687818 52.931978 
L 164.346545 51.098071 
L 169.363636 48.882133 
L 174.739091 46.248786 
L 180.472909 43.179396 
L 182.264727 42.299976 
L 189.432 60.647085 
L 189.790364 61.2391 
L 190.148727 61.353347 
L 190.865455 60.976269 
L 193.015636 59.363822 
L 198.032727 55.304443 
L 198.032727 55.304443 
" style="fill:none;stroke:#ffc125;stroke-linecap:square;stroke-width:1.2;"/>
   </g>
   <g id="patch_3">
    <path d="M 47.52 158.727273 
L 47.52 36 
" style="fill:none;stroke:#2b2b2b;stroke-linecap:square;stroke-linejoin:miter;stroke-width:0.8;"/>
   </g>
   <g id="patch_4">
    <path d="M 205.2 158.727273 
L 205.2 36 
" style="fill:none;stroke:#2b2b2b;stroke-linecap:square;stroke-linejoin:miter;stroke-width:0.8;"/>
   </g>
   <g id="patch_5">
    <path d="M 47.52 158.727273 
L 205.2 158.727273 
" style="fill:none;stroke:#2b2b2b;stroke-linecap:square;stroke-linejoin:miter;stroke-width:0.8;"/>
   </g>
   <g id="patch_6">
    <path d="M 47.52 36 
L 205.2 36 
" style="fill:none;stroke:#2b2b2b;stroke-linecap:square;stroke-linejoin:miter;stroke-width:0.8;"/>
   </g>
   <g id="text_6">
    <!-- $\varphi_-=0$ -->
    <defs>
     <path d="M 16.3125 -19 
Q 16.3125 -18.609375 16.5 -17.828125 
L 22.125 -0.203125 
Q 14.65625 1.65625 9.8125 6.6875 
Q 4.984375 11.71875 4.984375 19 
Q 4.984375 22.65625 6.34375 27.25 
Q 7.71875 31.84375 9.859375 35.96875 
Q 12.015625 40.09375 14.5 42.828125 
Q 15.09375 43.109375 15.1875 43.109375 
L 16.40625 43.109375 
Q 16.703125 43.109375 16.9375 42.8125 
Q 17.1875 42.53125 17.1875 42.1875 
Q 17.1875 41.796875 17 41.609375 
Q 15.328125 39.796875 13.734375 37.1875 
Q 12.15625 34.578125 10.90625 31.6875 
Q 9.671875 28.8125 8.84375 25.640625 
Q 8.015625 22.46875 8.015625 20.125 
Q 8.015625 14.203125 12.71875 10.5625 
Q 17.4375 6.9375 23.875 5.71875 
L 26.703125 14.703125 
Q 28.5625 20.515625 30.390625 25.078125 
Q 32.234375 29.640625 34.984375 34 
Q 37.75 38.375 41.65625 41.28125 
Q 45.5625 44.1875 50.390625 44.1875 
Q 54.203125 44.1875 56.765625 42.28125 
Q 59.328125 40.375 60.5625 37.203125 
Q 61.8125 34.03125 61.8125 30.421875 
Q 61.8125 24.46875 59.171875 18.78125 
Q 56.546875 13.09375 51.953125 8.5625 
Q 47.359375 4.046875 41.59375 1.453125 
Q 35.84375 -1.125 29.984375 -1.125 
Q 29.203125 -1.078125 28.296875 -1.03125 
Q 27.390625 -0.984375 26.8125 -0.984375 
L 23.484375 -18.40625 
Q 23.1875 -19.875 21.984375 -20.828125 
Q 20.796875 -21.78125 19.28125 -21.78125 
Q 18.0625 -21.78125 17.1875 -21.015625 
Q 16.3125 -20.265625 16.3125 -19 
z
M 27.875 5.171875 
Q 29 5.078125 31.109375 5.078125 
Q 37.3125 5.078125 43.71875 8.125 
Q 50.140625 11.1875 54.359375 16.5 
Q 58.59375 21.828125 58.59375 28.078125 
Q 58.59375 30.90625 57.4375 33.15625 
Q 56.296875 35.40625 54.21875 36.6875 
Q 52.15625 37.984375 49.421875 37.984375 
Q 41.65625 37.984375 36.421875 30.46875 
Q 31.203125 22.953125 29.59375 14.3125 
z
" id="Cmmi10-39"/>
     <path d="M 10.203125 23 
Q 9.375 23 8.828125 23.625 
Q 8.296875 24.265625 8.296875 25 
Q 8.296875 25.734375 8.828125 26.359375 
Q 9.375 27 10.203125 27 
L 67.578125 27 
Q 68.359375 27 68.875 26.359375 
Q 69.390625 25.734375 69.390625 25 
Q 69.390625 24.265625 68.875 23.625 
Q 68.359375 23 67.578125 23 
z
" id="Cmsy10-161"/>
     <path d="M 7.515625 13.28125 
Q 6.6875 13.28125 6.140625 13.90625 
Q 5.609375 14.546875 5.609375 15.28125 
Q 5.609375 16.109375 6.140625 16.6875 
Q 6.6875 17.28125 7.515625 17.28125 
L 70.3125 17.28125 
Q 71.046875 17.28125 71.578125 16.6875 
Q 72.125 16.109375 72.125 15.28125 
Q 72.125 14.546875 71.578125 13.90625 
Q 71.046875 13.28125 70.3125 13.28125 
z
M 7.515625 32.71875 
Q 6.6875 32.71875 6.140625 33.296875 
Q 5.609375 33.890625 5.609375 34.71875 
Q 5.609375 35.453125 6.140625 36.078125 
Q 6.6875 36.71875 7.515625 36.71875 
L 70.3125 36.71875 
Q 71.046875 36.71875 71.578125 36.078125 
Q 72.125 35.453125 72.125 34.71875 
Q 72.125 33.890625 71.578125 33.296875 
Q 71.046875 32.71875 70.3125 32.71875 
z
" id="Cmr10-61"/>
     <path d="M 25 -2.203125 
Q 12.75 -2.203125 8.328125 7.875 
Q 3.90625 17.96875 3.90625 31.890625 
Q 3.90625 40.578125 5.484375 48.234375 
Q 7.078125 55.90625 11.78125 61.25 
Q 16.5 66.609375 25 66.609375 
Q 31.59375 66.609375 35.78125 63.375 
Q 39.984375 60.15625 42.1875 55.046875 
Q 44.390625 49.953125 45.1875 44.109375 
Q 46 38.28125 46 31.890625 
Q 46 23.296875 44.40625 15.796875 
Q 42.828125 8.296875 38.1875 3.046875 
Q 33.546875 -2.203125 25 -2.203125 
z
M 25 0.390625 
Q 30.5625 0.390625 33.296875 6.09375 
Q 36.03125 11.8125 36.671875 18.75 
Q 37.3125 25.6875 37.3125 33.5 
Q 37.3125 41.015625 36.671875 47.359375 
Q 36.03125 53.71875 33.3125 58.859375 
Q 30.609375 64.015625 25 64.015625 
Q 19.34375 64.015625 16.609375 58.828125 
Q 13.875 53.65625 13.234375 47.328125 
Q 12.59375 41.015625 12.59375 33.5 
Q 12.59375 27.9375 12.859375 23 
Q 13.140625 18.0625 14.3125 12.8125 
Q 15.484375 7.5625 18.09375 3.96875 
Q 20.703125 0.390625 25 0.390625 
z
" id="Cmr10-48"/>
    </defs>
    <g transform="translate(104.38 30)scale(0.14 -0.14)">
     <use transform="translate(0 0.390625)" xlink:href="#Cmmi10-39"/>
     <use transform="translate(77.671875 -16.615625)scale(0.7)" xlink:href="#Cmsy10-161"/>
     <use transform="translate(168.278711 0.390625)" xlink:href="#Cmr10-61"/>
     <use transform="translate(263.522852 0.390625)" xlink:href="#Cmr10-48"/>
    </g>
   </g>
  </g>
  <g id="axes_2">
   <g id="patch_7">
    <path d="M 47.52 306 
L 205.2 306 
L 205.2 183.272727 
L 47.52 183.272727 
z
" style="fill:none;"/>
   </g>
   <g id="matplotlib.axis_3">
    <g id="xtick_4">
     <g id="line2d_21">
      <path clip-path="url(#p2a9ea588ff)" d="M 72.722214 306 
L 72.722214 183.272727 
" style="fill:none;stroke:#b2b2b2;stroke-dasharray:2.96,1.28;stroke-dashoffset:0;stroke-opacity:0.3;stroke-width:0.8;"/>
     </g>
     <g id="line2d_22">
      <g>
       <use style="fill:#2b2b2b;stroke:#2b2b2b;stroke-width:0.8;" x="72.722214" xlink:href="#me2bad7af3c" y="306"/>
      </g>
     </g>
     <g id="text_7">
      <!-- 0.4 -->
      <defs>
       <path d="M 10.6875 12.40625 
L 21 12.40625 
L 21 0 
L 10.6875 0 
z
" id="DejaVuSans-46"/>
      </defs>
      <g style="fill:#2b2b2b;" transform="translate(61.590027 323.637812)scale(0.14 -0.14)">
       <use xlink:href="#DejaVuSans-48"/>
       <use x="63.623047" xlink:href="#DejaVuSans-46"/>
       <use x="95.410156" xlink:href="#DejaVuSans-52"/>
      </g>
     </g>
    </g>
    <g id="xtick_5">
     <g id="line2d_23">
      <path clip-path="url(#p2a9ea588ff)" d="M 126.36 306 
L 126.36 183.272727 
" style="fill:none;stroke:#b2b2b2;stroke-dasharray:2.96,1.28;stroke-dashoffset:0;stroke-opacity:0.3;stroke-width:0.8;"/>
     </g>
     <g id="line2d_24">
      <g>
       <use style="fill:#2b2b2b;stroke:#2b2b2b;stroke-width:0.8;" x="126.36" xlink:href="#me2bad7af3c" y="306"/>
      </g>
     </g>
     <g id="text_8">
      <!-- 0.5 -->
      <defs>
       <path d="M 10.796875 72.90625 
L 49.515625 72.90625 
L 49.515625 64.59375 
L 19.828125 64.59375 
L 19.828125 46.734375 
Q 21.96875 47.46875 24.109375 47.828125 
Q 26.265625 48.1875 28.421875 48.1875 
Q 40.625 48.1875 47.75 41.5 
Q 54.890625 34.8125 54.890625 23.390625 
Q 54.890625 11.625 47.5625 5.09375 
Q 40.234375 -1.421875 26.90625 -1.421875 
Q 22.3125 -1.421875 17.546875 -0.640625 
Q 12.796875 0.140625 7.71875 1.703125 
L 7.71875 11.625 
Q 12.109375 9.234375 16.796875 8.0625 
Q 21.484375 6.890625 26.703125 6.890625 
Q 35.15625 6.890625 40.078125 11.328125 
Q 45.015625 15.765625 45.015625 23.390625 
Q 45.015625 31 40.078125 35.4375 
Q 35.15625 39.890625 26.703125 39.890625 
Q 22.75 39.890625 18.8125 39.015625 
Q 14.890625 38.140625 10.796875 36.28125 
z
" id="DejaVuSans-53"/>
      </defs>
      <g style="fill:#2b2b2b;" transform="translate(115.227813 323.637812)scale(0.14 -0.14)">
       <use xlink:href="#DejaVuSans-48"/>
       <use x="63.623047" xlink:href="#DejaVuSans-46"/>
       <use x="95.410156" xlink:href="#DejaVuSans-53"/>
      </g>
     </g>
    </g>
    <g id="xtick_6">
     <g id="line2d_25">
      <path clip-path="url(#p2a9ea588ff)" d="M 179.997786 306 
L 179.997786 183.272727 
" style="fill:none;stroke:#b2b2b2;stroke-dasharray:2.96,1.28;stroke-dashoffset:0;stroke-opacity:0.3;stroke-width:0.8;"/>
     </g>
     <g id="line2d_26">
      <g>
       <use style="fill:#2b2b2b;stroke:#2b2b2b;stroke-width:0.8;" x="179.997786" xlink:href="#me2bad7af3c" y="306"/>
      </g>
     </g>
     <g id="text_9">
      <!-- 0.6 -->
      <g style="fill:#2b2b2b;" transform="translate(168.865598 323.637812)scale(0.14 -0.14)">
       <use xlink:href="#DejaVuSans-48"/>
       <use x="63.623047" xlink:href="#DejaVuSans-46"/>
       <use x="95.410156" xlink:href="#DejaVuSans-54"/>
      </g>
     </g>
    </g>
    <g id="text_10">
     <!-- $\varphi_+/2\pi$ -->
     <defs>
      <path d="M 7.515625 23 
Q 6.6875 23 6.140625 23.625 
Q 5.609375 24.265625 5.609375 25 
Q 5.609375 25.734375 6.140625 26.359375 
Q 6.6875 27 7.515625 27 
L 36.921875 27 
L 36.921875 56.5 
Q 36.921875 57.28125 37.5 57.78125 
Q 38.09375 58.296875 38.921875 58.296875 
Q 39.65625 58.296875 40.28125 57.78125 
Q 40.921875 57.28125 40.921875 56.5 
L 40.921875 27 
L 70.3125 27 
Q 71.046875 27 71.578125 26.359375 
Q 72.125 25.734375 72.125 25 
Q 72.125 24.265625 71.578125 23.625 
Q 71.046875 23 70.3125 23 
L 40.921875 23 
L 40.921875 -6.5 
Q 40.921875 -7.28125 40.28125 -7.78125 
Q 39.65625 -8.296875 38.921875 -8.296875 
Q 38.09375 -8.296875 37.5 -7.78125 
Q 36.921875 -7.28125 36.921875 -6.5 
L 36.921875 23 
z
" id="Cmr10-43"/>
      <path d="M 5.609375 -23 
Q 5.609375 -22.703125 5.71875 -22.609375 
L 40.484375 73.78125 
Q 40.671875 74.359375 41.15625 74.671875 
Q 41.65625 75 42.28125 75 
Q 43.171875 75 43.71875 74.453125 
Q 44.28125 73.921875 44.28125 73 
L 44.28125 72.609375 
L 9.515625 -23.78125 
Q 8.9375 -25 7.625 -25 
Q 6.78125 -25 6.1875 -24.40625 
Q 5.609375 -23.828125 5.609375 -23 
z
" id="Cmmi10-61"/>
      <path d="M 4.984375 0 
L 4.984375 2.6875 
Q 4.984375 2.9375 5.171875 3.21875 
L 20.703125 20.40625 
Q 24.21875 24.21875 26.40625 26.796875 
Q 28.609375 29.390625 30.75 32.765625 
Q 32.90625 36.140625 34.15625 39.625 
Q 35.40625 43.109375 35.40625 47.015625 
Q 35.40625 51.125 33.890625 54.859375 
Q 32.375 58.59375 29.375 60.84375 
Q 26.375 63.09375 22.125 63.09375 
Q 17.78125 63.09375 14.3125 60.46875 
Q 10.84375 57.859375 9.421875 53.71875 
Q 9.8125 53.8125 10.5 53.8125 
Q 12.75 53.8125 14.328125 52.296875 
Q 15.921875 50.78125 15.921875 48.390625 
Q 15.921875 46.09375 14.328125 44.5 
Q 12.75 42.921875 10.5 42.921875 
Q 8.15625 42.921875 6.5625 44.546875 
Q 4.984375 46.1875 4.984375 48.390625 
Q 4.984375 52.15625 6.390625 55.4375 
Q 7.8125 58.734375 10.46875 61.296875 
Q 13.140625 63.875 16.484375 65.234375 
Q 19.828125 66.609375 23.578125 66.609375 
Q 29.296875 66.609375 34.21875 64.1875 
Q 39.15625 61.765625 42.03125 57.34375 
Q 44.921875 52.9375 44.921875 47.015625 
Q 44.921875 42.671875 43.015625 38.765625 
Q 41.109375 34.859375 38.125 31.65625 
Q 35.15625 28.46875 30.515625 24.40625 
Q 25.875 20.359375 24.421875 19 
L 13.09375 8.109375 
L 22.703125 8.109375 
Q 29.78125 8.109375 34.546875 8.21875 
Q 39.3125 8.34375 39.59375 8.59375 
Q 40.765625 9.859375 42 17.828125 
L 44.921875 17.828125 
L 42.09375 0 
z
" id="Cmr10-50"/>
      <path d="M 10.109375 1.703125 
Q 10.109375 2.25 10.5 3.328125 
Q 13.28125 9.125 15.6875 14.71875 
Q 18.109375 20.3125 20.03125 25.609375 
Q 21.96875 30.90625 23.578125 36.921875 
L 17.1875 36.921875 
Q 13.53125 36.921875 10.34375 34.625 
Q 7.171875 32.328125 5.078125 28.8125 
Q 4.890625 28.421875 4.5 28.421875 
L 3.328125 28.421875 
Q 2.390625 28.421875 2.390625 29.390625 
Q 2.390625 29.59375 2.59375 29.984375 
Q 5.859375 35.546875 9.59375 39.328125 
Q 13.328125 43.109375 18.015625 43.109375 
L 54.296875 43.109375 
Q 55.328125 43.109375 56.046875 42.421875 
Q 56.78125 41.75 56.78125 40.578125 
Q 56.78125 39.109375 55.734375 38.015625 
Q 54.6875 36.921875 53.21875 36.921875 
L 40.484375 36.921875 
Q 38.875 29.046875 38.71875 21.578125 
Q 38.71875 11.96875 42.09375 4.203125 
Q 42.390625 3.609375 42.390625 2.984375 
Q 42.390625 1.90625 41.75 0.96875 
Q 41.109375 0.046875 40.109375 -0.53125 
Q 39.109375 -1.125 37.984375 -1.125 
Q 35.359375 -1.125 34.375 3.171875 
Q 33.40625 7.46875 33.40625 11.53125 
Q 33.40625 17.234375 34.375 22.53125 
Q 35.359375 27.828125 37.5 36.921875 
L 26.609375 36.921875 
Q 18.703125 4.890625 17.09375 1.609375 
Q 15.671875 -1.125 13.1875 -1.125 
Q 11.96875 -1.125 11.03125 -0.3125 
Q 10.109375 0.484375 10.109375 1.703125 
z
" id="Cmmi10-188"/>
     </defs>
     <g transform="translate(104.8 341.049375)scale(0.14 -0.14)">
      <use xlink:href="#Cmmi10-39"/>
      <use transform="translate(77.671875 -17.00625)scale(0.7)" xlink:href="#Cmr10-43"/>
      <use transform="translate(150.720117 0)" xlink:href="#Cmmi10-61"/>
      <use transform="translate(200.720117 0)" xlink:href="#Cmr10-50"/>
      <use transform="translate(250.720117 0)" xlink:href="#Cmmi10-188"/>
     </g>
    </g>
   </g>
   <g id="matplotlib.axis_4">
    <g id="ytick_6">
     <g id="line2d_27">
      <path clip-path="url(#p2a9ea588ff)" d="M 47.52 300.421488 
L 205.2 300.421488 
" style="fill:none;stroke:#b2b2b2;stroke-dasharray:2.96,1.28;stroke-dashoffset:0;stroke-opacity:0.3;stroke-width:0.8;"/>
     </g>
     <g id="line2d_28">
      <g>
       <use style="fill:#2b2b2b;stroke:#2b2b2b;stroke-width:0.8;" x="47.52" xlink:href="#m7c6690c301" y="300.421488"/>
      </g>
     </g>
     <g id="text_11">
      <!-- 0 -->
      <g style="fill:#2b2b2b;" transform="translate(31.6125 305.740394)scale(0.14 -0.14)">
       <use xlink:href="#DejaVuSans-48"/>
      </g>
     </g>
    </g>
    <g id="ytick_7">
     <g id="line2d_29">
      <path clip-path="url(#p2a9ea588ff)" d="M 47.52 270.776908 
L 205.2 270.776908 
" style="fill:none;stroke:#b2b2b2;stroke-dasharray:2.96,1.28;stroke-dashoffset:0;stroke-opacity:0.3;stroke-width:0.8;"/>
     </g>
     <g id="line2d_30">
      <g>
       <use style="fill:#2b2b2b;stroke:#2b2b2b;stroke-width:0.8;" x="47.52" xlink:href="#m7c6690c301" y="270.776908"/>
      </g>
     </g>
     <g id="text_12">
      <!-- 10 -->
      <g style="fill:#2b2b2b;" transform="translate(22.705 276.095814)scale(0.14 -0.14)">
       <use xlink:href="#DejaVuSans-49"/>
       <use x="63.623047" xlink:href="#DejaVuSans-48"/>
      </g>
     </g>
    </g>
    <g id="ytick_8">
     <g id="line2d_31">
      <path clip-path="url(#p2a9ea588ff)" d="M 47.52 241.132328 
L 205.2 241.132328 
" style="fill:none;stroke:#b2b2b2;stroke-dasharray:2.96,1.28;stroke-dashoffset:0;stroke-opacity:0.3;stroke-width:0.8;"/>
     </g>
     <g id="line2d_32">
      <g>
       <use style="fill:#2b2b2b;stroke:#2b2b2b;stroke-width:0.8;" x="47.52" xlink:href="#m7c6690c301" y="241.132328"/>
      </g>
     </g>
     <g id="text_13">
      <!-- 20 -->
      <g style="fill:#2b2b2b;" transform="translate(22.705 246.451235)scale(0.14 -0.14)">
       <use xlink:href="#DejaVuSans-50"/>
       <use x="63.623047" xlink:href="#DejaVuSans-48"/>
      </g>
     </g>
    </g>
    <g id="ytick_9">
     <g id="line2d_33">
      <path clip-path="url(#p2a9ea588ff)" d="M 47.52 211.487749 
L 205.2 211.487749 
" style="fill:none;stroke:#b2b2b2;stroke-dasharray:2.96,1.28;stroke-dashoffset:0;stroke-opacity:0.3;stroke-width:0.8;"/>
     </g>
     <g id="line2d_34">
      <g>
       <use style="fill:#2b2b2b;stroke:#2b2b2b;stroke-width:0.8;" x="47.52" xlink:href="#m7c6690c301" y="211.487749"/>
      </g>
     </g>
     <g id="text_14">
      <!-- 30 -->
      <defs>
       <path d="M 40.578125 39.3125 
Q 47.65625 37.796875 51.625 33 
Q 55.609375 28.21875 55.609375 21.1875 
Q 55.609375 10.40625 48.1875 4.484375 
Q 40.765625 -1.421875 27.09375 -1.421875 
Q 22.515625 -1.421875 17.65625 -0.515625 
Q 12.796875 0.390625 7.625 2.203125 
L 7.625 11.71875 
Q 11.71875 9.328125 16.59375 8.109375 
Q 21.484375 6.890625 26.8125 6.890625 
Q 36.078125 6.890625 40.9375 10.546875 
Q 45.796875 14.203125 45.796875 21.1875 
Q 45.796875 27.640625 41.28125 31.265625 
Q 36.765625 34.90625 28.71875 34.90625 
L 20.21875 34.90625 
L 20.21875 43.015625 
L 29.109375 43.015625 
Q 36.375 43.015625 40.234375 45.921875 
Q 44.09375 48.828125 44.09375 54.296875 
Q 44.09375 59.90625 40.109375 62.90625 
Q 36.140625 65.921875 28.71875 65.921875 
Q 24.65625 65.921875 20.015625 65.03125 
Q 15.375 64.15625 9.8125 62.3125 
L 9.8125 71.09375 
Q 15.4375 72.65625 20.34375 73.4375 
Q 25.25 74.21875 29.59375 74.21875 
Q 40.828125 74.21875 47.359375 69.109375 
Q 53.90625 64.015625 53.90625 55.328125 
Q 53.90625 49.265625 50.4375 45.09375 
Q 46.96875 40.921875 40.578125 39.3125 
z
" id="DejaVuSans-51"/>
      </defs>
      <g style="fill:#2b2b2b;" transform="translate(22.705 216.806655)scale(0.14 -0.14)">
       <use xlink:href="#DejaVuSans-51"/>
       <use x="63.623047" xlink:href="#DejaVuSans-48"/>
      </g>
     </g>
    </g>
   </g>
   <g id="line2d_35">
    <path clip-path="url(#p2a9ea588ff)" d="M 54.687273 300.421488 
L 56.479091 300.421488 
L 56.837455 260.983839 
L 60.779455 259.674034 
L 66.154909 258.120547 
L 71.888727 256.689217 
L 77.980909 255.388191 
L 84.431455 254.228573 
L 91.240364 253.222279 
L 98.407636 252.382195 
L 105.933273 251.722806 
L 113.817273 251.261046 
L 121.701273 251.023017 
L 129.585273 251.003269 
L 137.469273 251.201355 
L 145.353273 251.621796 
L 152.878909 252.239515 
L 160.404545 253.082418 
L 167.571818 254.112509 
L 174.380727 255.318121 
L 180.831273 256.689217 
L 186.923455 258.217335 
L 192.298909 259.786001 
L 195.882545 260.983839 
L 196.240909 300.421488 
L 198.032727 300.421488 
L 198.032727 300.421488 
" style="fill:none;stroke:#104e8b;stroke-linecap:square;stroke-width:1.2;"/>
   </g>
   <g id="line2d_36">
    <path clip-path="url(#p2a9ea588ff)" d="M 54.687273 294.815026 
L 55.045636 295.41871 
L 55.762364 295.890071 
L 56.479091 295.994633 
L 57.195818 295.915482 
L 57.912545 295.688391 
L 58.629273 295.296102 
L 59.346 294.674698 
L 60.062727 293.679488 
L 60.421091 292.949415 
L 60.779455 291.966652 
L 61.137818 290.587836 
L 61.496182 288.53696 
L 61.854545 285.216482 
L 62.212909 279.11911 
L 62.571273 265.926845 
L 62.929636 240.374495 
L 63.288 224.651563 
L 63.646364 220.856318 
L 64.004727 219.715955 
L 64.363091 219.231637 
L 65.079818 218.796762 
L 66.513273 218.401786 
L 70.096909 217.78386 
L 77.264182 216.793097 
L 85.864909 215.82692 
L 94.824 215.039235 
L 104.141455 214.438662 
L 113.817273 214.040004 
L 123.493091 213.864396 
L 133.168909 213.909255 
L 142.844727 214.175232 
L 152.520545 214.666326 
L 161.838 215.359646 
L 170.797091 216.242791 
L 179.397818 217.313343 
L 185.49 218.260651 
L 187.281818 218.670348 
L 187.998545 218.968042 
L 188.356909 219.231637 
L 188.715273 219.715955 
L 189.073636 220.856318 
L 189.432 224.651563 
L 189.790364 240.374495 
L 190.148727 265.926845 
L 190.507091 279.11911 
L 190.865455 285.216482 
L 191.223818 288.53696 
L 191.582182 290.587836 
L 192.298909 292.949415 
L 193.015636 294.238166 
L 193.732364 295.020445 
L 194.449091 295.515616 
L 195.524182 295.915482 
L 196.240909 295.994633 
L 196.957636 295.890071 
L 197.316 295.725644 
L 197.674364 295.41871 
L 198.032727 294.815026 
L 198.032727 294.815026 
" style="fill:none;stroke:#ed2200;stroke-linecap:square;stroke-width:1.2;"/>
   </g>
   <g id="line2d_37">
    <path clip-path="url(#p2a9ea588ff)" d="M 54.687273 300.421488 
L 56.479091 300.421488 
L 56.837455 220.289439 
L 59.704364 219.804545 
L 60.779455 219.798607 
L 61.137818 219.885775 
L 61.496182 220.093942 
L 61.854545 220.587234 
L 62.212909 221.924713 
L 62.571273 226.689661 
L 62.929636 245.364749 
L 63.288 270.316257 
L 63.646364 282.332529 
L 64.004727 287.981022 
L 64.363091 291.116569 
L 64.721455 293.083935 
L 65.438182 295.397772 
L 66.154909 296.708669 
L 66.871636 297.553064 
L 67.946727 298.381588 
L 69.380182 299.087747 
L 70.455273 299.471226 
L 70.813636 300.421488 
L 181.906364 300.421488 
L 182.264727 299.471226 
L 184.056545 298.772503 
L 185.131636 298.145547 
L 185.848364 297.553064 
L 186.565091 296.708669 
L 187.281818 295.397772 
L 187.640182 294.426085 
L 187.998545 293.083935 
L 188.356909 291.116569 
L 188.715273 287.981022 
L 189.073636 282.332529 
L 189.432 270.316257 
L 190.148727 226.689661 
L 190.507091 221.924713 
L 190.865455 220.587234 
L 191.223818 220.093942 
L 191.940545 219.798607 
L 193.015636 219.804545 
L 195.165818 220.14389 
L 195.882545 220.289439 
L 196.240909 300.421488 
L 198.032727 300.421488 
L 198.032727 300.421488 
" style="fill:none;stroke:#ffa07a;stroke-linecap:square;stroke-width:1.2;"/>
   </g>
   <g id="line2d_38">
    <path clip-path="url(#p2a9ea588ff)" d="M 54.687273 220.781843 
L 56.479091 220.365963 
L 56.837455 300.421488 
L 70.455273 300.421488 
L 70.813636 195.346074 
L 73.680545 194.391014 
L 77.264182 193.435018 
L 81.922909 192.434807 
L 87.298364 191.511228 
L 93.748909 190.640413 
L 100.916182 189.909991 
L 108.441818 189.365802 
L 116.684182 188.999318 
L 124.926545 188.854473 
L 133.168909 188.924373 
L 141.411273 189.212299 
L 149.295273 189.704913 
L 156.820909 190.39739 
L 163.629818 191.246165 
L 169.722 192.232894 
L 174.739091 193.265943 
L 178.681091 194.285604 
L 181.906364 195.346074 
L 182.264727 300.421488 
L 195.882545 300.421488 
L 196.240909 220.365963 
L 198.032727 220.781843 
L 198.032727 220.781843 
" style="fill:none;stroke:#9acd32;stroke-linecap:square;stroke-width:1.2;"/>
   </g>
   <g id="line2d_39">
    <path clip-path="url(#p2a9ea588ff)" d="M 54.687273 261.932464 
L 55.762364 261.393076 
L 56.479091 261.115312 
L 56.837455 300.421488 
L 195.882545 300.421488 
L 196.240909 261.115312 
L 197.674364 261.716316 
L 198.032727 261.932464 
L 198.032727 261.932464 
" style="fill:none;stroke:#68838b;stroke-linecap:square;stroke-width:1.2;"/>
   </g>
   <g id="line2d_40">
    <path clip-path="url(#p2a9ea588ff)" d="M 54.687273 300.421488 
L 70.455273 300.421488 
L 70.813636 280.113548 
L 81.922909 281.728745 
L 90.165273 282.682384 
L 98.407636 283.412612 
L 107.008364 283.954521 
L 115.967455 284.299611 
L 125.284909 284.435763 
L 134.602364 284.350817 
L 143.919818 284.040904 
L 152.878909 283.518003 
L 161.479636 282.789997 
L 169.722 281.86614 
L 177.964364 280.719343 
L 181.906364 280.113548 
L 182.264727 300.421488 
L 198.032727 300.421488 
L 198.032727 300.421488 
" style="fill:none;stroke:#6959cd;stroke-linecap:square;stroke-width:1.2;"/>
   </g>
   <g id="patch_8">
    <path d="M 47.52 306 
L 47.52 183.272727 
" style="fill:none;stroke:#2b2b2b;stroke-linecap:square;stroke-linejoin:miter;stroke-width:0.8;"/>
   </g>
   <g id="patch_9">
    <path d="M 205.2 306 
L 205.2 183.272727 
" style="fill:none;stroke:#2b2b2b;stroke-linecap:square;stroke-linejoin:miter;stroke-width:0.8;"/>
   </g>
   <g id="patch_10">
    <path d="M 47.52 306 
L 205.2 306 
" style="fill:none;stroke:#2b2b2b;stroke-linecap:square;stroke-linejoin:miter;stroke-width:0.8;"/>
   </g>
   <g id="patch_11">
    <path d="M 47.52 183.272727 
L 205.2 183.272727 
" style="fill:none;stroke:#2b2b2b;stroke-linecap:square;stroke-linejoin:miter;stroke-width:0.8;"/>
   </g>
  </g>
 </g>
 <defs>
  <clipPath id="p6444d94d81">
   <rect height="122.727273" width="157.68" x="47.52" y="36"/>
  </clipPath>
  <clipPath id="p2a9ea588ff">
   <rect height="122.727273" width="157.68" x="47.52" y="183.272727"/>
  </clipPath>
 </defs>
</svg>
