<?xml version="1.0" encoding="utf-8" standalone="no"?>
<!DOCTYPE svg PUBLIC "-//W3C//DTD SVG 1.1//EN"
  "http://www.w3.org/Graphics/SVG/1.1/DTD/svg11.dtd">
<!-- Created with matplotlib (https://matplotlib.org/) -->
<svg height="360pt" version="1.1" viewBox="0 0 216 360" width="216pt" xmlns="http://www.w3.org/2000/svg" xmlns:xlink="http://www.w3.org/1999/xlink">
 <defs>
  <style type="text/css">
*{stroke-linecap:butt;stroke-linejoin:round;}
  </style>
 </defs>
 <g id="figure_1">
  <g id="patch_1">
   <path d="M 0 360 
L 216 360 
L 216 0 
L 0 0 
z
" style="fill:none;"/>
  </g>
  <g id="axes_1">
   <g id="patch_2">
    <path d="M 47.52 158.727273 
L 205.2 158.727273 
L 205.2 36 
L 47.52 36 
z
" style="fill:none;"/>
   </g>
   <g id="matplotlib.axis_1">
    <g id="xtick_1">
     <g id="line2d_1">
      <path clip-path="url(#pca59e66bc3)" d="M 65.713846 158.727273 
L 65.713846 36 
" style="fill:none;stroke:#b2b2b2;stroke-dasharray:2.96,1.28;stroke-dashoffset:0;stroke-opacity:0.3;stroke-width:0.8;"/>
     </g>
     <g id="line2d_2">
      <defs>
       <path d="M 0 0 
L 0 3.5 
" id="mae6046b826" style="stroke:#2b2b2b;stroke-width:0.8;"/>
      </defs>
      <g>
       <use style="fill:#2b2b2b;stroke:#2b2b2b;stroke-width:0.8;" x="65.713846" xlink:href="#mae6046b826" y="158.727273"/>
      </g>
     </g>
    </g>
    <g id="xtick_2">
     <g id="line2d_3">
      <path clip-path="url(#pca59e66bc3)" d="M 126.36 158.727273 
L 126.36 36 
" style="fill:none;stroke:#b2b2b2;stroke-dasharray:2.96,1.28;stroke-dashoffset:0;stroke-opacity:0.3;stroke-width:0.8;"/>
     </g>
     <g id="line2d_4">
      <g>
       <use style="fill:#2b2b2b;stroke:#2b2b2b;stroke-width:0.8;" x="126.36" xlink:href="#mae6046b826" y="158.727273"/>
      </g>
     </g>
    </g>
    <g id="xtick_3">
     <g id="line2d_5">
      <path clip-path="url(#pca59e66bc3)" d="M 187.006154 158.727273 
L 187.006154 36 
" style="fill:none;stroke:#b2b2b2;stroke-dasharray:2.96,1.28;stroke-dashoffset:0;stroke-opacity:0.3;stroke-width:0.8;"/>
     </g>
     <g id="line2d_6">
      <g>
       <use style="fill:#2b2b2b;stroke:#2b2b2b;stroke-width:0.8;" x="187.006154" xlink:href="#mae6046b826" y="158.727273"/>
      </g>
     </g>
    </g>
   </g>
   <g id="matplotlib.axis_2">
    <g id="ytick_1">
     <g id="line2d_7">
      <path clip-path="url(#pca59e66bc3)" d="M 47.52 158.727273 
L 205.2 158.727273 
" style="fill:none;stroke:#b2b2b2;stroke-dasharray:2.96,1.28;stroke-dashoffset:0;stroke-opacity:0.3;stroke-width:0.8;"/>
     </g>
     <g id="line2d_8">
      <defs>
       <path d="M 0 0 
L -3.5 0 
" id="m2515887b30" style="stroke:#2b2b2b;stroke-width:0.8;"/>
      </defs>
      <g>
       <use style="fill:#2b2b2b;stroke:#2b2b2b;stroke-width:0.8;" x="47.52" xlink:href="#m2515887b30" y="158.727273"/>
      </g>
     </g>
     <g id="text_1">
      <!-- −240 -->
      <defs>
       <path d="M 10.59375 35.5 
L 73.1875 35.5 
L 73.1875 27.203125 
L 10.59375 27.203125 
z
" id="DejaVuSans-8722"/>
       <path d="M 19.1875 8.296875 
L 53.609375 8.296875 
L 53.609375 0 
L 7.328125 0 
L 7.328125 8.296875 
Q 12.9375 14.109375 22.625 23.890625 
Q 32.328125 33.6875 34.8125 36.53125 
Q 39.546875 41.84375 41.421875 45.53125 
Q 43.3125 49.21875 43.3125 52.78125 
Q 43.3125 58.59375 39.234375 62.25 
Q 35.15625 65.921875 28.609375 65.921875 
Q 23.96875 65.921875 18.8125 64.3125 
Q 13.671875 62.703125 7.8125 59.421875 
L 7.8125 69.390625 
Q 13.765625 71.78125 18.9375 73 
Q 24.125 74.21875 28.421875 74.21875 
Q 39.75 74.21875 46.484375 68.546875 
Q 53.21875 62.890625 53.21875 53.421875 
Q 53.21875 48.921875 51.53125 44.890625 
Q 49.859375 40.875 45.40625 35.40625 
Q 44.1875 33.984375 37.640625 27.21875 
Q 31.109375 20.453125 19.1875 8.296875 
z
" id="DejaVuSans-50"/>
       <path d="M 37.796875 64.3125 
L 12.890625 25.390625 
L 37.796875 25.390625 
z
M 35.203125 72.90625 
L 47.609375 72.90625 
L 47.609375 25.390625 
L 58.015625 25.390625 
L 58.015625 17.1875 
L 47.609375 17.1875 
L 47.609375 0 
L 37.796875 0 
L 37.796875 17.1875 
L 4.890625 17.1875 
L 4.890625 26.703125 
z
" id="DejaVuSans-52"/>
       <path d="M 31.78125 66.40625 
Q 24.171875 66.40625 20.328125 58.90625 
Q 16.5 51.421875 16.5 36.375 
Q 16.5 21.390625 20.328125 13.890625 
Q 24.171875 6.390625 31.78125 6.390625 
Q 39.453125 6.390625 43.28125 13.890625 
Q 47.125 21.390625 47.125 36.375 
Q 47.125 51.421875 43.28125 58.90625 
Q 39.453125 66.40625 31.78125 66.40625 
z
M 31.78125 74.21875 
Q 44.046875 74.21875 50.515625 64.515625 
Q 56.984375 54.828125 56.984375 36.375 
Q 56.984375 17.96875 50.515625 8.265625 
Q 44.046875 -1.421875 31.78125 -1.421875 
Q 19.53125 -1.421875 13.0625 8.265625 
Q 6.59375 17.96875 6.59375 36.375 
Q 6.59375 54.828125 13.0625 64.515625 
Q 19.53125 74.21875 31.78125 74.21875 
z
" id="DejaVuSans-48"/>
      </defs>
      <g style="fill:#2b2b2b;" transform="translate(18.54625 161.766648)scale(0.08 -0.08)">
       <use xlink:href="#DejaVuSans-8722"/>
       <use x="83.789062" xlink:href="#DejaVuSans-50"/>
       <use x="147.412109" xlink:href="#DejaVuSans-52"/>
       <use x="211.035156" xlink:href="#DejaVuSans-48"/>
      </g>
     </g>
    </g>
    <g id="ytick_2">
     <g id="line2d_9">
      <path clip-path="url(#pca59e66bc3)" d="M 47.52 128.045455 
L 205.2 128.045455 
" style="fill:none;stroke:#b2b2b2;stroke-dasharray:2.96,1.28;stroke-dashoffset:0;stroke-opacity:0.3;stroke-width:0.8;"/>
     </g>
     <g id="line2d_10">
      <g>
       <use style="fill:#2b2b2b;stroke:#2b2b2b;stroke-width:0.8;" x="47.52" xlink:href="#m2515887b30" y="128.045455"/>
      </g>
     </g>
     <g id="text_2">
      <!-- −220 -->
      <g style="fill:#2b2b2b;" transform="translate(18.54625 131.08483)scale(0.08 -0.08)">
       <use xlink:href="#DejaVuSans-8722"/>
       <use x="83.789062" xlink:href="#DejaVuSans-50"/>
       <use x="147.412109" xlink:href="#DejaVuSans-50"/>
       <use x="211.035156" xlink:href="#DejaVuSans-48"/>
      </g>
     </g>
    </g>
    <g id="ytick_3">
     <g id="line2d_11">
      <path clip-path="url(#pca59e66bc3)" d="M 47.52 97.363636 
L 205.2 97.363636 
" style="fill:none;stroke:#b2b2b2;stroke-dasharray:2.96,1.28;stroke-dashoffset:0;stroke-opacity:0.3;stroke-width:0.8;"/>
     </g>
     <g id="line2d_12">
      <g>
       <use style="fill:#2b2b2b;stroke:#2b2b2b;stroke-width:0.8;" x="47.52" xlink:href="#m2515887b30" y="97.363636"/>
      </g>
     </g>
     <g id="text_3">
      <!-- −200 -->
      <g style="fill:#2b2b2b;" transform="translate(18.54625 100.403011)scale(0.08 -0.08)">
       <use xlink:href="#DejaVuSans-8722"/>
       <use x="83.789062" xlink:href="#DejaVuSans-50"/>
       <use x="147.412109" xlink:href="#DejaVuSans-48"/>
       <use x="211.035156" xlink:href="#DejaVuSans-48"/>
      </g>
     </g>
    </g>
    <g id="ytick_4">
     <g id="line2d_13">
      <path clip-path="url(#pca59e66bc3)" d="M 47.52 66.681818 
L 205.2 66.681818 
" style="fill:none;stroke:#b2b2b2;stroke-dasharray:2.96,1.28;stroke-dashoffset:0;stroke-opacity:0.3;stroke-width:0.8;"/>
     </g>
     <g id="line2d_14">
      <g>
       <use style="fill:#2b2b2b;stroke:#2b2b2b;stroke-width:0.8;" x="47.52" xlink:href="#m2515887b30" y="66.681818"/>
      </g>
     </g>
     <g id="text_4">
      <!-- −180 -->
      <defs>
       <path d="M 12.40625 8.296875 
L 28.515625 8.296875 
L 28.515625 63.921875 
L 10.984375 60.40625 
L 10.984375 69.390625 
L 28.421875 72.90625 
L 38.28125 72.90625 
L 38.28125 8.296875 
L 54.390625 8.296875 
L 54.390625 0 
L 12.40625 0 
z
" id="DejaVuSans-49"/>
       <path d="M 31.78125 34.625 
Q 24.75 34.625 20.71875 30.859375 
Q 16.703125 27.09375 16.703125 20.515625 
Q 16.703125 13.921875 20.71875 10.15625 
Q 24.75 6.390625 31.78125 6.390625 
Q 38.8125 6.390625 42.859375 10.171875 
Q 46.921875 13.96875 46.921875 20.515625 
Q 46.921875 27.09375 42.890625 30.859375 
Q 38.875 34.625 31.78125 34.625 
z
M 21.921875 38.8125 
Q 15.578125 40.375 12.03125 44.71875 
Q 8.5 49.078125 8.5 55.328125 
Q 8.5 64.0625 14.71875 69.140625 
Q 20.953125 74.21875 31.78125 74.21875 
Q 42.671875 74.21875 48.875 69.140625 
Q 55.078125 64.0625 55.078125 55.328125 
Q 55.078125 49.078125 51.53125 44.71875 
Q 48 40.375 41.703125 38.8125 
Q 48.828125 37.15625 52.796875 32.3125 
Q 56.78125 27.484375 56.78125 20.515625 
Q 56.78125 9.90625 50.3125 4.234375 
Q 43.84375 -1.421875 31.78125 -1.421875 
Q 19.734375 -1.421875 13.25 4.234375 
Q 6.78125 9.90625 6.78125 20.515625 
Q 6.78125 27.484375 10.78125 32.3125 
Q 14.796875 37.15625 21.921875 38.8125 
z
M 18.3125 54.390625 
Q 18.3125 48.734375 21.84375 45.5625 
Q 25.390625 42.390625 31.78125 42.390625 
Q 38.140625 42.390625 41.71875 45.5625 
Q 45.3125 48.734375 45.3125 54.390625 
Q 45.3125 60.0625 41.71875 63.234375 
Q 38.140625 66.40625 31.78125 66.40625 
Q 25.390625 66.40625 21.84375 63.234375 
Q 18.3125 60.0625 18.3125 54.390625 
z
" id="DejaVuSans-56"/>
      </defs>
      <g style="fill:#2b2b2b;" transform="translate(18.54625 69.721193)scale(0.08 -0.08)">
       <use xlink:href="#DejaVuSans-8722"/>
       <use x="83.789062" xlink:href="#DejaVuSans-49"/>
       <use x="147.412109" xlink:href="#DejaVuSans-56"/>
       <use x="211.035156" xlink:href="#DejaVuSans-48"/>
      </g>
     </g>
    </g>
    <g id="ytick_5">
     <g id="line2d_15">
      <path clip-path="url(#pca59e66bc3)" d="M 47.52 36 
L 205.2 36 
" style="fill:none;stroke:#b2b2b2;stroke-dasharray:2.96,1.28;stroke-dashoffset:0;stroke-opacity:0.3;stroke-width:0.8;"/>
     </g>
     <g id="line2d_16">
      <g>
       <use style="fill:#2b2b2b;stroke:#2b2b2b;stroke-width:0.8;" x="47.52" xlink:href="#m2515887b30" y="36"/>
      </g>
     </g>
     <g id="text_5">
      <!-- −160 -->
      <defs>
       <path d="M 33.015625 40.375 
Q 26.375 40.375 22.484375 35.828125 
Q 18.609375 31.296875 18.609375 23.390625 
Q 18.609375 15.53125 22.484375 10.953125 
Q 26.375 6.390625 33.015625 6.390625 
Q 39.65625 6.390625 43.53125 10.953125 
Q 47.40625 15.53125 47.40625 23.390625 
Q 47.40625 31.296875 43.53125 35.828125 
Q 39.65625 40.375 33.015625 40.375 
z
M 52.59375 71.296875 
L 52.59375 62.3125 
Q 48.875 64.0625 45.09375 64.984375 
Q 41.3125 65.921875 37.59375 65.921875 
Q 27.828125 65.921875 22.671875 59.328125 
Q 17.53125 52.734375 16.796875 39.40625 
Q 19.671875 43.65625 24.015625 45.921875 
Q 28.375 48.1875 33.59375 48.1875 
Q 44.578125 48.1875 50.953125 41.515625 
Q 57.328125 34.859375 57.328125 23.390625 
Q 57.328125 12.15625 50.6875 5.359375 
Q 44.046875 -1.421875 33.015625 -1.421875 
Q 20.359375 -1.421875 13.671875 8.265625 
Q 6.984375 17.96875 6.984375 36.375 
Q 6.984375 53.65625 15.1875 63.9375 
Q 23.390625 74.21875 37.203125 74.21875 
Q 40.921875 74.21875 44.703125 73.484375 
Q 48.484375 72.75 52.59375 71.296875 
z
" id="DejaVuSans-54"/>
      </defs>
      <g style="fill:#2b2b2b;" transform="translate(18.54625 39.039375)scale(0.08 -0.08)">
       <use xlink:href="#DejaVuSans-8722"/>
       <use x="83.789062" xlink:href="#DejaVuSans-49"/>
       <use x="147.412109" xlink:href="#DejaVuSans-54"/>
       <use x="211.035156" xlink:href="#DejaVuSans-48"/>
      </g>
     </g>
    </g>
    <g id="text_6">
     <!-- $E/h$(GHz) -->
     <defs>
      <path d="M 4.6875 0 
Q 3.71875 0 3.71875 1.3125 
Q 3.765625 1.5625 3.90625 2.171875 
Q 4.046875 2.78125 4.3125 3.140625 
Q 4.59375 3.515625 4.984375 3.515625 
Q 11.078125 3.515625 13.484375 4.203125 
Q 14.796875 4.640625 15.375 6.890625 
L 29.109375 61.8125 
Q 29.296875 62.796875 29.296875 63.1875 
Q 29.296875 64.265625 28.078125 64.40625 
Q 26.21875 64.796875 20.90625 64.796875 
Q 19.921875 64.796875 19.921875 66.109375 
Q 19.96875 66.359375 20.109375 66.96875 
Q 20.265625 67.578125 20.53125 67.9375 
Q 20.796875 68.3125 21.1875 68.3125 
L 75.390625 68.3125 
Q 76.421875 68.3125 76.421875 67 
L 74.03125 46.296875 
Q 74.03125 46.046875 73.65625 45.71875 
Q 73.296875 45.40625 73 45.40625 
L 72.125 45.40625 
Q 71.09375 45.40625 71.09375 46.6875 
Q 71.6875 51.5625 71.6875 53.90625 
Q 71.6875 57.90625 70.3125 60.125 
Q 68.953125 62.359375 66.671875 63.328125 
Q 64.40625 64.3125 61.640625 64.546875 
Q 58.890625 64.796875 54.390625 64.796875 
L 43.015625 64.796875 
Q 40.28125 64.796875 39.40625 64.328125 
Q 38.53125 63.875 37.796875 61.375 
L 31.78125 37.203125 
L 39.59375 37.203125 
Q 44.671875 37.203125 47.265625 37.90625 
Q 49.859375 38.625 51.359375 40.859375 
Q 52.875 43.109375 54.109375 48 
Q 54.203125 48.34375 54.46875 48.609375 
Q 54.734375 48.875 55.078125 48.875 
L 56 48.875 
Q 56.984375 48.875 56.984375 47.609375 
L 50.78125 22.90625 
Q 50.59375 22.015625 49.8125 22.015625 
L 48.875 22.015625 
Q 47.90625 22.015625 47.90625 23.296875 
Q 48.875 27.296875 48.875 29.203125 
Q 48.875 32.125 46.234375 32.90625 
Q 43.609375 33.6875 39.203125 33.6875 
L 30.90625 33.6875 
L 24.125 6.5 
Q 23.6875 5.28125 23.6875 4.296875 
Q 23.6875 3.515625 27.09375 3.515625 
L 39.203125 3.515625 
Q 46.4375 3.515625 50.921875 4.640625 
Q 55.421875 5.765625 58.375 8.21875 
Q 61.328125 10.6875 63.46875 14.5 
Q 65.625 18.3125 68.703125 25.59375 
Q 68.890625 26.21875 69.578125 26.21875 
L 70.515625 26.21875 
Q 70.90625 26.21875 71.1875 25.875 
Q 71.484375 25.53125 71.484375 25.09375 
Q 71.484375 24.90625 71.390625 24.703125 
L 61.078125 0.59375 
Q 60.890625 0 60.296875 0 
z
" id="Cmmi10-69"/>
      <path d="M 5.609375 -23 
Q 5.609375 -22.703125 5.71875 -22.609375 
L 40.484375 73.78125 
Q 40.671875 74.359375 41.15625 74.671875 
Q 41.65625 75 42.28125 75 
Q 43.171875 75 43.71875 74.453125 
Q 44.28125 73.921875 44.28125 73 
L 44.28125 72.609375 
L 9.515625 -23.78125 
Q 8.9375 -25 7.625 -25 
Q 6.78125 -25 6.1875 -24.40625 
Q 5.609375 -23.828125 5.609375 -23 
z
" id="Cmmi10-61"/>
      <path d="M 5.328125 1.8125 
Q 5.328125 2.390625 5.421875 2.6875 
L 19.921875 60.5 
Q 20.3125 62.203125 20.40625 63.1875 
Q 20.40625 64.796875 13.921875 64.796875 
Q 12.890625 64.796875 12.890625 66.109375 
Q 12.9375 66.359375 13.109375 66.984375 
Q 13.28125 67.625 13.546875 67.96875 
Q 13.8125 68.3125 14.3125 68.3125 
L 27.78125 69.390625 
L 28.078125 69.390625 
Q 28.078125 69.28125 28.421875 69.109375 
Q 28.765625 68.953125 28.8125 68.890625 
Q 29 68.40625 29 68.109375 
L 21.1875 36.921875 
Q 27.34375 44.1875 35.796875 44.1875 
Q 39.3125 44.1875 41.875 42.96875 
Q 44.4375 41.75 45.875 39.28125 
Q 47.3125 36.8125 47.3125 33.40625 
Q 47.3125 29.296875 45.484375 23.484375 
Q 43.65625 17.671875 40.921875 10.5 
Q 39.5 7.234375 39.5 4.5 
Q 39.5 1.515625 41.796875 1.515625 
Q 45.703125 1.515625 48.3125 5.6875 
Q 50.921875 9.859375 52 14.703125 
Q 52.203125 15.28125 52.78125 15.28125 
L 54 15.28125 
Q 54.390625 15.28125 54.640625 15.015625 
Q 54.890625 14.75 54.890625 14.40625 
Q 54.890625 14.3125 54.78125 14.109375 
Q 53.90625 10.5 52.171875 7 
Q 50.4375 3.515625 47.796875 1.1875 
Q 45.171875 -1.125 41.609375 -1.125 
Q 38.09375 -1.125 35.59375 1.296875 
Q 33.109375 3.71875 33.109375 7.171875 
Q 33.109375 9.03125 33.890625 11.078125 
Q 36.71875 18.609375 38.59375 24.515625 
Q 40.484375 30.421875 40.484375 34.90625 
Q 40.484375 37.796875 39.359375 39.703125 
Q 38.234375 41.609375 35.59375 41.609375 
Q 30.21875 41.609375 26.21875 38.3125 
Q 22.21875 35.015625 19.28125 29.59375 
L 12.5 2.296875 
Q 12.109375 0.78125 10.984375 -0.171875 
Q 9.859375 -1.125 8.40625 -1.125 
Q 7.125 -1.125 6.21875 -0.265625 
Q 5.328125 0.59375 5.328125 1.8125 
z
" id="Cmmi10-104"/>
      <path d="M 31 75.875 
Q 24.46875 64.65625 21.28125 53.65625 
Q 18.109375 42.671875 18.109375 31.390625 
Q 18.109375 20.125 21.3125 9.0625 
Q 24.515625 -2 31 -13.1875 
L 23.1875 -13.1875 
Q 15.875 -1.703125 12.234375 9.375 
Q 8.59375 20.453125 8.59375 31.390625 
Q 8.59375 42.28125 12.203125 53.3125 
Q 15.828125 64.359375 23.1875 75.875 
z
" id="DejaVuSans-40"/>
      <path d="M 59.515625 10.40625 
L 59.515625 29.984375 
L 43.40625 29.984375 
L 43.40625 38.09375 
L 69.28125 38.09375 
L 69.28125 6.78125 
Q 63.578125 2.734375 56.6875 0.65625 
Q 49.8125 -1.421875 42 -1.421875 
Q 24.90625 -1.421875 15.25 8.5625 
Q 5.609375 18.5625 5.609375 36.375 
Q 5.609375 54.25 15.25 64.234375 
Q 24.90625 74.21875 42 74.21875 
Q 49.125 74.21875 55.546875 72.453125 
Q 61.96875 70.703125 67.390625 67.28125 
L 67.390625 56.78125 
Q 61.921875 61.421875 55.765625 63.765625 
Q 49.609375 66.109375 42.828125 66.109375 
Q 29.4375 66.109375 22.71875 58.640625 
Q 16.015625 51.171875 16.015625 36.375 
Q 16.015625 21.625 22.71875 14.15625 
Q 29.4375 6.6875 42.828125 6.6875 
Q 48.046875 6.6875 52.140625 7.59375 
Q 56.25 8.5 59.515625 10.40625 
z
" id="DejaVuSans-71"/>
      <path d="M 9.8125 72.90625 
L 19.671875 72.90625 
L 19.671875 43.015625 
L 55.515625 43.015625 
L 55.515625 72.90625 
L 65.375 72.90625 
L 65.375 0 
L 55.515625 0 
L 55.515625 34.71875 
L 19.671875 34.71875 
L 19.671875 0 
L 9.8125 0 
z
" id="DejaVuSans-72"/>
      <path d="M 5.515625 54.6875 
L 48.1875 54.6875 
L 48.1875 46.484375 
L 14.40625 7.171875 
L 48.1875 7.171875 
L 48.1875 0 
L 4.296875 0 
L 4.296875 8.203125 
L 38.09375 47.515625 
L 5.515625 47.515625 
z
" id="DejaVuSans-122"/>
      <path d="M 8.015625 75.875 
L 15.828125 75.875 
Q 23.140625 64.359375 26.78125 53.3125 
Q 30.421875 42.28125 30.421875 31.390625 
Q 30.421875 20.453125 26.78125 9.375 
Q 23.140625 -1.703125 15.828125 -13.1875 
L 8.015625 -13.1875 
Q 14.5 -2 17.703125 9.0625 
Q 20.90625 20.125 20.90625 31.390625 
Q 20.90625 42.671875 17.703125 53.65625 
Q 14.5 64.65625 8.015625 75.875 
z
" id="DejaVuSans-41"/>
     </defs>
     <g transform="translate(11.54625 125.263636)rotate(-90)scale(0.12 -0.12)">
      <use transform="translate(0 0.125)" xlink:href="#Cmmi10-69"/>
      <use transform="translate(73.779297 0.125)" xlink:href="#Cmmi10-61"/>
      <use transform="translate(123.779297 0.125)" xlink:href="#Cmmi10-104"/>
      <use transform="translate(181.396484 0.125)" xlink:href="#DejaVuSans-40"/>
      <use transform="translate(220.410156 0.125)" xlink:href="#DejaVuSans-71"/>
      <use transform="translate(297.900391 0.125)" xlink:href="#DejaVuSans-72"/>
      <use transform="translate(373.095703 0.125)" xlink:href="#DejaVuSans-122"/>
      <use transform="translate(425.585938 0.125)" xlink:href="#DejaVuSans-41"/>
     </g>
    </g>
   </g>
   <g id="line2d_17">
    <path clip-path="url(#pca59e66bc3)" d="M 43.915595 87.007867 
L 45.564483 88.594276 
L 47.213371 90.15854 
L 48.862259 91.697149 
L 50.511148 93.209096 
L 52.160036 94.693795 
L 53.808924 96.150755 
L 55.457812 97.579555 
L 57.1067 98.979727 
L 58.755588 100.350942 
L 60.404476 101.69285 
L 62.053364 103.005077 
L 63.702252 104.287364 
L 65.35114 105.539361 
L 67.000029 106.760833 
L 68.648917 107.951476 
L 70.297805 109.111056 
L 71.946693 110.23934 
L 73.595581 111.336092 
L 75.244469 112.401079 
L 76.893357 113.434114 
L 78.542245 114.434986 
L 80.191133 115.40353 
L 81.840021 116.339561 
L 83.488909 117.242913 
L 85.137798 118.1134 
L 86.786686 118.950905 
L 88.435574 119.755263 
L 90.084462 120.526335 
L 91.73335 121.264026 
L 93.382238 121.96815 
L 95.031126 122.63866 
L 96.680014 123.275414 
L 98.328902 123.878297 
L 99.97779 124.447237 
L 101.626679 124.982118 
L 103.275567 125.482894 
L 104.924455 125.949469 
L 106.573343 126.381751 
L 108.222231 126.779694 
L 109.871119 127.143249 
L 111.520007 127.472324 
L 113.168895 127.766895 
L 114.817783 128.026939 
L 116.466671 128.252361 
L 118.11556 128.443163 
L 119.764448 128.59932 
L 121.413336 128.720809 
L 123.062224 128.807584 
L 124.711112 128.859668 
L 126.36 128.877013 
L 128.008888 128.859668 
L 129.657776 128.807584 
L 131.306664 128.720809 
L 132.955552 128.59932 
L 134.60444 128.443163 
L 136.253329 128.252361 
L 137.902217 128.026939 
L 139.551105 127.766895 
L 141.199993 127.472324 
L 142.848881 127.143249 
L 144.497769 126.779694 
L 146.146657 126.381751 
L 147.795545 125.949469 
L 149.444433 125.482894 
L 151.093321 124.982118 
L 152.74221 124.447237 
L 154.391098 123.878297 
L 156.039986 123.275414 
L 157.688874 122.63866 
L 159.337762 121.96815 
L 160.98665 121.264026 
L 162.635538 120.526335 
L 164.284426 119.755263 
L 165.933314 118.950905 
L 167.582202 118.1134 
L 169.231091 117.242913 
L 170.879979 116.339561 
L 172.528867 115.40353 
L 174.177755 114.434986 
L 175.826643 113.434114 
L 177.475531 112.401079 
L 179.124419 111.336092 
L 180.773307 110.23934 
L 182.422195 109.111056 
L 184.071083 107.951476 
L 185.719971 106.760833 
L 187.36886 105.539361 
L 189.017748 104.287364 
L 190.666636 103.005077 
L 192.315524 101.69285 
L 193.964412 100.350942 
L 195.6133 98.979727 
L 197.262188 97.579555 
L 198.911076 96.150755 
L 200.559964 94.693795 
L 202.208852 93.209096 
L 203.857741 91.697149 
L 205.506629 90.15854 
L 207.155517 88.594276 
L 208.804405 87.007867 
" style="fill:none;stroke:#104e8b;stroke-linecap:square;stroke-width:1.2;"/>
   </g>
   <g id="line2d_18">
    <path clip-path="url(#pca59e66bc3)" d="M 43.915595 83.288933 
L 45.564483 79.545302 
L 47.213371 78.737714 
L 48.862259 80.054083 
L 50.511148 81.349362 
L 52.160036 82.622894 
L 53.808924 83.874165 
L 55.457812 85.102637 
L 57.1067 86.307863 
L 58.755588 87.489377 
L 60.404476 88.646757 
L 62.053364 89.779652 
L 63.702252 90.887664 
L 65.35114 91.970465 
L 67.000029 93.027704 
L 68.648917 94.059077 
L 70.297805 95.064302 
L 71.946693 96.0431 
L 73.595581 96.995189 
L 75.244469 97.920311 
L 76.893357 98.818256 
L 78.542245 99.688766 
L 80.191133 100.531631 
L 81.840021 101.346664 
L 83.488909 102.13363 
L 85.137798 102.892366 
L 86.786686 103.622707 
L 88.435574 104.324443 
L 90.084462 104.997457 
L 91.73335 105.641562 
L 93.382238 106.256616 
L 95.031126 106.842528 
L 96.680014 107.399109 
L 98.328902 107.926289 
L 99.97779 108.423927 
L 101.626679 108.891907 
L 103.275567 109.330159 
L 104.924455 109.738588 
L 106.573343 110.117078 
L 108.222231 110.465605 
L 109.871119 110.784029 
L 111.520007 111.07235 
L 113.168895 111.330451 
L 114.817783 111.558331 
L 116.466671 111.755921 
L 118.11556 111.923174 
L 119.764448 112.060043 
L 121.413336 112.166551 
L 123.062224 112.242628 
L 124.711112 112.288298 
L 126.36 112.303513 
L 128.008888 112.288298 
L 129.657776 112.242628 
L 131.306664 112.166551 
L 132.955552 112.060043 
L 134.60444 111.923174 
L 136.253329 111.755921 
L 137.902217 111.558331 
L 139.551105 111.330451 
L 141.199993 111.07235 
L 142.848881 110.784029 
L 144.497769 110.465605 
L 146.146657 110.117078 
L 147.795545 109.738588 
L 149.444433 109.330159 
L 151.093321 108.891907 
L 152.74221 108.423927 
L 154.391098 107.926289 
L 156.039986 107.399109 
L 157.688874 106.842528 
L 159.337762 106.256616 
L 160.98665 105.641562 
L 162.635538 104.997457 
L 164.284426 104.324443 
L 165.933314 103.622707 
L 167.582202 102.892366 
L 169.231091 102.13363 
L 170.879979 101.346664 
L 172.528867 100.531631 
L 174.177755 99.688766 
L 175.826643 98.818256 
L 177.475531 97.920311 
L 179.124419 96.995189 
L 180.773307 96.0431 
L 182.422195 95.064302 
L 184.071083 94.059077 
L 185.719971 93.027704 
L 187.36886 91.970465 
L 189.017748 90.887664 
L 190.666636 89.779652 
L 192.315524 88.646757 
L 193.964412 87.489377 
L 195.6133 86.307863 
L 197.262188 85.102637 
L 198.911076 83.874165 
L 200.559964 82.622894 
L 202.208852 81.349362 
L 203.857741 80.054083 
L 205.506629 78.737714 
L 207.155517 79.545302 
L 208.804405 83.288933 
" style="fill:none;stroke:#ed2200;stroke-linecap:square;stroke-width:1.2;"/>
   </g>
   <g id="line2d_19">
    <path clip-path="url(#pca59e66bc3)" d="M 43.915595 76.04444 
L 45.564483 77.400932 
L 47.213371 75.792098 
L 48.862259 72.03468 
L 50.511148 68.279463 
L 52.160036 64.556853 
L 53.808924 61.988978 
L 55.457812 62.876132 
L 57.1067 63.944607 
L 58.755588 65.009829 
L 60.404476 66.058641 
L 62.053364 67.087532 
L 63.702252 68.095075 
L 65.35114 69.080404 
L 67.000029 70.042932 
L 68.648917 70.982193 
L 70.297805 71.897812 
L 71.946693 72.789483 
L 73.595581 73.65688 
L 75.244469 74.499792 
L 76.893357 75.317915 
L 78.542245 76.111084 
L 80.191133 76.879042 
L 81.840021 77.621603 
L 83.488909 78.338601 
L 85.137798 79.02985 
L 86.786686 79.695186 
L 88.435574 80.334445 
L 90.084462 80.947511 
L 91.73335 81.534241 
L 93.382238 82.094474 
L 95.031126 82.628138 
L 96.680014 83.13507 
L 98.328902 83.615199 
L 99.97779 84.068408 
L 101.626679 84.494604 
L 103.275567 84.893694 
L 104.924455 85.265606 
L 106.573343 85.610271 
L 108.222231 85.927618 
L 109.871119 86.217577 
L 111.520007 86.480102 
L 113.168895 86.715099 
L 114.817783 86.922591 
L 116.466671 87.102484 
L 118.11556 87.254755 
L 119.764448 87.379382 
L 121.413336 87.476339 
L 123.062224 87.545628 
L 124.711112 87.587178 
L 126.36 87.601035 
L 128.008888 87.587178 
L 129.657776 87.545628 
L 131.306664 87.476339 
L 132.955552 87.379382 
L 134.60444 87.254755 
L 136.253329 87.102484 
L 137.902217 86.922591 
L 139.551105 86.715099 
L 141.199993 86.480102 
L 142.848881 86.217577 
L 144.497769 85.927618 
L 146.146657 85.610271 
L 147.795545 85.265606 
L 149.444433 84.893694 
L 151.093321 84.494604 
L 152.74221 84.068408 
L 154.391098 83.615199 
L 156.039986 83.13507 
L 157.688874 82.628138 
L 159.337762 82.094474 
L 160.98665 81.534241 
L 162.635538 80.947511 
L 164.284426 80.334445 
L 165.933314 79.695186 
L 167.582202 79.02985 
L 169.231091 78.338601 
L 170.879979 77.621603 
L 172.528867 76.879042 
L 174.177755 76.111084 
L 175.826643 75.317915 
L 177.475531 74.499792 
L 179.124419 73.65688 
L 180.773307 72.789483 
L 182.422195 71.897812 
L 184.071083 70.982193 
L 185.719971 70.042932 
L 187.36886 69.080404 
L 189.017748 68.095075 
L 190.666636 67.087532 
L 192.315524 66.058641 
L 193.964412 65.009829 
L 195.6133 63.944607 
L 197.262188 62.876132 
L 198.911076 61.988978 
L 200.559964 64.556853 
L 202.208852 68.279463 
L 203.857741 72.03468 
L 205.506629 75.792098 
L 207.155517 77.400932 
L 208.804405 76.04444 
" style="fill:none;stroke:#9acd32;stroke-linecap:square;stroke-width:1.2;"/>
   </g>
   <g id="line2d_20">
    <path clip-path="url(#pca59e66bc3)" d="M 43.915595 54.582758 
L 45.564483 55.803762 
L 47.213371 57.008684 
L 48.862259 58.194365 
L 50.511148 59.354507 
L 52.160036 60.458703 
L 53.808924 60.385107 
L 55.457812 56.833823 
L 57.1067 53.079425 
L 58.755588 49.307564 
L 60.404476 45.533059 
L 62.053364 41.762204 
L 63.702252 42.132689 
L 65.35114 42.95039 
L 67.000029 43.754982 
L 68.648917 44.544851 
L 70.297805 45.318708 
L 71.946693 46.075571 
L 73.595581 46.81455 
L 75.244469 47.534989 
L 76.893357 48.236257 
L 78.542245 48.917839 
L 80.191133 49.579242 
L 81.840021 50.220093 
L 83.488909 50.83997 
L 85.137798 51.438569 
L 86.786686 52.015609 
L 88.435574 52.570761 
L 90.084462 53.10384 
L 91.73335 53.614564 
L 93.382238 54.102722 
L 95.031126 54.568151 
L 96.680014 55.010663 
L 98.328902 55.430094 
L 99.97779 55.826304 
L 101.626679 56.199129 
L 103.275567 56.548452 
L 104.924455 56.874156 
L 106.573343 57.176147 
L 108.222231 57.454333 
L 109.871119 57.708594 
L 111.520007 57.938886 
L 113.168895 58.145114 
L 114.817783 58.327231 
L 116.466671 58.485167 
L 118.11556 58.618899 
L 119.764448 58.728356 
L 121.413336 58.813516 
L 123.062224 58.874378 
L 124.711112 58.910895 
L 126.36 58.923067 
L 128.008888 58.910895 
L 129.657776 58.874378 
L 131.306664 58.813516 
L 132.955552 58.728356 
L 134.60444 58.618899 
L 136.253329 58.485167 
L 137.902217 58.327231 
L 139.551105 58.145114 
L 141.199993 57.938886 
L 142.848881 57.708594 
L 144.497769 57.454333 
L 146.146657 57.176147 
L 147.795545 56.874156 
L 149.444433 56.548452 
L 151.093321 56.199129 
L 152.74221 55.826304 
L 154.391098 55.430094 
L 156.039986 55.010663 
L 157.688874 54.568151 
L 159.337762 54.102722 
L 160.98665 53.614564 
L 162.635538 53.10384 
L 164.284426 52.570761 
L 165.933314 52.015609 
L 167.582202 51.438569 
L 169.231091 50.83997 
L 170.879979 50.220093 
L 172.528867 49.579242 
L 174.177755 48.917839 
L 175.826643 48.236257 
L 177.475531 47.534989 
L 179.124419 46.81455 
L 180.773307 46.075571 
L 182.422195 45.318708 
L 184.071083 44.544851 
L 185.719971 43.754982 
L 187.36886 42.95039 
L 189.017748 42.132689 
L 190.666636 41.762204 
L 192.315524 45.533059 
L 193.964412 49.307564 
L 195.6133 53.079425 
L 197.262188 56.833823 
L 198.911076 60.385107 
L 200.559964 60.458703 
L 202.208852 59.354507 
L 203.857741 58.194365 
L 205.506629 57.008684 
L 207.155517 55.803762 
L 208.804405 54.582758 
" style="fill:none;stroke:#ffc125;stroke-linecap:square;stroke-width:1.2;"/>
   </g>
   <g id="patch_3">
    <path d="M 47.52 158.727273 
L 47.52 36 
" style="fill:none;stroke:#2b2b2b;stroke-linecap:square;stroke-linejoin:miter;stroke-width:0.8;"/>
   </g>
   <g id="patch_4">
    <path d="M 205.2 158.727273 
L 205.2 36 
" style="fill:none;stroke:#2b2b2b;stroke-linecap:square;stroke-linejoin:miter;stroke-width:0.8;"/>
   </g>
   <g id="patch_5">
    <path d="M 47.52 158.727273 
L 205.2 158.727273 
" style="fill:none;stroke:#2b2b2b;stroke-linecap:square;stroke-linejoin:miter;stroke-width:0.8;"/>
   </g>
   <g id="patch_6">
    <path d="M 47.52 36 
L 205.2 36 
" style="fill:none;stroke:#2b2b2b;stroke-linecap:square;stroke-linejoin:miter;stroke-width:0.8;"/>
   </g>
   <g id="text_7">
    <!-- $\varphi_-=0$ -->
    <defs>
     <path d="M 16.3125 -19 
Q 16.3125 -18.609375 16.5 -17.828125 
L 22.125 -0.203125 
Q 14.65625 1.65625 9.8125 6.6875 
Q 4.984375 11.71875 4.984375 19 
Q 4.984375 22.65625 6.34375 27.25 
Q 7.71875 31.84375 9.859375 35.96875 
Q 12.015625 40.09375 14.5 42.828125 
Q 15.09375 43.109375 15.1875 43.109375 
L 16.40625 43.109375 
Q 16.703125 43.109375 16.9375 42.8125 
Q 17.1875 42.53125 17.1875 42.1875 
Q 17.1875 41.796875 17 41.609375 
Q 15.328125 39.796875 13.734375 37.1875 
Q 12.15625 34.578125 10.90625 31.6875 
Q 9.671875 28.8125 8.84375 25.640625 
Q 8.015625 22.46875 8.015625 20.125 
Q 8.015625 14.203125 12.71875 10.5625 
Q 17.4375 6.9375 23.875 5.71875 
L 26.703125 14.703125 
Q 28.5625 20.515625 30.390625 25.078125 
Q 32.234375 29.640625 34.984375 34 
Q 37.75 38.375 41.65625 41.28125 
Q 45.5625 44.1875 50.390625 44.1875 
Q 54.203125 44.1875 56.765625 42.28125 
Q 59.328125 40.375 60.5625 37.203125 
Q 61.8125 34.03125 61.8125 30.421875 
Q 61.8125 24.46875 59.171875 18.78125 
Q 56.546875 13.09375 51.953125 8.5625 
Q 47.359375 4.046875 41.59375 1.453125 
Q 35.84375 -1.125 29.984375 -1.125 
Q 29.203125 -1.078125 28.296875 -1.03125 
Q 27.390625 -0.984375 26.8125 -0.984375 
L 23.484375 -18.40625 
Q 23.1875 -19.875 21.984375 -20.828125 
Q 20.796875 -21.78125 19.28125 -21.78125 
Q 18.0625 -21.78125 17.1875 -21.015625 
Q 16.3125 -20.265625 16.3125 -19 
z
M 27.875 5.171875 
Q 29 5.078125 31.109375 5.078125 
Q 37.3125 5.078125 43.71875 8.125 
Q 50.140625 11.1875 54.359375 16.5 
Q 58.59375 21.828125 58.59375 28.078125 
Q 58.59375 30.90625 57.4375 33.15625 
Q 56.296875 35.40625 54.21875 36.6875 
Q 52.15625 37.984375 49.421875 37.984375 
Q 41.65625 37.984375 36.421875 30.46875 
Q 31.203125 22.953125 29.59375 14.3125 
z
" id="Cmmi10-39"/>
     <path d="M 10.203125 23 
Q 9.375 23 8.828125 23.625 
Q 8.296875 24.265625 8.296875 25 
Q 8.296875 25.734375 8.828125 26.359375 
Q 9.375 27 10.203125 27 
L 67.578125 27 
Q 68.359375 27 68.875 26.359375 
Q 69.390625 25.734375 69.390625 25 
Q 69.390625 24.265625 68.875 23.625 
Q 68.359375 23 67.578125 23 
z
" id="Cmsy10-161"/>
     <path d="M 7.515625 13.28125 
Q 6.6875 13.28125 6.140625 13.90625 
Q 5.609375 14.546875 5.609375 15.28125 
Q 5.609375 16.109375 6.140625 16.6875 
Q 6.6875 17.28125 7.515625 17.28125 
L 70.3125 17.28125 
Q 71.046875 17.28125 71.578125 16.6875 
Q 72.125 16.109375 72.125 15.28125 
Q 72.125 14.546875 71.578125 13.90625 
Q 71.046875 13.28125 70.3125 13.28125 
z
M 7.515625 32.71875 
Q 6.6875 32.71875 6.140625 33.296875 
Q 5.609375 33.890625 5.609375 34.71875 
Q 5.609375 35.453125 6.140625 36.078125 
Q 6.6875 36.71875 7.515625 36.71875 
L 70.3125 36.71875 
Q 71.046875 36.71875 71.578125 36.078125 
Q 72.125 35.453125 72.125 34.71875 
Q 72.125 33.890625 71.578125 33.296875 
Q 71.046875 32.71875 70.3125 32.71875 
z
" id="Cmr10-61"/>
     <path d="M 25 -2.203125 
Q 12.75 -2.203125 8.328125 7.875 
Q 3.90625 17.96875 3.90625 31.890625 
Q 3.90625 40.578125 5.484375 48.234375 
Q 7.078125 55.90625 11.78125 61.25 
Q 16.5 66.609375 25 66.609375 
Q 31.59375 66.609375 35.78125 63.375 
Q 39.984375 60.15625 42.1875 55.046875 
Q 44.390625 49.953125 45.1875 44.109375 
Q 46 38.28125 46 31.890625 
Q 46 23.296875 44.40625 15.796875 
Q 42.828125 8.296875 38.1875 3.046875 
Q 33.546875 -2.203125 25 -2.203125 
z
M 25 0.390625 
Q 30.5625 0.390625 33.296875 6.09375 
Q 36.03125 11.8125 36.671875 18.75 
Q 37.3125 25.6875 37.3125 33.5 
Q 37.3125 41.015625 36.671875 47.359375 
Q 36.03125 53.71875 33.3125 58.859375 
Q 30.609375 64.015625 25 64.015625 
Q 19.34375 64.015625 16.609375 58.828125 
Q 13.875 53.65625 13.234375 47.328125 
Q 12.59375 41.015625 12.59375 33.5 
Q 12.59375 27.9375 12.859375 23 
Q 13.140625 18.0625 14.3125 12.8125 
Q 15.484375 7.5625 18.09375 3.96875 
Q 20.703125 0.390625 25 0.390625 
z
" id="Cmr10-48"/>
    </defs>
    <g transform="translate(104.38 30)scale(0.14 -0.14)">
     <use transform="translate(0 0.390625)" xlink:href="#Cmmi10-39"/>
     <use transform="translate(77.671875 -16.615625)scale(0.7)" xlink:href="#Cmsy10-161"/>
     <use transform="translate(168.278711 0.390625)" xlink:href="#Cmr10-61"/>
     <use transform="translate(263.522852 0.390625)" xlink:href="#Cmr10-48"/>
    </g>
   </g>
  </g>
  <g id="axes_2">
   <g id="patch_7">
    <path d="M 47.52 306 
L 205.2 306 
L 205.2 183.272727 
L 47.52 183.272727 
z
" style="fill:none;"/>
   </g>
   <g id="matplotlib.axis_3">
    <g id="xtick_4">
     <g id="line2d_21">
      <path clip-path="url(#p4fcd46ff8e)" d="M 65.713846 306 
L 65.713846 183.272727 
" style="fill:none;stroke:#b2b2b2;stroke-dasharray:2.96,1.28;stroke-dashoffset:0;stroke-opacity:0.3;stroke-width:0.8;"/>
     </g>
     <g id="line2d_22">
      <g>
       <use style="fill:#2b2b2b;stroke:#2b2b2b;stroke-width:0.8;" x="65.713846" xlink:href="#mae6046b826" y="306"/>
      </g>
     </g>
     <g id="text_8">
      <!-- 0.4 -->
      <defs>
       <path d="M 10.6875 12.40625 
L 21 12.40625 
L 21 0 
L 10.6875 0 
z
" id="DejaVuSans-46"/>
      </defs>
      <g style="fill:#2b2b2b;" transform="translate(57.762284 320.598437)scale(0.1 -0.1)">
       <use xlink:href="#DejaVuSans-48"/>
       <use x="63.623047" xlink:href="#DejaVuSans-46"/>
       <use x="95.410156" xlink:href="#DejaVuSans-52"/>
      </g>
     </g>
    </g>
    <g id="xtick_5">
     <g id="line2d_23">
      <path clip-path="url(#p4fcd46ff8e)" d="M 126.36 306 
L 126.36 183.272727 
" style="fill:none;stroke:#b2b2b2;stroke-dasharray:2.96,1.28;stroke-dashoffset:0;stroke-opacity:0.3;stroke-width:0.8;"/>
     </g>
     <g id="line2d_24">
      <g>
       <use style="fill:#2b2b2b;stroke:#2b2b2b;stroke-width:0.8;" x="126.36" xlink:href="#mae6046b826" y="306"/>
      </g>
     </g>
     <g id="text_9">
      <!-- 0.5 -->
      <defs>
       <path d="M 10.796875 72.90625 
L 49.515625 72.90625 
L 49.515625 64.59375 
L 19.828125 64.59375 
L 19.828125 46.734375 
Q 21.96875 47.46875 24.109375 47.828125 
Q 26.265625 48.1875 28.421875 48.1875 
Q 40.625 48.1875 47.75 41.5 
Q 54.890625 34.8125 54.890625 23.390625 
Q 54.890625 11.625 47.5625 5.09375 
Q 40.234375 -1.421875 26.90625 -1.421875 
Q 22.3125 -1.421875 17.546875 -0.640625 
Q 12.796875 0.140625 7.71875 1.703125 
L 7.71875 11.625 
Q 12.109375 9.234375 16.796875 8.0625 
Q 21.484375 6.890625 26.703125 6.890625 
Q 35.15625 6.890625 40.078125 11.328125 
Q 45.015625 15.765625 45.015625 23.390625 
Q 45.015625 31 40.078125 35.4375 
Q 35.15625 39.890625 26.703125 39.890625 
Q 22.75 39.890625 18.8125 39.015625 
Q 14.890625 38.140625 10.796875 36.28125 
z
" id="DejaVuSans-53"/>
      </defs>
      <g style="fill:#2b2b2b;" transform="translate(118.408438 320.598437)scale(0.1 -0.1)">
       <use xlink:href="#DejaVuSans-48"/>
       <use x="63.623047" xlink:href="#DejaVuSans-46"/>
       <use x="95.410156" xlink:href="#DejaVuSans-53"/>
      </g>
     </g>
    </g>
    <g id="xtick_6">
     <g id="line2d_25">
      <path clip-path="url(#p4fcd46ff8e)" d="M 187.006154 306 
L 187.006154 183.272727 
" style="fill:none;stroke:#b2b2b2;stroke-dasharray:2.96,1.28;stroke-dashoffset:0;stroke-opacity:0.3;stroke-width:0.8;"/>
     </g>
     <g id="line2d_26">
      <g>
       <use style="fill:#2b2b2b;stroke:#2b2b2b;stroke-width:0.8;" x="187.006154" xlink:href="#mae6046b826" y="306"/>
      </g>
     </g>
     <g id="text_10">
      <!-- 0.6 -->
      <g style="fill:#2b2b2b;" transform="translate(179.054591 320.598437)scale(0.1 -0.1)">
       <use xlink:href="#DejaVuSans-48"/>
       <use x="63.623047" xlink:href="#DejaVuSans-46"/>
       <use x="95.410156" xlink:href="#DejaVuSans-54"/>
      </g>
     </g>
    </g>
    <g id="text_11">
     <!-- $\varphi_+/2\pi$ -->
     <defs>
      <path d="M 7.515625 23 
Q 6.6875 23 6.140625 23.625 
Q 5.609375 24.265625 5.609375 25 
Q 5.609375 25.734375 6.140625 26.359375 
Q 6.6875 27 7.515625 27 
L 36.921875 27 
L 36.921875 56.5 
Q 36.921875 57.28125 37.5 57.78125 
Q 38.09375 58.296875 38.921875 58.296875 
Q 39.65625 58.296875 40.28125 57.78125 
Q 40.921875 57.28125 40.921875 56.5 
L 40.921875 27 
L 70.3125 27 
Q 71.046875 27 71.578125 26.359375 
Q 72.125 25.734375 72.125 25 
Q 72.125 24.265625 71.578125 23.625 
Q 71.046875 23 70.3125 23 
L 40.921875 23 
L 40.921875 -6.5 
Q 40.921875 -7.28125 40.28125 -7.78125 
Q 39.65625 -8.296875 38.921875 -8.296875 
Q 38.09375 -8.296875 37.5 -7.78125 
Q 36.921875 -7.28125 36.921875 -6.5 
L 36.921875 23 
z
" id="Cmr10-43"/>
      <path d="M 4.984375 0 
L 4.984375 2.6875 
Q 4.984375 2.9375 5.171875 3.21875 
L 20.703125 20.40625 
Q 24.21875 24.21875 26.40625 26.796875 
Q 28.609375 29.390625 30.75 32.765625 
Q 32.90625 36.140625 34.15625 39.625 
Q 35.40625 43.109375 35.40625 47.015625 
Q 35.40625 51.125 33.890625 54.859375 
Q 32.375 58.59375 29.375 60.84375 
Q 26.375 63.09375 22.125 63.09375 
Q 17.78125 63.09375 14.3125 60.46875 
Q 10.84375 57.859375 9.421875 53.71875 
Q 9.8125 53.8125 10.5 53.8125 
Q 12.75 53.8125 14.328125 52.296875 
Q 15.921875 50.78125 15.921875 48.390625 
Q 15.921875 46.09375 14.328125 44.5 
Q 12.75 42.921875 10.5 42.921875 
Q 8.15625 42.921875 6.5625 44.546875 
Q 4.984375 46.1875 4.984375 48.390625 
Q 4.984375 52.15625 6.390625 55.4375 
Q 7.8125 58.734375 10.46875 61.296875 
Q 13.140625 63.875 16.484375 65.234375 
Q 19.828125 66.609375 23.578125 66.609375 
Q 29.296875 66.609375 34.21875 64.1875 
Q 39.15625 61.765625 42.03125 57.34375 
Q 44.921875 52.9375 44.921875 47.015625 
Q 44.921875 42.671875 43.015625 38.765625 
Q 41.109375 34.859375 38.125 31.65625 
Q 35.15625 28.46875 30.515625 24.40625 
Q 25.875 20.359375 24.421875 19 
L 13.09375 8.109375 
L 22.703125 8.109375 
Q 29.78125 8.109375 34.546875 8.21875 
Q 39.3125 8.34375 39.59375 8.59375 
Q 40.765625 9.859375 42 17.828125 
L 44.921875 17.828125 
L 42.09375 0 
z
" id="Cmr10-50"/>
      <path d="M 10.109375 1.703125 
Q 10.109375 2.25 10.5 3.328125 
Q 13.28125 9.125 15.6875 14.71875 
Q 18.109375 20.3125 20.03125 25.609375 
Q 21.96875 30.90625 23.578125 36.921875 
L 17.1875 36.921875 
Q 13.53125 36.921875 10.34375 34.625 
Q 7.171875 32.328125 5.078125 28.8125 
Q 4.890625 28.421875 4.5 28.421875 
L 3.328125 28.421875 
Q 2.390625 28.421875 2.390625 29.390625 
Q 2.390625 29.59375 2.59375 29.984375 
Q 5.859375 35.546875 9.59375 39.328125 
Q 13.328125 43.109375 18.015625 43.109375 
L 54.296875 43.109375 
Q 55.328125 43.109375 56.046875 42.421875 
Q 56.78125 41.75 56.78125 40.578125 
Q 56.78125 39.109375 55.734375 38.015625 
Q 54.6875 36.921875 53.21875 36.921875 
L 40.484375 36.921875 
Q 38.875 29.046875 38.71875 21.578125 
Q 38.71875 11.96875 42.09375 4.203125 
Q 42.390625 3.609375 42.390625 2.984375 
Q 42.390625 1.90625 41.75 0.96875 
Q 41.109375 0.046875 40.109375 -0.53125 
Q 39.109375 -1.125 37.984375 -1.125 
Q 35.359375 -1.125 34.375 3.171875 
Q 33.40625 7.46875 33.40625 11.53125 
Q 33.40625 17.234375 34.375 22.53125 
Q 35.359375 27.828125 37.5 36.921875 
L 26.609375 36.921875 
Q 18.703125 4.890625 17.09375 1.609375 
Q 15.671875 -1.125 13.1875 -1.125 
Q 11.96875 -1.125 11.03125 -0.3125 
Q 10.109375 0.484375 10.109375 1.703125 
z
" id="Cmmi10-188"/>
     </defs>
     <g transform="translate(104.8 337.178125)scale(0.14 -0.14)">
      <use xlink:href="#Cmmi10-39"/>
      <use transform="translate(77.671875 -17.00625)scale(0.7)" xlink:href="#Cmr10-43"/>
      <use transform="translate(150.720117 0)" xlink:href="#Cmmi10-61"/>
      <use transform="translate(200.720117 0)" xlink:href="#Cmr10-50"/>
      <use transform="translate(250.720117 0)" xlink:href="#Cmmi10-188"/>
     </g>
    </g>
   </g>
   <g id="matplotlib.axis_4">
    <g id="ytick_6">
     <g id="line2d_27">
      <path clip-path="url(#p4fcd46ff8e)" d="M 47.52 300.421488 
L 205.2 300.421488 
" style="fill:none;stroke:#b2b2b2;stroke-dasharray:2.96,1.28;stroke-dashoffset:0;stroke-opacity:0.3;stroke-width:0.8;"/>
     </g>
     <g id="line2d_28">
      <g>
       <use style="fill:#2b2b2b;stroke:#2b2b2b;stroke-width:0.8;" x="47.52" xlink:href="#m2515887b30" y="300.421488"/>
      </g>
     </g>
     <g id="text_12">
      <!-- 0.0 -->
      <g style="fill:#2b2b2b;" transform="translate(23.026563 304.600628)scale(0.11 -0.11)">
       <use xlink:href="#DejaVuSans-48"/>
       <use x="63.623047" xlink:href="#DejaVuSans-46"/>
       <use x="95.410156" xlink:href="#DejaVuSans-48"/>
      </g>
     </g>
    </g>
    <g id="ytick_7">
     <g id="line2d_29">
      <path clip-path="url(#p4fcd46ff8e)" d="M 47.52 269.817147 
L 205.2 269.817147 
" style="fill:none;stroke:#b2b2b2;stroke-dasharray:2.96,1.28;stroke-dashoffset:0;stroke-opacity:0.3;stroke-width:0.8;"/>
     </g>
     <g id="line2d_30">
      <g>
       <use style="fill:#2b2b2b;stroke:#2b2b2b;stroke-width:0.8;" x="47.52" xlink:href="#m2515887b30" y="269.817147"/>
      </g>
     </g>
     <g id="text_13">
      <!-- 2.5 -->
      <g style="fill:#2b2b2b;" transform="translate(23.026563 273.996287)scale(0.11 -0.11)">
       <use xlink:href="#DejaVuSans-50"/>
       <use x="63.623047" xlink:href="#DejaVuSans-46"/>
       <use x="95.410156" xlink:href="#DejaVuSans-53"/>
      </g>
     </g>
    </g>
    <g id="ytick_8">
     <g id="line2d_31">
      <path clip-path="url(#p4fcd46ff8e)" d="M 47.52 239.212806 
L 205.2 239.212806 
" style="fill:none;stroke:#b2b2b2;stroke-dasharray:2.96,1.28;stroke-dashoffset:0;stroke-opacity:0.3;stroke-width:0.8;"/>
     </g>
     <g id="line2d_32">
      <g>
       <use style="fill:#2b2b2b;stroke:#2b2b2b;stroke-width:0.8;" x="47.52" xlink:href="#m2515887b30" y="239.212806"/>
      </g>
     </g>
     <g id="text_14">
      <!-- 5.0 -->
      <g style="fill:#2b2b2b;" transform="translate(23.026563 243.391946)scale(0.11 -0.11)">
       <use xlink:href="#DejaVuSans-53"/>
       <use x="63.623047" xlink:href="#DejaVuSans-46"/>
       <use x="95.410156" xlink:href="#DejaVuSans-48"/>
      </g>
     </g>
    </g>
    <g id="ytick_9">
     <g id="line2d_33">
      <path clip-path="url(#p4fcd46ff8e)" d="M 47.52 208.608465 
L 205.2 208.608465 
" style="fill:none;stroke:#b2b2b2;stroke-dasharray:2.96,1.28;stroke-dashoffset:0;stroke-opacity:0.3;stroke-width:0.8;"/>
     </g>
     <g id="line2d_34">
      <g>
       <use style="fill:#2b2b2b;stroke:#2b2b2b;stroke-width:0.8;" x="47.52" xlink:href="#m2515887b30" y="208.608465"/>
      </g>
     </g>
     <g id="text_15">
      <!-- 7.5 -->
      <defs>
       <path d="M 8.203125 72.90625 
L 55.078125 72.90625 
L 55.078125 68.703125 
L 28.609375 0 
L 18.3125 0 
L 43.21875 64.59375 
L 8.203125 64.59375 
z
" id="DejaVuSans-55"/>
      </defs>
      <g style="fill:#2b2b2b;" transform="translate(23.026563 212.787606)scale(0.11 -0.11)">
       <use xlink:href="#DejaVuSans-55"/>
       <use x="63.623047" xlink:href="#DejaVuSans-46"/>
       <use x="95.410156" xlink:href="#DejaVuSans-53"/>
      </g>
     </g>
    </g>
    <g id="text_16">
     <!-- Matrix elements ($\mu$V/e) -->
     <defs>
      <path d="M 9.8125 72.90625 
L 24.515625 72.90625 
L 43.109375 23.296875 
L 61.8125 72.90625 
L 76.515625 72.90625 
L 76.515625 0 
L 66.890625 0 
L 66.890625 64.015625 
L 48.09375 14.015625 
L 38.1875 14.015625 
L 19.390625 64.015625 
L 19.390625 0 
L 9.8125 0 
z
" id="DejaVuSans-77"/>
      <path d="M 34.28125 27.484375 
Q 23.390625 27.484375 19.1875 25 
Q 14.984375 22.515625 14.984375 16.5 
Q 14.984375 11.71875 18.140625 8.90625 
Q 21.296875 6.109375 26.703125 6.109375 
Q 34.1875 6.109375 38.703125 11.40625 
Q 43.21875 16.703125 43.21875 25.484375 
L 43.21875 27.484375 
z
M 52.203125 31.203125 
L 52.203125 0 
L 43.21875 0 
L 43.21875 8.296875 
Q 40.140625 3.328125 35.546875 0.953125 
Q 30.953125 -1.421875 24.3125 -1.421875 
Q 15.921875 -1.421875 10.953125 3.296875 
Q 6 8.015625 6 15.921875 
Q 6 25.140625 12.171875 29.828125 
Q 18.359375 34.515625 30.609375 34.515625 
L 43.21875 34.515625 
L 43.21875 35.40625 
Q 43.21875 41.609375 39.140625 45 
Q 35.0625 48.390625 27.6875 48.390625 
Q 23 48.390625 18.546875 47.265625 
Q 14.109375 46.140625 10.015625 43.890625 
L 10.015625 52.203125 
Q 14.9375 54.109375 19.578125 55.046875 
Q 24.21875 56 28.609375 56 
Q 40.484375 56 46.34375 49.84375 
Q 52.203125 43.703125 52.203125 31.203125 
z
" id="DejaVuSans-97"/>
      <path d="M 18.3125 70.21875 
L 18.3125 54.6875 
L 36.8125 54.6875 
L 36.8125 47.703125 
L 18.3125 47.703125 
L 18.3125 18.015625 
Q 18.3125 11.328125 20.140625 9.421875 
Q 21.96875 7.515625 27.59375 7.515625 
L 36.8125 7.515625 
L 36.8125 0 
L 27.59375 0 
Q 17.1875 0 13.234375 3.875 
Q 9.28125 7.765625 9.28125 18.015625 
L 9.28125 47.703125 
L 2.6875 47.703125 
L 2.6875 54.6875 
L 9.28125 54.6875 
L 9.28125 70.21875 
z
" id="DejaVuSans-116"/>
      <path d="M 41.109375 46.296875 
Q 39.59375 47.171875 37.8125 47.578125 
Q 36.03125 48 33.890625 48 
Q 26.265625 48 22.1875 43.046875 
Q 18.109375 38.09375 18.109375 28.8125 
L 18.109375 0 
L 9.078125 0 
L 9.078125 54.6875 
L 18.109375 54.6875 
L 18.109375 46.1875 
Q 20.953125 51.171875 25.484375 53.578125 
Q 30.03125 56 36.53125 56 
Q 37.453125 56 38.578125 55.875 
Q 39.703125 55.765625 41.0625 55.515625 
z
" id="DejaVuSans-114"/>
      <path d="M 9.421875 54.6875 
L 18.40625 54.6875 
L 18.40625 0 
L 9.421875 0 
z
M 9.421875 75.984375 
L 18.40625 75.984375 
L 18.40625 64.59375 
L 9.421875 64.59375 
z
" id="DejaVuSans-105"/>
      <path d="M 54.890625 54.6875 
L 35.109375 28.078125 
L 55.90625 0 
L 45.3125 0 
L 29.390625 21.484375 
L 13.484375 0 
L 2.875 0 
L 24.125 28.609375 
L 4.6875 54.6875 
L 15.28125 54.6875 
L 29.78125 35.203125 
L 44.28125 54.6875 
z
" id="DejaVuSans-120"/>
      <path id="DejaVuSans-32"/>
      <path d="M 56.203125 29.59375 
L 56.203125 25.203125 
L 14.890625 25.203125 
Q 15.484375 15.921875 20.484375 11.0625 
Q 25.484375 6.203125 34.421875 6.203125 
Q 39.59375 6.203125 44.453125 7.46875 
Q 49.3125 8.734375 54.109375 11.28125 
L 54.109375 2.78125 
Q 49.265625 0.734375 44.1875 -0.34375 
Q 39.109375 -1.421875 33.890625 -1.421875 
Q 20.796875 -1.421875 13.15625 6.1875 
Q 5.515625 13.8125 5.515625 26.8125 
Q 5.515625 40.234375 12.765625 48.109375 
Q 20.015625 56 32.328125 56 
Q 43.359375 56 49.78125 48.890625 
Q 56.203125 41.796875 56.203125 29.59375 
z
M 47.21875 32.234375 
Q 47.125 39.59375 43.09375 43.984375 
Q 39.0625 48.390625 32.421875 48.390625 
Q 24.90625 48.390625 20.390625 44.140625 
Q 15.875 39.890625 15.1875 32.171875 
z
" id="DejaVuSans-101"/>
      <path d="M 9.421875 75.984375 
L 18.40625 75.984375 
L 18.40625 0 
L 9.421875 0 
z
" id="DejaVuSans-108"/>
      <path d="M 52 44.1875 
Q 55.375 50.25 60.0625 53.125 
Q 64.75 56 71.09375 56 
Q 79.640625 56 84.28125 50.015625 
Q 88.921875 44.046875 88.921875 33.015625 
L 88.921875 0 
L 79.890625 0 
L 79.890625 32.71875 
Q 79.890625 40.578125 77.09375 44.375 
Q 74.3125 48.1875 68.609375 48.1875 
Q 61.625 48.1875 57.5625 43.546875 
Q 53.515625 38.921875 53.515625 30.90625 
L 53.515625 0 
L 44.484375 0 
L 44.484375 32.71875 
Q 44.484375 40.625 41.703125 44.40625 
Q 38.921875 48.1875 33.109375 48.1875 
Q 26.21875 48.1875 22.15625 43.53125 
Q 18.109375 38.875 18.109375 30.90625 
L 18.109375 0 
L 9.078125 0 
L 9.078125 54.6875 
L 18.109375 54.6875 
L 18.109375 46.1875 
Q 21.1875 51.21875 25.484375 53.609375 
Q 29.78125 56 35.6875 56 
Q 41.65625 56 45.828125 52.96875 
Q 50 49.953125 52 44.1875 
z
" id="DejaVuSans-109"/>
      <path d="M 54.890625 33.015625 
L 54.890625 0 
L 45.90625 0 
L 45.90625 32.71875 
Q 45.90625 40.484375 42.875 44.328125 
Q 39.84375 48.1875 33.796875 48.1875 
Q 26.515625 48.1875 22.3125 43.546875 
Q 18.109375 38.921875 18.109375 30.90625 
L 18.109375 0 
L 9.078125 0 
L 9.078125 54.6875 
L 18.109375 54.6875 
L 18.109375 46.1875 
Q 21.34375 51.125 25.703125 53.5625 
Q 30.078125 56 35.796875 56 
Q 45.21875 56 50.046875 50.171875 
Q 54.890625 44.34375 54.890625 33.015625 
z
" id="DejaVuSans-110"/>
      <path d="M 44.28125 53.078125 
L 44.28125 44.578125 
Q 40.484375 46.53125 36.375 47.5 
Q 32.28125 48.484375 27.875 48.484375 
Q 21.1875 48.484375 17.84375 46.4375 
Q 14.5 44.390625 14.5 40.28125 
Q 14.5 37.15625 16.890625 35.375 
Q 19.28125 33.59375 26.515625 31.984375 
L 29.59375 31.296875 
Q 39.15625 29.25 43.1875 25.515625 
Q 47.21875 21.78125 47.21875 15.09375 
Q 47.21875 7.46875 41.1875 3.015625 
Q 35.15625 -1.421875 24.609375 -1.421875 
Q 20.21875 -1.421875 15.453125 -0.5625 
Q 10.6875 0.296875 5.421875 2 
L 5.421875 11.28125 
Q 10.40625 8.6875 15.234375 7.390625 
Q 20.0625 6.109375 24.8125 6.109375 
Q 31.15625 6.109375 34.5625 8.28125 
Q 37.984375 10.453125 37.984375 14.40625 
Q 37.984375 18.0625 35.515625 20.015625 
Q 33.0625 21.96875 24.703125 23.78125 
L 21.578125 24.515625 
Q 13.234375 26.265625 9.515625 29.90625 
Q 5.8125 33.546875 5.8125 39.890625 
Q 5.8125 47.609375 11.28125 51.796875 
Q 16.75 56 26.8125 56 
Q 31.78125 56 36.171875 55.265625 
Q 40.578125 54.546875 44.28125 53.078125 
z
" id="DejaVuSans-115"/>
      <path d="M 2.78125 -18.796875 
Q 2.78125 -18.21875 2.875 -18.015625 
L 17.578125 41.015625 
Q 18.015625 42.4375 19.15625 43.3125 
Q 20.3125 44.1875 21.78125 44.1875 
Q 23.046875 44.1875 23.921875 43.421875 
Q 24.8125 42.671875 24.8125 41.40625 
Q 24.8125 41.109375 24.78125 40.9375 
Q 24.75 40.765625 24.703125 40.578125 
L 18.796875 17.1875 
Q 17.828125 13.03125 17.828125 10.015625 
Q 17.828125 6.296875 19.578125 3.90625 
Q 21.34375 1.515625 24.90625 1.515625 
Q 32.171875 1.515625 37.703125 10.59375 
Q 37.75 10.6875 37.765625 10.734375 
Q 37.796875 10.796875 37.796875 10.890625 
L 45.015625 39.890625 
Q 45.359375 41.21875 46.578125 42.15625 
Q 47.796875 43.109375 49.21875 43.109375 
Q 50.390625 43.109375 51.296875 42.328125 
Q 52.203125 41.546875 52.203125 40.28125 
Q 52.203125 39.703125 52.09375 39.5 
L 44.921875 10.6875 
Q 44.1875 7.859375 44.1875 5.8125 
Q 44.1875 1.515625 47.125 1.515625 
Q 50.25 1.515625 51.828125 5.375 
Q 53.421875 9.234375 54.59375 14.703125 
Q 54.78125 15.28125 55.421875 15.28125 
L 56.59375 15.28125 
Q 56.984375 15.28125 57.25 14.96875 
Q 57.515625 14.65625 57.515625 14.3125 
Q 55.765625 7.328125 53.6875 3.09375 
Q 51.609375 -1.125 46.921875 -1.125 
Q 43.609375 -1.125 41.046875 0.78125 
Q 38.484375 2.6875 37.703125 5.90625 
Q 35.203125 2.78125 31.859375 0.828125 
Q 28.515625 -1.125 24.8125 -1.125 
Q 18.5625 -1.125 14.984375 1.8125 
L 9.90625 -18.40625 
Q 9.625 -19.828125 8.453125 -20.703125 
Q 7.28125 -21.578125 5.8125 -21.578125 
Q 4.59375 -21.578125 3.6875 -20.8125 
Q 2.78125 -20.0625 2.78125 -18.796875 
z
" id="Cmmi10-185"/>
      <path d="M 28.609375 0 
L 0.78125 72.90625 
L 11.078125 72.90625 
L 34.1875 11.53125 
L 57.328125 72.90625 
L 67.578125 72.90625 
L 39.796875 0 
z
" id="DejaVuSans-86"/>
      <path d="M 25.390625 72.90625 
L 33.6875 72.90625 
L 8.296875 -9.28125 
L 0 -9.28125 
z
" id="DejaVuSans-47"/>
     </defs>
     <g transform="translate(16.606563 307.611364)rotate(-90)scale(0.11 -0.11)">
      <use transform="translate(0 0.015625)" xlink:href="#DejaVuSans-77"/>
      <use transform="translate(86.279297 0.015625)" xlink:href="#DejaVuSans-97"/>
      <use transform="translate(147.558594 0.015625)" xlink:href="#DejaVuSans-116"/>
      <use transform="translate(186.767578 0.015625)" xlink:href="#DejaVuSans-114"/>
      <use transform="translate(227.880859 0.015625)" xlink:href="#DejaVuSans-105"/>
      <use transform="translate(255.664062 0.015625)" xlink:href="#DejaVuSans-120"/>
      <use transform="translate(314.84375 0.015625)" xlink:href="#DejaVuSans-32"/>
      <use transform="translate(346.630859 0.015625)" xlink:href="#DejaVuSans-101"/>
      <use transform="translate(408.154297 0.015625)" xlink:href="#DejaVuSans-108"/>
      <use transform="translate(435.9375 0.015625)" xlink:href="#DejaVuSans-101"/>
      <use transform="translate(497.460938 0.015625)" xlink:href="#DejaVuSans-109"/>
      <use transform="translate(594.873047 0.015625)" xlink:href="#DejaVuSans-101"/>
      <use transform="translate(656.396484 0.015625)" xlink:href="#DejaVuSans-110"/>
      <use transform="translate(719.775391 0.015625)" xlink:href="#DejaVuSans-116"/>
      <use transform="translate(758.984375 0.015625)" xlink:href="#DejaVuSans-115"/>
      <use transform="translate(811.083984 0.015625)" xlink:href="#DejaVuSans-32"/>
      <use transform="translate(842.871094 0.015625)" xlink:href="#DejaVuSans-40"/>
      <use transform="translate(881.884766 0.015625)" xlink:href="#Cmmi10-185"/>
      <use transform="translate(942.089844 0.015625)" xlink:href="#DejaVuSans-86"/>
      <use transform="translate(1010.498047 0.015625)" xlink:href="#DejaVuSans-47"/>
      <use transform="translate(1044.189453 0.015625)" xlink:href="#DejaVuSans-101"/>
      <use transform="translate(1105.712891 0.015625)" xlink:href="#DejaVuSans-41"/>
     </g>
    </g>
    <g id="text_17">
     <!-- 1e6 -->
     <g style="fill:#2b2b2b;" transform="translate(47.52 180.272727)scale(0.11 -0.11)">
      <use xlink:href="#DejaVuSans-49"/>
      <use x="63.623047" xlink:href="#DejaVuSans-101"/>
      <use x="125.146484" xlink:href="#DejaVuSans-54"/>
     </g>
    </g>
   </g>
   <g id="line2d_35">
    <path clip-path="url(#p4fcd46ff8e)" d="M 43.915595 300.421488 
L 45.564483 300.421488 
L 47.213371 285.552936 
L 48.862259 284.782531 
L 50.511148 283.990944 
L 52.160036 283.177205 
L 53.808924 282.341384 
L 55.457812 281.483963 
L 57.1067 280.605657 
L 58.755588 279.707346 
L 60.404476 278.790053 
L 62.053364 277.854926 
L 63.702252 276.903238 
L 65.35114 275.936381 
L 67.000029 274.955861 
L 68.648917 273.963301 
L 70.297805 272.960433 
L 71.946693 271.949097 
L 73.595581 270.931235 
L 75.244469 269.908887 
L 76.893357 268.884187 
L 78.542245 267.859356 
L 80.191133 266.83669 
L 81.840021 265.818561 
L 83.488909 264.807401 
L 85.137798 263.805697 
L 86.786686 262.81598 
L 88.435574 261.840815 
L 90.084462 260.882788 
L 91.73335 259.944499 
L 93.382238 259.028548 
L 95.031126 258.13752 
L 96.680014 257.273981 
L 98.328902 256.440456 
L 99.97779 255.639424 
L 101.626679 254.873302 
L 103.275567 254.144433 
L 104.924455 253.455077 
L 106.573343 252.807393 
L 108.222231 252.203436 
L 109.871119 251.645136 
L 111.520007 251.134299 
L 113.168895 250.672585 
L 114.817783 250.261509 
L 116.466671 249.902428 
L 118.11556 249.596533 
L 119.764448 249.344844 
L 121.413336 249.148203 
L 123.062224 249.00727 
L 124.711112 248.92252 
L 126.36 248.894238 
L 128.008888 248.92252 
L 129.657776 249.00727 
L 131.306664 249.148203 
L 132.955552 249.344844 
L 134.60444 249.596533 
L 136.253329 249.902428 
L 137.902217 250.261509 
L 139.551105 250.672585 
L 141.199993 251.134299 
L 142.848881 251.645136 
L 144.497769 252.203436 
L 146.146657 252.807393 
L 147.795545 253.455077 
L 149.444433 254.144433 
L 151.093321 254.873302 
L 152.74221 255.639424 
L 154.391098 256.440456 
L 156.039986 257.273981 
L 157.688874 258.13752 
L 159.337762 259.028548 
L 160.98665 259.944499 
L 162.635538 260.882788 
L 164.284426 261.840815 
L 165.933314 262.81598 
L 167.582202 263.805697 
L 169.231091 264.807401 
L 170.879979 265.818561 
L 172.528867 266.83669 
L 174.177755 267.859356 
L 175.826643 268.884187 
L 177.475531 269.908887 
L 179.124419 270.931235 
L 180.773307 271.949097 
L 182.422195 272.960433 
L 184.071083 273.963301 
L 185.719971 274.955861 
L 187.36886 275.936381 
L 189.017748 276.903238 
L 190.666636 277.854926 
L 192.315524 278.790053 
L 193.964412 279.707346 
L 195.6133 280.605657 
L 197.262188 281.483963 
L 198.911076 282.341384 
L 200.559964 283.177205 
L 202.208852 283.990944 
L 203.857741 284.782531 
L 205.506629 285.552936 
L 207.155517 300.421488 
L 208.804405 300.421488 
" style="fill:none;stroke:#104e8b;stroke-linecap:square;stroke-width:1.2;"/>
   </g>
   <g id="line2d_36">
    <path clip-path="url(#p4fcd46ff8e)" d="M 43.915595 287.086717 
L 45.564483 286.30716 
L 47.213371 300.421488 
L 48.862259 300.421488 
L 50.511148 300.421488 
L 52.160036 300.421488 
L 53.808924 300.421488 
L 55.457812 300.421488 
L 57.1067 300.421488 
L 58.755588 300.421488 
L 60.404476 300.421488 
L 62.053364 300.421488 
L 63.702252 300.421488 
L 65.35114 300.421488 
L 67.000029 300.421488 
L 68.648917 300.421488 
L 70.297805 300.421488 
L 71.946693 300.421488 
L 73.595581 300.421488 
L 75.244469 300.421488 
L 76.893357 300.421488 
L 78.542245 300.421488 
L 80.191133 300.421488 
L 81.840021 300.421488 
L 83.488909 300.421488 
L 85.137798 300.421488 
L 86.786686 300.421488 
L 88.435574 300.421488 
L 90.084462 300.421488 
L 91.73335 300.421488 
L 93.382238 300.421488 
L 95.031126 300.421488 
L 96.680014 300.421488 
L 98.328902 300.421488 
L 99.97779 300.421488 
L 101.626679 300.421488 
L 103.275567 300.421488 
L 104.924455 300.421488 
L 106.573343 300.421488 
L 108.222231 300.421488 
L 109.871119 300.421488 
L 111.520007 300.421488 
L 113.168895 300.421488 
L 114.817783 300.421488 
L 116.466671 300.421488 
L 118.11556 300.421488 
L 119.764448 300.421488 
L 121.413336 300.421488 
L 123.062224 300.421488 
L 124.711112 300.421488 
L 126.36 300.421488 
L 128.008888 300.421488 
L 129.657776 300.421488 
L 131.306664 300.421488 
L 132.955552 300.421488 
L 134.60444 300.421488 
L 136.253329 300.421488 
L 137.902217 300.421488 
L 139.551105 300.421488 
L 141.199993 300.421488 
L 142.848881 300.421488 
L 144.497769 300.421488 
L 146.146657 300.421488 
L 147.795545 300.421488 
L 149.444433 300.421488 
L 151.093321 300.421488 
L 152.74221 300.421488 
L 154.391098 300.421488 
L 156.039986 300.421488 
L 157.688874 300.421488 
L 159.337762 300.421488 
L 160.98665 300.421488 
L 162.635538 300.421488 
L 164.284426 300.421488 
L 165.933314 300.421488 
L 167.582202 300.421488 
L 169.231091 300.421488 
L 170.879979 300.421488 
L 172.528867 300.421488 
L 174.177755 300.421488 
L 175.826643 300.421488 
L 177.475531 300.421488 
L 179.124419 300.421488 
L 180.773307 300.421488 
L 182.422195 300.421488 
L 184.071083 300.421488 
L 185.719971 300.421488 
L 187.36886 300.421488 
L 189.017748 300.421488 
L 190.666636 300.421488 
L 192.315524 300.421488 
L 193.964412 300.421488 
L 195.6133 300.421488 
L 197.262188 300.421488 
L 198.911076 300.421488 
L 200.559964 300.421488 
L 202.208852 300.421488 
L 203.857741 300.421488 
L 205.506629 300.421488 
L 207.155517 286.30716 
L 208.804405 287.086717 
" style="fill:none;stroke:#68838b;stroke-linecap:square;stroke-width:1.2;"/>
   </g>
   <g id="line2d_37">
    <path clip-path="url(#p4fcd46ff8e)" d="M 43.915595 300.421488 
L 45.564483 300.421488 
L 47.213371 300.421488 
L 48.862259 300.421488 
L 50.511148 300.421488 
L 52.160036 300.421488 
L 53.808924 300.421488 
L 55.457812 300.421488 
L 57.1067 300.421488 
L 58.755588 300.421488 
L 60.404476 300.421488 
L 62.053364 300.421488 
L 63.702252 292.584422 
L 65.35114 292.066169 
L 67.000029 291.656586 
L 68.648917 291.316476 
L 70.297805 291.022789 
L 71.946693 290.761167 
L 73.595581 290.522253 
L 75.244469 290.299735 
L 76.893357 290.089242 
L 78.542245 289.887693 
L 80.191133 289.692897 
L 81.840021 289.503297 
L 83.488909 289.317802 
L 85.137798 289.135672 
L 86.786686 288.956439 
L 88.435574 288.779849 
L 90.084462 288.605825 
L 91.73335 288.434433 
L 93.382238 288.265857 
L 95.031126 288.100384 
L 96.680014 287.938383 
L 98.328902 287.780298 
L 99.97779 287.626629 
L 101.626679 287.477926 
L 103.275567 287.334777 
L 104.924455 287.197796 
L 106.573343 287.067617 
L 108.222231 286.944879 
L 109.871119 286.83022 
L 111.520007 286.724265 
L 113.168895 286.627617 
L 114.817783 286.540845 
L 116.466671 286.464479 
L 118.11556 286.398997 
L 119.764448 286.34482 
L 121.413336 286.302302 
L 123.062224 286.271726 
L 124.711112 286.253297 
L 126.36 286.24714 
L 128.008888 286.253297 
L 129.657776 286.271726 
L 131.306664 286.302302 
L 132.955552 286.34482 
L 134.60444 286.398997 
L 136.253329 286.464479 
L 137.902217 286.540845 
L 139.551105 286.627617 
L 141.199993 286.724265 
L 142.848881 286.83022 
L 144.497769 286.944879 
L 146.146657 287.067617 
L 147.795545 287.197796 
L 149.444433 287.334777 
L 151.093321 287.477926 
L 152.74221 287.626629 
L 154.391098 287.780298 
L 156.039986 287.938383 
L 157.688874 288.100384 
L 159.337762 288.265857 
L 160.98665 288.434433 
L 162.635538 288.605825 
L 164.284426 288.779849 
L 165.933314 288.956439 
L 167.582202 289.135672 
L 169.231091 289.317802 
L 170.879979 289.503297 
L 172.528867 289.692897 
L 174.177755 289.887693 
L 175.826643 290.089242 
L 177.475531 290.299735 
L 179.124419 290.522253 
L 180.773307 290.761167 
L 182.422195 291.022789 
L 184.071083 291.316476 
L 185.719971 291.656586 
L 187.36886 292.066169 
L 189.017748 292.584422 
L 190.666636 300.421488 
L 192.315524 300.421488 
L 193.964412 300.421488 
L 195.6133 300.421488 
L 197.262188 300.421488 
L 198.911076 300.421488 
L 200.559964 300.421488 
L 202.208852 300.421488 
L 203.857741 300.421488 
L 205.506629 300.421488 
L 207.155517 300.421488 
L 208.804405 300.421488 
" style="fill:none;stroke:#6959cd;stroke-linecap:square;stroke-width:1.2;"/>
   </g>
   <g id="line2d_38">
    <path clip-path="url(#p4fcd46ff8e)" d="M 43.915595 297.804058 
L 45.564483 298.006851 
L 47.213371 297.851862 
L 48.862259 297.467148 
L 50.511148 296.599826 
L 52.160036 293.649494 
L 53.808924 267.645081 
L 55.457812 263.539936 
L 57.1067 262.077981 
L 58.755588 260.644193 
L 60.404476 259.187823 
L 62.053364 257.705176 
L 63.702252 256.19754 
L 65.35114 254.66717 
L 67.000029 253.116634 
L 68.648917 251.54867 
L 70.297805 249.966155 
L 71.946693 248.372095 
L 73.595581 246.769623 
L 75.244469 245.161991 
L 76.893357 243.55257 
L 78.542245 241.944839 
L 80.191133 240.342377 
L 81.840021 238.748853 
L 83.488909 237.168015 
L 85.137798 235.603678 
L 86.786686 234.059706 
L 88.435574 232.540005 
L 90.084462 231.048503 
L 91.73335 229.589132 
L 93.382238 228.165816 
L 95.031126 226.782451 
L 96.680014 225.442891 
L 98.328902 224.150925 
L 99.97779 222.910263 
L 101.626679 221.724519 
L 103.275567 220.597191 
L 104.924455 219.531645 
L 106.573343 218.531098 
L 108.222231 217.598602 
L 109.871119 216.737028 
L 111.520007 215.949053 
L 113.168895 215.237142 
L 114.817783 214.603537 
L 116.466671 214.050249 
L 118.11556 213.579039 
L 119.764448 213.191417 
L 121.413336 212.888629 
L 123.062224 212.67165 
L 124.711112 212.541181 
L 126.36 212.497644 
L 128.008888 212.541181 
L 129.657776 212.67165 
L 131.306664 212.888629 
L 132.955552 213.191417 
L 134.60444 213.579039 
L 136.253329 214.050249 
L 137.902217 214.603537 
L 139.551105 215.237142 
L 141.199993 215.949053 
L 142.848881 216.737028 
L 144.497769 217.598602 
L 146.146657 218.531098 
L 147.795545 219.531645 
L 149.444433 220.597191 
L 151.093321 221.724519 
L 152.74221 222.910263 
L 154.391098 224.150925 
L 156.039986 225.442891 
L 157.688874 226.782451 
L 159.337762 228.165816 
L 160.98665 229.589132 
L 162.635538 231.048503 
L 164.284426 232.540005 
L 165.933314 234.059706 
L 167.582202 235.603678 
L 169.231091 237.168015 
L 170.879979 238.748853 
L 172.528867 240.342377 
L 174.177755 241.944839 
L 175.826643 243.55257 
L 177.475531 245.161991 
L 179.124419 246.769623 
L 180.773307 248.372095 
L 182.422195 249.966155 
L 184.071083 251.54867 
L 185.719971 253.116634 
L 187.36886 254.66717 
L 189.017748 256.19754 
L 190.666636 257.705176 
L 192.315524 259.187823 
L 193.964412 260.644193 
L 195.6133 262.077981 
L 197.262188 263.539936 
L 198.911076 267.645081 
L 200.559964 293.649494 
L 202.208852 296.599826 
L 203.857741 297.467148 
L 205.506629 297.851862 
L 207.155517 298.006851 
L 208.804405 297.804058 
" style="fill:none;stroke:#ed2200;stroke-linecap:square;stroke-width:1.2;"/>
   </g>
   <g id="line2d_39">
    <path clip-path="url(#p4fcd46ff8e)" d="M 43.915595 300.421488 
L 45.564483 300.421488 
L 47.213371 270.034309 
L 48.862259 268.851296 
L 50.511148 267.681855 
L 52.160036 266.842926 
L 53.808924 286.566852 
L 55.457812 298.186418 
L 57.1067 299.864873 
L 58.755588 300.290149 
L 60.404476 299.882139 
L 62.053364 299.668744 
L 63.702252 300.421488 
L 65.35114 300.421488 
L 67.000029 300.421488 
L 68.648917 300.421488 
L 70.297805 300.421488 
L 71.946693 300.421488 
L 73.595581 300.421488 
L 75.244469 300.421488 
L 76.893357 300.421488 
L 78.542245 300.421488 
L 80.191133 300.421488 
L 81.840021 300.421488 
L 83.488909 300.421488 
L 85.137798 300.421488 
L 86.786686 300.421488 
L 88.435574 300.421488 
L 90.084462 300.421488 
L 91.73335 300.421488 
L 93.382238 300.421488 
L 95.031126 300.421488 
L 96.680014 300.421488 
L 98.328902 300.421488 
L 99.97779 300.421488 
L 101.626679 300.421488 
L 103.275567 300.421488 
L 104.924455 300.421488 
L 106.573343 300.421488 
L 108.222231 300.421488 
L 109.871119 300.421488 
L 111.520007 300.421488 
L 113.168895 300.421488 
L 114.817783 300.421488 
L 116.466671 300.421488 
L 118.11556 300.421488 
L 119.764448 300.421488 
L 121.413336 300.421488 
L 123.062224 300.421488 
L 124.711112 300.421488 
L 126.36 300.421488 
L 128.008888 300.421488 
L 129.657776 300.421488 
L 131.306664 300.421488 
L 132.955552 300.421488 
L 134.60444 300.421488 
L 136.253329 300.421488 
L 137.902217 300.421488 
L 139.551105 300.421488 
L 141.199993 300.421488 
L 142.848881 300.421488 
L 144.497769 300.421488 
L 146.146657 300.421488 
L 147.795545 300.421488 
L 149.444433 300.421488 
L 151.093321 300.421488 
L 152.74221 300.421488 
L 154.391098 300.421488 
L 156.039986 300.421488 
L 157.688874 300.421488 
L 159.337762 300.421488 
L 160.98665 300.421488 
L 162.635538 300.421488 
L 164.284426 300.421488 
L 165.933314 300.421488 
L 167.582202 300.421488 
L 169.231091 300.421488 
L 170.879979 300.421488 
L 172.528867 300.421488 
L 174.177755 300.421488 
L 175.826643 300.421488 
L 177.475531 300.421488 
L 179.124419 300.421488 
L 180.773307 300.421488 
L 182.422195 300.421488 
L 184.071083 300.421488 
L 185.719971 300.421488 
L 187.36886 300.421488 
L 189.017748 300.421488 
L 190.666636 299.668744 
L 192.315524 299.882139 
L 193.964412 300.290149 
L 195.6133 299.864873 
L 197.262188 298.186418 
L 198.911076 286.566852 
L 200.559964 266.842926 
L 202.208852 267.681855 
L 203.857741 268.851296 
L 205.506629 270.034309 
L 207.155517 300.421488 
L 208.804405 300.421488 
" style="fill:none;stroke:#ffa07a;stroke-linecap:square;stroke-width:1.2;"/>
   </g>
   <g id="line2d_40">
    <path clip-path="url(#p4fcd46ff8e)" d="M 43.915595 272.312937 
L 45.564483 271.19213 
L 47.213371 300.421488 
L 48.862259 300.421488 
L 50.511148 300.421488 
L 52.160036 300.421488 
L 53.808924 300.421488 
L 55.457812 300.421488 
L 57.1067 300.421488 
L 58.755588 300.421488 
L 60.404476 300.421488 
L 62.053364 300.421488 
L 63.702252 239.463498 
L 65.35114 237.59915 
L 67.000029 235.720975 
L 68.648917 233.826816 
L 70.297805 231.918855 
L 71.946693 230.000881 
L 73.595581 228.077294 
L 75.244469 226.152725 
L 76.893357 224.231882 
L 78.542245 222.319488 
L 80.191133 220.420252 
L 81.840021 218.538855 
L 83.488909 216.679942 
L 85.137798 214.84811 
L 86.786686 213.047896 
L 88.435574 211.283769 
L 90.084462 209.560114 
L 91.73335 207.881217 
L 93.382238 206.251253 
L 95.031126 204.67427 
L 96.680014 203.154175 
L 98.328902 201.694718 
L 99.97779 200.29948 
L 101.626679 198.971861 
L 103.275567 197.715069 
L 104.924455 196.532112 
L 106.573343 195.425788 
L 108.222231 194.398683 
L 109.871119 193.453165 
L 111.520007 192.59138 
L 113.168895 191.81526 
L 114.817783 191.126513 
L 116.466671 190.526636 
L 118.11556 190.016914 
L 119.764448 189.59842 
L 121.413336 189.27203 
L 123.062224 189.038416 
L 124.711112 188.898058 
L 126.36 188.85124 
L 128.008888 188.898058 
L 129.657776 189.038416 
L 131.306664 189.27203 
L 132.955552 189.59842 
L 134.60444 190.016914 
L 136.253329 190.526636 
L 137.902217 191.126513 
L 139.551105 191.81526 
L 141.199993 192.59138 
L 142.848881 193.453165 
L 144.497769 194.398683 
L 146.146657 195.425788 
L 147.795545 196.532112 
L 149.444433 197.715069 
L 151.093321 198.971861 
L 152.74221 200.29948 
L 154.391098 201.694718 
L 156.039986 203.154175 
L 157.688874 204.67427 
L 159.337762 206.251253 
L 160.98665 207.881217 
L 162.635538 209.560114 
L 164.284426 211.283769 
L 165.933314 213.047896 
L 167.582202 214.84811 
L 169.231091 216.679942 
L 170.879979 218.538855 
L 172.528867 220.420252 
L 174.177755 222.319488 
L 175.826643 224.231882 
L 177.475531 226.152725 
L 179.124419 228.077294 
L 180.773307 230.000881 
L 182.422195 231.918855 
L 184.071083 233.826816 
L 185.719971 235.720975 
L 187.36886 237.59915 
L 189.017748 239.463498 
L 190.666636 300.421488 
L 192.315524 300.421488 
L 193.964412 300.421488 
L 195.6133 300.421488 
L 197.262188 300.421488 
L 198.911076 300.421488 
L 200.559964 300.421488 
L 202.208852 300.421488 
L 203.857741 300.421488 
L 205.506629 300.421488 
L 207.155517 271.19213 
L 208.804405 272.312937 
" style="fill:none;stroke:#9acd32;stroke-linecap:square;stroke-width:1.2;"/>
   </g>
   <g id="patch_8">
    <path d="M 47.52 306 
L 47.52 183.272727 
" style="fill:none;stroke:#2b2b2b;stroke-linecap:square;stroke-linejoin:miter;stroke-width:0.8;"/>
   </g>
   <g id="patch_9">
    <path d="M 205.2 306 
L 205.2 183.272727 
" style="fill:none;stroke:#2b2b2b;stroke-linecap:square;stroke-linejoin:miter;stroke-width:0.8;"/>
   </g>
   <g id="patch_10">
    <path d="M 47.52 306 
L 205.2 306 
" style="fill:none;stroke:#2b2b2b;stroke-linecap:square;stroke-linejoin:miter;stroke-width:0.8;"/>
   </g>
   <g id="patch_11">
    <path d="M 47.52 183.272727 
L 205.2 183.272727 
" style="fill:none;stroke:#2b2b2b;stroke-linecap:square;stroke-linejoin:miter;stroke-width:0.8;"/>
   </g>
  </g>
 </g>
 <defs>
  <clipPath id="pca59e66bc3">
   <rect height="122.727273" width="157.68" x="47.52" y="36"/>
  </clipPath>
  <clipPath id="p4fcd46ff8e">
   <rect height="122.727273" width="157.68" x="47.52" y="183.272727"/>
  </clipPath>
 </defs>
</svg>
