<?xml version="1.0" encoding="utf-8" standalone="no"?>
<!DOCTYPE svg PUBLIC "-//W3C//DTD SVG 1.1//EN"
  "http://www.w3.org/Graphics/SVG/1.1/DTD/svg11.dtd">
<!-- Created with matplotlib (https://matplotlib.org/) -->
<svg height="144pt" version="1.1" viewBox="0 0 360 144" width="360pt" xmlns="http://www.w3.org/2000/svg" xmlns:xlink="http://www.w3.org/1999/xlink">
 <defs>
  <style type="text/css">
*{stroke-linecap:butt;stroke-linejoin:round;}
  </style>
 </defs>
 <g id="figure_1">
  <g id="patch_1">
   <path d="M 0 144 
L 360 144 
L 360 0 
L 0 0 
z
" style="fill:none;"/>
  </g>
  <g id="axes_1">
   <g id="patch_2">
    <path d="M 79.2 108 
L 342 108 
L 342 14.4 
L 79.2 14.4 
z
" style="fill:none;"/>
   </g>
   <g id="PathCollection_1">
    <defs>
     <path d="M 0 1 
C 0.265203 1 0.51958 0.894634 0.707107 0.707107 
C 0.894634 0.51958 1 0.265203 1 0 
C 1 -0.265203 0.894634 -0.51958 0.707107 -0.707107 
C 0.51958 -0.894634 0.265203 -1 0 -1 
C -0.265203 -1 -0.51958 -0.894634 -0.707107 -0.707107 
C -0.894634 -0.51958 -1 -0.265203 -1 0 
C -1 0.265203 -0.894634 0.51958 -0.707107 0.707107 
C -0.51958 0.894634 -0.265203 1 0 1 
z
" id="m53f3cdfb1c" style="stroke:#cdba96;stroke-opacity:0.95;"/>
    </defs>
    <g clip-path="url(#p3aad15f5ae)">
     <use style="fill:#cdba96;fill-opacity:0.95;stroke:#cdba96;stroke-opacity:0.95;" x="98.050342" xlink:href="#m53f3cdfb1c" y="88.808558"/>
     <use style="fill:#cdba96;fill-opacity:0.95;stroke:#cdba96;stroke-opacity:0.95;" x="99.906375" xlink:href="#m53f3cdfb1c" y="89.607447"/>
     <use style="fill:#cdba96;fill-opacity:0.95;stroke:#cdba96;stroke-opacity:0.95;" x="101.762409" xlink:href="#m53f3cdfb1c" y="99.015705"/>
     <use style="fill:#cdba96;fill-opacity:0.95;stroke:#cdba96;stroke-opacity:0.95;" x="103.618442" xlink:href="#m53f3cdfb1c" y="102.480555"/>
     <use style="fill:#cdba96;fill-opacity:0.95;stroke:#cdba96;stroke-opacity:0.95;" x="105.474476" xlink:href="#m53f3cdfb1c" y="91.575985"/>
     <use style="fill:#cdba96;fill-opacity:0.95;stroke:#cdba96;stroke-opacity:0.95;" x="107.33051" xlink:href="#m53f3cdfb1c" y="92.455946"/>
     <use style="fill:#cdba96;fill-opacity:0.95;stroke:#cdba96;stroke-opacity:0.95;" x="109.186543" xlink:href="#m53f3cdfb1c" y="100.164686"/>
     <use style="fill:#cdba96;fill-opacity:0.95;stroke:#cdba96;stroke-opacity:0.95;" x="111.042577" xlink:href="#m53f3cdfb1c" y="97.983916"/>
     <use style="fill:#cdba96;fill-opacity:0.95;stroke:#cdba96;stroke-opacity:0.95;" x="112.898611" xlink:href="#m53f3cdfb1c" y="84.050766"/>
     <use style="fill:#cdba96;fill-opacity:0.95;stroke:#cdba96;stroke-opacity:0.95;" x="114.754644" xlink:href="#m53f3cdfb1c" y="87.493381"/>
     <use style="fill:#cdba96;fill-opacity:0.95;stroke:#cdba96;stroke-opacity:0.95;" x="116.610678" xlink:href="#m53f3cdfb1c" y="86.431043"/>
     <use style="fill:#cdba96;fill-opacity:0.95;stroke:#cdba96;stroke-opacity:0.95;" x="118.466712" xlink:href="#m53f3cdfb1c" y="81.74716"/>
     <use style="fill:#cdba96;fill-opacity:0.95;stroke:#cdba96;stroke-opacity:0.95;" x="120.322745" xlink:href="#m53f3cdfb1c" y="66.881406"/>
     <use style="fill:#cdba96;fill-opacity:0.95;stroke:#cdba96;stroke-opacity:0.95;" x="122.178779" xlink:href="#m53f3cdfb1c" y="69.494435"/>
     <use style="fill:#cdba96;fill-opacity:0.95;stroke:#cdba96;stroke-opacity:0.95;" x="124.034812" xlink:href="#m53f3cdfb1c" y="54.578913"/>
     <use style="fill:#cdba96;fill-opacity:0.95;stroke:#cdba96;stroke-opacity:0.95;" x="125.890846" xlink:href="#m53f3cdfb1c" y="55.498624"/>
     <use style="fill:#cdba96;fill-opacity:0.95;stroke:#cdba96;stroke-opacity:0.95;" x="127.74688" xlink:href="#m53f3cdfb1c" y="37.584721"/>
     <use style="fill:#cdba96;fill-opacity:0.95;stroke:#cdba96;stroke-opacity:0.95;" x="129.602913" xlink:href="#m53f3cdfb1c" y="40.469632"/>
     <use style="fill:#cdba96;fill-opacity:0.95;stroke:#cdba96;stroke-opacity:0.95;" x="131.458947" xlink:href="#m53f3cdfb1c" y="18.654545"/>
     <use style="fill:#cdba96;fill-opacity:0.95;stroke:#cdba96;stroke-opacity:0.95;" x="133.314981" xlink:href="#m53f3cdfb1c" y="38.485295"/>
     <use style="fill:#cdba96;fill-opacity:0.95;stroke:#cdba96;stroke-opacity:0.95;" x="135.171014" xlink:href="#m53f3cdfb1c" y="42.978412"/>
     <use style="fill:#cdba96;fill-opacity:0.95;stroke:#cdba96;stroke-opacity:0.95;" x="137.027048" xlink:href="#m53f3cdfb1c" y="48.144827"/>
     <use style="fill:#cdba96;fill-opacity:0.95;stroke:#cdba96;stroke-opacity:0.95;" x="138.883081" xlink:href="#m53f3cdfb1c" y="42.090688"/>
     <use style="fill:#cdba96;fill-opacity:0.95;stroke:#cdba96;stroke-opacity:0.95;" x="140.739115" xlink:href="#m53f3cdfb1c" y="58.832594"/>
     <use style="fill:#cdba96;fill-opacity:0.95;stroke:#cdba96;stroke-opacity:0.95;" x="142.595149" xlink:href="#m53f3cdfb1c" y="56.08267"/>
     <use style="fill:#cdba96;fill-opacity:0.95;stroke:#cdba96;stroke-opacity:0.95;" x="144.451182" xlink:href="#m53f3cdfb1c" y="62.369305"/>
     <use style="fill:#cdba96;fill-opacity:0.95;stroke:#cdba96;stroke-opacity:0.95;" x="146.307216" xlink:href="#m53f3cdfb1c" y="61.095309"/>
     <use style="fill:#cdba96;fill-opacity:0.95;stroke:#cdba96;stroke-opacity:0.95;" x="148.16325" xlink:href="#m53f3cdfb1c" y="74.421049"/>
     <use style="fill:#cdba96;fill-opacity:0.95;stroke:#cdba96;stroke-opacity:0.95;" x="150.019283" xlink:href="#m53f3cdfb1c" y="80.291699"/>
     <use style="fill:#cdba96;fill-opacity:0.95;stroke:#cdba96;stroke-opacity:0.95;" x="151.875317" xlink:href="#m53f3cdfb1c" y="80.481827"/>
     <use style="fill:#cdba96;fill-opacity:0.95;stroke:#cdba96;stroke-opacity:0.95;" x="153.73135" xlink:href="#m53f3cdfb1c" y="84.85975"/>
     <use style="fill:#cdba96;fill-opacity:0.95;stroke:#cdba96;stroke-opacity:0.95;" x="155.587384" xlink:href="#m53f3cdfb1c" y="92.350523"/>
     <use style="fill:#cdba96;fill-opacity:0.95;stroke:#cdba96;stroke-opacity:0.95;" x="157.443418" xlink:href="#m53f3cdfb1c" y="91.994178"/>
     <use style="fill:#cdba96;fill-opacity:0.95;stroke:#cdba96;stroke-opacity:0.95;" x="159.299451" xlink:href="#m53f3cdfb1c" y="87.528264"/>
     <use style="fill:#cdba96;fill-opacity:0.95;stroke:#cdba96;stroke-opacity:0.95;" x="161.155485" xlink:href="#m53f3cdfb1c" y="92.221252"/>
     <use style="fill:#cdba96;fill-opacity:0.95;stroke:#cdba96;stroke-opacity:0.95;" x="163.011519" xlink:href="#m53f3cdfb1c" y="95.95823"/>
     <use style="fill:#cdba96;fill-opacity:0.95;stroke:#cdba96;stroke-opacity:0.95;" x="164.867552" xlink:href="#m53f3cdfb1c" y="92.964984"/>
     <use style="fill:#cdba96;fill-opacity:0.95;stroke:#cdba96;stroke-opacity:0.95;" x="166.723586" xlink:href="#m53f3cdfb1c" y="90.080968"/>
     <use style="fill:#cdba96;fill-opacity:0.95;stroke:#cdba96;stroke-opacity:0.95;" x="168.57962" xlink:href="#m53f3cdfb1c" y="78.977311"/>
     <use style="fill:#cdba96;fill-opacity:0.95;stroke:#cdba96;stroke-opacity:0.95;" x="170.435653" xlink:href="#m53f3cdfb1c" y="81.025144"/>
     <use style="fill:#cdba96;fill-opacity:0.95;stroke:#cdba96;stroke-opacity:0.95;" x="172.291687" xlink:href="#m53f3cdfb1c" y="75.325448"/>
     <use style="fill:#cdba96;fill-opacity:0.95;stroke:#cdba96;stroke-opacity:0.95;" x="174.14772" xlink:href="#m53f3cdfb1c" y="71.777946"/>
     <use style="fill:#cdba96;fill-opacity:0.95;stroke:#cdba96;stroke-opacity:0.95;" x="176.003754" xlink:href="#m53f3cdfb1c" y="67.374362"/>
     <use style="fill:#cdba96;fill-opacity:0.95;stroke:#cdba96;stroke-opacity:0.95;" x="177.859788" xlink:href="#m53f3cdfb1c" y="57.159844"/>
     <use style="fill:#cdba96;fill-opacity:0.95;stroke:#cdba96;stroke-opacity:0.95;" x="179.715821" xlink:href="#m53f3cdfb1c" y="64.268905"/>
     <use style="fill:#cdba96;fill-opacity:0.95;stroke:#cdba96;stroke-opacity:0.95;" x="181.571855" xlink:href="#m53f3cdfb1c" y="52.634238"/>
     <use style="fill:#cdba96;fill-opacity:0.95;stroke:#cdba96;stroke-opacity:0.95;" x="183.427889" xlink:href="#m53f3cdfb1c" y="53.814328"/>
     <use style="fill:#cdba96;fill-opacity:0.95;stroke:#cdba96;stroke-opacity:0.95;" x="185.283922" xlink:href="#m53f3cdfb1c" y="48.200831"/>
     <use style="fill:#cdba96;fill-opacity:0.95;stroke:#cdba96;stroke-opacity:0.95;" x="187.139956" xlink:href="#m53f3cdfb1c" y="49.356219"/>
     <use style="fill:#cdba96;fill-opacity:0.95;stroke:#cdba96;stroke-opacity:0.95;" x="188.995989" xlink:href="#m53f3cdfb1c" y="51.429447"/>
     <use style="fill:#cdba96;fill-opacity:0.95;stroke:#cdba96;stroke-opacity:0.95;" x="190.852023" xlink:href="#m53f3cdfb1c" y="49.749949"/>
     <use style="fill:#cdba96;fill-opacity:0.95;stroke:#cdba96;stroke-opacity:0.95;" x="192.708057" xlink:href="#m53f3cdfb1c" y="55.054052"/>
     <use style="fill:#cdba96;fill-opacity:0.95;stroke:#cdba96;stroke-opacity:0.95;" x="194.56409" xlink:href="#m53f3cdfb1c" y="56.872074"/>
     <use style="fill:#cdba96;fill-opacity:0.95;stroke:#cdba96;stroke-opacity:0.95;" x="196.420124" xlink:href="#m53f3cdfb1c" y="61.788662"/>
     <use style="fill:#cdba96;fill-opacity:0.95;stroke:#cdba96;stroke-opacity:0.95;" x="198.276158" xlink:href="#m53f3cdfb1c" y="68.326976"/>
     <use style="fill:#cdba96;fill-opacity:0.95;stroke:#cdba96;stroke-opacity:0.95;" x="200.132191" xlink:href="#m53f3cdfb1c" y="65.712096"/>
     <use style="fill:#cdba96;fill-opacity:0.95;stroke:#cdba96;stroke-opacity:0.95;" x="201.988225" xlink:href="#m53f3cdfb1c" y="72.183134"/>
     <use style="fill:#cdba96;fill-opacity:0.95;stroke:#cdba96;stroke-opacity:0.95;" x="203.844259" xlink:href="#m53f3cdfb1c" y="88.061422"/>
     <use style="fill:#cdba96;fill-opacity:0.95;stroke:#cdba96;stroke-opacity:0.95;" x="205.700292" xlink:href="#m53f3cdfb1c" y="87.391081"/>
     <use style="fill:#cdba96;fill-opacity:0.95;stroke:#cdba96;stroke-opacity:0.95;" x="207.556326" xlink:href="#m53f3cdfb1c" y="91.421365"/>
     <use style="fill:#cdba96;fill-opacity:0.95;stroke:#cdba96;stroke-opacity:0.95;" x="209.412359" xlink:href="#m53f3cdfb1c" y="87.640309"/>
     <use style="fill:#cdba96;fill-opacity:0.95;stroke:#cdba96;stroke-opacity:0.95;" x="211.268393" xlink:href="#m53f3cdfb1c" y="103.745455"/>
     <use style="fill:#cdba96;fill-opacity:0.95;stroke:#cdba96;stroke-opacity:0.95;" x="213.124427" xlink:href="#m53f3cdfb1c" y="87.347849"/>
     <use style="fill:#cdba96;fill-opacity:0.95;stroke:#cdba96;stroke-opacity:0.95;" x="214.98046" xlink:href="#m53f3cdfb1c" y="92.193204"/>
     <use style="fill:#cdba96;fill-opacity:0.95;stroke:#cdba96;stroke-opacity:0.95;" x="216.836494" xlink:href="#m53f3cdfb1c" y="76.579108"/>
     <use style="fill:#cdba96;fill-opacity:0.95;stroke:#cdba96;stroke-opacity:0.95;" x="218.692528" xlink:href="#m53f3cdfb1c" y="80.067143"/>
     <use style="fill:#cdba96;fill-opacity:0.95;stroke:#cdba96;stroke-opacity:0.95;" x="220.548561" xlink:href="#m53f3cdfb1c" y="93.416855"/>
     <use style="fill:#cdba96;fill-opacity:0.95;stroke:#cdba96;stroke-opacity:0.95;" x="222.404595" xlink:href="#m53f3cdfb1c" y="75.031209"/>
     <use style="fill:#cdba96;fill-opacity:0.95;stroke:#cdba96;stroke-opacity:0.95;" x="224.260628" xlink:href="#m53f3cdfb1c" y="76.581773"/>
     <use style="fill:#cdba96;fill-opacity:0.95;stroke:#cdba96;stroke-opacity:0.95;" x="226.116662" xlink:href="#m53f3cdfb1c" y="66.567767"/>
     <use style="fill:#cdba96;fill-opacity:0.95;stroke:#cdba96;stroke-opacity:0.95;" x="227.972696" xlink:href="#m53f3cdfb1c" y="67.041448"/>
     <use style="fill:#cdba96;fill-opacity:0.95;stroke:#cdba96;stroke-opacity:0.95;" x="229.828729" xlink:href="#m53f3cdfb1c" y="54.866427"/>
     <use style="fill:#cdba96;fill-opacity:0.95;stroke:#cdba96;stroke-opacity:0.95;" x="231.684763" xlink:href="#m53f3cdfb1c" y="68.401396"/>
     <use style="fill:#cdba96;fill-opacity:0.95;stroke:#cdba96;stroke-opacity:0.95;" x="233.540797" xlink:href="#m53f3cdfb1c" y="48.588917"/>
     <use style="fill:#cdba96;fill-opacity:0.95;stroke:#cdba96;stroke-opacity:0.95;" x="235.39683" xlink:href="#m53f3cdfb1c" y="57.938651"/>
     <use style="fill:#cdba96;fill-opacity:0.95;stroke:#cdba96;stroke-opacity:0.95;" x="237.252864" xlink:href="#m53f3cdfb1c" y="46.240773"/>
     <use style="fill:#cdba96;fill-opacity:0.95;stroke:#cdba96;stroke-opacity:0.95;" x="239.108898" xlink:href="#m53f3cdfb1c" y="56.693657"/>
     <use style="fill:#cdba96;fill-opacity:0.95;stroke:#cdba96;stroke-opacity:0.95;" x="240.964931" xlink:href="#m53f3cdfb1c" y="49.530179"/>
     <use style="fill:#cdba96;fill-opacity:0.95;stroke:#cdba96;stroke-opacity:0.95;" x="242.820965" xlink:href="#m53f3cdfb1c" y="45.519348"/>
     <use style="fill:#cdba96;fill-opacity:0.95;stroke:#cdba96;stroke-opacity:0.95;" x="244.676998" xlink:href="#m53f3cdfb1c" y="51.003722"/>
     <use style="fill:#cdba96;fill-opacity:0.95;stroke:#cdba96;stroke-opacity:0.95;" x="246.533032" xlink:href="#m53f3cdfb1c" y="54.008324"/>
     <use style="fill:#cdba96;fill-opacity:0.95;stroke:#cdba96;stroke-opacity:0.95;" x="248.389066" xlink:href="#m53f3cdfb1c" y="58.104531"/>
     <use style="fill:#cdba96;fill-opacity:0.95;stroke:#cdba96;stroke-opacity:0.95;" x="250.245099" xlink:href="#m53f3cdfb1c" y="53.976229"/>
     <use style="fill:#cdba96;fill-opacity:0.95;stroke:#cdba96;stroke-opacity:0.95;" x="252.101133" xlink:href="#m53f3cdfb1c" y="68.079976"/>
     <use style="fill:#cdba96;fill-opacity:0.95;stroke:#cdba96;stroke-opacity:0.95;" x="253.957167" xlink:href="#m53f3cdfb1c" y="67.009118"/>
     <use style="fill:#cdba96;fill-opacity:0.95;stroke:#cdba96;stroke-opacity:0.95;" x="255.8132" xlink:href="#m53f3cdfb1c" y="69.011118"/>
     <use style="fill:#cdba96;fill-opacity:0.95;stroke:#cdba96;stroke-opacity:0.95;" x="257.669234" xlink:href="#m53f3cdfb1c" y="85.536251"/>
     <use style="fill:#cdba96;fill-opacity:0.95;stroke:#cdba96;stroke-opacity:0.95;" x="259.525267" xlink:href="#m53f3cdfb1c" y="79.650272"/>
     <use style="fill:#cdba96;fill-opacity:0.95;stroke:#cdba96;stroke-opacity:0.95;" x="261.381301" xlink:href="#m53f3cdfb1c" y="72.639984"/>
     <use style="fill:#cdba96;fill-opacity:0.95;stroke:#cdba96;stroke-opacity:0.95;" x="263.237335" xlink:href="#m53f3cdfb1c" y="80.257708"/>
     <use style="fill:#cdba96;fill-opacity:0.95;stroke:#cdba96;stroke-opacity:0.95;" x="265.093368" xlink:href="#m53f3cdfb1c" y="77.132799"/>
     <use style="fill:#cdba96;fill-opacity:0.95;stroke:#cdba96;stroke-opacity:0.95;" x="266.949402" xlink:href="#m53f3cdfb1c" y="78.975054"/>
     <use style="fill:#cdba96;fill-opacity:0.95;stroke:#cdba96;stroke-opacity:0.95;" x="268.805436" xlink:href="#m53f3cdfb1c" y="99.284099"/>
     <use style="fill:#cdba96;fill-opacity:0.95;stroke:#cdba96;stroke-opacity:0.95;" x="270.661469" xlink:href="#m53f3cdfb1c" y="70.520467"/>
     <use style="fill:#cdba96;fill-opacity:0.95;stroke:#cdba96;stroke-opacity:0.95;" x="272.517503" xlink:href="#m53f3cdfb1c" y="84.117364"/>
     <use style="fill:#cdba96;fill-opacity:0.95;stroke:#cdba96;stroke-opacity:0.95;" x="274.373537" xlink:href="#m53f3cdfb1c" y="76.266197"/>
     <use style="fill:#cdba96;fill-opacity:0.95;stroke:#cdba96;stroke-opacity:0.95;" x="276.22957" xlink:href="#m53f3cdfb1c" y="76.176463"/>
     <use style="fill:#cdba96;fill-opacity:0.95;stroke:#cdba96;stroke-opacity:0.95;" x="278.085604" xlink:href="#m53f3cdfb1c" y="76.89618"/>
     <use style="fill:#cdba96;fill-opacity:0.95;stroke:#cdba96;stroke-opacity:0.95;" x="279.941637" xlink:href="#m53f3cdfb1c" y="76.400568"/>
     <use style="fill:#cdba96;fill-opacity:0.95;stroke:#cdba96;stroke-opacity:0.95;" x="281.797671" xlink:href="#m53f3cdfb1c" y="57.567668"/>
     <use style="fill:#cdba96;fill-opacity:0.95;stroke:#cdba96;stroke-opacity:0.95;" x="283.653705" xlink:href="#m53f3cdfb1c" y="61.58044"/>
     <use style="fill:#cdba96;fill-opacity:0.95;stroke:#cdba96;stroke-opacity:0.95;" x="285.509738" xlink:href="#m53f3cdfb1c" y="85.233343"/>
     <use style="fill:#cdba96;fill-opacity:0.95;stroke:#cdba96;stroke-opacity:0.95;" x="287.365772" xlink:href="#m53f3cdfb1c" y="73.64933"/>
     <use style="fill:#cdba96;fill-opacity:0.95;stroke:#cdba96;stroke-opacity:0.95;" x="289.221806" xlink:href="#m53f3cdfb1c" y="55.339868"/>
     <use style="fill:#cdba96;fill-opacity:0.95;stroke:#cdba96;stroke-opacity:0.95;" x="291.077839" xlink:href="#m53f3cdfb1c" y="62.650996"/>
     <use style="fill:#cdba96;fill-opacity:0.95;stroke:#cdba96;stroke-opacity:0.95;" x="292.933873" xlink:href="#m53f3cdfb1c" y="72.115937"/>
     <use style="fill:#cdba96;fill-opacity:0.95;stroke:#cdba96;stroke-opacity:0.95;" x="294.789906" xlink:href="#m53f3cdfb1c" y="60.348124"/>
     <use style="fill:#cdba96;fill-opacity:0.95;stroke:#cdba96;stroke-opacity:0.95;" x="296.64594" xlink:href="#m53f3cdfb1c" y="65.907746"/>
     <use style="fill:#cdba96;fill-opacity:0.95;stroke:#cdba96;stroke-opacity:0.95;" x="298.501974" xlink:href="#m53f3cdfb1c" y="62.313238"/>
     <use style="fill:#cdba96;fill-opacity:0.95;stroke:#cdba96;stroke-opacity:0.95;" x="300.358007" xlink:href="#m53f3cdfb1c" y="72.118492"/>
     <use style="fill:#cdba96;fill-opacity:0.95;stroke:#cdba96;stroke-opacity:0.95;" x="302.214041" xlink:href="#m53f3cdfb1c" y="62.206883"/>
     <use style="fill:#cdba96;fill-opacity:0.95;stroke:#cdba96;stroke-opacity:0.95;" x="304.070075" xlink:href="#m53f3cdfb1c" y="79.547679"/>
     <use style="fill:#cdba96;fill-opacity:0.95;stroke:#cdba96;stroke-opacity:0.95;" x="305.926108" xlink:href="#m53f3cdfb1c" y="77.314324"/>
     <use style="fill:#cdba96;fill-opacity:0.95;stroke:#cdba96;stroke-opacity:0.95;" x="307.782142" xlink:href="#m53f3cdfb1c" y="77.667061"/>
     <use style="fill:#cdba96;fill-opacity:0.95;stroke:#cdba96;stroke-opacity:0.95;" x="309.638176" xlink:href="#m53f3cdfb1c" y="71.991343"/>
     <use style="fill:#cdba96;fill-opacity:0.95;stroke:#cdba96;stroke-opacity:0.95;" x="311.494209" xlink:href="#m53f3cdfb1c" y="92.489458"/>
     <use style="fill:#cdba96;fill-opacity:0.95;stroke:#cdba96;stroke-opacity:0.95;" x="313.350243" xlink:href="#m53f3cdfb1c" y="82.152994"/>
     <use style="fill:#cdba96;fill-opacity:0.95;stroke:#cdba96;stroke-opacity:0.95;" x="315.206276" xlink:href="#m53f3cdfb1c" y="74.619472"/>
     <use style="fill:#cdba96;fill-opacity:0.95;stroke:#cdba96;stroke-opacity:0.95;" x="317.06231" xlink:href="#m53f3cdfb1c" y="76.418131"/>
     <use style="fill:#cdba96;fill-opacity:0.95;stroke:#cdba96;stroke-opacity:0.95;" x="318.918344" xlink:href="#m53f3cdfb1c" y="72.686268"/>
     <use style="fill:#cdba96;fill-opacity:0.95;stroke:#cdba96;stroke-opacity:0.95;" x="320.774377" xlink:href="#m53f3cdfb1c" y="89.068631"/>
     <use style="fill:#cdba96;fill-opacity:0.95;stroke:#cdba96;stroke-opacity:0.95;" x="322.630411" xlink:href="#m53f3cdfb1c" y="88.642131"/>
     <use style="fill:#cdba96;fill-opacity:0.95;stroke:#cdba96;stroke-opacity:0.95;" x="324.486445" xlink:href="#m53f3cdfb1c" y="81.662111"/>
     <use style="fill:#cdba96;fill-opacity:0.95;stroke:#cdba96;stroke-opacity:0.95;" x="326.342478" xlink:href="#m53f3cdfb1c" y="87.545233"/>
     <use style="fill:#cdba96;fill-opacity:0.95;stroke:#cdba96;stroke-opacity:0.95;" x="328.198512" xlink:href="#m53f3cdfb1c" y="75.968187"/>
     <use style="fill:#cdba96;fill-opacity:0.95;stroke:#cdba96;stroke-opacity:0.95;" x="330.054545" xlink:href="#m53f3cdfb1c" y="83.204926"/>
    </g>
   </g>
   <g id="matplotlib.axis_1">
    <g id="xtick_1">
     <g id="line2d_1">
      <path clip-path="url(#p3aad15f5ae)" d="M 91.145455 108 
L 91.145455 14.4 
" style="fill:none;stroke:#b2b2b2;stroke-dasharray:2.96,1.28;stroke-dashoffset:0;stroke-opacity:0.3;stroke-width:0.8;"/>
     </g>
     <g id="line2d_2">
      <defs>
       <path d="M 0 0 
L 0 3.5 
" id="m96f17f1e66" style="stroke:#2b2b2b;stroke-width:0.8;"/>
      </defs>
      <g>
       <use style="fill:#2b2b2b;stroke:#2b2b2b;stroke-width:0.8;" x="91.145455" xlink:href="#m96f17f1e66" y="108"/>
      </g>
     </g>
     <g id="text_1">
      <!-- 0 -->
      <defs>
       <path d="M 31.78125 66.40625 
Q 24.171875 66.40625 20.328125 58.90625 
Q 16.5 51.421875 16.5 36.375 
Q 16.5 21.390625 20.328125 13.890625 
Q 24.171875 6.390625 31.78125 6.390625 
Q 39.453125 6.390625 43.28125 13.890625 
Q 47.125 21.390625 47.125 36.375 
Q 47.125 51.421875 43.28125 58.90625 
Q 39.453125 66.40625 31.78125 66.40625 
z
M 31.78125 74.21875 
Q 44.046875 74.21875 50.515625 64.515625 
Q 56.984375 54.828125 56.984375 36.375 
Q 56.984375 17.96875 50.515625 8.265625 
Q 44.046875 -1.421875 31.78125 -1.421875 
Q 19.53125 -1.421875 13.0625 8.265625 
Q 6.59375 17.96875 6.59375 36.375 
Q 6.59375 54.828125 13.0625 64.515625 
Q 19.53125 74.21875 31.78125 74.21875 
z
" id="DejaVuSans-48"/>
      </defs>
      <g style="fill:#2b2b2b;" transform="translate(87.964205 122.598438)scale(0.1 -0.1)">
       <use xlink:href="#DejaVuSans-48"/>
      </g>
     </g>
    </g>
    <g id="xtick_2">
     <g id="line2d_3">
      <path clip-path="url(#p3aad15f5ae)" d="M 137.178035 108 
L 137.178035 14.4 
" style="fill:none;stroke:#b2b2b2;stroke-dasharray:2.96,1.28;stroke-dashoffset:0;stroke-opacity:0.3;stroke-width:0.8;"/>
     </g>
     <g id="line2d_4">
      <g>
       <use style="fill:#2b2b2b;stroke:#2b2b2b;stroke-width:0.8;" x="137.178035" xlink:href="#m96f17f1e66" y="108"/>
      </g>
     </g>
     <g id="text_2">
      <!-- 10 -->
      <defs>
       <path d="M 12.40625 8.296875 
L 28.515625 8.296875 
L 28.515625 63.921875 
L 10.984375 60.40625 
L 10.984375 69.390625 
L 28.421875 72.90625 
L 38.28125 72.90625 
L 38.28125 8.296875 
L 54.390625 8.296875 
L 54.390625 0 
L 12.40625 0 
z
" id="DejaVuSans-49"/>
      </defs>
      <g style="fill:#2b2b2b;" transform="translate(130.815535 122.598438)scale(0.1 -0.1)">
       <use xlink:href="#DejaVuSans-49"/>
       <use x="63.623047" xlink:href="#DejaVuSans-48"/>
      </g>
     </g>
    </g>
    <g id="xtick_3">
     <g id="line2d_5">
      <path clip-path="url(#p3aad15f5ae)" d="M 183.210615 108 
L 183.210615 14.4 
" style="fill:none;stroke:#b2b2b2;stroke-dasharray:2.96,1.28;stroke-dashoffset:0;stroke-opacity:0.3;stroke-width:0.8;"/>
     </g>
     <g id="line2d_6">
      <g>
       <use style="fill:#2b2b2b;stroke:#2b2b2b;stroke-width:0.8;" x="183.210615" xlink:href="#m96f17f1e66" y="108"/>
      </g>
     </g>
     <g id="text_3">
      <!-- 20 -->
      <defs>
       <path d="M 19.1875 8.296875 
L 53.609375 8.296875 
L 53.609375 0 
L 7.328125 0 
L 7.328125 8.296875 
Q 12.9375 14.109375 22.625 23.890625 
Q 32.328125 33.6875 34.8125 36.53125 
Q 39.546875 41.84375 41.421875 45.53125 
Q 43.3125 49.21875 43.3125 52.78125 
Q 43.3125 58.59375 39.234375 62.25 
Q 35.15625 65.921875 28.609375 65.921875 
Q 23.96875 65.921875 18.8125 64.3125 
Q 13.671875 62.703125 7.8125 59.421875 
L 7.8125 69.390625 
Q 13.765625 71.78125 18.9375 73 
Q 24.125 74.21875 28.421875 74.21875 
Q 39.75 74.21875 46.484375 68.546875 
Q 53.21875 62.890625 53.21875 53.421875 
Q 53.21875 48.921875 51.53125 44.890625 
Q 49.859375 40.875 45.40625 35.40625 
Q 44.1875 33.984375 37.640625 27.21875 
Q 31.109375 20.453125 19.1875 8.296875 
z
" id="DejaVuSans-50"/>
      </defs>
      <g style="fill:#2b2b2b;" transform="translate(176.848115 122.598438)scale(0.1 -0.1)">
       <use xlink:href="#DejaVuSans-50"/>
       <use x="63.623047" xlink:href="#DejaVuSans-48"/>
      </g>
     </g>
    </g>
    <g id="xtick_4">
     <g id="line2d_7">
      <path clip-path="url(#p3aad15f5ae)" d="M 229.243195 108 
L 229.243195 14.4 
" style="fill:none;stroke:#b2b2b2;stroke-dasharray:2.96,1.28;stroke-dashoffset:0;stroke-opacity:0.3;stroke-width:0.8;"/>
     </g>
     <g id="line2d_8">
      <g>
       <use style="fill:#2b2b2b;stroke:#2b2b2b;stroke-width:0.8;" x="229.243195" xlink:href="#m96f17f1e66" y="108"/>
      </g>
     </g>
     <g id="text_4">
      <!-- 30 -->
      <defs>
       <path d="M 40.578125 39.3125 
Q 47.65625 37.796875 51.625 33 
Q 55.609375 28.21875 55.609375 21.1875 
Q 55.609375 10.40625 48.1875 4.484375 
Q 40.765625 -1.421875 27.09375 -1.421875 
Q 22.515625 -1.421875 17.65625 -0.515625 
Q 12.796875 0.390625 7.625 2.203125 
L 7.625 11.71875 
Q 11.71875 9.328125 16.59375 8.109375 
Q 21.484375 6.890625 26.8125 6.890625 
Q 36.078125 6.890625 40.9375 10.546875 
Q 45.796875 14.203125 45.796875 21.1875 
Q 45.796875 27.640625 41.28125 31.265625 
Q 36.765625 34.90625 28.71875 34.90625 
L 20.21875 34.90625 
L 20.21875 43.015625 
L 29.109375 43.015625 
Q 36.375 43.015625 40.234375 45.921875 
Q 44.09375 48.828125 44.09375 54.296875 
Q 44.09375 59.90625 40.109375 62.90625 
Q 36.140625 65.921875 28.71875 65.921875 
Q 24.65625 65.921875 20.015625 65.03125 
Q 15.375 64.15625 9.8125 62.3125 
L 9.8125 71.09375 
Q 15.4375 72.65625 20.34375 73.4375 
Q 25.25 74.21875 29.59375 74.21875 
Q 40.828125 74.21875 47.359375 69.109375 
Q 53.90625 64.015625 53.90625 55.328125 
Q 53.90625 49.265625 50.4375 45.09375 
Q 46.96875 40.921875 40.578125 39.3125 
z
" id="DejaVuSans-51"/>
      </defs>
      <g style="fill:#2b2b2b;" transform="translate(222.880695 122.598438)scale(0.1 -0.1)">
       <use xlink:href="#DejaVuSans-51"/>
       <use x="63.623047" xlink:href="#DejaVuSans-48"/>
      </g>
     </g>
    </g>
    <g id="xtick_5">
     <g id="line2d_9">
      <path clip-path="url(#p3aad15f5ae)" d="M 275.275775 108 
L 275.275775 14.4 
" style="fill:none;stroke:#b2b2b2;stroke-dasharray:2.96,1.28;stroke-dashoffset:0;stroke-opacity:0.3;stroke-width:0.8;"/>
     </g>
     <g id="line2d_10">
      <g>
       <use style="fill:#2b2b2b;stroke:#2b2b2b;stroke-width:0.8;" x="275.275775" xlink:href="#m96f17f1e66" y="108"/>
      </g>
     </g>
     <g id="text_5">
      <!-- 40 -->
      <defs>
       <path d="M 37.796875 64.3125 
L 12.890625 25.390625 
L 37.796875 25.390625 
z
M 35.203125 72.90625 
L 47.609375 72.90625 
L 47.609375 25.390625 
L 58.015625 25.390625 
L 58.015625 17.1875 
L 47.609375 17.1875 
L 47.609375 0 
L 37.796875 0 
L 37.796875 17.1875 
L 4.890625 17.1875 
L 4.890625 26.703125 
z
" id="DejaVuSans-52"/>
      </defs>
      <g style="fill:#2b2b2b;" transform="translate(268.913275 122.598438)scale(0.1 -0.1)">
       <use xlink:href="#DejaVuSans-52"/>
       <use x="63.623047" xlink:href="#DejaVuSans-48"/>
      </g>
     </g>
    </g>
    <g id="xtick_6">
     <g id="line2d_11">
      <path clip-path="url(#p3aad15f5ae)" d="M 321.308355 108 
L 321.308355 14.4 
" style="fill:none;stroke:#b2b2b2;stroke-dasharray:2.96,1.28;stroke-dashoffset:0;stroke-opacity:0.3;stroke-width:0.8;"/>
     </g>
     <g id="line2d_12">
      <g>
       <use style="fill:#2b2b2b;stroke:#2b2b2b;stroke-width:0.8;" x="321.308355" xlink:href="#m96f17f1e66" y="108"/>
      </g>
     </g>
     <g id="text_6">
      <!-- 50 -->
      <defs>
       <path d="M 10.796875 72.90625 
L 49.515625 72.90625 
L 49.515625 64.59375 
L 19.828125 64.59375 
L 19.828125 46.734375 
Q 21.96875 47.46875 24.109375 47.828125 
Q 26.265625 48.1875 28.421875 48.1875 
Q 40.625 48.1875 47.75 41.5 
Q 54.890625 34.8125 54.890625 23.390625 
Q 54.890625 11.625 47.5625 5.09375 
Q 40.234375 -1.421875 26.90625 -1.421875 
Q 22.3125 -1.421875 17.546875 -0.640625 
Q 12.796875 0.140625 7.71875 1.703125 
L 7.71875 11.625 
Q 12.109375 9.234375 16.796875 8.0625 
Q 21.484375 6.890625 26.703125 6.890625 
Q 35.15625 6.890625 40.078125 11.328125 
Q 45.015625 15.765625 45.015625 23.390625 
Q 45.015625 31 40.078125 35.4375 
Q 35.15625 39.890625 26.703125 39.890625 
Q 22.75 39.890625 18.8125 39.015625 
Q 14.890625 38.140625 10.796875 36.28125 
z
" id="DejaVuSans-53"/>
      </defs>
      <g style="fill:#2b2b2b;" transform="translate(314.945855 122.598438)scale(0.1 -0.1)">
       <use xlink:href="#DejaVuSans-53"/>
       <use x="63.623047" xlink:href="#DejaVuSans-48"/>
      </g>
     </g>
    </g>
    <g id="text_7">
     <!-- Pulse length, $\Delta t$ (ns) -->
     <defs>
      <path d="M 19.671875 64.796875 
L 19.671875 37.40625 
L 32.078125 37.40625 
Q 38.96875 37.40625 42.71875 40.96875 
Q 46.484375 44.53125 46.484375 51.125 
Q 46.484375 57.671875 42.71875 61.234375 
Q 38.96875 64.796875 32.078125 64.796875 
z
M 9.8125 72.90625 
L 32.078125 72.90625 
Q 44.34375 72.90625 50.609375 67.359375 
Q 56.890625 61.8125 56.890625 51.125 
Q 56.890625 40.328125 50.609375 34.8125 
Q 44.34375 29.296875 32.078125 29.296875 
L 19.671875 29.296875 
L 19.671875 0 
L 9.8125 0 
z
" id="DejaVuSans-80"/>
      <path d="M 8.5 21.578125 
L 8.5 54.6875 
L 17.484375 54.6875 
L 17.484375 21.921875 
Q 17.484375 14.15625 20.5 10.265625 
Q 23.53125 6.390625 29.59375 6.390625 
Q 36.859375 6.390625 41.078125 11.03125 
Q 45.3125 15.671875 45.3125 23.6875 
L 45.3125 54.6875 
L 54.296875 54.6875 
L 54.296875 0 
L 45.3125 0 
L 45.3125 8.40625 
Q 42.046875 3.421875 37.71875 1 
Q 33.40625 -1.421875 27.6875 -1.421875 
Q 18.265625 -1.421875 13.375 4.4375 
Q 8.5 10.296875 8.5 21.578125 
z
M 31.109375 56 
z
" id="DejaVuSans-117"/>
      <path d="M 9.421875 75.984375 
L 18.40625 75.984375 
L 18.40625 0 
L 9.421875 0 
z
" id="DejaVuSans-108"/>
      <path d="M 44.28125 53.078125 
L 44.28125 44.578125 
Q 40.484375 46.53125 36.375 47.5 
Q 32.28125 48.484375 27.875 48.484375 
Q 21.1875 48.484375 17.84375 46.4375 
Q 14.5 44.390625 14.5 40.28125 
Q 14.5 37.15625 16.890625 35.375 
Q 19.28125 33.59375 26.515625 31.984375 
L 29.59375 31.296875 
Q 39.15625 29.25 43.1875 25.515625 
Q 47.21875 21.78125 47.21875 15.09375 
Q 47.21875 7.46875 41.1875 3.015625 
Q 35.15625 -1.421875 24.609375 -1.421875 
Q 20.21875 -1.421875 15.453125 -0.5625 
Q 10.6875 0.296875 5.421875 2 
L 5.421875 11.28125 
Q 10.40625 8.6875 15.234375 7.390625 
Q 20.0625 6.109375 24.8125 6.109375 
Q 31.15625 6.109375 34.5625 8.28125 
Q 37.984375 10.453125 37.984375 14.40625 
Q 37.984375 18.0625 35.515625 20.015625 
Q 33.0625 21.96875 24.703125 23.78125 
L 21.578125 24.515625 
Q 13.234375 26.265625 9.515625 29.90625 
Q 5.8125 33.546875 5.8125 39.890625 
Q 5.8125 47.609375 11.28125 51.796875 
Q 16.75 56 26.8125 56 
Q 31.78125 56 36.171875 55.265625 
Q 40.578125 54.546875 44.28125 53.078125 
z
" id="DejaVuSans-115"/>
      <path d="M 56.203125 29.59375 
L 56.203125 25.203125 
L 14.890625 25.203125 
Q 15.484375 15.921875 20.484375 11.0625 
Q 25.484375 6.203125 34.421875 6.203125 
Q 39.59375 6.203125 44.453125 7.46875 
Q 49.3125 8.734375 54.109375 11.28125 
L 54.109375 2.78125 
Q 49.265625 0.734375 44.1875 -0.34375 
Q 39.109375 -1.421875 33.890625 -1.421875 
Q 20.796875 -1.421875 13.15625 6.1875 
Q 5.515625 13.8125 5.515625 26.8125 
Q 5.515625 40.234375 12.765625 48.109375 
Q 20.015625 56 32.328125 56 
Q 43.359375 56 49.78125 48.890625 
Q 56.203125 41.796875 56.203125 29.59375 
z
M 47.21875 32.234375 
Q 47.125 39.59375 43.09375 43.984375 
Q 39.0625 48.390625 32.421875 48.390625 
Q 24.90625 48.390625 20.390625 44.140625 
Q 15.875 39.890625 15.1875 32.171875 
z
" id="DejaVuSans-101"/>
      <path id="DejaVuSans-32"/>
      <path d="M 54.890625 33.015625 
L 54.890625 0 
L 45.90625 0 
L 45.90625 32.71875 
Q 45.90625 40.484375 42.875 44.328125 
Q 39.84375 48.1875 33.796875 48.1875 
Q 26.515625 48.1875 22.3125 43.546875 
Q 18.109375 38.921875 18.109375 30.90625 
L 18.109375 0 
L 9.078125 0 
L 9.078125 54.6875 
L 18.109375 54.6875 
L 18.109375 46.1875 
Q 21.34375 51.125 25.703125 53.5625 
Q 30.078125 56 35.796875 56 
Q 45.21875 56 50.046875 50.171875 
Q 54.890625 44.34375 54.890625 33.015625 
z
" id="DejaVuSans-110"/>
      <path d="M 45.40625 27.984375 
Q 45.40625 37.75 41.375 43.109375 
Q 37.359375 48.484375 30.078125 48.484375 
Q 22.859375 48.484375 18.828125 43.109375 
Q 14.796875 37.75 14.796875 27.984375 
Q 14.796875 18.265625 18.828125 12.890625 
Q 22.859375 7.515625 30.078125 7.515625 
Q 37.359375 7.515625 41.375 12.890625 
Q 45.40625 18.265625 45.40625 27.984375 
z
M 54.390625 6.78125 
Q 54.390625 -7.171875 48.1875 -13.984375 
Q 42 -20.796875 29.203125 -20.796875 
Q 24.46875 -20.796875 20.265625 -20.09375 
Q 16.0625 -19.390625 12.109375 -17.921875 
L 12.109375 -9.1875 
Q 16.0625 -11.328125 19.921875 -12.34375 
Q 23.78125 -13.375 27.78125 -13.375 
Q 36.625 -13.375 41.015625 -8.765625 
Q 45.40625 -4.15625 45.40625 5.171875 
L 45.40625 9.625 
Q 42.625 4.78125 38.28125 2.390625 
Q 33.9375 0 27.875 0 
Q 17.828125 0 11.671875 7.65625 
Q 5.515625 15.328125 5.515625 27.984375 
Q 5.515625 40.671875 11.671875 48.328125 
Q 17.828125 56 27.875 56 
Q 33.9375 56 38.28125 53.609375 
Q 42.625 51.21875 45.40625 46.390625 
L 45.40625 54.6875 
L 54.390625 54.6875 
z
" id="DejaVuSans-103"/>
      <path d="M 18.3125 70.21875 
L 18.3125 54.6875 
L 36.8125 54.6875 
L 36.8125 47.703125 
L 18.3125 47.703125 
L 18.3125 18.015625 
Q 18.3125 11.328125 20.140625 9.421875 
Q 21.96875 7.515625 27.59375 7.515625 
L 36.8125 7.515625 
L 36.8125 0 
L 27.59375 0 
Q 17.1875 0 13.234375 3.875 
Q 9.28125 7.765625 9.28125 18.015625 
L 9.28125 47.703125 
L 2.6875 47.703125 
L 2.6875 54.6875 
L 9.28125 54.6875 
L 9.28125 70.21875 
z
" id="DejaVuSans-116"/>
      <path d="M 54.890625 33.015625 
L 54.890625 0 
L 45.90625 0 
L 45.90625 32.71875 
Q 45.90625 40.484375 42.875 44.328125 
Q 39.84375 48.1875 33.796875 48.1875 
Q 26.515625 48.1875 22.3125 43.546875 
Q 18.109375 38.921875 18.109375 30.90625 
L 18.109375 0 
L 9.078125 0 
L 9.078125 75.984375 
L 18.109375 75.984375 
L 18.109375 46.1875 
Q 21.34375 51.125 25.703125 53.5625 
Q 30.078125 56 35.796875 56 
Q 45.21875 56 50.046875 50.171875 
Q 54.890625 44.34375 54.890625 33.015625 
z
" id="DejaVuSans-104"/>
      <path d="M 11.71875 12.40625 
L 22.015625 12.40625 
L 22.015625 4 
L 14.015625 -11.625 
L 7.71875 -11.625 
L 11.71875 4 
z
" id="DejaVuSans-44"/>
      <path d="M 5.421875 0 
Q 4.59375 0 4.59375 0.78125 
Q 4.640625 0.875 4.65625 0.921875 
Q 4.6875 0.984375 4.6875 1.125 
L 39.109375 70.515625 
Q 39.546875 71.578125 40.921875 71.578125 
L 42.28125 71.578125 
Q 43.65625 71.578125 44.09375 70.515625 
L 78.515625 1.125 
Q 78.5625 1.03125 78.578125 0.953125 
Q 78.609375 0.875 78.609375 0.78125 
Q 78.609375 0 77.78125 0 
z
M 12.015625 8.015625 
L 64.703125 8.015625 
L 38.375 61.078125 
z
" id="Cmr10-162"/>
      <path d="M 6.203125 8.109375 
Q 6.203125 9.578125 6.5 10.890625 
L 13.71875 39.59375 
L 3.21875 39.59375 
Q 2.203125 39.59375 2.203125 40.921875 
Q 2.59375 43.109375 3.515625 43.109375 
L 14.59375 43.109375 
L 18.609375 59.421875 
Q 19 60.75 20.171875 61.671875 
Q 21.34375 62.59375 22.796875 62.59375 
Q 24.078125 62.59375 24.921875 61.828125 
Q 25.78125 61.078125 25.78125 59.8125 
Q 25.78125 59.515625 25.75 59.34375 
Q 25.734375 59.1875 25.6875 58.984375 
L 21.6875 43.109375 
L 31.984375 43.109375 
Q 33.015625 43.109375 33.015625 41.796875 
Q 32.953125 41.546875 32.8125 40.953125 
Q 32.671875 40.375 32.421875 39.984375 
Q 32.171875 39.59375 31.6875 39.59375 
L 20.796875 39.59375 
L 13.625 10.6875 
Q 12.890625 7.859375 12.890625 5.8125 
Q 12.890625 1.515625 15.828125 1.515625 
Q 20.21875 1.515625 23.609375 5.640625 
Q 27 9.765625 28.8125 14.703125 
Q 29.203125 15.28125 29.59375 15.28125 
L 30.8125 15.28125 
Q 31.203125 15.28125 31.4375 15.015625 
Q 31.6875 14.75 31.6875 14.40625 
Q 31.6875 14.203125 31.59375 14.109375 
Q 29.390625 8.0625 25.1875 3.46875 
Q 21 -1.125 15.578125 -1.125 
Q 11.625 -1.125 8.90625 1.453125 
Q 6.203125 4.046875 6.203125 8.109375 
z
" id="Cmmi10-116"/>
      <path d="M 31 75.875 
Q 24.46875 64.65625 21.28125 53.65625 
Q 18.109375 42.671875 18.109375 31.390625 
Q 18.109375 20.125 21.3125 9.0625 
Q 24.515625 -2 31 -13.1875 
L 23.1875 -13.1875 
Q 15.875 -1.703125 12.234375 9.375 
Q 8.59375 20.453125 8.59375 31.390625 
Q 8.59375 42.28125 12.203125 53.3125 
Q 15.828125 64.359375 23.1875 75.875 
z
" id="DejaVuSans-40"/>
      <path d="M 8.015625 75.875 
L 15.828125 75.875 
Q 23.140625 64.359375 26.78125 53.3125 
Q 30.421875 42.28125 30.421875 31.390625 
Q 30.421875 20.453125 26.78125 9.375 
Q 23.140625 -1.703125 15.828125 -13.1875 
L 8.015625 -13.1875 
Q 14.5 -2 17.703125 9.0625 
Q 20.90625 20.125 20.90625 31.390625 
Q 20.90625 42.671875 17.703125 53.65625 
Q 14.5 64.65625 8.015625 75.875 
z
" id="DejaVuSans-41"/>
     </defs>
     <g transform="translate(159.4 136.278125)scale(0.1 -0.1)">
      <use transform="translate(0 0.015625)" xlink:href="#DejaVuSans-80"/>
      <use transform="translate(60.302734 0.015625)" xlink:href="#DejaVuSans-117"/>
      <use transform="translate(123.681641 0.015625)" xlink:href="#DejaVuSans-108"/>
      <use transform="translate(151.464844 0.015625)" xlink:href="#DejaVuSans-115"/>
      <use transform="translate(203.564453 0.015625)" xlink:href="#DejaVuSans-101"/>
      <use transform="translate(265.087891 0.015625)" xlink:href="#DejaVuSans-32"/>
      <use transform="translate(296.875 0.015625)" xlink:href="#DejaVuSans-108"/>
      <use transform="translate(324.658203 0.015625)" xlink:href="#DejaVuSans-101"/>
      <use transform="translate(386.181641 0.015625)" xlink:href="#DejaVuSans-110"/>
      <use transform="translate(449.560547 0.015625)" xlink:href="#DejaVuSans-103"/>
      <use transform="translate(513.037109 0.015625)" xlink:href="#DejaVuSans-116"/>
      <use transform="translate(552.246094 0.015625)" xlink:href="#DejaVuSans-104"/>
      <use transform="translate(615.625 0.015625)" xlink:href="#DejaVuSans-44"/>
      <use transform="translate(647.412109 0.015625)" xlink:href="#DejaVuSans-32"/>
      <use transform="translate(679.199219 0.015625)" xlink:href="#Cmr10-162"/>
      <use transform="translate(762.5 0.015625)" xlink:href="#Cmmi10-116"/>
      <use transform="translate(798.583984 0.015625)" xlink:href="#DejaVuSans-32"/>
      <use transform="translate(830.371094 0.015625)" xlink:href="#DejaVuSans-40"/>
      <use transform="translate(869.384766 0.015625)" xlink:href="#DejaVuSans-110"/>
      <use transform="translate(932.763672 0.015625)" xlink:href="#DejaVuSans-115"/>
      <use transform="translate(984.863281 0.015625)" xlink:href="#DejaVuSans-41"/>
     </g>
    </g>
   </g>
   <g id="matplotlib.axis_2">
    <g id="ytick_1">
     <g id="line2d_13">
      <path clip-path="url(#p3aad15f5ae)" d="M 79.2 91.054115 
L 342 91.054115 
" style="fill:none;stroke:#b2b2b2;stroke-dasharray:2.96,1.28;stroke-dashoffset:0;stroke-opacity:0.3;stroke-width:0.8;"/>
     </g>
     <g id="line2d_14">
      <defs>
       <path d="M 0 0 
L -3.5 0 
" id="m03583edf5b" style="stroke:#2b2b2b;stroke-width:0.8;"/>
      </defs>
      <g>
       <use style="fill:#2b2b2b;stroke:#2b2b2b;stroke-width:0.8;" x="79.2" xlink:href="#m03583edf5b" y="91.054115"/>
      </g>
     </g>
     <g id="text_8">
      <!-- −0.25 -->
      <defs>
       <path d="M 10.59375 35.5 
L 73.1875 35.5 
L 73.1875 27.203125 
L 10.59375 27.203125 
z
" id="DejaVuSans-8722"/>
       <path d="M 10.6875 12.40625 
L 21 12.40625 
L 21 0 
L 10.6875 0 
z
" id="DejaVuSans-46"/>
      </defs>
      <g style="fill:#2b2b2b;" transform="translate(41.554688 94.853334)scale(0.1 -0.1)">
       <use xlink:href="#DejaVuSans-8722"/>
       <use x="83.789062" xlink:href="#DejaVuSans-48"/>
       <use x="147.412109" xlink:href="#DejaVuSans-46"/>
       <use x="179.199219" xlink:href="#DejaVuSans-50"/>
       <use x="242.822266" xlink:href="#DejaVuSans-53"/>
      </g>
     </g>
    </g>
    <g id="ytick_2">
     <g id="line2d_15">
      <path clip-path="url(#p3aad15f5ae)" d="M 79.2 65.745636 
L 342 65.745636 
" style="fill:none;stroke:#b2b2b2;stroke-dasharray:2.96,1.28;stroke-dashoffset:0;stroke-opacity:0.3;stroke-width:0.8;"/>
     </g>
     <g id="line2d_16">
      <g>
       <use style="fill:#2b2b2b;stroke:#2b2b2b;stroke-width:0.8;" x="79.2" xlink:href="#m03583edf5b" y="65.745636"/>
      </g>
     </g>
     <g id="text_9">
      <!-- 0.00 -->
      <g style="fill:#2b2b2b;" transform="translate(49.934375 69.544855)scale(0.1 -0.1)">
       <use xlink:href="#DejaVuSans-48"/>
       <use x="63.623047" xlink:href="#DejaVuSans-46"/>
       <use x="95.410156" xlink:href="#DejaVuSans-48"/>
       <use x="159.033203" xlink:href="#DejaVuSans-48"/>
      </g>
     </g>
    </g>
    <g id="ytick_3">
     <g id="line2d_17">
      <path clip-path="url(#p3aad15f5ae)" d="M 79.2 40.437157 
L 342 40.437157 
" style="fill:none;stroke:#b2b2b2;stroke-dasharray:2.96,1.28;stroke-dashoffset:0;stroke-opacity:0.3;stroke-width:0.8;"/>
     </g>
     <g id="line2d_18">
      <g>
       <use style="fill:#2b2b2b;stroke:#2b2b2b;stroke-width:0.8;" x="79.2" xlink:href="#m03583edf5b" y="40.437157"/>
      </g>
     </g>
     <g id="text_10">
      <!-- 0.25 -->
      <g style="fill:#2b2b2b;" transform="translate(49.934375 44.236376)scale(0.1 -0.1)">
       <use xlink:href="#DejaVuSans-48"/>
       <use x="63.623047" xlink:href="#DejaVuSans-46"/>
       <use x="95.410156" xlink:href="#DejaVuSans-50"/>
       <use x="159.033203" xlink:href="#DejaVuSans-53"/>
      </g>
     </g>
    </g>
    <g id="ytick_4">
     <g id="line2d_19">
      <path clip-path="url(#p3aad15f5ae)" d="M 79.2 15.128678 
L 342 15.128678 
" style="fill:none;stroke:#b2b2b2;stroke-dasharray:2.96,1.28;stroke-dashoffset:0;stroke-opacity:0.3;stroke-width:0.8;"/>
     </g>
     <g id="line2d_20">
      <g>
       <use style="fill:#2b2b2b;stroke:#2b2b2b;stroke-width:0.8;" x="79.2" xlink:href="#m03583edf5b" y="15.128678"/>
      </g>
     </g>
     <g id="text_11">
      <!-- 0.50 -->
      <g style="fill:#2b2b2b;" transform="translate(49.934375 18.927896)scale(0.1 -0.1)">
       <use xlink:href="#DejaVuSans-48"/>
       <use x="63.623047" xlink:href="#DejaVuSans-46"/>
       <use x="95.410156" xlink:href="#DejaVuSans-53"/>
       <use x="159.033203" xlink:href="#DejaVuSans-48"/>
      </g>
     </g>
    </g>
    <g id="text_12">
     <!-- Real amplitude (a.u) -->
     <defs>
      <path d="M 44.390625 34.1875 
Q 47.5625 33.109375 50.5625 29.59375 
Q 53.5625 26.078125 56.59375 19.921875 
L 66.609375 0 
L 56 0 
L 46.6875 18.703125 
Q 43.0625 26.03125 39.671875 28.421875 
Q 36.28125 30.8125 30.421875 30.8125 
L 19.671875 30.8125 
L 19.671875 0 
L 9.8125 0 
L 9.8125 72.90625 
L 32.078125 72.90625 
Q 44.578125 72.90625 50.734375 67.671875 
Q 56.890625 62.453125 56.890625 51.90625 
Q 56.890625 45.015625 53.6875 40.46875 
Q 50.484375 35.9375 44.390625 34.1875 
z
M 19.671875 64.796875 
L 19.671875 38.921875 
L 32.078125 38.921875 
Q 39.203125 38.921875 42.84375 42.21875 
Q 46.484375 45.515625 46.484375 51.90625 
Q 46.484375 58.296875 42.84375 61.546875 
Q 39.203125 64.796875 32.078125 64.796875 
z
" id="DejaVuSans-82"/>
      <path d="M 34.28125 27.484375 
Q 23.390625 27.484375 19.1875 25 
Q 14.984375 22.515625 14.984375 16.5 
Q 14.984375 11.71875 18.140625 8.90625 
Q 21.296875 6.109375 26.703125 6.109375 
Q 34.1875 6.109375 38.703125 11.40625 
Q 43.21875 16.703125 43.21875 25.484375 
L 43.21875 27.484375 
z
M 52.203125 31.203125 
L 52.203125 0 
L 43.21875 0 
L 43.21875 8.296875 
Q 40.140625 3.328125 35.546875 0.953125 
Q 30.953125 -1.421875 24.3125 -1.421875 
Q 15.921875 -1.421875 10.953125 3.296875 
Q 6 8.015625 6 15.921875 
Q 6 25.140625 12.171875 29.828125 
Q 18.359375 34.515625 30.609375 34.515625 
L 43.21875 34.515625 
L 43.21875 35.40625 
Q 43.21875 41.609375 39.140625 45 
Q 35.0625 48.390625 27.6875 48.390625 
Q 23 48.390625 18.546875 47.265625 
Q 14.109375 46.140625 10.015625 43.890625 
L 10.015625 52.203125 
Q 14.9375 54.109375 19.578125 55.046875 
Q 24.21875 56 28.609375 56 
Q 40.484375 56 46.34375 49.84375 
Q 52.203125 43.703125 52.203125 31.203125 
z
" id="DejaVuSans-97"/>
      <path d="M 52 44.1875 
Q 55.375 50.25 60.0625 53.125 
Q 64.75 56 71.09375 56 
Q 79.640625 56 84.28125 50.015625 
Q 88.921875 44.046875 88.921875 33.015625 
L 88.921875 0 
L 79.890625 0 
L 79.890625 32.71875 
Q 79.890625 40.578125 77.09375 44.375 
Q 74.3125 48.1875 68.609375 48.1875 
Q 61.625 48.1875 57.5625 43.546875 
Q 53.515625 38.921875 53.515625 30.90625 
L 53.515625 0 
L 44.484375 0 
L 44.484375 32.71875 
Q 44.484375 40.625 41.703125 44.40625 
Q 38.921875 48.1875 33.109375 48.1875 
Q 26.21875 48.1875 22.15625 43.53125 
Q 18.109375 38.875 18.109375 30.90625 
L 18.109375 0 
L 9.078125 0 
L 9.078125 54.6875 
L 18.109375 54.6875 
L 18.109375 46.1875 
Q 21.1875 51.21875 25.484375 53.609375 
Q 29.78125 56 35.6875 56 
Q 41.65625 56 45.828125 52.96875 
Q 50 49.953125 52 44.1875 
z
" id="DejaVuSans-109"/>
      <path d="M 18.109375 8.203125 
L 18.109375 -20.796875 
L 9.078125 -20.796875 
L 9.078125 54.6875 
L 18.109375 54.6875 
L 18.109375 46.390625 
Q 20.953125 51.265625 25.265625 53.625 
Q 29.59375 56 35.59375 56 
Q 45.5625 56 51.78125 48.09375 
Q 58.015625 40.1875 58.015625 27.296875 
Q 58.015625 14.40625 51.78125 6.484375 
Q 45.5625 -1.421875 35.59375 -1.421875 
Q 29.59375 -1.421875 25.265625 0.953125 
Q 20.953125 3.328125 18.109375 8.203125 
z
M 48.6875 27.296875 
Q 48.6875 37.203125 44.609375 42.84375 
Q 40.53125 48.484375 33.40625 48.484375 
Q 26.265625 48.484375 22.1875 42.84375 
Q 18.109375 37.203125 18.109375 27.296875 
Q 18.109375 17.390625 22.1875 11.75 
Q 26.265625 6.109375 33.40625 6.109375 
Q 40.53125 6.109375 44.609375 11.75 
Q 48.6875 17.390625 48.6875 27.296875 
z
" id="DejaVuSans-112"/>
      <path d="M 9.421875 54.6875 
L 18.40625 54.6875 
L 18.40625 0 
L 9.421875 0 
z
M 9.421875 75.984375 
L 18.40625 75.984375 
L 18.40625 64.59375 
L 9.421875 64.59375 
z
" id="DejaVuSans-105"/>
      <path d="M 45.40625 46.390625 
L 45.40625 75.984375 
L 54.390625 75.984375 
L 54.390625 0 
L 45.40625 0 
L 45.40625 8.203125 
Q 42.578125 3.328125 38.25 0.953125 
Q 33.9375 -1.421875 27.875 -1.421875 
Q 17.96875 -1.421875 11.734375 6.484375 
Q 5.515625 14.40625 5.515625 27.296875 
Q 5.515625 40.1875 11.734375 48.09375 
Q 17.96875 56 27.875 56 
Q 33.9375 56 38.25 53.625 
Q 42.578125 51.265625 45.40625 46.390625 
z
M 14.796875 27.296875 
Q 14.796875 17.390625 18.875 11.75 
Q 22.953125 6.109375 30.078125 6.109375 
Q 37.203125 6.109375 41.296875 11.75 
Q 45.40625 17.390625 45.40625 27.296875 
Q 45.40625 37.203125 41.296875 42.84375 
Q 37.203125 48.484375 30.078125 48.484375 
Q 22.953125 48.484375 18.875 42.84375 
Q 14.796875 37.203125 14.796875 27.296875 
z
" id="DejaVuSans-100"/>
     </defs>
     <g transform="translate(35.475 112.146875)rotate(-90)scale(0.1 -0.1)">
      <use xlink:href="#DejaVuSans-82"/>
      <use x="64.982422" xlink:href="#DejaVuSans-101"/>
      <use x="126.505859" xlink:href="#DejaVuSans-97"/>
      <use x="187.785156" xlink:href="#DejaVuSans-108"/>
      <use x="215.568359" xlink:href="#DejaVuSans-32"/>
      <use x="247.355469" xlink:href="#DejaVuSans-97"/>
      <use x="308.634766" xlink:href="#DejaVuSans-109"/>
      <use x="406.046875" xlink:href="#DejaVuSans-112"/>
      <use x="469.523438" xlink:href="#DejaVuSans-108"/>
      <use x="497.306641" xlink:href="#DejaVuSans-105"/>
      <use x="525.089844" xlink:href="#DejaVuSans-116"/>
      <use x="564.298828" xlink:href="#DejaVuSans-117"/>
      <use x="627.677734" xlink:href="#DejaVuSans-100"/>
      <use x="691.154297" xlink:href="#DejaVuSans-101"/>
      <use x="752.677734" xlink:href="#DejaVuSans-32"/>
      <use x="784.464844" xlink:href="#DejaVuSans-40"/>
      <use x="823.478516" xlink:href="#DejaVuSans-97"/>
      <use x="884.757812" xlink:href="#DejaVuSans-46"/>
      <use x="916.544922" xlink:href="#DejaVuSans-117"/>
      <use x="979.923828" xlink:href="#DejaVuSans-41"/>
     </g>
    </g>
   </g>
   <g id="line2d_21">
    <path clip-path="url(#p3aad15f5ae)" d="M 91.145455 65.746648 
L 94.140567 77.477311 
L 95.983714 83.917681 
L 97.596467 88.795203 
L 98.978827 92.287089 
L 100.130793 94.649424 
L 101.282759 96.47532 
L 102.204333 97.532054 
L 103.125906 98.220127 
L 103.817086 98.491484 
L 104.508266 98.552694 
L 105.199445 98.40484 
L 105.890625 98.050326 
L 106.812199 97.262753 
L 107.733772 96.126771 
L 108.655345 94.658455 
L 109.807311 92.386011 
L 111.189671 89.079415 
L 112.802424 84.540941 
L 114.645571 78.663944 
L 117.640683 68.242039 
L 121.326976 55.575046 
L 123.170122 49.961846 
L 124.782875 45.708838 
L 126.165235 42.662415 
L 127.317202 40.600081 
L 128.469168 39.004553 
L 129.390741 38.079752 
L 130.312315 37.47589 
L 131.003494 37.236048 
L 131.694674 37.179205 
L 132.385854 37.30444 
L 133.077034 37.60968 
L 133.998607 38.290981 
L 134.92018 39.275849 
L 136.072147 40.912268 
L 137.224113 42.966899 
L 138.606473 45.92625 
L 140.219226 49.954206 
L 142.292766 55.812009 
L 146.439845 68.481908 
L 148.974171 75.844445 
L 150.817318 80.578798 
L 152.430071 84.10997 
L 153.812431 86.592006 
L 154.964397 88.232801 
L 156.116363 89.458546 
L 157.037937 90.128791 
L 157.95951 90.517551 
L 158.881083 90.623065 
L 159.802656 90.446784 
L 160.724229 89.993329 
L 161.645803 89.270405 
L 162.567376 88.288687 
L 163.719342 86.718427 
L 165.101702 84.374078 
L 166.714455 81.089779 
L 168.557601 76.76364 
L 171.091928 70.184941 
L 175.930187 57.539062 
L 177.773333 53.342349 
L 179.386086 50.184791 
L 180.768446 47.941825 
L 181.920412 46.439071 
L 183.072379 45.29379 
L 183.993952 44.645925 
L 184.915525 44.242296 
L 185.837098 44.085178 
L 186.758672 44.174045 
L 187.680245 44.505598 
L 188.601818 45.07383 
L 189.753784 46.103573 
L 190.905751 47.467188 
L 192.288111 49.504591 
L 193.900864 52.360584 
L 195.74401 56.124393 
L 198.278336 61.850674 
L 203.116595 72.8654 
L 204.959742 76.523271 
L 206.572495 79.276699 
L 207.954855 81.233691 
L 209.106821 82.545771 
L 210.258788 83.546768 
L 211.410754 84.22268 
L 212.332327 84.523696 
L 213.2539 84.609944 
L 214.175474 84.482455 
L 215.097047 84.144663 
L 216.01862 83.602343 
L 217.170586 82.649266 
L 218.322553 81.409677 
L 219.704913 79.579715 
L 221.317666 77.038623 
L 223.391205 73.276285 
L 226.386318 67.29067 
L 230.072611 59.998016 
L 232.14615 56.384196 
L 233.758904 53.983184 
L 235.141263 52.275714 
L 236.523623 50.933029 
L 237.67559 50.113928 
L 238.827556 49.57963 
L 239.749129 49.361514 
L 240.670702 49.330393 
L 241.592276 49.484872 
L 242.744242 49.933482 
L 243.896208 50.655299 
L 245.048175 51.634431 
L 246.430535 53.120267 
L 248.043288 55.22803 
L 249.886434 58.032642 
L 252.42076 62.339117 
L 257.719806 71.467827 
L 259.793346 74.514352 
L 261.406099 76.504066 
L 262.788459 77.891374 
L 264.170818 78.951936 
L 265.322785 79.569793 
L 266.474751 79.937055 
L 267.626718 80.050176 
L 268.778684 79.910126 
L 269.930651 79.522321 
L 271.082617 78.896475 
L 272.464977 77.850938 
L 273.847337 76.513654 
L 275.46009 74.635682 
L 277.533629 71.827805 
L 280.528742 67.315017 
L 284.675821 61.10235 
L 286.749361 58.401065 
L 288.362114 56.619987 
L 289.974867 55.181687 
L 291.357227 54.255311 
L 292.509193 53.71479 
L 293.66116 53.392423 
L 294.813126 53.291342 
L 295.965093 53.410749 
L 297.117059 53.745973 
L 298.269026 54.288597 
L 299.651386 55.196421 
L 301.033745 56.358583 
L 302.646498 57.991619 
L 304.720038 60.434553 
L 307.715151 64.362915 
L 311.86223 69.77452 
L 313.93577 72.129005 
L 315.778916 73.880784 
L 317.391669 75.089888 
L 318.774029 75.855981 
L 320.156389 76.355516 
L 321.308355 76.561527 
L 321.308355 76.561527 
" style="fill:none;stroke:#8b7e66;stroke-linecap:square;stroke-width:1.2;"/>
   </g>
   <g id="patch_3">
    <path d="M 79.2 108 
L 79.2 14.4 
" style="fill:none;stroke:#2b2b2b;stroke-linecap:square;stroke-linejoin:miter;stroke-width:0.8;"/>
   </g>
   <g id="patch_4">
    <path d="M 342 108 
L 342 14.4 
" style="fill:none;stroke:#2b2b2b;stroke-linecap:square;stroke-linejoin:miter;stroke-width:0.8;"/>
   </g>
   <g id="patch_5">
    <path d="M 79.2 108 
L 342 108 
" style="fill:none;stroke:#2b2b2b;stroke-linecap:square;stroke-linejoin:miter;stroke-width:0.8;"/>
   </g>
   <g id="patch_6">
    <path d="M 79.2 14.4 
L 342 14.4 
" style="fill:none;stroke:#2b2b2b;stroke-linecap:square;stroke-linejoin:miter;stroke-width:0.8;"/>
   </g>
  </g>
 </g>
 <defs>
  <clipPath id="p3aad15f5ae">
   <rect height="93.6" width="262.8" x="79.2" y="14.4"/>
  </clipPath>
 </defs>
</svg>
