<?xml version="1.0" encoding="utf-8" standalone="no"?>
<!DOCTYPE svg PUBLIC "-//W3C//DTD SVG 1.1//EN"
  "http://www.w3.org/Graphics/SVG/1.1/DTD/svg11.dtd">
<!-- Created with matplotlib (https://matplotlib.org/) -->
<svg height="396pt" version="1.1" viewBox="0 0 648 396" width="648pt" xmlns="http://www.w3.org/2000/svg" xmlns:xlink="http://www.w3.org/1999/xlink">
 <defs>
  <style type="text/css">
*{stroke-linecap:butt;stroke-linejoin:round;}
  </style>
 </defs>
 <g id="figure_1">
  <g id="patch_1">
   <path d="M 0 396 
L 648 396 
L 648 0 
L 0 0 
z
" style="fill:none;"/>
  </g>
  <g id="axes_1">
   <g id="patch_2">
    <path d="M 129.6 336.6 
L 583.2 336.6 
L 583.2 39.6 
L 129.6 39.6 
z
" style="fill:none;"/>
   </g>
   <g id="PathCollection_1">
    <defs>
     <path d="M 0 2.25 
C 0.596707 2.25 1.169055 2.012926 1.59099 1.59099 
C 2.012926 1.169055 2.25 0.596707 2.25 0 
C 2.25 -0.596707 2.012926 -1.169055 1.59099 -1.59099 
C 1.169055 -2.012926 0.596707 -2.25 0 -2.25 
C -0.596707 -2.25 -1.169055 -2.012926 -1.59099 -1.59099 
C -2.012926 -1.169055 -2.25 -0.596707 -2.25 0 
C -2.25 0.596707 -2.012926 1.169055 -1.59099 1.59099 
C -1.169055 2.012926 -0.596707 2.25 0 2.25 
z
" id="m2b8202b400" style="stroke:#7a68a6;"/>
    </defs>
    <g clip-path="url(#p539d53f56b)">
     <use style="fill:#7a68a6;stroke:#7a68a6;" x="150.228" xlink:href="#m2b8202b400" y="275.323686"/>
     <use style="fill:#7a68a6;stroke:#7a68a6;" x="153.526752" xlink:href="#m2b8202b400" y="277.847614"/>
     <use style="fill:#7a68a6;stroke:#7a68a6;" x="156.825504" xlink:href="#m2b8202b400" y="307.571113"/>
     <use style="fill:#7a68a6;stroke:#7a68a6;" x="160.124256" xlink:href="#m2b8202b400" y="318.517611"/>
     <use style="fill:#7a68a6;stroke:#7a68a6;" x="163.423008" xlink:href="#m2b8202b400" y="284.066813"/>
     <use style="fill:#7a68a6;stroke:#7a68a6;" x="166.72176" xlink:href="#m2b8202b400" y="286.846874"/>
     <use style="fill:#7a68a6;stroke:#7a68a6;" x="170.020512" xlink:href="#m2b8202b400" y="311.201087"/>
     <use style="fill:#7a68a6;stroke:#7a68a6;" x="173.319264" xlink:href="#m2b8202b400" y="304.311384"/>
     <use style="fill:#7a68a6;stroke:#7a68a6;" x="176.618016" xlink:href="#m2b8202b400" y="260.292397"/>
     <use style="fill:#7a68a6;stroke:#7a68a6;" x="179.916768" xlink:href="#m2b8202b400" y="271.168647"/>
     <use style="fill:#7a68a6;stroke:#7a68a6;" x="183.21552" xlink:href="#m2b8202b400" y="267.812406"/>
     <use style="fill:#7a68a6;stroke:#7a68a6;" x="186.514272" xlink:href="#m2b8202b400" y="253.014618"/>
     <use style="fill:#7a68a6;stroke:#7a68a6;" x="189.813024" xlink:href="#m2b8202b400" y="206.049258"/>
     <use style="fill:#7a68a6;stroke:#7a68a6;" x="193.111776" xlink:href="#m2b8202b400" y="214.3046"/>
     <use style="fill:#7a68a6;stroke:#7a68a6;" x="196.410528" xlink:href="#m2b8202b400" y="167.182007"/>
     <use style="fill:#7a68a6;stroke:#7a68a6;" x="199.70928" xlink:href="#m2b8202b400" y="170.087648"/>
     <use style="fill:#7a68a6;stroke:#7a68a6;" x="203.008032" xlink:href="#m2b8202b400" y="113.492276"/>
     <use style="fill:#7a68a6;stroke:#7a68a6;" x="206.306784" xlink:href="#m2b8202b400" y="122.606572"/>
     <use style="fill:#7a68a6;stroke:#7a68a6;" x="209.605536" xlink:href="#m2b8202b400" y="53.686195"/>
     <use style="fill:#7a68a6;stroke:#7a68a6;" x="212.904288" xlink:href="#m2b8202b400" y="116.337458"/>
     <use style="fill:#7a68a6;stroke:#7a68a6;" x="216.20304" xlink:href="#m2b8202b400" y="130.532558"/>
     <use style="fill:#7a68a6;stroke:#7a68a6;" x="219.501792" xlink:href="#m2b8202b400" y="146.854806"/>
     <use style="fill:#7a68a6;stroke:#7a68a6;" x="222.800544" xlink:href="#m2b8202b400" y="127.727974"/>
     <use style="fill:#7a68a6;stroke:#7a68a6;" x="226.099296" xlink:href="#m2b8202b400" y="180.620657"/>
     <use style="fill:#7a68a6;stroke:#7a68a6;" x="229.398048" xlink:href="#m2b8202b400" y="171.932826"/>
     <use style="fill:#7a68a6;stroke:#7a68a6;" x="232.6968" xlink:href="#m2b8202b400" y="191.794184"/>
     <use style="fill:#7a68a6;stroke:#7a68a6;" x="235.995552" xlink:href="#m2b8202b400" y="187.769249"/>
     <use style="fill:#7a68a6;stroke:#7a68a6;" x="239.294304" xlink:href="#m2b8202b400" y="229.869246"/>
     <use style="fill:#7a68a6;stroke:#7a68a6;" x="242.593056" xlink:href="#m2b8202b400" y="248.416382"/>
     <use style="fill:#7a68a6;stroke:#7a68a6;" x="245.891808" xlink:href="#m2b8202b400" y="249.017054"/>
     <use style="fill:#7a68a6;stroke:#7a68a6;" x="249.19056" xlink:href="#m2b8202b400" y="262.84822"/>
     <use style="fill:#7a68a6;stroke:#7a68a6;" x="252.489312" xlink:href="#m2b8202b400" y="286.51381"/>
     <use style="fill:#7a68a6;stroke:#7a68a6;" x="255.788064" xlink:href="#m2b8202b400" y="285.388012"/>
     <use style="fill:#7a68a6;stroke:#7a68a6;" x="259.086816" xlink:href="#m2b8202b400" y="271.278855"/>
     <use style="fill:#7a68a6;stroke:#7a68a6;" x="262.385568" xlink:href="#m2b8202b400" y="286.105404"/>
     <use style="fill:#7a68a6;stroke:#7a68a6;" x="265.68432" xlink:href="#m2b8202b400" y="297.911636"/>
     <use style="fill:#7a68a6;stroke:#7a68a6;" x="268.983072" xlink:href="#m2b8202b400" y="288.455076"/>
     <use style="fill:#7a68a6;stroke:#7a68a6;" x="272.281824" xlink:href="#m2b8202b400" y="279.343608"/>
     <use style="fill:#7a68a6;stroke:#7a68a6;" x="275.580576" xlink:href="#m2b8202b400" y="244.263839"/>
     <use style="fill:#7a68a6;stroke:#7a68a6;" x="278.879328" xlink:href="#m2b8202b400" y="250.733553"/>
     <use style="fill:#7a68a6;stroke:#7a68a6;" x="282.17808" xlink:href="#m2b8202b400" y="232.726512"/>
     <use style="fill:#7a68a6;stroke:#7a68a6;" x="285.476832" xlink:href="#m2b8202b400" y="221.518891"/>
     <use style="fill:#7a68a6;stroke:#7a68a6;" x="288.775584" xlink:href="#m2b8202b400" y="207.606653"/>
     <use style="fill:#7a68a6;stroke:#7a68a6;" x="292.074336" xlink:href="#m2b8202b400" y="175.33594"/>
     <use style="fill:#7a68a6;stroke:#7a68a6;" x="295.373088" xlink:href="#m2b8202b400" y="197.795589"/>
     <use style="fill:#7a68a6;stroke:#7a68a6;" x="298.67184" xlink:href="#m2b8202b400" y="161.038199"/>
     <use style="fill:#7a68a6;stroke:#7a68a6;" x="301.970592" xlink:href="#m2b8202b400" y="164.766454"/>
     <use style="fill:#7a68a6;stroke:#7a68a6;" x="305.269344" xlink:href="#m2b8202b400" y="147.031739"/>
     <use style="fill:#7a68a6;stroke:#7a68a6;" x="308.568096" xlink:href="#m2b8202b400" y="150.681958"/>
     <use style="fill:#7a68a6;stroke:#7a68a6;" x="311.866848" xlink:href="#m2b8202b400" y="157.231902"/>
     <use style="fill:#7a68a6;stroke:#7a68a6;" x="315.1656" xlink:href="#m2b8202b400" y="151.925866"/>
     <use style="fill:#7a68a6;stroke:#7a68a6;" x="318.464352" xlink:href="#m2b8202b400" y="168.683112"/>
     <use style="fill:#7a68a6;stroke:#7a68a6;" x="321.763104" xlink:href="#m2b8202b400" y="174.426789"/>
     <use style="fill:#7a68a6;stroke:#7a68a6;" x="325.061856" xlink:href="#m2b8202b400" y="189.95976"/>
     <use style="fill:#7a68a6;stroke:#7a68a6;" x="328.360608" xlink:href="#m2b8202b400" y="210.616248"/>
     <use style="fill:#7a68a6;stroke:#7a68a6;" x="331.65936" xlink:href="#m2b8202b400" y="202.355061"/>
     <use style="fill:#7a68a6;stroke:#7a68a6;" x="334.958112" xlink:href="#m2b8202b400" y="222.799002"/>
     <use style="fill:#7a68a6;stroke:#7a68a6;" x="338.256864" xlink:href="#m2b8202b400" y="272.96326"/>
     <use style="fill:#7a68a6;stroke:#7a68a6;" x="341.555616" xlink:href="#m2b8202b400" y="270.845453"/>
     <use style="fill:#7a68a6;stroke:#7a68a6;" x="344.854368" xlink:href="#m2b8202b400" y="283.578322"/>
     <use style="fill:#7a68a6;stroke:#7a68a6;" x="348.15312" xlink:href="#m2b8202b400" y="271.632838"/>
     <use style="fill:#7a68a6;stroke:#7a68a6;" x="351.451872" xlink:href="#m2b8202b400" y="322.513805"/>
     <use style="fill:#7a68a6;stroke:#7a68a6;" x="354.750624" xlink:href="#m2b8202b400" y="270.708868"/>
     <use style="fill:#7a68a6;stroke:#7a68a6;" x="358.049376" xlink:href="#m2b8202b400" y="286.016794"/>
     <use style="fill:#7a68a6;stroke:#7a68a6;" x="361.348128" xlink:href="#m2b8202b400" y="236.687198"/>
     <use style="fill:#7a68a6;stroke:#7a68a6;" x="364.64688" xlink:href="#m2b8202b400" y="247.706941"/>
     <use style="fill:#7a68a6;stroke:#7a68a6;" x="367.945632" xlink:href="#m2b8202b400" y="289.882673"/>
     <use style="fill:#7a68a6;stroke:#7a68a6;" x="371.244384" xlink:href="#m2b8202b400" y="231.796921"/>
     <use style="fill:#7a68a6;stroke:#7a68a6;" x="374.543136" xlink:href="#m2b8202b400" y="236.695618"/>
     <use style="fill:#7a68a6;stroke:#7a68a6;" x="377.841888" xlink:href="#m2b8202b400" y="205.058381"/>
     <use style="fill:#7a68a6;stroke:#7a68a6;" x="381.14064" xlink:href="#m2b8202b400" y="206.55488"/>
     <use style="fill:#7a68a6;stroke:#7a68a6;" x="384.439392" xlink:href="#m2b8202b400" y="168.090351"/>
     <use style="fill:#7a68a6;stroke:#7a68a6;" x="387.738144" xlink:href="#m2b8202b400" y="210.851362"/>
     <use style="fill:#7a68a6;stroke:#7a68a6;" x="391.036896" xlink:href="#m2b8202b400" y="148.257819"/>
     <use style="fill:#7a68a6;stroke:#7a68a6;" x="394.335648" xlink:href="#m2b8202b400" y="177.796423"/>
     <use style="fill:#7a68a6;stroke:#7a68a6;" x="397.6344" xlink:href="#m2b8202b400" y="140.839333"/>
     <use style="fill:#7a68a6;stroke:#7a68a6;" x="400.933152" xlink:href="#m2b8202b400" y="173.863116"/>
     <use style="fill:#7a68a6;stroke:#7a68a6;" x="404.231904" xlink:href="#m2b8202b400" y="151.231547"/>
     <use style="fill:#7a68a6;stroke:#7a68a6;" x="407.530656" xlink:href="#m2b8202b400" y="138.560135"/>
     <use style="fill:#7a68a6;stroke:#7a68a6;" x="410.829408" xlink:href="#m2b8202b400" y="155.886912"/>
     <use style="fill:#7a68a6;stroke:#7a68a6;" x="414.12816" xlink:href="#m2b8202b400" y="165.379347"/>
     <use style="fill:#7a68a6;stroke:#7a68a6;" x="417.426912" xlink:href="#m2b8202b400" y="178.320487"/>
     <use style="fill:#7a68a6;stroke:#7a68a6;" x="420.725664" xlink:href="#m2b8202b400" y="165.27795"/>
     <use style="fill:#7a68a6;stroke:#7a68a6;" x="424.024416" xlink:href="#m2b8202b400" y="209.835901"/>
     <use style="fill:#7a68a6;stroke:#7a68a6;" x="427.323168" xlink:href="#m2b8202b400" y="206.45274"/>
     <use style="fill:#7a68a6;stroke:#7a68a6;" x="430.62192" xlink:href="#m2b8202b400" y="212.777655"/>
     <use style="fill:#7a68a6;stroke:#7a68a6;" x="433.920672" xlink:href="#m2b8202b400" y="264.985489"/>
     <use style="fill:#7a68a6;stroke:#7a68a6;" x="437.219424" xlink:href="#m2b8202b400" y="246.389924"/>
     <use style="fill:#7a68a6;stroke:#7a68a6;" x="440.518176" xlink:href="#m2b8202b400" y="224.242327"/>
     <use style="fill:#7a68a6;stroke:#7a68a6;" x="443.816928" xlink:href="#m2b8202b400" y="248.308994"/>
     <use style="fill:#7a68a6;stroke:#7a68a6;" x="447.11568" xlink:href="#m2b8202b400" y="238.436474"/>
     <use style="fill:#7a68a6;stroke:#7a68a6;" x="450.414432" xlink:href="#m2b8202b400" y="244.256709"/>
     <use style="fill:#7a68a6;stroke:#7a68a6;" x="453.713184" xlink:href="#m2b8202b400" y="308.419051"/>
     <use style="fill:#7a68a6;stroke:#7a68a6;" x="457.011936" xlink:href="#m2b8202b400" y="217.546141"/>
     <use style="fill:#7a68a6;stroke:#7a68a6;" x="460.310688" xlink:href="#m2b8202b400" y="260.502802"/>
     <use style="fill:#7a68a6;stroke:#7a68a6;" x="463.60944" xlink:href="#m2b8202b400" y="235.698619"/>
     <use style="fill:#7a68a6;stroke:#7a68a6;" x="466.908192" xlink:href="#m2b8202b400" y="235.415122"/>
     <use style="fill:#7a68a6;stroke:#7a68a6;" x="470.206944" xlink:href="#m2b8202b400" y="237.688923"/>
     <use style="fill:#7a68a6;stroke:#7a68a6;" x="473.505696" xlink:href="#m2b8202b400" y="236.123138"/>
     <use style="fill:#7a68a6;stroke:#7a68a6;" x="476.804448" xlink:href="#m2b8202b400" y="176.624378"/>
     <use style="fill:#7a68a6;stroke:#7a68a6;" x="480.1032" xlink:href="#m2b8202b400" y="189.301923"/>
     <use style="fill:#7a68a6;stroke:#7a68a6;" x="483.401952" xlink:href="#m2b8202b400" y="264.028511"/>
     <use style="fill:#7a68a6;stroke:#7a68a6;" x="486.700704" xlink:href="#m2b8202b400" y="227.431154"/>
     <use style="fill:#7a68a6;stroke:#7a68a6;" x="489.999456" xlink:href="#m2b8202b400" y="169.586091"/>
     <use style="fill:#7a68a6;stroke:#7a68a6;" x="493.298208" xlink:href="#m2b8202b400" y="192.684129"/>
     <use style="fill:#7a68a6;stroke:#7a68a6;" x="496.59696" xlink:href="#m2b8202b400" y="222.586707"/>
     <use style="fill:#7a68a6;stroke:#7a68a6;" x="499.895712" xlink:href="#m2b8202b400" y="185.408668"/>
     <use style="fill:#7a68a6;stroke:#7a68a6;" x="503.194464" xlink:href="#m2b8202b400" y="202.973177"/>
     <use style="fill:#7a68a6;stroke:#7a68a6;" x="506.493216" xlink:href="#m2b8202b400" y="191.617053"/>
     <use style="fill:#7a68a6;stroke:#7a68a6;" x="509.791968" xlink:href="#m2b8202b400" y="222.594779"/>
     <use style="fill:#7a68a6;stroke:#7a68a6;" x="513.09072" xlink:href="#m2b8202b400" y="191.281044"/>
     <use style="fill:#7a68a6;stroke:#7a68a6;" x="516.389472" xlink:href="#m2b8202b400" y="246.065801"/>
     <use style="fill:#7a68a6;stroke:#7a68a6;" x="519.688224" xlink:href="#m2b8202b400" y="239.009964"/>
     <use style="fill:#7a68a6;stroke:#7a68a6;" x="522.986976" xlink:href="#m2b8202b400" y="240.124365"/>
     <use style="fill:#7a68a6;stroke:#7a68a6;" x="526.285728" xlink:href="#m2b8202b400" y="222.193079"/>
     <use style="fill:#7a68a6;stroke:#7a68a6;" x="529.58448" xlink:href="#m2b8202b400" y="286.952747"/>
     <use style="fill:#7a68a6;stroke:#7a68a6;" x="532.883232" xlink:href="#m2b8202b400" y="254.296769"/>
     <use style="fill:#7a68a6;stroke:#7a68a6;" x="536.181984" xlink:href="#m2b8202b400" y="230.496121"/>
     <use style="fill:#7a68a6;stroke:#7a68a6;" x="539.480736" xlink:href="#m2b8202b400" y="236.178623"/>
     <use style="fill:#7a68a6;stroke:#7a68a6;" x="542.779488" xlink:href="#m2b8202b400" y="224.388552"/>
     <use style="fill:#7a68a6;stroke:#7a68a6;" x="546.07824" xlink:href="#m2b8202b400" y="276.145332"/>
     <use style="fill:#7a68a6;stroke:#7a68a6;" x="549.376992" xlink:href="#m2b8202b400" y="274.797893"/>
     <use style="fill:#7a68a6;stroke:#7a68a6;" x="552.675744" xlink:href="#m2b8202b400" y="252.745923"/>
     <use style="fill:#7a68a6;stroke:#7a68a6;" x="555.974496" xlink:href="#m2b8202b400" y="271.332462"/>
     <use style="fill:#7a68a6;stroke:#7a68a6;" x="559.273248" xlink:href="#m2b8202b400" y="234.757115"/>
     <use style="fill:#7a68a6;stroke:#7a68a6;" x="562.572" xlink:href="#m2b8202b400" y="257.620137"/>
    </g>
   </g>
   <g id="matplotlib.axis_1">
    <g id="xtick_1">
     <g id="line2d_1">
      <path clip-path="url(#p539d53f56b)" d="M 137.955857 336.6 
L 137.955857 39.6 
" style="fill:none;stroke:#b2b2b2;stroke-dasharray:2.96,1.28;stroke-dashoffset:0;stroke-opacity:0.3;stroke-width:0.8;"/>
     </g>
     <g id="line2d_2">
      <defs>
       <path d="M 0 0 
L 0 3.5 
" id="m57d38c9b87" style="stroke:#000000;stroke-width:0.8;"/>
      </defs>
      <g>
       <use style="stroke:#000000;stroke-width:0.8;" x="137.955857" xlink:href="#m57d38c9b87" y="336.6"/>
      </g>
     </g>
     <g id="text_1">
      <!-- 0 -->
      <defs>
       <path d="M 31.78125 66.40625 
Q 24.171875 66.40625 20.328125 58.90625 
Q 16.5 51.421875 16.5 36.375 
Q 16.5 21.390625 20.328125 13.890625 
Q 24.171875 6.390625 31.78125 6.390625 
Q 39.453125 6.390625 43.28125 13.890625 
Q 47.125 21.390625 47.125 36.375 
Q 47.125 51.421875 43.28125 58.90625 
Q 39.453125 66.40625 31.78125 66.40625 
z
M 31.78125 74.21875 
Q 44.046875 74.21875 50.515625 64.515625 
Q 56.984375 54.828125 56.984375 36.375 
Q 56.984375 17.96875 50.515625 8.265625 
Q 44.046875 -1.421875 31.78125 -1.421875 
Q 19.53125 -1.421875 13.0625 8.265625 
Q 6.59375 17.96875 6.59375 36.375 
Q 6.59375 54.828125 13.0625 64.515625 
Q 19.53125 74.21875 31.78125 74.21875 
z
" id="DejaVuSans-48"/>
      </defs>
      <g transform="translate(130.002732 362.596094)scale(0.25 -0.25)">
       <use xlink:href="#DejaVuSans-48"/>
      </g>
     </g>
    </g>
    <g id="xtick_2">
     <g id="line2d_3">
      <path clip-path="url(#p539d53f56b)" d="M 219.770143 336.6 
L 219.770143 39.6 
" style="fill:none;stroke:#b2b2b2;stroke-dasharray:2.96,1.28;stroke-dashoffset:0;stroke-opacity:0.3;stroke-width:0.8;"/>
     </g>
     <g id="line2d_4">
      <g>
       <use style="stroke:#000000;stroke-width:0.8;" x="219.770143" xlink:href="#m57d38c9b87" y="336.6"/>
      </g>
     </g>
     <g id="text_2">
      <!-- 10 -->
      <defs>
       <path d="M 12.40625 8.296875 
L 28.515625 8.296875 
L 28.515625 63.921875 
L 10.984375 60.40625 
L 10.984375 69.390625 
L 28.421875 72.90625 
L 38.28125 72.90625 
L 38.28125 8.296875 
L 54.390625 8.296875 
L 54.390625 0 
L 12.40625 0 
z
" id="DejaVuSans-49"/>
      </defs>
      <g transform="translate(203.863893 362.596094)scale(0.25 -0.25)">
       <use xlink:href="#DejaVuSans-49"/>
       <use x="63.623047" xlink:href="#DejaVuSans-48"/>
      </g>
     </g>
    </g>
    <g id="xtick_3">
     <g id="line2d_5">
      <path clip-path="url(#p539d53f56b)" d="M 301.584429 336.6 
L 301.584429 39.6 
" style="fill:none;stroke:#b2b2b2;stroke-dasharray:2.96,1.28;stroke-dashoffset:0;stroke-opacity:0.3;stroke-width:0.8;"/>
     </g>
     <g id="line2d_6">
      <g>
       <use style="stroke:#000000;stroke-width:0.8;" x="301.584429" xlink:href="#m57d38c9b87" y="336.6"/>
      </g>
     </g>
     <g id="text_3">
      <!-- 20 -->
      <defs>
       <path d="M 19.1875 8.296875 
L 53.609375 8.296875 
L 53.609375 0 
L 7.328125 0 
L 7.328125 8.296875 
Q 12.9375 14.109375 22.625 23.890625 
Q 32.328125 33.6875 34.8125 36.53125 
Q 39.546875 41.84375 41.421875 45.53125 
Q 43.3125 49.21875 43.3125 52.78125 
Q 43.3125 58.59375 39.234375 62.25 
Q 35.15625 65.921875 28.609375 65.921875 
Q 23.96875 65.921875 18.8125 64.3125 
Q 13.671875 62.703125 7.8125 59.421875 
L 7.8125 69.390625 
Q 13.765625 71.78125 18.9375 73 
Q 24.125 74.21875 28.421875 74.21875 
Q 39.75 74.21875 46.484375 68.546875 
Q 53.21875 62.890625 53.21875 53.421875 
Q 53.21875 48.921875 51.53125 44.890625 
Q 49.859375 40.875 45.40625 35.40625 
Q 44.1875 33.984375 37.640625 27.21875 
Q 31.109375 20.453125 19.1875 8.296875 
z
" id="DejaVuSans-50"/>
      </defs>
      <g transform="translate(285.678179 362.596094)scale(0.25 -0.25)">
       <use xlink:href="#DejaVuSans-50"/>
       <use x="63.623047" xlink:href="#DejaVuSans-48"/>
      </g>
     </g>
    </g>
    <g id="xtick_4">
     <g id="line2d_7">
      <path clip-path="url(#p539d53f56b)" d="M 383.398714 336.6 
L 383.398714 39.6 
" style="fill:none;stroke:#b2b2b2;stroke-dasharray:2.96,1.28;stroke-dashoffset:0;stroke-opacity:0.3;stroke-width:0.8;"/>
     </g>
     <g id="line2d_8">
      <g>
       <use style="stroke:#000000;stroke-width:0.8;" x="383.398714" xlink:href="#m57d38c9b87" y="336.6"/>
      </g>
     </g>
     <g id="text_4">
      <!-- 30 -->
      <defs>
       <path d="M 40.578125 39.3125 
Q 47.65625 37.796875 51.625 33 
Q 55.609375 28.21875 55.609375 21.1875 
Q 55.609375 10.40625 48.1875 4.484375 
Q 40.765625 -1.421875 27.09375 -1.421875 
Q 22.515625 -1.421875 17.65625 -0.515625 
Q 12.796875 0.390625 7.625 2.203125 
L 7.625 11.71875 
Q 11.71875 9.328125 16.59375 8.109375 
Q 21.484375 6.890625 26.8125 6.890625 
Q 36.078125 6.890625 40.9375 10.546875 
Q 45.796875 14.203125 45.796875 21.1875 
Q 45.796875 27.640625 41.28125 31.265625 
Q 36.765625 34.90625 28.71875 34.90625 
L 20.21875 34.90625 
L 20.21875 43.015625 
L 29.109375 43.015625 
Q 36.375 43.015625 40.234375 45.921875 
Q 44.09375 48.828125 44.09375 54.296875 
Q 44.09375 59.90625 40.109375 62.90625 
Q 36.140625 65.921875 28.71875 65.921875 
Q 24.65625 65.921875 20.015625 65.03125 
Q 15.375 64.15625 9.8125 62.3125 
L 9.8125 71.09375 
Q 15.4375 72.65625 20.34375 73.4375 
Q 25.25 74.21875 29.59375 74.21875 
Q 40.828125 74.21875 47.359375 69.109375 
Q 53.90625 64.015625 53.90625 55.328125 
Q 53.90625 49.265625 50.4375 45.09375 
Q 46.96875 40.921875 40.578125 39.3125 
z
" id="DejaVuSans-51"/>
      </defs>
      <g transform="translate(367.492464 362.596094)scale(0.25 -0.25)">
       <use xlink:href="#DejaVuSans-51"/>
       <use x="63.623047" xlink:href="#DejaVuSans-48"/>
      </g>
     </g>
    </g>
    <g id="xtick_5">
     <g id="line2d_9">
      <path clip-path="url(#p539d53f56b)" d="M 465.213 336.6 
L 465.213 39.6 
" style="fill:none;stroke:#b2b2b2;stroke-dasharray:2.96,1.28;stroke-dashoffset:0;stroke-opacity:0.3;stroke-width:0.8;"/>
     </g>
     <g id="line2d_10">
      <g>
       <use style="stroke:#000000;stroke-width:0.8;" x="465.213" xlink:href="#m57d38c9b87" y="336.6"/>
      </g>
     </g>
     <g id="text_5">
      <!-- 40 -->
      <defs>
       <path d="M 37.796875 64.3125 
L 12.890625 25.390625 
L 37.796875 25.390625 
z
M 35.203125 72.90625 
L 47.609375 72.90625 
L 47.609375 25.390625 
L 58.015625 25.390625 
L 58.015625 17.1875 
L 47.609375 17.1875 
L 47.609375 0 
L 37.796875 0 
L 37.796875 17.1875 
L 4.890625 17.1875 
L 4.890625 26.703125 
z
" id="DejaVuSans-52"/>
      </defs>
      <g transform="translate(449.30675 362.596094)scale(0.25 -0.25)">
       <use xlink:href="#DejaVuSans-52"/>
       <use x="63.623047" xlink:href="#DejaVuSans-48"/>
      </g>
     </g>
    </g>
    <g id="xtick_6">
     <g id="line2d_11">
      <path clip-path="url(#p539d53f56b)" d="M 547.027286 336.6 
L 547.027286 39.6 
" style="fill:none;stroke:#b2b2b2;stroke-dasharray:2.96,1.28;stroke-dashoffset:0;stroke-opacity:0.3;stroke-width:0.8;"/>
     </g>
     <g id="line2d_12">
      <g>
       <use style="stroke:#000000;stroke-width:0.8;" x="547.027286" xlink:href="#m57d38c9b87" y="336.6"/>
      </g>
     </g>
     <g id="text_6">
      <!-- 50 -->
      <defs>
       <path d="M 10.796875 72.90625 
L 49.515625 72.90625 
L 49.515625 64.59375 
L 19.828125 64.59375 
L 19.828125 46.734375 
Q 21.96875 47.46875 24.109375 47.828125 
Q 26.265625 48.1875 28.421875 48.1875 
Q 40.625 48.1875 47.75 41.5 
Q 54.890625 34.8125 54.890625 23.390625 
Q 54.890625 11.625 47.5625 5.09375 
Q 40.234375 -1.421875 26.90625 -1.421875 
Q 22.3125 -1.421875 17.546875 -0.640625 
Q 12.796875 0.140625 7.71875 1.703125 
L 7.71875 11.625 
Q 12.109375 9.234375 16.796875 8.0625 
Q 21.484375 6.890625 26.703125 6.890625 
Q 35.15625 6.890625 40.078125 11.328125 
Q 45.015625 15.765625 45.015625 23.390625 
Q 45.015625 31 40.078125 35.4375 
Q 35.15625 39.890625 26.703125 39.890625 
Q 22.75 39.890625 18.8125 39.015625 
Q 14.890625 38.140625 10.796875 36.28125 
z
" id="DejaVuSans-53"/>
      </defs>
      <g transform="translate(531.121036 362.596094)scale(0.25 -0.25)">
       <use xlink:href="#DejaVuSans-53"/>
       <use x="63.623047" xlink:href="#DejaVuSans-48"/>
      </g>
     </g>
    </g>
    <g id="text_7">
     <!-- Pulse length, $\Delta t$ (ns) -->
     <defs>
      <path d="M 19.671875 64.796875 
L 19.671875 37.40625 
L 32.078125 37.40625 
Q 38.96875 37.40625 42.71875 40.96875 
Q 46.484375 44.53125 46.484375 51.125 
Q 46.484375 57.671875 42.71875 61.234375 
Q 38.96875 64.796875 32.078125 64.796875 
z
M 9.8125 72.90625 
L 32.078125 72.90625 
Q 44.34375 72.90625 50.609375 67.359375 
Q 56.890625 61.8125 56.890625 51.125 
Q 56.890625 40.328125 50.609375 34.8125 
Q 44.34375 29.296875 32.078125 29.296875 
L 19.671875 29.296875 
L 19.671875 0 
L 9.8125 0 
z
" id="DejaVuSans-80"/>
      <path d="M 8.5 21.578125 
L 8.5 54.6875 
L 17.484375 54.6875 
L 17.484375 21.921875 
Q 17.484375 14.15625 20.5 10.265625 
Q 23.53125 6.390625 29.59375 6.390625 
Q 36.859375 6.390625 41.078125 11.03125 
Q 45.3125 15.671875 45.3125 23.6875 
L 45.3125 54.6875 
L 54.296875 54.6875 
L 54.296875 0 
L 45.3125 0 
L 45.3125 8.40625 
Q 42.046875 3.421875 37.71875 1 
Q 33.40625 -1.421875 27.6875 -1.421875 
Q 18.265625 -1.421875 13.375 4.4375 
Q 8.5 10.296875 8.5 21.578125 
z
M 31.109375 56 
z
" id="DejaVuSans-117"/>
      <path d="M 9.421875 75.984375 
L 18.40625 75.984375 
L 18.40625 0 
L 9.421875 0 
z
" id="DejaVuSans-108"/>
      <path d="M 44.28125 53.078125 
L 44.28125 44.578125 
Q 40.484375 46.53125 36.375 47.5 
Q 32.28125 48.484375 27.875 48.484375 
Q 21.1875 48.484375 17.84375 46.4375 
Q 14.5 44.390625 14.5 40.28125 
Q 14.5 37.15625 16.890625 35.375 
Q 19.28125 33.59375 26.515625 31.984375 
L 29.59375 31.296875 
Q 39.15625 29.25 43.1875 25.515625 
Q 47.21875 21.78125 47.21875 15.09375 
Q 47.21875 7.46875 41.1875 3.015625 
Q 35.15625 -1.421875 24.609375 -1.421875 
Q 20.21875 -1.421875 15.453125 -0.5625 
Q 10.6875 0.296875 5.421875 2 
L 5.421875 11.28125 
Q 10.40625 8.6875 15.234375 7.390625 
Q 20.0625 6.109375 24.8125 6.109375 
Q 31.15625 6.109375 34.5625 8.28125 
Q 37.984375 10.453125 37.984375 14.40625 
Q 37.984375 18.0625 35.515625 20.015625 
Q 33.0625 21.96875 24.703125 23.78125 
L 21.578125 24.515625 
Q 13.234375 26.265625 9.515625 29.90625 
Q 5.8125 33.546875 5.8125 39.890625 
Q 5.8125 47.609375 11.28125 51.796875 
Q 16.75 56 26.8125 56 
Q 31.78125 56 36.171875 55.265625 
Q 40.578125 54.546875 44.28125 53.078125 
z
" id="DejaVuSans-115"/>
      <path d="M 56.203125 29.59375 
L 56.203125 25.203125 
L 14.890625 25.203125 
Q 15.484375 15.921875 20.484375 11.0625 
Q 25.484375 6.203125 34.421875 6.203125 
Q 39.59375 6.203125 44.453125 7.46875 
Q 49.3125 8.734375 54.109375 11.28125 
L 54.109375 2.78125 
Q 49.265625 0.734375 44.1875 -0.34375 
Q 39.109375 -1.421875 33.890625 -1.421875 
Q 20.796875 -1.421875 13.15625 6.1875 
Q 5.515625 13.8125 5.515625 26.8125 
Q 5.515625 40.234375 12.765625 48.109375 
Q 20.015625 56 32.328125 56 
Q 43.359375 56 49.78125 48.890625 
Q 56.203125 41.796875 56.203125 29.59375 
z
M 47.21875 32.234375 
Q 47.125 39.59375 43.09375 43.984375 
Q 39.0625 48.390625 32.421875 48.390625 
Q 24.90625 48.390625 20.390625 44.140625 
Q 15.875 39.890625 15.1875 32.171875 
z
" id="DejaVuSans-101"/>
      <path id="DejaVuSans-32"/>
      <path d="M 54.890625 33.015625 
L 54.890625 0 
L 45.90625 0 
L 45.90625 32.71875 
Q 45.90625 40.484375 42.875 44.328125 
Q 39.84375 48.1875 33.796875 48.1875 
Q 26.515625 48.1875 22.3125 43.546875 
Q 18.109375 38.921875 18.109375 30.90625 
L 18.109375 0 
L 9.078125 0 
L 9.078125 54.6875 
L 18.109375 54.6875 
L 18.109375 46.1875 
Q 21.34375 51.125 25.703125 53.5625 
Q 30.078125 56 35.796875 56 
Q 45.21875 56 50.046875 50.171875 
Q 54.890625 44.34375 54.890625 33.015625 
z
" id="DejaVuSans-110"/>
      <path d="M 45.40625 27.984375 
Q 45.40625 37.75 41.375 43.109375 
Q 37.359375 48.484375 30.078125 48.484375 
Q 22.859375 48.484375 18.828125 43.109375 
Q 14.796875 37.75 14.796875 27.984375 
Q 14.796875 18.265625 18.828125 12.890625 
Q 22.859375 7.515625 30.078125 7.515625 
Q 37.359375 7.515625 41.375 12.890625 
Q 45.40625 18.265625 45.40625 27.984375 
z
M 54.390625 6.78125 
Q 54.390625 -7.171875 48.1875 -13.984375 
Q 42 -20.796875 29.203125 -20.796875 
Q 24.46875 -20.796875 20.265625 -20.09375 
Q 16.0625 -19.390625 12.109375 -17.921875 
L 12.109375 -9.1875 
Q 16.0625 -11.328125 19.921875 -12.34375 
Q 23.78125 -13.375 27.78125 -13.375 
Q 36.625 -13.375 41.015625 -8.765625 
Q 45.40625 -4.15625 45.40625 5.171875 
L 45.40625 9.625 
Q 42.625 4.78125 38.28125 2.390625 
Q 33.9375 0 27.875 0 
Q 17.828125 0 11.671875 7.65625 
Q 5.515625 15.328125 5.515625 27.984375 
Q 5.515625 40.671875 11.671875 48.328125 
Q 17.828125 56 27.875 56 
Q 33.9375 56 38.28125 53.609375 
Q 42.625 51.21875 45.40625 46.390625 
L 45.40625 54.6875 
L 54.390625 54.6875 
z
" id="DejaVuSans-103"/>
      <path d="M 18.3125 70.21875 
L 18.3125 54.6875 
L 36.8125 54.6875 
L 36.8125 47.703125 
L 18.3125 47.703125 
L 18.3125 18.015625 
Q 18.3125 11.328125 20.140625 9.421875 
Q 21.96875 7.515625 27.59375 7.515625 
L 36.8125 7.515625 
L 36.8125 0 
L 27.59375 0 
Q 17.1875 0 13.234375 3.875 
Q 9.28125 7.765625 9.28125 18.015625 
L 9.28125 47.703125 
L 2.6875 47.703125 
L 2.6875 54.6875 
L 9.28125 54.6875 
L 9.28125 70.21875 
z
" id="DejaVuSans-116"/>
      <path d="M 54.890625 33.015625 
L 54.890625 0 
L 45.90625 0 
L 45.90625 32.71875 
Q 45.90625 40.484375 42.875 44.328125 
Q 39.84375 48.1875 33.796875 48.1875 
Q 26.515625 48.1875 22.3125 43.546875 
Q 18.109375 38.921875 18.109375 30.90625 
L 18.109375 0 
L 9.078125 0 
L 9.078125 75.984375 
L 18.109375 75.984375 
L 18.109375 46.1875 
Q 21.34375 51.125 25.703125 53.5625 
Q 30.078125 56 35.796875 56 
Q 45.21875 56 50.046875 50.171875 
Q 54.890625 44.34375 54.890625 33.015625 
z
" id="DejaVuSans-104"/>
      <path d="M 11.71875 12.40625 
L 22.015625 12.40625 
L 22.015625 4 
L 14.015625 -11.625 
L 7.71875 -11.625 
L 11.71875 4 
z
" id="DejaVuSans-44"/>
      <path d="M 5.421875 0 
Q 4.59375 0 4.59375 0.78125 
Q 4.640625 0.875 4.65625 0.921875 
Q 4.6875 0.984375 4.6875 1.125 
L 39.109375 70.515625 
Q 39.546875 71.578125 40.921875 71.578125 
L 42.28125 71.578125 
Q 43.65625 71.578125 44.09375 70.515625 
L 78.515625 1.125 
Q 78.5625 1.03125 78.578125 0.953125 
Q 78.609375 0.875 78.609375 0.78125 
Q 78.609375 0 77.78125 0 
z
M 12.015625 8.015625 
L 64.703125 8.015625 
L 38.375 61.078125 
z
" id="Cmr10-162"/>
      <path d="M 6.203125 8.109375 
Q 6.203125 9.578125 6.5 10.890625 
L 13.71875 39.59375 
L 3.21875 39.59375 
Q 2.203125 39.59375 2.203125 40.921875 
Q 2.59375 43.109375 3.515625 43.109375 
L 14.59375 43.109375 
L 18.609375 59.421875 
Q 19 60.75 20.171875 61.671875 
Q 21.34375 62.59375 22.796875 62.59375 
Q 24.078125 62.59375 24.921875 61.828125 
Q 25.78125 61.078125 25.78125 59.8125 
Q 25.78125 59.515625 25.75 59.34375 
Q 25.734375 59.1875 25.6875 58.984375 
L 21.6875 43.109375 
L 31.984375 43.109375 
Q 33.015625 43.109375 33.015625 41.796875 
Q 32.953125 41.546875 32.8125 40.953125 
Q 32.671875 40.375 32.421875 39.984375 
Q 32.171875 39.59375 31.6875 39.59375 
L 20.796875 39.59375 
L 13.625 10.6875 
Q 12.890625 7.859375 12.890625 5.8125 
Q 12.890625 1.515625 15.828125 1.515625 
Q 20.21875 1.515625 23.609375 5.640625 
Q 27 9.765625 28.8125 14.703125 
Q 29.203125 15.28125 29.59375 15.28125 
L 30.8125 15.28125 
Q 31.203125 15.28125 31.4375 15.015625 
Q 31.6875 14.75 31.6875 14.40625 
Q 31.6875 14.203125 31.59375 14.109375 
Q 29.390625 8.0625 25.1875 3.46875 
Q 21 -1.125 15.578125 -1.125 
Q 11.625 -1.125 8.90625 1.453125 
Q 6.203125 4.046875 6.203125 8.109375 
z
" id="Cmmi10-116"/>
      <path d="M 31 75.875 
Q 24.46875 64.65625 21.28125 53.65625 
Q 18.109375 42.671875 18.109375 31.390625 
Q 18.109375 20.125 21.3125 9.0625 
Q 24.515625 -2 31 -13.1875 
L 23.1875 -13.1875 
Q 15.875 -1.703125 12.234375 9.375 
Q 8.59375 20.453125 8.59375 31.390625 
Q 8.59375 42.28125 12.203125 53.3125 
Q 15.828125 64.359375 23.1875 75.875 
z
" id="DejaVuSans-40"/>
      <path d="M 8.015625 75.875 
L 15.828125 75.875 
Q 23.140625 64.359375 26.78125 53.3125 
Q 30.421875 42.28125 30.421875 31.390625 
Q 30.421875 20.453125 26.78125 9.375 
Q 23.140625 -1.703125 15.828125 -13.1875 
L 8.015625 -13.1875 
Q 14.5 -2 17.703125 9.0625 
Q 20.90625 20.125 20.90625 31.390625 
Q 20.90625 42.671875 17.703125 53.65625 
Q 14.5 64.65625 8.015625 75.875 
z
" id="DejaVuSans-41"/>
     </defs>
     <g transform="translate(228.4 390.795313)scale(0.25 -0.25)">
      <use transform="translate(0 0.015625)" xlink:href="#DejaVuSans-80"/>
      <use transform="translate(60.302734 0.015625)" xlink:href="#DejaVuSans-117"/>
      <use transform="translate(123.681641 0.015625)" xlink:href="#DejaVuSans-108"/>
      <use transform="translate(151.464844 0.015625)" xlink:href="#DejaVuSans-115"/>
      <use transform="translate(203.564453 0.015625)" xlink:href="#DejaVuSans-101"/>
      <use transform="translate(265.087891 0.015625)" xlink:href="#DejaVuSans-32"/>
      <use transform="translate(296.875 0.015625)" xlink:href="#DejaVuSans-108"/>
      <use transform="translate(324.658203 0.015625)" xlink:href="#DejaVuSans-101"/>
      <use transform="translate(386.181641 0.015625)" xlink:href="#DejaVuSans-110"/>
      <use transform="translate(449.560547 0.015625)" xlink:href="#DejaVuSans-103"/>
      <use transform="translate(513.037109 0.015625)" xlink:href="#DejaVuSans-116"/>
      <use transform="translate(552.246094 0.015625)" xlink:href="#DejaVuSans-104"/>
      <use transform="translate(615.625 0.015625)" xlink:href="#DejaVuSans-44"/>
      <use transform="translate(647.412109 0.015625)" xlink:href="#DejaVuSans-32"/>
      <use transform="translate(679.199219 0.015625)" xlink:href="#Cmr10-162"/>
      <use transform="translate(762.5 0.015625)" xlink:href="#Cmmi10-116"/>
      <use transform="translate(798.583984 0.015625)" xlink:href="#DejaVuSans-32"/>
      <use transform="translate(830.371094 0.015625)" xlink:href="#DejaVuSans-40"/>
      <use transform="translate(869.384766 0.015625)" xlink:href="#DejaVuSans-110"/>
      <use transform="translate(932.763672 0.015625)" xlink:href="#DejaVuSans-115"/>
      <use transform="translate(984.863281 0.015625)" xlink:href="#DejaVuSans-41"/>
     </g>
    </g>
   </g>
   <g id="matplotlib.axis_2">
    <g id="ytick_1">
     <g id="line2d_13">
      <path clip-path="url(#p539d53f56b)" d="M 129.6 330.3923 
L 583.2 330.3923 
" style="fill:none;stroke:#b2b2b2;stroke-dasharray:2.96,1.28;stroke-dashoffset:0;stroke-opacity:0.3;stroke-width:0.8;"/>
     </g>
     <g id="line2d_14">
      <defs>
       <path d="M 0 0 
L -3.5 0 
" id="m9fffeb3729" style="stroke:#000000;stroke-width:0.8;"/>
      </defs>
      <g>
       <use style="stroke:#000000;stroke-width:0.8;" x="129.6" xlink:href="#m9fffeb3729" y="330.3923"/>
      </g>
     </g>
     <g id="text_8">
      <!-- −0.4 -->
      <defs>
       <path d="M 10.59375 35.5 
L 73.1875 35.5 
L 73.1875 27.203125 
L 10.59375 27.203125 
z
" id="DejaVuSans-8722"/>
       <path d="M 10.6875 12.40625 
L 21 12.40625 
L 21 0 
L 10.6875 0 
z
" id="DejaVuSans-46"/>
      </defs>
      <g transform="translate(61.892969 339.890347)scale(0.25 -0.25)">
       <use xlink:href="#DejaVuSans-8722"/>
       <use x="83.789062" xlink:href="#DejaVuSans-48"/>
       <use x="147.412109" xlink:href="#DejaVuSans-46"/>
       <use x="179.199219" xlink:href="#DejaVuSans-52"/>
      </g>
     </g>
    </g>
    <g id="ytick_2">
     <g id="line2d_15">
      <path clip-path="url(#p539d53f56b)" d="M 129.6 266.426661 
L 583.2 266.426661 
" style="fill:none;stroke:#b2b2b2;stroke-dasharray:2.96,1.28;stroke-dashoffset:0;stroke-opacity:0.3;stroke-width:0.8;"/>
     </g>
     <g id="line2d_16">
      <g>
       <use style="stroke:#000000;stroke-width:0.8;" x="129.6" xlink:href="#m9fffeb3729" y="266.426661"/>
      </g>
     </g>
     <g id="text_9">
      <!-- −0.2 -->
      <g transform="translate(61.892969 275.924708)scale(0.25 -0.25)">
       <use xlink:href="#DejaVuSans-8722"/>
       <use x="83.789062" xlink:href="#DejaVuSans-48"/>
       <use x="147.412109" xlink:href="#DejaVuSans-46"/>
       <use x="179.199219" xlink:href="#DejaVuSans-50"/>
      </g>
     </g>
    </g>
    <g id="ytick_3">
     <g id="line2d_17">
      <path clip-path="url(#p539d53f56b)" d="M 129.6 202.461022 
L 583.2 202.461022 
" style="fill:none;stroke:#b2b2b2;stroke-dasharray:2.96,1.28;stroke-dashoffset:0;stroke-opacity:0.3;stroke-width:0.8;"/>
     </g>
     <g id="line2d_18">
      <g>
       <use style="stroke:#000000;stroke-width:0.8;" x="129.6" xlink:href="#m9fffeb3729" y="202.461022"/>
      </g>
     </g>
     <g id="text_10">
      <!-- 0.0 -->
      <g transform="translate(82.842187 211.959069)scale(0.25 -0.25)">
       <use xlink:href="#DejaVuSans-48"/>
       <use x="63.623047" xlink:href="#DejaVuSans-46"/>
       <use x="95.410156" xlink:href="#DejaVuSans-48"/>
      </g>
     </g>
    </g>
    <g id="ytick_4">
     <g id="line2d_19">
      <path clip-path="url(#p539d53f56b)" d="M 129.6 138.495384 
L 583.2 138.495384 
" style="fill:none;stroke:#b2b2b2;stroke-dasharray:2.96,1.28;stroke-dashoffset:0;stroke-opacity:0.3;stroke-width:0.8;"/>
     </g>
     <g id="line2d_20">
      <g>
       <use style="stroke:#000000;stroke-width:0.8;" x="129.6" xlink:href="#m9fffeb3729" y="138.495384"/>
      </g>
     </g>
     <g id="text_11">
      <!-- 0.2 -->
      <g transform="translate(82.842187 147.993431)scale(0.25 -0.25)">
       <use xlink:href="#DejaVuSans-48"/>
       <use x="63.623047" xlink:href="#DejaVuSans-46"/>
       <use x="95.410156" xlink:href="#DejaVuSans-50"/>
      </g>
     </g>
    </g>
    <g id="ytick_5">
     <g id="line2d_21">
      <path clip-path="url(#p539d53f56b)" d="M 129.6 74.529745 
L 583.2 74.529745 
" style="fill:none;stroke:#b2b2b2;stroke-dasharray:2.96,1.28;stroke-dashoffset:0;stroke-opacity:0.3;stroke-width:0.8;"/>
     </g>
     <g id="line2d_22">
      <g>
       <use style="stroke:#000000;stroke-width:0.8;" x="129.6" xlink:href="#m9fffeb3729" y="74.529745"/>
      </g>
     </g>
     <g id="text_12">
      <!-- 0.4 -->
      <g transform="translate(82.842187 84.027792)scale(0.25 -0.25)">
       <use xlink:href="#DejaVuSans-48"/>
       <use x="63.623047" xlink:href="#DejaVuSans-46"/>
       <use x="95.410156" xlink:href="#DejaVuSans-52"/>
      </g>
     </g>
    </g>
    <g id="text_13">
     <!-- Real Amplitude (a.u) -->
     <defs>
      <path d="M 44.390625 34.1875 
Q 47.5625 33.109375 50.5625 29.59375 
Q 53.5625 26.078125 56.59375 19.921875 
L 66.609375 0 
L 56 0 
L 46.6875 18.703125 
Q 43.0625 26.03125 39.671875 28.421875 
Q 36.28125 30.8125 30.421875 30.8125 
L 19.671875 30.8125 
L 19.671875 0 
L 9.8125 0 
L 9.8125 72.90625 
L 32.078125 72.90625 
Q 44.578125 72.90625 50.734375 67.671875 
Q 56.890625 62.453125 56.890625 51.90625 
Q 56.890625 45.015625 53.6875 40.46875 
Q 50.484375 35.9375 44.390625 34.1875 
z
M 19.671875 64.796875 
L 19.671875 38.921875 
L 32.078125 38.921875 
Q 39.203125 38.921875 42.84375 42.21875 
Q 46.484375 45.515625 46.484375 51.90625 
Q 46.484375 58.296875 42.84375 61.546875 
Q 39.203125 64.796875 32.078125 64.796875 
z
" id="DejaVuSans-82"/>
      <path d="M 34.28125 27.484375 
Q 23.390625 27.484375 19.1875 25 
Q 14.984375 22.515625 14.984375 16.5 
Q 14.984375 11.71875 18.140625 8.90625 
Q 21.296875 6.109375 26.703125 6.109375 
Q 34.1875 6.109375 38.703125 11.40625 
Q 43.21875 16.703125 43.21875 25.484375 
L 43.21875 27.484375 
z
M 52.203125 31.203125 
L 52.203125 0 
L 43.21875 0 
L 43.21875 8.296875 
Q 40.140625 3.328125 35.546875 0.953125 
Q 30.953125 -1.421875 24.3125 -1.421875 
Q 15.921875 -1.421875 10.953125 3.296875 
Q 6 8.015625 6 15.921875 
Q 6 25.140625 12.171875 29.828125 
Q 18.359375 34.515625 30.609375 34.515625 
L 43.21875 34.515625 
L 43.21875 35.40625 
Q 43.21875 41.609375 39.140625 45 
Q 35.0625 48.390625 27.6875 48.390625 
Q 23 48.390625 18.546875 47.265625 
Q 14.109375 46.140625 10.015625 43.890625 
L 10.015625 52.203125 
Q 14.9375 54.109375 19.578125 55.046875 
Q 24.21875 56 28.609375 56 
Q 40.484375 56 46.34375 49.84375 
Q 52.203125 43.703125 52.203125 31.203125 
z
" id="DejaVuSans-97"/>
      <path d="M 34.1875 63.1875 
L 20.796875 26.90625 
L 47.609375 26.90625 
z
M 28.609375 72.90625 
L 39.796875 72.90625 
L 67.578125 0 
L 57.328125 0 
L 50.6875 18.703125 
L 17.828125 18.703125 
L 11.1875 0 
L 0.78125 0 
z
" id="DejaVuSans-65"/>
      <path d="M 52 44.1875 
Q 55.375 50.25 60.0625 53.125 
Q 64.75 56 71.09375 56 
Q 79.640625 56 84.28125 50.015625 
Q 88.921875 44.046875 88.921875 33.015625 
L 88.921875 0 
L 79.890625 0 
L 79.890625 32.71875 
Q 79.890625 40.578125 77.09375 44.375 
Q 74.3125 48.1875 68.609375 48.1875 
Q 61.625 48.1875 57.5625 43.546875 
Q 53.515625 38.921875 53.515625 30.90625 
L 53.515625 0 
L 44.484375 0 
L 44.484375 32.71875 
Q 44.484375 40.625 41.703125 44.40625 
Q 38.921875 48.1875 33.109375 48.1875 
Q 26.21875 48.1875 22.15625 43.53125 
Q 18.109375 38.875 18.109375 30.90625 
L 18.109375 0 
L 9.078125 0 
L 9.078125 54.6875 
L 18.109375 54.6875 
L 18.109375 46.1875 
Q 21.1875 51.21875 25.484375 53.609375 
Q 29.78125 56 35.6875 56 
Q 41.65625 56 45.828125 52.96875 
Q 50 49.953125 52 44.1875 
z
" id="DejaVuSans-109"/>
      <path d="M 18.109375 8.203125 
L 18.109375 -20.796875 
L 9.078125 -20.796875 
L 9.078125 54.6875 
L 18.109375 54.6875 
L 18.109375 46.390625 
Q 20.953125 51.265625 25.265625 53.625 
Q 29.59375 56 35.59375 56 
Q 45.5625 56 51.78125 48.09375 
Q 58.015625 40.1875 58.015625 27.296875 
Q 58.015625 14.40625 51.78125 6.484375 
Q 45.5625 -1.421875 35.59375 -1.421875 
Q 29.59375 -1.421875 25.265625 0.953125 
Q 20.953125 3.328125 18.109375 8.203125 
z
M 48.6875 27.296875 
Q 48.6875 37.203125 44.609375 42.84375 
Q 40.53125 48.484375 33.40625 48.484375 
Q 26.265625 48.484375 22.1875 42.84375 
Q 18.109375 37.203125 18.109375 27.296875 
Q 18.109375 17.390625 22.1875 11.75 
Q 26.265625 6.109375 33.40625 6.109375 
Q 40.53125 6.109375 44.609375 11.75 
Q 48.6875 17.390625 48.6875 27.296875 
z
" id="DejaVuSans-112"/>
      <path d="M 9.421875 54.6875 
L 18.40625 54.6875 
L 18.40625 0 
L 9.421875 0 
z
M 9.421875 75.984375 
L 18.40625 75.984375 
L 18.40625 64.59375 
L 9.421875 64.59375 
z
" id="DejaVuSans-105"/>
      <path d="M 45.40625 46.390625 
L 45.40625 75.984375 
L 54.390625 75.984375 
L 54.390625 0 
L 45.40625 0 
L 45.40625 8.203125 
Q 42.578125 3.328125 38.25 0.953125 
Q 33.9375 -1.421875 27.875 -1.421875 
Q 17.96875 -1.421875 11.734375 6.484375 
Q 5.515625 14.40625 5.515625 27.296875 
Q 5.515625 40.1875 11.734375 48.09375 
Q 17.96875 56 27.875 56 
Q 33.9375 56 38.25 53.625 
Q 42.578125 51.265625 45.40625 46.390625 
z
M 14.796875 27.296875 
Q 14.796875 17.390625 18.875 11.75 
Q 22.953125 6.109375 30.078125 6.109375 
Q 37.203125 6.109375 41.296875 11.75 
Q 45.40625 17.390625 45.40625 27.296875 
Q 45.40625 37.203125 41.296875 42.84375 
Q 37.203125 48.484375 30.078125 48.484375 
Q 22.953125 48.484375 18.875 42.84375 
Q 14.796875 37.203125 14.796875 27.296875 
z
" id="DejaVuSans-100"/>
     </defs>
     <g transform="translate(52.69375 316.9125)rotate(-90)scale(0.25 -0.25)">
      <use xlink:href="#DejaVuSans-82"/>
      <use x="69.419922" xlink:href="#DejaVuSans-101"/>
      <use x="130.943359" xlink:href="#DejaVuSans-97"/>
      <use x="192.222656" xlink:href="#DejaVuSans-108"/>
      <use x="220.005859" xlink:href="#DejaVuSans-32"/>
      <use x="251.792969" xlink:href="#DejaVuSans-65"/>
      <use x="320.201172" xlink:href="#DejaVuSans-109"/>
      <use x="417.613281" xlink:href="#DejaVuSans-112"/>
      <use x="481.089844" xlink:href="#DejaVuSans-108"/>
      <use x="508.873047" xlink:href="#DejaVuSans-105"/>
      <use x="536.65625" xlink:href="#DejaVuSans-116"/>
      <use x="575.865234" xlink:href="#DejaVuSans-117"/>
      <use x="639.244141" xlink:href="#DejaVuSans-100"/>
      <use x="702.720703" xlink:href="#DejaVuSans-101"/>
      <use x="764.244141" xlink:href="#DejaVuSans-32"/>
      <use x="796.03125" xlink:href="#DejaVuSans-40"/>
      <use x="835.044922" xlink:href="#DejaVuSans-97"/>
      <use x="896.324219" xlink:href="#DejaVuSans-46"/>
      <use x="928.111328" xlink:href="#DejaVuSans-117"/>
      <use x="991.490234" xlink:href="#DejaVuSans-41"/>
     </g>
    </g>
   </g>
   <g id="line2d_23">
    <path clip-path="url(#p539d53f56b)" d="M 150.228 279.1404 
L 151.880682 286.323399 
L 153.533363 292.475066 
L 155.186044 297.534418 
L 156.838726 301.453599 
L 157.665066 302.974369 
L 158.491407 304.198308 
L 159.317748 305.12329 
L 160.144088 305.74806 
L 160.970429 306.072236 
L 161.79677 306.0963 
L 162.62311 305.8216 
L 163.449451 305.250338 
L 164.275792 304.385559 
L 165.102132 303.231141 
L 165.928473 301.791778 
L 166.754814 300.072962 
L 168.407495 295.822817 
L 170.060176 290.539832 
L 171.712858 284.294442 
L 173.365539 277.167482 
L 175.018221 269.249153 
L 177.497243 256.105159 
L 179.976265 241.764339 
L 184.107968 216.260015 
L 189.892353 180.327984 
L 193.197716 161.393146 
L 195.676738 148.612776 
L 197.329419 140.945926 
L 198.9821 134.058226 
L 200.634782 128.021492 
L 202.287463 122.897085 
L 203.940144 118.735303 
L 205.592826 115.574907 
L 206.419166 114.379102 
L 207.245507 113.442788 
L 208.071848 112.767437 
L 208.898188 112.353764 
L 209.724529 112.201727 
L 210.55087 112.310529 
L 211.377211 112.678626 
L 212.203551 113.303732 
L 213.029892 114.182834 
L 213.856233 115.3122 
L 214.682573 116.687394 
L 216.335255 120.154102 
L 217.987936 124.534062 
L 219.640617 129.768338 
L 221.293299 135.788736 
L 222.94598 142.518668 
L 225.425002 153.758368 
L 227.904024 166.094576 
L 231.209387 183.670147 
L 238.646453 223.874503 
L 241.125475 236.251125 
L 243.604497 247.582841 
L 246.083519 257.592418 
L 247.7362 263.411053 
L 249.388882 268.474507 
L 251.041563 272.731704 
L 252.694245 276.141311 
L 253.520585 277.518115 
L 254.346926 278.672129 
L 255.173267 279.601078 
L 255.999607 280.303347 
L 256.825948 280.777983 
L 257.652289 281.024692 
L 258.478629 281.043838 
L 259.30497 280.83644 
L 260.131311 280.404166 
L 260.957651 279.749321 
L 261.783992 278.874844 
L 262.610333 277.784291 
L 264.263014 274.972199 
L 265.915695 271.353337 
L 267.568377 266.976889 
L 269.221058 261.900283 
L 270.87374 256.188449 
L 273.352762 246.587932 
L 275.831784 235.985866 
L 279.137146 220.790551 
L 287.400553 181.979636 
L 289.879575 171.335466 
L 292.358597 161.643304 
L 294.011279 155.828788 
L 295.66396 150.604949 
L 297.316641 146.026257 
L 298.969323 142.139255 
L 300.622004 138.982098 
L 302.274685 136.584195 
L 303.101026 135.676697 
L 303.927367 134.965953 
L 304.753707 134.453082 
L 305.580048 134.138628 
L 306.406389 134.022561 
L 307.232729 134.104279 
L 308.05907 134.382614 
L 308.885411 134.855835 
L 309.711752 135.521659 
L 310.538092 136.377258 
L 311.364433 137.419271 
L 313.017114 140.046499 
L 314.669796 143.366284 
L 316.322477 147.333951 
L 317.975158 151.897806 
L 319.62784 156.999787 
L 322.106862 165.521057 
L 324.585884 174.874078 
L 328.717587 191.619097 
L 335.328313 218.685805 
L 337.807335 228.0713 
L 340.286357 236.664788 
L 342.765379 244.25602 
L 344.41806 248.669102 
L 346.070741 252.509651 
L 347.723423 255.738923 
L 349.376104 258.325563 
L 351.028786 260.245898 
L 351.855126 260.950954 
L 352.681467 261.484134 
L 353.507808 261.844712 
L 354.334148 262.032463 
L 355.160489 262.047663 
L 355.98683 261.891081 
L 356.81317 261.56398 
L 357.639511 261.068107 
L 358.465852 260.405687 
L 359.292192 259.579416 
L 360.944874 257.448385 
L 362.597555 254.705551 
L 364.250236 251.388196 
L 365.902918 247.539852 
L 367.555599 243.209744 
L 370.034621 235.931271 
L 372.513643 227.893094 
L 375.819006 216.371901 
L 384.082413 186.942783 
L 386.561435 178.870994 
L 389.040457 171.520816 
L 390.693138 167.111105 
L 392.34582 163.149189 
L 393.998501 159.676381 
L 395.651182 156.727985 
L 397.303864 154.332944 
L 398.956545 152.513572 
L 399.782886 151.824872 
L 400.609226 151.285356 
L 401.435567 150.895875 
L 402.261908 150.656844 
L 403.088248 150.568241 
L 403.914589 150.629612 
L 404.74093 150.840071 
L 405.567271 151.19831 
L 406.393611 151.702598 
L 407.219952 152.350793 
L 408.872633 154.068319 
L 410.525315 156.325829 
L 412.177996 159.092297 
L 413.830677 162.331138 
L 415.483359 166.000684 
L 417.962381 172.210351 
L 420.441403 179.111995 
L 423.746765 189.064815 
L 432.836513 217.18305 
L 435.315535 224.119105 
L 437.794557 230.399494 
L 439.447238 234.145908 
L 441.09992 237.492963 
L 442.752601 240.405958 
L 444.405282 242.855503 
L 446.057964 244.817813 
L 447.710645 246.274925 
L 449.363327 247.214851 
L 450.189667 247.488779 
L 451.016008 247.63166 
L 451.842349 247.643702 
L 452.668689 247.525488 
L 453.49503 247.277972 
L 454.321371 246.902479 
L 455.974052 245.77466 
L 457.626733 244.159744 
L 459.279415 242.080877 
L 460.932096 239.566317 
L 462.584777 236.649063 
L 464.237459 233.366433 
L 466.716481 227.84838 
L 469.195503 221.754069 
L 472.500866 213.018622 
L 480.764272 190.703431 
L 483.243294 184.582356 
L 485.722317 179.008252 
L 488.201339 174.117027 
L 489.85402 171.293958 
L 491.506701 168.855674 
L 493.159383 166.826573 
L 494.812064 165.226121 
L 496.464745 164.068673 
L 498.117427 163.363359 
L 498.943767 163.181661 
L 499.770108 163.114026 
L 500.596449 163.160112 
L 502.24913 163.590442 
L 503.901812 164.46345 
L 505.554493 165.764937 
L 507.207174 167.47591 
L 508.859856 169.572853 
L 510.512537 172.028031 
L 512.165218 174.809859 
L 514.64424 179.51757 
L 517.123262 184.750156 
L 520.428625 192.296404 
L 529.518373 213.617591 
L 531.997395 218.877442 
L 534.476417 223.640296 
L 536.955439 227.790444 
L 538.60812 230.167487 
L 540.260801 232.203786 
L 541.913483 233.879148 
L 543.566164 235.17772 
L 545.218846 236.088127 
L 546.871527 236.60356 
L 548.524208 236.721817 
L 550.17689 236.445277 
L 551.829571 235.780837 
L 553.482252 234.739785 
L 555.134934 233.33763 
L 556.787615 231.593886 
L 558.440296 229.531809 
L 560.092978 227.178093 
L 562.572 223.166627 
L 562.572 223.166627 
" style="fill:none;stroke:#7b68ee;stroke-linecap:square;stroke-width:1.8;"/>
   </g>
   <g id="patch_3">
    <path d="M 129.6 336.6 
L 129.6 39.6 
" style="fill:none;stroke:#8787ff;stroke-linecap:square;stroke-linejoin:miter;stroke-width:0.8;"/>
   </g>
   <g id="patch_4">
    <path d="M 583.2 336.6 
L 583.2 39.6 
" style="fill:none;stroke:#8787ff;stroke-linecap:square;stroke-linejoin:miter;stroke-width:0.8;"/>
   </g>
   <g id="patch_5">
    <path d="M 129.6 336.6 
L 583.2 336.6 
" style="fill:none;stroke:#8787ff;stroke-linecap:square;stroke-linejoin:miter;stroke-width:0.8;"/>
   </g>
   <g id="patch_6">
    <path d="M 129.6 39.6 
L 583.2 39.6 
" style="fill:none;stroke:#8787ff;stroke-linecap:square;stroke-linejoin:miter;stroke-width:0.8;"/>
   </g>
  </g>
 </g>
 <defs>
  <clipPath id="p539d53f56b">
   <rect height="297" width="453.6" x="129.6" y="39.6"/>
  </clipPath>
 </defs>
</svg>
