<?xml version="1.0" encoding="utf-8" standalone="no"?>
<!DOCTYPE svg PUBLIC "-//W3C//DTD SVG 1.1//EN"
  "http://www.w3.org/Graphics/SVG/1.1/DTD/svg11.dtd">
<!-- Created with matplotlib (https://matplotlib.org/) -->
<svg height="432pt" version="1.1" viewBox="0 0 288 432" width="288pt" xmlns="http://www.w3.org/2000/svg" xmlns:xlink="http://www.w3.org/1999/xlink">
 <defs>
  <style type="text/css">
*{stroke-linecap:butt;stroke-linejoin:round;}
  </style>
 </defs>
 <g id="figure_1">
  <g id="patch_1">
   <path d="M 0 432 
L 288 432 
L 288 0 
L 0 0 
z
" style="fill:none;"/>
  </g>
  <g id="axes_1">
   <g id="patch_2">
    <path d="M 55.505 188.77 
L 277.2 188.77 
L 277.2 10.8 
L 55.505 10.8 
z
" style="fill:none;"/>
   </g>
   <g id="matplotlib.axis_1">
    <g id="xtick_1">
     <g id="line2d_1">
      <path clip-path="url(#p5442f05fe6)" d="M 84.243241 188.77 
L 84.243241 10.8 
" style="fill:none;stroke:#b2b2b2;stroke-dasharray:2.96,1.28;stroke-dashoffset:0;stroke-opacity:0.3;stroke-width:0.8;"/>
     </g>
     <g id="line2d_2">
      <defs>
       <path d="M 0 0 
L 0 3.5 
" id="mf96a51a8f2" style="stroke:#2b2b2b;stroke-width:0.8;"/>
      </defs>
      <g>
       <use style="fill:#2b2b2b;stroke:#2b2b2b;stroke-width:0.8;" x="84.243241" xlink:href="#mf96a51a8f2" y="188.77"/>
      </g>
     </g>
    </g>
    <g id="xtick_2">
     <g id="line2d_3">
      <path clip-path="url(#p5442f05fe6)" d="M 166.3525 188.77 
L 166.3525 10.8 
" style="fill:none;stroke:#b2b2b2;stroke-dasharray:2.96,1.28;stroke-dashoffset:0;stroke-opacity:0.3;stroke-width:0.8;"/>
     </g>
     <g id="line2d_4">
      <g>
       <use style="fill:#2b2b2b;stroke:#2b2b2b;stroke-width:0.8;" x="166.3525" xlink:href="#mf96a51a8f2" y="188.77"/>
      </g>
     </g>
    </g>
    <g id="xtick_3">
     <g id="line2d_5">
      <path clip-path="url(#p5442f05fe6)" d="M 248.461759 188.77 
L 248.461759 10.8 
" style="fill:none;stroke:#b2b2b2;stroke-dasharray:2.96,1.28;stroke-dashoffset:0;stroke-opacity:0.3;stroke-width:0.8;"/>
     </g>
     <g id="line2d_6">
      <g>
       <use style="fill:#2b2b2b;stroke:#2b2b2b;stroke-width:0.8;" x="248.461759" xlink:href="#mf96a51a8f2" y="188.77"/>
      </g>
     </g>
    </g>
   </g>
   <g id="matplotlib.axis_2">
    <g id="ytick_1">
     <g id="line2d_7">
      <path clip-path="url(#p5442f05fe6)" d="M 55.505 165.040667 
L 277.2 165.040667 
" style="fill:none;stroke:#b2b2b2;stroke-dasharray:2.96,1.28;stroke-dashoffset:0;stroke-opacity:0.3;stroke-width:0.8;"/>
     </g>
     <g id="line2d_8">
      <defs>
       <path d="M 0 0 
L -3.5 0 
" id="md1d2a9f33c" style="stroke:#2b2b2b;stroke-width:0.8;"/>
      </defs>
      <g>
       <use style="fill:#2b2b2b;stroke:#2b2b2b;stroke-width:0.8;" x="55.505" xlink:href="#md1d2a9f33c" y="165.040667"/>
      </g>
     </g>
     <g id="text_1">
      <!-- 5.0 -->
      <defs>
       <path d="M 10.796875 72.90625 
L 49.515625 72.90625 
L 49.515625 64.59375 
L 19.828125 64.59375 
L 19.828125 46.734375 
Q 21.96875 47.46875 24.109375 47.828125 
Q 26.265625 48.1875 28.421875 48.1875 
Q 40.625 48.1875 47.75 41.5 
Q 54.890625 34.8125 54.890625 23.390625 
Q 54.890625 11.625 47.5625 5.09375 
Q 40.234375 -1.421875 26.90625 -1.421875 
Q 22.3125 -1.421875 17.546875 -0.640625 
Q 12.796875 0.140625 7.71875 1.703125 
L 7.71875 11.625 
Q 12.109375 9.234375 16.796875 8.0625 
Q 21.484375 6.890625 26.703125 6.890625 
Q 35.15625 6.890625 40.078125 11.328125 
Q 45.015625 15.765625 45.015625 23.390625 
Q 45.015625 31 40.078125 35.4375 
Q 35.15625 39.890625 26.703125 39.890625 
Q 22.75 39.890625 18.8125 39.015625 
Q 14.890625 38.140625 10.796875 36.28125 
z
" id="DejaVuSans-53"/>
       <path d="M 10.6875 12.40625 
L 21 12.40625 
L 21 0 
L 10.6875 0 
z
" id="DejaVuSans-46"/>
       <path d="M 31.78125 66.40625 
Q 24.171875 66.40625 20.328125 58.90625 
Q 16.5 51.421875 16.5 36.375 
Q 16.5 21.390625 20.328125 13.890625 
Q 24.171875 6.390625 31.78125 6.390625 
Q 39.453125 6.390625 43.28125 13.890625 
Q 47.125 21.390625 47.125 36.375 
Q 47.125 51.421875 43.28125 58.90625 
Q 39.453125 66.40625 31.78125 66.40625 
z
M 31.78125 74.21875 
Q 44.046875 74.21875 50.515625 64.515625 
Q 56.984375 54.828125 56.984375 36.375 
Q 56.984375 17.96875 50.515625 8.265625 
Q 44.046875 -1.421875 31.78125 -1.421875 
Q 19.53125 -1.421875 13.0625 8.265625 
Q 6.59375 17.96875 6.59375 36.375 
Q 6.59375 54.828125 13.0625 64.515625 
Q 19.53125 74.21875 31.78125 74.21875 
z
" id="DejaVuSans-48"/>
      </defs>
      <g style="fill:#2b2b2b;" transform="translate(26.240625 170.359573)scale(0.14 -0.14)">
       <use xlink:href="#DejaVuSans-53"/>
       <use x="63.623047" xlink:href="#DejaVuSans-46"/>
       <use x="95.410156" xlink:href="#DejaVuSans-48"/>
      </g>
     </g>
    </g>
    <g id="ytick_2">
     <g id="line2d_9">
      <path clip-path="url(#p5442f05fe6)" d="M 55.505 135.379 
L 277.2 135.379 
" style="fill:none;stroke:#b2b2b2;stroke-dasharray:2.96,1.28;stroke-dashoffset:0;stroke-opacity:0.3;stroke-width:0.8;"/>
     </g>
     <g id="line2d_10">
      <g>
       <use style="fill:#2b2b2b;stroke:#2b2b2b;stroke-width:0.8;" x="55.505" xlink:href="#md1d2a9f33c" y="135.379"/>
      </g>
     </g>
     <g id="text_2">
      <!-- 7.5 -->
      <defs>
       <path d="M 8.203125 72.90625 
L 55.078125 72.90625 
L 55.078125 68.703125 
L 28.609375 0 
L 18.3125 0 
L 43.21875 64.59375 
L 8.203125 64.59375 
z
" id="DejaVuSans-55"/>
      </defs>
      <g style="fill:#2b2b2b;" transform="translate(26.240625 140.697906)scale(0.14 -0.14)">
       <use xlink:href="#DejaVuSans-55"/>
       <use x="63.623047" xlink:href="#DejaVuSans-46"/>
       <use x="95.410156" xlink:href="#DejaVuSans-53"/>
      </g>
     </g>
    </g>
    <g id="ytick_3">
     <g id="line2d_11">
      <path clip-path="url(#p5442f05fe6)" d="M 55.505 105.717333 
L 277.2 105.717333 
" style="fill:none;stroke:#b2b2b2;stroke-dasharray:2.96,1.28;stroke-dashoffset:0;stroke-opacity:0.3;stroke-width:0.8;"/>
     </g>
     <g id="line2d_12">
      <g>
       <use style="fill:#2b2b2b;stroke:#2b2b2b;stroke-width:0.8;" x="55.505" xlink:href="#md1d2a9f33c" y="105.717333"/>
      </g>
     </g>
     <g id="text_3">
      <!-- 10.0 -->
      <defs>
       <path d="M 12.40625 8.296875 
L 28.515625 8.296875 
L 28.515625 63.921875 
L 10.984375 60.40625 
L 10.984375 69.390625 
L 28.421875 72.90625 
L 38.28125 72.90625 
L 38.28125 8.296875 
L 54.390625 8.296875 
L 54.390625 0 
L 12.40625 0 
z
" id="DejaVuSans-49"/>
      </defs>
      <g style="fill:#2b2b2b;" transform="translate(17.333125 111.03624)scale(0.14 -0.14)">
       <use xlink:href="#DejaVuSans-49"/>
       <use x="63.623047" xlink:href="#DejaVuSans-48"/>
       <use x="127.246094" xlink:href="#DejaVuSans-46"/>
       <use x="159.033203" xlink:href="#DejaVuSans-48"/>
      </g>
     </g>
    </g>
    <g id="ytick_4">
     <g id="line2d_13">
      <path clip-path="url(#p5442f05fe6)" d="M 55.505 76.055667 
L 277.2 76.055667 
" style="fill:none;stroke:#b2b2b2;stroke-dasharray:2.96,1.28;stroke-dashoffset:0;stroke-opacity:0.3;stroke-width:0.8;"/>
     </g>
     <g id="line2d_14">
      <g>
       <use style="fill:#2b2b2b;stroke:#2b2b2b;stroke-width:0.8;" x="55.505" xlink:href="#md1d2a9f33c" y="76.055667"/>
      </g>
     </g>
     <g id="text_4">
      <!-- 12.5 -->
      <defs>
       <path d="M 19.1875 8.296875 
L 53.609375 8.296875 
L 53.609375 0 
L 7.328125 0 
L 7.328125 8.296875 
Q 12.9375 14.109375 22.625 23.890625 
Q 32.328125 33.6875 34.8125 36.53125 
Q 39.546875 41.84375 41.421875 45.53125 
Q 43.3125 49.21875 43.3125 52.78125 
Q 43.3125 58.59375 39.234375 62.25 
Q 35.15625 65.921875 28.609375 65.921875 
Q 23.96875 65.921875 18.8125 64.3125 
Q 13.671875 62.703125 7.8125 59.421875 
L 7.8125 69.390625 
Q 13.765625 71.78125 18.9375 73 
Q 24.125 74.21875 28.421875 74.21875 
Q 39.75 74.21875 46.484375 68.546875 
Q 53.21875 62.890625 53.21875 53.421875 
Q 53.21875 48.921875 51.53125 44.890625 
Q 49.859375 40.875 45.40625 35.40625 
Q 44.1875 33.984375 37.640625 27.21875 
Q 31.109375 20.453125 19.1875 8.296875 
z
" id="DejaVuSans-50"/>
      </defs>
      <g style="fill:#2b2b2b;" transform="translate(17.333125 81.374573)scale(0.14 -0.14)">
       <use xlink:href="#DejaVuSans-49"/>
       <use x="63.623047" xlink:href="#DejaVuSans-50"/>
       <use x="127.246094" xlink:href="#DejaVuSans-46"/>
       <use x="159.033203" xlink:href="#DejaVuSans-53"/>
      </g>
     </g>
    </g>
    <g id="ytick_5">
     <g id="line2d_15">
      <path clip-path="url(#p5442f05fe6)" d="M 55.505 46.394 
L 277.2 46.394 
" style="fill:none;stroke:#b2b2b2;stroke-dasharray:2.96,1.28;stroke-dashoffset:0;stroke-opacity:0.3;stroke-width:0.8;"/>
     </g>
     <g id="line2d_16">
      <g>
       <use style="fill:#2b2b2b;stroke:#2b2b2b;stroke-width:0.8;" x="55.505" xlink:href="#md1d2a9f33c" y="46.394"/>
      </g>
     </g>
     <g id="text_5">
      <!-- 15.0 -->
      <g style="fill:#2b2b2b;" transform="translate(17.333125 51.712906)scale(0.14 -0.14)">
       <use xlink:href="#DejaVuSans-49"/>
       <use x="63.623047" xlink:href="#DejaVuSans-53"/>
       <use x="127.246094" xlink:href="#DejaVuSans-46"/>
       <use x="159.033203" xlink:href="#DejaVuSans-48"/>
      </g>
     </g>
    </g>
    <g id="ytick_6">
     <g id="line2d_17">
      <path clip-path="url(#p5442f05fe6)" d="M 55.505 16.732333 
L 277.2 16.732333 
" style="fill:none;stroke:#b2b2b2;stroke-dasharray:2.96,1.28;stroke-dashoffset:0;stroke-opacity:0.3;stroke-width:0.8;"/>
     </g>
     <g id="line2d_18">
      <g>
       <use style="fill:#2b2b2b;stroke:#2b2b2b;stroke-width:0.8;" x="55.505" xlink:href="#md1d2a9f33c" y="16.732333"/>
      </g>
     </g>
     <g id="text_6">
      <!-- 17.5 -->
      <g style="fill:#2b2b2b;" transform="translate(17.333125 22.05124)scale(0.14 -0.14)">
       <use xlink:href="#DejaVuSans-49"/>
       <use x="63.623047" xlink:href="#DejaVuSans-55"/>
       <use x="127.246094" xlink:href="#DejaVuSans-46"/>
       <use x="159.033203" xlink:href="#DejaVuSans-53"/>
      </g>
     </g>
    </g>
    <g id="text_7">
     <!-- $\omega/2\pi$ (GHz) -->
     <defs>
      <path d="M 12.109375 -1.125 
Q 6.453125 -1.125 3.9375 3.015625 
Q 1.421875 7.171875 1.421875 13.1875 
Q 1.421875 17.140625 2.125 20.921875 
Q 2.828125 24.703125 4.265625 28.578125 
Q 5.71875 32.46875 7.5625 35.859375 
Q 9.421875 39.265625 11.71875 42.484375 
Q 12.15625 43.109375 12.890625 43.109375 
Q 13.53125 43.109375 13.921875 42.71875 
Q 14.3125 42.328125 14.3125 41.796875 
Q 14.3125 41.265625 14.015625 40.828125 
Q 4.890625 28.265625 4.890625 17.671875 
Q 4.890625 13.09375 7 9.796875 
Q 9.125 6.5 13.484375 6.5 
Q 17.234375 6.5 20.4375 8.6875 
Q 23.640625 10.890625 25.984375 14.3125 
Q 25.984375 16.0625 26.59375 19.765625 
Q 27.203125 23.484375 28.484375 26.390625 
Q 29.78125 29.296875 31.59375 29.296875 
Q 33.890625 29.296875 33.890625 26.609375 
Q 33.890625 25.046875 33.21875 22.671875 
Q 32.5625 20.3125 31.75 18.265625 
Q 30.953125 16.21875 29.78125 13.625 
Q 30.953125 6.5 36.921875 6.5 
Q 40.375 6.5 43.859375 8.5 
Q 47.359375 10.5 50.046875 13.75 
Q 52.734375 17 54.265625 20.75 
Q 55.8125 24.515625 55.8125 27.875 
Q 55.8125 30.90625 54.859375 32.59375 
Q 53.90625 34.28125 52.34375 36.125 
Q 50.78125 37.984375 50.78125 39.109375 
Q 50.78125 41.0625 52.4375 42.671875 
Q 54.109375 44.28125 56 44.28125 
Q 58.453125 44.28125 59.46875 42.0625 
Q 60.5 39.84375 60.5 37.015625 
Q 60.5 32.421875 58.671875 25.4375 
Q 56.84375 18.453125 54.5 13.8125 
Q 51.265625 7.515625 46.40625 3.1875 
Q 41.546875 -1.125 35.5 -1.125 
Q 31.640625 -1.125 29.265625 1.1875 
Q 26.90625 3.515625 26.21875 7.515625 
Q 23.4375 3.5625 19.875 1.21875 
Q 16.3125 -1.125 12.109375 -1.125 
z
" id="Cmmi10-33"/>
      <path d="M 5.609375 -23 
Q 5.609375 -22.703125 5.71875 -22.609375 
L 40.484375 73.78125 
Q 40.671875 74.359375 41.15625 74.671875 
Q 41.65625 75 42.28125 75 
Q 43.171875 75 43.71875 74.453125 
Q 44.28125 73.921875 44.28125 73 
L 44.28125 72.609375 
L 9.515625 -23.78125 
Q 8.9375 -25 7.625 -25 
Q 6.78125 -25 6.1875 -24.40625 
Q 5.609375 -23.828125 5.609375 -23 
z
" id="Cmmi10-61"/>
      <path d="M 4.984375 0 
L 4.984375 2.6875 
Q 4.984375 2.9375 5.171875 3.21875 
L 20.703125 20.40625 
Q 24.21875 24.21875 26.40625 26.796875 
Q 28.609375 29.390625 30.75 32.765625 
Q 32.90625 36.140625 34.15625 39.625 
Q 35.40625 43.109375 35.40625 47.015625 
Q 35.40625 51.125 33.890625 54.859375 
Q 32.375 58.59375 29.375 60.84375 
Q 26.375 63.09375 22.125 63.09375 
Q 17.78125 63.09375 14.3125 60.46875 
Q 10.84375 57.859375 9.421875 53.71875 
Q 9.8125 53.8125 10.5 53.8125 
Q 12.75 53.8125 14.328125 52.296875 
Q 15.921875 50.78125 15.921875 48.390625 
Q 15.921875 46.09375 14.328125 44.5 
Q 12.75 42.921875 10.5 42.921875 
Q 8.15625 42.921875 6.5625 44.546875 
Q 4.984375 46.1875 4.984375 48.390625 
Q 4.984375 52.15625 6.390625 55.4375 
Q 7.8125 58.734375 10.46875 61.296875 
Q 13.140625 63.875 16.484375 65.234375 
Q 19.828125 66.609375 23.578125 66.609375 
Q 29.296875 66.609375 34.21875 64.1875 
Q 39.15625 61.765625 42.03125 57.34375 
Q 44.921875 52.9375 44.921875 47.015625 
Q 44.921875 42.671875 43.015625 38.765625 
Q 41.109375 34.859375 38.125 31.65625 
Q 35.15625 28.46875 30.515625 24.40625 
Q 25.875 20.359375 24.421875 19 
L 13.09375 8.109375 
L 22.703125 8.109375 
Q 29.78125 8.109375 34.546875 8.21875 
Q 39.3125 8.34375 39.59375 8.59375 
Q 40.765625 9.859375 42 17.828125 
L 44.921875 17.828125 
L 42.09375 0 
z
" id="Cmr10-50"/>
      <path d="M 10.109375 1.703125 
Q 10.109375 2.25 10.5 3.328125 
Q 13.28125 9.125 15.6875 14.71875 
Q 18.109375 20.3125 20.03125 25.609375 
Q 21.96875 30.90625 23.578125 36.921875 
L 17.1875 36.921875 
Q 13.53125 36.921875 10.34375 34.625 
Q 7.171875 32.328125 5.078125 28.8125 
Q 4.890625 28.421875 4.5 28.421875 
L 3.328125 28.421875 
Q 2.390625 28.421875 2.390625 29.390625 
Q 2.390625 29.59375 2.59375 29.984375 
Q 5.859375 35.546875 9.59375 39.328125 
Q 13.328125 43.109375 18.015625 43.109375 
L 54.296875 43.109375 
Q 55.328125 43.109375 56.046875 42.421875 
Q 56.78125 41.75 56.78125 40.578125 
Q 56.78125 39.109375 55.734375 38.015625 
Q 54.6875 36.921875 53.21875 36.921875 
L 40.484375 36.921875 
Q 38.875 29.046875 38.71875 21.578125 
Q 38.71875 11.96875 42.09375 4.203125 
Q 42.390625 3.609375 42.390625 2.984375 
Q 42.390625 1.90625 41.75 0.96875 
Q 41.109375 0.046875 40.109375 -0.53125 
Q 39.109375 -1.125 37.984375 -1.125 
Q 35.359375 -1.125 34.375 3.171875 
Q 33.40625 7.46875 33.40625 11.53125 
Q 33.40625 17.234375 34.375 22.53125 
Q 35.359375 27.828125 37.5 36.921875 
L 26.609375 36.921875 
Q 18.703125 4.890625 17.09375 1.609375 
Q 15.671875 -1.125 13.1875 -1.125 
Q 11.96875 -1.125 11.03125 -0.3125 
Q 10.109375 0.484375 10.109375 1.703125 
z
" id="Cmmi10-188"/>
      <path id="DejaVuSans-32"/>
      <path d="M 31 75.875 
Q 24.46875 64.65625 21.28125 53.65625 
Q 18.109375 42.671875 18.109375 31.390625 
Q 18.109375 20.125 21.3125 9.0625 
Q 24.515625 -2 31 -13.1875 
L 23.1875 -13.1875 
Q 15.875 -1.703125 12.234375 9.375 
Q 8.59375 20.453125 8.59375 31.390625 
Q 8.59375 42.28125 12.203125 53.3125 
Q 15.828125 64.359375 23.1875 75.875 
z
" id="DejaVuSans-40"/>
      <path d="M 59.515625 10.40625 
L 59.515625 29.984375 
L 43.40625 29.984375 
L 43.40625 38.09375 
L 69.28125 38.09375 
L 69.28125 6.78125 
Q 63.578125 2.734375 56.6875 0.65625 
Q 49.8125 -1.421875 42 -1.421875 
Q 24.90625 -1.421875 15.25 8.5625 
Q 5.609375 18.5625 5.609375 36.375 
Q 5.609375 54.25 15.25 64.234375 
Q 24.90625 74.21875 42 74.21875 
Q 49.125 74.21875 55.546875 72.453125 
Q 61.96875 70.703125 67.390625 67.28125 
L 67.390625 56.78125 
Q 61.921875 61.421875 55.765625 63.765625 
Q 49.609375 66.109375 42.828125 66.109375 
Q 29.4375 66.109375 22.71875 58.640625 
Q 16.015625 51.171875 16.015625 36.375 
Q 16.015625 21.625 22.71875 14.15625 
Q 29.4375 6.6875 42.828125 6.6875 
Q 48.046875 6.6875 52.140625 7.59375 
Q 56.25 8.5 59.515625 10.40625 
z
" id="DejaVuSans-71"/>
      <path d="M 9.8125 72.90625 
L 19.671875 72.90625 
L 19.671875 43.015625 
L 55.515625 43.015625 
L 55.515625 72.90625 
L 65.375 72.90625 
L 65.375 0 
L 55.515625 0 
L 55.515625 34.71875 
L 19.671875 34.71875 
L 19.671875 0 
L 9.8125 0 
z
" id="DejaVuSans-72"/>
      <path d="M 5.515625 54.6875 
L 48.1875 54.6875 
L 48.1875 46.484375 
L 14.40625 7.171875 
L 48.1875 7.171875 
L 48.1875 0 
L 4.296875 0 
L 4.296875 8.203125 
L 38.09375 47.515625 
L 5.515625 47.515625 
z
" id="DejaVuSans-122"/>
      <path d="M 8.015625 75.875 
L 15.828125 75.875 
Q 23.140625 64.359375 26.78125 53.3125 
Q 30.421875 42.28125 30.421875 31.390625 
Q 30.421875 20.453125 26.78125 9.375 
Q 23.140625 -1.703125 15.828125 -13.1875 
L 8.015625 -13.1875 
Q 14.5 -2 17.703125 9.0625 
Q 20.90625 20.125 20.90625 31.390625 
Q 20.90625 42.671875 17.703125 53.65625 
Q 14.5 64.65625 8.015625 75.875 
z
" id="DejaVuSans-41"/>
     </defs>
     <g transform="translate(9.833125 137.235)rotate(-90)scale(0.14 -0.14)">
      <use transform="translate(0 0.125)" xlink:href="#Cmmi10-33"/>
      <use transform="translate(62.207031 0.125)" xlink:href="#Cmmi10-61"/>
      <use transform="translate(112.207031 0.125)" xlink:href="#Cmr10-50"/>
      <use transform="translate(162.207031 0.125)" xlink:href="#Cmmi10-188"/>
      <use transform="translate(219.189453 0.125)" xlink:href="#DejaVuSans-32"/>
      <use transform="translate(250.976562 0.125)" xlink:href="#DejaVuSans-40"/>
      <use transform="translate(289.990234 0.125)" xlink:href="#DejaVuSans-71"/>
      <use transform="translate(367.480469 0.125)" xlink:href="#DejaVuSans-72"/>
      <use transform="translate(442.675781 0.125)" xlink:href="#DejaVuSans-122"/>
      <use transform="translate(495.166016 0.125)" xlink:href="#DejaVuSans-41"/>
     </g>
    </g>
   </g>
   <g id="line2d_19">
    <path clip-path="url(#p5442f05fe6)" d="M 43.188611 -0.176761 
L 55.036039 219.083752 
L 55.529682 218.731044 
L 57.997896 174.066519 
L 59.478825 146.918258 
L 59.972468 144.888698 
L 65.896182 140.490975 
L 71.819896 136.37613 
L 77.74361 132.541042 
L 83.667324 128.979344 
L 89.591038 125.685463 
L 95.514752 122.654534 
L 101.438466 119.882226 
L 107.36218 117.364635 
L 113.285895 115.098237 
L 119.209609 113.079862 
L 125.133323 111.306684 
L 131.057037 109.776219 
L 136.980751 108.48632 
L 142.904465 107.435176 
L 148.828179 106.62131 
L 154.751893 106.043579 
L 160.675607 105.701171 
L 166.599321 105.593605 
L 172.523036 105.720731 
L 178.44675 106.082726 
L 184.370464 106.680099 
L 190.294178 107.51369 
L 196.217892 108.58467 
L 202.141606 109.894542 
L 208.06532 111.445147 
L 213.989034 113.238658 
L 219.912748 115.277589 
L 225.836462 117.564794 
L 231.760176 120.103472 
L 237.683891 122.897177 
L 243.607605 125.949846 
L 249.531319 129.265851 
L 255.455033 132.850107 
L 261.378747 136.708257 
L 267.302461 140.846701 
L 272.732532 144.888698 
L 273.226175 146.918258 
L 277.175318 218.731044 
L 277.668961 219.083752 
L 279.643532 183.415807 
L 289 9.469134 
L 289 9.469134 
" style="fill:none;stroke:#004ba8;stroke-linecap:square;stroke-width:1.2;"/>
   </g>
   <g id="line2d_20">
    <path clip-path="url(#p5442f05fe6)" d="M 43.188611 159.343154 
L 47.137754 155.6285 
L 51.580539 151.74361 
L 54.542396 149.399207 
L 55.036039 149.298208 
L 55.529682 153.626982 
L 59.478825 222.712837 
L 59.972468 217.35514 
L 67.870753 80.27613 
L 68.858039 64.876096 
L 69.351682 59.766711 
L 69.845325 57.599397 
L 70.338967 56.698425 
L 71.326253 55.828357 
L 72.807182 55.062692 
L 75.769039 53.916005 
L 81.19911 52.112293 
L 89.097395 49.742756 
L 97.489324 47.462405 
L 105.881252 45.416511 
L 113.779537 43.710979 
L 121.677823 42.22677 
L 129.576108 40.971421 
L 137.474394 39.951439 
L 144.879036 39.213654 
L 152.283679 38.690649 
L 159.688322 38.384721 
L 167.092964 38.2972 
L 174.497607 38.428463 
L 181.902249 38.777944 
L 189.306892 39.34412 
L 196.711535 40.124498 
L 204.60982 41.18905 
L 212.508106 42.487842 
L 220.406391 44.014147 
L 228.304677 45.760291 
L 236.696605 47.847857 
L 245.088533 50.169674 
L 252.986819 52.585286 
L 258.41689 54.460069 
L 260.391461 55.289102 
L 261.378747 55.828357 
L 261.87239 56.188465 
L 262.366033 56.698425 
L 262.859675 57.599397 
L 263.353318 59.766711 
L 263.846961 64.876096 
L 264.834247 80.27613 
L 269.277032 156.910488 
L 272.732532 217.35514 
L 273.226175 222.712837 
L 277.175318 153.626982 
L 277.668961 149.298208 
L 278.162604 149.399207 
L 279.643532 150.515883 
L 283.592675 153.868094 
L 288.03546 157.914668 
L 289 158.839489 
L 289 158.839489 
" style="fill:none;stroke:#990000;stroke-linecap:square;stroke-width:1.2;"/>
   </g>
   <g id="line2d_21">
    <path clip-path="url(#p5442f05fe6)" d="M 43.188611 30.728511 
L 53.061468 214.5426 
L 53.555111 221.33351 
L 54.048754 214.901985 
L 57.997896 143.1143 
L 62.440682 139.834497 
L 68.364396 135.703771 
L 74.28811 131.840921 
L 80.211824 128.242195 
L 86.135538 124.903784 
L 92.059252 121.82217 
L 97.982966 118.994049 
L 103.906681 116.416289 
L 109.830395 114.085929 
L 115.754109 112.000188 
L 121.677823 110.156488 
L 127.601537 108.552466 
L 133.525251 107.185988 
L 139.448965 106.055156 
L 145.372679 105.158314 
L 151.296393 104.494043 
L 157.220107 104.061163 
L 163.143822 103.858722 
L 169.067536 103.885989 
L 174.99125 104.142438 
L 180.914964 104.627731 
L 186.838678 105.341696 
L 192.762392 106.284294 
L 198.686106 107.455589 
L 204.60982 108.855692 
L 210.533534 110.484705 
L 216.457248 112.34264 
L 222.380962 114.42932 
L 228.304677 116.744247 
L 234.228391 119.286437 
L 240.645748 122.294974 
L 247.063105 125.564847 
L 253.480461 129.090885 
L 259.897818 132.865546 
L 266.808818 137.195459 
L 269.770675 139.130072 
L 270.264318 141.029622 
L 274.707104 220.993049 
L 275.200746 216.045724 
L 278.656246 152.497059 
L 286.892364 -1 
L 286.892364 -1 
" style="fill:none;stroke:#0072b2;stroke-dasharray:1.2,1.98;stroke-dashoffset:0;stroke-width:1.2;"/>
   </g>
   <g id="line2d_22">
    <path clip-path="url(#p5442f05fe6)" d="M 43.188611 155.409059 
L 47.631397 151.488744 
L 52.074182 147.855445 
L 53.061468 147.216928 
L 53.555111 148.006375 
L 54.542396 164.038693 
L 57.997896 223.61758 
L 66.389825 77.231662 
L 67.37711 62.779653 
L 67.870753 59.181885 
L 68.364396 57.795749 
L 68.858039 57.12624 
L 69.845325 56.371117 
L 71.326253 55.630768 
L 74.28811 54.471105 
L 79.718181 52.6241 
L 87.122824 50.342331 
L 95.021109 48.13085 
L 102.919395 46.137996 
L 110.81768 44.367592 
L 118.715966 42.826605 
L 126.614251 41.522175 
L 134.018894 40.519807 
L 141.423537 39.735391 
L 148.828179 39.17247 
L 156.232822 38.833722 
L 163.637464 38.720988 
L 171.042107 38.835304 
L 178.44675 39.176939 
L 185.851392 39.745421 
L 193.256035 40.539574 
L 200.660677 41.557562 
L 208.06532 42.796973 
L 215.469963 44.254981 
L 222.874605 45.928685 
L 230.772891 47.949212 
L 238.671176 50.213112 
L 246.075819 52.566804 
L 252.493176 54.827046 
L 256.442319 56.415823 
L 258.41689 57.437708 
L 259.404176 58.248551 
L 259.897818 58.97505 
L 260.391461 60.50804 
L 260.885104 64.430861 
L 261.87239 79.167387 
L 265.32789 138.93117 
L 269.770675 217.189452 
L 270.264318 222.774251 
L 274.707104 144.881638 
L 275.200746 143.131832 
L 276.188032 143.617034 
L 279.643532 146.007506 
L 285.073603 150.028156 
L 289 153.190787 
L 289 153.190787 
" style="fill:none;stroke:#cc79a7;stroke-dasharray:1.2,1.98;stroke-dashoffset:0;stroke-width:1.2;"/>
   </g>
   <g id="patch_3">
    <path d="M 55.505 188.77 
L 55.505 10.8 
" style="fill:none;stroke:#2b2b2b;stroke-linecap:square;stroke-linejoin:miter;stroke-width:0.8;"/>
   </g>
   <g id="patch_4">
    <path d="M 277.2 188.77 
L 277.2 10.8 
" style="fill:none;stroke:#2b2b2b;stroke-linecap:square;stroke-linejoin:miter;stroke-width:0.8;"/>
   </g>
   <g id="patch_5">
    <path d="M 55.505 188.77 
L 277.2 188.77 
" style="fill:none;stroke:#2b2b2b;stroke-linecap:square;stroke-linejoin:miter;stroke-width:0.8;"/>
   </g>
   <g id="patch_6">
    <path d="M 55.505 10.8 
L 277.2 10.8 
" style="fill:none;stroke:#2b2b2b;stroke-linecap:square;stroke-linejoin:miter;stroke-width:0.8;"/>
   </g>
  </g>
  <g id="axes_2">
   <g id="patch_7">
    <path d="M 55.505 381.04 
L 277.2 381.04 
L 277.2 203.07 
L 55.505 203.07 
z
" style="fill:none;"/>
   </g>
   <g id="matplotlib.axis_3">
    <g id="xtick_4">
     <g id="line2d_23">
      <path clip-path="url(#pdc049c15e8)" d="M 84.243241 381.04 
L 84.243241 203.07 
" style="fill:none;stroke:#b2b2b2;stroke-dasharray:2.96,1.28;stroke-dashoffset:0;stroke-opacity:0.3;stroke-width:0.8;"/>
     </g>
     <g id="line2d_24">
      <g>
       <use style="fill:#2b2b2b;stroke:#2b2b2b;stroke-width:0.8;" x="84.243241" xlink:href="#mf96a51a8f2" y="381.04"/>
      </g>
     </g>
     <g id="text_8">
      <!-- 0.4 -->
      <defs>
       <path d="M 37.796875 64.3125 
L 12.890625 25.390625 
L 37.796875 25.390625 
z
M 35.203125 72.90625 
L 47.609375 72.90625 
L 47.609375 25.390625 
L 58.015625 25.390625 
L 58.015625 17.1875 
L 47.609375 17.1875 
L 47.609375 0 
L 37.796875 0 
L 37.796875 17.1875 
L 4.890625 17.1875 
L 4.890625 26.703125 
z
" id="DejaVuSans-52"/>
      </defs>
      <g style="fill:#2b2b2b;" transform="translate(73.111053 398.677813)scale(0.14 -0.14)">
       <use xlink:href="#DejaVuSans-48"/>
       <use x="63.623047" xlink:href="#DejaVuSans-46"/>
       <use x="95.410156" xlink:href="#DejaVuSans-52"/>
      </g>
     </g>
    </g>
    <g id="xtick_5">
     <g id="line2d_25">
      <path clip-path="url(#pdc049c15e8)" d="M 166.3525 381.04 
L 166.3525 203.07 
" style="fill:none;stroke:#b2b2b2;stroke-dasharray:2.96,1.28;stroke-dashoffset:0;stroke-opacity:0.3;stroke-width:0.8;"/>
     </g>
     <g id="line2d_26">
      <g>
       <use style="fill:#2b2b2b;stroke:#2b2b2b;stroke-width:0.8;" x="166.3525" xlink:href="#mf96a51a8f2" y="381.04"/>
      </g>
     </g>
     <g id="text_9">
      <!-- 0.5 -->
      <g style="fill:#2b2b2b;" transform="translate(155.220313 398.677813)scale(0.14 -0.14)">
       <use xlink:href="#DejaVuSans-48"/>
       <use x="63.623047" xlink:href="#DejaVuSans-46"/>
       <use x="95.410156" xlink:href="#DejaVuSans-53"/>
      </g>
     </g>
    </g>
    <g id="xtick_6">
     <g id="line2d_27">
      <path clip-path="url(#pdc049c15e8)" d="M 248.461759 381.04 
L 248.461759 203.07 
" style="fill:none;stroke:#b2b2b2;stroke-dasharray:2.96,1.28;stroke-dashoffset:0;stroke-opacity:0.3;stroke-width:0.8;"/>
     </g>
     <g id="line2d_28">
      <g>
       <use style="fill:#2b2b2b;stroke:#2b2b2b;stroke-width:0.8;" x="248.461759" xlink:href="#mf96a51a8f2" y="381.04"/>
      </g>
     </g>
     <g id="text_10">
      <!-- 0.6 -->
      <defs>
       <path d="M 33.015625 40.375 
Q 26.375 40.375 22.484375 35.828125 
Q 18.609375 31.296875 18.609375 23.390625 
Q 18.609375 15.53125 22.484375 10.953125 
Q 26.375 6.390625 33.015625 6.390625 
Q 39.65625 6.390625 43.53125 10.953125 
Q 47.40625 15.53125 47.40625 23.390625 
Q 47.40625 31.296875 43.53125 35.828125 
Q 39.65625 40.375 33.015625 40.375 
z
M 52.59375 71.296875 
L 52.59375 62.3125 
Q 48.875 64.0625 45.09375 64.984375 
Q 41.3125 65.921875 37.59375 65.921875 
Q 27.828125 65.921875 22.671875 59.328125 
Q 17.53125 52.734375 16.796875 39.40625 
Q 19.671875 43.65625 24.015625 45.921875 
Q 28.375 48.1875 33.59375 48.1875 
Q 44.578125 48.1875 50.953125 41.515625 
Q 57.328125 34.859375 57.328125 23.390625 
Q 57.328125 12.15625 50.6875 5.359375 
Q 44.046875 -1.421875 33.015625 -1.421875 
Q 20.359375 -1.421875 13.671875 8.265625 
Q 6.984375 17.96875 6.984375 36.375 
Q 6.984375 53.65625 15.1875 63.9375 
Q 23.390625 74.21875 37.203125 74.21875 
Q 40.921875 74.21875 44.703125 73.484375 
Q 48.484375 72.75 52.59375 71.296875 
z
" id="DejaVuSans-54"/>
      </defs>
      <g style="fill:#2b2b2b;" transform="translate(237.329572 398.677813)scale(0.14 -0.14)">
       <use xlink:href="#DejaVuSans-48"/>
       <use x="63.623047" xlink:href="#DejaVuSans-46"/>
       <use x="95.410156" xlink:href="#DejaVuSans-54"/>
      </g>
     </g>
    </g>
    <g id="text_11">
     <!-- $\varphi_+/2\pi$ -->
     <defs>
      <path d="M 16.3125 -19 
Q 16.3125 -18.609375 16.5 -17.828125 
L 22.125 -0.203125 
Q 14.65625 1.65625 9.8125 6.6875 
Q 4.984375 11.71875 4.984375 19 
Q 4.984375 22.65625 6.34375 27.25 
Q 7.71875 31.84375 9.859375 35.96875 
Q 12.015625 40.09375 14.5 42.828125 
Q 15.09375 43.109375 15.1875 43.109375 
L 16.40625 43.109375 
Q 16.703125 43.109375 16.9375 42.8125 
Q 17.1875 42.53125 17.1875 42.1875 
Q 17.1875 41.796875 17 41.609375 
Q 15.328125 39.796875 13.734375 37.1875 
Q 12.15625 34.578125 10.90625 31.6875 
Q 9.671875 28.8125 8.84375 25.640625 
Q 8.015625 22.46875 8.015625 20.125 
Q 8.015625 14.203125 12.71875 10.5625 
Q 17.4375 6.9375 23.875 5.71875 
L 26.703125 14.703125 
Q 28.5625 20.515625 30.390625 25.078125 
Q 32.234375 29.640625 34.984375 34 
Q 37.75 38.375 41.65625 41.28125 
Q 45.5625 44.1875 50.390625 44.1875 
Q 54.203125 44.1875 56.765625 42.28125 
Q 59.328125 40.375 60.5625 37.203125 
Q 61.8125 34.03125 61.8125 30.421875 
Q 61.8125 24.46875 59.171875 18.78125 
Q 56.546875 13.09375 51.953125 8.5625 
Q 47.359375 4.046875 41.59375 1.453125 
Q 35.84375 -1.125 29.984375 -1.125 
Q 29.203125 -1.078125 28.296875 -1.03125 
Q 27.390625 -0.984375 26.8125 -0.984375 
L 23.484375 -18.40625 
Q 23.1875 -19.875 21.984375 -20.828125 
Q 20.796875 -21.78125 19.28125 -21.78125 
Q 18.0625 -21.78125 17.1875 -21.015625 
Q 16.3125 -20.265625 16.3125 -19 
z
M 27.875 5.171875 
Q 29 5.078125 31.109375 5.078125 
Q 37.3125 5.078125 43.71875 8.125 
Q 50.140625 11.1875 54.359375 16.5 
Q 58.59375 21.828125 58.59375 28.078125 
Q 58.59375 30.90625 57.4375 33.15625 
Q 56.296875 35.40625 54.21875 36.6875 
Q 52.15625 37.984375 49.421875 37.984375 
Q 41.65625 37.984375 36.421875 30.46875 
Q 31.203125 22.953125 29.59375 14.3125 
z
" id="Cmmi10-39"/>
      <path d="M 7.515625 23 
Q 6.6875 23 6.140625 23.625 
Q 5.609375 24.265625 5.609375 25 
Q 5.609375 25.734375 6.140625 26.359375 
Q 6.6875 27 7.515625 27 
L 36.921875 27 
L 36.921875 56.5 
Q 36.921875 57.28125 37.5 57.78125 
Q 38.09375 58.296875 38.921875 58.296875 
Q 39.65625 58.296875 40.28125 57.78125 
Q 40.921875 57.28125 40.921875 56.5 
L 40.921875 27 
L 70.3125 27 
Q 71.046875 27 71.578125 26.359375 
Q 72.125 25.734375 72.125 25 
Q 72.125 24.265625 71.578125 23.625 
Q 71.046875 23 70.3125 23 
L 40.921875 23 
L 40.921875 -6.5 
Q 40.921875 -7.28125 40.28125 -7.78125 
Q 39.65625 -8.296875 38.921875 -8.296875 
Q 38.09375 -8.296875 37.5 -7.78125 
Q 36.921875 -7.28125 36.921875 -6.5 
L 36.921875 23 
z
" id="Cmr10-43"/>
     </defs>
     <g transform="translate(144.7925 416.089375)scale(0.14 -0.14)">
      <use xlink:href="#Cmmi10-39"/>
      <use transform="translate(77.671875 -17.00625)scale(0.7)" xlink:href="#Cmr10-43"/>
      <use transform="translate(150.720117 0)" xlink:href="#Cmmi10-61"/>
      <use transform="translate(200.720117 0)" xlink:href="#Cmr10-50"/>
      <use transform="translate(250.720117 0)" xlink:href="#Cmmi10-188"/>
     </g>
    </g>
   </g>
   <g id="matplotlib.axis_4">
    <g id="ytick_7">
     <g id="line2d_29">
      <path clip-path="url(#pdc049c15e8)" d="M 55.505 372.950455 
L 277.2 372.950455 
" style="fill:none;stroke:#b2b2b2;stroke-dasharray:2.96,1.28;stroke-dashoffset:0;stroke-opacity:0.3;stroke-width:0.8;"/>
     </g>
     <g id="line2d_30">
      <g>
       <use style="fill:#2b2b2b;stroke:#2b2b2b;stroke-width:0.8;" x="55.505" xlink:href="#md1d2a9f33c" y="372.950455"/>
      </g>
     </g>
     <g id="text_12">
      <!-- 0 -->
      <g style="fill:#2b2b2b;" transform="translate(39.5975 378.269361)scale(0.14 -0.14)">
       <use xlink:href="#DejaVuSans-48"/>
      </g>
     </g>
    </g>
    <g id="ytick_8">
     <g id="line2d_31">
      <path clip-path="url(#pdc049c15e8)" d="M 55.505 326.96436 
L 277.2 326.96436 
" style="fill:none;stroke:#b2b2b2;stroke-dasharray:2.96,1.28;stroke-dashoffset:0;stroke-opacity:0.3;stroke-width:0.8;"/>
     </g>
     <g id="line2d_32">
      <g>
       <use style="fill:#2b2b2b;stroke:#2b2b2b;stroke-width:0.8;" x="55.505" xlink:href="#md1d2a9f33c" y="326.96436"/>
      </g>
     </g>
     <g id="text_13">
      <!-- 2 -->
      <g style="fill:#2b2b2b;" transform="translate(39.5975 332.283266)scale(0.14 -0.14)">
       <use xlink:href="#DejaVuSans-50"/>
      </g>
     </g>
    </g>
    <g id="ytick_9">
     <g id="line2d_33">
      <path clip-path="url(#pdc049c15e8)" d="M 55.505 280.978265 
L 277.2 280.978265 
" style="fill:none;stroke:#b2b2b2;stroke-dasharray:2.96,1.28;stroke-dashoffset:0;stroke-opacity:0.3;stroke-width:0.8;"/>
     </g>
     <g id="line2d_34">
      <g>
       <use style="fill:#2b2b2b;stroke:#2b2b2b;stroke-width:0.8;" x="55.505" xlink:href="#md1d2a9f33c" y="280.978265"/>
      </g>
     </g>
     <g id="text_14">
      <!-- 4 -->
      <g style="fill:#2b2b2b;" transform="translate(39.5975 286.297171)scale(0.14 -0.14)">
       <use xlink:href="#DejaVuSans-52"/>
      </g>
     </g>
    </g>
    <g id="ytick_10">
     <g id="line2d_35">
      <path clip-path="url(#pdc049c15e8)" d="M 55.505 234.99217 
L 277.2 234.99217 
" style="fill:none;stroke:#b2b2b2;stroke-dasharray:2.96,1.28;stroke-dashoffset:0;stroke-opacity:0.3;stroke-width:0.8;"/>
     </g>
     <g id="line2d_36">
      <g>
       <use style="fill:#2b2b2b;stroke:#2b2b2b;stroke-width:0.8;" x="55.505" xlink:href="#md1d2a9f33c" y="234.99217"/>
      </g>
     </g>
     <g id="text_15">
      <!-- 6 -->
      <g style="fill:#2b2b2b;" transform="translate(39.5975 240.311076)scale(0.14 -0.14)">
       <use xlink:href="#DejaVuSans-54"/>
      </g>
     </g>
    </g>
    <g id="text_16">
     <!-- Matrix elements ($\mu$V) -->
     <defs>
      <path d="M 9.8125 72.90625 
L 24.515625 72.90625 
L 43.109375 23.296875 
L 61.8125 72.90625 
L 76.515625 72.90625 
L 76.515625 0 
L 66.890625 0 
L 66.890625 64.015625 
L 48.09375 14.015625 
L 38.1875 14.015625 
L 19.390625 64.015625 
L 19.390625 0 
L 9.8125 0 
z
" id="DejaVuSans-77"/>
      <path d="M 34.28125 27.484375 
Q 23.390625 27.484375 19.1875 25 
Q 14.984375 22.515625 14.984375 16.5 
Q 14.984375 11.71875 18.140625 8.90625 
Q 21.296875 6.109375 26.703125 6.109375 
Q 34.1875 6.109375 38.703125 11.40625 
Q 43.21875 16.703125 43.21875 25.484375 
L 43.21875 27.484375 
z
M 52.203125 31.203125 
L 52.203125 0 
L 43.21875 0 
L 43.21875 8.296875 
Q 40.140625 3.328125 35.546875 0.953125 
Q 30.953125 -1.421875 24.3125 -1.421875 
Q 15.921875 -1.421875 10.953125 3.296875 
Q 6 8.015625 6 15.921875 
Q 6 25.140625 12.171875 29.828125 
Q 18.359375 34.515625 30.609375 34.515625 
L 43.21875 34.515625 
L 43.21875 35.40625 
Q 43.21875 41.609375 39.140625 45 
Q 35.0625 48.390625 27.6875 48.390625 
Q 23 48.390625 18.546875 47.265625 
Q 14.109375 46.140625 10.015625 43.890625 
L 10.015625 52.203125 
Q 14.9375 54.109375 19.578125 55.046875 
Q 24.21875 56 28.609375 56 
Q 40.484375 56 46.34375 49.84375 
Q 52.203125 43.703125 52.203125 31.203125 
z
" id="DejaVuSans-97"/>
      <path d="M 18.3125 70.21875 
L 18.3125 54.6875 
L 36.8125 54.6875 
L 36.8125 47.703125 
L 18.3125 47.703125 
L 18.3125 18.015625 
Q 18.3125 11.328125 20.140625 9.421875 
Q 21.96875 7.515625 27.59375 7.515625 
L 36.8125 7.515625 
L 36.8125 0 
L 27.59375 0 
Q 17.1875 0 13.234375 3.875 
Q 9.28125 7.765625 9.28125 18.015625 
L 9.28125 47.703125 
L 2.6875 47.703125 
L 2.6875 54.6875 
L 9.28125 54.6875 
L 9.28125 70.21875 
z
" id="DejaVuSans-116"/>
      <path d="M 41.109375 46.296875 
Q 39.59375 47.171875 37.8125 47.578125 
Q 36.03125 48 33.890625 48 
Q 26.265625 48 22.1875 43.046875 
Q 18.109375 38.09375 18.109375 28.8125 
L 18.109375 0 
L 9.078125 0 
L 9.078125 54.6875 
L 18.109375 54.6875 
L 18.109375 46.1875 
Q 20.953125 51.171875 25.484375 53.578125 
Q 30.03125 56 36.53125 56 
Q 37.453125 56 38.578125 55.875 
Q 39.703125 55.765625 41.0625 55.515625 
z
" id="DejaVuSans-114"/>
      <path d="M 9.421875 54.6875 
L 18.40625 54.6875 
L 18.40625 0 
L 9.421875 0 
z
M 9.421875 75.984375 
L 18.40625 75.984375 
L 18.40625 64.59375 
L 9.421875 64.59375 
z
" id="DejaVuSans-105"/>
      <path d="M 54.890625 54.6875 
L 35.109375 28.078125 
L 55.90625 0 
L 45.3125 0 
L 29.390625 21.484375 
L 13.484375 0 
L 2.875 0 
L 24.125 28.609375 
L 4.6875 54.6875 
L 15.28125 54.6875 
L 29.78125 35.203125 
L 44.28125 54.6875 
z
" id="DejaVuSans-120"/>
      <path d="M 56.203125 29.59375 
L 56.203125 25.203125 
L 14.890625 25.203125 
Q 15.484375 15.921875 20.484375 11.0625 
Q 25.484375 6.203125 34.421875 6.203125 
Q 39.59375 6.203125 44.453125 7.46875 
Q 49.3125 8.734375 54.109375 11.28125 
L 54.109375 2.78125 
Q 49.265625 0.734375 44.1875 -0.34375 
Q 39.109375 -1.421875 33.890625 -1.421875 
Q 20.796875 -1.421875 13.15625 6.1875 
Q 5.515625 13.8125 5.515625 26.8125 
Q 5.515625 40.234375 12.765625 48.109375 
Q 20.015625 56 32.328125 56 
Q 43.359375 56 49.78125 48.890625 
Q 56.203125 41.796875 56.203125 29.59375 
z
M 47.21875 32.234375 
Q 47.125 39.59375 43.09375 43.984375 
Q 39.0625 48.390625 32.421875 48.390625 
Q 24.90625 48.390625 20.390625 44.140625 
Q 15.875 39.890625 15.1875 32.171875 
z
" id="DejaVuSans-101"/>
      <path d="M 9.421875 75.984375 
L 18.40625 75.984375 
L 18.40625 0 
L 9.421875 0 
z
" id="DejaVuSans-108"/>
      <path d="M 52 44.1875 
Q 55.375 50.25 60.0625 53.125 
Q 64.75 56 71.09375 56 
Q 79.640625 56 84.28125 50.015625 
Q 88.921875 44.046875 88.921875 33.015625 
L 88.921875 0 
L 79.890625 0 
L 79.890625 32.71875 
Q 79.890625 40.578125 77.09375 44.375 
Q 74.3125 48.1875 68.609375 48.1875 
Q 61.625 48.1875 57.5625 43.546875 
Q 53.515625 38.921875 53.515625 30.90625 
L 53.515625 0 
L 44.484375 0 
L 44.484375 32.71875 
Q 44.484375 40.625 41.703125 44.40625 
Q 38.921875 48.1875 33.109375 48.1875 
Q 26.21875 48.1875 22.15625 43.53125 
Q 18.109375 38.875 18.109375 30.90625 
L 18.109375 0 
L 9.078125 0 
L 9.078125 54.6875 
L 18.109375 54.6875 
L 18.109375 46.1875 
Q 21.1875 51.21875 25.484375 53.609375 
Q 29.78125 56 35.6875 56 
Q 41.65625 56 45.828125 52.96875 
Q 50 49.953125 52 44.1875 
z
" id="DejaVuSans-109"/>
      <path d="M 54.890625 33.015625 
L 54.890625 0 
L 45.90625 0 
L 45.90625 32.71875 
Q 45.90625 40.484375 42.875 44.328125 
Q 39.84375 48.1875 33.796875 48.1875 
Q 26.515625 48.1875 22.3125 43.546875 
Q 18.109375 38.921875 18.109375 30.90625 
L 18.109375 0 
L 9.078125 0 
L 9.078125 54.6875 
L 18.109375 54.6875 
L 18.109375 46.1875 
Q 21.34375 51.125 25.703125 53.5625 
Q 30.078125 56 35.796875 56 
Q 45.21875 56 50.046875 50.171875 
Q 54.890625 44.34375 54.890625 33.015625 
z
" id="DejaVuSans-110"/>
      <path d="M 44.28125 53.078125 
L 44.28125 44.578125 
Q 40.484375 46.53125 36.375 47.5 
Q 32.28125 48.484375 27.875 48.484375 
Q 21.1875 48.484375 17.84375 46.4375 
Q 14.5 44.390625 14.5 40.28125 
Q 14.5 37.15625 16.890625 35.375 
Q 19.28125 33.59375 26.515625 31.984375 
L 29.59375 31.296875 
Q 39.15625 29.25 43.1875 25.515625 
Q 47.21875 21.78125 47.21875 15.09375 
Q 47.21875 7.46875 41.1875 3.015625 
Q 35.15625 -1.421875 24.609375 -1.421875 
Q 20.21875 -1.421875 15.453125 -0.5625 
Q 10.6875 0.296875 5.421875 2 
L 5.421875 11.28125 
Q 10.40625 8.6875 15.234375 7.390625 
Q 20.0625 6.109375 24.8125 6.109375 
Q 31.15625 6.109375 34.5625 8.28125 
Q 37.984375 10.453125 37.984375 14.40625 
Q 37.984375 18.0625 35.515625 20.015625 
Q 33.0625 21.96875 24.703125 23.78125 
L 21.578125 24.515625 
Q 13.234375 26.265625 9.515625 29.90625 
Q 5.8125 33.546875 5.8125 39.890625 
Q 5.8125 47.609375 11.28125 51.796875 
Q 16.75 56 26.8125 56 
Q 31.78125 56 36.171875 55.265625 
Q 40.578125 54.546875 44.28125 53.078125 
z
" id="DejaVuSans-115"/>
      <path d="M 2.78125 -18.796875 
Q 2.78125 -18.21875 2.875 -18.015625 
L 17.578125 41.015625 
Q 18.015625 42.4375 19.15625 43.3125 
Q 20.3125 44.1875 21.78125 44.1875 
Q 23.046875 44.1875 23.921875 43.421875 
Q 24.8125 42.671875 24.8125 41.40625 
Q 24.8125 41.109375 24.78125 40.9375 
Q 24.75 40.765625 24.703125 40.578125 
L 18.796875 17.1875 
Q 17.828125 13.03125 17.828125 10.015625 
Q 17.828125 6.296875 19.578125 3.90625 
Q 21.34375 1.515625 24.90625 1.515625 
Q 32.171875 1.515625 37.703125 10.59375 
Q 37.75 10.6875 37.765625 10.734375 
Q 37.796875 10.796875 37.796875 10.890625 
L 45.015625 39.890625 
Q 45.359375 41.21875 46.578125 42.15625 
Q 47.796875 43.109375 49.21875 43.109375 
Q 50.390625 43.109375 51.296875 42.328125 
Q 52.203125 41.546875 52.203125 40.28125 
Q 52.203125 39.703125 52.09375 39.5 
L 44.921875 10.6875 
Q 44.1875 7.859375 44.1875 5.8125 
Q 44.1875 1.515625 47.125 1.515625 
Q 50.25 1.515625 51.828125 5.375 
Q 53.421875 9.234375 54.59375 14.703125 
Q 54.78125 15.28125 55.421875 15.28125 
L 56.59375 15.28125 
Q 56.984375 15.28125 57.25 14.96875 
Q 57.515625 14.65625 57.515625 14.3125 
Q 55.765625 7.328125 53.6875 3.09375 
Q 51.609375 -1.125 46.921875 -1.125 
Q 43.609375 -1.125 41.046875 0.78125 
Q 38.484375 2.6875 37.703125 5.90625 
Q 35.203125 2.78125 31.859375 0.828125 
Q 28.515625 -1.125 24.8125 -1.125 
Q 18.5625 -1.125 14.984375 1.8125 
L 9.90625 -18.40625 
Q 9.625 -19.828125 8.453125 -20.703125 
Q 7.28125 -21.578125 5.8125 -21.578125 
Q 4.59375 -21.578125 3.6875 -20.8125 
Q 2.78125 -20.0625 2.78125 -18.796875 
z
" id="Cmmi10-185"/>
      <path d="M 28.609375 0 
L 0.78125 72.90625 
L 11.078125 72.90625 
L 34.1875 11.53125 
L 57.328125 72.90625 
L 67.578125 72.90625 
L 39.796875 0 
z
" id="DejaVuSans-86"/>
     </defs>
     <g transform="translate(32.5175 365.555)rotate(-90)scale(0.14 -0.14)">
      <use transform="translate(0 0.015625)" xlink:href="#DejaVuSans-77"/>
      <use transform="translate(86.279297 0.015625)" xlink:href="#DejaVuSans-97"/>
      <use transform="translate(147.558594 0.015625)" xlink:href="#DejaVuSans-116"/>
      <use transform="translate(186.767578 0.015625)" xlink:href="#DejaVuSans-114"/>
      <use transform="translate(227.880859 0.015625)" xlink:href="#DejaVuSans-105"/>
      <use transform="translate(255.664062 0.015625)" xlink:href="#DejaVuSans-120"/>
      <use transform="translate(314.84375 0.015625)" xlink:href="#DejaVuSans-32"/>
      <use transform="translate(346.630859 0.015625)" xlink:href="#DejaVuSans-101"/>
      <use transform="translate(408.154297 0.015625)" xlink:href="#DejaVuSans-108"/>
      <use transform="translate(435.9375 0.015625)" xlink:href="#DejaVuSans-101"/>
      <use transform="translate(497.460938 0.015625)" xlink:href="#DejaVuSans-109"/>
      <use transform="translate(594.873047 0.015625)" xlink:href="#DejaVuSans-101"/>
      <use transform="translate(656.396484 0.015625)" xlink:href="#DejaVuSans-110"/>
      <use transform="translate(719.775391 0.015625)" xlink:href="#DejaVuSans-116"/>
      <use transform="translate(758.984375 0.015625)" xlink:href="#DejaVuSans-115"/>
      <use transform="translate(811.083984 0.015625)" xlink:href="#DejaVuSans-32"/>
      <use transform="translate(842.871094 0.015625)" xlink:href="#DejaVuSans-40"/>
      <use transform="translate(881.884766 0.015625)" xlink:href="#Cmmi10-185"/>
      <use transform="translate(942.089844 0.015625)" xlink:href="#DejaVuSans-86"/>
      <use transform="translate(1010.498047 0.015625)" xlink:href="#DejaVuSans-41"/>
     </g>
    </g>
   </g>
   <g id="line2d_37">
    <path clip-path="url(#pdc049c15e8)" d="M 43.188611 307.104672 
L 48.618682 304.219587 
L 54.542396 301.227159 
L 55.036039 302.688693 
L 55.529682 347.151667 
L 56.023325 359.188489 
L 56.516968 362.089718 
L 57.010611 363.327727 
L 57.504254 363.978 
L 57.997896 364.347147 
L 58.985182 364.654464 
L 59.972468 364.632014 
L 60.959753 364.375642 
L 61.947039 363.892739 
L 62.934325 363.13713 
L 63.92161 361.998886 
L 64.908896 360.25171 
L 65.402539 359.013912 
L 65.896182 357.397985 
L 66.389825 355.218537 
L 66.883467 352.145947 
L 67.37711 347.539666 
L 67.870753 340.003649 
L 68.364396 326.063631 
L 68.858039 297.055712 
L 69.351682 252.541894 
L 69.845325 230.328737 
L 70.338967 224.314279 
L 70.83261 222.276248 
L 71.326253 221.358534 
L 71.819896 220.848337 
L 72.807182 220.275308 
L 74.28811 219.777557 
L 77.249967 219.08766 
L 83.667324 217.880636 
L 92.552895 216.445928 
L 102.425752 215.085927 
L 112.792252 213.893598 
L 123.158751 212.926802 
L 134.018894 212.145136 
L 144.879036 211.592803 
L 155.739179 211.26514 
L 166.599321 211.159545 
L 177.459464 211.275204 
L 188.319606 211.613008 
L 199.179749 212.175647 
L 210.039891 212.967887 
L 220.406391 213.945164 
L 230.772891 215.148567 
L 240.645748 216.520078 
L 249.531319 217.967163 
L 256.442319 219.29853 
L 258.910533 219.920996 
L 260.391461 220.516973 
L 260.885104 220.848337 
L 261.378747 221.358534 
L 261.87239 222.276248 
L 262.366033 224.314279 
L 262.859675 230.328737 
L 263.353318 252.541894 
L 263.846961 297.055712 
L 264.340604 326.063631 
L 264.834247 340.003649 
L 265.32789 347.539666 
L 265.821533 352.145947 
L 266.315175 355.218537 
L 266.808818 357.397985 
L 267.796104 360.25171 
L 268.78339 361.998886 
L 269.770675 363.13713 
L 270.757961 363.892739 
L 271.745247 364.375642 
L 272.732532 364.632014 
L 273.719818 364.654464 
L 274.707104 364.347147 
L 275.200746 363.978 
L 275.694389 363.327727 
L 276.188032 362.089718 
L 276.681675 359.188489 
L 277.175318 347.151667 
L 277.668961 302.688693 
L 278.162604 301.227159 
L 279.643532 301.966475 
L 289 306.819772 
L 289 306.819772 
" style="fill:none;stroke:#ed2200;stroke-linecap:square;stroke-width:1.2;"/>
   </g>
   <g id="line2d_38">
    <path clip-path="url(#pdc049c15e8)" d="M 43.188611 372.950455 
L 59.478825 372.950455 
L 59.972468 299.222323 
L 64.415253 297.389988 
L 70.338967 295.197789 
L 76.756324 293.067044 
L 83.667324 291.019475 
L 90.578324 289.202187 
L 97.982966 287.487474 
L 105.387609 285.993498 
L 113.285895 284.624871 
L 121.677823 283.407683 
L 130.069751 282.419741 
L 138.461679 281.649195 
L 147.347251 281.060406 
L 156.232822 280.697933 
L 165.118393 280.557285 
L 174.003964 280.636737 
L 182.889535 280.937262 
L 191.775106 281.462569 
L 200.660677 282.219254 
L 209.052606 283.155093 
L 217.444534 284.317103 
L 225.34282 285.630223 
L 233.241105 287.171592 
L 240.645748 288.840681 
L 248.05039 290.746293 
L 254.96139 292.759516 
L 261.378747 294.854467 
L 267.302461 297.00765 
L 272.238889 299.006787 
L 272.732532 299.222323 
L 273.226175 372.950455 
L 289 372.950455 
L 289 372.950455 
" style="fill:none;stroke:#104e8b;stroke-linecap:square;stroke-width:1.2;"/>
   </g>
   <g id="line2d_39">
    <path clip-path="url(#pdc049c15e8)" d="M 43.188611 363.535428 
L 44.66954 364.825797 
L 46.150468 365.796916 
L 48.12504 366.786824 
L 52.074182 368.608611 
L 53.061468 369.498071 
L 53.555111 370.275177 
L 54.048754 371.645007 
L 54.542396 371.112079 
L 55.036039 357.35634 
L 55.529682 305.522102 
L 56.023325 301.851687 
L 56.516968 301.126036 
L 57.504254 300.418733 
L 59.478825 299.442614 
L 59.972468 372.950455 
L 272.732532 372.950455 
L 273.226175 299.442614 
L 275.200746 300.418733 
L 276.188032 301.126036 
L 276.681675 301.851687 
L 277.175318 305.522102 
L 277.668961 357.35634 
L 278.162604 371.112079 
L 278.656246 371.645007 
L 279.149889 370.275177 
L 279.643532 369.498071 
L 280.630818 368.608611 
L 282.111746 367.828865 
L 286.060889 366.070398 
L 287.541818 365.178442 
L 289 364.029949 
L 289 364.029949 
" style="fill:none;stroke:#9acd32;stroke-linecap:square;stroke-width:1.2;"/>
   </g>
   <g id="line2d_40">
    <path clip-path="url(#pdc049c15e8)" d="M 43.188611 305.946632 
L 49.112325 302.863295 
L 52.567825 301.077831 
L 53.061468 301.044071 
L 53.555111 316.316452 
L 54.048754 355.259975 
L 54.542396 360.872158 
L 55.036039 362.776413 
L 55.529682 363.6918 
L 56.023325 364.196889 
L 56.516968 364.48651 
L 57.504254 364.708172 
L 58.491539 364.634068 
L 59.478825 364.333252 
L 60.466111 363.800472 
L 61.453396 362.977606 
L 62.440682 361.735508 
L 62.934325 360.882804 
L 63.427968 359.806638 
L 63.92161 358.420307 
L 64.415253 356.584061 
L 64.908896 354.058674 
L 65.402539 350.401609 
L 65.896182 344.707337 
L 66.389825 334.871421 
L 66.883467 315.4046 
L 67.870753 239.19261 
L 68.364396 227.334162 
L 68.858039 223.904936 
L 69.351682 222.559565 
L 69.845325 221.880733 
L 70.83261 221.182812 
L 72.313539 220.623019 
L 75.275396 219.87877 
L 81.19911 218.686955 
L 89.591038 217.238031 
L 98.970252 215.855147 
L 108.843109 214.634859 
L 118.715966 213.637049 
L 129.082465 212.815914 
L 139.448965 212.218339 
L 149.815465 211.839015 
L 160.181964 211.675261 
L 170.548464 211.726718 
L 180.914964 211.995331 
L 191.281463 212.485578 
L 201.647963 213.205005 
L 211.52082 214.113802 
L 220.900034 215.19293 
L 229.785605 216.426504 
L 238.177533 217.802552 
L 246.075819 219.316402 
L 252.493176 220.756703 
L 255.948676 221.723539 
L 257.429604 222.343788 
L 257.923247 222.65592 
L 258.41689 223.102122 
L 258.910533 223.836829 
L 259.404176 225.304077 
L 259.897818 229.117092 
L 260.391461 242.534264 
L 261.378747 318.327969 
L 261.87239 336.322185 
L 262.366033 345.543275 
L 262.859675 350.946064 
L 263.353318 354.444972 
L 263.846961 356.875306 
L 264.340604 358.649913 
L 265.32789 361.03964 
L 266.315175 362.537964 
L 267.302461 363.523692 
L 268.289747 364.174847 
L 269.277032 364.57751 
L 270.264318 364.762463 
L 271.251604 364.706012 
L 271.745247 364.554724 
L 272.238889 364.278056 
L 272.732532 363.801582 
L 273.226175 362.955517 
L 273.719818 361.261282 
L 274.213461 356.705395 
L 275.200746 300.70697 
L 275.694389 300.51687 
L 283.099032 304.239433 
L 288.529103 307.152321 
L 289 307.418696 
L 289 307.418696 
" style="fill:none;stroke:#ed2200;stroke-dasharray:1.2,1.98;stroke-dashoffset:0;stroke-width:1.2;"/>
   </g>
   <g id="line2d_41">
    <path clip-path="url(#pdc049c15e8)" d="M 43.188611 372.038092 
L 48.12504 372.220253 
L 54.048754 372.211813 
L 56.516968 372.029761 
L 57.010611 371.898051 
L 57.504254 371.505239 
L 57.997896 299.409945 
L 58.491539 298.853979 
L 63.427968 296.835402 
L 69.351682 294.663066 
L 75.769039 292.550691 
L 82.680038 290.521523 
L 89.591038 288.721702 
L 96.995681 287.024879 
L 104.400323 285.548075 
L 112.298609 284.197089 
L 120.690537 282.997999 
L 129.082465 282.027605 
L 137.474394 281.274162 
L 146.359965 280.703109 
L 155.245536 280.358094 
L 164.131107 280.234727 
L 173.016678 280.331381 
L 181.902249 280.649124 
L 190.787821 281.191768 
L 199.673392 281.966024 
L 208.06532 282.918803 
L 216.457248 284.098253 
L 224.355534 285.42845 
L 232.253819 286.987833 
L 239.658462 288.675049 
L 246.569462 290.464321 
L 253.480461 292.481418 
L 259.897818 294.58156 
L 265.821533 296.743379 
L 269.770675 298.334989 
L 270.264318 365.027177 
L 270.757961 370.729304 
L 271.251604 371.225119 
L 272.238889 371.527164 
L 274.213461 371.705838 
L 277.668961 371.753783 
L 282.111746 371.606102 
L 286.060889 371.251188 
L 288.529103 370.838845 
L 289 370.732827 
L 289 370.732827 
" style="fill:none;stroke:#104e8b;stroke-dasharray:1.2,1.98;stroke-dashoffset:0;stroke-width:1.2;"/>
   </g>
   <g id="line2d_42">
    <path clip-path="url(#pdc049c15e8)" d="M 43.188611 364.933916 
L 44.66954 365.896637 
L 46.644111 366.883081 
L 50.099611 368.464282 
L 51.086897 369.23045 
L 51.580539 369.846585 
L 52.074182 370.837357 
L 52.567825 372.763809 
L 53.061468 367.684909 
L 53.555111 327.968596 
L 54.048754 302.591842 
L 54.542396 301.187609 
L 55.036039 300.667747 
L 56.023325 300.0343 
L 57.504254 299.31172 
L 57.997896 365.902501 
L 58.491539 372.801793 
L 58.985182 372.484212 
L 60.466111 372.198322 
L 62.934325 371.806281 
L 64.415253 371.334994 
L 65.402539 370.681483 
L 65.896182 370.08606 
L 66.389825 369.062527 
L 66.883467 367.043577 
L 67.870753 359.18974 
L 68.364396 358.01921 
L 68.858039 357.72953 
L 69.845325 357.655373 
L 72.807182 357.907048 
L 84.160967 358.943752 
L 94.527467 359.64647 
L 105.881252 360.193262 
L 118.715966 360.580571 
L 132.044323 360.761888 
L 146.359965 360.731149 
L 160.675607 360.474601 
L 174.497607 360.003339 
L 187.332321 359.346652 
L 199.179749 358.522077 
L 210.039891 357.545526 
L 219.912748 356.435353 
L 228.798319 355.215679 
L 236.696605 353.919024 
L 244.101247 352.485086 
L 251.012247 350.921663 
L 258.910533 349.061196 
L 259.404176 349.140316 
L 259.897818 349.608541 
L 260.391461 351.671602 
L 261.378747 364.029554 
L 261.87239 366.990928 
L 262.366033 368.514427 
L 262.859675 369.411833 
L 263.353318 369.997375 
L 264.340604 370.713004 
L 265.32789 371.137329 
L 267.302461 371.657754 
L 268.78339 372.055446 
L 269.770675 372.716774 
L 270.264318 298.972171 
L 270.757961 298.801932 
L 272.732532 299.771649 
L 273.226175 300.101378 
L 273.719818 300.57441 
L 274.213461 301.682944 
L 274.707104 315.094261 
L 275.200746 365.214531 
L 275.694389 372.398132 
L 276.681675 370.098878 
L 277.175318 369.418205 
L 278.162604 368.591038 
L 279.643532 367.815491 
L 283.099032 366.217203 
L 284.57996 365.315059 
L 286.060889 364.132986 
L 287.048175 363.113137 
L 288.03546 361.824302 
L 289 360.187687 
L 289 360.187687 
" style="fill:none;stroke:#9acd32;stroke-dasharray:1.2,1.98;stroke-dashoffset:0;stroke-width:1.2;"/>
   </g>
   <g id="patch_8">
    <path d="M 55.505 381.04 
L 55.505 203.07 
" style="fill:none;stroke:#2b2b2b;stroke-linecap:square;stroke-linejoin:miter;stroke-width:0.8;"/>
   </g>
   <g id="patch_9">
    <path d="M 277.2 381.04 
L 277.2 203.07 
" style="fill:none;stroke:#2b2b2b;stroke-linecap:square;stroke-linejoin:miter;stroke-width:0.8;"/>
   </g>
   <g id="patch_10">
    <path d="M 55.505 381.04 
L 277.2 381.04 
" style="fill:none;stroke:#2b2b2b;stroke-linecap:square;stroke-linejoin:miter;stroke-width:0.8;"/>
   </g>
   <g id="patch_11">
    <path d="M 55.505 203.07 
L 277.2 203.07 
" style="fill:none;stroke:#2b2b2b;stroke-linecap:square;stroke-linejoin:miter;stroke-width:0.8;"/>
   </g>
  </g>
 </g>
 <defs>
  <clipPath id="p5442f05fe6">
   <rect height="177.97" width="221.695" x="55.505" y="10.8"/>
  </clipPath>
  <clipPath id="pdc049c15e8">
   <rect height="177.97" width="221.695" x="55.505" y="203.07"/>
  </clipPath>
 </defs>
</svg>
