<?xml version="1.0" encoding="utf-8" standalone="no"?>
<!DOCTYPE svg PUBLIC "-//W3C//DTD SVG 1.1//EN"
  "http://www.w3.org/Graphics/SVG/1.1/DTD/svg11.dtd">
<!-- Created with matplotlib (https://matplotlib.org/) -->
<svg height="432pt" version="1.1" viewBox="0 0 288 432" width="288pt" xmlns="http://www.w3.org/2000/svg" xmlns:xlink="http://www.w3.org/1999/xlink">
 <defs>
  <style type="text/css">
*{stroke-linecap:butt;stroke-linejoin:round;}
  </style>
 </defs>
 <g id="figure_1">
  <g id="patch_1">
   <path d="M 0 432 
L 288 432 
L 288 0 
L 0 0 
z
" style="fill:none;"/>
  </g>
  <g id="axes_1">
   <g id="patch_2">
    <path d="M 55.505 187.586691 
L 277.2 187.586691 
L 277.2 10.8 
L 55.505 10.8 
z
" style="fill:none;"/>
   </g>
   <g id="matplotlib.axis_1">
    <g id="xtick_1">
     <g id="line2d_1">
      <path clip-path="url(#pafef90b44b)" d="M 84.243241 187.586691 
L 84.243241 10.8 
" style="fill:none;stroke:#b2b2b2;stroke-dasharray:2.96,1.28;stroke-dashoffset:0;stroke-opacity:0.3;stroke-width:0.8;"/>
     </g>
     <g id="line2d_2">
      <defs>
       <path d="M 0 0 
L 0 3.5 
" id="m7a473c5e03" style="stroke:#2b2b2b;stroke-width:0.8;"/>
      </defs>
      <g>
       <use style="fill:#2b2b2b;stroke:#2b2b2b;stroke-width:0.8;" x="84.243241" xlink:href="#m7a473c5e03" y="187.586691"/>
      </g>
     </g>
    </g>
    <g id="xtick_2">
     <g id="line2d_3">
      <path clip-path="url(#pafef90b44b)" d="M 166.3525 187.586691 
L 166.3525 10.8 
" style="fill:none;stroke:#b2b2b2;stroke-dasharray:2.96,1.28;stroke-dashoffset:0;stroke-opacity:0.3;stroke-width:0.8;"/>
     </g>
     <g id="line2d_4">
      <g>
       <use style="fill:#2b2b2b;stroke:#2b2b2b;stroke-width:0.8;" x="166.3525" xlink:href="#m7a473c5e03" y="187.586691"/>
      </g>
     </g>
    </g>
    <g id="xtick_3">
     <g id="line2d_5">
      <path clip-path="url(#pafef90b44b)" d="M 248.461759 187.586691 
L 248.461759 10.8 
" style="fill:none;stroke:#b2b2b2;stroke-dasharray:2.96,1.28;stroke-dashoffset:0;stroke-opacity:0.3;stroke-width:0.8;"/>
     </g>
     <g id="line2d_6">
      <g>
       <use style="fill:#2b2b2b;stroke:#2b2b2b;stroke-width:0.8;" x="248.461759" xlink:href="#m7a473c5e03" y="187.586691"/>
      </g>
     </g>
    </g>
   </g>
   <g id="matplotlib.axis_2">
    <g id="ytick_1">
     <g id="line2d_7">
      <path clip-path="url(#pafef90b44b)" d="M 55.505 164.015132 
L 277.2 164.015132 
" style="fill:none;stroke:#b2b2b2;stroke-dasharray:2.96,1.28;stroke-dashoffset:0;stroke-opacity:0.3;stroke-width:0.8;"/>
     </g>
     <g id="line2d_8">
      <defs>
       <path d="M 0 0 
L -3.5 0 
" id="m366d57767c" style="stroke:#2b2b2b;stroke-width:0.8;"/>
      </defs>
      <g>
       <use style="fill:#2b2b2b;stroke:#2b2b2b;stroke-width:0.8;" x="55.505" xlink:href="#m366d57767c" y="164.015132"/>
      </g>
     </g>
     <g id="text_1">
      <!-- 5.0 -->
      <defs>
       <path d="M 10.796875 72.90625 
L 49.515625 72.90625 
L 49.515625 64.59375 
L 19.828125 64.59375 
L 19.828125 46.734375 
Q 21.96875 47.46875 24.109375 47.828125 
Q 26.265625 48.1875 28.421875 48.1875 
Q 40.625 48.1875 47.75 41.5 
Q 54.890625 34.8125 54.890625 23.390625 
Q 54.890625 11.625 47.5625 5.09375 
Q 40.234375 -1.421875 26.90625 -1.421875 
Q 22.3125 -1.421875 17.546875 -0.640625 
Q 12.796875 0.140625 7.71875 1.703125 
L 7.71875 11.625 
Q 12.109375 9.234375 16.796875 8.0625 
Q 21.484375 6.890625 26.703125 6.890625 
Q 35.15625 6.890625 40.078125 11.328125 
Q 45.015625 15.765625 45.015625 23.390625 
Q 45.015625 31 40.078125 35.4375 
Q 35.15625 39.890625 26.703125 39.890625 
Q 22.75 39.890625 18.8125 39.015625 
Q 14.890625 38.140625 10.796875 36.28125 
z
" id="DejaVuSans-53"/>
       <path d="M 10.6875 12.40625 
L 21 12.40625 
L 21 0 
L 10.6875 0 
z
" id="DejaVuSans-46"/>
       <path d="M 31.78125 66.40625 
Q 24.171875 66.40625 20.328125 58.90625 
Q 16.5 51.421875 16.5 36.375 
Q 16.5 21.390625 20.328125 13.890625 
Q 24.171875 6.390625 31.78125 6.390625 
Q 39.453125 6.390625 43.28125 13.890625 
Q 47.125 21.390625 47.125 36.375 
Q 47.125 51.421875 43.28125 58.90625 
Q 39.453125 66.40625 31.78125 66.40625 
z
M 31.78125 74.21875 
Q 44.046875 74.21875 50.515625 64.515625 
Q 56.984375 54.828125 56.984375 36.375 
Q 56.984375 17.96875 50.515625 8.265625 
Q 44.046875 -1.421875 31.78125 -1.421875 
Q 19.53125 -1.421875 13.0625 8.265625 
Q 6.59375 17.96875 6.59375 36.375 
Q 6.59375 54.828125 13.0625 64.515625 
Q 19.53125 74.21875 31.78125 74.21875 
z
" id="DejaVuSans-48"/>
      </defs>
      <g style="fill:#2b2b2b;" transform="translate(26.240625 169.334038)scale(0.14 -0.14)">
       <use xlink:href="#DejaVuSans-53"/>
       <use x="63.623047" xlink:href="#DejaVuSans-46"/>
       <use x="95.410156" xlink:href="#DejaVuSans-48"/>
      </g>
     </g>
    </g>
    <g id="ytick_2">
     <g id="line2d_9">
      <path clip-path="url(#pafef90b44b)" d="M 55.505 134.550683 
L 277.2 134.550683 
" style="fill:none;stroke:#b2b2b2;stroke-dasharray:2.96,1.28;stroke-dashoffset:0;stroke-opacity:0.3;stroke-width:0.8;"/>
     </g>
     <g id="line2d_10">
      <g>
       <use style="fill:#2b2b2b;stroke:#2b2b2b;stroke-width:0.8;" x="55.505" xlink:href="#m366d57767c" y="134.550683"/>
      </g>
     </g>
     <g id="text_2">
      <!-- 7.5 -->
      <defs>
       <path d="M 8.203125 72.90625 
L 55.078125 72.90625 
L 55.078125 68.703125 
L 28.609375 0 
L 18.3125 0 
L 43.21875 64.59375 
L 8.203125 64.59375 
z
" id="DejaVuSans-55"/>
      </defs>
      <g style="fill:#2b2b2b;" transform="translate(26.240625 139.86959)scale(0.14 -0.14)">
       <use xlink:href="#DejaVuSans-55"/>
       <use x="63.623047" xlink:href="#DejaVuSans-46"/>
       <use x="95.410156" xlink:href="#DejaVuSans-53"/>
      </g>
     </g>
    </g>
    <g id="ytick_3">
     <g id="line2d_11">
      <path clip-path="url(#pafef90b44b)" d="M 55.505 105.086235 
L 277.2 105.086235 
" style="fill:none;stroke:#b2b2b2;stroke-dasharray:2.96,1.28;stroke-dashoffset:0;stroke-opacity:0.3;stroke-width:0.8;"/>
     </g>
     <g id="line2d_12">
      <g>
       <use style="fill:#2b2b2b;stroke:#2b2b2b;stroke-width:0.8;" x="55.505" xlink:href="#m366d57767c" y="105.086235"/>
      </g>
     </g>
     <g id="text_3">
      <!-- 10.0 -->
      <defs>
       <path d="M 12.40625 8.296875 
L 28.515625 8.296875 
L 28.515625 63.921875 
L 10.984375 60.40625 
L 10.984375 69.390625 
L 28.421875 72.90625 
L 38.28125 72.90625 
L 38.28125 8.296875 
L 54.390625 8.296875 
L 54.390625 0 
L 12.40625 0 
z
" id="DejaVuSans-49"/>
      </defs>
      <g style="fill:#2b2b2b;" transform="translate(17.333125 110.405141)scale(0.14 -0.14)">
       <use xlink:href="#DejaVuSans-49"/>
       <use x="63.623047" xlink:href="#DejaVuSans-48"/>
       <use x="127.246094" xlink:href="#DejaVuSans-46"/>
       <use x="159.033203" xlink:href="#DejaVuSans-48"/>
      </g>
     </g>
    </g>
    <g id="ytick_4">
     <g id="line2d_13">
      <path clip-path="url(#pafef90b44b)" d="M 55.505 75.621787 
L 277.2 75.621787 
" style="fill:none;stroke:#b2b2b2;stroke-dasharray:2.96,1.28;stroke-dashoffset:0;stroke-opacity:0.3;stroke-width:0.8;"/>
     </g>
     <g id="line2d_14">
      <g>
       <use style="fill:#2b2b2b;stroke:#2b2b2b;stroke-width:0.8;" x="55.505" xlink:href="#m366d57767c" y="75.621787"/>
      </g>
     </g>
     <g id="text_4">
      <!-- 12.5 -->
      <defs>
       <path d="M 19.1875 8.296875 
L 53.609375 8.296875 
L 53.609375 0 
L 7.328125 0 
L 7.328125 8.296875 
Q 12.9375 14.109375 22.625 23.890625 
Q 32.328125 33.6875 34.8125 36.53125 
Q 39.546875 41.84375 41.421875 45.53125 
Q 43.3125 49.21875 43.3125 52.78125 
Q 43.3125 58.59375 39.234375 62.25 
Q 35.15625 65.921875 28.609375 65.921875 
Q 23.96875 65.921875 18.8125 64.3125 
Q 13.671875 62.703125 7.8125 59.421875 
L 7.8125 69.390625 
Q 13.765625 71.78125 18.9375 73 
Q 24.125 74.21875 28.421875 74.21875 
Q 39.75 74.21875 46.484375 68.546875 
Q 53.21875 62.890625 53.21875 53.421875 
Q 53.21875 48.921875 51.53125 44.890625 
Q 49.859375 40.875 45.40625 35.40625 
Q 44.1875 33.984375 37.640625 27.21875 
Q 31.109375 20.453125 19.1875 8.296875 
z
" id="DejaVuSans-50"/>
      </defs>
      <g style="fill:#2b2b2b;" transform="translate(17.333125 80.940693)scale(0.14 -0.14)">
       <use xlink:href="#DejaVuSans-49"/>
       <use x="63.623047" xlink:href="#DejaVuSans-50"/>
       <use x="127.246094" xlink:href="#DejaVuSans-46"/>
       <use x="159.033203" xlink:href="#DejaVuSans-53"/>
      </g>
     </g>
    </g>
    <g id="ytick_5">
     <g id="line2d_15">
      <path clip-path="url(#pafef90b44b)" d="M 55.505 46.157338 
L 277.2 46.157338 
" style="fill:none;stroke:#b2b2b2;stroke-dasharray:2.96,1.28;stroke-dashoffset:0;stroke-opacity:0.3;stroke-width:0.8;"/>
     </g>
     <g id="line2d_16">
      <g>
       <use style="fill:#2b2b2b;stroke:#2b2b2b;stroke-width:0.8;" x="55.505" xlink:href="#m366d57767c" y="46.157338"/>
      </g>
     </g>
     <g id="text_5">
      <!-- 15.0 -->
      <g style="fill:#2b2b2b;" transform="translate(17.333125 51.476244)scale(0.14 -0.14)">
       <use xlink:href="#DejaVuSans-49"/>
       <use x="63.623047" xlink:href="#DejaVuSans-53"/>
       <use x="127.246094" xlink:href="#DejaVuSans-46"/>
       <use x="159.033203" xlink:href="#DejaVuSans-48"/>
      </g>
     </g>
    </g>
    <g id="ytick_6">
     <g id="line2d_17">
      <path clip-path="url(#pafef90b44b)" d="M 55.505 16.69289 
L 277.2 16.69289 
" style="fill:none;stroke:#b2b2b2;stroke-dasharray:2.96,1.28;stroke-dashoffset:0;stroke-opacity:0.3;stroke-width:0.8;"/>
     </g>
     <g id="line2d_18">
      <g>
       <use style="fill:#2b2b2b;stroke:#2b2b2b;stroke-width:0.8;" x="55.505" xlink:href="#m366d57767c" y="16.69289"/>
      </g>
     </g>
     <g id="text_6">
      <!-- 17.5 -->
      <g style="fill:#2b2b2b;" transform="translate(17.333125 22.011796)scale(0.14 -0.14)">
       <use xlink:href="#DejaVuSans-49"/>
       <use x="63.623047" xlink:href="#DejaVuSans-55"/>
       <use x="127.246094" xlink:href="#DejaVuSans-46"/>
       <use x="159.033203" xlink:href="#DejaVuSans-53"/>
      </g>
     </g>
    </g>
    <g id="text_7">
     <!-- $\omega/2\pi$ (GHz) -->
     <defs>
      <path d="M 12.109375 -1.125 
Q 6.453125 -1.125 3.9375 3.015625 
Q 1.421875 7.171875 1.421875 13.1875 
Q 1.421875 17.140625 2.125 20.921875 
Q 2.828125 24.703125 4.265625 28.578125 
Q 5.71875 32.46875 7.5625 35.859375 
Q 9.421875 39.265625 11.71875 42.484375 
Q 12.15625 43.109375 12.890625 43.109375 
Q 13.53125 43.109375 13.921875 42.71875 
Q 14.3125 42.328125 14.3125 41.796875 
Q 14.3125 41.265625 14.015625 40.828125 
Q 4.890625 28.265625 4.890625 17.671875 
Q 4.890625 13.09375 7 9.796875 
Q 9.125 6.5 13.484375 6.5 
Q 17.234375 6.5 20.4375 8.6875 
Q 23.640625 10.890625 25.984375 14.3125 
Q 25.984375 16.0625 26.59375 19.765625 
Q 27.203125 23.484375 28.484375 26.390625 
Q 29.78125 29.296875 31.59375 29.296875 
Q 33.890625 29.296875 33.890625 26.609375 
Q 33.890625 25.046875 33.21875 22.671875 
Q 32.5625 20.3125 31.75 18.265625 
Q 30.953125 16.21875 29.78125 13.625 
Q 30.953125 6.5 36.921875 6.5 
Q 40.375 6.5 43.859375 8.5 
Q 47.359375 10.5 50.046875 13.75 
Q 52.734375 17 54.265625 20.75 
Q 55.8125 24.515625 55.8125 27.875 
Q 55.8125 30.90625 54.859375 32.59375 
Q 53.90625 34.28125 52.34375 36.125 
Q 50.78125 37.984375 50.78125 39.109375 
Q 50.78125 41.0625 52.4375 42.671875 
Q 54.109375 44.28125 56 44.28125 
Q 58.453125 44.28125 59.46875 42.0625 
Q 60.5 39.84375 60.5 37.015625 
Q 60.5 32.421875 58.671875 25.4375 
Q 56.84375 18.453125 54.5 13.8125 
Q 51.265625 7.515625 46.40625 3.1875 
Q 41.546875 -1.125 35.5 -1.125 
Q 31.640625 -1.125 29.265625 1.1875 
Q 26.90625 3.515625 26.21875 7.515625 
Q 23.4375 3.5625 19.875 1.21875 
Q 16.3125 -1.125 12.109375 -1.125 
z
" id="Cmmi10-33"/>
      <path d="M 5.609375 -23 
Q 5.609375 -22.703125 5.71875 -22.609375 
L 40.484375 73.78125 
Q 40.671875 74.359375 41.15625 74.671875 
Q 41.65625 75 42.28125 75 
Q 43.171875 75 43.71875 74.453125 
Q 44.28125 73.921875 44.28125 73 
L 44.28125 72.609375 
L 9.515625 -23.78125 
Q 8.9375 -25 7.625 -25 
Q 6.78125 -25 6.1875 -24.40625 
Q 5.609375 -23.828125 5.609375 -23 
z
" id="Cmmi10-61"/>
      <path d="M 4.984375 0 
L 4.984375 2.6875 
Q 4.984375 2.9375 5.171875 3.21875 
L 20.703125 20.40625 
Q 24.21875 24.21875 26.40625 26.796875 
Q 28.609375 29.390625 30.75 32.765625 
Q 32.90625 36.140625 34.15625 39.625 
Q 35.40625 43.109375 35.40625 47.015625 
Q 35.40625 51.125 33.890625 54.859375 
Q 32.375 58.59375 29.375 60.84375 
Q 26.375 63.09375 22.125 63.09375 
Q 17.78125 63.09375 14.3125 60.46875 
Q 10.84375 57.859375 9.421875 53.71875 
Q 9.8125 53.8125 10.5 53.8125 
Q 12.75 53.8125 14.328125 52.296875 
Q 15.921875 50.78125 15.921875 48.390625 
Q 15.921875 46.09375 14.328125 44.5 
Q 12.75 42.921875 10.5 42.921875 
Q 8.15625 42.921875 6.5625 44.546875 
Q 4.984375 46.1875 4.984375 48.390625 
Q 4.984375 52.15625 6.390625 55.4375 
Q 7.8125 58.734375 10.46875 61.296875 
Q 13.140625 63.875 16.484375 65.234375 
Q 19.828125 66.609375 23.578125 66.609375 
Q 29.296875 66.609375 34.21875 64.1875 
Q 39.15625 61.765625 42.03125 57.34375 
Q 44.921875 52.9375 44.921875 47.015625 
Q 44.921875 42.671875 43.015625 38.765625 
Q 41.109375 34.859375 38.125 31.65625 
Q 35.15625 28.46875 30.515625 24.40625 
Q 25.875 20.359375 24.421875 19 
L 13.09375 8.109375 
L 22.703125 8.109375 
Q 29.78125 8.109375 34.546875 8.21875 
Q 39.3125 8.34375 39.59375 8.59375 
Q 40.765625 9.859375 42 17.828125 
L 44.921875 17.828125 
L 42.09375 0 
z
" id="Cmr10-50"/>
      <path d="M 10.109375 1.703125 
Q 10.109375 2.25 10.5 3.328125 
Q 13.28125 9.125 15.6875 14.71875 
Q 18.109375 20.3125 20.03125 25.609375 
Q 21.96875 30.90625 23.578125 36.921875 
L 17.1875 36.921875 
Q 13.53125 36.921875 10.34375 34.625 
Q 7.171875 32.328125 5.078125 28.8125 
Q 4.890625 28.421875 4.5 28.421875 
L 3.328125 28.421875 
Q 2.390625 28.421875 2.390625 29.390625 
Q 2.390625 29.59375 2.59375 29.984375 
Q 5.859375 35.546875 9.59375 39.328125 
Q 13.328125 43.109375 18.015625 43.109375 
L 54.296875 43.109375 
Q 55.328125 43.109375 56.046875 42.421875 
Q 56.78125 41.75 56.78125 40.578125 
Q 56.78125 39.109375 55.734375 38.015625 
Q 54.6875 36.921875 53.21875 36.921875 
L 40.484375 36.921875 
Q 38.875 29.046875 38.71875 21.578125 
Q 38.71875 11.96875 42.09375 4.203125 
Q 42.390625 3.609375 42.390625 2.984375 
Q 42.390625 1.90625 41.75 0.96875 
Q 41.109375 0.046875 40.109375 -0.53125 
Q 39.109375 -1.125 37.984375 -1.125 
Q 35.359375 -1.125 34.375 3.171875 
Q 33.40625 7.46875 33.40625 11.53125 
Q 33.40625 17.234375 34.375 22.53125 
Q 35.359375 27.828125 37.5 36.921875 
L 26.609375 36.921875 
Q 18.703125 4.890625 17.09375 1.609375 
Q 15.671875 -1.125 13.1875 -1.125 
Q 11.96875 -1.125 11.03125 -0.3125 
Q 10.109375 0.484375 10.109375 1.703125 
z
" id="Cmmi10-188"/>
      <path id="DejaVuSans-32"/>
      <path d="M 31 75.875 
Q 24.46875 64.65625 21.28125 53.65625 
Q 18.109375 42.671875 18.109375 31.390625 
Q 18.109375 20.125 21.3125 9.0625 
Q 24.515625 -2 31 -13.1875 
L 23.1875 -13.1875 
Q 15.875 -1.703125 12.234375 9.375 
Q 8.59375 20.453125 8.59375 31.390625 
Q 8.59375 42.28125 12.203125 53.3125 
Q 15.828125 64.359375 23.1875 75.875 
z
" id="DejaVuSans-40"/>
      <path d="M 59.515625 10.40625 
L 59.515625 29.984375 
L 43.40625 29.984375 
L 43.40625 38.09375 
L 69.28125 38.09375 
L 69.28125 6.78125 
Q 63.578125 2.734375 56.6875 0.65625 
Q 49.8125 -1.421875 42 -1.421875 
Q 24.90625 -1.421875 15.25 8.5625 
Q 5.609375 18.5625 5.609375 36.375 
Q 5.609375 54.25 15.25 64.234375 
Q 24.90625 74.21875 42 74.21875 
Q 49.125 74.21875 55.546875 72.453125 
Q 61.96875 70.703125 67.390625 67.28125 
L 67.390625 56.78125 
Q 61.921875 61.421875 55.765625 63.765625 
Q 49.609375 66.109375 42.828125 66.109375 
Q 29.4375 66.109375 22.71875 58.640625 
Q 16.015625 51.171875 16.015625 36.375 
Q 16.015625 21.625 22.71875 14.15625 
Q 29.4375 6.6875 42.828125 6.6875 
Q 48.046875 6.6875 52.140625 7.59375 
Q 56.25 8.5 59.515625 10.40625 
z
" id="DejaVuSans-71"/>
      <path d="M 9.8125 72.90625 
L 19.671875 72.90625 
L 19.671875 43.015625 
L 55.515625 43.015625 
L 55.515625 72.90625 
L 65.375 72.90625 
L 65.375 0 
L 55.515625 0 
L 55.515625 34.71875 
L 19.671875 34.71875 
L 19.671875 0 
L 9.8125 0 
z
" id="DejaVuSans-72"/>
      <path d="M 5.515625 54.6875 
L 48.1875 54.6875 
L 48.1875 46.484375 
L 14.40625 7.171875 
L 48.1875 7.171875 
L 48.1875 0 
L 4.296875 0 
L 4.296875 8.203125 
L 38.09375 47.515625 
L 5.515625 47.515625 
z
" id="DejaVuSans-122"/>
      <path d="M 8.015625 75.875 
L 15.828125 75.875 
Q 23.140625 64.359375 26.78125 53.3125 
Q 30.421875 42.28125 30.421875 31.390625 
Q 30.421875 20.453125 26.78125 9.375 
Q 23.140625 -1.703125 15.828125 -13.1875 
L 8.015625 -13.1875 
Q 14.5 -2 17.703125 9.0625 
Q 20.90625 20.125 20.90625 31.390625 
Q 20.90625 42.671875 17.703125 53.65625 
Q 14.5 64.65625 8.015625 75.875 
z
" id="DejaVuSans-41"/>
     </defs>
     <g transform="translate(9.833125 136.643345)rotate(-90)scale(0.14 -0.14)">
      <use transform="translate(0 0.125)" xlink:href="#Cmmi10-33"/>
      <use transform="translate(62.207031 0.125)" xlink:href="#Cmmi10-61"/>
      <use transform="translate(112.207031 0.125)" xlink:href="#Cmr10-50"/>
      <use transform="translate(162.207031 0.125)" xlink:href="#Cmmi10-188"/>
      <use transform="translate(219.189453 0.125)" xlink:href="#DejaVuSans-32"/>
      <use transform="translate(250.976562 0.125)" xlink:href="#DejaVuSans-40"/>
      <use transform="translate(289.990234 0.125)" xlink:href="#DejaVuSans-71"/>
      <use transform="translate(367.480469 0.125)" xlink:href="#DejaVuSans-72"/>
      <use transform="translate(442.675781 0.125)" xlink:href="#DejaVuSans-122"/>
      <use transform="translate(495.166016 0.125)" xlink:href="#DejaVuSans-41"/>
     </g>
    </g>
   </g>
   <g id="line2d_19">
    <path clip-path="url(#pafef90b44b)" d="M 43.188611 -0.103777 
L 55.036039 217.698889 
L 55.529682 217.348526 
L 57.997896 172.980972 
L 59.478825 146.013217 
L 59.972468 143.997153 
L 65.896182 139.628669 
L 71.819896 135.541183 
L 77.74361 131.731594 
L 83.667324 128.193578 
L 89.591038 124.921598 
L 95.514752 121.910822 
L 101.438466 119.156947 
L 107.36218 116.656095 
L 113.285895 114.404766 
L 119.209609 112.39981 
L 125.133323 110.638422 
L 131.057037 109.118134 
L 136.980751 107.836811 
L 142.904465 106.792656 
L 148.828179 105.984201 
L 154.751893 105.410311 
L 160.675607 105.07018 
L 166.599321 104.963329 
L 172.523036 105.08961 
L 178.44675 105.449198 
L 184.370464 106.0426 
L 190.294178 106.870648 
L 196.217892 107.934507 
L 202.141606 109.23567 
L 208.06532 110.775964 
L 213.989034 112.557551 
L 219.912748 114.582925 
L 225.836462 116.854923 
L 231.760176 119.376721 
L 237.683891 122.151851 
L 243.607605 125.184224 
L 249.531319 128.478181 
L 255.455033 132.038605 
L 261.378747 135.871102 
L 267.302461 139.98203 
L 272.732532 143.997153 
L 273.226175 146.013217 
L 277.175318 217.348526 
L 277.668961 217.698889 
L 279.643532 182.268098 
L 289 9.477983 
L 289 9.477983 
" style="fill:none;stroke:#104e8b;stroke-linecap:square;stroke-width:1.2;"/>
   </g>
   <g id="line2d_20">
    <path clip-path="url(#pafef90b44b)" d="M 43.188611 158.355501 
L 47.137754 154.665546 
L 51.580539 150.806487 
L 54.542396 148.477671 
L 55.036039 148.377344 
L 55.529682 152.677336 
L 59.478825 221.303844 
L 59.972468 215.98177 
L 67.870753 79.814189 
L 68.858039 64.516548 
L 69.351682 59.441135 
L 69.845325 57.288231 
L 70.338967 56.39325 
L 71.326253 55.528967 
L 72.807182 54.768393 
L 75.769039 53.62933 
L 81.19911 51.83761 
L 89.097395 49.483828 
L 97.489324 47.218639 
L 105.881252 45.186348 
L 113.779537 43.492156 
L 121.677823 42.017816 
L 129.576108 40.770813 
L 137.474394 39.757613 
L 144.879036 39.024734 
L 152.283679 38.505206 
L 159.688322 38.201313 
L 167.092964 38.114373 
L 174.497607 38.244764 
L 181.902249 38.59192 
L 189.306892 39.154332 
L 196.711535 39.929522 
L 204.60982 40.986996 
L 212.508106 42.277152 
L 220.406391 43.793309 
L 228.304677 45.527843 
L 236.696605 47.601529 
L 245.088533 49.907907 
L 252.986819 52.307459 
L 258.41689 54.169776 
L 260.885104 55.241777 
L 261.87239 55.88668 
L 262.366033 56.39325 
L 262.859675 57.288231 
L 263.353318 59.441135 
L 263.846961 64.516548 
L 264.834247 79.814189 
L 269.277032 155.93901 
L 272.732532 215.98177 
L 273.226175 221.303844 
L 277.175318 152.677336 
L 277.668961 148.377344 
L 278.162604 148.477671 
L 279.643532 149.586923 
L 283.592675 152.916845 
L 288.03546 156.936514 
L 289 157.855185 
L 289 157.855185 
" style="fill:none;stroke:#ed2200;stroke-linecap:square;stroke-width:1.2;"/>
   </g>
   <g id="line2d_21">
    <path clip-path="url(#pafef90b44b)" d="M 43.188611 30.596008 
L 53.061468 213.18793 
L 53.555111 219.933688 
L 54.048754 213.544926 
L 57.997896 142.234552 
L 62.440682 138.976556 
L 68.364396 134.873295 
L 74.28811 131.036129 
L 80.211824 127.46133 
L 86.135538 124.145116 
L 92.059252 121.083992 
L 97.982966 118.274675 
L 103.906681 115.714054 
L 109.830395 113.399188 
L 115.754109 111.327315 
L 121.677823 109.495874 
L 127.601537 107.902517 
L 133.525251 106.545125 
L 139.448965 105.421812 
L 145.372679 104.530932 
L 151.296393 103.871078 
L 157.220107 103.441076 
L 163.143822 103.239981 
L 169.067536 103.267067 
L 174.99125 103.521811 
L 180.914964 104.003878 
L 186.838678 104.713095 
L 192.762392 105.649426 
L 198.686106 106.812933 
L 204.60982 108.203727 
L 210.533534 109.821908 
L 216.457248 111.667491 
L 222.380962 113.740297 
L 228.304677 116.039831 
L 234.228391 118.565119 
L 240.645748 121.553652 
L 247.063105 124.801784 
L 253.480461 128.304378 
L 259.897818 132.053941 
L 266.808818 136.355065 
L 269.770675 138.276814 
L 270.264318 140.163735 
L 274.707104 219.595491 
L 275.200746 214.68106 
L 278.656246 151.554926 
L 286.89659 -1 
L 286.89659 -1 
" style="fill:none;stroke:#104e8b;stroke-dasharray:1.2,1.98;stroke-dashoffset:0;stroke-width:1.2;"/>
   </g>
   <g id="line2d_22">
    <path clip-path="url(#pafef90b44b)" d="M 43.188611 154.447564 
L 47.631397 150.553315 
L 52.074182 146.944174 
L 53.061468 146.309902 
L 53.555111 147.0941 
L 54.542396 163.01982 
L 57.997896 222.202571 
L 66.389825 76.789962 
L 67.37711 62.434044 
L 67.870753 58.860198 
L 68.364396 57.483278 
L 68.858039 56.818221 
L 69.845325 56.068118 
L 71.326253 55.332691 
L 74.28811 54.180739 
L 79.718181 52.346015 
L 87.122824 50.079417 
L 95.021109 47.88264 
L 102.919395 45.903036 
L 110.81768 44.144404 
L 118.715966 42.613663 
L 126.614251 41.317906 
L 134.018894 40.322202 
L 141.423537 39.543002 
L 148.828179 38.983824 
L 156.232822 38.647328 
L 163.637464 38.535343 
L 171.042107 38.648899 
L 178.44675 38.988263 
L 185.851392 39.552965 
L 193.256035 40.341838 
L 200.660677 41.353057 
L 208.06532 42.584227 
L 215.469963 44.032542 
L 222.874605 45.695116 
L 230.772891 47.70221 
L 238.671176 49.951057 
L 246.075819 52.2891 
L 252.493176 54.534313 
L 256.442319 56.112526 
L 258.41689 57.127617 
L 259.404176 57.933069 
L 259.897818 58.654737 
L 260.391461 60.177535 
L 260.885104 64.074273 
L 261.87239 78.712817 
L 265.32789 138.079235 
L 269.770675 215.817184 
L 270.264318 221.364849 
L 274.707104 143.990139 
L 275.200746 142.251967 
L 276.188032 142.733943 
L 279.643532 145.108521 
L 285.073603 149.102438 
L 289 152.244041 
L 289 152.244041 
" style="fill:none;stroke:#ed2200;stroke-dasharray:1.2,1.98;stroke-dashoffset:0;stroke-width:1.2;"/>
   </g>
   <g id="patch_3">
    <path d="M 55.505 187.586691 
L 55.505 10.8 
" style="fill:none;stroke:#2b2b2b;stroke-linecap:square;stroke-linejoin:miter;stroke-width:0.8;"/>
   </g>
   <g id="patch_4">
    <path d="M 277.2 187.586691 
L 277.2 10.8 
" style="fill:none;stroke:#2b2b2b;stroke-linecap:square;stroke-linejoin:miter;stroke-width:0.8;"/>
   </g>
   <g id="patch_5">
    <path d="M 55.505 187.586691 
L 277.2 187.586691 
" style="fill:none;stroke:#2b2b2b;stroke-linecap:square;stroke-linejoin:miter;stroke-width:0.8;"/>
   </g>
   <g id="patch_6">
    <path d="M 55.505 10.8 
L 277.2 10.8 
" style="fill:none;stroke:#2b2b2b;stroke-linecap:square;stroke-linejoin:miter;stroke-width:0.8;"/>
   </g>
  </g>
  <g id="axes_2">
   <g id="patch_7">
    <path d="M 55.505 381.04 
L 277.2 381.04 
L 277.2 204.253309 
L 55.505 204.253309 
z
" style="fill:none;"/>
   </g>
   <g id="matplotlib.axis_3">
    <g id="xtick_4">
     <g id="line2d_23">
      <path clip-path="url(#p18557007eb)" d="M 84.243241 381.04 
L 84.243241 204.253309 
" style="fill:none;stroke:#b2b2b2;stroke-dasharray:2.96,1.28;stroke-dashoffset:0;stroke-opacity:0.3;stroke-width:0.8;"/>
     </g>
     <g id="line2d_24">
      <g>
       <use style="fill:#2b2b2b;stroke:#2b2b2b;stroke-width:0.8;" x="84.243241" xlink:href="#m7a473c5e03" y="381.04"/>
      </g>
     </g>
     <g id="text_8">
      <!-- 0.4 -->
      <defs>
       <path d="M 37.796875 64.3125 
L 12.890625 25.390625 
L 37.796875 25.390625 
z
M 35.203125 72.90625 
L 47.609375 72.90625 
L 47.609375 25.390625 
L 58.015625 25.390625 
L 58.015625 17.1875 
L 47.609375 17.1875 
L 47.609375 0 
L 37.796875 0 
L 37.796875 17.1875 
L 4.890625 17.1875 
L 4.890625 26.703125 
z
" id="DejaVuSans-52"/>
      </defs>
      <g style="fill:#2b2b2b;" transform="translate(73.111053 398.677813)scale(0.14 -0.14)">
       <use xlink:href="#DejaVuSans-48"/>
       <use x="63.623047" xlink:href="#DejaVuSans-46"/>
       <use x="95.410156" xlink:href="#DejaVuSans-52"/>
      </g>
     </g>
    </g>
    <g id="xtick_5">
     <g id="line2d_25">
      <path clip-path="url(#p18557007eb)" d="M 166.3525 381.04 
L 166.3525 204.253309 
" style="fill:none;stroke:#b2b2b2;stroke-dasharray:2.96,1.28;stroke-dashoffset:0;stroke-opacity:0.3;stroke-width:0.8;"/>
     </g>
     <g id="line2d_26">
      <g>
       <use style="fill:#2b2b2b;stroke:#2b2b2b;stroke-width:0.8;" x="166.3525" xlink:href="#m7a473c5e03" y="381.04"/>
      </g>
     </g>
     <g id="text_9">
      <!-- 0.5 -->
      <g style="fill:#2b2b2b;" transform="translate(155.220313 398.677813)scale(0.14 -0.14)">
       <use xlink:href="#DejaVuSans-48"/>
       <use x="63.623047" xlink:href="#DejaVuSans-46"/>
       <use x="95.410156" xlink:href="#DejaVuSans-53"/>
      </g>
     </g>
    </g>
    <g id="xtick_6">
     <g id="line2d_27">
      <path clip-path="url(#p18557007eb)" d="M 248.461759 381.04 
L 248.461759 204.253309 
" style="fill:none;stroke:#b2b2b2;stroke-dasharray:2.96,1.28;stroke-dashoffset:0;stroke-opacity:0.3;stroke-width:0.8;"/>
     </g>
     <g id="line2d_28">
      <g>
       <use style="fill:#2b2b2b;stroke:#2b2b2b;stroke-width:0.8;" x="248.461759" xlink:href="#m7a473c5e03" y="381.04"/>
      </g>
     </g>
     <g id="text_10">
      <!-- 0.6 -->
      <defs>
       <path d="M 33.015625 40.375 
Q 26.375 40.375 22.484375 35.828125 
Q 18.609375 31.296875 18.609375 23.390625 
Q 18.609375 15.53125 22.484375 10.953125 
Q 26.375 6.390625 33.015625 6.390625 
Q 39.65625 6.390625 43.53125 10.953125 
Q 47.40625 15.53125 47.40625 23.390625 
Q 47.40625 31.296875 43.53125 35.828125 
Q 39.65625 40.375 33.015625 40.375 
z
M 52.59375 71.296875 
L 52.59375 62.3125 
Q 48.875 64.0625 45.09375 64.984375 
Q 41.3125 65.921875 37.59375 65.921875 
Q 27.828125 65.921875 22.671875 59.328125 
Q 17.53125 52.734375 16.796875 39.40625 
Q 19.671875 43.65625 24.015625 45.921875 
Q 28.375 48.1875 33.59375 48.1875 
Q 44.578125 48.1875 50.953125 41.515625 
Q 57.328125 34.859375 57.328125 23.390625 
Q 57.328125 12.15625 50.6875 5.359375 
Q 44.046875 -1.421875 33.015625 -1.421875 
Q 20.359375 -1.421875 13.671875 8.265625 
Q 6.984375 17.96875 6.984375 36.375 
Q 6.984375 53.65625 15.1875 63.9375 
Q 23.390625 74.21875 37.203125 74.21875 
Q 40.921875 74.21875 44.703125 73.484375 
Q 48.484375 72.75 52.59375 71.296875 
z
" id="DejaVuSans-54"/>
      </defs>
      <g style="fill:#2b2b2b;" transform="translate(237.329572 398.677813)scale(0.14 -0.14)">
       <use xlink:href="#DejaVuSans-48"/>
       <use x="63.623047" xlink:href="#DejaVuSans-46"/>
       <use x="95.410156" xlink:href="#DejaVuSans-54"/>
      </g>
     </g>
    </g>
    <g id="text_11">
     <!-- $\varphi_+/2\pi$ -->
     <defs>
      <path d="M 16.3125 -19 
Q 16.3125 -18.609375 16.5 -17.828125 
L 22.125 -0.203125 
Q 14.65625 1.65625 9.8125 6.6875 
Q 4.984375 11.71875 4.984375 19 
Q 4.984375 22.65625 6.34375 27.25 
Q 7.71875 31.84375 9.859375 35.96875 
Q 12.015625 40.09375 14.5 42.828125 
Q 15.09375 43.109375 15.1875 43.109375 
L 16.40625 43.109375 
Q 16.703125 43.109375 16.9375 42.8125 
Q 17.1875 42.53125 17.1875 42.1875 
Q 17.1875 41.796875 17 41.609375 
Q 15.328125 39.796875 13.734375 37.1875 
Q 12.15625 34.578125 10.90625 31.6875 
Q 9.671875 28.8125 8.84375 25.640625 
Q 8.015625 22.46875 8.015625 20.125 
Q 8.015625 14.203125 12.71875 10.5625 
Q 17.4375 6.9375 23.875 5.71875 
L 26.703125 14.703125 
Q 28.5625 20.515625 30.390625 25.078125 
Q 32.234375 29.640625 34.984375 34 
Q 37.75 38.375 41.65625 41.28125 
Q 45.5625 44.1875 50.390625 44.1875 
Q 54.203125 44.1875 56.765625 42.28125 
Q 59.328125 40.375 60.5625 37.203125 
Q 61.8125 34.03125 61.8125 30.421875 
Q 61.8125 24.46875 59.171875 18.78125 
Q 56.546875 13.09375 51.953125 8.5625 
Q 47.359375 4.046875 41.59375 1.453125 
Q 35.84375 -1.125 29.984375 -1.125 
Q 29.203125 -1.078125 28.296875 -1.03125 
Q 27.390625 -0.984375 26.8125 -0.984375 
L 23.484375 -18.40625 
Q 23.1875 -19.875 21.984375 -20.828125 
Q 20.796875 -21.78125 19.28125 -21.78125 
Q 18.0625 -21.78125 17.1875 -21.015625 
Q 16.3125 -20.265625 16.3125 -19 
z
M 27.875 5.171875 
Q 29 5.078125 31.109375 5.078125 
Q 37.3125 5.078125 43.71875 8.125 
Q 50.140625 11.1875 54.359375 16.5 
Q 58.59375 21.828125 58.59375 28.078125 
Q 58.59375 30.90625 57.4375 33.15625 
Q 56.296875 35.40625 54.21875 36.6875 
Q 52.15625 37.984375 49.421875 37.984375 
Q 41.65625 37.984375 36.421875 30.46875 
Q 31.203125 22.953125 29.59375 14.3125 
z
" id="Cmmi10-39"/>
      <path d="M 7.515625 23 
Q 6.6875 23 6.140625 23.625 
Q 5.609375 24.265625 5.609375 25 
Q 5.609375 25.734375 6.140625 26.359375 
Q 6.6875 27 7.515625 27 
L 36.921875 27 
L 36.921875 56.5 
Q 36.921875 57.28125 37.5 57.78125 
Q 38.09375 58.296875 38.921875 58.296875 
Q 39.65625 58.296875 40.28125 57.78125 
Q 40.921875 57.28125 40.921875 56.5 
L 40.921875 27 
L 70.3125 27 
Q 71.046875 27 71.578125 26.359375 
Q 72.125 25.734375 72.125 25 
Q 72.125 24.265625 71.578125 23.625 
Q 71.046875 23 70.3125 23 
L 40.921875 23 
L 40.921875 -6.5 
Q 40.921875 -7.28125 40.28125 -7.78125 
Q 39.65625 -8.296875 38.921875 -8.296875 
Q 38.09375 -8.296875 37.5 -7.78125 
Q 36.921875 -7.28125 36.921875 -6.5 
L 36.921875 23 
z
" id="Cmr10-43"/>
     </defs>
     <g transform="translate(144.7925 416.089375)scale(0.14 -0.14)">
      <use xlink:href="#Cmmi10-39"/>
      <use transform="translate(77.671875 -17.00625)scale(0.7)" xlink:href="#Cmr10-43"/>
      <use transform="translate(150.720117 0)" xlink:href="#Cmmi10-61"/>
      <use transform="translate(200.720117 0)" xlink:href="#Cmr10-50"/>
      <use transform="translate(250.720117 0)" xlink:href="#Cmmi10-188"/>
     </g>
    </g>
   </g>
   <g id="matplotlib.axis_4">
    <g id="ytick_7">
     <g id="line2d_29">
      <path clip-path="url(#p18557007eb)" d="M 55.505 373.004241 
L 277.2 373.004241 
" style="fill:none;stroke:#b2b2b2;stroke-dasharray:2.96,1.28;stroke-dashoffset:0;stroke-opacity:0.3;stroke-width:0.8;"/>
     </g>
     <g id="line2d_30">
      <g>
       <use style="fill:#2b2b2b;stroke:#2b2b2b;stroke-width:0.8;" x="55.505" xlink:href="#m366d57767c" y="373.004241"/>
      </g>
     </g>
     <g id="text_12">
      <!-- 0 -->
      <g style="fill:#2b2b2b;" transform="translate(39.5975 378.323148)scale(0.14 -0.14)">
       <use xlink:href="#DejaVuSans-48"/>
      </g>
     </g>
    </g>
    <g id="ytick_8">
     <g id="line2d_31">
      <path clip-path="url(#p18557007eb)" d="M 55.505 317.967691 
L 277.2 317.967691 
" style="fill:none;stroke:#b2b2b2;stroke-dasharray:2.96,1.28;stroke-dashoffset:0;stroke-opacity:0.3;stroke-width:0.8;"/>
     </g>
     <g id="line2d_32">
      <g>
       <use style="fill:#2b2b2b;stroke:#2b2b2b;stroke-width:0.8;" x="55.505" xlink:href="#m366d57767c" y="317.967691"/>
      </g>
     </g>
     <g id="text_13">
      <!-- 10 -->
      <g style="fill:#2b2b2b;" transform="translate(30.69 323.286597)scale(0.14 -0.14)">
       <use xlink:href="#DejaVuSans-49"/>
       <use x="63.623047" xlink:href="#DejaVuSans-48"/>
      </g>
     </g>
    </g>
    <g id="ytick_9">
     <g id="line2d_33">
      <path clip-path="url(#p18557007eb)" d="M 55.505 262.931141 
L 277.2 262.931141 
" style="fill:none;stroke:#b2b2b2;stroke-dasharray:2.96,1.28;stroke-dashoffset:0;stroke-opacity:0.3;stroke-width:0.8;"/>
     </g>
     <g id="line2d_34">
      <g>
       <use style="fill:#2b2b2b;stroke:#2b2b2b;stroke-width:0.8;" x="55.505" xlink:href="#m366d57767c" y="262.931141"/>
      </g>
     </g>
     <g id="text_14">
      <!-- 20 -->
      <g style="fill:#2b2b2b;" transform="translate(30.69 268.250047)scale(0.14 -0.14)">
       <use xlink:href="#DejaVuSans-50"/>
       <use x="63.623047" xlink:href="#DejaVuSans-48"/>
      </g>
     </g>
    </g>
    <g id="ytick_10">
     <g id="line2d_35">
      <path clip-path="url(#p18557007eb)" d="M 55.505 207.894591 
L 277.2 207.894591 
" style="fill:none;stroke:#b2b2b2;stroke-dasharray:2.96,1.28;stroke-dashoffset:0;stroke-opacity:0.3;stroke-width:0.8;"/>
     </g>
     <g id="line2d_36">
      <g>
       <use style="fill:#2b2b2b;stroke:#2b2b2b;stroke-width:0.8;" x="55.505" xlink:href="#m366d57767c" y="207.894591"/>
      </g>
     </g>
     <g id="text_15">
      <!-- 30 -->
      <defs>
       <path d="M 40.578125 39.3125 
Q 47.65625 37.796875 51.625 33 
Q 55.609375 28.21875 55.609375 21.1875 
Q 55.609375 10.40625 48.1875 4.484375 
Q 40.765625 -1.421875 27.09375 -1.421875 
Q 22.515625 -1.421875 17.65625 -0.515625 
Q 12.796875 0.390625 7.625 2.203125 
L 7.625 11.71875 
Q 11.71875 9.328125 16.59375 8.109375 
Q 21.484375 6.890625 26.8125 6.890625 
Q 36.078125 6.890625 40.9375 10.546875 
Q 45.796875 14.203125 45.796875 21.1875 
Q 45.796875 27.640625 41.28125 31.265625 
Q 36.765625 34.90625 28.71875 34.90625 
L 20.21875 34.90625 
L 20.21875 43.015625 
L 29.109375 43.015625 
Q 36.375 43.015625 40.234375 45.921875 
Q 44.09375 48.828125 44.09375 54.296875 
Q 44.09375 59.90625 40.109375 62.90625 
Q 36.140625 65.921875 28.71875 65.921875 
Q 24.65625 65.921875 20.015625 65.03125 
Q 15.375 64.15625 9.8125 62.3125 
L 9.8125 71.09375 
Q 15.4375 72.65625 20.34375 73.4375 
Q 25.25 74.21875 29.59375 74.21875 
Q 40.828125 74.21875 47.359375 69.109375 
Q 53.90625 64.015625 53.90625 55.328125 
Q 53.90625 49.265625 50.4375 45.09375 
Q 46.96875 40.921875 40.578125 39.3125 
z
" id="DejaVuSans-51"/>
      </defs>
      <g style="fill:#2b2b2b;" transform="translate(30.69 213.213497)scale(0.14 -0.14)">
       <use xlink:href="#DejaVuSans-51"/>
       <use x="63.623047" xlink:href="#DejaVuSans-48"/>
      </g>
     </g>
    </g>
    <g id="text_16">
     <!-- Matrix elements ($\mu$V) -->
     <defs>
      <path d="M 9.8125 72.90625 
L 24.515625 72.90625 
L 43.109375 23.296875 
L 61.8125 72.90625 
L 76.515625 72.90625 
L 76.515625 0 
L 66.890625 0 
L 66.890625 64.015625 
L 48.09375 14.015625 
L 38.1875 14.015625 
L 19.390625 64.015625 
L 19.390625 0 
L 9.8125 0 
z
" id="DejaVuSans-77"/>
      <path d="M 34.28125 27.484375 
Q 23.390625 27.484375 19.1875 25 
Q 14.984375 22.515625 14.984375 16.5 
Q 14.984375 11.71875 18.140625 8.90625 
Q 21.296875 6.109375 26.703125 6.109375 
Q 34.1875 6.109375 38.703125 11.40625 
Q 43.21875 16.703125 43.21875 25.484375 
L 43.21875 27.484375 
z
M 52.203125 31.203125 
L 52.203125 0 
L 43.21875 0 
L 43.21875 8.296875 
Q 40.140625 3.328125 35.546875 0.953125 
Q 30.953125 -1.421875 24.3125 -1.421875 
Q 15.921875 -1.421875 10.953125 3.296875 
Q 6 8.015625 6 15.921875 
Q 6 25.140625 12.171875 29.828125 
Q 18.359375 34.515625 30.609375 34.515625 
L 43.21875 34.515625 
L 43.21875 35.40625 
Q 43.21875 41.609375 39.140625 45 
Q 35.0625 48.390625 27.6875 48.390625 
Q 23 48.390625 18.546875 47.265625 
Q 14.109375 46.140625 10.015625 43.890625 
L 10.015625 52.203125 
Q 14.9375 54.109375 19.578125 55.046875 
Q 24.21875 56 28.609375 56 
Q 40.484375 56 46.34375 49.84375 
Q 52.203125 43.703125 52.203125 31.203125 
z
" id="DejaVuSans-97"/>
      <path d="M 18.3125 70.21875 
L 18.3125 54.6875 
L 36.8125 54.6875 
L 36.8125 47.703125 
L 18.3125 47.703125 
L 18.3125 18.015625 
Q 18.3125 11.328125 20.140625 9.421875 
Q 21.96875 7.515625 27.59375 7.515625 
L 36.8125 7.515625 
L 36.8125 0 
L 27.59375 0 
Q 17.1875 0 13.234375 3.875 
Q 9.28125 7.765625 9.28125 18.015625 
L 9.28125 47.703125 
L 2.6875 47.703125 
L 2.6875 54.6875 
L 9.28125 54.6875 
L 9.28125 70.21875 
z
" id="DejaVuSans-116"/>
      <path d="M 41.109375 46.296875 
Q 39.59375 47.171875 37.8125 47.578125 
Q 36.03125 48 33.890625 48 
Q 26.265625 48 22.1875 43.046875 
Q 18.109375 38.09375 18.109375 28.8125 
L 18.109375 0 
L 9.078125 0 
L 9.078125 54.6875 
L 18.109375 54.6875 
L 18.109375 46.1875 
Q 20.953125 51.171875 25.484375 53.578125 
Q 30.03125 56 36.53125 56 
Q 37.453125 56 38.578125 55.875 
Q 39.703125 55.765625 41.0625 55.515625 
z
" id="DejaVuSans-114"/>
      <path d="M 9.421875 54.6875 
L 18.40625 54.6875 
L 18.40625 0 
L 9.421875 0 
z
M 9.421875 75.984375 
L 18.40625 75.984375 
L 18.40625 64.59375 
L 9.421875 64.59375 
z
" id="DejaVuSans-105"/>
      <path d="M 54.890625 54.6875 
L 35.109375 28.078125 
L 55.90625 0 
L 45.3125 0 
L 29.390625 21.484375 
L 13.484375 0 
L 2.875 0 
L 24.125 28.609375 
L 4.6875 54.6875 
L 15.28125 54.6875 
L 29.78125 35.203125 
L 44.28125 54.6875 
z
" id="DejaVuSans-120"/>
      <path d="M 56.203125 29.59375 
L 56.203125 25.203125 
L 14.890625 25.203125 
Q 15.484375 15.921875 20.484375 11.0625 
Q 25.484375 6.203125 34.421875 6.203125 
Q 39.59375 6.203125 44.453125 7.46875 
Q 49.3125 8.734375 54.109375 11.28125 
L 54.109375 2.78125 
Q 49.265625 0.734375 44.1875 -0.34375 
Q 39.109375 -1.421875 33.890625 -1.421875 
Q 20.796875 -1.421875 13.15625 6.1875 
Q 5.515625 13.8125 5.515625 26.8125 
Q 5.515625 40.234375 12.765625 48.109375 
Q 20.015625 56 32.328125 56 
Q 43.359375 56 49.78125 48.890625 
Q 56.203125 41.796875 56.203125 29.59375 
z
M 47.21875 32.234375 
Q 47.125 39.59375 43.09375 43.984375 
Q 39.0625 48.390625 32.421875 48.390625 
Q 24.90625 48.390625 20.390625 44.140625 
Q 15.875 39.890625 15.1875 32.171875 
z
" id="DejaVuSans-101"/>
      <path d="M 9.421875 75.984375 
L 18.40625 75.984375 
L 18.40625 0 
L 9.421875 0 
z
" id="DejaVuSans-108"/>
      <path d="M 52 44.1875 
Q 55.375 50.25 60.0625 53.125 
Q 64.75 56 71.09375 56 
Q 79.640625 56 84.28125 50.015625 
Q 88.921875 44.046875 88.921875 33.015625 
L 88.921875 0 
L 79.890625 0 
L 79.890625 32.71875 
Q 79.890625 40.578125 77.09375 44.375 
Q 74.3125 48.1875 68.609375 48.1875 
Q 61.625 48.1875 57.5625 43.546875 
Q 53.515625 38.921875 53.515625 30.90625 
L 53.515625 0 
L 44.484375 0 
L 44.484375 32.71875 
Q 44.484375 40.625 41.703125 44.40625 
Q 38.921875 48.1875 33.109375 48.1875 
Q 26.21875 48.1875 22.15625 43.53125 
Q 18.109375 38.875 18.109375 30.90625 
L 18.109375 0 
L 9.078125 0 
L 9.078125 54.6875 
L 18.109375 54.6875 
L 18.109375 46.1875 
Q 21.1875 51.21875 25.484375 53.609375 
Q 29.78125 56 35.6875 56 
Q 41.65625 56 45.828125 52.96875 
Q 50 49.953125 52 44.1875 
z
" id="DejaVuSans-109"/>
      <path d="M 54.890625 33.015625 
L 54.890625 0 
L 45.90625 0 
L 45.90625 32.71875 
Q 45.90625 40.484375 42.875 44.328125 
Q 39.84375 48.1875 33.796875 48.1875 
Q 26.515625 48.1875 22.3125 43.546875 
Q 18.109375 38.921875 18.109375 30.90625 
L 18.109375 0 
L 9.078125 0 
L 9.078125 54.6875 
L 18.109375 54.6875 
L 18.109375 46.1875 
Q 21.34375 51.125 25.703125 53.5625 
Q 30.078125 56 35.796875 56 
Q 45.21875 56 50.046875 50.171875 
Q 54.890625 44.34375 54.890625 33.015625 
z
" id="DejaVuSans-110"/>
      <path d="M 44.28125 53.078125 
L 44.28125 44.578125 
Q 40.484375 46.53125 36.375 47.5 
Q 32.28125 48.484375 27.875 48.484375 
Q 21.1875 48.484375 17.84375 46.4375 
Q 14.5 44.390625 14.5 40.28125 
Q 14.5 37.15625 16.890625 35.375 
Q 19.28125 33.59375 26.515625 31.984375 
L 29.59375 31.296875 
Q 39.15625 29.25 43.1875 25.515625 
Q 47.21875 21.78125 47.21875 15.09375 
Q 47.21875 7.46875 41.1875 3.015625 
Q 35.15625 -1.421875 24.609375 -1.421875 
Q 20.21875 -1.421875 15.453125 -0.5625 
Q 10.6875 0.296875 5.421875 2 
L 5.421875 11.28125 
Q 10.40625 8.6875 15.234375 7.390625 
Q 20.0625 6.109375 24.8125 6.109375 
Q 31.15625 6.109375 34.5625 8.28125 
Q 37.984375 10.453125 37.984375 14.40625 
Q 37.984375 18.0625 35.515625 20.015625 
Q 33.0625 21.96875 24.703125 23.78125 
L 21.578125 24.515625 
Q 13.234375 26.265625 9.515625 29.90625 
Q 5.8125 33.546875 5.8125 39.890625 
Q 5.8125 47.609375 11.28125 51.796875 
Q 16.75 56 26.8125 56 
Q 31.78125 56 36.171875 55.265625 
Q 40.578125 54.546875 44.28125 53.078125 
z
" id="DejaVuSans-115"/>
      <path d="M 2.78125 -18.796875 
Q 2.78125 -18.21875 2.875 -18.015625 
L 17.578125 41.015625 
Q 18.015625 42.4375 19.15625 43.3125 
Q 20.3125 44.1875 21.78125 44.1875 
Q 23.046875 44.1875 23.921875 43.421875 
Q 24.8125 42.671875 24.8125 41.40625 
Q 24.8125 41.109375 24.78125 40.9375 
Q 24.75 40.765625 24.703125 40.578125 
L 18.796875 17.1875 
Q 17.828125 13.03125 17.828125 10.015625 
Q 17.828125 6.296875 19.578125 3.90625 
Q 21.34375 1.515625 24.90625 1.515625 
Q 32.171875 1.515625 37.703125 10.59375 
Q 37.75 10.6875 37.765625 10.734375 
Q 37.796875 10.796875 37.796875 10.890625 
L 45.015625 39.890625 
Q 45.359375 41.21875 46.578125 42.15625 
Q 47.796875 43.109375 49.21875 43.109375 
Q 50.390625 43.109375 51.296875 42.328125 
Q 52.203125 41.546875 52.203125 40.28125 
Q 52.203125 39.703125 52.09375 39.5 
L 44.921875 10.6875 
Q 44.1875 7.859375 44.1875 5.8125 
Q 44.1875 1.515625 47.125 1.515625 
Q 50.25 1.515625 51.828125 5.375 
Q 53.421875 9.234375 54.59375 14.703125 
Q 54.78125 15.28125 55.421875 15.28125 
L 56.59375 15.28125 
Q 56.984375 15.28125 57.25 14.96875 
Q 57.515625 14.65625 57.515625 14.3125 
Q 55.765625 7.328125 53.6875 3.09375 
Q 51.609375 -1.125 46.921875 -1.125 
Q 43.609375 -1.125 41.046875 0.78125 
Q 38.484375 2.6875 37.703125 5.90625 
Q 35.203125 2.78125 31.859375 0.828125 
Q 28.515625 -1.125 24.8125 -1.125 
Q 18.5625 -1.125 14.984375 1.8125 
L 9.90625 -18.40625 
Q 9.625 -19.828125 8.453125 -20.703125 
Q 7.28125 -21.578125 5.8125 -21.578125 
Q 4.59375 -21.578125 3.6875 -20.8125 
Q 2.78125 -20.0625 2.78125 -18.796875 
z
" id="Cmmi10-185"/>
      <path d="M 28.609375 0 
L 0.78125 72.90625 
L 11.078125 72.90625 
L 34.1875 11.53125 
L 57.328125 72.90625 
L 67.578125 72.90625 
L 39.796875 0 
z
" id="DejaVuSans-86"/>
     </defs>
     <g transform="translate(23.61 366.146655)rotate(-90)scale(0.14 -0.14)">
      <use transform="translate(0 0.015625)" xlink:href="#DejaVuSans-77"/>
      <use transform="translate(86.279297 0.015625)" xlink:href="#DejaVuSans-97"/>
      <use transform="translate(147.558594 0.015625)" xlink:href="#DejaVuSans-116"/>
      <use transform="translate(186.767578 0.015625)" xlink:href="#DejaVuSans-114"/>
      <use transform="translate(227.880859 0.015625)" xlink:href="#DejaVuSans-105"/>
      <use transform="translate(255.664062 0.015625)" xlink:href="#DejaVuSans-120"/>
      <use transform="translate(314.84375 0.015625)" xlink:href="#DejaVuSans-32"/>
      <use transform="translate(346.630859 0.015625)" xlink:href="#DejaVuSans-101"/>
      <use transform="translate(408.154297 0.015625)" xlink:href="#DejaVuSans-108"/>
      <use transform="translate(435.9375 0.015625)" xlink:href="#DejaVuSans-101"/>
      <use transform="translate(497.460938 0.015625)" xlink:href="#DejaVuSans-109"/>
      <use transform="translate(594.873047 0.015625)" xlink:href="#DejaVuSans-101"/>
      <use transform="translate(656.396484 0.015625)" xlink:href="#DejaVuSans-110"/>
      <use transform="translate(719.775391 0.015625)" xlink:href="#DejaVuSans-116"/>
      <use transform="translate(758.984375 0.015625)" xlink:href="#DejaVuSans-115"/>
      <use transform="translate(811.083984 0.015625)" xlink:href="#DejaVuSans-32"/>
      <use transform="translate(842.871094 0.015625)" xlink:href="#DejaVuSans-40"/>
      <use transform="translate(881.884766 0.015625)" xlink:href="#Cmmi10-185"/>
      <use transform="translate(942.089844 0.015625)" xlink:href="#DejaVuSans-86"/>
      <use transform="translate(1010.498047 0.015625)" xlink:href="#DejaVuSans-41"/>
     </g>
    </g>
   </g>
   <g id="line2d_37">
    <path clip-path="url(#p18557007eb)" d="M 43.188611 307.596263 
L 48.618682 304.73036 
L 54.542396 301.757828 
L 55.036039 303.209646 
L 55.529682 347.376988 
L 56.023325 359.333778 
L 56.516968 362.215717 
L 57.010611 363.445494 
L 57.504254 364.091444 
L 57.997896 364.458136 
L 58.985182 364.76341 
L 59.972468 364.741109 
L 60.959753 364.486442 
L 61.947039 364.00675 
L 62.934325 363.256165 
L 63.92161 362.125489 
L 64.908896 360.38993 
L 65.402539 359.160362 
L 65.896182 357.555179 
L 66.389825 355.390222 
L 66.883467 352.338061 
L 67.37711 347.762408 
L 67.870753 340.276497 
L 68.364396 326.429165 
L 68.858039 297.614118 
L 69.351682 253.396269 
L 69.845325 231.330805 
L 70.338967 225.356336 
L 70.83261 223.331856 
L 71.326253 222.420245 
L 71.819896 221.913439 
L 72.807182 221.34422 
L 74.28811 220.84978 
L 77.249967 220.16447 
L 83.667324 218.965471 
L 92.552895 217.540302 
L 102.425752 216.189343 
L 112.792252 215.004942 
L 123.158751 214.044574 
L 134.018894 213.268106 
L 144.879036 212.719445 
L 155.739179 212.393961 
L 166.599321 212.289068 
L 177.459464 212.403957 
L 188.319606 212.739516 
L 199.179749 213.298414 
L 210.039891 214.085386 
L 220.406391 215.056165 
L 230.772891 216.251567 
L 240.645748 217.613959 
L 249.531319 219.051422 
L 256.442319 220.373937 
L 258.910533 220.992265 
L 260.391461 221.584279 
L 260.885104 221.913439 
L 261.378747 222.420245 
L 261.87239 223.331856 
L 262.366033 225.356336 
L 262.859675 231.330805 
L 263.353318 253.396269 
L 263.846961 297.614118 
L 264.340604 326.429165 
L 264.834247 340.276497 
L 265.32789 347.762408 
L 265.821533 352.338061 
L 266.315175 355.390222 
L 266.808818 357.555179 
L 267.796104 360.38993 
L 268.78339 362.125489 
L 269.770675 363.256165 
L 270.757961 364.00675 
L 271.745247 364.486442 
L 272.732532 364.741109 
L 273.719818 364.76341 
L 274.707104 364.458136 
L 275.200746 364.091444 
L 275.694389 363.445494 
L 276.188032 362.215717 
L 276.681675 359.333778 
L 277.175318 347.376988 
L 277.668961 303.209646 
L 278.162604 301.757828 
L 279.643532 302.492229 
L 289 307.313256 
L 289 307.313256 
" style="fill:none;stroke:#ed2200;stroke-linecap:square;stroke-width:1.2;"/>
   </g>
   <g id="line2d_38">
    <path clip-path="url(#p18557007eb)" d="M 43.188611 373.004241 
L 59.478825 373.004241 
L 59.972468 299.766323 
L 64.415253 297.94617 
L 70.338967 295.768548 
L 76.756324 293.65197 
L 83.667324 291.618015 
L 90.578324 289.81281 
L 97.982966 288.109498 
L 105.881252 286.533899 
L 113.779537 285.188247 
L 122.171466 283.992932 
L 130.563394 283.024557 
L 138.955322 282.271534 
L 147.840893 281.699315 
L 156.726465 281.351585 
L 165.612036 281.224039 
L 174.497607 281.315113 
L 183.383178 281.625922 
L 192.268749 282.160307 
L 201.15432 282.924982 
L 209.546249 283.867479 
L 217.938177 285.03539 
L 225.836462 286.353473 
L 233.734748 287.899346 
L 241.13939 289.572357 
L 248.544033 291.481753 
L 255.455033 293.498585 
L 261.87239 295.597297 
L 267.796104 297.75535 
L 272.732532 299.766323 
L 273.226175 373.004241 
L 289 373.004241 
L 289 373.004241 
" style="fill:none;stroke:#104e8b;stroke-linecap:square;stroke-width:1.2;"/>
   </g>
   <g id="line2d_39">
    <path clip-path="url(#p18557007eb)" d="M 43.188611 363.651815 
L 44.66954 364.933604 
L 46.150468 365.898266 
L 48.12504 366.881592 
L 52.074182 368.691266 
L 53.061468 369.574812 
L 53.555111 370.346751 
L 54.048754 371.707474 
L 54.542396 371.178089 
L 55.036039 357.513811 
L 55.529682 306.024215 
L 56.023325 302.378205 
L 56.516968 301.657378 
L 57.504254 300.954778 
L 59.478825 299.985149 
L 59.972468 373.004241 
L 272.732532 373.004241 
L 273.226175 299.985149 
L 275.200746 300.954778 
L 276.188032 301.657378 
L 276.681675 302.378205 
L 277.175318 306.024215 
L 277.668961 357.513811 
L 278.162604 371.178089 
L 278.656246 371.707474 
L 279.149889 370.346751 
L 279.643532 369.574812 
L 280.630818 368.691266 
L 282.111746 367.916705 
L 286.060889 366.16993 
L 287.541818 365.283904 
L 289 364.143048 
L 289 364.143048 
" style="fill:none;stroke:#68838b;stroke-linecap:square;stroke-width:1.2;"/>
   </g>
   <g id="line2d_40">
    <path clip-path="url(#p18557007eb)" d="M 43.188611 373.004241 
L 59.478825 373.004241 
L 59.972468 224.223685 
L 63.427968 223.463861 
L 64.908896 223.28298 
L 65.896182 223.313629 
L 66.389825 223.436869 
L 66.883467 223.712771 
L 67.37711 224.303358 
L 67.870753 225.655134 
L 68.364396 229.313297 
L 68.858039 241.985849 
L 69.845325 319.678909 
L 70.338967 339.131554 
L 70.83261 348.973549 
L 71.326253 354.687009 
L 71.819896 358.371095 
L 72.313539 360.929818 
L 72.807182 362.805472 
L 73.794467 365.366072 
L 74.781753 367.031858 
L 75.769039 368.205511 
L 76.756324 369.082517 
L 78.237253 370.062349 
L 80.211824 371.015096 
L 80.705467 371.213927 
L 81.19911 373.004241 
L 251.50589 373.004241 
L 251.999533 371.213927 
L 253.974104 370.329408 
L 255.455033 369.44506 
L 256.442319 368.673073 
L 257.429604 367.665062 
L 258.41689 366.278493 
L 259.404176 364.237494 
L 259.897818 362.805472 
L 260.391461 360.929818 
L 260.885104 358.371095 
L 261.378747 354.687009 
L 261.87239 348.973549 
L 262.366033 339.131554 
L 262.859675 319.678909 
L 263.846961 241.985849 
L 264.340604 229.313297 
L 264.834247 225.655134 
L 265.32789 224.303358 
L 265.821533 223.712771 
L 266.315175 223.436869 
L 267.302461 223.273562 
L 268.78339 223.386329 
L 271.251604 223.865054 
L 272.732532 224.223685 
L 273.226175 373.004241 
L 289 373.004241 
L 289 373.004241 
" style="fill:none;stroke:#ffa07a;stroke-linecap:square;stroke-width:1.2;"/>
   </g>
   <g id="line2d_41">
    <path clip-path="url(#p18557007eb)" d="M 43.188611 306.445922 
L 49.112325 303.383086 
L 52.567825 301.609493 
L 53.061468 301.575958 
L 53.555111 316.746794 
L 54.048754 355.431385 
L 54.542396 361.006252 
L 55.036039 362.897846 
L 55.529682 363.807147 
L 56.023325 364.308878 
L 56.516968 364.596573 
L 57.504254 364.816761 
L 58.491539 364.74315 
L 59.478825 364.444334 
L 60.466111 363.915096 
L 61.453396 363.097701 
L 62.440682 361.863863 
L 62.934325 361.016828 
L 63.427968 359.947817 
L 63.92161 358.570704 
L 64.415253 356.746666 
L 64.908896 354.238071 
L 65.402539 350.605322 
L 65.896182 344.94891 
L 66.389825 335.178392 
L 66.883467 315.841005 
L 67.870753 240.135743 
L 68.364396 228.356141 
L 68.858039 224.949715 
L 69.351682 223.61329 
L 69.845325 222.938971 
L 70.83261 222.245691 
L 72.313539 221.68962 
L 75.275396 220.950319 
L 81.19911 219.766428 
L 89.591038 218.327138 
L 98.970252 216.953449 
L 108.843109 215.741275 
L 118.715966 214.750099 
L 129.082465 213.934423 
L 139.448965 213.340822 
L 149.815465 212.96402 
L 160.181964 212.801355 
L 170.548464 212.85247 
L 180.914964 213.119296 
L 191.281463 213.606284 
L 201.647963 214.320927 
L 211.52082 215.223682 
L 220.900034 216.295635 
L 230.279248 217.595515 
L 238.671176 218.97529 
L 246.569462 220.493859 
L 252.986819 221.945161 
L 255.948676 222.782822 
L 257.429604 223.398947 
L 257.923247 223.709004 
L 258.41689 224.152239 
L 258.910533 224.882061 
L 259.404176 226.339553 
L 259.897818 230.127216 
L 260.391461 243.455178 
L 261.378747 318.744937 
L 261.87239 336.619511 
L 262.366033 345.77929 
L 262.859675 351.146156 
L 263.353318 354.6218 
L 263.846961 357.035975 
L 264.340604 358.798783 
L 265.32789 361.172621 
L 266.315175 362.660982 
L 267.302461 363.640157 
L 268.289747 364.286982 
L 269.277032 364.686968 
L 270.264318 364.870691 
L 271.251604 364.814616 
L 271.745247 364.664333 
L 272.238889 364.389505 
L 272.732532 363.916199 
L 273.226175 363.075759 
L 273.719818 361.39279 
L 274.213461 356.867194 
L 275.200746 301.241098 
L 275.694389 301.052263 
L 283.099032 304.750074 
L 288.529103 307.643595 
L 289 307.908199 
L 289 307.908199 
" style="fill:none;stroke:#ed2200;stroke-dasharray:1.2,1.98;stroke-dashoffset:0;stroke-width:1.2;"/>
   </g>
   <g id="line2d_42">
    <path clip-path="url(#p18557007eb)" d="M 43.188611 372.097945 
L 48.12504 372.278895 
L 54.048754 372.270511 
L 56.516968 372.089669 
L 57.010611 371.958835 
L 57.504254 371.568635 
L 57.997896 299.952698 
L 58.491539 299.400428 
L 63.427968 297.395272 
L 69.351682 295.23738 
L 75.769039 293.13905 
L 82.680038 291.123374 
L 89.591038 289.335519 
L 96.995681 287.649979 
L 104.893966 286.092552 
L 112.792252 284.764384 
L 121.18418 283.587011 
L 129.576108 282.636038 
L 137.968037 281.899983 
L 146.853608 281.345364 
L 155.739179 281.014964 
L 164.62475 280.904577 
L 173.510321 281.012736 
L 182.395892 281.340653 
L 191.281463 281.892268 
L 200.167035 282.674415 
L 208.558963 283.633764 
L 216.950891 284.819034 
L 224.849177 286.15413 
L 232.747462 287.717967 
L 240.152105 289.409082 
L 247.063105 291.201899 
L 253.974104 293.22266 
L 260.391461 295.326717 
L 266.315175 297.493946 
L 269.770675 298.884889 
L 270.264318 365.133645 
L 270.757961 370.797859 
L 271.251604 371.290378 
L 272.238889 371.590414 
L 274.213461 371.7679 
L 277.668961 371.815527 
L 282.111746 371.668827 
L 286.060889 371.316273 
L 288.529103 370.906671 
L 289 370.801359 
L 289 370.801359 
" style="fill:none;stroke:#104e8b;stroke-dasharray:1.2,1.98;stroke-dashoffset:0;stroke-width:1.2;"/>
   </g>
   <g id="line2d_43">
    <path clip-path="url(#p18557007eb)" d="M 43.188611 365.041004 
L 44.66954 365.997324 
L 46.644111 366.97721 
L 50.099611 368.547897 
L 51.086897 369.308971 
L 51.580539 369.921009 
L 52.074182 370.905194 
L 52.567825 372.818837 
L 53.061468 367.773706 
L 53.555111 328.321464 
L 54.048754 303.113438 
L 54.542396 301.718542 
L 55.036039 301.202136 
L 56.023325 300.572901 
L 57.504254 299.855125 
L 57.997896 366.003149 
L 58.491539 372.856569 
L 58.985182 372.541099 
L 60.466111 372.25711 
L 62.934325 371.867675 
L 64.415253 371.399522 
L 65.402539 370.750356 
L 65.896182 370.158892 
L 66.389825 369.142164 
L 66.883467 367.136638 
L 67.870753 359.33502 
L 68.364396 358.172274 
L 68.858039 357.884519 
L 69.845325 357.810855 
L 72.807182 358.060857 
L 84.160967 359.090668 
L 94.527467 359.788714 
L 105.881252 360.331871 
L 118.715966 360.716604 
L 132.537965 360.899433 
L 146.853608 360.861134 
L 161.16925 360.598482 
L 174.99125 360.122185 
L 187.825964 359.461175 
L 199.673392 358.632567 
L 210.533534 357.651959 
L 220.406391 356.537478 
L 229.291962 355.313111 
L 237.190248 354.011345 
L 244.59489 352.571568 
L 251.50589 351.002023 
L 258.910533 349.27382 
L 259.404176 349.352415 
L 259.897818 349.817527 
L 260.391461 351.86687 
L 261.378747 364.142655 
L 261.87239 367.084339 
L 262.366033 368.597709 
L 262.859675 369.489148 
L 263.353318 370.070797 
L 264.340604 370.781668 
L 265.32789 371.203171 
L 267.302461 371.720136 
L 268.78339 372.115184 
L 269.770675 372.772114 
L 270.264318 299.517834 
L 270.757961 299.348727 
L 272.732532 300.311997 
L 273.226175 300.639533 
L 273.719818 301.10942 
L 274.213461 302.210584 
L 274.707104 315.532729 
L 275.200746 365.319753 
L 275.694389 372.455591 
L 276.681675 370.171624 
L 277.175318 369.495477 
L 278.162604 368.67381 
L 279.643532 367.90342 
L 283.099032 366.315758 
L 284.57996 365.419613 
L 286.060889 364.245399 
L 287.048175 363.232332 
L 288.03546 361.952066 
L 289 360.326333 
L 289 360.326333 
" style="fill:none;stroke:#68838b;stroke-dasharray:1.2,1.98;stroke-dashoffset:0;stroke-width:1.2;"/>
   </g>
   <g id="line2d_44">
    <path clip-path="url(#p18557007eb)" d="M 43.188611 372.993504 
L 46.150468 372.885587 
L 47.137754 372.72023 
L 47.631397 372.461678 
L 48.12504 371.08221 
L 48.618682 354.440617 
L 49.605968 354.558953 
L 52.567825 355.15337 
L 53.061468 355.358615 
L 53.555111 359.713623 
L 54.048754 369.598012 
L 54.542396 371.041238 
L 55.036039 371.57703 
L 56.023325 372.114743 
L 57.010611 372.661565 
L 57.504254 372.529045 
L 57.997896 226.225911 
L 58.491539 225.181888 
L 61.453396 224.451894 
L 63.427968 224.175589 
L 64.415253 224.239094 
L 64.908896 224.410414 
L 65.402539 224.791081 
L 65.896182 225.634106 
L 66.389825 227.711007 
L 66.883467 234.048115 
L 67.37711 257.245289 
L 67.870753 302.346922 
L 68.364396 331.076133 
L 68.858039 344.806242 
L 69.351682 352.230792 
L 69.845325 356.779954 
L 70.338967 359.827435 
L 70.83261 362.003089 
L 71.819896 364.89416 
L 72.807182 366.726165 
L 73.794467 367.993815 
L 74.781753 368.928512 
L 76.262681 369.960452 
L 78.237253 370.963491 
L 78.730896 371.209099 
L 79.224539 372.40157 
L 79.718181 372.204727 
L 82.680038 372.004877 
L 98.476609 371.250441 
L 115.260466 370.688363 
L 135.993465 370.227136 
L 161.16925 369.896478 
L 185.851392 369.787392 
L 205.597106 369.908723 
L 220.900034 370.213169 
L 233.241105 370.672552 
L 242.620319 371.219084 
L 247.556747 371.712129 
L 249.037676 371.893848 
L 249.531319 371.276805 
L 253.480461 368.91966 
L 254.467747 367.976198 
L 255.455033 366.694256 
L 256.442319 364.835834 
L 256.935961 363.550502 
L 257.429604 361.888753 
L 257.923247 359.659493 
L 258.41689 356.520836 
L 258.910533 351.802253 
L 259.404176 344.023869 
L 259.897818 329.451585 
L 260.391461 298.925947 
L 260.885104 254.716046 
L 261.378747 234.278008 
L 261.87239 228.699753 
L 262.366033 226.837948 
L 262.859675 226.083506 
L 263.353318 225.753451 
L 264.340604 225.586662 
L 265.821533 225.76848 
L 268.289747 226.414255 
L 269.770675 226.934928 
L 270.264318 361.372456 
L 270.757961 372.605151 
L 271.251604 372.368899 
L 272.238889 371.525516 
L 273.226175 370.670623 
L 273.719818 369.862544 
L 274.213461 367.894835 
L 275.200746 343.580313 
L 275.694389 343.064921 
L 278.162604 341.930646 
L 279.149889 341.508442 
L 279.643532 342.795996 
L 280.137175 371.24344 
L 280.630818 372.253686 
L 281.124461 372.555003 
L 282.111746 372.781487 
L 284.086318 372.92245 
L 288.529103 372.983075 
L 289 372.967816 
L 289 372.967816 
" style="fill:none;stroke:#ffa07a;stroke-dasharray:1.2,1.98;stroke-dashoffset:0;stroke-width:1.2;"/>
   </g>
   <g id="patch_8">
    <path d="M 55.505 381.04 
L 55.505 204.253309 
" style="fill:none;stroke:#2b2b2b;stroke-linecap:square;stroke-linejoin:miter;stroke-width:0.8;"/>
   </g>
   <g id="patch_9">
    <path d="M 277.2 381.04 
L 277.2 204.253309 
" style="fill:none;stroke:#2b2b2b;stroke-linecap:square;stroke-linejoin:miter;stroke-width:0.8;"/>
   </g>
   <g id="patch_10">
    <path d="M 55.505 381.04 
L 277.2 381.04 
" style="fill:none;stroke:#2b2b2b;stroke-linecap:square;stroke-linejoin:miter;stroke-width:0.8;"/>
   </g>
   <g id="patch_11">
    <path d="M 55.505 204.253309 
L 277.2 204.253309 
" style="fill:none;stroke:#2b2b2b;stroke-linecap:square;stroke-linejoin:miter;stroke-width:0.8;"/>
   </g>
  </g>
 </g>
 <defs>
  <clipPath id="pafef90b44b">
   <rect height="176.786691" width="221.695" x="55.505" y="10.8"/>
  </clipPath>
  <clipPath id="p18557007eb">
   <rect height="176.786691" width="221.695" x="55.505" y="204.253309"/>
  </clipPath>
 </defs>
</svg>
