<?xml version="1.0" encoding="utf-8" standalone="no"?>
<!DOCTYPE svg PUBLIC "-//W3C//DTD SVG 1.1//EN"
  "http://www.w3.org/Graphics/SVG/1.1/DTD/svg11.dtd">
<!-- Created with matplotlib (https://matplotlib.org/) -->
<svg height="648pt" version="1.1" viewBox="0 0 432 648" width="432pt" xmlns="http://www.w3.org/2000/svg" xmlns:xlink="http://www.w3.org/1999/xlink">
 <defs>
  <style type="text/css">
*{stroke-linecap:butt;stroke-linejoin:round;}
  </style>
 </defs>
 <g id="figure_1">
  <g id="patch_1">
   <path d="M 0 648 
L 432 648 
L 432 0 
L 0 0 
z
" style="fill:none;"/>
  </g>
  <g id="axes_1">
   <g id="patch_2">
    <path d="M 83.795968 286.58364 
L 421.2 286.58364 
L 421.2 10.8 
L 83.795968 10.8 
z
" style="fill:none;"/>
   </g>
   <g id="matplotlib.axis_1">
    <g id="xtick_1">
     <g id="line2d_1">
      <path clip-path="url(#pb89d496edb)" d="M 127.533527 286.58364 
L 127.533527 10.8 
" style="fill:none;stroke:#b2b2b2;stroke-dasharray:2.96,1.28;stroke-dashoffset:0;stroke-opacity:0.3;stroke-width:0.8;"/>
     </g>
     <g id="line2d_2">
      <defs>
       <path d="M 0 0 
L 0 3.5 
" id="me2d52e31d7" style="stroke:#000000;stroke-width:0.8;"/>
      </defs>
      <g>
       <use style="stroke:#000000;stroke-width:0.8;" x="127.533527" xlink:href="#me2d52e31d7" y="286.58364"/>
      </g>
     </g>
    </g>
    <g id="xtick_2">
     <g id="line2d_3">
      <path clip-path="url(#pb89d496edb)" d="M 190.015756 286.58364 
L 190.015756 10.8 
" style="fill:none;stroke:#b2b2b2;stroke-dasharray:2.96,1.28;stroke-dashoffset:0;stroke-opacity:0.3;stroke-width:0.8;"/>
     </g>
     <g id="line2d_4">
      <g>
       <use style="stroke:#000000;stroke-width:0.8;" x="190.015756" xlink:href="#me2d52e31d7" y="286.58364"/>
      </g>
     </g>
    </g>
    <g id="xtick_3">
     <g id="line2d_5">
      <path clip-path="url(#pb89d496edb)" d="M 252.497984 286.58364 
L 252.497984 10.8 
" style="fill:none;stroke:#b2b2b2;stroke-dasharray:2.96,1.28;stroke-dashoffset:0;stroke-opacity:0.3;stroke-width:0.8;"/>
     </g>
     <g id="line2d_6">
      <g>
       <use style="stroke:#000000;stroke-width:0.8;" x="252.497984" xlink:href="#me2d52e31d7" y="286.58364"/>
      </g>
     </g>
    </g>
    <g id="xtick_4">
     <g id="line2d_7">
      <path clip-path="url(#pb89d496edb)" d="M 314.980212 286.58364 
L 314.980212 10.8 
" style="fill:none;stroke:#b2b2b2;stroke-dasharray:2.96,1.28;stroke-dashoffset:0;stroke-opacity:0.3;stroke-width:0.8;"/>
     </g>
     <g id="line2d_8">
      <g>
       <use style="stroke:#000000;stroke-width:0.8;" x="314.980212" xlink:href="#me2d52e31d7" y="286.58364"/>
      </g>
     </g>
    </g>
    <g id="xtick_5">
     <g id="line2d_9">
      <path clip-path="url(#pb89d496edb)" d="M 377.46244 286.58364 
L 377.46244 10.8 
" style="fill:none;stroke:#b2b2b2;stroke-dasharray:2.96,1.28;stroke-dashoffset:0;stroke-opacity:0.3;stroke-width:0.8;"/>
     </g>
     <g id="line2d_10">
      <g>
       <use style="stroke:#000000;stroke-width:0.8;" x="377.46244" xlink:href="#me2d52e31d7" y="286.58364"/>
      </g>
     </g>
    </g>
   </g>
   <g id="matplotlib.axis_2">
    <g id="ytick_1">
     <g id="line2d_11">
      <path clip-path="url(#pb89d496edb)" d="M 83.795968 286.58364 
L 421.2 286.58364 
" style="fill:none;stroke:#b2b2b2;stroke-dasharray:2.96,1.28;stroke-dashoffset:0;stroke-opacity:0.3;stroke-width:0.8;"/>
     </g>
     <g id="line2d_12">
      <defs>
       <path d="M 0 0 
L -3.5 0 
" id="mf46f7cb136" style="stroke:#000000;stroke-width:0.8;"/>
      </defs>
      <g>
       <use style="stroke:#000000;stroke-width:0.8;" x="83.795968" xlink:href="#mf46f7cb136" y="286.58364"/>
      </g>
     </g>
     <g id="text_1">
      <!-- 3.0 -->
      <defs>
       <path d="M 40.578125 39.3125 
Q 47.65625 37.796875 51.625 33 
Q 55.609375 28.21875 55.609375 21.1875 
Q 55.609375 10.40625 48.1875 4.484375 
Q 40.765625 -1.421875 27.09375 -1.421875 
Q 22.515625 -1.421875 17.65625 -0.515625 
Q 12.796875 0.390625 7.625 2.203125 
L 7.625 11.71875 
Q 11.71875 9.328125 16.59375 8.109375 
Q 21.484375 6.890625 26.8125 6.890625 
Q 36.078125 6.890625 40.9375 10.546875 
Q 45.796875 14.203125 45.796875 21.1875 
Q 45.796875 27.640625 41.28125 31.265625 
Q 36.765625 34.90625 28.71875 34.90625 
L 20.21875 34.90625 
L 20.21875 43.015625 
L 29.109375 43.015625 
Q 36.375 43.015625 40.234375 45.921875 
Q 44.09375 48.828125 44.09375 54.296875 
Q 44.09375 59.90625 40.109375 62.90625 
Q 36.140625 65.921875 28.71875 65.921875 
Q 24.65625 65.921875 20.015625 65.03125 
Q 15.375 64.15625 9.8125 62.3125 
L 9.8125 71.09375 
Q 15.4375 72.65625 20.34375 73.4375 
Q 25.25 74.21875 29.59375 74.21875 
Q 40.828125 74.21875 47.359375 69.109375 
Q 53.90625 64.015625 53.90625 55.328125 
Q 53.90625 49.265625 50.4375 45.09375 
Q 46.96875 40.921875 40.578125 39.3125 
z
" id="DejaVuSans-51"/>
       <path d="M 10.6875 12.40625 
L 21 12.40625 
L 21 0 
L 10.6875 0 
z
" id="DejaVuSans-46"/>
       <path d="M 31.78125 66.40625 
Q 24.171875 66.40625 20.328125 58.90625 
Q 16.5 51.421875 16.5 36.375 
Q 16.5 21.390625 20.328125 13.890625 
Q 24.171875 6.390625 31.78125 6.390625 
Q 39.453125 6.390625 43.28125 13.890625 
Q 47.125 21.390625 47.125 36.375 
Q 47.125 51.421875 43.28125 58.90625 
Q 39.453125 66.40625 31.78125 66.40625 
z
M 31.78125 74.21875 
Q 44.046875 74.21875 50.515625 64.515625 
Q 56.984375 54.828125 56.984375 36.375 
Q 56.984375 17.96875 50.515625 8.265625 
Q 44.046875 -1.421875 31.78125 -1.421875 
Q 19.53125 -1.421875 13.0625 8.265625 
Q 6.59375 17.96875 6.59375 36.375 
Q 6.59375 54.828125 13.0625 64.515625 
Q 19.53125 74.21875 31.78125 74.21875 
z
" id="DejaVuSans-48"/>
      </defs>
      <g transform="translate(48.170343 293.422233)scale(0.18 -0.18)">
       <use xlink:href="#DejaVuSans-51"/>
       <use x="63.623047" xlink:href="#DejaVuSans-46"/>
       <use x="95.410156" xlink:href="#DejaVuSans-48"/>
      </g>
     </g>
    </g>
    <g id="ytick_2">
     <g id="line2d_13">
      <path clip-path="url(#pb89d496edb)" d="M 83.795968 249.812488 
L 421.2 249.812488 
" style="fill:none;stroke:#b2b2b2;stroke-dasharray:2.96,1.28;stroke-dashoffset:0;stroke-opacity:0.3;stroke-width:0.8;"/>
     </g>
     <g id="line2d_14">
      <g>
       <use style="stroke:#000000;stroke-width:0.8;" x="83.795968" xlink:href="#mf46f7cb136" y="249.812488"/>
      </g>
     </g>
     <g id="text_2">
      <!-- 5.0 -->
      <defs>
       <path d="M 10.796875 72.90625 
L 49.515625 72.90625 
L 49.515625 64.59375 
L 19.828125 64.59375 
L 19.828125 46.734375 
Q 21.96875 47.46875 24.109375 47.828125 
Q 26.265625 48.1875 28.421875 48.1875 
Q 40.625 48.1875 47.75 41.5 
Q 54.890625 34.8125 54.890625 23.390625 
Q 54.890625 11.625 47.5625 5.09375 
Q 40.234375 -1.421875 26.90625 -1.421875 
Q 22.3125 -1.421875 17.546875 -0.640625 
Q 12.796875 0.140625 7.71875 1.703125 
L 7.71875 11.625 
Q 12.109375 9.234375 16.796875 8.0625 
Q 21.484375 6.890625 26.703125 6.890625 
Q 35.15625 6.890625 40.078125 11.328125 
Q 45.015625 15.765625 45.015625 23.390625 
Q 45.015625 31 40.078125 35.4375 
Q 35.15625 39.890625 26.703125 39.890625 
Q 22.75 39.890625 18.8125 39.015625 
Q 14.890625 38.140625 10.796875 36.28125 
z
" id="DejaVuSans-53"/>
      </defs>
      <g transform="translate(48.170343 256.651081)scale(0.18 -0.18)">
       <use xlink:href="#DejaVuSans-53"/>
       <use x="63.623047" xlink:href="#DejaVuSans-46"/>
       <use x="95.410156" xlink:href="#DejaVuSans-48"/>
      </g>
     </g>
    </g>
    <g id="ytick_3">
     <g id="line2d_15">
      <path clip-path="url(#pb89d496edb)" d="M 83.795968 203.848548 
L 421.2 203.848548 
" style="fill:none;stroke:#b2b2b2;stroke-dasharray:2.96,1.28;stroke-dashoffset:0;stroke-opacity:0.3;stroke-width:0.8;"/>
     </g>
     <g id="line2d_16">
      <g>
       <use style="stroke:#000000;stroke-width:0.8;" x="83.795968" xlink:href="#mf46f7cb136" y="203.848548"/>
      </g>
     </g>
     <g id="text_3">
      <!-- 7.5 -->
      <defs>
       <path d="M 8.203125 72.90625 
L 55.078125 72.90625 
L 55.078125 68.703125 
L 28.609375 0 
L 18.3125 0 
L 43.21875 64.59375 
L 8.203125 64.59375 
z
" id="DejaVuSans-55"/>
      </defs>
      <g transform="translate(48.170343 210.687142)scale(0.18 -0.18)">
       <use xlink:href="#DejaVuSans-55"/>
       <use x="63.623047" xlink:href="#DejaVuSans-46"/>
       <use x="95.410156" xlink:href="#DejaVuSans-53"/>
      </g>
     </g>
    </g>
    <g id="ytick_4">
     <g id="line2d_17">
      <path clip-path="url(#pb89d496edb)" d="M 83.795968 157.884608 
L 421.2 157.884608 
" style="fill:none;stroke:#b2b2b2;stroke-dasharray:2.96,1.28;stroke-dashoffset:0;stroke-opacity:0.3;stroke-width:0.8;"/>
     </g>
     <g id="line2d_18">
      <g>
       <use style="stroke:#000000;stroke-width:0.8;" x="83.795968" xlink:href="#mf46f7cb136" y="157.884608"/>
      </g>
     </g>
     <g id="text_4">
      <!-- 10.0 -->
      <defs>
       <path d="M 12.40625 8.296875 
L 28.515625 8.296875 
L 28.515625 63.921875 
L 10.984375 60.40625 
L 10.984375 69.390625 
L 28.421875 72.90625 
L 38.28125 72.90625 
L 38.28125 8.296875 
L 54.390625 8.296875 
L 54.390625 0 
L 12.40625 0 
z
" id="DejaVuSans-49"/>
      </defs>
      <g transform="translate(36.717843 164.723202)scale(0.18 -0.18)">
       <use xlink:href="#DejaVuSans-49"/>
       <use x="63.623047" xlink:href="#DejaVuSans-48"/>
       <use x="127.246094" xlink:href="#DejaVuSans-46"/>
       <use x="159.033203" xlink:href="#DejaVuSans-48"/>
      </g>
     </g>
    </g>
    <g id="ytick_5">
     <g id="line2d_19">
      <path clip-path="url(#pb89d496edb)" d="M 83.795968 111.920668 
L 421.2 111.920668 
" style="fill:none;stroke:#b2b2b2;stroke-dasharray:2.96,1.28;stroke-dashoffset:0;stroke-opacity:0.3;stroke-width:0.8;"/>
     </g>
     <g id="line2d_20">
      <g>
       <use style="stroke:#000000;stroke-width:0.8;" x="83.795968" xlink:href="#mf46f7cb136" y="111.920668"/>
      </g>
     </g>
     <g id="text_5">
      <!-- 12.5 -->
      <defs>
       <path d="M 19.1875 8.296875 
L 53.609375 8.296875 
L 53.609375 0 
L 7.328125 0 
L 7.328125 8.296875 
Q 12.9375 14.109375 22.625 23.890625 
Q 32.328125 33.6875 34.8125 36.53125 
Q 39.546875 41.84375 41.421875 45.53125 
Q 43.3125 49.21875 43.3125 52.78125 
Q 43.3125 58.59375 39.234375 62.25 
Q 35.15625 65.921875 28.609375 65.921875 
Q 23.96875 65.921875 18.8125 64.3125 
Q 13.671875 62.703125 7.8125 59.421875 
L 7.8125 69.390625 
Q 13.765625 71.78125 18.9375 73 
Q 24.125 74.21875 28.421875 74.21875 
Q 39.75 74.21875 46.484375 68.546875 
Q 53.21875 62.890625 53.21875 53.421875 
Q 53.21875 48.921875 51.53125 44.890625 
Q 49.859375 40.875 45.40625 35.40625 
Q 44.1875 33.984375 37.640625 27.21875 
Q 31.109375 20.453125 19.1875 8.296875 
z
" id="DejaVuSans-50"/>
      </defs>
      <g transform="translate(36.717843 118.759262)scale(0.18 -0.18)">
       <use xlink:href="#DejaVuSans-49"/>
       <use x="63.623047" xlink:href="#DejaVuSans-50"/>
       <use x="127.246094" xlink:href="#DejaVuSans-46"/>
       <use x="159.033203" xlink:href="#DejaVuSans-53"/>
      </g>
     </g>
    </g>
    <g id="ytick_6">
     <g id="line2d_21">
      <path clip-path="url(#pb89d496edb)" d="M 83.795968 65.956728 
L 421.2 65.956728 
" style="fill:none;stroke:#b2b2b2;stroke-dasharray:2.96,1.28;stroke-dashoffset:0;stroke-opacity:0.3;stroke-width:0.8;"/>
     </g>
     <g id="line2d_22">
      <g>
       <use style="stroke:#000000;stroke-width:0.8;" x="83.795968" xlink:href="#mf46f7cb136" y="65.956728"/>
      </g>
     </g>
     <g id="text_6">
      <!-- 15.0 -->
      <g transform="translate(36.717843 72.795322)scale(0.18 -0.18)">
       <use xlink:href="#DejaVuSans-49"/>
       <use x="63.623047" xlink:href="#DejaVuSans-53"/>
       <use x="127.246094" xlink:href="#DejaVuSans-46"/>
       <use x="159.033203" xlink:href="#DejaVuSans-48"/>
      </g>
     </g>
    </g>
    <g id="ytick_7">
     <g id="line2d_23">
      <path clip-path="url(#pb89d496edb)" d="M 83.795968 19.992788 
L 421.2 19.992788 
" style="fill:none;stroke:#b2b2b2;stroke-dasharray:2.96,1.28;stroke-dashoffset:0;stroke-opacity:0.3;stroke-width:0.8;"/>
     </g>
     <g id="line2d_24">
      <g>
       <use style="stroke:#000000;stroke-width:0.8;" x="83.795968" xlink:href="#mf46f7cb136" y="19.992788"/>
      </g>
     </g>
     <g id="text_7">
      <!-- 17.5 -->
      <g transform="translate(36.717843 26.831382)scale(0.18 -0.18)">
       <use xlink:href="#DejaVuSans-49"/>
       <use x="63.623047" xlink:href="#DejaVuSans-55"/>
       <use x="127.246094" xlink:href="#DejaVuSans-46"/>
       <use x="159.033203" xlink:href="#DejaVuSans-53"/>
      </g>
     </g>
    </g>
    <g id="text_8">
     <!-- $\omega/2\pi$ (GHz) -->
     <defs>
      <path d="M 12.109375 -1.125 
Q 6.453125 -1.125 3.9375 3.015625 
Q 1.421875 7.171875 1.421875 13.1875 
Q 1.421875 17.140625 2.125 20.921875 
Q 2.828125 24.703125 4.265625 28.578125 
Q 5.71875 32.46875 7.5625 35.859375 
Q 9.421875 39.265625 11.71875 42.484375 
Q 12.15625 43.109375 12.890625 43.109375 
Q 13.53125 43.109375 13.921875 42.71875 
Q 14.3125 42.328125 14.3125 41.796875 
Q 14.3125 41.265625 14.015625 40.828125 
Q 4.890625 28.265625 4.890625 17.671875 
Q 4.890625 13.09375 7 9.796875 
Q 9.125 6.5 13.484375 6.5 
Q 17.234375 6.5 20.4375 8.6875 
Q 23.640625 10.890625 25.984375 14.3125 
Q 25.984375 16.0625 26.59375 19.765625 
Q 27.203125 23.484375 28.484375 26.390625 
Q 29.78125 29.296875 31.59375 29.296875 
Q 33.890625 29.296875 33.890625 26.609375 
Q 33.890625 25.046875 33.21875 22.671875 
Q 32.5625 20.3125 31.75 18.265625 
Q 30.953125 16.21875 29.78125 13.625 
Q 30.953125 6.5 36.921875 6.5 
Q 40.375 6.5 43.859375 8.5 
Q 47.359375 10.5 50.046875 13.75 
Q 52.734375 17 54.265625 20.75 
Q 55.8125 24.515625 55.8125 27.875 
Q 55.8125 30.90625 54.859375 32.59375 
Q 53.90625 34.28125 52.34375 36.125 
Q 50.78125 37.984375 50.78125 39.109375 
Q 50.78125 41.0625 52.4375 42.671875 
Q 54.109375 44.28125 56 44.28125 
Q 58.453125 44.28125 59.46875 42.0625 
Q 60.5 39.84375 60.5 37.015625 
Q 60.5 32.421875 58.671875 25.4375 
Q 56.84375 18.453125 54.5 13.8125 
Q 51.265625 7.515625 46.40625 3.1875 
Q 41.546875 -1.125 35.5 -1.125 
Q 31.640625 -1.125 29.265625 1.1875 
Q 26.90625 3.515625 26.21875 7.515625 
Q 23.4375 3.5625 19.875 1.21875 
Q 16.3125 -1.125 12.109375 -1.125 
z
" id="Cmmi10-33"/>
      <path d="M 5.609375 -23 
Q 5.609375 -22.703125 5.71875 -22.609375 
L 40.484375 73.78125 
Q 40.671875 74.359375 41.15625 74.671875 
Q 41.65625 75 42.28125 75 
Q 43.171875 75 43.71875 74.453125 
Q 44.28125 73.921875 44.28125 73 
L 44.28125 72.609375 
L 9.515625 -23.78125 
Q 8.9375 -25 7.625 -25 
Q 6.78125 -25 6.1875 -24.40625 
Q 5.609375 -23.828125 5.609375 -23 
z
" id="Cmmi10-61"/>
      <path d="M 4.984375 0 
L 4.984375 2.6875 
Q 4.984375 2.9375 5.171875 3.21875 
L 20.703125 20.40625 
Q 24.21875 24.21875 26.40625 26.796875 
Q 28.609375 29.390625 30.75 32.765625 
Q 32.90625 36.140625 34.15625 39.625 
Q 35.40625 43.109375 35.40625 47.015625 
Q 35.40625 51.125 33.890625 54.859375 
Q 32.375 58.59375 29.375 60.84375 
Q 26.375 63.09375 22.125 63.09375 
Q 17.78125 63.09375 14.3125 60.46875 
Q 10.84375 57.859375 9.421875 53.71875 
Q 9.8125 53.8125 10.5 53.8125 
Q 12.75 53.8125 14.328125 52.296875 
Q 15.921875 50.78125 15.921875 48.390625 
Q 15.921875 46.09375 14.328125 44.5 
Q 12.75 42.921875 10.5 42.921875 
Q 8.15625 42.921875 6.5625 44.546875 
Q 4.984375 46.1875 4.984375 48.390625 
Q 4.984375 52.15625 6.390625 55.4375 
Q 7.8125 58.734375 10.46875 61.296875 
Q 13.140625 63.875 16.484375 65.234375 
Q 19.828125 66.609375 23.578125 66.609375 
Q 29.296875 66.609375 34.21875 64.1875 
Q 39.15625 61.765625 42.03125 57.34375 
Q 44.921875 52.9375 44.921875 47.015625 
Q 44.921875 42.671875 43.015625 38.765625 
Q 41.109375 34.859375 38.125 31.65625 
Q 35.15625 28.46875 30.515625 24.40625 
Q 25.875 20.359375 24.421875 19 
L 13.09375 8.109375 
L 22.703125 8.109375 
Q 29.78125 8.109375 34.546875 8.21875 
Q 39.3125 8.34375 39.59375 8.59375 
Q 40.765625 9.859375 42 17.828125 
L 44.921875 17.828125 
L 42.09375 0 
z
" id="Cmr10-50"/>
      <path d="M 10.109375 1.703125 
Q 10.109375 2.25 10.5 3.328125 
Q 13.28125 9.125 15.6875 14.71875 
Q 18.109375 20.3125 20.03125 25.609375 
Q 21.96875 30.90625 23.578125 36.921875 
L 17.1875 36.921875 
Q 13.53125 36.921875 10.34375 34.625 
Q 7.171875 32.328125 5.078125 28.8125 
Q 4.890625 28.421875 4.5 28.421875 
L 3.328125 28.421875 
Q 2.390625 28.421875 2.390625 29.390625 
Q 2.390625 29.59375 2.59375 29.984375 
Q 5.859375 35.546875 9.59375 39.328125 
Q 13.328125 43.109375 18.015625 43.109375 
L 54.296875 43.109375 
Q 55.328125 43.109375 56.046875 42.421875 
Q 56.78125 41.75 56.78125 40.578125 
Q 56.78125 39.109375 55.734375 38.015625 
Q 54.6875 36.921875 53.21875 36.921875 
L 40.484375 36.921875 
Q 38.875 29.046875 38.71875 21.578125 
Q 38.71875 11.96875 42.09375 4.203125 
Q 42.390625 3.609375 42.390625 2.984375 
Q 42.390625 1.90625 41.75 0.96875 
Q 41.109375 0.046875 40.109375 -0.53125 
Q 39.109375 -1.125 37.984375 -1.125 
Q 35.359375 -1.125 34.375 3.171875 
Q 33.40625 7.46875 33.40625 11.53125 
Q 33.40625 17.234375 34.375 22.53125 
Q 35.359375 27.828125 37.5 36.921875 
L 26.609375 36.921875 
Q 18.703125 4.890625 17.09375 1.609375 
Q 15.671875 -1.125 13.1875 -1.125 
Q 11.96875 -1.125 11.03125 -0.3125 
Q 10.109375 0.484375 10.109375 1.703125 
z
" id="Cmmi10-188"/>
      <path id="DejaVuSans-32"/>
      <path d="M 31 75.875 
Q 24.46875 64.65625 21.28125 53.65625 
Q 18.109375 42.671875 18.109375 31.390625 
Q 18.109375 20.125 21.3125 9.0625 
Q 24.515625 -2 31 -13.1875 
L 23.1875 -13.1875 
Q 15.875 -1.703125 12.234375 9.375 
Q 8.59375 20.453125 8.59375 31.390625 
Q 8.59375 42.28125 12.203125 53.3125 
Q 15.828125 64.359375 23.1875 75.875 
z
" id="DejaVuSans-40"/>
      <path d="M 59.515625 10.40625 
L 59.515625 29.984375 
L 43.40625 29.984375 
L 43.40625 38.09375 
L 69.28125 38.09375 
L 69.28125 6.78125 
Q 63.578125 2.734375 56.6875 0.65625 
Q 49.8125 -1.421875 42 -1.421875 
Q 24.90625 -1.421875 15.25 8.5625 
Q 5.609375 18.5625 5.609375 36.375 
Q 5.609375 54.25 15.25 64.234375 
Q 24.90625 74.21875 42 74.21875 
Q 49.125 74.21875 55.546875 72.453125 
Q 61.96875 70.703125 67.390625 67.28125 
L 67.390625 56.78125 
Q 61.921875 61.421875 55.765625 63.765625 
Q 49.609375 66.109375 42.828125 66.109375 
Q 29.4375 66.109375 22.71875 58.640625 
Q 16.015625 51.171875 16.015625 36.375 
Q 16.015625 21.625 22.71875 14.15625 
Q 29.4375 6.6875 42.828125 6.6875 
Q 48.046875 6.6875 52.140625 7.59375 
Q 56.25 8.5 59.515625 10.40625 
z
" id="DejaVuSans-71"/>
      <path d="M 9.8125 72.90625 
L 19.671875 72.90625 
L 19.671875 43.015625 
L 55.515625 43.015625 
L 55.515625 72.90625 
L 65.375 72.90625 
L 65.375 0 
L 55.515625 0 
L 55.515625 34.71875 
L 19.671875 34.71875 
L 19.671875 0 
L 9.8125 0 
z
" id="DejaVuSans-72"/>
      <path d="M 5.515625 54.6875 
L 48.1875 54.6875 
L 48.1875 46.484375 
L 14.40625 7.171875 
L 48.1875 7.171875 
L 48.1875 0 
L 4.296875 0 
L 4.296875 8.203125 
L 38.09375 47.515625 
L 5.515625 47.515625 
z
" id="DejaVuSans-122"/>
      <path d="M 8.015625 75.875 
L 15.828125 75.875 
Q 23.140625 64.359375 26.78125 53.3125 
Q 30.421875 42.28125 30.421875 31.390625 
Q 30.421875 20.453125 26.78125 9.375 
Q 23.140625 -1.703125 15.828125 -13.1875 
L 8.015625 -13.1875 
Q 14.5 -2 17.703125 9.0625 
Q 20.90625 20.125 20.90625 31.390625 
Q 20.90625 42.671875 17.703125 53.65625 
Q 14.5 64.65625 8.015625 75.875 
z
" id="DejaVuSans-41"/>
     </defs>
     <g transform="translate(27.717843 202.19182)rotate(-90)scale(0.2 -0.2)">
      <use transform="translate(0 0.125)" xlink:href="#Cmmi10-33"/>
      <use transform="translate(62.207031 0.125)" xlink:href="#Cmmi10-61"/>
      <use transform="translate(112.207031 0.125)" xlink:href="#Cmr10-50"/>
      <use transform="translate(162.207031 0.125)" xlink:href="#Cmmi10-188"/>
      <use transform="translate(219.189453 0.125)" xlink:href="#DejaVuSans-32"/>
      <use transform="translate(250.976562 0.125)" xlink:href="#DejaVuSans-40"/>
      <use transform="translate(289.990234 0.125)" xlink:href="#DejaVuSans-71"/>
      <use transform="translate(367.480469 0.125)" xlink:href="#DejaVuSans-72"/>
      <use transform="translate(442.675781 0.125)" xlink:href="#DejaVuSans-122"/>
      <use transform="translate(495.166016 0.125)" xlink:href="#DejaVuSans-41"/>
     </g>
    </g>
   </g>
   <g id="line2d_25">
    <path clip-path="url(#pb89d496edb)" d="M 65.325232 -1 
L 81.704879 308.778809 
L 82.706598 327.185571 
L 83.708317 334.885393 
L 85.711756 298.860573 
L 89.718632 224.065173 
L 90.720351 218.487352 
L 97.732385 213.153955 
L 104.744418 208.085359 
L 111.756452 203.2816 
L 118.768485 198.737943 
L 125.780519 194.449843 
L 132.792553 190.413252 
L 139.804586 186.624535 
L 146.81662 183.080384 
L 153.828654 179.777757 
L 160.840687 176.713848 
L 167.852721 173.886059 
L 174.864754 171.292 
L 181.876788 168.929475 
L 188.888822 166.796484 
L 195.900855 164.891218 
L 202.912889 163.212061 
L 209.924923 161.757587 
L 216.936956 160.52656 
L 223.94899 159.517934 
L 230.961023 158.730853 
L 237.973057 158.164647 
L 244.985091 157.818835 
L 251.997124 157.693123 
L 259.009158 157.787405 
L 266.021192 158.10176 
L 273.033225 158.636456 
L 280.045259 159.391948 
L 287.057292 160.368876 
L 294.069326 161.568072 
L 301.08136 162.990554 
L 308.093393 164.637531 
L 315.105427 166.510401 
L 322.117461 168.610754 
L 329.129494 170.94037 
L 336.141528 173.501223 
L 343.153561 176.295479 
L 350.165595 179.325504 
L 357.177629 182.593861 
L 364.189662 186.103328 
L 371.201696 189.856911 
L 378.21373 193.857878 
L 385.225763 198.109811 
L 392.237797 202.616693 
L 399.24983 207.382999 
L 406.261864 212.41351 
L 413.273898 217.709974 
L 414.275617 218.487352 
L 415.277336 224.065173 
L 421.28765 334.885393 
L 422.28937 327.185571 
L 427.297965 233.484808 
L 433 125.66084 
L 433 125.66084 
" style="fill:none;stroke:#004ba8;stroke-linecap:square;stroke-width:1.8;"/>
   </g>
   <g id="line2d_26">
    <path clip-path="url(#pb89d496edb)" d="M 2.569071 333.229288 
L 20.600015 334.366615 
L 39.632677 335.786026 
L 52.655026 336.872583 
L 53.656745 338.687793 
L 54.658464 327.580596 
L 58.66534 258.983679 
L 59.667059 246.704649 
L 62.672216 243.416814 
L 66.679093 239.377329 
L 71.687688 234.651823 
L 77.698003 229.314828 
L 81.704879 226.007709 
L 82.706598 225.386334 
L 83.708317 230.116462 
L 87.715194 301.121909 
L 89.718632 336.944352 
L 90.720351 328.643567 
L 101.739261 133.513932 
L 103.742699 100.042397 
L 104.744418 87.637412 
L 105.746137 83.010642 
L 106.747856 81.486994 
L 107.749575 80.659657 
L 109.753014 79.561579 
L 112.758171 78.310942 
L 117.766766 76.515225 
L 125.780519 73.904154 
L 135.79771 70.891847 
L 145.814901 68.109305 
L 155.832092 65.549574 
L 165.849283 63.216586 
L 175.866474 61.117048 
L 185.883664 59.258062 
L 195.900855 57.646253 
L 204.916327 56.41178 
L 213.931799 55.385821 
L 222.947271 54.57132 
L 231.962743 53.970586 
L 240.978214 53.585304 
L 249.993686 53.416545 
L 259.009158 53.464774 
L 268.02463 53.729859 
L 277.040102 54.211066 
L 286.055573 54.907052 
L 295.071045 55.815857 
L 304.086517 56.93489 
L 313.101989 58.260923 
L 323.11918 59.97235 
L 333.136371 61.92839 
L 343.153561 64.122167 
L 353.170752 66.546582 
L 363.187943 69.195599 
L 373.205134 72.067987 
L 383.222325 75.182185 
L 390.234359 77.567635 
L 394.241235 79.116258 
L 396.244673 80.060311 
L 397.246392 80.659657 
L 398.248111 81.486994 
L 399.24983 83.010642 
L 400.25155 87.637412 
L 401.253269 100.042397 
L 403.256707 133.513932 
L 411.27046 275.061167 
L 414.275617 328.643567 
L 415.277336 336.944352 
L 421.28765 230.116462 
L 422.28937 225.386334 
L 423.291089 226.007709 
L 426.296246 228.459224 
L 431.304841 232.835729 
L 433 234.370908 
L 433 234.370908 
" style="fill:none;stroke:#990000;stroke-linecap:square;stroke-width:1.8;"/>
   </g>
   <g id="line2d_27">
    <path clip-path="url(#pb89d496edb)" d="M 62.816674 -1 
L 79.701441 319.658418 
L 80.70316 336.354482 
L 81.704879 324.822465 
L 86.713475 231.12368 
L 87.715194 215.730946 
L 94.727227 210.477785 
L 101.739261 205.476703 
L 108.751295 200.727328 
L 115.763328 196.227049 
L 122.775362 191.972981 
L 129.787395 187.962408 
L 136.799429 184.192777 
L 143.811463 180.661655 
L 150.823496 177.366709 
L 157.83553 174.305702 
L 164.847564 171.476494 
L 171.859597 168.877047 
L 178.871631 166.505437 
L 185.883664 164.359859 
L 192.895698 162.438632 
L 199.907732 160.740207 
L 206.919765 159.26317 
L 213.931799 158.00624 
L 220.943833 156.968276 
L 227.955866 156.14827 
L 234.9679 155.545351 
L 241.979933 155.158776 
L 248.991967 154.987932 
L 256.004001 155.032326 
L 263.016034 155.291582 
L 270.028068 155.76543 
L 277.040102 156.453699 
L 284.052135 157.356304 
L 291.064169 158.473232 
L 298.076202 159.804527 
L 305.088236 161.350265 
L 312.10027 163.110533 
L 319.112303 165.085398 
L 326.124337 167.274868 
L 333.136371 169.67885 
L 340.148404 172.297091 
L 347.160438 175.12912 
L 354.172471 178.174159 
L 362.186224 181.91351 
L 370.199977 185.926959 
L 378.21373 190.210812 
L 386.227482 194.759955 
L 394.241235 199.567466 
L 402.254988 204.623771 
L 410.26874 209.920171 
L 411.27046 224.293163 
L 417.280774 335.17818 
L 418.282493 326.632368 
L 423.291089 232.740955 
L 433 48.64753 
L 433 48.64753 
" style="fill:none;stroke:#0072b2;stroke-dasharray:1.8,2.97;stroke-dashoffset:0;stroke-width:1.8;"/>
   </g>
   <g id="line2d_28">
    <path clip-path="url(#pb89d496edb)" d="M 2.569071 332.504975 
L 35.625801 333.693165 
L 47.64643 333.878618 
L 50.651587 333.877809 
L 51.653306 338.279908 
L 56.661902 252.44535 
L 57.663621 242.2663 
L 60.668778 239.121805 
L 64.675655 235.238975 
L 69.68425 230.677983 
L 75.694565 225.511471 
L 78.699722 223.086384 
L 79.701441 222.381017 
L 80.70316 222.680205 
L 81.704879 237.090818 
L 86.713475 327.109991 
L 87.715194 338.350261 
L 99.735823 124.409412 
L 100.737542 107.517264 
L 101.739261 92.784515 
L 102.74098 85.265616 
L 103.742699 83.034797 
L 104.744418 82.019252 
L 105.746137 81.342281 
L 107.749575 80.326263 
L 110.754733 79.086911 
L 116.765047 76.916446 
L 124.7788 74.274868 
L 134.795991 71.223012 
L 144.813182 68.411523 
L 154.830373 65.835043 
L 164.847564 63.497252 
L 174.864754 61.404289 
L 183.880226 59.735356 
L 192.895698 58.274538 
L 201.91117 57.025888 
L 210.926642 55.992928 
L 219.942113 55.178624 
L 228.957585 54.585388 
L 237.973057 54.215089 
L 246.988529 54.06907 
L 256.004001 54.148167 
L 265.019472 54.452725 
L 274.034944 54.982615 
L 283.050416 55.737245 
L 292.065888 56.715584 
L 301.08136 57.916184 
L 310.096832 59.337221 
L 319.112303 60.97656 
L 328.127775 62.83188 
L 337.143247 64.900885 
L 346.158719 67.181715 
L 355.174191 69.673759 
L 364.189662 72.379496 
L 373.205134 75.30967 
L 381.218887 78.133553 
L 387.229201 80.45961 
L 390.234359 81.778081 
L 392.237797 82.83479 
L 393.239516 83.513116 
L 394.241235 84.474809 
L 395.242954 86.377247 
L 396.244673 92.526313 
L 397.246392 106.408734 
L 400.25155 158.169394 
L 410.26874 337.374017 
L 411.27046 328.026206 
L 417.280774 220.333726 
L 418.282493 215.880348 
L 419.284212 216.37636 
L 422.28937 218.424839 
L 429.301403 223.56859 
L 433 226.406735 
L 433 226.406735 
" style="fill:none;stroke:#cc79a7;stroke-dasharray:1.8,2.97;stroke-dashoffset:0;stroke-width:1.8;"/>
   </g>
   <g id="patch_3">
    <path d="M 83.795968 286.58364 
L 83.795968 10.8 
" style="fill:none;stroke:#8787ff;stroke-linecap:square;stroke-linejoin:miter;stroke-width:0.8;"/>
   </g>
   <g id="patch_4">
    <path d="M 421.2 286.58364 
L 421.2 10.8 
" style="fill:none;stroke:#8787ff;stroke-linecap:square;stroke-linejoin:miter;stroke-width:0.8;"/>
   </g>
   <g id="patch_5">
    <path d="M 83.795968 286.58364 
L 421.2 286.58364 
" style="fill:none;stroke:#8787ff;stroke-linecap:square;stroke-linejoin:miter;stroke-width:0.8;"/>
   </g>
   <g id="patch_6">
    <path d="M 83.795968 10.8 
L 421.2 10.8 
" style="fill:none;stroke:#8787ff;stroke-linecap:square;stroke-linejoin:miter;stroke-width:0.8;"/>
   </g>
  </g>
  <g id="axes_2">
   <g id="patch_7">
    <path d="M 83.795968 586.522581 
L 421.2 586.522581 
L 421.2 310.738941 
L 83.795968 310.738941 
z
" style="fill:none;"/>
   </g>
   <g id="matplotlib.axis_3">
    <g id="xtick_6">
     <g id="line2d_29">
      <path clip-path="url(#p57b41709f6)" d="M 127.533527 586.522581 
L 127.533527 310.738941 
" style="fill:none;stroke:#b2b2b2;stroke-dasharray:2.96,1.28;stroke-dashoffset:0;stroke-opacity:0.3;stroke-width:0.8;"/>
     </g>
     <g id="line2d_30">
      <g>
       <use style="stroke:#000000;stroke-width:0.8;" x="127.533527" xlink:href="#me2d52e31d7" y="586.522581"/>
      </g>
     </g>
     <g id="text_9">
      <!-- 0.40 -->
      <defs>
       <path d="M 37.796875 64.3125 
L 12.890625 25.390625 
L 37.796875 25.390625 
z
M 35.203125 72.90625 
L 47.609375 72.90625 
L 47.609375 25.390625 
L 58.015625 25.390625 
L 58.015625 17.1875 
L 47.609375 17.1875 
L 47.609375 0 
L 37.796875 0 
L 37.796875 17.1875 
L 4.890625 17.1875 
L 4.890625 26.703125 
z
" id="DejaVuSans-52"/>
      </defs>
      <g transform="translate(107.494465 607.199768)scale(0.18 -0.18)">
       <use xlink:href="#DejaVuSans-48"/>
       <use x="63.623047" xlink:href="#DejaVuSans-46"/>
       <use x="95.410156" xlink:href="#DejaVuSans-52"/>
       <use x="159.033203" xlink:href="#DejaVuSans-48"/>
      </g>
     </g>
    </g>
    <g id="xtick_7">
     <g id="line2d_31">
      <path clip-path="url(#p57b41709f6)" d="M 190.015756 586.522581 
L 190.015756 310.738941 
" style="fill:none;stroke:#b2b2b2;stroke-dasharray:2.96,1.28;stroke-dashoffset:0;stroke-opacity:0.3;stroke-width:0.8;"/>
     </g>
     <g id="line2d_32">
      <g>
       <use style="stroke:#000000;stroke-width:0.8;" x="190.015756" xlink:href="#me2d52e31d7" y="586.522581"/>
      </g>
     </g>
     <g id="text_10">
      <!-- 0.45 -->
      <g transform="translate(169.976693 607.199768)scale(0.18 -0.18)">
       <use xlink:href="#DejaVuSans-48"/>
       <use x="63.623047" xlink:href="#DejaVuSans-46"/>
       <use x="95.410156" xlink:href="#DejaVuSans-52"/>
       <use x="159.033203" xlink:href="#DejaVuSans-53"/>
      </g>
     </g>
    </g>
    <g id="xtick_8">
     <g id="line2d_33">
      <path clip-path="url(#p57b41709f6)" d="M 252.497984 586.522581 
L 252.497984 310.738941 
" style="fill:none;stroke:#b2b2b2;stroke-dasharray:2.96,1.28;stroke-dashoffset:0;stroke-opacity:0.3;stroke-width:0.8;"/>
     </g>
     <g id="line2d_34">
      <g>
       <use style="stroke:#000000;stroke-width:0.8;" x="252.497984" xlink:href="#me2d52e31d7" y="586.522581"/>
      </g>
     </g>
     <g id="text_11">
      <!-- 0.50 -->
      <g transform="translate(232.458921 607.199768)scale(0.18 -0.18)">
       <use xlink:href="#DejaVuSans-48"/>
       <use x="63.623047" xlink:href="#DejaVuSans-46"/>
       <use x="95.410156" xlink:href="#DejaVuSans-53"/>
       <use x="159.033203" xlink:href="#DejaVuSans-48"/>
      </g>
     </g>
    </g>
    <g id="xtick_9">
     <g id="line2d_35">
      <path clip-path="url(#p57b41709f6)" d="M 314.980212 586.522581 
L 314.980212 310.738941 
" style="fill:none;stroke:#b2b2b2;stroke-dasharray:2.96,1.28;stroke-dashoffset:0;stroke-opacity:0.3;stroke-width:0.8;"/>
     </g>
     <g id="line2d_36">
      <g>
       <use style="stroke:#000000;stroke-width:0.8;" x="314.980212" xlink:href="#me2d52e31d7" y="586.522581"/>
      </g>
     </g>
     <g id="text_12">
      <!-- 0.55 -->
      <g transform="translate(294.94115 607.199768)scale(0.18 -0.18)">
       <use xlink:href="#DejaVuSans-48"/>
       <use x="63.623047" xlink:href="#DejaVuSans-46"/>
       <use x="95.410156" xlink:href="#DejaVuSans-53"/>
       <use x="159.033203" xlink:href="#DejaVuSans-53"/>
      </g>
     </g>
    </g>
    <g id="xtick_10">
     <g id="line2d_37">
      <path clip-path="url(#p57b41709f6)" d="M 377.46244 586.522581 
L 377.46244 310.738941 
" style="fill:none;stroke:#b2b2b2;stroke-dasharray:2.96,1.28;stroke-dashoffset:0;stroke-opacity:0.3;stroke-width:0.8;"/>
     </g>
     <g id="line2d_38">
      <g>
       <use style="stroke:#000000;stroke-width:0.8;" x="377.46244" xlink:href="#me2d52e31d7" y="586.522581"/>
      </g>
     </g>
     <g id="text_13">
      <!-- 0.60 -->
      <defs>
       <path d="M 33.015625 40.375 
Q 26.375 40.375 22.484375 35.828125 
Q 18.609375 31.296875 18.609375 23.390625 
Q 18.609375 15.53125 22.484375 10.953125 
Q 26.375 6.390625 33.015625 6.390625 
Q 39.65625 6.390625 43.53125 10.953125 
Q 47.40625 15.53125 47.40625 23.390625 
Q 47.40625 31.296875 43.53125 35.828125 
Q 39.65625 40.375 33.015625 40.375 
z
M 52.59375 71.296875 
L 52.59375 62.3125 
Q 48.875 64.0625 45.09375 64.984375 
Q 41.3125 65.921875 37.59375 65.921875 
Q 27.828125 65.921875 22.671875 59.328125 
Q 17.53125 52.734375 16.796875 39.40625 
Q 19.671875 43.65625 24.015625 45.921875 
Q 28.375 48.1875 33.59375 48.1875 
Q 44.578125 48.1875 50.953125 41.515625 
Q 57.328125 34.859375 57.328125 23.390625 
Q 57.328125 12.15625 50.6875 5.359375 
Q 44.046875 -1.421875 33.015625 -1.421875 
Q 20.359375 -1.421875 13.671875 8.265625 
Q 6.984375 17.96875 6.984375 36.375 
Q 6.984375 53.65625 15.1875 63.9375 
Q 23.390625 74.21875 37.203125 74.21875 
Q 40.921875 74.21875 44.703125 73.484375 
Q 48.484375 72.75 52.59375 71.296875 
z
" id="DejaVuSans-54"/>
      </defs>
      <g transform="translate(357.423378 607.199768)scale(0.18 -0.18)">
       <use xlink:href="#DejaVuSans-48"/>
       <use x="63.623047" xlink:href="#DejaVuSans-46"/>
       <use x="95.410156" xlink:href="#DejaVuSans-54"/>
       <use x="159.033203" xlink:href="#DejaVuSans-48"/>
      </g>
     </g>
    </g>
    <g id="text_14">
     <!-- Normalised Magnetic Flux ($\Phi/\Phi_0$) -->
     <defs>
      <path d="M 9.8125 72.90625 
L 23.09375 72.90625 
L 55.421875 11.921875 
L 55.421875 72.90625 
L 64.984375 72.90625 
L 64.984375 0 
L 51.703125 0 
L 19.390625 60.984375 
L 19.390625 0 
L 9.8125 0 
z
" id="DejaVuSans-78"/>
      <path d="M 30.609375 48.390625 
Q 23.390625 48.390625 19.1875 42.75 
Q 14.984375 37.109375 14.984375 27.296875 
Q 14.984375 17.484375 19.15625 11.84375 
Q 23.34375 6.203125 30.609375 6.203125 
Q 37.796875 6.203125 41.984375 11.859375 
Q 46.1875 17.53125 46.1875 27.296875 
Q 46.1875 37.015625 41.984375 42.703125 
Q 37.796875 48.390625 30.609375 48.390625 
z
M 30.609375 56 
Q 42.328125 56 49.015625 48.375 
Q 55.71875 40.765625 55.71875 27.296875 
Q 55.71875 13.875 49.015625 6.21875 
Q 42.328125 -1.421875 30.609375 -1.421875 
Q 18.84375 -1.421875 12.171875 6.21875 
Q 5.515625 13.875 5.515625 27.296875 
Q 5.515625 40.765625 12.171875 48.375 
Q 18.84375 56 30.609375 56 
z
" id="DejaVuSans-111"/>
      <path d="M 41.109375 46.296875 
Q 39.59375 47.171875 37.8125 47.578125 
Q 36.03125 48 33.890625 48 
Q 26.265625 48 22.1875 43.046875 
Q 18.109375 38.09375 18.109375 28.8125 
L 18.109375 0 
L 9.078125 0 
L 9.078125 54.6875 
L 18.109375 54.6875 
L 18.109375 46.1875 
Q 20.953125 51.171875 25.484375 53.578125 
Q 30.03125 56 36.53125 56 
Q 37.453125 56 38.578125 55.875 
Q 39.703125 55.765625 41.0625 55.515625 
z
" id="DejaVuSans-114"/>
      <path d="M 52 44.1875 
Q 55.375 50.25 60.0625 53.125 
Q 64.75 56 71.09375 56 
Q 79.640625 56 84.28125 50.015625 
Q 88.921875 44.046875 88.921875 33.015625 
L 88.921875 0 
L 79.890625 0 
L 79.890625 32.71875 
Q 79.890625 40.578125 77.09375 44.375 
Q 74.3125 48.1875 68.609375 48.1875 
Q 61.625 48.1875 57.5625 43.546875 
Q 53.515625 38.921875 53.515625 30.90625 
L 53.515625 0 
L 44.484375 0 
L 44.484375 32.71875 
Q 44.484375 40.625 41.703125 44.40625 
Q 38.921875 48.1875 33.109375 48.1875 
Q 26.21875 48.1875 22.15625 43.53125 
Q 18.109375 38.875 18.109375 30.90625 
L 18.109375 0 
L 9.078125 0 
L 9.078125 54.6875 
L 18.109375 54.6875 
L 18.109375 46.1875 
Q 21.1875 51.21875 25.484375 53.609375 
Q 29.78125 56 35.6875 56 
Q 41.65625 56 45.828125 52.96875 
Q 50 49.953125 52 44.1875 
z
" id="DejaVuSans-109"/>
      <path d="M 34.28125 27.484375 
Q 23.390625 27.484375 19.1875 25 
Q 14.984375 22.515625 14.984375 16.5 
Q 14.984375 11.71875 18.140625 8.90625 
Q 21.296875 6.109375 26.703125 6.109375 
Q 34.1875 6.109375 38.703125 11.40625 
Q 43.21875 16.703125 43.21875 25.484375 
L 43.21875 27.484375 
z
M 52.203125 31.203125 
L 52.203125 0 
L 43.21875 0 
L 43.21875 8.296875 
Q 40.140625 3.328125 35.546875 0.953125 
Q 30.953125 -1.421875 24.3125 -1.421875 
Q 15.921875 -1.421875 10.953125 3.296875 
Q 6 8.015625 6 15.921875 
Q 6 25.140625 12.171875 29.828125 
Q 18.359375 34.515625 30.609375 34.515625 
L 43.21875 34.515625 
L 43.21875 35.40625 
Q 43.21875 41.609375 39.140625 45 
Q 35.0625 48.390625 27.6875 48.390625 
Q 23 48.390625 18.546875 47.265625 
Q 14.109375 46.140625 10.015625 43.890625 
L 10.015625 52.203125 
Q 14.9375 54.109375 19.578125 55.046875 
Q 24.21875 56 28.609375 56 
Q 40.484375 56 46.34375 49.84375 
Q 52.203125 43.703125 52.203125 31.203125 
z
" id="DejaVuSans-97"/>
      <path d="M 9.421875 75.984375 
L 18.40625 75.984375 
L 18.40625 0 
L 9.421875 0 
z
" id="DejaVuSans-108"/>
      <path d="M 9.421875 54.6875 
L 18.40625 54.6875 
L 18.40625 0 
L 9.421875 0 
z
M 9.421875 75.984375 
L 18.40625 75.984375 
L 18.40625 64.59375 
L 9.421875 64.59375 
z
" id="DejaVuSans-105"/>
      <path d="M 44.28125 53.078125 
L 44.28125 44.578125 
Q 40.484375 46.53125 36.375 47.5 
Q 32.28125 48.484375 27.875 48.484375 
Q 21.1875 48.484375 17.84375 46.4375 
Q 14.5 44.390625 14.5 40.28125 
Q 14.5 37.15625 16.890625 35.375 
Q 19.28125 33.59375 26.515625 31.984375 
L 29.59375 31.296875 
Q 39.15625 29.25 43.1875 25.515625 
Q 47.21875 21.78125 47.21875 15.09375 
Q 47.21875 7.46875 41.1875 3.015625 
Q 35.15625 -1.421875 24.609375 -1.421875 
Q 20.21875 -1.421875 15.453125 -0.5625 
Q 10.6875 0.296875 5.421875 2 
L 5.421875 11.28125 
Q 10.40625 8.6875 15.234375 7.390625 
Q 20.0625 6.109375 24.8125 6.109375 
Q 31.15625 6.109375 34.5625 8.28125 
Q 37.984375 10.453125 37.984375 14.40625 
Q 37.984375 18.0625 35.515625 20.015625 
Q 33.0625 21.96875 24.703125 23.78125 
L 21.578125 24.515625 
Q 13.234375 26.265625 9.515625 29.90625 
Q 5.8125 33.546875 5.8125 39.890625 
Q 5.8125 47.609375 11.28125 51.796875 
Q 16.75 56 26.8125 56 
Q 31.78125 56 36.171875 55.265625 
Q 40.578125 54.546875 44.28125 53.078125 
z
" id="DejaVuSans-115"/>
      <path d="M 56.203125 29.59375 
L 56.203125 25.203125 
L 14.890625 25.203125 
Q 15.484375 15.921875 20.484375 11.0625 
Q 25.484375 6.203125 34.421875 6.203125 
Q 39.59375 6.203125 44.453125 7.46875 
Q 49.3125 8.734375 54.109375 11.28125 
L 54.109375 2.78125 
Q 49.265625 0.734375 44.1875 -0.34375 
Q 39.109375 -1.421875 33.890625 -1.421875 
Q 20.796875 -1.421875 13.15625 6.1875 
Q 5.515625 13.8125 5.515625 26.8125 
Q 5.515625 40.234375 12.765625 48.109375 
Q 20.015625 56 32.328125 56 
Q 43.359375 56 49.78125 48.890625 
Q 56.203125 41.796875 56.203125 29.59375 
z
M 47.21875 32.234375 
Q 47.125 39.59375 43.09375 43.984375 
Q 39.0625 48.390625 32.421875 48.390625 
Q 24.90625 48.390625 20.390625 44.140625 
Q 15.875 39.890625 15.1875 32.171875 
z
" id="DejaVuSans-101"/>
      <path d="M 45.40625 46.390625 
L 45.40625 75.984375 
L 54.390625 75.984375 
L 54.390625 0 
L 45.40625 0 
L 45.40625 8.203125 
Q 42.578125 3.328125 38.25 0.953125 
Q 33.9375 -1.421875 27.875 -1.421875 
Q 17.96875 -1.421875 11.734375 6.484375 
Q 5.515625 14.40625 5.515625 27.296875 
Q 5.515625 40.1875 11.734375 48.09375 
Q 17.96875 56 27.875 56 
Q 33.9375 56 38.25 53.625 
Q 42.578125 51.265625 45.40625 46.390625 
z
M 14.796875 27.296875 
Q 14.796875 17.390625 18.875 11.75 
Q 22.953125 6.109375 30.078125 6.109375 
Q 37.203125 6.109375 41.296875 11.75 
Q 45.40625 17.390625 45.40625 27.296875 
Q 45.40625 37.203125 41.296875 42.84375 
Q 37.203125 48.484375 30.078125 48.484375 
Q 22.953125 48.484375 18.875 42.84375 
Q 14.796875 37.203125 14.796875 27.296875 
z
" id="DejaVuSans-100"/>
      <path d="M 9.8125 72.90625 
L 24.515625 72.90625 
L 43.109375 23.296875 
L 61.8125 72.90625 
L 76.515625 72.90625 
L 76.515625 0 
L 66.890625 0 
L 66.890625 64.015625 
L 48.09375 14.015625 
L 38.1875 14.015625 
L 19.390625 64.015625 
L 19.390625 0 
L 9.8125 0 
z
" id="DejaVuSans-77"/>
      <path d="M 45.40625 27.984375 
Q 45.40625 37.75 41.375 43.109375 
Q 37.359375 48.484375 30.078125 48.484375 
Q 22.859375 48.484375 18.828125 43.109375 
Q 14.796875 37.75 14.796875 27.984375 
Q 14.796875 18.265625 18.828125 12.890625 
Q 22.859375 7.515625 30.078125 7.515625 
Q 37.359375 7.515625 41.375 12.890625 
Q 45.40625 18.265625 45.40625 27.984375 
z
M 54.390625 6.78125 
Q 54.390625 -7.171875 48.1875 -13.984375 
Q 42 -20.796875 29.203125 -20.796875 
Q 24.46875 -20.796875 20.265625 -20.09375 
Q 16.0625 -19.390625 12.109375 -17.921875 
L 12.109375 -9.1875 
Q 16.0625 -11.328125 19.921875 -12.34375 
Q 23.78125 -13.375 27.78125 -13.375 
Q 36.625 -13.375 41.015625 -8.765625 
Q 45.40625 -4.15625 45.40625 5.171875 
L 45.40625 9.625 
Q 42.625 4.78125 38.28125 2.390625 
Q 33.9375 0 27.875 0 
Q 17.828125 0 11.671875 7.65625 
Q 5.515625 15.328125 5.515625 27.984375 
Q 5.515625 40.671875 11.671875 48.328125 
Q 17.828125 56 27.875 56 
Q 33.9375 56 38.28125 53.609375 
Q 42.625 51.21875 45.40625 46.390625 
L 45.40625 54.6875 
L 54.390625 54.6875 
z
" id="DejaVuSans-103"/>
      <path d="M 54.890625 33.015625 
L 54.890625 0 
L 45.90625 0 
L 45.90625 32.71875 
Q 45.90625 40.484375 42.875 44.328125 
Q 39.84375 48.1875 33.796875 48.1875 
Q 26.515625 48.1875 22.3125 43.546875 
Q 18.109375 38.921875 18.109375 30.90625 
L 18.109375 0 
L 9.078125 0 
L 9.078125 54.6875 
L 18.109375 54.6875 
L 18.109375 46.1875 
Q 21.34375 51.125 25.703125 53.5625 
Q 30.078125 56 35.796875 56 
Q 45.21875 56 50.046875 50.171875 
Q 54.890625 44.34375 54.890625 33.015625 
z
" id="DejaVuSans-110"/>
      <path d="M 18.3125 70.21875 
L 18.3125 54.6875 
L 36.8125 54.6875 
L 36.8125 47.703125 
L 18.3125 47.703125 
L 18.3125 18.015625 
Q 18.3125 11.328125 20.140625 9.421875 
Q 21.96875 7.515625 27.59375 7.515625 
L 36.8125 7.515625 
L 36.8125 0 
L 27.59375 0 
Q 17.1875 0 13.234375 3.875 
Q 9.28125 7.765625 9.28125 18.015625 
L 9.28125 47.703125 
L 2.6875 47.703125 
L 2.6875 54.6875 
L 9.28125 54.6875 
L 9.28125 70.21875 
z
" id="DejaVuSans-116"/>
      <path d="M 48.78125 52.59375 
L 48.78125 44.1875 
Q 44.96875 46.296875 41.140625 47.34375 
Q 37.3125 48.390625 33.40625 48.390625 
Q 24.65625 48.390625 19.8125 42.84375 
Q 14.984375 37.3125 14.984375 27.296875 
Q 14.984375 17.28125 19.8125 11.734375 
Q 24.65625 6.203125 33.40625 6.203125 
Q 37.3125 6.203125 41.140625 7.25 
Q 44.96875 8.296875 48.78125 10.40625 
L 48.78125 2.09375 
Q 45.015625 0.34375 40.984375 -0.53125 
Q 36.96875 -1.421875 32.421875 -1.421875 
Q 20.0625 -1.421875 12.78125 6.34375 
Q 5.515625 14.109375 5.515625 27.296875 
Q 5.515625 40.671875 12.859375 48.328125 
Q 20.21875 56 33.015625 56 
Q 37.15625 56 41.109375 55.140625 
Q 45.0625 54.296875 48.78125 52.59375 
z
" id="DejaVuSans-99"/>
      <path d="M 9.8125 72.90625 
L 51.703125 72.90625 
L 51.703125 64.59375 
L 19.671875 64.59375 
L 19.671875 43.109375 
L 48.578125 43.109375 
L 48.578125 34.8125 
L 19.671875 34.8125 
L 19.671875 0 
L 9.8125 0 
z
" id="DejaVuSans-70"/>
      <path d="M 8.5 21.578125 
L 8.5 54.6875 
L 17.484375 54.6875 
L 17.484375 21.921875 
Q 17.484375 14.15625 20.5 10.265625 
Q 23.53125 6.390625 29.59375 6.390625 
Q 36.859375 6.390625 41.078125 11.03125 
Q 45.3125 15.671875 45.3125 23.6875 
L 45.3125 54.6875 
L 54.296875 54.6875 
L 54.296875 0 
L 45.3125 0 
L 45.3125 8.40625 
Q 42.046875 3.421875 37.71875 1 
Q 33.40625 -1.421875 27.6875 -1.421875 
Q 18.265625 -1.421875 13.375 4.4375 
Q 8.5 10.296875 8.5 21.578125 
z
M 31.109375 56 
z
" id="DejaVuSans-117"/>
      <path d="M 54.890625 54.6875 
L 35.109375 28.078125 
L 55.90625 0 
L 45.3125 0 
L 29.390625 21.484375 
L 13.484375 0 
L 2.875 0 
L 24.125 28.609375 
L 4.6875 54.6875 
L 15.28125 54.6875 
L 29.78125 35.203125 
L 44.28125 54.6875 
z
" id="DejaVuSans-120"/>
      <path d="M 18.609375 0 
L 18.609375 3.515625 
Q 31.390625 3.515625 31.390625 6.6875 
L 31.390625 13.921875 
Q 21.78125 14.84375 14.5 19.671875 
Q 10.6875 22.265625 8.140625 26.078125 
Q 5.609375 29.890625 5.609375 34.1875 
Q 5.609375 38.421875 8.140625 42.25 
Q 10.6875 46.09375 14.5 48.578125 
Q 18.265625 51.125 22.4375 52.515625 
Q 26.609375 53.90625 31.390625 54.390625 
L 31.390625 61.625 
Q 31.390625 64.796875 18.609375 64.796875 
L 18.609375 68.3125 
L 52.875 68.3125 
L 52.875 64.796875 
Q 40.09375 64.796875 40.09375 61.625 
L 40.09375 54.390625 
Q 44.234375 54.390625 48.875 52.84375 
Q 53.515625 51.3125 57.46875 48.671875 
Q 61.421875 46.046875 63.953125 42.265625 
Q 66.5 38.484375 66.5 34.1875 
Q 66.5 29.890625 63.953125 26.125 
Q 61.421875 22.359375 57.34375 19.625 
Q 53.265625 16.890625 48.625 15.40625 
Q 44 13.921875 40.09375 13.921875 
L 40.09375 6.6875 
Q 40.09375 3.515625 52.875 3.515625 
L 52.875 0 
z
M 40.09375 16.5 
Q 48.140625 17.53125 52.125 21.890625 
Q 56.109375 26.265625 56.109375 34.1875 
Q 56.109375 42.140625 52.078125 46.484375 
Q 48.046875 50.828125 40.09375 51.8125 
z
M 31.390625 16.609375 
L 31.390625 51.703125 
Q 16.015625 49.5625 16.015625 34.1875 
Q 16.015625 18.75 31.390625 16.609375 
z
" id="Cmr10-169"/>
      <path d="M 25 -2.203125 
Q 12.75 -2.203125 8.328125 7.875 
Q 3.90625 17.96875 3.90625 31.890625 
Q 3.90625 40.578125 5.484375 48.234375 
Q 7.078125 55.90625 11.78125 61.25 
Q 16.5 66.609375 25 66.609375 
Q 31.59375 66.609375 35.78125 63.375 
Q 39.984375 60.15625 42.1875 55.046875 
Q 44.390625 49.953125 45.1875 44.109375 
Q 46 38.28125 46 31.890625 
Q 46 23.296875 44.40625 15.796875 
Q 42.828125 8.296875 38.1875 3.046875 
Q 33.546875 -2.203125 25 -2.203125 
z
M 25 0.390625 
Q 30.5625 0.390625 33.296875 6.09375 
Q 36.03125 11.8125 36.671875 18.75 
Q 37.3125 25.6875 37.3125 33.5 
Q 37.3125 41.015625 36.671875 47.359375 
Q 36.03125 53.71875 33.3125 58.859375 
Q 30.609375 64.015625 25 64.015625 
Q 19.34375 64.015625 16.609375 58.828125 
Q 13.875 53.65625 13.234375 47.328125 
Q 12.59375 41.015625 12.59375 33.5 
Q 12.59375 27.9375 12.859375 23 
Q 13.140625 18.0625 14.3125 12.8125 
Q 15.484375 7.5625 18.09375 3.96875 
Q 20.703125 0.390625 25 0.390625 
z
" id="Cmr10-48"/>
     </defs>
     <g transform="translate(87.697984 630.143206)scale(0.2 -0.2)">
      <use transform="translate(0 0.015625)" xlink:href="#DejaVuSans-78"/>
      <use transform="translate(74.804688 0.015625)" xlink:href="#DejaVuSans-111"/>
      <use transform="translate(135.986328 0.015625)" xlink:href="#DejaVuSans-114"/>
      <use transform="translate(177.099609 0.015625)" xlink:href="#DejaVuSans-109"/>
      <use transform="translate(274.511719 0.015625)" xlink:href="#DejaVuSans-97"/>
      <use transform="translate(335.791016 0.015625)" xlink:href="#DejaVuSans-108"/>
      <use transform="translate(363.574219 0.015625)" xlink:href="#DejaVuSans-105"/>
      <use transform="translate(391.357422 0.015625)" xlink:href="#DejaVuSans-115"/>
      <use transform="translate(443.457031 0.015625)" xlink:href="#DejaVuSans-101"/>
      <use transform="translate(504.980469 0.015625)" xlink:href="#DejaVuSans-100"/>
      <use transform="translate(568.457031 0.015625)" xlink:href="#DejaVuSans-32"/>
      <use transform="translate(600.244141 0.015625)" xlink:href="#DejaVuSans-77"/>
      <use transform="translate(686.523438 0.015625)" xlink:href="#DejaVuSans-97"/>
      <use transform="translate(747.802734 0.015625)" xlink:href="#DejaVuSans-103"/>
      <use transform="translate(811.279297 0.015625)" xlink:href="#DejaVuSans-110"/>
      <use transform="translate(874.658203 0.015625)" xlink:href="#DejaVuSans-101"/>
      <use transform="translate(936.181641 0.015625)" xlink:href="#DejaVuSans-116"/>
      <use transform="translate(975.390625 0.015625)" xlink:href="#DejaVuSans-105"/>
      <use transform="translate(1003.173828 0.015625)" xlink:href="#DejaVuSans-99"/>
      <use transform="translate(1058.154297 0.015625)" xlink:href="#DejaVuSans-32"/>
      <use transform="translate(1089.941406 0.015625)" xlink:href="#DejaVuSans-70"/>
      <use transform="translate(1147.460938 0.015625)" xlink:href="#DejaVuSans-108"/>
      <use transform="translate(1175.244141 0.015625)" xlink:href="#DejaVuSans-117"/>
      <use transform="translate(1238.623047 0.015625)" xlink:href="#DejaVuSans-120"/>
      <use transform="translate(1297.802734 0.015625)" xlink:href="#DejaVuSans-32"/>
      <use transform="translate(1329.589844 0.015625)" xlink:href="#DejaVuSans-40"/>
      <use transform="translate(1368.603516 0.015625)" xlink:href="#Cmr10-169"/>
      <use transform="translate(1440.820312 0.015625)" xlink:href="#Cmmi10-61"/>
      <use transform="translate(1490.820312 0.015625)" xlink:href="#Cmr10-169"/>
      <use transform="translate(1567.50125 -16.990625)scale(0.7)" xlink:href="#Cmr10-48"/>
      <use transform="translate(1608.878594 0.015625)" xlink:href="#DejaVuSans-41"/>
     </g>
    </g>
   </g>
   <g id="matplotlib.axis_4">
    <g id="ytick_8">
     <g id="line2d_39">
      <path clip-path="url(#p57b41709f6)" d="M 83.795968 573.986961 
L 421.2 573.986961 
" style="fill:none;stroke:#b2b2b2;stroke-dasharray:2.96,1.28;stroke-dashoffset:0;stroke-opacity:0.3;stroke-width:0.8;"/>
     </g>
     <g id="line2d_40">
      <g>
       <use style="stroke:#000000;stroke-width:0.8;" x="83.795968" xlink:href="#mf46f7cb136" y="573.986961"/>
      </g>
     </g>
     <g id="text_15">
      <!-- 0 -->
      <g transform="translate(65.343468 580.825554)scale(0.18 -0.18)">
       <use xlink:href="#DejaVuSans-48"/>
      </g>
     </g>
    </g>
    <g id="ytick_9">
     <g id="line2d_41">
      <path clip-path="url(#p57b41709f6)" d="M 83.795968 531.058565 
L 421.2 531.058565 
" style="fill:none;stroke:#b2b2b2;stroke-dasharray:2.96,1.28;stroke-dashoffset:0;stroke-opacity:0.3;stroke-width:0.8;"/>
     </g>
     <g id="line2d_42">
      <g>
       <use style="stroke:#000000;stroke-width:0.8;" x="83.795968" xlink:href="#mf46f7cb136" y="531.058565"/>
      </g>
     </g>
     <g id="text_16">
      <!-- 5 -->
      <g transform="translate(65.343468 537.897158)scale(0.18 -0.18)">
       <use xlink:href="#DejaVuSans-53"/>
      </g>
     </g>
    </g>
    <g id="ytick_10">
     <g id="line2d_43">
      <path clip-path="url(#p57b41709f6)" d="M 83.795968 488.130169 
L 421.2 488.130169 
" style="fill:none;stroke:#b2b2b2;stroke-dasharray:2.96,1.28;stroke-dashoffset:0;stroke-opacity:0.3;stroke-width:0.8;"/>
     </g>
     <g id="line2d_44">
      <g>
       <use style="stroke:#000000;stroke-width:0.8;" x="83.795968" xlink:href="#mf46f7cb136" y="488.130169"/>
      </g>
     </g>
     <g id="text_17">
      <!-- 10 -->
      <g transform="translate(53.890968 494.968762)scale(0.18 -0.18)">
       <use xlink:href="#DejaVuSans-49"/>
       <use x="63.623047" xlink:href="#DejaVuSans-48"/>
      </g>
     </g>
    </g>
    <g id="ytick_11">
     <g id="line2d_45">
      <path clip-path="url(#p57b41709f6)" d="M 83.795968 445.201773 
L 421.2 445.201773 
" style="fill:none;stroke:#b2b2b2;stroke-dasharray:2.96,1.28;stroke-dashoffset:0;stroke-opacity:0.3;stroke-width:0.8;"/>
     </g>
     <g id="line2d_46">
      <g>
       <use style="stroke:#000000;stroke-width:0.8;" x="83.795968" xlink:href="#mf46f7cb136" y="445.201773"/>
      </g>
     </g>
     <g id="text_18">
      <!-- 15 -->
      <g transform="translate(53.890968 452.040367)scale(0.18 -0.18)">
       <use xlink:href="#DejaVuSans-49"/>
       <use x="63.623047" xlink:href="#DejaVuSans-53"/>
      </g>
     </g>
    </g>
    <g id="ytick_12">
     <g id="line2d_47">
      <path clip-path="url(#p57b41709f6)" d="M 83.795968 402.273377 
L 421.2 402.273377 
" style="fill:none;stroke:#b2b2b2;stroke-dasharray:2.96,1.28;stroke-dashoffset:0;stroke-opacity:0.3;stroke-width:0.8;"/>
     </g>
     <g id="line2d_48">
      <g>
       <use style="stroke:#000000;stroke-width:0.8;" x="83.795968" xlink:href="#mf46f7cb136" y="402.273377"/>
      </g>
     </g>
     <g id="text_19">
      <!-- 20 -->
      <g transform="translate(53.890968 409.111971)scale(0.18 -0.18)">
       <use xlink:href="#DejaVuSans-50"/>
       <use x="63.623047" xlink:href="#DejaVuSans-48"/>
      </g>
     </g>
    </g>
    <g id="ytick_13">
     <g id="line2d_49">
      <path clip-path="url(#p57b41709f6)" d="M 83.795968 359.344981 
L 421.2 359.344981 
" style="fill:none;stroke:#b2b2b2;stroke-dasharray:2.96,1.28;stroke-dashoffset:0;stroke-opacity:0.3;stroke-width:0.8;"/>
     </g>
     <g id="line2d_50">
      <g>
       <use style="stroke:#000000;stroke-width:0.8;" x="83.795968" xlink:href="#mf46f7cb136" y="359.344981"/>
      </g>
     </g>
     <g id="text_20">
      <!-- 25 -->
      <g transform="translate(53.890968 366.183575)scale(0.18 -0.18)">
       <use xlink:href="#DejaVuSans-50"/>
       <use x="63.623047" xlink:href="#DejaVuSans-53"/>
      </g>
     </g>
    </g>
    <g id="ytick_14">
     <g id="line2d_51">
      <path clip-path="url(#p57b41709f6)" d="M 83.795968 316.416585 
L 421.2 316.416585 
" style="fill:none;stroke:#b2b2b2;stroke-dasharray:2.96,1.28;stroke-dashoffset:0;stroke-opacity:0.3;stroke-width:0.8;"/>
     </g>
     <g id="line2d_52">
      <g>
       <use style="stroke:#000000;stroke-width:0.8;" x="83.795968" xlink:href="#mf46f7cb136" y="316.416585"/>
      </g>
     </g>
     <g id="text_21">
      <!-- 30 -->
      <g transform="translate(53.890968 323.255179)scale(0.18 -0.18)">
       <use xlink:href="#DejaVuSans-51"/>
       <use x="63.623047" xlink:href="#DejaVuSans-48"/>
      </g>
     </g>
    </g>
    <g id="text_22">
     <!-- Matrix elements ($\mu$V) -->
     <defs>
      <path d="M 2.78125 -18.796875 
Q 2.78125 -18.21875 2.875 -18.015625 
L 17.578125 41.015625 
Q 18.015625 42.4375 19.15625 43.3125 
Q 20.3125 44.1875 21.78125 44.1875 
Q 23.046875 44.1875 23.921875 43.421875 
Q 24.8125 42.671875 24.8125 41.40625 
Q 24.8125 41.109375 24.78125 40.9375 
Q 24.75 40.765625 24.703125 40.578125 
L 18.796875 17.1875 
Q 17.828125 13.03125 17.828125 10.015625 
Q 17.828125 6.296875 19.578125 3.90625 
Q 21.34375 1.515625 24.90625 1.515625 
Q 32.171875 1.515625 37.703125 10.59375 
Q 37.75 10.6875 37.765625 10.734375 
Q 37.796875 10.796875 37.796875 10.890625 
L 45.015625 39.890625 
Q 45.359375 41.21875 46.578125 42.15625 
Q 47.796875 43.109375 49.21875 43.109375 
Q 50.390625 43.109375 51.296875 42.328125 
Q 52.203125 41.546875 52.203125 40.28125 
Q 52.203125 39.703125 52.09375 39.5 
L 44.921875 10.6875 
Q 44.1875 7.859375 44.1875 5.8125 
Q 44.1875 1.515625 47.125 1.515625 
Q 50.25 1.515625 51.828125 5.375 
Q 53.421875 9.234375 54.59375 14.703125 
Q 54.78125 15.28125 55.421875 15.28125 
L 56.59375 15.28125 
Q 56.984375 15.28125 57.25 14.96875 
Q 57.515625 14.65625 57.515625 14.3125 
Q 55.765625 7.328125 53.6875 3.09375 
Q 51.609375 -1.125 46.921875 -1.125 
Q 43.609375 -1.125 41.046875 0.78125 
Q 38.484375 2.6875 37.703125 5.90625 
Q 35.203125 2.78125 31.859375 0.828125 
Q 28.515625 -1.125 24.8125 -1.125 
Q 18.5625 -1.125 14.984375 1.8125 
L 9.90625 -18.40625 
Q 9.625 -19.828125 8.453125 -20.703125 
Q 7.28125 -21.578125 5.8125 -21.578125 
Q 4.59375 -21.578125 3.6875 -20.8125 
Q 2.78125 -20.0625 2.78125 -18.796875 
z
" id="Cmmi10-185"/>
      <path d="M 28.609375 0 
L 0.78125 72.90625 
L 11.078125 72.90625 
L 34.1875 11.53125 
L 57.328125 72.90625 
L 67.578125 72.90625 
L 39.796875 0 
z
" id="DejaVuSans-86"/>
     </defs>
     <g transform="translate(45.490968 553.630761)rotate(-90)scale(0.2 -0.2)">
      <use transform="translate(0 0.015625)" xlink:href="#DejaVuSans-77"/>
      <use transform="translate(86.279297 0.015625)" xlink:href="#DejaVuSans-97"/>
      <use transform="translate(147.558594 0.015625)" xlink:href="#DejaVuSans-116"/>
      <use transform="translate(186.767578 0.015625)" xlink:href="#DejaVuSans-114"/>
      <use transform="translate(227.880859 0.015625)" xlink:href="#DejaVuSans-105"/>
      <use transform="translate(255.664062 0.015625)" xlink:href="#DejaVuSans-120"/>
      <use transform="translate(314.84375 0.015625)" xlink:href="#DejaVuSans-32"/>
      <use transform="translate(346.630859 0.015625)" xlink:href="#DejaVuSans-101"/>
      <use transform="translate(408.154297 0.015625)" xlink:href="#DejaVuSans-108"/>
      <use transform="translate(435.9375 0.015625)" xlink:href="#DejaVuSans-101"/>
      <use transform="translate(497.460938 0.015625)" xlink:href="#DejaVuSans-109"/>
      <use transform="translate(594.873047 0.015625)" xlink:href="#DejaVuSans-101"/>
      <use transform="translate(656.396484 0.015625)" xlink:href="#DejaVuSans-110"/>
      <use transform="translate(719.775391 0.015625)" xlink:href="#DejaVuSans-116"/>
      <use transform="translate(758.984375 0.015625)" xlink:href="#DejaVuSans-115"/>
      <use transform="translate(811.083984 0.015625)" xlink:href="#DejaVuSans-32"/>
      <use transform="translate(842.871094 0.015625)" xlink:href="#DejaVuSans-40"/>
      <use transform="translate(881.884766 0.015625)" xlink:href="#Cmmi10-185"/>
      <use transform="translate(942.089844 0.015625)" xlink:href="#DejaVuSans-86"/>
      <use transform="translate(1010.498047 0.015625)" xlink:href="#DejaVuSans-41"/>
     </g>
    </g>
   </g>
   <g id="line2d_53">
    <path clip-path="url(#p57b41709f6)" d="M 2.569071 573.685108 
L 20.600015 573.305833 
L 46.644711 572.998664 
L 52.655026 573.00875 
L 53.656745 573.986961 
L 58.66534 573.986961 
L 59.667059 548.790302 
L 61.670497 547.890033 
L 66.679093 545.723212 
L 71.687688 543.316201 
L 76.696284 540.691573 
L 80.70316 538.376136 
L 82.706598 537.016362 
L 83.708317 555.097407 
L 84.710036 564.524221 
L 85.711756 565.934748 
L 86.713475 566.407076 
L 87.715194 566.580305 
L 89.718632 566.553458 
L 91.72207 566.246263 
L 93.725508 565.693418 
L 95.728946 564.813935 
L 96.730665 564.189992 
L 97.732385 563.379217 
L 98.734104 562.293097 
L 99.735823 560.773706 
L 100.737542 558.512108 
L 101.739261 554.820897 
L 102.74098 547.864712 
L 103.742699 531.549108 
L 104.744418 494.479585 
L 105.746137 473.762596 
L 106.747856 469.251438 
L 107.749575 467.27686 
L 109.753014 464.533343 
L 127.783957 442.05012 
L 136.799429 430.213508 
L 151.825215 410.037656 
L 165.849283 391.335675 
L 173.863035 380.997734 
L 180.875069 372.304406 
L 186.885384 365.193235 
L 192.895698 358.46097 
L 197.904294 353.183406 
L 202.912889 348.243888 
L 206.919765 344.557108 
L 210.926642 341.122514 
L 214.933518 337.954673 
L 218.940394 335.06717 
L 222.947271 332.472515 
L 226.954147 330.18205 
L 230.961023 328.205866 
L 233.966181 326.935299 
L 236.971338 325.84966 
L 239.976495 324.951683 
L 242.981653 324.243634 
L 245.98681 323.727306 
L 248.991967 323.404008 
L 251.997124 323.274561 
L 255.002282 323.339294 
L 258.007439 323.598042 
L 261.012596 324.050148 
L 264.017753 324.694465 
L 267.022911 325.529361 
L 270.028068 326.552727 
L 273.033225 327.761983 
L 277.040102 329.658175 
L 281.046978 331.870965 
L 285.053854 334.390588 
L 289.060731 337.206007 
L 293.067607 340.304997 
L 297.074483 343.674232 
L 301.08136 347.299381 
L 306.089955 352.167416 
L 311.098551 357.379995 
L 316.107146 362.904052 
L 322.117461 369.895681 
L 328.127775 377.225419 
L 335.139809 386.121441 
L 344.155281 397.953019 
L 359.181067 418.137162 
L 373.205134 436.829355 
L 382.220606 448.464691 
L 390.234359 458.423215 
L 396.244673 465.827986 
L 397.246392 467.27686 
L 398.248111 469.251438 
L 399.24983 473.762596 
L 400.25155 494.479585 
L 401.253269 531.549108 
L 402.254988 547.864712 
L 403.256707 554.820897 
L 404.258426 558.512108 
L 405.260145 560.773706 
L 406.261864 562.293097 
L 407.263583 563.379217 
L 408.265302 564.189992 
L 409.267021 564.813935 
L 411.27046 565.693418 
L 413.273898 566.246263 
L 415.277336 566.553458 
L 417.280774 566.580305 
L 418.282493 566.407076 
L 419.284212 565.934748 
L 420.285931 564.524221 
L 421.28765 555.097407 
L 422.28937 537.016362 
L 425.294527 538.986358 
L 429.301403 541.234821 
L 433 543.160058 
L 433 543.160058 
" style="fill:none;stroke:#990000;stroke-linecap:square;stroke-width:1.8;"/>
   </g>
   <g id="line2d_54">
    <path clip-path="url(#p57b41709f6)" d="M 2.569071 573.986961 
L 89.718632 573.986961 
L 90.720351 532.767575 
L 98.734104 527.525031 
L 105.746137 522.67188 
L 112.758171 517.567994 
L 120.771924 511.454869 
L 129.787395 504.273708 
L 140.806305 495.172713 
L 173.863035 467.577527 
L 181.876788 461.304703 
L 188.888822 456.104275 
L 194.899136 451.911686 
L 200.909451 448.004834 
L 205.918046 444.99436 
L 210.926642 442.228634 
L 215.935237 439.726705 
L 220.943833 437.506064 
L 224.950709 435.942711 
L 228.957585 434.576642 
L 232.964462 433.414164 
L 236.971338 432.460674 
L 240.978214 431.720626 
L 244.985091 431.19749 
L 248.991967 430.893727 
L 252.998843 430.810768 
L 257.00572 430.949006 
L 261.012596 431.307787 
L 265.019472 431.885421 
L 269.026349 432.679194 
L 273.033225 433.685386 
L 277.040102 434.899304 
L 281.046978 436.315319 
L 285.053854 437.926908 
L 290.06245 440.205124 
L 295.071045 442.761264 
L 300.079641 445.577509 
L 305.088236 448.634526 
L 311.098551 452.591643 
L 317.108865 456.828103 
L 324.120899 462.071337 
L 332.134651 468.381833 
L 341.150123 475.772115 
L 357.177629 489.269825 
L 372.203415 501.821095 
L 382.220606 509.884559 
L 390.234359 516.06635 
L 398.248111 521.957736 
L 405.260145 526.847516 
L 412.272179 531.483114 
L 414.275617 532.767575 
L 415.277336 573.986961 
L 433 573.986961 
L 433 573.986961 
" style="fill:none;stroke:#004ba8;stroke-linecap:square;stroke-width:1.8;"/>
   </g>
   <g id="line2d_55">
    <path clip-path="url(#p57b41709f6)" d="M 2.569071 573.397709 
L 52.655026 573.135719 
L 53.656745 573.986961 
L 58.66534 573.986961 
L 59.667059 569.008513 
L 72.689407 569.218623 
L 77.698003 569.397339 
L 79.701441 569.708603 
L 80.70316 570.087775 
L 81.704879 570.970604 
L 82.706598 573.653067 
L 83.708317 541.524626 
L 84.710036 537.026679 
L 85.711756 536.077777 
L 88.716913 534.046544 
L 89.718632 533.406586 
L 90.720351 573.986961 
L 414.275617 573.986961 
L 415.277336 533.406586 
L 419.284212 536.077777 
L 420.285931 537.026679 
L 421.28765 541.524626 
L 422.28937 573.653067 
L 423.291089 570.970604 
L 424.292808 570.087775 
L 425.294527 569.708603 
L 427.297965 569.397339 
L 430.303122 569.253731 
L 433 569.210597 
L 433 569.210597 
" style="fill:none;stroke:#009e73;stroke-linecap:square;stroke-width:1.8;"/>
   </g>
   <g id="line2d_56">
    <path clip-path="url(#p57b41709f6)" d="M 2.569071 573.679726 
L 19.598296 573.423754 
L 38.630958 573.368175 
L 50.651587 573.493286 
L 51.653306 571.164075 
L 52.655026 570.818411 
L 56.661902 570.311008 
L 57.663621 550.439624 
L 68.682531 545.558601 
L 73.691126 543.009253 
L 77.698003 540.773283 
L 79.701441 539.455555 
L 80.70316 541.165999 
L 81.704879 563.352081 
L 82.706598 565.752493 
L 83.708317 566.412198 
L 84.710036 566.644907 
L 85.711756 566.688235 
L 86.713475 566.569907 
L 87.715194 567.344243 
L 88.716913 566.582363 
L 90.720351 566.020926 
L 92.723789 565.220303 
L 93.725508 564.663873 
L 94.727227 563.950203 
L 95.728946 563.00893 
L 96.730665 561.71856 
L 97.732385 559.851005 
L 98.734104 556.926514 
L 99.735823 551.761182 
L 100.737542 540.723665 
L 101.739261 512.329384 
L 102.74098 480.452248 
L 103.742699 472.825704 
L 104.744418 470.389093 
L 105.746137 468.851411 
L 107.749575 466.323016 
L 120.771924 450.623849 
L 129.787395 439.252437 
L 141.808025 423.660722 
L 161.842406 397.61432 
L 169.856159 387.566323 
L 176.868193 379.118985 
L 182.878507 372.212074 
L 188.888822 365.677303 
L 193.897417 360.558694 
L 198.906013 355.772644 
L 202.912889 352.204452 
L 206.919765 348.88454 
L 210.926642 345.8273 
L 214.933518 343.046145 
L 218.940394 340.553414 
L 222.947271 338.360278 
L 226.954147 336.476656 
L 230.961023 334.911141 
L 233.966181 333.950148 
L 236.971338 333.174676 
L 239.976495 332.586762 
L 242.981653 332.187965 
L 245.98681 331.979357 
L 248.991967 331.961525 
L 251.997124 332.134558 
L 255.002282 332.498056 
L 258.007439 333.051126 
L 261.012596 333.79239 
L 264.017753 334.719986 
L 267.022911 335.831578 
L 271.029787 337.595017 
L 275.036663 339.67266 
L 279.04354 342.055263 
L 283.050416 344.732288 
L 287.057292 347.691975 
L 291.064169 350.921436 
L 295.071045 354.406744 
L 300.079641 359.100442 
L 305.088236 364.139799 
L 310.096832 369.492313 
L 316.107146 376.280979 
L 322.117461 383.411542 
L 329.129494 392.080682 
L 338.144966 403.630164 
L 352.169033 422.049407 
L 367.19482 441.678641 
L 376.210291 453.083868 
L 384.224044 462.843607 
L 392.237797 472.413095 
L 393.239516 473.863108 
L 394.241235 475.977243 
L 395.242954 481.634703 
L 396.244673 507.43463 
L 397.246392 538.682171 
L 398.248111 551.180612 
L 399.24983 556.795196 
L 400.25155 559.889934 
L 401.253269 561.834132 
L 402.254988 563.164231 
L 403.256707 564.129405 
L 404.258426 564.860443 
L 406.261864 565.893607 
L 409.267021 566.982101 
L 410.26874 568.492222 
L 411.27046 566.445765 
L 412.272179 566.79729 
L 413.273898 566.86237 
L 414.275617 566.760791 
L 415.277336 566.382871 
L 416.279055 565.171591 
L 417.280774 556.680958 
L 418.282493 543.170248 
L 420.285931 544.560015 
L 424.292808 546.833146 
L 429.301403 549.408058 
L 433 551.172998 
L 433 551.172998 
" style="fill:none;stroke:#990000;stroke-dasharray:1.8,2.97;stroke-dashoffset:0;stroke-width:1.8;"/>
   </g>
   <g id="line2d_57">
    <path clip-path="url(#p57b41709f6)" d="M 2.569071 573.846611 
L 50.651587 573.548696 
L 51.653306 573.063852 
L 60.668778 573.200722 
L 76.696284 573.468729 
L 79.701441 573.796317 
L 80.70316 570.399887 
L 81.704879 571.947267 
L 82.706598 572.584609 
L 84.710036 572.902524 
L 86.713475 573.193107 
L 87.715194 535.375462 
L 90.720351 533.431821 
L 98.734104 528.219739 
L 105.746137 523.397297 
L 113.75989 517.599861 
L 121.773643 511.532793 
L 131.790834 503.645243 
L 144.813182 493.074096 
L 164.847564 476.81302 
L 173.863035 469.807291 
L 180.875069 464.614905 
L 187.887103 459.716693 
L 193.897417 455.799762 
L 198.906013 452.763236 
L 203.914608 449.955967 
L 208.923203 447.397687 
L 213.931799 445.1067 
L 218.940394 443.099677 
L 222.947271 441.708543 
L 226.954147 440.515341 
L 230.961023 439.525858 
L 234.9679 438.744952 
L 238.974776 438.176512 
L 242.981653 437.823432 
L 246.988529 437.687581 
L 250.995405 437.76979 
L 255.002282 438.069847 
L 259.009158 438.586494 
L 263.016034 439.317441 
L 267.022911 440.259381 
L 271.029787 441.40802 
L 275.036663 442.758105 
L 279.04354 444.303473 
L 284.052135 446.499012 
L 289.060731 448.973145 
L 294.069326 451.70859 
L 299.077922 454.686485 
L 305.088236 458.551441 
L 311.098551 462.699316 
L 318.110584 467.844309 
L 326.124337 474.049861 
L 335.139809 481.331923 
L 349.163876 492.988754 
L 366.193101 507.088772 
L 376.210291 515.08393 
L 384.224044 521.220111 
L 392.237797 527.074076 
L 399.24983 531.93766 
L 406.261864 536.550435 
L 410.26874 539.211807 
L 411.27046 572.73447 
L 412.272179 572.387011 
L 414.275617 572.085741 
L 415.277336 571.829802 
L 416.279055 571.201408 
L 417.280774 567.715933 
L 418.282493 572.937941 
L 419.284212 573.705188 
L 420.285931 573.322202 
L 422.28937 573.035321 
L 426.296246 572.840603 
L 433 572.688729 
L 433 572.688729 
" style="fill:none;stroke:#004ba8;stroke-dasharray:1.8,2.97;stroke-dashoffset:0;stroke-width:1.8;"/>
   </g>
   <g id="line2d_58">
    <path clip-path="url(#p57b41709f6)" d="M 2.569071 573.400938 
L 49.649868 573.252728 
L 50.651587 573.261642 
L 51.653306 573.575595 
L 56.661902 573.501811 
L 57.663621 569.070218 
L 67.680812 569.232046 
L 74.692846 569.382982 
L 76.696284 569.611976 
L 77.698003 569.878188 
L 78.699722 570.444571 
L 79.701441 572.097232 
L 80.70316 561.396902 
L 81.704879 539.875596 
L 82.706598 538.615843 
L 84.710036 537.19534 
L 86.713475 535.92716 
L 87.715194 571.50012 
L 88.716913 572.65487 
L 90.720351 572.752296 
L 93.725508 572.648293 
L 96.730665 572.311949 
L 97.732385 572.085615 
L 98.734104 571.725103 
L 99.735823 571.080969 
L 100.737542 569.694687 
L 101.739261 566.11959 
L 102.74098 562.122998 
L 103.742699 561.184789 
L 105.746137 560.715766 
L 119.770205 558.714328 
L 134.795991 556.373114 
L 153.828654 553.17131 
L 191.893979 546.713116 
L 205.918046 544.601258 
L 217.938675 543.019823 
L 228.957585 541.804295 
L 238.974776 540.924504 
L 248.991967 540.281272 
L 258.007439 539.917296 
L 267.022911 539.763743 
L 276.038382 539.82242 
L 285.053854 540.09043 
L 295.071045 540.624471 
L 305.088236 541.391054 
L 316.107146 542.475922 
L 328.127775 543.905791 
L 341.150123 545.682249 
L 359.181067 548.391709 
L 393.239516 553.714222 
L 394.241235 554.054166 
L 395.242954 555.109121 
L 396.244673 560.274321 
L 397.246392 566.613991 
L 398.248111 569.147429 
L 399.24983 570.276494 
L 400.25155 570.890368 
L 401.253269 571.268205 
L 403.256707 571.693237 
L 406.261864 571.956474 
L 408.265302 571.958958 
L 409.267021 571.829015 
L 410.26874 570.419968 
L 411.27046 539.676793 
L 415.277336 542.31314 
L 416.279055 543.245007 
L 417.280774 547.7898 
L 418.282493 573.400781 
L 419.284212 570.710063 
L 420.285931 569.992269 
L 421.28765 569.686773 
L 423.291089 569.443441 
L 427.297965 569.330297 
L 433 569.297191 
L 433 569.297191 
" style="fill:none;stroke:#009e73;stroke-dasharray:1.8,2.97;stroke-dashoffset:0;stroke-width:1.8;"/>
   </g>
   <g id="patch_8">
    <path d="M 83.795968 586.522581 
L 83.795968 310.738941 
" style="fill:none;stroke:#8787ff;stroke-linecap:square;stroke-linejoin:miter;stroke-width:0.8;"/>
   </g>
   <g id="patch_9">
    <path d="M 421.2 586.522581 
L 421.2 310.738941 
" style="fill:none;stroke:#8787ff;stroke-linecap:square;stroke-linejoin:miter;stroke-width:0.8;"/>
   </g>
   <g id="patch_10">
    <path d="M 83.795968 586.522581 
L 421.2 586.522581 
" style="fill:none;stroke:#8787ff;stroke-linecap:square;stroke-linejoin:miter;stroke-width:0.8;"/>
   </g>
   <g id="patch_11">
    <path d="M 83.795968 310.738941 
L 421.2 310.738941 
" style="fill:none;stroke:#8787ff;stroke-linecap:square;stroke-linejoin:miter;stroke-width:0.8;"/>
   </g>
  </g>
 </g>
 <defs>
  <clipPath id="pb89d496edb">
   <rect height="275.78364" width="337.404032" x="83.795968" y="10.8"/>
  </clipPath>
  <clipPath id="p57b41709f6">
   <rect height="275.78364" width="337.404032" x="83.795968" y="310.738941"/>
  </clipPath>
 </defs>
</svg>
