<?xml version="1.0" encoding="utf-8" standalone="no"?>
<!DOCTYPE svg PUBLIC "-//W3C//DTD SVG 1.1//EN"
  "http://www.w3.org/Graphics/SVG/1.1/DTD/svg11.dtd">
<!-- Created with matplotlib (https://matplotlib.org/) -->
<svg height="432pt" version="1.1" viewBox="0 0 576 432" width="576pt" xmlns="http://www.w3.org/2000/svg" xmlns:xlink="http://www.w3.org/1999/xlink">
 <defs>
  <style type="text/css">
*{stroke-linecap:butt;stroke-linejoin:round;}
  </style>
 </defs>
 <g id="figure_1">
  <g id="patch_1">
   <path d="M 0 432 
L 576 432 
L 576 0 
L 0 0 
z
" style="fill:none;"/>
  </g>
  <g id="axes_1">
   <g id="patch_2">
    <path d="M 57.6 187.2 
L 285.32093 187.2 
L 285.32093 43.2 
L 57.6 43.2 
z
" style="fill:none;"/>
   </g>
   <g id="matplotlib.axis_1">
    <g id="xtick_1">
     <g id="line2d_1">
      <path clip-path="url(#p04aacd7a78)" d="M 80.372093 187.2 
L 80.372093 43.2 
" style="fill:none;stroke:#b2b2b2;stroke-dasharray:2.96,1.28;stroke-dashoffset:0;stroke-opacity:0.3;stroke-width:0.8;"/>
     </g>
     <g id="line2d_2">
      <defs>
       <path d="M 0 0 
L 0 3.5 
" id="mdbf5e46236" style="stroke:#2b2b2b;stroke-width:0.8;"/>
      </defs>
      <g>
       <use style="fill:#2b2b2b;stroke:#2b2b2b;stroke-width:0.8;" x="80.372093" xlink:href="#mdbf5e46236" y="187.2"/>
      </g>
     </g>
    </g>
    <g id="xtick_2">
     <g id="line2d_3">
      <path clip-path="url(#p04aacd7a78)" d="M 125.916279 187.2 
L 125.916279 43.2 
" style="fill:none;stroke:#b2b2b2;stroke-dasharray:2.96,1.28;stroke-dashoffset:0;stroke-opacity:0.3;stroke-width:0.8;"/>
     </g>
     <g id="line2d_4">
      <g>
       <use style="fill:#2b2b2b;stroke:#2b2b2b;stroke-width:0.8;" x="125.916279" xlink:href="#mdbf5e46236" y="187.2"/>
      </g>
     </g>
    </g>
    <g id="xtick_3">
     <g id="line2d_5">
      <path clip-path="url(#p04aacd7a78)" d="M 171.460465 187.2 
L 171.460465 43.2 
" style="fill:none;stroke:#b2b2b2;stroke-dasharray:2.96,1.28;stroke-dashoffset:0;stroke-opacity:0.3;stroke-width:0.8;"/>
     </g>
     <g id="line2d_6">
      <g>
       <use style="fill:#2b2b2b;stroke:#2b2b2b;stroke-width:0.8;" x="171.460465" xlink:href="#mdbf5e46236" y="187.2"/>
      </g>
     </g>
    </g>
    <g id="xtick_4">
     <g id="line2d_7">
      <path clip-path="url(#p04aacd7a78)" d="M 217.004651 187.2 
L 217.004651 43.2 
" style="fill:none;stroke:#b2b2b2;stroke-dasharray:2.96,1.28;stroke-dashoffset:0;stroke-opacity:0.3;stroke-width:0.8;"/>
     </g>
     <g id="line2d_8">
      <g>
       <use style="fill:#2b2b2b;stroke:#2b2b2b;stroke-width:0.8;" x="217.004651" xlink:href="#mdbf5e46236" y="187.2"/>
      </g>
     </g>
    </g>
    <g id="xtick_5">
     <g id="line2d_9">
      <path clip-path="url(#p04aacd7a78)" d="M 262.548837 187.2 
L 262.548837 43.2 
" style="fill:none;stroke:#b2b2b2;stroke-dasharray:2.96,1.28;stroke-dashoffset:0;stroke-opacity:0.3;stroke-width:0.8;"/>
     </g>
     <g id="line2d_10">
      <g>
       <use style="fill:#2b2b2b;stroke:#2b2b2b;stroke-width:0.8;" x="262.548837" xlink:href="#mdbf5e46236" y="187.2"/>
      </g>
     </g>
    </g>
   </g>
   <g id="matplotlib.axis_2">
    <g id="ytick_1">
     <g id="line2d_11">
      <path clip-path="url(#p04aacd7a78)" d="M 57.6 187.2 
L 285.32093 187.2 
" style="fill:none;stroke:#b2b2b2;stroke-dasharray:2.96,1.28;stroke-dashoffset:0;stroke-opacity:0.3;stroke-width:0.8;"/>
     </g>
     <g id="line2d_12">
      <defs>
       <path d="M 0 0 
L -3.5 0 
" id="me409eb4f91" style="stroke:#2b2b2b;stroke-width:0.8;"/>
      </defs>
      <g>
       <use style="fill:#2b2b2b;stroke:#2b2b2b;stroke-width:0.8;" x="57.6" xlink:href="#me409eb4f91" y="187.2"/>
      </g>
     </g>
     <g id="text_1">
      <!-- 5 -->
      <defs>
       <path d="M 10.796875 72.90625 
L 49.515625 72.90625 
L 49.515625 64.59375 
L 19.828125 64.59375 
L 19.828125 46.734375 
Q 21.96875 47.46875 24.109375 47.828125 
Q 26.265625 48.1875 28.421875 48.1875 
Q 40.625 48.1875 47.75 41.5 
Q 54.890625 34.8125 54.890625 23.390625 
Q 54.890625 11.625 47.5625 5.09375 
Q 40.234375 -1.421875 26.90625 -1.421875 
Q 22.3125 -1.421875 17.546875 -0.640625 
Q 12.796875 0.140625 7.71875 1.703125 
L 7.71875 11.625 
Q 12.109375 9.234375 16.796875 8.0625 
Q 21.484375 6.890625 26.703125 6.890625 
Q 35.15625 6.890625 40.078125 11.328125 
Q 45.015625 15.765625 45.015625 23.390625 
Q 45.015625 31 40.078125 35.4375 
Q 35.15625 39.890625 26.703125 39.890625 
Q 22.75 39.890625 18.8125 39.015625 
Q 14.890625 38.140625 10.796875 36.28125 
z
" id="DejaVuSans-53"/>
      </defs>
      <g style="fill:#2b2b2b;" transform="translate(41.6925 192.518906)scale(0.14 -0.14)">
       <use xlink:href="#DejaVuSans-53"/>
      </g>
     </g>
    </g>
    <g id="ytick_2">
     <g id="line2d_13">
      <path clip-path="url(#p04aacd7a78)" d="M 57.6 131.815385 
L 285.32093 131.815385 
" style="fill:none;stroke:#b2b2b2;stroke-dasharray:2.96,1.28;stroke-dashoffset:0;stroke-opacity:0.3;stroke-width:0.8;"/>
     </g>
     <g id="line2d_14">
      <g>
       <use style="fill:#2b2b2b;stroke:#2b2b2b;stroke-width:0.8;" x="57.6" xlink:href="#me409eb4f91" y="131.815385"/>
      </g>
     </g>
     <g id="text_2">
      <!-- 10 -->
      <defs>
       <path d="M 12.40625 8.296875 
L 28.515625 8.296875 
L 28.515625 63.921875 
L 10.984375 60.40625 
L 10.984375 69.390625 
L 28.421875 72.90625 
L 38.28125 72.90625 
L 38.28125 8.296875 
L 54.390625 8.296875 
L 54.390625 0 
L 12.40625 0 
z
" id="DejaVuSans-49"/>
       <path d="M 31.78125 66.40625 
Q 24.171875 66.40625 20.328125 58.90625 
Q 16.5 51.421875 16.5 36.375 
Q 16.5 21.390625 20.328125 13.890625 
Q 24.171875 6.390625 31.78125 6.390625 
Q 39.453125 6.390625 43.28125 13.890625 
Q 47.125 21.390625 47.125 36.375 
Q 47.125 51.421875 43.28125 58.90625 
Q 39.453125 66.40625 31.78125 66.40625 
z
M 31.78125 74.21875 
Q 44.046875 74.21875 50.515625 64.515625 
Q 56.984375 54.828125 56.984375 36.375 
Q 56.984375 17.96875 50.515625 8.265625 
Q 44.046875 -1.421875 31.78125 -1.421875 
Q 19.53125 -1.421875 13.0625 8.265625 
Q 6.59375 17.96875 6.59375 36.375 
Q 6.59375 54.828125 13.0625 64.515625 
Q 19.53125 74.21875 31.78125 74.21875 
z
" id="DejaVuSans-48"/>
      </defs>
      <g style="fill:#2b2b2b;" transform="translate(32.785 137.134291)scale(0.14 -0.14)">
       <use xlink:href="#DejaVuSans-49"/>
       <use x="63.623047" xlink:href="#DejaVuSans-48"/>
      </g>
     </g>
    </g>
    <g id="ytick_3">
     <g id="line2d_15">
      <path clip-path="url(#p04aacd7a78)" d="M 57.6 76.430769 
L 285.32093 76.430769 
" style="fill:none;stroke:#b2b2b2;stroke-dasharray:2.96,1.28;stroke-dashoffset:0;stroke-opacity:0.3;stroke-width:0.8;"/>
     </g>
     <g id="line2d_16">
      <g>
       <use style="fill:#2b2b2b;stroke:#2b2b2b;stroke-width:0.8;" x="57.6" xlink:href="#me409eb4f91" y="76.430769"/>
      </g>
     </g>
     <g id="text_3">
      <!-- 15 -->
      <g style="fill:#2b2b2b;" transform="translate(32.785 81.749675)scale(0.14 -0.14)">
       <use xlink:href="#DejaVuSans-49"/>
       <use x="63.623047" xlink:href="#DejaVuSans-53"/>
      </g>
     </g>
    </g>
    <g id="text_4">
     <!-- $\omega/2\pi$ (GHz) -->
     <defs>
      <path d="M 12.109375 -1.125 
Q 6.453125 -1.125 3.9375 3.015625 
Q 1.421875 7.171875 1.421875 13.1875 
Q 1.421875 17.140625 2.125 20.921875 
Q 2.828125 24.703125 4.265625 28.578125 
Q 5.71875 32.46875 7.5625 35.859375 
Q 9.421875 39.265625 11.71875 42.484375 
Q 12.15625 43.109375 12.890625 43.109375 
Q 13.53125 43.109375 13.921875 42.71875 
Q 14.3125 42.328125 14.3125 41.796875 
Q 14.3125 41.265625 14.015625 40.828125 
Q 4.890625 28.265625 4.890625 17.671875 
Q 4.890625 13.09375 7 9.796875 
Q 9.125 6.5 13.484375 6.5 
Q 17.234375 6.5 20.4375 8.6875 
Q 23.640625 10.890625 25.984375 14.3125 
Q 25.984375 16.0625 26.59375 19.765625 
Q 27.203125 23.484375 28.484375 26.390625 
Q 29.78125 29.296875 31.59375 29.296875 
Q 33.890625 29.296875 33.890625 26.609375 
Q 33.890625 25.046875 33.21875 22.671875 
Q 32.5625 20.3125 31.75 18.265625 
Q 30.953125 16.21875 29.78125 13.625 
Q 30.953125 6.5 36.921875 6.5 
Q 40.375 6.5 43.859375 8.5 
Q 47.359375 10.5 50.046875 13.75 
Q 52.734375 17 54.265625 20.75 
Q 55.8125 24.515625 55.8125 27.875 
Q 55.8125 30.90625 54.859375 32.59375 
Q 53.90625 34.28125 52.34375 36.125 
Q 50.78125 37.984375 50.78125 39.109375 
Q 50.78125 41.0625 52.4375 42.671875 
Q 54.109375 44.28125 56 44.28125 
Q 58.453125 44.28125 59.46875 42.0625 
Q 60.5 39.84375 60.5 37.015625 
Q 60.5 32.421875 58.671875 25.4375 
Q 56.84375 18.453125 54.5 13.8125 
Q 51.265625 7.515625 46.40625 3.1875 
Q 41.546875 -1.125 35.5 -1.125 
Q 31.640625 -1.125 29.265625 1.1875 
Q 26.90625 3.515625 26.21875 7.515625 
Q 23.4375 3.5625 19.875 1.21875 
Q 16.3125 -1.125 12.109375 -1.125 
z
" id="Cmmi10-33"/>
      <path d="M 5.609375 -23 
Q 5.609375 -22.703125 5.71875 -22.609375 
L 40.484375 73.78125 
Q 40.671875 74.359375 41.15625 74.671875 
Q 41.65625 75 42.28125 75 
Q 43.171875 75 43.71875 74.453125 
Q 44.28125 73.921875 44.28125 73 
L 44.28125 72.609375 
L 9.515625 -23.78125 
Q 8.9375 -25 7.625 -25 
Q 6.78125 -25 6.1875 -24.40625 
Q 5.609375 -23.828125 5.609375 -23 
z
" id="Cmmi10-61"/>
      <path d="M 4.984375 0 
L 4.984375 2.6875 
Q 4.984375 2.9375 5.171875 3.21875 
L 20.703125 20.40625 
Q 24.21875 24.21875 26.40625 26.796875 
Q 28.609375 29.390625 30.75 32.765625 
Q 32.90625 36.140625 34.15625 39.625 
Q 35.40625 43.109375 35.40625 47.015625 
Q 35.40625 51.125 33.890625 54.859375 
Q 32.375 58.59375 29.375 60.84375 
Q 26.375 63.09375 22.125 63.09375 
Q 17.78125 63.09375 14.3125 60.46875 
Q 10.84375 57.859375 9.421875 53.71875 
Q 9.8125 53.8125 10.5 53.8125 
Q 12.75 53.8125 14.328125 52.296875 
Q 15.921875 50.78125 15.921875 48.390625 
Q 15.921875 46.09375 14.328125 44.5 
Q 12.75 42.921875 10.5 42.921875 
Q 8.15625 42.921875 6.5625 44.546875 
Q 4.984375 46.1875 4.984375 48.390625 
Q 4.984375 52.15625 6.390625 55.4375 
Q 7.8125 58.734375 10.46875 61.296875 
Q 13.140625 63.875 16.484375 65.234375 
Q 19.828125 66.609375 23.578125 66.609375 
Q 29.296875 66.609375 34.21875 64.1875 
Q 39.15625 61.765625 42.03125 57.34375 
Q 44.921875 52.9375 44.921875 47.015625 
Q 44.921875 42.671875 43.015625 38.765625 
Q 41.109375 34.859375 38.125 31.65625 
Q 35.15625 28.46875 30.515625 24.40625 
Q 25.875 20.359375 24.421875 19 
L 13.09375 8.109375 
L 22.703125 8.109375 
Q 29.78125 8.109375 34.546875 8.21875 
Q 39.3125 8.34375 39.59375 8.59375 
Q 40.765625 9.859375 42 17.828125 
L 44.921875 17.828125 
L 42.09375 0 
z
" id="Cmr10-50"/>
      <path d="M 10.109375 1.703125 
Q 10.109375 2.25 10.5 3.328125 
Q 13.28125 9.125 15.6875 14.71875 
Q 18.109375 20.3125 20.03125 25.609375 
Q 21.96875 30.90625 23.578125 36.921875 
L 17.1875 36.921875 
Q 13.53125 36.921875 10.34375 34.625 
Q 7.171875 32.328125 5.078125 28.8125 
Q 4.890625 28.421875 4.5 28.421875 
L 3.328125 28.421875 
Q 2.390625 28.421875 2.390625 29.390625 
Q 2.390625 29.59375 2.59375 29.984375 
Q 5.859375 35.546875 9.59375 39.328125 
Q 13.328125 43.109375 18.015625 43.109375 
L 54.296875 43.109375 
Q 55.328125 43.109375 56.046875 42.421875 
Q 56.78125 41.75 56.78125 40.578125 
Q 56.78125 39.109375 55.734375 38.015625 
Q 54.6875 36.921875 53.21875 36.921875 
L 40.484375 36.921875 
Q 38.875 29.046875 38.71875 21.578125 
Q 38.71875 11.96875 42.09375 4.203125 
Q 42.390625 3.609375 42.390625 2.984375 
Q 42.390625 1.90625 41.75 0.96875 
Q 41.109375 0.046875 40.109375 -0.53125 
Q 39.109375 -1.125 37.984375 -1.125 
Q 35.359375 -1.125 34.375 3.171875 
Q 33.40625 7.46875 33.40625 11.53125 
Q 33.40625 17.234375 34.375 22.53125 
Q 35.359375 27.828125 37.5 36.921875 
L 26.609375 36.921875 
Q 18.703125 4.890625 17.09375 1.609375 
Q 15.671875 -1.125 13.1875 -1.125 
Q 11.96875 -1.125 11.03125 -0.3125 
Q 10.109375 0.484375 10.109375 1.703125 
z
" id="Cmmi10-188"/>
      <path id="DejaVuSans-32"/>
      <path d="M 31 75.875 
Q 24.46875 64.65625 21.28125 53.65625 
Q 18.109375 42.671875 18.109375 31.390625 
Q 18.109375 20.125 21.3125 9.0625 
Q 24.515625 -2 31 -13.1875 
L 23.1875 -13.1875 
Q 15.875 -1.703125 12.234375 9.375 
Q 8.59375 20.453125 8.59375 31.390625 
Q 8.59375 42.28125 12.203125 53.3125 
Q 15.828125 64.359375 23.1875 75.875 
z
" id="DejaVuSans-40"/>
      <path d="M 59.515625 10.40625 
L 59.515625 29.984375 
L 43.40625 29.984375 
L 43.40625 38.09375 
L 69.28125 38.09375 
L 69.28125 6.78125 
Q 63.578125 2.734375 56.6875 0.65625 
Q 49.8125 -1.421875 42 -1.421875 
Q 24.90625 -1.421875 15.25 8.5625 
Q 5.609375 18.5625 5.609375 36.375 
Q 5.609375 54.25 15.25 64.234375 
Q 24.90625 74.21875 42 74.21875 
Q 49.125 74.21875 55.546875 72.453125 
Q 61.96875 70.703125 67.390625 67.28125 
L 67.390625 56.78125 
Q 61.921875 61.421875 55.765625 63.765625 
Q 49.609375 66.109375 42.828125 66.109375 
Q 29.4375 66.109375 22.71875 58.640625 
Q 16.015625 51.171875 16.015625 36.375 
Q 16.015625 21.625 22.71875 14.15625 
Q 29.4375 6.6875 42.828125 6.6875 
Q 48.046875 6.6875 52.140625 7.59375 
Q 56.25 8.5 59.515625 10.40625 
z
" id="DejaVuSans-71"/>
      <path d="M 9.8125 72.90625 
L 19.671875 72.90625 
L 19.671875 43.015625 
L 55.515625 43.015625 
L 55.515625 72.90625 
L 65.375 72.90625 
L 65.375 0 
L 55.515625 0 
L 55.515625 34.71875 
L 19.671875 34.71875 
L 19.671875 0 
L 9.8125 0 
z
" id="DejaVuSans-72"/>
      <path d="M 5.515625 54.6875 
L 48.1875 54.6875 
L 48.1875 46.484375 
L 14.40625 7.171875 
L 48.1875 7.171875 
L 48.1875 0 
L 4.296875 0 
L 4.296875 8.203125 
L 38.09375 47.515625 
L 5.515625 47.515625 
z
" id="DejaVuSans-122"/>
      <path d="M 8.015625 75.875 
L 15.828125 75.875 
Q 23.140625 64.359375 26.78125 53.3125 
Q 30.421875 42.28125 30.421875 31.390625 
Q 30.421875 20.453125 26.78125 9.375 
Q 23.140625 -1.703125 15.828125 -13.1875 
L 8.015625 -13.1875 
Q 14.5 -2 17.703125 9.0625 
Q 20.90625 20.125 20.90625 31.390625 
Q 20.90625 42.671875 17.703125 53.65625 
Q 14.5 64.65625 8.015625 75.875 
z
" id="DejaVuSans-41"/>
     </defs>
     <g transform="translate(25.285 152.65)rotate(-90)scale(0.14 -0.14)">
      <use transform="translate(0 0.125)" xlink:href="#Cmmi10-33"/>
      <use transform="translate(62.207031 0.125)" xlink:href="#Cmmi10-61"/>
      <use transform="translate(112.207031 0.125)" xlink:href="#Cmr10-50"/>
      <use transform="translate(162.207031 0.125)" xlink:href="#Cmmi10-188"/>
      <use transform="translate(219.189453 0.125)" xlink:href="#DejaVuSans-32"/>
      <use transform="translate(250.976562 0.125)" xlink:href="#DejaVuSans-40"/>
      <use transform="translate(289.990234 0.125)" xlink:href="#DejaVuSans-71"/>
      <use transform="translate(367.480469 0.125)" xlink:href="#DejaVuSans-72"/>
      <use transform="translate(442.675781 0.125)" xlink:href="#DejaVuSans-122"/>
      <use transform="translate(495.166016 0.125)" xlink:href="#DejaVuSans-41"/>
     </g>
    </g>
   </g>
   <g id="line2d_17">
    <path clip-path="url(#p04aacd7a78)" d="M 34.827907 32.952031 
L 47.423293 229.711481 
L 47.970919 237.654945 
L 48.518544 237.325655 
L 50.709046 204.080294 
L 52.899548 170.280811 
L 53.447173 168.386003 
L 60.018679 164.280262 
L 66.590185 160.438619 
L 73.161691 156.858157 
L 79.733197 153.532936 
L 86.304702 150.457749 
L 92.876208 147.628056 
L 99.447714 145.039813 
L 106.01922 142.689375 
L 112.590726 140.573452 
L 119.162231 138.689085 
L 125.733737 137.033636 
L 132.305243 135.604785 
L 138.876749 134.400527 
L 145.448255 133.419173 
L 152.01976 132.659342 
L 158.591266 132.119969 
L 165.162772 131.800295 
L 171.734278 131.699871 
L 178.305784 131.818556 
L 184.877289 132.156517 
L 191.448795 132.714229 
L 198.020301 133.492474 
L 204.591807 134.492347 
L 211.163313 135.715252 
L 217.734818 137.162905 
L 224.306324 138.837338 
L 230.87783 140.740896 
L 237.449336 142.876244 
L 244.020842 145.246369 
L 250.592347 147.854589 
L 257.163853 150.704579 
L 263.735359 153.800421 
L 270.306865 157.146703 
L 276.878371 160.748694 
L 283.449876 164.612371 
L 289.473757 168.386003 
L 290.021382 170.280811 
L 294.402386 237.325655 
L 294.950012 237.654945 
L 297.140514 204.35514 
L 308.093023 32.952031 
L 308.093023 32.952031 
" style="fill:none;stroke:#104e8b;stroke-linecap:square;stroke-width:1.2;"/>
   </g>
   <g id="line2d_18">
    <path clip-path="url(#p04aacd7a78)" d="M 34.827907 181.880768 
L 39.208911 178.412745 
L 44.13754 174.78579 
L 47.423293 172.597041 
L 47.970919 172.502747 
L 48.518544 176.544117 
L 52.899548 241.04308 
L 53.447173 236.041103 
L 62.209181 108.063327 
L 63.304432 93.685764 
L 63.852058 88.915611 
L 64.399683 86.892194 
L 64.947309 86.051042 
L 66.04256 85.238741 
L 67.685436 84.523912 
L 70.971189 83.453358 
L 76.995069 81.769401 
L 85.757077 79.557187 
L 95.06671 77.428238 
L 104.376343 75.51818 
L 113.685977 73.833151 
L 122.99561 72.381898 
L 131.757618 71.237056 
L 140.519625 70.312632 
L 149.281633 69.613376 
L 158.043641 69.142828 
L 166.805649 68.903331 
L 175.567656 68.896067 
L 184.329664 69.121072 
L 193.091672 69.577237 
L 201.853679 70.262289 
L 210.615687 71.172766 
L 219.377695 72.303995 
L 228.139703 73.650111 
L 237.449336 75.308097 
L 246.758969 77.192101 
L 256.068602 79.29535 
L 265.378236 81.624393 
L 272.497367 83.618765 
L 275.78312 84.735289 
L 276.878371 85.238741 
L 277.425996 85.57494 
L 277.973622 86.051042 
L 278.521247 86.892194 
L 279.068873 88.915611 
L 279.616498 93.685764 
L 280.711749 108.063327 
L 285.092753 171.577684 
L 289.473757 236.041103 
L 290.021382 241.04308 
L 294.402386 176.544117 
L 294.950012 172.502747 
L 295.497637 172.597041 
L 297.140514 173.639576 
L 301.521517 176.76922 
L 306.450147 180.547126 
L 308.093023 181.880768 
L 308.093023 181.880768 
" style="fill:none;stroke:#ed2200;stroke-linecap:square;stroke-width:1.2;"/>
   </g>
   <g id="line2d_19">
    <path clip-path="url(#p04aacd7a78)" d="M 34.827907 87.082571 
L 44.13754 233.27852 
L 44.685166 239.703832 
L 45.232791 233.800195 
L 49.613795 165.857024 
L 50.161421 162.379863 
L 56.732926 158.530704 
L 63.852058 154.60893 
L 70.971189 150.947318 
L 78.09032 147.546557 
L 85.209451 144.406371 
L 92.328583 141.525831 
L 99.447714 138.903504 
L 106.01922 136.71052 
L 112.590726 134.734411 
L 119.162231 132.973466 
L 125.733737 131.42593 
L 132.305243 130.090033 
L 138.876749 128.964028 
L 145.99588 127.979054 
L 153.115011 127.236265 
L 160.234143 126.733567 
L 167.353274 126.468889 
L 174.472405 126.44014 
L 181.591537 126.645155 
L 188.710668 127.081621 
L 195.829799 127.746982 
L 202.94893 128.638314 
L 210.068062 129.752166 
L 217.187193 131.084358 
L 224.306324 132.629727 
L 231.973081 134.524905 
L 239.639838 136.649417 
L 247.85422 139.164821 
L 256.616228 142.096407 
L 265.925861 145.453295 
L 276.878371 149.644489 
L 283.449876 152.245253 
L 283.997502 155.058168 
L 289.473757 238.582269 
L 290.021382 236.015954 
L 292.75951 194.004718 
L 305.224966 -1 
L 305.224966 -1 
" style="fill:none;stroke:#104e8b;stroke-dasharray:1.2,1.98;stroke-dashoffset:0;stroke-width:1.2;"/>
   </g>
   <g id="line2d_20">
    <path clip-path="url(#p04aacd7a78)" d="M 34.827907 172.373304 
L 40.304162 168.658865 
L 43.589915 166.607365 
L 44.13754 166.366548 
L 44.685166 167.09596 
L 45.780417 182.093341 
L 49.613795 239.425994 
L 50.161421 237.54012 
L 58.923428 108.170846 
L 60.018679 94.154001 
L 60.566305 90.212969 
L 61.11393 88.66439 
L 61.661556 87.954845 
L 62.756807 87.187172 
L 64.399683 86.450463 
L 67.685436 85.30274 
L 73.709316 83.479507 
L 81.923699 81.236959 
L 90.685706 79.074908 
L 99.447714 77.136447 
L 108.209722 75.422699 
L 116.97173 73.938476 
L 125.733737 72.689307 
L 133.948119 71.736384 
L 142.162502 70.998559 
L 150.376884 70.479162 
L 158.591266 70.180989 
L 166.805649 70.106343 
L 175.020031 70.257087 
L 183.234413 70.634726 
L 191.448795 71.240493 
L 199.663178 72.07547 
L 207.87756 73.140749 
L 216.091942 74.437671 
L 224.306324 75.968192 
L 232.520707 77.735491 
L 240.187463 79.603394 
L 247.85422 81.690322 
L 255.520977 84.011963 
L 262.092483 86.217503 
L 267.568737 88.278836 
L 270.306865 89.505663 
L 271.402116 90.138871 
L 271.949741 90.552852 
L 272.497367 91.132613 
L 273.044992 92.161642 
L 273.592618 94.646925 
L 274.140243 100.009291 
L 275.78312 122.788517 
L 282.354626 220.486556 
L 283.449876 236.905039 
L 283.997502 239.941114 
L 289.473757 157.992477 
L 290.021382 155.238047 
L 290.569008 155.251779 
L 292.211884 155.812265 
L 299.878641 158.861917 
L 304.80727 160.971634 
L 305.354896 164.001067 
L 308.093023 202.016134 
L 308.093023 202.016134 
" style="fill:none;stroke:#ed2200;stroke-dasharray:1.2,1.98;stroke-dashoffset:0;stroke-width:1.2;"/>
   </g>
   <g id="patch_3">
    <path d="M 57.6 187.2 
L 57.6 43.2 
" style="fill:none;stroke:#2b2b2b;stroke-linecap:square;stroke-linejoin:miter;stroke-width:0.8;"/>
   </g>
   <g id="patch_4">
    <path d="M 285.32093 187.2 
L 285.32093 43.2 
" style="fill:none;stroke:#2b2b2b;stroke-linecap:square;stroke-linejoin:miter;stroke-width:0.8;"/>
   </g>
   <g id="patch_5">
    <path d="M 57.6 187.2 
L 285.32093 187.2 
" style="fill:none;stroke:#2b2b2b;stroke-linecap:square;stroke-linejoin:miter;stroke-width:0.8;"/>
   </g>
   <g id="patch_6">
    <path d="M 57.6 43.2 
L 285.32093 43.2 
" style="fill:none;stroke:#2b2b2b;stroke-linecap:square;stroke-linejoin:miter;stroke-width:0.8;"/>
   </g>
  </g>
  <g id="axes_2">
   <g id="patch_7">
    <path d="M 319.47907 187.2 
L 547.2 187.2 
L 547.2 43.2 
L 319.47907 43.2 
z
" style="fill:none;"/>
   </g>
   <g id="matplotlib.axis_3">
    <g id="xtick_6">
     <g id="line2d_21">
      <path clip-path="url(#p9d8750da6e)" d="M 357.432558 187.2 
L 357.432558 43.2 
" style="fill:none;stroke:#b2b2b2;stroke-dasharray:2.96,1.28;stroke-dashoffset:0;stroke-opacity:0.3;stroke-width:0.8;"/>
     </g>
     <g id="line2d_22">
      <g>
       <use style="fill:#2b2b2b;stroke:#2b2b2b;stroke-width:0.8;" x="357.432558" xlink:href="#mdbf5e46236" y="187.2"/>
      </g>
     </g>
    </g>
    <g id="xtick_7">
     <g id="line2d_23">
      <path clip-path="url(#p9d8750da6e)" d="M 433.339535 187.2 
L 433.339535 43.2 
" style="fill:none;stroke:#b2b2b2;stroke-dasharray:2.96,1.28;stroke-dashoffset:0;stroke-opacity:0.3;stroke-width:0.8;"/>
     </g>
     <g id="line2d_24">
      <g>
       <use style="fill:#2b2b2b;stroke:#2b2b2b;stroke-width:0.8;" x="433.339535" xlink:href="#mdbf5e46236" y="187.2"/>
      </g>
     </g>
    </g>
    <g id="xtick_8">
     <g id="line2d_25">
      <path clip-path="url(#p9d8750da6e)" d="M 509.246512 187.2 
L 509.246512 43.2 
" style="fill:none;stroke:#b2b2b2;stroke-dasharray:2.96,1.28;stroke-dashoffset:0;stroke-opacity:0.3;stroke-width:0.8;"/>
     </g>
     <g id="line2d_26">
      <g>
       <use style="fill:#2b2b2b;stroke:#2b2b2b;stroke-width:0.8;" x="509.246512" xlink:href="#mdbf5e46236" y="187.2"/>
      </g>
     </g>
    </g>
   </g>
   <g id="matplotlib.axis_4">
    <g id="ytick_4">
     <g id="line2d_27">
      <path clip-path="url(#p9d8750da6e)" d="M 319.47907 187.2 
L 547.2 187.2 
" style="fill:none;stroke:#b2b2b2;stroke-dasharray:2.96,1.28;stroke-dashoffset:0;stroke-opacity:0.3;stroke-width:0.8;"/>
     </g>
     <g id="line2d_28">
      <g>
       <use style="fill:#2b2b2b;stroke:#2b2b2b;stroke-width:0.8;" x="319.47907" xlink:href="#me409eb4f91" y="187.2"/>
      </g>
     </g>
    </g>
    <g id="ytick_5">
     <g id="line2d_29">
      <path clip-path="url(#p9d8750da6e)" d="M 319.47907 131.815385 
L 547.2 131.815385 
" style="fill:none;stroke:#b2b2b2;stroke-dasharray:2.96,1.28;stroke-dashoffset:0;stroke-opacity:0.3;stroke-width:0.8;"/>
     </g>
     <g id="line2d_30">
      <g>
       <use style="fill:#2b2b2b;stroke:#2b2b2b;stroke-width:0.8;" x="319.47907" xlink:href="#me409eb4f91" y="131.815385"/>
      </g>
     </g>
    </g>
    <g id="ytick_6">
     <g id="line2d_31">
      <path clip-path="url(#p9d8750da6e)" d="M 319.47907 76.430769 
L 547.2 76.430769 
" style="fill:none;stroke:#b2b2b2;stroke-dasharray:2.96,1.28;stroke-dashoffset:0;stroke-opacity:0.3;stroke-width:0.8;"/>
     </g>
     <g id="line2d_32">
      <g>
       <use style="fill:#2b2b2b;stroke:#2b2b2b;stroke-width:0.8;" x="319.47907" xlink:href="#me409eb4f91" y="76.430769"/>
      </g>
     </g>
    </g>
   </g>
   <g id="line2d_33">
    <path clip-path="url(#p9d8750da6e)" d="M 319.47907 5.021243 
L 326.089587 12.247877 
L 332.700105 19.807881 
L 339.310622 27.706377 
L 346.149089 36.229552 
L 353.215504 45.394452 
L 360.965766 55.815873 
L 370.539619 69.084947 
L 389.003478 94.772698 
L 394.930149 102.58108 
L 399.717075 108.537931 
L 403.820155 113.307486 
L 407.467337 117.223853 
L 410.88657 120.569044 
L 413.849906 123.176882 
L 416.813241 125.483632 
L 419.548628 127.321662 
L 422.056065 128.743114 
L 424.563503 129.898342 
L 426.842992 130.707633 
L 429.122481 131.280191 
L 431.401969 131.610944 
L 433.681458 131.696916 
L 435.960947 131.537327 
L 438.240436 131.133622 
L 440.519925 130.489419 
L 442.799413 129.610393 
L 445.078902 128.50409 
L 447.58634 127.035664 
L 450.093777 125.317522 
L 452.829164 123.176882 
L 455.792499 120.569044 
L 458.983784 117.457224 
L 462.403017 113.814882 
L 466.278148 109.356612 
L 470.609177 104.032289 
L 475.852001 97.216361 
L 482.462518 88.230016 
L 493.859962 72.282388 
L 505.941253 55.504564 
L 514.147413 44.49256 
L 521.441777 35.072889 
L 528.280243 26.596826 
L 534.890761 18.745036 
L 541.501278 11.231477 
L 547.2 5.021243 
L 547.2 5.021243 
" style="fill:none;stroke:#104e8b;stroke-linecap:square;stroke-width:1.2;"/>
   </g>
   <g id="line2d_34">
    <path clip-path="url(#p9d8750da6e)" d="M 319.47907 51.702404 
L 326.089587 56.492673 
L 331.56036 60.185941 
L 336.575236 63.305427 
L 341.134213 65.890285 
L 345.465242 68.103109 
L 349.796271 70.062495 
L 353.899351 71.672714 
L 357.774481 72.965731 
L 361.649612 74.032807 
L 365.524743 74.872223 
L 369.399874 75.485382 
L 373.275005 75.877038 
L 377.378085 76.05958 
L 381.481165 76.017475 
L 385.812194 75.750465 
L 390.59912 75.223027 
L 396.069893 74.379653 
L 403.136308 73.040348 
L 417.269139 70.307635 
L 422.511963 69.551816 
L 427.29889 69.087959 
L 431.629918 68.888127 
L 435.960947 68.911855 
L 440.291976 69.157492 
L 444.850953 69.636963 
L 450.093777 70.421867 
L 456.704295 71.654707 
L 472.432768 74.684841 
L 477.675592 75.423405 
L 482.462518 75.873825 
L 486.793547 76.059432 
L 490.896627 76.016179 
L 494.771758 75.763657 
L 498.646889 75.294584 
L 502.52202 74.601935 
L 506.397151 73.682162 
L 510.272282 72.534993 
L 514.147413 71.163186 
L 518.250492 69.472005 
L 522.353572 67.544734 
L 526.684601 65.26785 
L 531.243578 62.620775 
L 536.258454 59.439968 
L 541.729227 55.689712 
L 547.2 51.702404 
L 547.2 51.702404 
" style="fill:none;stroke:#ed2200;stroke-linecap:square;stroke-width:1.2;"/>
   </g>
   <g id="patch_8">
    <path d="M 319.47907 187.2 
L 319.47907 43.2 
" style="fill:none;stroke:#2b2b2b;stroke-linecap:square;stroke-linejoin:miter;stroke-width:0.8;"/>
   </g>
   <g id="patch_9">
    <path d="M 547.2 187.2 
L 547.2 43.2 
" style="fill:none;stroke:#2b2b2b;stroke-linecap:square;stroke-linejoin:miter;stroke-width:0.8;"/>
   </g>
   <g id="patch_10">
    <path d="M 319.47907 187.2 
L 547.2 187.2 
" style="fill:none;stroke:#2b2b2b;stroke-linecap:square;stroke-linejoin:miter;stroke-width:0.8;"/>
   </g>
   <g id="patch_11">
    <path d="M 319.47907 43.2 
L 547.2 43.2 
" style="fill:none;stroke:#2b2b2b;stroke-linecap:square;stroke-linejoin:miter;stroke-width:0.8;"/>
   </g>
   <g id="text_5">
    <!-- $\varphi_+/2\pi=0.5$ -->
    <defs>
     <path d="M 16.3125 -19 
Q 16.3125 -18.609375 16.5 -17.828125 
L 22.125 -0.203125 
Q 14.65625 1.65625 9.8125 6.6875 
Q 4.984375 11.71875 4.984375 19 
Q 4.984375 22.65625 6.34375 27.25 
Q 7.71875 31.84375 9.859375 35.96875 
Q 12.015625 40.09375 14.5 42.828125 
Q 15.09375 43.109375 15.1875 43.109375 
L 16.40625 43.109375 
Q 16.703125 43.109375 16.9375 42.8125 
Q 17.1875 42.53125 17.1875 42.1875 
Q 17.1875 41.796875 17 41.609375 
Q 15.328125 39.796875 13.734375 37.1875 
Q 12.15625 34.578125 10.90625 31.6875 
Q 9.671875 28.8125 8.84375 25.640625 
Q 8.015625 22.46875 8.015625 20.125 
Q 8.015625 14.203125 12.71875 10.5625 
Q 17.4375 6.9375 23.875 5.71875 
L 26.703125 14.703125 
Q 28.5625 20.515625 30.390625 25.078125 
Q 32.234375 29.640625 34.984375 34 
Q 37.75 38.375 41.65625 41.28125 
Q 45.5625 44.1875 50.390625 44.1875 
Q 54.203125 44.1875 56.765625 42.28125 
Q 59.328125 40.375 60.5625 37.203125 
Q 61.8125 34.03125 61.8125 30.421875 
Q 61.8125 24.46875 59.171875 18.78125 
Q 56.546875 13.09375 51.953125 8.5625 
Q 47.359375 4.046875 41.59375 1.453125 
Q 35.84375 -1.125 29.984375 -1.125 
Q 29.203125 -1.078125 28.296875 -1.03125 
Q 27.390625 -0.984375 26.8125 -0.984375 
L 23.484375 -18.40625 
Q 23.1875 -19.875 21.984375 -20.828125 
Q 20.796875 -21.78125 19.28125 -21.78125 
Q 18.0625 -21.78125 17.1875 -21.015625 
Q 16.3125 -20.265625 16.3125 -19 
z
M 27.875 5.171875 
Q 29 5.078125 31.109375 5.078125 
Q 37.3125 5.078125 43.71875 8.125 
Q 50.140625 11.1875 54.359375 16.5 
Q 58.59375 21.828125 58.59375 28.078125 
Q 58.59375 30.90625 57.4375 33.15625 
Q 56.296875 35.40625 54.21875 36.6875 
Q 52.15625 37.984375 49.421875 37.984375 
Q 41.65625 37.984375 36.421875 30.46875 
Q 31.203125 22.953125 29.59375 14.3125 
z
" id="Cmmi10-39"/>
     <path d="M 7.515625 23 
Q 6.6875 23 6.140625 23.625 
Q 5.609375 24.265625 5.609375 25 
Q 5.609375 25.734375 6.140625 26.359375 
Q 6.6875 27 7.515625 27 
L 36.921875 27 
L 36.921875 56.5 
Q 36.921875 57.28125 37.5 57.78125 
Q 38.09375 58.296875 38.921875 58.296875 
Q 39.65625 58.296875 40.28125 57.78125 
Q 40.921875 57.28125 40.921875 56.5 
L 40.921875 27 
L 70.3125 27 
Q 71.046875 27 71.578125 26.359375 
Q 72.125 25.734375 72.125 25 
Q 72.125 24.265625 71.578125 23.625 
Q 71.046875 23 70.3125 23 
L 40.921875 23 
L 40.921875 -6.5 
Q 40.921875 -7.28125 40.28125 -7.78125 
Q 39.65625 -8.296875 38.921875 -8.296875 
Q 38.09375 -8.296875 37.5 -7.78125 
Q 36.921875 -7.28125 36.921875 -6.5 
L 36.921875 23 
z
" id="Cmr10-43"/>
     <path d="M 7.515625 13.28125 
Q 6.6875 13.28125 6.140625 13.90625 
Q 5.609375 14.546875 5.609375 15.28125 
Q 5.609375 16.109375 6.140625 16.6875 
Q 6.6875 17.28125 7.515625 17.28125 
L 70.3125 17.28125 
Q 71.046875 17.28125 71.578125 16.6875 
Q 72.125 16.109375 72.125 15.28125 
Q 72.125 14.546875 71.578125 13.90625 
Q 71.046875 13.28125 70.3125 13.28125 
z
M 7.515625 32.71875 
Q 6.6875 32.71875 6.140625 33.296875 
Q 5.609375 33.890625 5.609375 34.71875 
Q 5.609375 35.453125 6.140625 36.078125 
Q 6.6875 36.71875 7.515625 36.71875 
L 70.3125 36.71875 
Q 71.046875 36.71875 71.578125 36.078125 
Q 72.125 35.453125 72.125 34.71875 
Q 72.125 33.890625 71.578125 33.296875 
Q 71.046875 32.71875 70.3125 32.71875 
z
" id="Cmr10-61"/>
     <path d="M 25 -2.203125 
Q 12.75 -2.203125 8.328125 7.875 
Q 3.90625 17.96875 3.90625 31.890625 
Q 3.90625 40.578125 5.484375 48.234375 
Q 7.078125 55.90625 11.78125 61.25 
Q 16.5 66.609375 25 66.609375 
Q 31.59375 66.609375 35.78125 63.375 
Q 39.984375 60.15625 42.1875 55.046875 
Q 44.390625 49.953125 45.1875 44.109375 
Q 46 38.28125 46 31.890625 
Q 46 23.296875 44.40625 15.796875 
Q 42.828125 8.296875 38.1875 3.046875 
Q 33.546875 -2.203125 25 -2.203125 
z
M 25 0.390625 
Q 30.5625 0.390625 33.296875 6.09375 
Q 36.03125 11.8125 36.671875 18.75 
Q 37.3125 25.6875 37.3125 33.5 
Q 37.3125 41.015625 36.671875 47.359375 
Q 36.03125 53.71875 33.3125 58.859375 
Q 30.609375 64.015625 25 64.015625 
Q 19.34375 64.015625 16.609375 58.828125 
Q 13.875 53.65625 13.234375 47.328125 
Q 12.59375 41.015625 12.59375 33.5 
Q 12.59375 27.9375 12.859375 23 
Q 13.140625 18.0625 14.3125 12.8125 
Q 15.484375 7.5625 18.09375 3.96875 
Q 20.703125 0.390625 25 0.390625 
z
" id="Cmr10-48"/>
     <path d="M 8.40625 5.515625 
Q 8.40625 7.765625 10.0625 9.375 
Q 11.71875 10.984375 13.921875 10.984375 
Q 15.28125 10.984375 16.59375 10.25 
Q 17.921875 9.515625 18.65625 8.203125 
Q 19.390625 6.890625 19.390625 5.515625 
Q 19.390625 3.328125 17.765625 1.65625 
Q 16.15625 0 13.921875 0 
Q 11.71875 0 10.0625 1.65625 
Q 8.40625 3.328125 8.40625 5.515625 
z
" id="Cmmi10-58"/>
     <path d="M 8.6875 11.375 
Q 9.71875 8.453125 11.84375 6.046875 
Q 13.96875 3.65625 16.875 2.3125 
Q 19.78125 0.984375 22.90625 0.984375 
Q 30.125 0.984375 32.859375 6.59375 
Q 35.59375 12.203125 35.59375 20.21875 
Q 35.59375 23.6875 35.46875 26.046875 
Q 35.359375 28.421875 34.8125 30.609375 
Q 33.890625 34.125 31.5625 36.765625 
Q 29.25 39.40625 25.875 39.40625 
Q 22.515625 39.40625 20.09375 38.375 
Q 17.671875 37.359375 16.15625 35.984375 
Q 14.65625 34.625 13.484375 33.109375 
Q 12.3125 31.59375 12.015625 31.5 
L 10.890625 31.5 
Q 10.640625 31.5 10.265625 31.8125 
Q 9.90625 32.125 9.90625 32.421875 
L 9.90625 65.828125 
Q 9.90625 66.0625 10.21875 66.328125 
Q 10.546875 66.609375 10.890625 66.609375 
L 11.1875 66.609375 
Q 17.921875 63.375 25.484375 63.375 
Q 32.90625 63.375 39.796875 66.609375 
L 40.09375 66.609375 
Q 40.4375 66.609375 40.71875 66.359375 
Q 41.015625 66.109375 41.015625 65.828125 
L 41.015625 64.890625 
Q 41.015625 64.40625 40.828125 64.40625 
Q 37.40625 59.859375 32.25 57.3125 
Q 27.09375 54.78125 21.578125 54.78125 
Q 17.578125 54.78125 13.375 55.90625 
L 13.375 37.015625 
Q 16.703125 39.703125 19.3125 40.84375 
Q 21.921875 42 25.984375 42 
Q 31.5 42 35.859375 38.8125 
Q 40.234375 35.640625 42.578125 30.53125 
Q 44.921875 25.4375 44.921875 20.125 
Q 44.921875 14.109375 41.96875 8.984375 
Q 39.015625 3.859375 33.9375 0.828125 
Q 28.859375 -2.203125 22.90625 -2.203125 
Q 17.96875 -2.203125 13.84375 0.328125 
Q 9.71875 2.875 7.34375 7.171875 
Q 4.984375 11.46875 4.984375 16.3125 
Q 4.984375 18.5625 6.4375 19.96875 
Q 7.90625 21.390625 10.109375 21.390625 
Q 12.3125 21.390625 13.796875 19.9375 
Q 15.28125 18.5 15.28125 16.3125 
Q 15.28125 14.15625 13.796875 12.671875 
Q 12.3125 11.1875 10.109375 11.1875 
Q 9.765625 11.1875 9.328125 11.25 
Q 8.890625 11.328125 8.6875 11.375 
z
" id="Cmr10-53"/>
    </defs>
    <g transform="translate(394.909535 37.2)scale(0.14 -0.14)">
     <use xlink:href="#Cmmi10-39"/>
     <use transform="translate(77.671875 -17.00625)scale(0.7)" xlink:href="#Cmr10-43"/>
     <use transform="translate(150.720117 0)" xlink:href="#Cmmi10-61"/>
     <use transform="translate(200.720117 0)" xlink:href="#Cmr10-50"/>
     <use transform="translate(250.720117 0)" xlink:href="#Cmmi10-188"/>
     <use transform="translate(325.261133 0)" xlink:href="#Cmr10-61"/>
     <use transform="translate(420.505273 0)" xlink:href="#Cmr10-48"/>
     <use transform="translate(470.505273 0)" xlink:href="#Cmmi10-58"/>
     <use transform="translate(498.19082 0)" xlink:href="#Cmr10-53"/>
    </g>
   </g>
  </g>
  <g id="axes_3">
   <g id="patch_12">
    <path d="M 57.6 367.2 
L 285.32093 367.2 
L 285.32093 223.2 
L 57.6 223.2 
z
" style="fill:none;"/>
   </g>
   <g id="matplotlib.axis_5">
    <g id="xtick_9">
     <g id="line2d_35">
      <path clip-path="url(#p7e8bd4ecd1)" d="M 80.372093 367.2 
L 80.372093 223.2 
" style="fill:none;stroke:#b2b2b2;stroke-dasharray:2.96,1.28;stroke-dashoffset:0;stroke-opacity:0.3;stroke-width:0.8;"/>
     </g>
     <g id="line2d_36">
      <g>
       <use style="fill:#2b2b2b;stroke:#2b2b2b;stroke-width:0.8;" x="80.372093" xlink:href="#mdbf5e46236" y="367.2"/>
      </g>
     </g>
     <g id="text_6">
      <!-- 0.40 -->
      <defs>
       <path d="M 10.6875 12.40625 
L 21 12.40625 
L 21 0 
L 10.6875 0 
z
" id="DejaVuSans-46"/>
       <path d="M 37.796875 64.3125 
L 12.890625 25.390625 
L 37.796875 25.390625 
z
M 35.203125 72.90625 
L 47.609375 72.90625 
L 47.609375 25.390625 
L 58.015625 25.390625 
L 58.015625 17.1875 
L 47.609375 17.1875 
L 47.609375 0 
L 37.796875 0 
L 37.796875 17.1875 
L 4.890625 17.1875 
L 4.890625 26.703125 
z
" id="DejaVuSans-52"/>
      </defs>
      <g style="fill:#2b2b2b;" transform="translate(64.786156 384.837812)scale(0.14 -0.14)">
       <use xlink:href="#DejaVuSans-48"/>
       <use x="63.623047" xlink:href="#DejaVuSans-46"/>
       <use x="95.410156" xlink:href="#DejaVuSans-52"/>
       <use x="159.033203" xlink:href="#DejaVuSans-48"/>
      </g>
     </g>
    </g>
    <g id="xtick_10">
     <g id="line2d_37">
      <path clip-path="url(#p7e8bd4ecd1)" d="M 125.916279 367.2 
L 125.916279 223.2 
" style="fill:none;stroke:#b2b2b2;stroke-dasharray:2.96,1.28;stroke-dashoffset:0;stroke-opacity:0.3;stroke-width:0.8;"/>
     </g>
     <g id="line2d_38">
      <g>
       <use style="fill:#2b2b2b;stroke:#2b2b2b;stroke-width:0.8;" x="125.916279" xlink:href="#mdbf5e46236" y="367.2"/>
      </g>
     </g>
     <g id="text_7">
      <!-- 0.45 -->
      <g style="fill:#2b2b2b;" transform="translate(110.330342 384.837812)scale(0.14 -0.14)">
       <use xlink:href="#DejaVuSans-48"/>
       <use x="63.623047" xlink:href="#DejaVuSans-46"/>
       <use x="95.410156" xlink:href="#DejaVuSans-52"/>
       <use x="159.033203" xlink:href="#DejaVuSans-53"/>
      </g>
     </g>
    </g>
    <g id="xtick_11">
     <g id="line2d_39">
      <path clip-path="url(#p7e8bd4ecd1)" d="M 171.460465 367.2 
L 171.460465 223.2 
" style="fill:none;stroke:#b2b2b2;stroke-dasharray:2.96,1.28;stroke-dashoffset:0;stroke-opacity:0.3;stroke-width:0.8;"/>
     </g>
     <g id="line2d_40">
      <g>
       <use style="fill:#2b2b2b;stroke:#2b2b2b;stroke-width:0.8;" x="171.460465" xlink:href="#mdbf5e46236" y="367.2"/>
      </g>
     </g>
     <g id="text_8">
      <!-- 0.50 -->
      <g style="fill:#2b2b2b;" transform="translate(155.874528 384.837812)scale(0.14 -0.14)">
       <use xlink:href="#DejaVuSans-48"/>
       <use x="63.623047" xlink:href="#DejaVuSans-46"/>
       <use x="95.410156" xlink:href="#DejaVuSans-53"/>
       <use x="159.033203" xlink:href="#DejaVuSans-48"/>
      </g>
     </g>
    </g>
    <g id="xtick_12">
     <g id="line2d_41">
      <path clip-path="url(#p7e8bd4ecd1)" d="M 217.004651 367.2 
L 217.004651 223.2 
" style="fill:none;stroke:#b2b2b2;stroke-dasharray:2.96,1.28;stroke-dashoffset:0;stroke-opacity:0.3;stroke-width:0.8;"/>
     </g>
     <g id="line2d_42">
      <g>
       <use style="fill:#2b2b2b;stroke:#2b2b2b;stroke-width:0.8;" x="217.004651" xlink:href="#mdbf5e46236" y="367.2"/>
      </g>
     </g>
     <g id="text_9">
      <!-- 0.55 -->
      <g style="fill:#2b2b2b;" transform="translate(201.418714 384.837812)scale(0.14 -0.14)">
       <use xlink:href="#DejaVuSans-48"/>
       <use x="63.623047" xlink:href="#DejaVuSans-46"/>
       <use x="95.410156" xlink:href="#DejaVuSans-53"/>
       <use x="159.033203" xlink:href="#DejaVuSans-53"/>
      </g>
     </g>
    </g>
    <g id="xtick_13">
     <g id="line2d_43">
      <path clip-path="url(#p7e8bd4ecd1)" d="M 262.548837 367.2 
L 262.548837 223.2 
" style="fill:none;stroke:#b2b2b2;stroke-dasharray:2.96,1.28;stroke-dashoffset:0;stroke-opacity:0.3;stroke-width:0.8;"/>
     </g>
     <g id="line2d_44">
      <g>
       <use style="fill:#2b2b2b;stroke:#2b2b2b;stroke-width:0.8;" x="262.548837" xlink:href="#mdbf5e46236" y="367.2"/>
      </g>
     </g>
     <g id="text_10">
      <!-- 0.60 -->
      <defs>
       <path d="M 33.015625 40.375 
Q 26.375 40.375 22.484375 35.828125 
Q 18.609375 31.296875 18.609375 23.390625 
Q 18.609375 15.53125 22.484375 10.953125 
Q 26.375 6.390625 33.015625 6.390625 
Q 39.65625 6.390625 43.53125 10.953125 
Q 47.40625 15.53125 47.40625 23.390625 
Q 47.40625 31.296875 43.53125 35.828125 
Q 39.65625 40.375 33.015625 40.375 
z
M 52.59375 71.296875 
L 52.59375 62.3125 
Q 48.875 64.0625 45.09375 64.984375 
Q 41.3125 65.921875 37.59375 65.921875 
Q 27.828125 65.921875 22.671875 59.328125 
Q 17.53125 52.734375 16.796875 39.40625 
Q 19.671875 43.65625 24.015625 45.921875 
Q 28.375 48.1875 33.59375 48.1875 
Q 44.578125 48.1875 50.953125 41.515625 
Q 57.328125 34.859375 57.328125 23.390625 
Q 57.328125 12.15625 50.6875 5.359375 
Q 44.046875 -1.421875 33.015625 -1.421875 
Q 20.359375 -1.421875 13.671875 8.265625 
Q 6.984375 17.96875 6.984375 36.375 
Q 6.984375 53.65625 15.1875 63.9375 
Q 23.390625 74.21875 37.203125 74.21875 
Q 40.921875 74.21875 44.703125 73.484375 
Q 48.484375 72.75 52.59375 71.296875 
z
" id="DejaVuSans-54"/>
      </defs>
      <g style="fill:#2b2b2b;" transform="translate(246.9629 384.837812)scale(0.14 -0.14)">
       <use xlink:href="#DejaVuSans-48"/>
       <use x="63.623047" xlink:href="#DejaVuSans-46"/>
       <use x="95.410156" xlink:href="#DejaVuSans-54"/>
       <use x="159.033203" xlink:href="#DejaVuSans-48"/>
      </g>
     </g>
    </g>
    <g id="text_11">
     <!-- $\varphi_+/2\pi$ -->
     <g transform="translate(149.900465 402.249375)scale(0.14 -0.14)">
      <use xlink:href="#Cmmi10-39"/>
      <use transform="translate(77.671875 -17.00625)scale(0.7)" xlink:href="#Cmr10-43"/>
      <use transform="translate(150.720117 0)" xlink:href="#Cmmi10-61"/>
      <use transform="translate(200.720117 0)" xlink:href="#Cmr10-50"/>
      <use transform="translate(250.720117 0)" xlink:href="#Cmmi10-188"/>
     </g>
    </g>
   </g>
   <g id="matplotlib.axis_6">
    <g id="ytick_7">
     <g id="line2d_45">
      <path clip-path="url(#p7e8bd4ecd1)" d="M 57.6 360.654545 
L 285.32093 360.654545 
" style="fill:none;stroke:#b2b2b2;stroke-dasharray:2.96,1.28;stroke-dashoffset:0;stroke-opacity:0.3;stroke-width:0.8;"/>
     </g>
     <g id="line2d_46">
      <g>
       <use style="fill:#2b2b2b;stroke:#2b2b2b;stroke-width:0.8;" x="57.6" xlink:href="#me409eb4f91" y="360.654545"/>
      </g>
     </g>
     <g id="text_12">
      <!-- 0 -->
      <g style="fill:#2b2b2b;" transform="translate(41.6925 365.973452)scale(0.14 -0.14)">
       <use xlink:href="#DejaVuSans-48"/>
      </g>
     </g>
    </g>
    <g id="ytick_8">
     <g id="line2d_47">
      <path clip-path="url(#p7e8bd4ecd1)" d="M 57.6 315.825021 
L 285.32093 315.825021 
" style="fill:none;stroke:#b2b2b2;stroke-dasharray:2.96,1.28;stroke-dashoffset:0;stroke-opacity:0.3;stroke-width:0.8;"/>
     </g>
     <g id="line2d_48">
      <g>
       <use style="fill:#2b2b2b;stroke:#2b2b2b;stroke-width:0.8;" x="57.6" xlink:href="#me409eb4f91" y="315.825021"/>
      </g>
     </g>
     <g id="text_13">
      <!-- 10 -->
      <g style="fill:#2b2b2b;" transform="translate(32.785 321.143927)scale(0.14 -0.14)">
       <use xlink:href="#DejaVuSans-49"/>
       <use x="63.623047" xlink:href="#DejaVuSans-48"/>
      </g>
     </g>
    </g>
    <g id="ytick_9">
     <g id="line2d_49">
      <path clip-path="url(#p7e8bd4ecd1)" d="M 57.6 270.995497 
L 285.32093 270.995497 
" style="fill:none;stroke:#b2b2b2;stroke-dasharray:2.96,1.28;stroke-dashoffset:0;stroke-opacity:0.3;stroke-width:0.8;"/>
     </g>
     <g id="line2d_50">
      <g>
       <use style="fill:#2b2b2b;stroke:#2b2b2b;stroke-width:0.8;" x="57.6" xlink:href="#me409eb4f91" y="270.995497"/>
      </g>
     </g>
     <g id="text_14">
      <!-- 20 -->
      <defs>
       <path d="M 19.1875 8.296875 
L 53.609375 8.296875 
L 53.609375 0 
L 7.328125 0 
L 7.328125 8.296875 
Q 12.9375 14.109375 22.625 23.890625 
Q 32.328125 33.6875 34.8125 36.53125 
Q 39.546875 41.84375 41.421875 45.53125 
Q 43.3125 49.21875 43.3125 52.78125 
Q 43.3125 58.59375 39.234375 62.25 
Q 35.15625 65.921875 28.609375 65.921875 
Q 23.96875 65.921875 18.8125 64.3125 
Q 13.671875 62.703125 7.8125 59.421875 
L 7.8125 69.390625 
Q 13.765625 71.78125 18.9375 73 
Q 24.125 74.21875 28.421875 74.21875 
Q 39.75 74.21875 46.484375 68.546875 
Q 53.21875 62.890625 53.21875 53.421875 
Q 53.21875 48.921875 51.53125 44.890625 
Q 49.859375 40.875 45.40625 35.40625 
Q 44.1875 33.984375 37.640625 27.21875 
Q 31.109375 20.453125 19.1875 8.296875 
z
" id="DejaVuSans-50"/>
      </defs>
      <g style="fill:#2b2b2b;" transform="translate(32.785 276.314403)scale(0.14 -0.14)">
       <use xlink:href="#DejaVuSans-50"/>
       <use x="63.623047" xlink:href="#DejaVuSans-48"/>
      </g>
     </g>
    </g>
    <g id="ytick_10">
     <g id="line2d_51">
      <path clip-path="url(#p7e8bd4ecd1)" d="M 57.6 226.165973 
L 285.32093 226.165973 
" style="fill:none;stroke:#b2b2b2;stroke-dasharray:2.96,1.28;stroke-dashoffset:0;stroke-opacity:0.3;stroke-width:0.8;"/>
     </g>
     <g id="line2d_52">
      <g>
       <use style="fill:#2b2b2b;stroke:#2b2b2b;stroke-width:0.8;" x="57.6" xlink:href="#me409eb4f91" y="226.165973"/>
      </g>
     </g>
     <g id="text_15">
      <!-- 30 -->
      <defs>
       <path d="M 40.578125 39.3125 
Q 47.65625 37.796875 51.625 33 
Q 55.609375 28.21875 55.609375 21.1875 
Q 55.609375 10.40625 48.1875 4.484375 
Q 40.765625 -1.421875 27.09375 -1.421875 
Q 22.515625 -1.421875 17.65625 -0.515625 
Q 12.796875 0.390625 7.625 2.203125 
L 7.625 11.71875 
Q 11.71875 9.328125 16.59375 8.109375 
Q 21.484375 6.890625 26.8125 6.890625 
Q 36.078125 6.890625 40.9375 10.546875 
Q 45.796875 14.203125 45.796875 21.1875 
Q 45.796875 27.640625 41.28125 31.265625 
Q 36.765625 34.90625 28.71875 34.90625 
L 20.21875 34.90625 
L 20.21875 43.015625 
L 29.109375 43.015625 
Q 36.375 43.015625 40.234375 45.921875 
Q 44.09375 48.828125 44.09375 54.296875 
Q 44.09375 59.90625 40.109375 62.90625 
Q 36.140625 65.921875 28.71875 65.921875 
Q 24.65625 65.921875 20.015625 65.03125 
Q 15.375 64.15625 9.8125 62.3125 
L 9.8125 71.09375 
Q 15.4375 72.65625 20.34375 73.4375 
Q 25.25 74.21875 29.59375 74.21875 
Q 40.828125 74.21875 47.359375 69.109375 
Q 53.90625 64.015625 53.90625 55.328125 
Q 53.90625 49.265625 50.4375 45.09375 
Q 46.96875 40.921875 40.578125 39.3125 
z
" id="DejaVuSans-51"/>
      </defs>
      <g style="fill:#2b2b2b;" transform="translate(32.785 231.484879)scale(0.14 -0.14)">
       <use xlink:href="#DejaVuSans-51"/>
       <use x="63.623047" xlink:href="#DejaVuSans-48"/>
      </g>
     </g>
    </g>
    <g id="text_16">
     <!-- Matrix elements ($\mu$V) -->
     <defs>
      <path d="M 9.8125 72.90625 
L 24.515625 72.90625 
L 43.109375 23.296875 
L 61.8125 72.90625 
L 76.515625 72.90625 
L 76.515625 0 
L 66.890625 0 
L 66.890625 64.015625 
L 48.09375 14.015625 
L 38.1875 14.015625 
L 19.390625 64.015625 
L 19.390625 0 
L 9.8125 0 
z
" id="DejaVuSans-77"/>
      <path d="M 34.28125 27.484375 
Q 23.390625 27.484375 19.1875 25 
Q 14.984375 22.515625 14.984375 16.5 
Q 14.984375 11.71875 18.140625 8.90625 
Q 21.296875 6.109375 26.703125 6.109375 
Q 34.1875 6.109375 38.703125 11.40625 
Q 43.21875 16.703125 43.21875 25.484375 
L 43.21875 27.484375 
z
M 52.203125 31.203125 
L 52.203125 0 
L 43.21875 0 
L 43.21875 8.296875 
Q 40.140625 3.328125 35.546875 0.953125 
Q 30.953125 -1.421875 24.3125 -1.421875 
Q 15.921875 -1.421875 10.953125 3.296875 
Q 6 8.015625 6 15.921875 
Q 6 25.140625 12.171875 29.828125 
Q 18.359375 34.515625 30.609375 34.515625 
L 43.21875 34.515625 
L 43.21875 35.40625 
Q 43.21875 41.609375 39.140625 45 
Q 35.0625 48.390625 27.6875 48.390625 
Q 23 48.390625 18.546875 47.265625 
Q 14.109375 46.140625 10.015625 43.890625 
L 10.015625 52.203125 
Q 14.9375 54.109375 19.578125 55.046875 
Q 24.21875 56 28.609375 56 
Q 40.484375 56 46.34375 49.84375 
Q 52.203125 43.703125 52.203125 31.203125 
z
" id="DejaVuSans-97"/>
      <path d="M 18.3125 70.21875 
L 18.3125 54.6875 
L 36.8125 54.6875 
L 36.8125 47.703125 
L 18.3125 47.703125 
L 18.3125 18.015625 
Q 18.3125 11.328125 20.140625 9.421875 
Q 21.96875 7.515625 27.59375 7.515625 
L 36.8125 7.515625 
L 36.8125 0 
L 27.59375 0 
Q 17.1875 0 13.234375 3.875 
Q 9.28125 7.765625 9.28125 18.015625 
L 9.28125 47.703125 
L 2.6875 47.703125 
L 2.6875 54.6875 
L 9.28125 54.6875 
L 9.28125 70.21875 
z
" id="DejaVuSans-116"/>
      <path d="M 41.109375 46.296875 
Q 39.59375 47.171875 37.8125 47.578125 
Q 36.03125 48 33.890625 48 
Q 26.265625 48 22.1875 43.046875 
Q 18.109375 38.09375 18.109375 28.8125 
L 18.109375 0 
L 9.078125 0 
L 9.078125 54.6875 
L 18.109375 54.6875 
L 18.109375 46.1875 
Q 20.953125 51.171875 25.484375 53.578125 
Q 30.03125 56 36.53125 56 
Q 37.453125 56 38.578125 55.875 
Q 39.703125 55.765625 41.0625 55.515625 
z
" id="DejaVuSans-114"/>
      <path d="M 9.421875 54.6875 
L 18.40625 54.6875 
L 18.40625 0 
L 9.421875 0 
z
M 9.421875 75.984375 
L 18.40625 75.984375 
L 18.40625 64.59375 
L 9.421875 64.59375 
z
" id="DejaVuSans-105"/>
      <path d="M 54.890625 54.6875 
L 35.109375 28.078125 
L 55.90625 0 
L 45.3125 0 
L 29.390625 21.484375 
L 13.484375 0 
L 2.875 0 
L 24.125 28.609375 
L 4.6875 54.6875 
L 15.28125 54.6875 
L 29.78125 35.203125 
L 44.28125 54.6875 
z
" id="DejaVuSans-120"/>
      <path d="M 56.203125 29.59375 
L 56.203125 25.203125 
L 14.890625 25.203125 
Q 15.484375 15.921875 20.484375 11.0625 
Q 25.484375 6.203125 34.421875 6.203125 
Q 39.59375 6.203125 44.453125 7.46875 
Q 49.3125 8.734375 54.109375 11.28125 
L 54.109375 2.78125 
Q 49.265625 0.734375 44.1875 -0.34375 
Q 39.109375 -1.421875 33.890625 -1.421875 
Q 20.796875 -1.421875 13.15625 6.1875 
Q 5.515625 13.8125 5.515625 26.8125 
Q 5.515625 40.234375 12.765625 48.109375 
Q 20.015625 56 32.328125 56 
Q 43.359375 56 49.78125 48.890625 
Q 56.203125 41.796875 56.203125 29.59375 
z
M 47.21875 32.234375 
Q 47.125 39.59375 43.09375 43.984375 
Q 39.0625 48.390625 32.421875 48.390625 
Q 24.90625 48.390625 20.390625 44.140625 
Q 15.875 39.890625 15.1875 32.171875 
z
" id="DejaVuSans-101"/>
      <path d="M 9.421875 75.984375 
L 18.40625 75.984375 
L 18.40625 0 
L 9.421875 0 
z
" id="DejaVuSans-108"/>
      <path d="M 52 44.1875 
Q 55.375 50.25 60.0625 53.125 
Q 64.75 56 71.09375 56 
Q 79.640625 56 84.28125 50.015625 
Q 88.921875 44.046875 88.921875 33.015625 
L 88.921875 0 
L 79.890625 0 
L 79.890625 32.71875 
Q 79.890625 40.578125 77.09375 44.375 
Q 74.3125 48.1875 68.609375 48.1875 
Q 61.625 48.1875 57.5625 43.546875 
Q 53.515625 38.921875 53.515625 30.90625 
L 53.515625 0 
L 44.484375 0 
L 44.484375 32.71875 
Q 44.484375 40.625 41.703125 44.40625 
Q 38.921875 48.1875 33.109375 48.1875 
Q 26.21875 48.1875 22.15625 43.53125 
Q 18.109375 38.875 18.109375 30.90625 
L 18.109375 0 
L 9.078125 0 
L 9.078125 54.6875 
L 18.109375 54.6875 
L 18.109375 46.1875 
Q 21.1875 51.21875 25.484375 53.609375 
Q 29.78125 56 35.6875 56 
Q 41.65625 56 45.828125 52.96875 
Q 50 49.953125 52 44.1875 
z
" id="DejaVuSans-109"/>
      <path d="M 54.890625 33.015625 
L 54.890625 0 
L 45.90625 0 
L 45.90625 32.71875 
Q 45.90625 40.484375 42.875 44.328125 
Q 39.84375 48.1875 33.796875 48.1875 
Q 26.515625 48.1875 22.3125 43.546875 
Q 18.109375 38.921875 18.109375 30.90625 
L 18.109375 0 
L 9.078125 0 
L 9.078125 54.6875 
L 18.109375 54.6875 
L 18.109375 46.1875 
Q 21.34375 51.125 25.703125 53.5625 
Q 30.078125 56 35.796875 56 
Q 45.21875 56 50.046875 50.171875 
Q 54.890625 44.34375 54.890625 33.015625 
z
" id="DejaVuSans-110"/>
      <path d="M 44.28125 53.078125 
L 44.28125 44.578125 
Q 40.484375 46.53125 36.375 47.5 
Q 32.28125 48.484375 27.875 48.484375 
Q 21.1875 48.484375 17.84375 46.4375 
Q 14.5 44.390625 14.5 40.28125 
Q 14.5 37.15625 16.890625 35.375 
Q 19.28125 33.59375 26.515625 31.984375 
L 29.59375 31.296875 
Q 39.15625 29.25 43.1875 25.515625 
Q 47.21875 21.78125 47.21875 15.09375 
Q 47.21875 7.46875 41.1875 3.015625 
Q 35.15625 -1.421875 24.609375 -1.421875 
Q 20.21875 -1.421875 15.453125 -0.5625 
Q 10.6875 0.296875 5.421875 2 
L 5.421875 11.28125 
Q 10.40625 8.6875 15.234375 7.390625 
Q 20.0625 6.109375 24.8125 6.109375 
Q 31.15625 6.109375 34.5625 8.28125 
Q 37.984375 10.453125 37.984375 14.40625 
Q 37.984375 18.0625 35.515625 20.015625 
Q 33.0625 21.96875 24.703125 23.78125 
L 21.578125 24.515625 
Q 13.234375 26.265625 9.515625 29.90625 
Q 5.8125 33.546875 5.8125 39.890625 
Q 5.8125 47.609375 11.28125 51.796875 
Q 16.75 56 26.8125 56 
Q 31.78125 56 36.171875 55.265625 
Q 40.578125 54.546875 44.28125 53.078125 
z
" id="DejaVuSans-115"/>
      <path d="M 2.78125 -18.796875 
Q 2.78125 -18.21875 2.875 -18.015625 
L 17.578125 41.015625 
Q 18.015625 42.4375 19.15625 43.3125 
Q 20.3125 44.1875 21.78125 44.1875 
Q 23.046875 44.1875 23.921875 43.421875 
Q 24.8125 42.671875 24.8125 41.40625 
Q 24.8125 41.109375 24.78125 40.9375 
Q 24.75 40.765625 24.703125 40.578125 
L 18.796875 17.1875 
Q 17.828125 13.03125 17.828125 10.015625 
Q 17.828125 6.296875 19.578125 3.90625 
Q 21.34375 1.515625 24.90625 1.515625 
Q 32.171875 1.515625 37.703125 10.59375 
Q 37.75 10.6875 37.765625 10.734375 
Q 37.796875 10.796875 37.796875 10.890625 
L 45.015625 39.890625 
Q 45.359375 41.21875 46.578125 42.15625 
Q 47.796875 43.109375 49.21875 43.109375 
Q 50.390625 43.109375 51.296875 42.328125 
Q 52.203125 41.546875 52.203125 40.28125 
Q 52.203125 39.703125 52.09375 39.5 
L 44.921875 10.6875 
Q 44.1875 7.859375 44.1875 5.8125 
Q 44.1875 1.515625 47.125 1.515625 
Q 50.25 1.515625 51.828125 5.375 
Q 53.421875 9.234375 54.59375 14.703125 
Q 54.78125 15.28125 55.421875 15.28125 
L 56.59375 15.28125 
Q 56.984375 15.28125 57.25 14.96875 
Q 57.515625 14.65625 57.515625 14.3125 
Q 55.765625 7.328125 53.6875 3.09375 
Q 51.609375 -1.125 46.921875 -1.125 
Q 43.609375 -1.125 41.046875 0.78125 
Q 38.484375 2.6875 37.703125 5.90625 
Q 35.203125 2.78125 31.859375 0.828125 
Q 28.515625 -1.125 24.8125 -1.125 
Q 18.5625 -1.125 14.984375 1.8125 
L 9.90625 -18.40625 
Q 9.625 -19.828125 8.453125 -20.703125 
Q 7.28125 -21.578125 5.8125 -21.578125 
Q 4.59375 -21.578125 3.6875 -20.8125 
Q 2.78125 -20.0625 2.78125 -18.796875 
z
" id="Cmmi10-185"/>
      <path d="M 28.609375 0 
L 0.78125 72.90625 
L 11.078125 72.90625 
L 34.1875 11.53125 
L 57.328125 72.90625 
L 67.578125 72.90625 
L 39.796875 0 
z
" id="DejaVuSans-86"/>
     </defs>
     <g transform="translate(25.705 368.7)rotate(-90)scale(0.14 -0.14)">
      <use transform="translate(0 0.015625)" xlink:href="#DejaVuSans-77"/>
      <use transform="translate(86.279297 0.015625)" xlink:href="#DejaVuSans-97"/>
      <use transform="translate(147.558594 0.015625)" xlink:href="#DejaVuSans-116"/>
      <use transform="translate(186.767578 0.015625)" xlink:href="#DejaVuSans-114"/>
      <use transform="translate(227.880859 0.015625)" xlink:href="#DejaVuSans-105"/>
      <use transform="translate(255.664062 0.015625)" xlink:href="#DejaVuSans-120"/>
      <use transform="translate(314.84375 0.015625)" xlink:href="#DejaVuSans-32"/>
      <use transform="translate(346.630859 0.015625)" xlink:href="#DejaVuSans-101"/>
      <use transform="translate(408.154297 0.015625)" xlink:href="#DejaVuSans-108"/>
      <use transform="translate(435.9375 0.015625)" xlink:href="#DejaVuSans-101"/>
      <use transform="translate(497.460938 0.015625)" xlink:href="#DejaVuSans-109"/>
      <use transform="translate(594.873047 0.015625)" xlink:href="#DejaVuSans-101"/>
      <use transform="translate(656.396484 0.015625)" xlink:href="#DejaVuSans-110"/>
      <use transform="translate(719.775391 0.015625)" xlink:href="#DejaVuSans-116"/>
      <use transform="translate(758.984375 0.015625)" xlink:href="#DejaVuSans-115"/>
      <use transform="translate(811.083984 0.015625)" xlink:href="#DejaVuSans-32"/>
      <use transform="translate(842.871094 0.015625)" xlink:href="#DejaVuSans-40"/>
      <use transform="translate(881.884766 0.015625)" xlink:href="#Cmmi10-185"/>
      <use transform="translate(942.089844 0.015625)" xlink:href="#DejaVuSans-86"/>
      <use transform="translate(1010.498047 0.015625)" xlink:href="#DejaVuSans-41"/>
     </g>
    </g>
   </g>
   <g id="line2d_53">
    <path clip-path="url(#p7e8bd4ecd1)" d="M 34.827907 307.377068 
L 41.399413 304.838997 
L 47.423293 302.621424 
L 47.970919 303.803989 
L 48.518544 339.780098 
L 49.06617 349.519393 
L 49.613795 351.866851 
L 50.161421 352.868555 
L 50.709046 353.394707 
L 51.256671 353.693393 
L 52.351922 353.942051 
L 53.447173 353.923886 
L 54.542424 353.716449 
L 55.637675 353.32572 
L 56.732926 352.714338 
L 57.828177 351.793356 
L 58.923428 350.379672 
L 59.471054 349.378139 
L 60.018679 348.070651 
L 60.566305 346.307205 
L 61.11393 343.821095 
L 61.661556 340.094038 
L 62.209181 333.996457 
L 62.756807 322.717238 
L 63.304432 299.246202 
L 63.852058 263.228953 
L 64.399683 245.255729 
L 64.947309 240.38928 
L 65.494934 238.740258 
L 66.04256 237.997713 
L 66.590185 237.584899 
L 67.685436 237.121247 
L 69.875938 236.612665 
L 74.256942 235.918841 
L 83.01895 234.776725 
L 94.519085 233.504631 
L 106.566845 232.393646 
L 119.162231 231.452457 
L 132.305243 230.696804 
L 145.448255 230.163663 
L 158.591266 229.84755 
L 172.281903 229.745824 
L 185.97254 229.875319 
L 199.115552 230.21835 
L 212.258564 230.778948 
L 225.401575 231.562955 
L 237.996961 232.532672 
L 250.044722 233.673063 
L 261.544857 234.977474 
L 270.85449 236.244383 
L 274.140243 236.834565 
L 275.78312 237.316785 
L 276.330745 237.584899 
L 276.878371 237.997713 
L 277.425996 238.740258 
L 277.973622 240.38928 
L 278.521247 245.255729 
L 279.068873 263.228953 
L 279.616498 299.246202 
L 280.164124 322.717238 
L 280.711749 333.996457 
L 281.259375 340.094038 
L 281.807 343.821095 
L 282.354626 346.307205 
L 282.902251 348.070651 
L 283.449876 349.378139 
L 284.545127 351.165607 
L 285.640378 352.30094 
L 286.735629 353.051678 
L 287.83088 353.545349 
L 288.926131 353.842348 
L 290.021382 353.959064 
L 291.116633 353.861018 
L 291.664259 353.693393 
L 292.211884 353.394707 
L 292.75951 352.868555 
L 293.307135 351.866851 
L 293.854761 349.519393 
L 294.402386 339.780098 
L 294.950012 303.803989 
L 295.497637 302.621424 
L 297.688139 303.426172 
L 308.093023 307.377068 
L 308.093023 307.377068 
" style="fill:none;stroke:#ed2200;stroke-linecap:square;stroke-width:1.2;"/>
   </g>
   <g id="line2d_54">
    <path clip-path="url(#p7e8bd4ecd1)" d="M 34.827907 360.654545 
L 52.899548 360.654545 
L 53.447173 300.999261 
L 58.923428 299.361241 
L 66.04256 297.465119 
L 73.709316 295.647191 
L 81.923699 293.923795 
L 90.685706 292.314352 
L 99.99534 290.838278 
L 109.304973 289.582198 
L 119.162231 288.473151 
L 129.567116 287.531913 
L 139.972 286.812347 
L 150.924509 286.282944 
L 161.877019 285.979345 
L 172.829529 285.89691 
L 183.782038 286.034389 
L 194.734548 286.393867 
L 205.687058 286.980863 
L 216.091942 287.757606 
L 226.496826 288.759379 
L 236.354085 289.929877 
L 245.663718 291.248712 
L 254.973351 292.793358 
L 263.735359 294.474069 
L 271.949741 296.271927 
L 279.616498 298.168687 
L 286.735629 300.154753 
L 289.473757 300.999261 
L 290.021382 360.654545 
L 308.093023 360.654545 
L 308.093023 360.654545 
" style="fill:none;stroke:#104e8b;stroke-linecap:square;stroke-width:1.2;"/>
   </g>
   <g id="line2d_55">
    <path clip-path="url(#p7e8bd4ecd1)" d="M 34.827907 353.036611 
L 36.470783 354.080681 
L 38.11366 354.866437 
L 40.304162 355.667397 
L 44.685166 357.141451 
L 45.780417 357.861135 
L 46.328042 358.489911 
L 46.875668 359.598275 
L 47.423293 359.167069 
L 47.970919 348.036956 
L 48.518544 306.096571 
L 49.06617 303.126746 
L 49.613795 302.539603 
L 50.709046 301.967306 
L 52.899548 301.177504 
L 53.447173 360.654545 
L 289.473757 360.654545 
L 290.021382 301.177504 
L 292.211884 301.967306 
L 293.307135 302.539603 
L 293.854761 303.126746 
L 294.402386 306.096571 
L 294.950012 348.036956 
L 295.497637 359.167069 
L 296.045263 359.598275 
L 296.592888 358.489911 
L 297.140514 357.861135 
L 298.235765 357.141451 
L 299.878641 356.510539 
L 304.80727 354.866437 
L 306.450147 354.080681 
L 308.093023 353.036611 
L 308.093023 353.036611 
" style="fill:none;stroke:#68838b;stroke-linecap:square;stroke-width:1.2;"/>
   </g>
   <g id="line2d_56">
    <path clip-path="url(#p7e8bd4ecd1)" d="M 34.827907 360.654545 
L 52.899548 360.654545 
L 53.447173 239.466689 
L 57.280552 238.847781 
L 59.471054 238.692774 
L 60.566305 238.825795 
L 61.11393 239.050528 
L 61.661556 239.531586 
L 62.209181 240.632663 
L 62.756807 243.612386 
L 63.304432 253.934699 
L 64.399683 317.218879 
L 64.947309 333.063854 
L 65.494934 341.080562 
L 66.04256 345.73441 
L 66.590185 348.735248 
L 67.137811 350.819433 
L 67.685436 352.34723 
L 68.780687 354.432944 
L 69.875938 355.789794 
L 70.971189 356.745783 
L 72.614065 357.755446 
L 74.256942 358.475784 
L 76.447444 359.196261 
L 76.995069 360.654545 
L 265.925861 360.654545 
L 266.473487 359.196261 
L 268.663988 358.475784 
L 270.306865 357.755446 
L 271.949741 356.745783 
L 273.044992 355.789794 
L 274.140243 354.432944 
L 274.687869 353.513671 
L 275.235494 352.34723 
L 275.78312 350.819433 
L 276.330745 348.735248 
L 276.878371 345.73441 
L 277.425996 341.080562 
L 277.973622 333.063854 
L 278.521247 317.218879 
L 279.616498 253.934699 
L 280.164124 243.612386 
L 280.711749 240.632663 
L 281.259375 239.531586 
L 281.807 239.050528 
L 282.354626 238.825795 
L 283.449876 238.692774 
L 285.092753 238.784628 
L 288.378506 239.268487 
L 289.473757 239.466689 
L 290.021382 360.654545 
L 308.093023 360.654545 
L 308.093023 360.654545 
" style="fill:none;stroke:#ffa07a;stroke-linecap:square;stroke-width:1.2;"/>
   </g>
   <g id="line2d_57">
    <path clip-path="url(#p7e8bd4ecd1)" d="M 34.827907 305.342378 
L 43.589915 302.038856 
L 44.13754 302.019093 
L 44.685166 313.918313 
L 45.232791 346.10759 
L 45.780417 350.811557 
L 46.328042 352.402293 
L 46.875668 353.168118 
L 47.423293 353.593058 
L 48.518544 353.977006 
L 49.613795 354.042245 
L 50.709046 353.907001 
L 51.804297 353.594965 
L 52.899548 353.084013 
L 53.994799 352.307667 
L 55.09005 351.127431 
L 55.637675 350.304795 
L 56.185301 349.249369 
L 56.732926 347.859219 
L 57.280552 345.961968 
L 57.828177 343.243718 
L 58.375803 339.075156 
L 58.923428 332.029564 
L 59.471054 318.4326 
L 60.566305 257.247472 
L 61.11393 245.097128 
L 61.661556 241.721603 
L 62.209181 240.460876 
L 62.756807 239.844051 
L 63.852058 239.222521 
L 65.494934 238.727155 
L 68.780687 238.064208 
L 75.352193 237.000497 
L 84.661826 235.717112 
L 95.06671 234.505665 
L 106.01922 233.448977 
L 117.519355 232.5579 
L 129.567116 231.848382 
L 141.614876 231.357793 
L 154.210262 231.072946 
L 166.805649 231.019448 
L 178.853409 231.187046 
L 190.90117 231.5748 
L 202.401305 232.160204 
L 213.90144 232.970567 
L 224.85395 233.970957 
L 235.258834 235.152565 
L 244.568467 236.428208 
L 253.330475 237.849696 
L 260.997232 239.308542 
L 266.473487 240.534128 
L 269.211614 241.31772 
L 270.306865 241.775704 
L 270.85449 242.10562 
L 271.402116 242.595805 
L 271.949741 243.460448 
L 272.497367 245.393842 
L 273.044992 251.28881 
L 273.592618 272.386685 
L 274.140243 306.618701 
L 274.687869 326.477104 
L 275.235494 336.148998 
L 275.78312 341.507894 
L 276.330745 344.842249 
L 276.878371 347.093911 
L 277.425996 348.704944 
L 277.973622 349.906873 
L 279.068873 351.559743 
L 280.164124 352.614328 
L 281.259375 353.31241 
L 282.354626 353.770576 
L 283.449876 354.045043 
L 284.545127 354.15337 
L 285.640378 354.072219 
L 286.735629 353.695832 
L 287.283255 353.30078 
L 287.83088 352.621182 
L 288.378506 351.313613 
L 288.926131 348.058213 
L 289.473757 331.683431 
L 290.021382 301.136385 
L 290.569008 300.578306 
L 292.75951 301.321767 
L 304.259645 305.431274 
L 304.80727 305.642846 
L 305.354896 360.210952 
L 305.902521 360.521534 
L 307.545398 360.609115 
L 308.093023 360.617281 
L 308.093023 360.617281 
" style="fill:none;stroke:#ed2200;stroke-dasharray:1.2,1.98;stroke-dashoffset:0;stroke-width:1.2;"/>
   </g>
   <g id="line2d_58">
    <path clip-path="url(#p7e8bd4ecd1)" d="M 34.827907 359.485062 
L 39.756536 359.651116 
L 45.232791 359.614079 
L 47.423293 359.461018 
L 48.518544 359.225221 
L 49.06617 358.883636 
L 49.613795 356.879449 
L 50.161421 300.223729 
L 55.09005 298.741742 
L 62.209181 296.823502 
L 69.875938 294.98542 
L 78.09032 293.243563 
L 86.852328 291.616908 
L 96.161961 290.124349 
L 105.471594 288.852816 
L 115.328853 287.727794 
L 125.733737 286.76943 
L 136.138621 286.031832 
L 147.091131 285.481815 
L 158.043641 285.155248 
L 168.99615 285.046765 
L 179.94866 285.154313 
L 190.90117 285.479053 
L 201.853679 286.025423 
L 212.806189 286.801379 
L 223.211073 287.76199 
L 233.068332 288.88579 
L 242.925591 290.233627 
L 252.235224 291.730764 
L 260.997232 293.35916 
L 269.211614 295.10112 
L 276.878371 296.940469 
L 283.449876 298.728125 
L 283.997502 352.259799 
L 284.545127 357.426323 
L 285.092753 358.171036 
L 285.640378 358.482221 
L 286.735629 358.773256 
L 288.926131 358.99674 
L 292.211884 359.077717 
L 296.592888 358.970897 
L 300.426266 358.686564 
L 303.712019 358.224721 
L 305.902521 357.722184 
L 307.545398 357.17096 
L 308.093023 356.938612 
L 308.093023 356.938612 
" style="fill:none;stroke:#104e8b;stroke-dasharray:1.2,1.98;stroke-dashoffset:0;stroke-width:1.2;"/>
   </g>
   <g id="line2d_59">
    <path clip-path="url(#p7e8bd4ecd1)" d="M 34.827907 354.911296 
L 37.018409 355.745972 
L 40.851787 357.071645 
L 41.947038 357.707483 
L 42.494664 358.216417 
L 43.042289 359.031748 
L 43.589915 360.609563 
L 44.13754 356.273005 
L 44.685166 324.67495 
L 45.232791 303.307641 
L 45.780417 302.132267 
L 46.328042 301.70464 
L 47.423293 301.188591 
L 49.06617 300.607216 
L 49.613795 300.516818 
L 50.161421 359.996942 
L 50.709046 360.216582 
L 51.256671 359.927828 
L 52.899548 359.554435 
L 55.09005 359.090827 
L 56.185301 358.718114 
L 57.280552 358.094963 
L 57.828177 357.589058 
L 58.375803 356.819532 
L 58.923428 355.526268 
L 59.471054 353.040044 
L 60.566305 341.914705 
L 61.11393 339.770909 
L 61.661556 339.243096 
L 62.209181 339.105434 
L 63.852058 339.159243 
L 71.518814 340.063247 
L 80.828448 341.018192 
L 91.233332 341.851209 
L 102.185841 342.500544 
L 114.233602 342.985103 
L 126.828988 343.267159 
L 139.972 343.340404 
L 153.662637 343.189637 
L 166.805649 342.827838 
L 179.94866 342.243355 
L 192.544046 341.45485 
L 204.044181 340.514803 
L 214.996691 339.394934 
L 224.85395 338.169959 
L 234.163583 336.793562 
L 242.925591 335.272379 
L 251.139973 333.616991 
L 258.80673 331.844033 
L 266.473487 329.835647 
L 270.85449 328.712151 
L 271.949741 328.688882 
L 272.497367 329.031553 
L 273.044992 330.49237 
L 273.592618 336.239281 
L 274.140243 345.736289 
L 274.687869 351.271622 
L 275.235494 353.978332 
L 275.78312 355.486538 
L 276.330745 356.432758 
L 276.878371 357.079402 
L 277.973622 357.909714 
L 279.068873 358.433225 
L 282.354626 359.676888 
L 282.902251 360.216304 
L 283.449876 359.179612 
L 283.997502 299.446461 
L 284.545127 299.124126 
L 286.188004 299.600238 
L 287.83088 300.256186 
L 288.378506 300.612617 
L 288.926131 301.380815 
L 289.473757 307.62207 
L 290.021382 351.217685 
L 290.569008 359.247644 
L 291.116633 359.77834 
L 291.664259 358.701039 
L 292.211884 358.0614 
L 293.307135 357.296421 
L 294.950012 356.589423 
L 299.331016 354.891408 
L 300.973892 353.989826 
L 302.616768 352.766306 
L 303.712019 351.673277 
L 304.80727 350.253807 
L 305.354896 353.738791 
L 306.997772 353.427617 
L 308.093023 353.269138 
L 308.093023 353.269138 
" style="fill:none;stroke:#68838b;stroke-dasharray:1.2,1.98;stroke-dashoffset:0;stroke-width:1.2;"/>
   </g>
   <g id="line2d_60">
    <path clip-path="url(#p7e8bd4ecd1)" d="M 34.827907 360.577234 
L 37.018409 360.427538 
L 38.11366 360.13043 
L 38.661285 359.578079 
L 39.208911 351.909542 
L 39.756536 334.670835 
L 41.947038 335.133335 
L 43.589915 335.528298 
L 44.13754 335.804256 
L 44.685166 341.635586 
L 45.232791 355.726395 
L 45.780417 357.812861 
L 46.328042 358.582496 
L 47.423293 359.341159 
L 48.518544 360.018914 
L 49.06617 360.568539 
L 49.613795 356.598718 
L 50.161421 242.000273 
L 51.256671 241.680165 
L 54.542424 241.059337 
L 56.185301 240.919618 
L 57.280552 241.04829 
L 57.828177 241.30022 
L 58.375803 241.87027 
L 58.923428 243.25569 
L 59.471054 247.316885 
L 60.018679 262.171269 
L 60.566305 297.513581 
L 61.11393 323.88843 
L 61.661556 336.458889 
L 62.209181 343.078354 
L 62.756807 347.053412 
L 63.304432 349.678926 
L 63.852058 351.534332 
L 64.399683 352.912224 
L 65.494934 354.81937 
L 66.590185 356.077808 
L 67.685436 356.9744 
L 69.328312 357.933985 
L 71.518814 358.840761 
L 72.06644 359.043912 
L 72.614065 359.710375 
L 73.709316 359.766278 
L 78.637946 359.437752 
L 95.06671 357.943512 
L 107.114471 357.352455 
L 124.090861 356.749583 
L 145.448255 356.224049 
L 169.543776 355.859421 
L 191.448795 355.739639 
L 208.425185 355.853369 
L 218.830069 356.114437 
L 224.85395 356.458055 
L 229.234954 356.93598 
L 233.615957 357.682939 
L 239.639838 358.717706 
L 244.020842 359.202834 
L 249.497097 359.557329 
L 257.163853 359.800367 
L 261.544857 359.845416 
L 262.092483 359.496111 
L 262.640108 358.85305 
L 264.83061 357.885727 
L 266.473487 356.871371 
L 267.568737 355.915652 
L 268.663988 354.556273 
L 269.211614 353.631587 
L 269.759239 352.453254 
L 270.306865 350.90095 
L 270.85449 348.766739 
L 271.402116 345.660651 
L 271.949741 340.769988 
L 272.497367 332.165268 
L 273.044992 314.804114 
L 273.592618 281.673516 
L 274.140243 255.41641 
L 274.687869 247.552028 
L 275.235494 245.221852 
L 275.78312 244.365297 
L 276.330745 244.01877 
L 277.425996 243.871925 
L 279.068873 244.097822 
L 281.807 244.815795 
L 282.902251 245.189116 
L 283.449876 245.548217 
L 283.997502 350.109919 
L 284.545127 359.793744 
L 285.092753 360.072033 
L 285.640378 359.400637 
L 287.83088 357.437566 
L 288.378506 356.441357 
L 288.926131 354.197279 
L 289.473757 343.390889 
L 290.021382 322.414004 
L 290.569008 321.525659 
L 292.211884 320.770867 
L 293.854761 320.173632 
L 294.402386 348.479577 
L 294.950012 358.850289 
L 295.497637 359.749926 
L 296.045263 360.077514 
L 297.140514 360.347516 
L 299.331016 360.530338 
L 303.712019 360.630473 
L 304.259645 360.586714 
L 304.80727 360.422584 
L 305.354896 305.858376 
L 305.902521 306.085207 
L 306.450147 358.504543 
L 306.997772 359.750815 
L 307.545398 359.969028 
L 308.093023 360.052847 
L 308.093023 360.052847 
" style="fill:none;stroke:#ffa07a;stroke-dasharray:1.2,1.98;stroke-dashoffset:0;stroke-width:1.2;"/>
   </g>
   <g id="patch_13">
    <path d="M 57.6 367.2 
L 57.6 223.2 
" style="fill:none;stroke:#2b2b2b;stroke-linecap:square;stroke-linejoin:miter;stroke-width:0.8;"/>
   </g>
   <g id="patch_14">
    <path d="M 285.32093 367.2 
L 285.32093 223.2 
" style="fill:none;stroke:#2b2b2b;stroke-linecap:square;stroke-linejoin:miter;stroke-width:0.8;"/>
   </g>
   <g id="patch_15">
    <path d="M 57.6 367.2 
L 285.32093 367.2 
" style="fill:none;stroke:#2b2b2b;stroke-linecap:square;stroke-linejoin:miter;stroke-width:0.8;"/>
   </g>
   <g id="patch_16">
    <path d="M 57.6 223.2 
L 285.32093 223.2 
" style="fill:none;stroke:#2b2b2b;stroke-linecap:square;stroke-linejoin:miter;stroke-width:0.8;"/>
   </g>
  </g>
  <g id="axes_4">
   <g id="patch_17">
    <path d="M 319.47907 367.2 
L 547.2 367.2 
L 547.2 223.2 
L 319.47907 223.2 
z
" style="fill:none;"/>
   </g>
   <g id="matplotlib.axis_7">
    <g id="xtick_14">
     <g id="line2d_61">
      <path clip-path="url(#p117ad9f811)" d="M 357.432558 367.2 
L 357.432558 223.2 
" style="fill:none;stroke:#b2b2b2;stroke-dasharray:2.96,1.28;stroke-dashoffset:0;stroke-opacity:0.3;stroke-width:0.8;"/>
     </g>
     <g id="line2d_62">
      <g>
       <use style="fill:#2b2b2b;stroke:#2b2b2b;stroke-width:0.8;" x="357.432558" xlink:href="#mdbf5e46236" y="367.2"/>
      </g>
     </g>
     <g id="text_17">
      <!-- 0.9 -->
      <defs>
       <path d="M 10.984375 1.515625 
L 10.984375 10.5 
Q 14.703125 8.734375 18.5 7.8125 
Q 22.3125 6.890625 25.984375 6.890625 
Q 35.75 6.890625 40.890625 13.453125 
Q 46.046875 20.015625 46.78125 33.40625 
Q 43.953125 29.203125 39.59375 26.953125 
Q 35.25 24.703125 29.984375 24.703125 
Q 19.046875 24.703125 12.671875 31.3125 
Q 6.296875 37.9375 6.296875 49.421875 
Q 6.296875 60.640625 12.9375 67.421875 
Q 19.578125 74.21875 30.609375 74.21875 
Q 43.265625 74.21875 49.921875 64.515625 
Q 56.59375 54.828125 56.59375 36.375 
Q 56.59375 19.140625 48.40625 8.859375 
Q 40.234375 -1.421875 26.421875 -1.421875 
Q 22.703125 -1.421875 18.890625 -0.6875 
Q 15.09375 0.046875 10.984375 1.515625 
z
M 30.609375 32.421875 
Q 37.25 32.421875 41.125 36.953125 
Q 45.015625 41.5 45.015625 49.421875 
Q 45.015625 57.28125 41.125 61.84375 
Q 37.25 66.40625 30.609375 66.40625 
Q 23.96875 66.40625 20.09375 61.84375 
Q 16.21875 57.28125 16.21875 49.421875 
Q 16.21875 41.5 20.09375 36.953125 
Q 23.96875 32.421875 30.609375 32.421875 
z
" id="DejaVuSans-57"/>
      </defs>
      <g style="fill:#2b2b2b;" transform="translate(346.300371 384.837812)scale(0.14 -0.14)">
       <use xlink:href="#DejaVuSans-48"/>
       <use x="63.623047" xlink:href="#DejaVuSans-46"/>
       <use x="95.410156" xlink:href="#DejaVuSans-57"/>
      </g>
     </g>
    </g>
    <g id="xtick_15">
     <g id="line2d_63">
      <path clip-path="url(#p117ad9f811)" d="M 433.339535 367.2 
L 433.339535 223.2 
" style="fill:none;stroke:#b2b2b2;stroke-dasharray:2.96,1.28;stroke-dashoffset:0;stroke-opacity:0.3;stroke-width:0.8;"/>
     </g>
     <g id="line2d_64">
      <g>
       <use style="fill:#2b2b2b;stroke:#2b2b2b;stroke-width:0.8;" x="433.339535" xlink:href="#mdbf5e46236" y="367.2"/>
      </g>
     </g>
     <g id="text_18">
      <!-- 1.0 -->
      <g style="fill:#2b2b2b;" transform="translate(422.207347 384.837812)scale(0.14 -0.14)">
       <use xlink:href="#DejaVuSans-49"/>
       <use x="63.623047" xlink:href="#DejaVuSans-46"/>
       <use x="95.410156" xlink:href="#DejaVuSans-48"/>
      </g>
     </g>
    </g>
    <g id="xtick_16">
     <g id="line2d_65">
      <path clip-path="url(#p117ad9f811)" d="M 509.246512 367.2 
L 509.246512 223.2 
" style="fill:none;stroke:#b2b2b2;stroke-dasharray:2.96,1.28;stroke-dashoffset:0;stroke-opacity:0.3;stroke-width:0.8;"/>
     </g>
     <g id="line2d_66">
      <g>
       <use style="fill:#2b2b2b;stroke:#2b2b2b;stroke-width:0.8;" x="509.246512" xlink:href="#mdbf5e46236" y="367.2"/>
      </g>
     </g>
     <g id="text_19">
      <!-- 1.1 -->
      <g style="fill:#2b2b2b;" transform="translate(498.114324 384.837812)scale(0.14 -0.14)">
       <use xlink:href="#DejaVuSans-49"/>
       <use x="63.623047" xlink:href="#DejaVuSans-46"/>
       <use x="95.410156" xlink:href="#DejaVuSans-49"/>
      </g>
     </g>
    </g>
    <g id="text_20">
     <!-- $\eta$ -->
     <defs>
      <path d="M 10.6875 -1.125 
Q 9.46875 -1.125 8.59375 -0.34375 
Q 7.71875 0.4375 7.71875 1.703125 
Q 7.71875 2.296875 7.8125 2.59375 
L 15.28125 32.421875 
Q 16.015625 35.203125 16.015625 37.3125 
Q 16.015625 41.609375 13.09375 41.609375 
Q 9.96875 41.609375 8.453125 37.859375 
Q 6.9375 34.125 5.515625 28.421875 
Q 5.515625 28.125 5.21875 27.953125 
Q 4.9375 27.78125 4.6875 27.78125 
L 3.515625 27.78125 
Q 3.171875 27.78125 2.921875 28.140625 
Q 2.6875 28.515625 2.6875 28.8125 
Q 3.765625 33.15625 4.765625 36.171875 
Q 5.765625 39.203125 7.890625 41.6875 
Q 10.015625 44.1875 13.1875 44.1875 
Q 16.890625 44.1875 19.796875 41.84375 
Q 22.703125 39.5 22.703125 35.796875 
Q 25.640625 39.703125 29.59375 41.9375 
Q 33.546875 44.1875 38.1875 44.1875 
Q 43.40625 44.1875 46.546875 41.375 
Q 49.703125 38.578125 49.703125 33.40625 
Q 49.703125 30.421875 49.03125 27.875 
L 37.40625 -18.40625 
Q 37.109375 -19.828125 35.9375 -20.703125 
Q 34.765625 -21.578125 33.296875 -21.578125 
Q 32.078125 -21.578125 31.203125 -20.8125 
Q 30.328125 -20.0625 30.328125 -18.796875 
Q 30.328125 -18.21875 30.421875 -18.015625 
L 41.890625 28.078125 
Q 42.921875 32.171875 42.921875 34.90625 
Q 42.921875 37.703125 41.75 39.65625 
Q 40.578125 41.609375 37.984375 41.609375 
Q 28.171875 41.609375 21.6875 29.5 
L 14.890625 2.203125 
Q 14.546875 0.828125 13.34375 -0.140625 
Q 12.15625 -1.125 10.6875 -1.125 
z
" id="Cmmi10-180"/>
     </defs>
     <g transform="translate(429.839535 402.21875)scale(0.14 -0.14)">
      <use transform="translate(0 0.8125)" xlink:href="#Cmmi10-180"/>
     </g>
    </g>
   </g>
   <g id="matplotlib.axis_8">
    <g id="ytick_11">
     <g id="line2d_67">
      <path clip-path="url(#p117ad9f811)" d="M 319.47907 360.654545 
L 547.2 360.654545 
" style="fill:none;stroke:#b2b2b2;stroke-dasharray:2.96,1.28;stroke-dashoffset:0;stroke-opacity:0.3;stroke-width:0.8;"/>
     </g>
     <g id="line2d_68">
      <g>
       <use style="fill:#2b2b2b;stroke:#2b2b2b;stroke-width:0.8;" x="319.47907" xlink:href="#me409eb4f91" y="360.654545"/>
      </g>
     </g>
    </g>
    <g id="ytick_12">
     <g id="line2d_69">
      <path clip-path="url(#p117ad9f811)" d="M 319.47907 315.825021 
L 547.2 315.825021 
" style="fill:none;stroke:#b2b2b2;stroke-dasharray:2.96,1.28;stroke-dashoffset:0;stroke-opacity:0.3;stroke-width:0.8;"/>
     </g>
     <g id="line2d_70">
      <g>
       <use style="fill:#2b2b2b;stroke:#2b2b2b;stroke-width:0.8;" x="319.47907" xlink:href="#me409eb4f91" y="315.825021"/>
      </g>
     </g>
    </g>
    <g id="ytick_13">
     <g id="line2d_71">
      <path clip-path="url(#p117ad9f811)" d="M 319.47907 270.995497 
L 547.2 270.995497 
" style="fill:none;stroke:#b2b2b2;stroke-dasharray:2.96,1.28;stroke-dashoffset:0;stroke-opacity:0.3;stroke-width:0.8;"/>
     </g>
     <g id="line2d_72">
      <g>
       <use style="fill:#2b2b2b;stroke:#2b2b2b;stroke-width:0.8;" x="319.47907" xlink:href="#me409eb4f91" y="270.995497"/>
      </g>
     </g>
    </g>
    <g id="ytick_14">
     <g id="line2d_73">
      <path clip-path="url(#p117ad9f811)" d="M 319.47907 226.165973 
L 547.2 226.165973 
" style="fill:none;stroke:#b2b2b2;stroke-dasharray:2.96,1.28;stroke-dashoffset:0;stroke-opacity:0.3;stroke-width:0.8;"/>
     </g>
     <g id="line2d_74">
      <g>
       <use style="fill:#2b2b2b;stroke:#2b2b2b;stroke-width:0.8;" x="319.47907" xlink:href="#me409eb4f91" y="226.165973"/>
      </g>
     </g>
    </g>
   </g>
   <g id="line2d_75">
    <path clip-path="url(#p117ad9f811)" d="M 319.47907 256.803477 
L 329.50882 259.72611 
L 339.994469 263.017551 
L 352.531657 267.201577 
L 379.657574 276.340694 
L 388.091682 278.883718 
L 395.158098 280.790614 
L 401.768615 282.345802 
L 407.923235 283.565894 
L 413.849906 284.512822 
L 419.548628 285.198549 
L 425.24735 285.654327 
L 430.718123 285.869868 
L 436.188896 285.865273 
L 441.659669 285.640598 
L 447.130442 285.198549 
L 452.829164 284.512822 
L 458.527886 283.606561 
L 464.454557 282.444022 
L 470.837125 280.962383 
L 477.675592 279.142455 
L 485.425854 276.840468 
L 494.771758 273.81884 
L 510.272282 268.528568 
L 526.228703 263.165551 
L 537.170249 259.72611 
L 547.2 256.803477 
L 547.2 256.803477 
" style="fill:none;stroke:#104e8b;stroke-linecap:square;stroke-width:1.2;"/>
   </g>
   <g id="line2d_76">
    <path clip-path="url(#p117ad9f811)" d="M 319.47907 234.231427 
L 339.310622 237.231227 
L 346.149089 237.941374 
L 352.759606 238.404618 
L 359.142175 238.625994 
L 365.296794 238.61765 
L 371.451414 238.384403 
L 377.606034 237.924212 
L 383.760654 237.242054 
L 390.371171 236.279841 
L 397.893484 234.945107 
L 420.916321 230.649057 
L 425.703247 230.099094 
L 430.034276 229.812861 
L 434.365305 229.751929 
L 438.696334 229.921397 
L 443.255311 230.332987 
L 448.270186 231.018971 
L 454.424806 232.099129 
L 479.499183 236.772238 
L 485.881752 237.597533 
L 492.036371 238.173996 
L 498.190991 238.525045 
L 504.345611 238.64941 
L 510.50023 238.551709 
L 516.882799 238.225438 
L 523.493317 237.66107 
L 530.559732 236.826969 
L 538.537943 235.647649 
L 547.2 234.231427 
L 547.2 234.231427 
" style="fill:none;stroke:#ed2200;stroke-linecap:square;stroke-width:1.2;"/>
   </g>
   <g id="line2d_77">
    <path clip-path="url(#p117ad9f811)" d="M 319.47907 318.364858 
L 328.141127 317.134665 
L 337.487031 316.023578 
L 345.009344 315.340998 
L 351.391913 314.972577 
L 357.090635 314.860122 
L 362.10551 314.972216 
L 366.892437 315.300743 
L 371.223465 315.815439 
L 375.326545 316.520689 
L 379.201676 317.404841 
L 383.076807 318.523741 
L 386.723989 319.811766 
L 390.371171 321.347107 
L 393.790404 323.027644 
L 397.209638 324.956243 
L 400.628871 327.145549 
L 404.048104 329.605524 
L 407.467337 332.342191 
L 410.88657 335.356151 
L 414.533752 338.869269 
L 418.408883 342.918367 
L 422.739912 347.782383 
L 427.982736 354.036207 
L 433.22556 360.512879 
L 433.453509 360.512879 
L 442.115567 349.919747 
L 446.902493 344.418753 
L 451.005573 340.027677 
L 454.880704 336.206074 
L 458.527886 332.922893 
L 461.947119 330.130615 
L 465.366352 327.615633 
L 468.785586 325.372883 
L 472.204819 323.393085 
L 475.624052 321.66404 
L 479.043285 320.171675 
L 482.690467 318.823602 
L 486.337649 317.708541 
L 490.21278 316.757703 
L 494.31586 315.988972 
L 498.646889 315.414914 
L 503.205866 315.042392 
L 507.992793 314.872396 
L 513.235617 314.90581 
L 519.162288 315.169621 
L 526.000754 315.7063 
L 533.978965 316.562596 
L 543.552818 317.822274 
L 547.2 318.364858 
L 547.2 318.364858 
" style="fill:none;stroke:#68838b;stroke-linecap:square;stroke-width:1.2;"/>
   </g>
   <g id="line2d_78">
    <path clip-path="url(#p117ad9f811)" d="M 319.47907 352.719494 
L 321.53061 353.988274 
L 323.810098 355.113188 
L 326.317536 356.100614 
L 329.280872 357.025183 
L 332.700105 357.859799 
L 336.803185 358.631724 
L 341.81806 359.342289 
L 347.97268 359.981498 
L 355.722942 360.553669 
L 358.230379 360.608306 
L 370.083721 360.061314 
L 387.407836 359.265308 
L 391.966813 358.821673 
L 394.7022 358.346183 
L 396.525791 357.826132 
L 397.893484 357.227513 
L 399.033229 356.493681 
L 399.945024 355.678022 
L 401.084768 354.328945 
L 402.680411 352.390095 
L 403.364257 351.883346 
L 404.048104 351.61962 
L 404.959899 351.543583 
L 406.099644 351.703133 
L 407.923235 352.213823 
L 412.254264 353.743876 
L 420.688372 356.695379 
L 428.894532 359.303751 
L 433.453509 360.620063 
L 445.306851 356.92179 
L 452.829164 354.321647 
L 459.895579 351.871373 
L 461.491221 351.558432 
L 462.403017 351.576016 
L 463.086864 351.770787 
L 463.77071 352.192225 
L 464.454557 352.866976 
L 467.417892 356.311404 
L 468.557637 357.101405 
L 469.92533 357.74207 
L 471.520972 358.237053 
L 473.800461 358.689979 
L 476.991745 359.077279 
L 482.006621 359.439159 
L 491.580473 359.866013 
L 511.184077 360.539526 
L 519.390237 359.920151 
L 525.772805 359.228108 
L 530.787681 358.477609 
L 534.890761 357.657105 
L 538.309994 356.763859 
L 541.273329 355.766879 
L 543.780767 354.693396 
L 545.832307 353.596506 
L 547.2 352.719494 
L 547.2 352.719494 
" style="fill:none;stroke:#ffa07a;stroke-linecap:square;stroke-width:1.2;"/>
   </g>
   <g id="patch_18">
    <path d="M 319.47907 367.2 
L 319.47907 223.2 
" style="fill:none;stroke:#2b2b2b;stroke-linecap:square;stroke-linejoin:miter;stroke-width:0.8;"/>
   </g>
   <g id="patch_19">
    <path d="M 547.2 367.2 
L 547.2 223.2 
" style="fill:none;stroke:#2b2b2b;stroke-linecap:square;stroke-linejoin:miter;stroke-width:0.8;"/>
   </g>
   <g id="patch_20">
    <path d="M 319.47907 367.2 
L 547.2 367.2 
" style="fill:none;stroke:#2b2b2b;stroke-linecap:square;stroke-linejoin:miter;stroke-width:0.8;"/>
   </g>
   <g id="patch_21">
    <path d="M 319.47907 223.2 
L 547.2 223.2 
" style="fill:none;stroke:#2b2b2b;stroke-linecap:square;stroke-linejoin:miter;stroke-width:0.8;"/>
   </g>
  </g>
 </g>
 <defs>
  <clipPath id="p04aacd7a78">
   <rect height="144" width="227.72093" x="57.6" y="43.2"/>
  </clipPath>
  <clipPath id="p9d8750da6e">
   <rect height="144" width="227.72093" x="319.47907" y="43.2"/>
  </clipPath>
  <clipPath id="p7e8bd4ecd1">
   <rect height="144" width="227.72093" x="57.6" y="223.2"/>
  </clipPath>
  <clipPath id="p117ad9f811">
   <rect height="144" width="227.72093" x="319.47907" y="223.2"/>
  </clipPath>
 </defs>
</svg>
