<?xml version="1.0" encoding="utf-8" standalone="no"?>
<!DOCTYPE svg PUBLIC "-//W3C//DTD SVG 1.1//EN"
  "http://www.w3.org/Graphics/SVG/1.1/DTD/svg11.dtd">
<!-- Created with matplotlib (https://matplotlib.org/) -->
<svg height="108pt" version="1.1" viewBox="0 0 360 108" width="360pt" xmlns="http://www.w3.org/2000/svg" xmlns:xlink="http://www.w3.org/1999/xlink">
 <defs>
  <style type="text/css">
*{stroke-linecap:butt;stroke-linejoin:round;}
  </style>
 </defs>
 <g id="figure_1">
  <g id="patch_1">
   <path d="M 0 108 
L 360 108 
L 360 0 
L 0 0 
z
" style="fill:none;"/>
  </g>
  <g id="axes_1">
   <g id="patch_2">
    <path d="M 43.2 64.8 
L 96.832653 64.8 
L 96.832653 21.6 
L 43.2 21.6 
z
" style="fill:none;"/>
   </g>
   <g id="matplotlib.axis_1">
    <g id="xtick_1">
     <g id="line2d_1">
      <path clip-path="url(#p252e2997ce)" d="M 70.016327 64.8 
L 70.016327 21.6 
" style="fill:none;stroke:#b2b2b2;stroke-dasharray:2.96,1.28;stroke-dashoffset:0;stroke-opacity:0.3;stroke-width:0.8;"/>
     </g>
     <g id="line2d_2">
      <defs>
       <path d="M 0 0 
L 0 3.5 
" id="me3baf3ff26" style="stroke:#2b2b2b;stroke-width:0.8;"/>
      </defs>
      <g>
       <use style="fill:#2b2b2b;stroke:#2b2b2b;stroke-width:0.8;" x="70.016327" xlink:href="#me3baf3ff26" y="64.8"/>
      </g>
     </g>
     <g id="text_1">
      <!-- 0.5 -->
      <defs>
       <path d="M 31.78125 66.40625 
Q 24.171875 66.40625 20.328125 58.90625 
Q 16.5 51.421875 16.5 36.375 
Q 16.5 21.390625 20.328125 13.890625 
Q 24.171875 6.390625 31.78125 6.390625 
Q 39.453125 6.390625 43.28125 13.890625 
Q 47.125 21.390625 47.125 36.375 
Q 47.125 51.421875 43.28125 58.90625 
Q 39.453125 66.40625 31.78125 66.40625 
z
M 31.78125 74.21875 
Q 44.046875 74.21875 50.515625 64.515625 
Q 56.984375 54.828125 56.984375 36.375 
Q 56.984375 17.96875 50.515625 8.265625 
Q 44.046875 -1.421875 31.78125 -1.421875 
Q 19.53125 -1.421875 13.0625 8.265625 
Q 6.59375 17.96875 6.59375 36.375 
Q 6.59375 54.828125 13.0625 64.515625 
Q 19.53125 74.21875 31.78125 74.21875 
z
" id="DejaVuSans-48"/>
       <path d="M 10.6875 12.40625 
L 21 12.40625 
L 21 0 
L 10.6875 0 
z
" id="DejaVuSans-46"/>
       <path d="M 10.796875 72.90625 
L 49.515625 72.90625 
L 49.515625 64.59375 
L 19.828125 64.59375 
L 19.828125 46.734375 
Q 21.96875 47.46875 24.109375 47.828125 
Q 26.265625 48.1875 28.421875 48.1875 
Q 40.625 48.1875 47.75 41.5 
Q 54.890625 34.8125 54.890625 23.390625 
Q 54.890625 11.625 47.5625 5.09375 
Q 40.234375 -1.421875 26.90625 -1.421875 
Q 22.3125 -1.421875 17.546875 -0.640625 
Q 12.796875 0.140625 7.71875 1.703125 
L 7.71875 11.625 
Q 12.109375 9.234375 16.796875 8.0625 
Q 21.484375 6.890625 26.703125 6.890625 
Q 35.15625 6.890625 40.078125 11.328125 
Q 45.015625 15.765625 45.015625 23.390625 
Q 45.015625 31 40.078125 35.4375 
Q 35.15625 39.890625 26.703125 39.890625 
Q 22.75 39.890625 18.8125 39.015625 
Q 14.890625 38.140625 10.796875 36.28125 
z
" id="DejaVuSans-53"/>
      </defs>
      <g style="fill:#2b2b2b;" transform="translate(61.269608 80.158281)scale(0.11 -0.11)">
       <use xlink:href="#DejaVuSans-48"/>
       <use x="63.623047" xlink:href="#DejaVuSans-46"/>
       <use x="95.410156" xlink:href="#DejaVuSans-53"/>
      </g>
     </g>
    </g>
    <g id="text_2">
     <!-- $\varphi_+/2\pi$ -->
     <defs>
      <path d="M 16.3125 -19 
Q 16.3125 -18.609375 16.5 -17.828125 
L 22.125 -0.203125 
Q 14.65625 1.65625 9.8125 6.6875 
Q 4.984375 11.71875 4.984375 19 
Q 4.984375 22.65625 6.34375 27.25 
Q 7.71875 31.84375 9.859375 35.96875 
Q 12.015625 40.09375 14.5 42.828125 
Q 15.09375 43.109375 15.1875 43.109375 
L 16.40625 43.109375 
Q 16.703125 43.109375 16.9375 42.8125 
Q 17.1875 42.53125 17.1875 42.1875 
Q 17.1875 41.796875 17 41.609375 
Q 15.328125 39.796875 13.734375 37.1875 
Q 12.15625 34.578125 10.90625 31.6875 
Q 9.671875 28.8125 8.84375 25.640625 
Q 8.015625 22.46875 8.015625 20.125 
Q 8.015625 14.203125 12.71875 10.5625 
Q 17.4375 6.9375 23.875 5.71875 
L 26.703125 14.703125 
Q 28.5625 20.515625 30.390625 25.078125 
Q 32.234375 29.640625 34.984375 34 
Q 37.75 38.375 41.65625 41.28125 
Q 45.5625 44.1875 50.390625 44.1875 
Q 54.203125 44.1875 56.765625 42.28125 
Q 59.328125 40.375 60.5625 37.203125 
Q 61.8125 34.03125 61.8125 30.421875 
Q 61.8125 24.46875 59.171875 18.78125 
Q 56.546875 13.09375 51.953125 8.5625 
Q 47.359375 4.046875 41.59375 1.453125 
Q 35.84375 -1.125 29.984375 -1.125 
Q 29.203125 -1.078125 28.296875 -1.03125 
Q 27.390625 -0.984375 26.8125 -0.984375 
L 23.484375 -18.40625 
Q 23.1875 -19.875 21.984375 -20.828125 
Q 20.796875 -21.78125 19.28125 -21.78125 
Q 18.0625 -21.78125 17.1875 -21.015625 
Q 16.3125 -20.265625 16.3125 -19 
z
M 27.875 5.171875 
Q 29 5.078125 31.109375 5.078125 
Q 37.3125 5.078125 43.71875 8.125 
Q 50.140625 11.1875 54.359375 16.5 
Q 58.59375 21.828125 58.59375 28.078125 
Q 58.59375 30.90625 57.4375 33.15625 
Q 56.296875 35.40625 54.21875 36.6875 
Q 52.15625 37.984375 49.421875 37.984375 
Q 41.65625 37.984375 36.421875 30.46875 
Q 31.203125 22.953125 29.59375 14.3125 
z
" id="Cmmi10-39"/>
      <path d="M 7.515625 23 
Q 6.6875 23 6.140625 23.625 
Q 5.609375 24.265625 5.609375 25 
Q 5.609375 25.734375 6.140625 26.359375 
Q 6.6875 27 7.515625 27 
L 36.921875 27 
L 36.921875 56.5 
Q 36.921875 57.28125 37.5 57.78125 
Q 38.09375 58.296875 38.921875 58.296875 
Q 39.65625 58.296875 40.28125 57.78125 
Q 40.921875 57.28125 40.921875 56.5 
L 40.921875 27 
L 70.3125 27 
Q 71.046875 27 71.578125 26.359375 
Q 72.125 25.734375 72.125 25 
Q 72.125 24.265625 71.578125 23.625 
Q 71.046875 23 70.3125 23 
L 40.921875 23 
L 40.921875 -6.5 
Q 40.921875 -7.28125 40.28125 -7.78125 
Q 39.65625 -8.296875 38.921875 -8.296875 
Q 38.09375 -8.296875 37.5 -7.78125 
Q 36.921875 -7.28125 36.921875 -6.5 
L 36.921875 23 
z
" id="Cmr10-43"/>
      <path d="M 5.609375 -23 
Q 5.609375 -22.703125 5.71875 -22.609375 
L 40.484375 73.78125 
Q 40.671875 74.359375 41.15625 74.671875 
Q 41.65625 75 42.28125 75 
Q 43.171875 75 43.71875 74.453125 
Q 44.28125 73.921875 44.28125 73 
L 44.28125 72.609375 
L 9.515625 -23.78125 
Q 8.9375 -25 7.625 -25 
Q 6.78125 -25 6.1875 -24.40625 
Q 5.609375 -23.828125 5.609375 -23 
z
" id="Cmmi10-61"/>
      <path d="M 4.984375 0 
L 4.984375 2.6875 
Q 4.984375 2.9375 5.171875 3.21875 
L 20.703125 20.40625 
Q 24.21875 24.21875 26.40625 26.796875 
Q 28.609375 29.390625 30.75 32.765625 
Q 32.90625 36.140625 34.15625 39.625 
Q 35.40625 43.109375 35.40625 47.015625 
Q 35.40625 51.125 33.890625 54.859375 
Q 32.375 58.59375 29.375 60.84375 
Q 26.375 63.09375 22.125 63.09375 
Q 17.78125 63.09375 14.3125 60.46875 
Q 10.84375 57.859375 9.421875 53.71875 
Q 9.8125 53.8125 10.5 53.8125 
Q 12.75 53.8125 14.328125 52.296875 
Q 15.921875 50.78125 15.921875 48.390625 
Q 15.921875 46.09375 14.328125 44.5 
Q 12.75 42.921875 10.5 42.921875 
Q 8.15625 42.921875 6.5625 44.546875 
Q 4.984375 46.1875 4.984375 48.390625 
Q 4.984375 52.15625 6.390625 55.4375 
Q 7.8125 58.734375 10.46875 61.296875 
Q 13.140625 63.875 16.484375 65.234375 
Q 19.828125 66.609375 23.578125 66.609375 
Q 29.296875 66.609375 34.21875 64.1875 
Q 39.15625 61.765625 42.03125 57.34375 
Q 44.921875 52.9375 44.921875 47.015625 
Q 44.921875 42.671875 43.015625 38.765625 
Q 41.109375 34.859375 38.125 31.65625 
Q 35.15625 28.46875 30.515625 24.40625 
Q 25.875 20.359375 24.421875 19 
L 13.09375 8.109375 
L 22.703125 8.109375 
Q 29.78125 8.109375 34.546875 8.21875 
Q 39.3125 8.34375 39.59375 8.59375 
Q 40.765625 9.859375 42 17.828125 
L 44.921875 17.828125 
L 42.09375 0 
z
" id="Cmr10-50"/>
      <path d="M 10.109375 1.703125 
Q 10.109375 2.25 10.5 3.328125 
Q 13.28125 9.125 15.6875 14.71875 
Q 18.109375 20.3125 20.03125 25.609375 
Q 21.96875 30.90625 23.578125 36.921875 
L 17.1875 36.921875 
Q 13.53125 36.921875 10.34375 34.625 
Q 7.171875 32.328125 5.078125 28.8125 
Q 4.890625 28.421875 4.5 28.421875 
L 3.328125 28.421875 
Q 2.390625 28.421875 2.390625 29.390625 
Q 2.390625 29.59375 2.59375 29.984375 
Q 5.859375 35.546875 9.59375 39.328125 
Q 13.328125 43.109375 18.015625 43.109375 
L 54.296875 43.109375 
Q 55.328125 43.109375 56.046875 42.421875 
Q 56.78125 41.75 56.78125 40.578125 
Q 56.78125 39.109375 55.734375 38.015625 
Q 54.6875 36.921875 53.21875 36.921875 
L 40.484375 36.921875 
Q 38.875 29.046875 38.71875 21.578125 
Q 38.71875 11.96875 42.09375 4.203125 
Q 42.390625 3.609375 42.390625 2.984375 
Q 42.390625 1.90625 41.75 0.96875 
Q 41.109375 0.046875 40.109375 -0.53125 
Q 39.109375 -1.125 37.984375 -1.125 
Q 35.359375 -1.125 34.375 3.171875 
Q 33.40625 7.46875 33.40625 11.53125 
Q 33.40625 17.234375 34.375 22.53125 
Q 35.359375 27.828125 37.5 36.921875 
L 26.609375 36.921875 
Q 18.703125 4.890625 17.09375 1.609375 
Q 15.671875 -1.125 13.1875 -1.125 
Q 11.96875 -1.125 11.03125 -0.3125 
Q 10.109375 0.484375 10.109375 1.703125 
z
" id="Cmmi10-188"/>
     </defs>
     <g transform="translate(54.616327 93.945937)scale(0.1 -0.1)">
      <use xlink:href="#Cmmi10-39"/>
      <use transform="translate(77.671875 -17.00625)scale(0.7)" xlink:href="#Cmr10-43"/>
      <use transform="translate(150.720117 0)" xlink:href="#Cmmi10-61"/>
      <use transform="translate(200.720117 0)" xlink:href="#Cmr10-50"/>
      <use transform="translate(250.720117 0)" xlink:href="#Cmmi10-188"/>
     </g>
    </g>
   </g>
   <g id="matplotlib.axis_2">
    <g id="ytick_1">
     <g id="line2d_3">
      <path clip-path="url(#p252e2997ce)" d="M 43.2 54.478446 
L 96.832653 54.478446 
" style="fill:none;stroke:#b2b2b2;stroke-dasharray:2.96,1.28;stroke-dashoffset:0;stroke-opacity:0.3;stroke-width:0.8;"/>
     </g>
     <g id="line2d_4">
      <defs>
       <path d="M 0 0 
L -3.5 0 
" id="m64066c7495" style="stroke:#2b2b2b;stroke-width:0.8;"/>
      </defs>
      <g>
       <use style="fill:#2b2b2b;stroke:#2b2b2b;stroke-width:0.8;" x="43.2" xlink:href="#m64066c7495" y="54.478446"/>
      </g>
     </g>
     <g id="text_3">
      <!-- 10 -->
      <defs>
       <path d="M 12.40625 8.296875 
L 28.515625 8.296875 
L 28.515625 63.921875 
L 10.984375 60.40625 
L 10.984375 69.390625 
L 28.421875 72.90625 
L 38.28125 72.90625 
L 38.28125 8.296875 
L 54.390625 8.296875 
L 54.390625 0 
L 12.40625 0 
z
" id="DejaVuSans-49"/>
      </defs>
      <g style="fill:#2b2b2b;" transform="translate(22.2025 58.657586)scale(0.11 -0.11)">
       <use xlink:href="#DejaVuSans-49"/>
       <use x="63.623047" xlink:href="#DejaVuSans-48"/>
      </g>
     </g>
    </g>
    <g id="ytick_2">
     <g id="line2d_5">
      <path clip-path="url(#p252e2997ce)" d="M 43.2 43.371435 
L 96.832653 43.371435 
" style="fill:none;stroke:#b2b2b2;stroke-dasharray:2.96,1.28;stroke-dashoffset:0;stroke-opacity:0.3;stroke-width:0.8;"/>
     </g>
     <g id="line2d_6">
      <g>
       <use style="fill:#2b2b2b;stroke:#2b2b2b;stroke-width:0.8;" x="43.2" xlink:href="#m64066c7495" y="43.371435"/>
      </g>
     </g>
     <g id="text_4">
      <!-- 20 -->
      <defs>
       <path d="M 19.1875 8.296875 
L 53.609375 8.296875 
L 53.609375 0 
L 7.328125 0 
L 7.328125 8.296875 
Q 12.9375 14.109375 22.625 23.890625 
Q 32.328125 33.6875 34.8125 36.53125 
Q 39.546875 41.84375 41.421875 45.53125 
Q 43.3125 49.21875 43.3125 52.78125 
Q 43.3125 58.59375 39.234375 62.25 
Q 35.15625 65.921875 28.609375 65.921875 
Q 23.96875 65.921875 18.8125 64.3125 
Q 13.671875 62.703125 7.8125 59.421875 
L 7.8125 69.390625 
Q 13.765625 71.78125 18.9375 73 
Q 24.125 74.21875 28.421875 74.21875 
Q 39.75 74.21875 46.484375 68.546875 
Q 53.21875 62.890625 53.21875 53.421875 
Q 53.21875 48.921875 51.53125 44.890625 
Q 49.859375 40.875 45.40625 35.40625 
Q 44.1875 33.984375 37.640625 27.21875 
Q 31.109375 20.453125 19.1875 8.296875 
z
" id="DejaVuSans-50"/>
      </defs>
      <g style="fill:#2b2b2b;" transform="translate(22.2025 47.550576)scale(0.11 -0.11)">
       <use xlink:href="#DejaVuSans-50"/>
       <use x="63.623047" xlink:href="#DejaVuSans-48"/>
      </g>
     </g>
    </g>
    <g id="ytick_3">
     <g id="line2d_7">
      <path clip-path="url(#p252e2997ce)" d="M 43.2 32.264425 
L 96.832653 32.264425 
" style="fill:none;stroke:#b2b2b2;stroke-dasharray:2.96,1.28;stroke-dashoffset:0;stroke-opacity:0.3;stroke-width:0.8;"/>
     </g>
     <g id="line2d_8">
      <g>
       <use style="fill:#2b2b2b;stroke:#2b2b2b;stroke-width:0.8;" x="43.2" xlink:href="#m64066c7495" y="32.264425"/>
      </g>
     </g>
     <g id="text_5">
      <!-- 30 -->
      <defs>
       <path d="M 40.578125 39.3125 
Q 47.65625 37.796875 51.625 33 
Q 55.609375 28.21875 55.609375 21.1875 
Q 55.609375 10.40625 48.1875 4.484375 
Q 40.765625 -1.421875 27.09375 -1.421875 
Q 22.515625 -1.421875 17.65625 -0.515625 
Q 12.796875 0.390625 7.625 2.203125 
L 7.625 11.71875 
Q 11.71875 9.328125 16.59375 8.109375 
Q 21.484375 6.890625 26.8125 6.890625 
Q 36.078125 6.890625 40.9375 10.546875 
Q 45.796875 14.203125 45.796875 21.1875 
Q 45.796875 27.640625 41.28125 31.265625 
Q 36.765625 34.90625 28.71875 34.90625 
L 20.21875 34.90625 
L 20.21875 43.015625 
L 29.109375 43.015625 
Q 36.375 43.015625 40.234375 45.921875 
Q 44.09375 48.828125 44.09375 54.296875 
Q 44.09375 59.90625 40.109375 62.90625 
Q 36.140625 65.921875 28.71875 65.921875 
Q 24.65625 65.921875 20.015625 65.03125 
Q 15.375 64.15625 9.8125 62.3125 
L 9.8125 71.09375 
Q 15.4375 72.65625 20.34375 73.4375 
Q 25.25 74.21875 29.59375 74.21875 
Q 40.828125 74.21875 47.359375 69.109375 
Q 53.90625 64.015625 53.90625 55.328125 
Q 53.90625 49.265625 50.4375 45.09375 
Q 46.96875 40.921875 40.578125 39.3125 
z
" id="DejaVuSans-51"/>
      </defs>
      <g style="fill:#2b2b2b;" transform="translate(22.2025 36.443566)scale(0.11 -0.11)">
       <use xlink:href="#DejaVuSans-51"/>
       <use x="63.623047" xlink:href="#DejaVuSans-48"/>
      </g>
     </g>
    </g>
    <g id="text_6">
     <!-- $E_{10}/h$ (GHz) -->
     <defs>
      <path d="M 4.6875 0 
Q 3.71875 0 3.71875 1.3125 
Q 3.765625 1.5625 3.90625 2.171875 
Q 4.046875 2.78125 4.3125 3.140625 
Q 4.59375 3.515625 4.984375 3.515625 
Q 11.078125 3.515625 13.484375 4.203125 
Q 14.796875 4.640625 15.375 6.890625 
L 29.109375 61.8125 
Q 29.296875 62.796875 29.296875 63.1875 
Q 29.296875 64.265625 28.078125 64.40625 
Q 26.21875 64.796875 20.90625 64.796875 
Q 19.921875 64.796875 19.921875 66.109375 
Q 19.96875 66.359375 20.109375 66.96875 
Q 20.265625 67.578125 20.53125 67.9375 
Q 20.796875 68.3125 21.1875 68.3125 
L 75.390625 68.3125 
Q 76.421875 68.3125 76.421875 67 
L 74.03125 46.296875 
Q 74.03125 46.046875 73.65625 45.71875 
Q 73.296875 45.40625 73 45.40625 
L 72.125 45.40625 
Q 71.09375 45.40625 71.09375 46.6875 
Q 71.6875 51.5625 71.6875 53.90625 
Q 71.6875 57.90625 70.3125 60.125 
Q 68.953125 62.359375 66.671875 63.328125 
Q 64.40625 64.3125 61.640625 64.546875 
Q 58.890625 64.796875 54.390625 64.796875 
L 43.015625 64.796875 
Q 40.28125 64.796875 39.40625 64.328125 
Q 38.53125 63.875 37.796875 61.375 
L 31.78125 37.203125 
L 39.59375 37.203125 
Q 44.671875 37.203125 47.265625 37.90625 
Q 49.859375 38.625 51.359375 40.859375 
Q 52.875 43.109375 54.109375 48 
Q 54.203125 48.34375 54.46875 48.609375 
Q 54.734375 48.875 55.078125 48.875 
L 56 48.875 
Q 56.984375 48.875 56.984375 47.609375 
L 50.78125 22.90625 
Q 50.59375 22.015625 49.8125 22.015625 
L 48.875 22.015625 
Q 47.90625 22.015625 47.90625 23.296875 
Q 48.875 27.296875 48.875 29.203125 
Q 48.875 32.125 46.234375 32.90625 
Q 43.609375 33.6875 39.203125 33.6875 
L 30.90625 33.6875 
L 24.125 6.5 
Q 23.6875 5.28125 23.6875 4.296875 
Q 23.6875 3.515625 27.09375 3.515625 
L 39.203125 3.515625 
Q 46.4375 3.515625 50.921875 4.640625 
Q 55.421875 5.765625 58.375 8.21875 
Q 61.328125 10.6875 63.46875 14.5 
Q 65.625 18.3125 68.703125 25.59375 
Q 68.890625 26.21875 69.578125 26.21875 
L 70.515625 26.21875 
Q 70.90625 26.21875 71.1875 25.875 
Q 71.484375 25.53125 71.484375 25.09375 
Q 71.484375 24.90625 71.390625 24.703125 
L 61.078125 0.59375 
Q 60.890625 0 60.296875 0 
z
" id="Cmmi10-69"/>
      <path d="M 9.28125 0 
L 9.28125 3.515625 
Q 21.78125 3.515625 21.78125 6.6875 
L 21.78125 59.1875 
Q 16.609375 56.6875 8.6875 56.6875 
L 8.6875 60.203125 
Q 20.953125 60.203125 27.203125 66.609375 
L 28.609375 66.609375 
Q 28.953125 66.609375 29.265625 66.328125 
Q 29.59375 66.0625 29.59375 65.71875 
L 29.59375 6.6875 
Q 29.59375 3.515625 42.09375 3.515625 
L 42.09375 0 
z
" id="Cmr10-49"/>
      <path d="M 25 -2.203125 
Q 12.75 -2.203125 8.328125 7.875 
Q 3.90625 17.96875 3.90625 31.890625 
Q 3.90625 40.578125 5.484375 48.234375 
Q 7.078125 55.90625 11.78125 61.25 
Q 16.5 66.609375 25 66.609375 
Q 31.59375 66.609375 35.78125 63.375 
Q 39.984375 60.15625 42.1875 55.046875 
Q 44.390625 49.953125 45.1875 44.109375 
Q 46 38.28125 46 31.890625 
Q 46 23.296875 44.40625 15.796875 
Q 42.828125 8.296875 38.1875 3.046875 
Q 33.546875 -2.203125 25 -2.203125 
z
M 25 0.390625 
Q 30.5625 0.390625 33.296875 6.09375 
Q 36.03125 11.8125 36.671875 18.75 
Q 37.3125 25.6875 37.3125 33.5 
Q 37.3125 41.015625 36.671875 47.359375 
Q 36.03125 53.71875 33.3125 58.859375 
Q 30.609375 64.015625 25 64.015625 
Q 19.34375 64.015625 16.609375 58.828125 
Q 13.875 53.65625 13.234375 47.328125 
Q 12.59375 41.015625 12.59375 33.5 
Q 12.59375 27.9375 12.859375 23 
Q 13.140625 18.0625 14.3125 12.8125 
Q 15.484375 7.5625 18.09375 3.96875 
Q 20.703125 0.390625 25 0.390625 
z
" id="Cmr10-48"/>
      <path d="M 5.328125 1.8125 
Q 5.328125 2.390625 5.421875 2.6875 
L 19.921875 60.5 
Q 20.3125 62.203125 20.40625 63.1875 
Q 20.40625 64.796875 13.921875 64.796875 
Q 12.890625 64.796875 12.890625 66.109375 
Q 12.9375 66.359375 13.109375 66.984375 
Q 13.28125 67.625 13.546875 67.96875 
Q 13.8125 68.3125 14.3125 68.3125 
L 27.78125 69.390625 
L 28.078125 69.390625 
Q 28.078125 69.28125 28.421875 69.109375 
Q 28.765625 68.953125 28.8125 68.890625 
Q 29 68.40625 29 68.109375 
L 21.1875 36.921875 
Q 27.34375 44.1875 35.796875 44.1875 
Q 39.3125 44.1875 41.875 42.96875 
Q 44.4375 41.75 45.875 39.28125 
Q 47.3125 36.8125 47.3125 33.40625 
Q 47.3125 29.296875 45.484375 23.484375 
Q 43.65625 17.671875 40.921875 10.5 
Q 39.5 7.234375 39.5 4.5 
Q 39.5 1.515625 41.796875 1.515625 
Q 45.703125 1.515625 48.3125 5.6875 
Q 50.921875 9.859375 52 14.703125 
Q 52.203125 15.28125 52.78125 15.28125 
L 54 15.28125 
Q 54.390625 15.28125 54.640625 15.015625 
Q 54.890625 14.75 54.890625 14.40625 
Q 54.890625 14.3125 54.78125 14.109375 
Q 53.90625 10.5 52.171875 7 
Q 50.4375 3.515625 47.796875 1.1875 
Q 45.171875 -1.125 41.609375 -1.125 
Q 38.09375 -1.125 35.59375 1.296875 
Q 33.109375 3.71875 33.109375 7.171875 
Q 33.109375 9.03125 33.890625 11.078125 
Q 36.71875 18.609375 38.59375 24.515625 
Q 40.484375 30.421875 40.484375 34.90625 
Q 40.484375 37.796875 39.359375 39.703125 
Q 38.234375 41.609375 35.59375 41.609375 
Q 30.21875 41.609375 26.21875 38.3125 
Q 22.21875 35.015625 19.28125 29.59375 
L 12.5 2.296875 
Q 12.109375 0.78125 10.984375 -0.171875 
Q 9.859375 -1.125 8.40625 -1.125 
Q 7.125 -1.125 6.21875 -0.265625 
Q 5.328125 0.59375 5.328125 1.8125 
z
" id="Cmmi10-104"/>
      <path id="DejaVuSans-32"/>
      <path d="M 31 75.875 
Q 24.46875 64.65625 21.28125 53.65625 
Q 18.109375 42.671875 18.109375 31.390625 
Q 18.109375 20.125 21.3125 9.0625 
Q 24.515625 -2 31 -13.1875 
L 23.1875 -13.1875 
Q 15.875 -1.703125 12.234375 9.375 
Q 8.59375 20.453125 8.59375 31.390625 
Q 8.59375 42.28125 12.203125 53.3125 
Q 15.828125 64.359375 23.1875 75.875 
z
" id="DejaVuSans-40"/>
      <path d="M 59.515625 10.40625 
L 59.515625 29.984375 
L 43.40625 29.984375 
L 43.40625 38.09375 
L 69.28125 38.09375 
L 69.28125 6.78125 
Q 63.578125 2.734375 56.6875 0.65625 
Q 49.8125 -1.421875 42 -1.421875 
Q 24.90625 -1.421875 15.25 8.5625 
Q 5.609375 18.5625 5.609375 36.375 
Q 5.609375 54.25 15.25 64.234375 
Q 24.90625 74.21875 42 74.21875 
Q 49.125 74.21875 55.546875 72.453125 
Q 61.96875 70.703125 67.390625 67.28125 
L 67.390625 56.78125 
Q 61.921875 61.421875 55.765625 63.765625 
Q 49.609375 66.109375 42.828125 66.109375 
Q 29.4375 66.109375 22.71875 58.640625 
Q 16.015625 51.171875 16.015625 36.375 
Q 16.015625 21.625 22.71875 14.15625 
Q 29.4375 6.6875 42.828125 6.6875 
Q 48.046875 6.6875 52.140625 7.59375 
Q 56.25 8.5 59.515625 10.40625 
z
" id="DejaVuSans-71"/>
      <path d="M 9.8125 72.90625 
L 19.671875 72.90625 
L 19.671875 43.015625 
L 55.515625 43.015625 
L 55.515625 72.90625 
L 65.375 72.90625 
L 65.375 0 
L 55.515625 0 
L 55.515625 34.71875 
L 19.671875 34.71875 
L 19.671875 0 
L 9.8125 0 
z
" id="DejaVuSans-72"/>
      <path d="M 5.515625 54.6875 
L 48.1875 54.6875 
L 48.1875 46.484375 
L 14.40625 7.171875 
L 48.1875 7.171875 
L 48.1875 0 
L 4.296875 0 
L 4.296875 8.203125 
L 38.09375 47.515625 
L 5.515625 47.515625 
z
" id="DejaVuSans-122"/>
      <path d="M 8.015625 75.875 
L 15.828125 75.875 
Q 23.140625 64.359375 26.78125 53.3125 
Q 30.421875 42.28125 30.421875 31.390625 
Q 30.421875 20.453125 26.78125 9.375 
Q 23.140625 -1.703125 15.828125 -13.1875 
L 8.015625 -13.1875 
Q 14.5 -2 17.703125 9.0625 
Q 20.90625 20.125 20.90625 31.390625 
Q 20.90625 42.671875 17.703125 53.65625 
Q 14.5 64.65625 8.015625 75.875 
z
" id="DejaVuSans-41"/>
     </defs>
     <g transform="translate(16.2025 66.12)rotate(-90)scale(0.08 -0.08)">
      <use transform="translate(0 0.125)" xlink:href="#Cmmi10-69"/>
      <use transform="translate(73.779297 -16.88125)scale(0.7)" xlink:href="#Cmr10-49"/>
      <use transform="translate(108.779297 -16.88125)scale(0.7)" xlink:href="#Cmr10-48"/>
      <use transform="translate(150.156641 0.125)" xlink:href="#Cmmi10-61"/>
      <use transform="translate(200.156641 0.125)" xlink:href="#Cmmi10-104"/>
      <use transform="translate(257.773828 0.125)" xlink:href="#DejaVuSans-32"/>
      <use transform="translate(289.560938 0.125)" xlink:href="#DejaVuSans-40"/>
      <use transform="translate(328.574609 0.125)" xlink:href="#DejaVuSans-71"/>
      <use transform="translate(406.064844 0.125)" xlink:href="#DejaVuSans-72"/>
      <use transform="translate(481.260156 0.125)" xlink:href="#DejaVuSans-122"/>
      <use transform="translate(533.750391 0.125)" xlink:href="#DejaVuSans-41"/>
     </g>
    </g>
   </g>
   <g id="line2d_9">
    <path clip-path="url(#p252e2997ce)" d="M 33.561318 62.836364 
L 34.297782 58.9399 
L 35.034247 57.228705 
L 35.770712 57.069136 
L 36.507177 56.913471 
L 37.243642 56.761712 
L 37.980107 56.613829 
L 38.716571 56.469782 
L 39.453036 56.329532 
L 40.189501 56.19304 
L 40.925966 56.06027 
L 41.662431 55.931189 
L 42.398896 55.805765 
L 43.13536 55.683968 
L 43.871825 55.565769 
L 44.60829 55.451142 
L 45.344755 55.340061 
L 46.08122 55.232501 
L 46.817684 55.128438 
L 47.554149 55.027849 
L 48.290614 54.930713 
L 49.027079 54.837008 
L 49.763544 54.746715 
L 50.500009 54.659814 
L 51.236473 54.576286 
L 51.972938 54.496114 
L 52.709403 54.41928 
L 53.445868 54.345768 
L 54.182333 54.275563 
L 54.918798 54.208649 
L 55.655262 54.145013 
L 56.391727 54.08464 
L 57.128192 54.027519 
L 57.864657 53.973637 
L 58.601122 53.922983 
L 59.337587 53.875546 
L 60.074051 53.831316 
L 60.810516 53.790284 
L 61.546981 53.752441 
L 62.283446 53.717779 
L 63.019911 53.686292 
L 63.756376 53.657972 
L 64.49284 53.632813 
L 65.229305 53.610811 
L 65.96577 53.591961 
L 66.702235 53.576258 
L 67.4387 53.563699 
L 68.175164 53.554283 
L 68.911629 53.548006 
L 69.648094 53.544869 
L 70.384559 53.544869 
L 71.121024 53.548006 
L 71.857489 53.554283 
L 72.593953 53.563699 
L 73.330418 53.576258 
L 74.066883 53.591961 
L 74.803348 53.610811 
L 75.539813 53.632813 
L 76.276278 53.657972 
L 77.012742 53.686292 
L 77.749207 53.717779 
L 78.485672 53.752441 
L 79.222137 53.790284 
L 79.958602 53.831316 
L 80.695067 53.875546 
L 81.431531 53.922983 
L 82.167996 53.973637 
L 82.904461 54.027519 
L 83.640926 54.08464 
L 84.377391 54.145013 
L 85.113855 54.208649 
L 85.85032 54.275563 
L 86.586785 54.345768 
L 87.32325 54.41928 
L 88.059715 54.496114 
L 88.79618 54.576286 
L 89.532644 54.659814 
L 90.269109 54.746715 
L 91.005574 54.837008 
L 91.742039 54.930713 
L 92.478504 55.027849 
L 93.214969 55.128438 
L 93.951433 55.232501 
L 94.687898 55.340061 
L 95.424363 55.451142 
L 96.160828 55.565769 
L 96.897293 55.683968 
L 97.633758 55.805765 
L 98.370222 55.931189 
L 99.106687 56.06027 
L 99.843152 56.19304 
L 100.579617 56.329532 
L 101.316082 56.469782 
L 102.052547 56.613829 
L 102.789011 56.761712 
L 103.525476 56.913471 
L 104.261941 57.069136 
L 104.998406 57.228705 
L 105.734871 58.9399 
L 106.471335 62.836364 
" style="fill:none;stroke:#56b4e9;stroke-linecap:square;stroke-width:1.2;"/>
   </g>
   <g id="patch_3">
    <path d="M 43.2 64.8 
L 43.2 21.6 
" style="fill:none;stroke:#2b2b2b;stroke-linecap:square;stroke-linejoin:miter;stroke-width:0.8;"/>
   </g>
   <g id="patch_4">
    <path d="M 96.832653 64.8 
L 96.832653 21.6 
" style="fill:none;stroke:#2b2b2b;stroke-linecap:square;stroke-linejoin:miter;stroke-width:0.8;"/>
   </g>
   <g id="patch_5">
    <path d="M 43.2 64.8 
L 96.832653 64.8 
" style="fill:none;stroke:#2b2b2b;stroke-linecap:square;stroke-linejoin:miter;stroke-width:0.8;"/>
   </g>
   <g id="patch_6">
    <path d="M 43.2 21.6 
L 96.832653 21.6 
" style="fill:none;stroke:#2b2b2b;stroke-linecap:square;stroke-linejoin:miter;stroke-width:0.8;"/>
   </g>
   <g id="text_7">
    <!-- I -->
    <defs>
     <path d="M 9.8125 72.90625 
L 19.671875 72.90625 
L 19.671875 0 
L 9.8125 0 
z
" id="DejaVuSans-73"/>
    </defs>
    <g transform="translate(67.951327 15.6)scale(0.14 -0.14)">
     <use xlink:href="#DejaVuSans-73"/>
    </g>
   </g>
  </g>
  <g id="axes_2">
   <g id="patch_7">
    <path d="M 112.922449 64.8 
L 166.555102 64.8 
L 166.555102 21.6 
L 112.922449 21.6 
z
" style="fill:none;"/>
   </g>
   <g id="matplotlib.axis_3">
    <g id="xtick_2">
     <g id="line2d_10">
      <path clip-path="url(#peac57d1c0e)" d="M 121.861224 64.8 
L 121.861224 21.6 
" style="fill:none;stroke:#b2b2b2;stroke-dasharray:2.96,1.28;stroke-dashoffset:0;stroke-opacity:0.3;stroke-width:0.8;"/>
     </g>
     <g id="line2d_11">
      <g>
       <use style="fill:#2b2b2b;stroke:#2b2b2b;stroke-width:0.8;" x="121.861224" xlink:href="#me3baf3ff26" y="64.8"/>
      </g>
     </g>
     <g id="text_8">
      <!-- -0.1 -->
      <defs>
       <path d="M 4.890625 31.390625 
L 31.203125 31.390625 
L 31.203125 23.390625 
L 4.890625 23.390625 
z
" id="DejaVuSans-45"/>
      </defs>
      <g style="fill:#2b2b2b;" transform="translate(111.130209 80.158281)scale(0.11 -0.11)">
       <use xlink:href="#DejaVuSans-45"/>
       <use x="36.083984" xlink:href="#DejaVuSans-48"/>
       <use x="99.707031" xlink:href="#DejaVuSans-46"/>
       <use x="131.494141" xlink:href="#DejaVuSans-49"/>
      </g>
     </g>
    </g>
    <g id="xtick_3">
     <g id="line2d_12">
      <path clip-path="url(#peac57d1c0e)" d="M 139.738776 64.8 
L 139.738776 21.6 
" style="fill:none;stroke:#b2b2b2;stroke-dasharray:2.96,1.28;stroke-dashoffset:0;stroke-opacity:0.3;stroke-width:0.8;"/>
     </g>
     <g id="line2d_13">
      <g>
       <use style="fill:#2b2b2b;stroke:#2b2b2b;stroke-width:0.8;" x="139.738776" xlink:href="#me3baf3ff26" y="64.8"/>
      </g>
     </g>
     <g id="text_9">
      <!-- 0 -->
      <g style="fill:#2b2b2b;" transform="translate(136.239401 80.158281)scale(0.11 -0.11)">
       <use xlink:href="#DejaVuSans-48"/>
      </g>
     </g>
    </g>
    <g id="xtick_4">
     <g id="line2d_14">
      <path clip-path="url(#peac57d1c0e)" d="M 157.616327 64.8 
L 157.616327 21.6 
" style="fill:none;stroke:#b2b2b2;stroke-dasharray:2.96,1.28;stroke-dashoffset:0;stroke-opacity:0.3;stroke-width:0.8;"/>
     </g>
     <g id="line2d_15">
      <g>
       <use style="fill:#2b2b2b;stroke:#2b2b2b;stroke-width:0.8;" x="157.616327" xlink:href="#me3baf3ff26" y="64.8"/>
      </g>
     </g>
     <g id="text_10">
      <!-- 0.1 -->
      <g style="fill:#2b2b2b;" transform="translate(148.869608 80.158281)scale(0.11 -0.11)">
       <use xlink:href="#DejaVuSans-48"/>
       <use x="63.623047" xlink:href="#DejaVuSans-46"/>
       <use x="95.410156" xlink:href="#DejaVuSans-49"/>
      </g>
     </g>
    </g>
    <g id="text_11">
     <!-- $\varphi_-/2\pi$ -->
     <defs>
      <path d="M 10.203125 23 
Q 9.375 23 8.828125 23.625 
Q 8.296875 24.265625 8.296875 25 
Q 8.296875 25.734375 8.828125 26.359375 
Q 9.375 27 10.203125 27 
L 67.578125 27 
Q 68.359375 27 68.875 26.359375 
Q 69.390625 25.734375 69.390625 25 
Q 69.390625 24.265625 68.875 23.625 
Q 68.359375 23 67.578125 23 
z
" id="Cmsy10-161"/>
     </defs>
     <g transform="translate(118.178776 96.945937)scale(0.14 -0.14)">
      <use xlink:href="#Cmmi10-39"/>
      <use transform="translate(77.671875 -17.00625)scale(0.7)" xlink:href="#Cmsy10-161"/>
      <use transform="translate(150.720117 0)" xlink:href="#Cmmi10-61"/>
      <use transform="translate(200.720117 0)" xlink:href="#Cmr10-50"/>
      <use transform="translate(250.720117 0)" xlink:href="#Cmmi10-188"/>
     </g>
    </g>
   </g>
   <g id="matplotlib.axis_4">
    <g id="ytick_4">
     <g id="line2d_16">
      <path clip-path="url(#peac57d1c0e)" d="M 112.922449 54.478446 
L 166.555102 54.478446 
" style="fill:none;stroke:#b2b2b2;stroke-dasharray:2.96,1.28;stroke-dashoffset:0;stroke-opacity:0.3;stroke-width:0.8;"/>
     </g>
     <g id="line2d_17">
      <g>
       <use style="fill:#2b2b2b;stroke:#2b2b2b;stroke-width:0.8;" x="112.922449" xlink:href="#m64066c7495" y="54.478446"/>
      </g>
     </g>
    </g>
    <g id="ytick_5">
     <g id="line2d_18">
      <path clip-path="url(#peac57d1c0e)" d="M 112.922449 43.371435 
L 166.555102 43.371435 
" style="fill:none;stroke:#b2b2b2;stroke-dasharray:2.96,1.28;stroke-dashoffset:0;stroke-opacity:0.3;stroke-width:0.8;"/>
     </g>
     <g id="line2d_19">
      <g>
       <use style="fill:#2b2b2b;stroke:#2b2b2b;stroke-width:0.8;" x="112.922449" xlink:href="#m64066c7495" y="43.371435"/>
      </g>
     </g>
    </g>
    <g id="ytick_6">
     <g id="line2d_20">
      <path clip-path="url(#peac57d1c0e)" d="M 112.922449 32.264425 
L 166.555102 32.264425 
" style="fill:none;stroke:#b2b2b2;stroke-dasharray:2.96,1.28;stroke-dashoffset:0;stroke-opacity:0.3;stroke-width:0.8;"/>
     </g>
     <g id="line2d_21">
      <g>
       <use style="fill:#2b2b2b;stroke:#2b2b2b;stroke-width:0.8;" x="112.922449" xlink:href="#m64066c7495" y="32.264425"/>
      </g>
     </g>
    </g>
   </g>
   <g id="line2d_22">
    <path clip-path="url(#peac57d1c0e)" d="M 112.922449 24.427111 
L 113.464193 24.672322 
L 114.005937 24.929153 
L 114.547681 25.197024 
L 115.089425 25.475347 
L 115.631169 25.763596 
L 116.172913 26.061326 
L 116.714657 26.368195 
L 117.256401 26.683958 
L 117.798145 27.008467 
L 118.339889 27.341662 
L 118.881633 27.683561 
L 119.423377 28.034261 
L 119.965121 28.393926 
L 120.506865 28.762787 
L 121.048609 29.141144 
L 121.590353 29.52936 
L 122.132096 29.927869 
L 122.67384 30.337177 
L 123.215584 30.757869 
L 123.757328 31.190618 
L 124.299072 31.636192 
L 124.840816 32.095468 
L 125.38256 32.569451 
L 125.924304 33.059287 
L 126.466048 33.566289 
L 127.007792 34.091968 
L 127.549536 34.638061 
L 128.09128 35.206578 
L 128.633024 35.799848 
L 129.174768 36.420577 
L 129.716512 37.071914 
L 130.258256 37.75753 
L 130.8 38.481691 
L 131.341744 39.249329 
L 131.883488 40.066089 
L 132.425232 40.938297 
L 132.966976 41.872813 
L 133.50872 42.876649 
L 134.050464 43.956222 
L 134.592208 45.116106 
L 135.133952 46.357137 
L 135.675696 47.673862 
L 136.21744 49.051413 
L 136.759184 50.461959 
L 137.300928 51.860781 
L 137.842672 53.182038 
L 138.384416 54.335356 
L 138.92616 55.208119 
L 139.467904 55.683968 
L 140.009647 55.683968 
L 140.551391 55.208119 
L 141.093135 54.335356 
L 141.634879 53.182038 
L 142.176623 51.860781 
L 142.718367 50.461959 
L 143.260111 49.051413 
L 143.801855 47.673862 
L 144.343599 46.357137 
L 144.885343 45.116106 
L 145.427087 43.956222 
L 145.968831 42.876649 
L 146.510575 41.872813 
L 147.052319 40.938297 
L 147.594063 40.066089 
L 148.135807 39.249329 
L 148.677551 38.481691 
L 149.219295 37.75753 
L 149.761039 37.071914 
L 150.302783 36.420577 
L 150.844527 35.799848 
L 151.386271 35.206578 
L 151.928015 34.638061 
L 152.469759 34.091968 
L 153.011503 33.566289 
L 153.553247 33.059287 
L 154.094991 32.569451 
L 154.636735 32.095468 
L 155.178479 31.636192 
L 155.720223 31.190618 
L 156.261967 30.757869 
L 156.803711 30.337177 
L 157.345455 29.927869 
L 157.887199 29.52936 
L 158.428942 29.141144 
L 158.970686 28.762787 
L 159.51243 28.393926 
L 160.054174 28.034261 
L 160.595918 27.683561 
L 161.137662 27.341662 
L 161.679406 27.008467 
L 162.22115 26.683958 
L 162.762894 26.368195 
L 163.304638 26.061326 
L 163.846382 25.763596 
L 164.388126 25.475347 
L 164.92987 25.197024 
L 165.471614 24.929153 
L 166.013358 24.672322 
L 166.555102 24.427111 
" style="fill:none;stroke:#76ee00;stroke-linecap:square;stroke-width:1.2;"/>
   </g>
   <g id="patch_8">
    <path d="M 112.922449 64.8 
L 112.922449 21.6 
" style="fill:none;stroke:#2b2b2b;stroke-linecap:square;stroke-linejoin:miter;stroke-width:0.8;"/>
   </g>
   <g id="patch_9">
    <path d="M 166.555102 64.8 
L 166.555102 21.6 
" style="fill:none;stroke:#2b2b2b;stroke-linecap:square;stroke-linejoin:miter;stroke-width:0.8;"/>
   </g>
   <g id="patch_10">
    <path d="M 112.922449 64.8 
L 166.555102 64.8 
" style="fill:none;stroke:#2b2b2b;stroke-linecap:square;stroke-linejoin:miter;stroke-width:0.8;"/>
   </g>
   <g id="patch_11">
    <path d="M 112.922449 21.6 
L 166.555102 21.6 
" style="fill:none;stroke:#2b2b2b;stroke-linecap:square;stroke-linejoin:miter;stroke-width:0.8;"/>
   </g>
   <g id="text_12">
    <!-- II -->
    <g transform="translate(135.608776 15.6)scale(0.14 -0.14)">
     <use xlink:href="#DejaVuSans-73"/>
     <use x="29.492188" xlink:href="#DejaVuSans-73"/>
    </g>
   </g>
  </g>
  <g id="axes_3">
   <g id="patch_12">
    <path d="M 182.644898 64.8 
L 236.277551 64.8 
L 236.277551 21.6 
L 182.644898 21.6 
z
" style="fill:none;"/>
   </g>
   <g id="matplotlib.axis_5">
    <g id="xtick_5">
     <g id="line2d_23">
      <path clip-path="url(#p03319ec9de)" d="M 191.583673 64.8 
L 191.583673 21.6 
" style="fill:none;stroke:#b2b2b2;stroke-dasharray:2.96,1.28;stroke-dashoffset:0;stroke-opacity:0.3;stroke-width:0.8;"/>
     </g>
     <g id="line2d_24">
      <g>
       <use style="fill:#2b2b2b;stroke:#2b2b2b;stroke-width:0.8;" x="191.583673" xlink:href="#me3baf3ff26" y="64.8"/>
      </g>
     </g>
     <g id="text_13">
      <!-- -0.1 -->
      <g style="fill:#2b2b2b;" transform="translate(180.852658 80.158281)scale(0.11 -0.11)">
       <use xlink:href="#DejaVuSans-45"/>
       <use x="36.083984" xlink:href="#DejaVuSans-48"/>
       <use x="99.707031" xlink:href="#DejaVuSans-46"/>
       <use x="131.494141" xlink:href="#DejaVuSans-49"/>
      </g>
     </g>
    </g>
    <g id="xtick_6">
     <g id="line2d_25">
      <path clip-path="url(#p03319ec9de)" d="M 209.461224 64.8 
L 209.461224 21.6 
" style="fill:none;stroke:#b2b2b2;stroke-dasharray:2.96,1.28;stroke-dashoffset:0;stroke-opacity:0.3;stroke-width:0.8;"/>
     </g>
     <g id="line2d_26">
      <g>
       <use style="fill:#2b2b2b;stroke:#2b2b2b;stroke-width:0.8;" x="209.461224" xlink:href="#me3baf3ff26" y="64.8"/>
      </g>
     </g>
     <g id="text_14">
      <!-- 0 -->
      <g style="fill:#2b2b2b;" transform="translate(205.961849 80.158281)scale(0.11 -0.11)">
       <use xlink:href="#DejaVuSans-48"/>
      </g>
     </g>
    </g>
    <g id="xtick_7">
     <g id="line2d_27">
      <path clip-path="url(#p03319ec9de)" d="M 227.338776 64.8 
L 227.338776 21.6 
" style="fill:none;stroke:#b2b2b2;stroke-dasharray:2.96,1.28;stroke-dashoffset:0;stroke-opacity:0.3;stroke-width:0.8;"/>
     </g>
     <g id="line2d_28">
      <g>
       <use style="fill:#2b2b2b;stroke:#2b2b2b;stroke-width:0.8;" x="227.338776" xlink:href="#me3baf3ff26" y="64.8"/>
      </g>
     </g>
     <g id="text_15">
      <!-- 0.1 -->
      <g style="fill:#2b2b2b;" transform="translate(218.592057 80.158281)scale(0.11 -0.11)">
       <use xlink:href="#DejaVuSans-48"/>
       <use x="63.623047" xlink:href="#DejaVuSans-46"/>
       <use x="95.410156" xlink:href="#DejaVuSans-49"/>
      </g>
     </g>
    </g>
    <g id="text_16">
     <!-- $\varphi_-/2\pi$ -->
     <g transform="translate(187.901224 96.945937)scale(0.14 -0.14)">
      <use xlink:href="#Cmmi10-39"/>
      <use transform="translate(77.671875 -17.00625)scale(0.7)" xlink:href="#Cmsy10-161"/>
      <use transform="translate(150.720117 0)" xlink:href="#Cmmi10-61"/>
      <use transform="translate(200.720117 0)" xlink:href="#Cmr10-50"/>
      <use transform="translate(250.720117 0)" xlink:href="#Cmmi10-188"/>
     </g>
    </g>
   </g>
   <g id="matplotlib.axis_6">
    <g id="ytick_7">
     <g id="line2d_29">
      <path clip-path="url(#p03319ec9de)" d="M 182.644898 54.478446 
L 236.277551 54.478446 
" style="fill:none;stroke:#b2b2b2;stroke-dasharray:2.96,1.28;stroke-dashoffset:0;stroke-opacity:0.3;stroke-width:0.8;"/>
     </g>
     <g id="line2d_30">
      <g>
       <use style="fill:#2b2b2b;stroke:#2b2b2b;stroke-width:0.8;" x="182.644898" xlink:href="#m64066c7495" y="54.478446"/>
      </g>
     </g>
    </g>
    <g id="ytick_8">
     <g id="line2d_31">
      <path clip-path="url(#p03319ec9de)" d="M 182.644898 43.371435 
L 236.277551 43.371435 
" style="fill:none;stroke:#b2b2b2;stroke-dasharray:2.96,1.28;stroke-dashoffset:0;stroke-opacity:0.3;stroke-width:0.8;"/>
     </g>
     <g id="line2d_32">
      <g>
       <use style="fill:#2b2b2b;stroke:#2b2b2b;stroke-width:0.8;" x="182.644898" xlink:href="#m64066c7495" y="43.371435"/>
      </g>
     </g>
    </g>
    <g id="ytick_9">
     <g id="line2d_33">
      <path clip-path="url(#p03319ec9de)" d="M 182.644898 32.264425 
L 236.277551 32.264425 
" style="fill:none;stroke:#b2b2b2;stroke-dasharray:2.96,1.28;stroke-dashoffset:0;stroke-opacity:0.3;stroke-width:0.8;"/>
     </g>
     <g id="line2d_34">
      <g>
       <use style="fill:#2b2b2b;stroke:#2b2b2b;stroke-width:0.8;" x="182.644898" xlink:href="#m64066c7495" y="32.264425"/>
      </g>
     </g>
    </g>
   </g>
   <g id="line2d_35">
    <path clip-path="url(#p03319ec9de)" d="M 182.644898 23.738306 
L 183.186642 24.027926 
L 183.728386 24.32372 
L 184.27013 24.625814 
L 184.811874 24.934347 
L 185.353618 25.249478 
L 185.895362 25.57138 
L 186.437106 25.900251 
L 186.97885 26.236307 
L 187.520594 26.579788 
L 188.062338 26.930962 
L 188.604082 27.290121 
L 189.145826 27.657591 
L 189.68757 28.033731 
L 190.229314 28.418938 
L 190.771058 28.813649 
L 191.312801 29.218351 
L 191.854545 29.633582 
L 192.396289 30.059938 
L 192.938033 30.498085 
L 193.479777 30.948763 
L 194.021521 31.412797 
L 194.563265 31.891112 
L 195.105009 32.384746 
L 195.646753 32.894865 
L 196.188497 33.422784 
L 196.730241 33.969988 
L 197.271985 34.538157 
L 197.813729 35.129196 
L 198.355473 35.745265 
L 198.897217 36.388814 
L 199.438961 37.062609 
L 199.980705 37.769767 
L 200.522449 38.51376 
L 201.064193 39.298406 
L 201.605937 40.127797 
L 202.147681 41.006151 
L 202.689425 41.937528 
L 203.231169 42.925345 
L 203.772913 43.971629 
L 204.314657 45.075928 
L 204.856401 46.233835 
L 205.398145 47.43515 
L 205.939889 48.661724 
L 206.481633 49.885153 
L 207.023377 51.064544 
L 207.565121 52.14498 
L 208.106865 53.058153 
L 208.648609 53.728028 
L 209.190353 54.08464 
L 209.732096 54.08464 
L 210.27384 53.728028 
L 210.815584 53.058153 
L 211.357328 52.14498 
L 211.899072 51.064544 
L 212.440816 49.885153 
L 212.98256 48.661724 
L 213.524304 47.43515 
L 214.066048 46.233835 
L 214.607792 45.075928 
L 215.149536 43.971629 
L 215.69128 42.925345 
L 216.233024 41.937528 
L 216.774768 41.006151 
L 217.316512 40.127797 
L 217.858256 39.298406 
L 218.4 38.51376 
L 218.941744 37.769767 
L 219.483488 37.062609 
L 220.025232 36.388814 
L 220.566976 35.745265 
L 221.10872 35.129196 
L 221.650464 34.538157 
L 222.192208 33.969988 
L 222.733952 33.422784 
L 223.275696 32.894865 
L 223.81744 32.384746 
L 224.359184 31.891112 
L 224.900928 31.412797 
L 225.442672 30.948763 
L 225.984416 30.498085 
L 226.52616 30.059938 
L 227.067904 29.633582 
L 227.609647 29.218351 
L 228.151391 28.813649 
L 228.693135 28.418938 
L 229.234879 28.033731 
L 229.776623 27.657591 
L 230.318367 27.290121 
L 230.860111 26.930962 
L 231.401855 26.579788 
L 231.943599 26.236307 
L 232.485343 25.900251 
L 233.027087 25.57138 
L 233.568831 25.249478 
L 234.110575 24.934347 
L 234.652319 24.625814 
L 235.194063 24.32372 
L 235.735807 24.027926 
L 236.277551 23.738306 
" style="fill:none;stroke:#04f97f;stroke-linecap:square;stroke-width:1.2;"/>
   </g>
   <g id="patch_13">
    <path d="M 182.644898 64.8 
L 182.644898 21.6 
" style="fill:none;stroke:#2b2b2b;stroke-linecap:square;stroke-linejoin:miter;stroke-width:0.8;"/>
   </g>
   <g id="patch_14">
    <path d="M 236.277551 64.8 
L 236.277551 21.6 
" style="fill:none;stroke:#2b2b2b;stroke-linecap:square;stroke-linejoin:miter;stroke-width:0.8;"/>
   </g>
   <g id="patch_15">
    <path d="M 182.644898 64.8 
L 236.277551 64.8 
" style="fill:none;stroke:#2b2b2b;stroke-linecap:square;stroke-linejoin:miter;stroke-width:0.8;"/>
   </g>
   <g id="patch_16">
    <path d="M 182.644898 21.6 
L 236.277551 21.6 
" style="fill:none;stroke:#2b2b2b;stroke-linecap:square;stroke-linejoin:miter;stroke-width:0.8;"/>
   </g>
   <g id="text_17">
    <!-- III -->
    <g transform="translate(203.266224 15.6)scale(0.14 -0.14)">
     <use xlink:href="#DejaVuSans-73"/>
     <use x="29.492188" xlink:href="#DejaVuSans-73"/>
     <use x="58.984375" xlink:href="#DejaVuSans-73"/>
    </g>
   </g>
  </g>
  <g id="axes_4">
   <g id="patch_17">
    <path d="M 252.367347 64.8 
L 306 64.8 
L 306 21.6 
L 252.367347 21.6 
z
" style="fill:none;"/>
   </g>
   <g id="matplotlib.axis_7">
    <g id="xtick_8">
     <g id="line2d_36">
      <path clip-path="url(#p76a479bf20)" d="M 261.306122 64.8 
L 261.306122 21.6 
" style="fill:none;stroke:#b2b2b2;stroke-dasharray:2.96,1.28;stroke-dashoffset:0;stroke-opacity:0.3;stroke-width:0.8;"/>
     </g>
     <g id="line2d_37">
      <g>
       <use style="fill:#2b2b2b;stroke:#2b2b2b;stroke-width:0.8;" x="261.306122" xlink:href="#me3baf3ff26" y="64.8"/>
      </g>
     </g>
     <g id="text_18">
      <!-- -0.1 -->
      <g style="fill:#2b2b2b;" transform="translate(250.575107 80.158281)scale(0.11 -0.11)">
       <use xlink:href="#DejaVuSans-45"/>
       <use x="36.083984" xlink:href="#DejaVuSans-48"/>
       <use x="99.707031" xlink:href="#DejaVuSans-46"/>
       <use x="131.494141" xlink:href="#DejaVuSans-49"/>
      </g>
     </g>
    </g>
    <g id="xtick_9">
     <g id="line2d_38">
      <path clip-path="url(#p76a479bf20)" d="M 279.183673 64.8 
L 279.183673 21.6 
" style="fill:none;stroke:#b2b2b2;stroke-dasharray:2.96,1.28;stroke-dashoffset:0;stroke-opacity:0.3;stroke-width:0.8;"/>
     </g>
     <g id="line2d_39">
      <g>
       <use style="fill:#2b2b2b;stroke:#2b2b2b;stroke-width:0.8;" x="279.183673" xlink:href="#me3baf3ff26" y="64.8"/>
      </g>
     </g>
     <g id="text_19">
      <!-- 0 -->
      <g style="fill:#2b2b2b;" transform="translate(275.684298 80.158281)scale(0.11 -0.11)">
       <use xlink:href="#DejaVuSans-48"/>
      </g>
     </g>
    </g>
    <g id="xtick_10">
     <g id="line2d_40">
      <path clip-path="url(#p76a479bf20)" d="M 297.061224 64.8 
L 297.061224 21.6 
" style="fill:none;stroke:#b2b2b2;stroke-dasharray:2.96,1.28;stroke-dashoffset:0;stroke-opacity:0.3;stroke-width:0.8;"/>
     </g>
     <g id="line2d_41">
      <g>
       <use style="fill:#2b2b2b;stroke:#2b2b2b;stroke-width:0.8;" x="297.061224" xlink:href="#me3baf3ff26" y="64.8"/>
      </g>
     </g>
     <g id="text_20">
      <!-- 0.1 -->
      <g style="fill:#2b2b2b;" transform="translate(288.314506 80.158281)scale(0.11 -0.11)">
       <use xlink:href="#DejaVuSans-48"/>
       <use x="63.623047" xlink:href="#DejaVuSans-46"/>
       <use x="95.410156" xlink:href="#DejaVuSans-49"/>
      </g>
     </g>
    </g>
    <g id="text_21">
     <!-- $\varphi_-/2\pi$ -->
     <g transform="translate(257.623673 96.945937)scale(0.14 -0.14)">
      <use xlink:href="#Cmmi10-39"/>
      <use transform="translate(77.671875 -17.00625)scale(0.7)" xlink:href="#Cmsy10-161"/>
      <use transform="translate(150.720117 0)" xlink:href="#Cmmi10-61"/>
      <use transform="translate(200.720117 0)" xlink:href="#Cmr10-50"/>
      <use transform="translate(250.720117 0)" xlink:href="#Cmmi10-188"/>
     </g>
    </g>
   </g>
   <g id="matplotlib.axis_8">
    <g id="ytick_10">
     <g id="line2d_42">
      <path clip-path="url(#p76a479bf20)" d="M 252.367347 54.478446 
L 306 54.478446 
" style="fill:none;stroke:#b2b2b2;stroke-dasharray:2.96,1.28;stroke-dashoffset:0;stroke-opacity:0.3;stroke-width:0.8;"/>
     </g>
     <g id="line2d_43">
      <g>
       <use style="fill:#2b2b2b;stroke:#2b2b2b;stroke-width:0.8;" x="252.367347" xlink:href="#m64066c7495" y="54.478446"/>
      </g>
     </g>
    </g>
    <g id="ytick_11">
     <g id="line2d_44">
      <path clip-path="url(#p76a479bf20)" d="M 252.367347 43.371435 
L 306 43.371435 
" style="fill:none;stroke:#b2b2b2;stroke-dasharray:2.96,1.28;stroke-dashoffset:0;stroke-opacity:0.3;stroke-width:0.8;"/>
     </g>
     <g id="line2d_45">
      <g>
       <use style="fill:#2b2b2b;stroke:#2b2b2b;stroke-width:0.8;" x="252.367347" xlink:href="#m64066c7495" y="43.371435"/>
      </g>
     </g>
    </g>
    <g id="ytick_12">
     <g id="line2d_46">
      <path clip-path="url(#p76a479bf20)" d="M 252.367347 32.264425 
L 306 32.264425 
" style="fill:none;stroke:#b2b2b2;stroke-dasharray:2.96,1.28;stroke-dashoffset:0;stroke-opacity:0.3;stroke-width:0.8;"/>
     </g>
     <g id="line2d_47">
      <g>
       <use style="fill:#2b2b2b;stroke:#2b2b2b;stroke-width:0.8;" x="252.367347" xlink:href="#m64066c7495" y="32.264425"/>
      </g>
     </g>
    </g>
   </g>
   <g id="line2d_48">
    <path clip-path="url(#p76a479bf20)" d="M 252.367347 23.563636 
L 252.909091 23.858574 
L 253.450835 24.159502 
L 253.992579 24.466575 
L 254.534323 24.779963 
L 255.076067 25.09985 
L 255.617811 25.426437 
L 256.159555 25.759943 
L 256.701299 26.100606 
L 257.243043 26.448688 
L 257.784787 26.804473 
L 258.326531 27.168273 
L 258.868275 27.540428 
L 259.410019 27.921312 
L 259.951763 28.311335 
L 260.493506 28.710949 
L 261.03525 29.12065 
L 261.576994 29.540986 
L 262.118738 29.972561 
L 262.660482 30.416048 
L 263.202226 30.87219 
L 263.74397 31.341814 
L 264.285714 31.825843 
L 264.827458 32.325308 
L 265.369202 32.841362 
L 265.910946 33.375298 
L 266.45269 33.928571 
L 266.994434 34.502816 
L 267.536178 35.099873 
L 268.077922 35.721813 
L 268.619666 36.370961 
L 269.16141 37.049917 
L 269.703154 37.761568 
L 270.244898 38.509079 
L 270.786642 39.295857 
L 271.328386 40.125456 
L 271.87013 41.001401 
L 272.411874 41.926878 
L 272.953618 42.904247 
L 273.495362 43.934313 
L 274.037106 45.015306 
L 274.57885 46.141545 
L 275.120594 47.301796 
L 275.662338 48.477413 
L 276.204082 49.640409 
L 276.745826 50.751746 
L 277.28757 51.760502 
L 277.829314 52.605237 
L 278.371058 53.219726 
L 278.912801 53.544869 
L 279.454545 53.544869 
L 279.996289 53.219726 
L 280.538033 52.605237 
L 281.079777 51.760502 
L 281.621521 50.751746 
L 282.163265 49.640409 
L 282.705009 48.477413 
L 283.246753 47.301796 
L 283.788497 46.141545 
L 284.330241 45.015306 
L 284.871985 43.934313 
L 285.413729 42.904247 
L 285.955473 41.926878 
L 286.497217 41.001401 
L 287.038961 40.125456 
L 287.580705 39.295857 
L 288.122449 38.509079 
L 288.664193 37.761568 
L 289.205937 37.049917 
L 289.747681 36.370961 
L 290.289425 35.721813 
L 290.831169 35.099873 
L 291.372913 34.502816 
L 291.914657 33.928571 
L 292.456401 33.375298 
L 292.998145 32.841362 
L 293.539889 32.325308 
L 294.081633 31.825843 
L 294.623377 31.341814 
L 295.165121 30.87219 
L 295.706865 30.416048 
L 296.248609 29.972561 
L 296.790353 29.540986 
L 297.332096 29.12065 
L 297.87384 28.710949 
L 298.415584 28.311335 
L 298.957328 27.921312 
L 299.499072 27.540428 
L 300.040816 27.168273 
L 300.58256 26.804473 
L 301.124304 26.448688 
L 301.666048 26.100606 
L 302.207792 25.759943 
L 302.749536 25.426437 
L 303.29128 25.09985 
L 303.833024 24.779963 
L 304.374768 24.466575 
L 304.916512 24.159502 
L 305.458256 23.858574 
L 306 23.563636 
" style="fill:none;stroke:#00cd66;stroke-linecap:square;stroke-width:1.2;"/>
   </g>
   <g id="patch_18">
    <path d="M 252.367347 64.8 
L 252.367347 21.6 
" style="fill:none;stroke:#2b2b2b;stroke-linecap:square;stroke-linejoin:miter;stroke-width:0.8;"/>
   </g>
   <g id="patch_19">
    <path d="M 306 64.8 
L 306 21.6 
" style="fill:none;stroke:#2b2b2b;stroke-linecap:square;stroke-linejoin:miter;stroke-width:0.8;"/>
   </g>
   <g id="patch_20">
    <path d="M 252.367347 64.8 
L 306 64.8 
" style="fill:none;stroke:#2b2b2b;stroke-linecap:square;stroke-linejoin:miter;stroke-width:0.8;"/>
   </g>
   <g id="patch_21">
    <path d="M 252.367347 21.6 
L 306 21.6 
" style="fill:none;stroke:#2b2b2b;stroke-linecap:square;stroke-linejoin:miter;stroke-width:0.8;"/>
   </g>
   <g id="text_22">
    <!-- IV -->
    <defs>
     <path d="M 28.609375 0 
L 0.78125 72.90625 
L 11.078125 72.90625 
L 34.1875 11.53125 
L 57.328125 72.90625 
L 67.578125 72.90625 
L 39.796875 0 
z
" id="DejaVuSans-86"/>
    </defs>
    <g transform="translate(272.330236 15.6)scale(0.14 -0.14)">
     <use xlink:href="#DejaVuSans-73"/>
     <use x="29.492188" xlink:href="#DejaVuSans-86"/>
    </g>
   </g>
  </g>
 </g>
 <defs>
  <clipPath id="p252e2997ce">
   <rect height="43.2" width="53.632653" x="43.2" y="21.6"/>
  </clipPath>
  <clipPath id="peac57d1c0e">
   <rect height="43.2" width="53.632653" x="112.922449" y="21.6"/>
  </clipPath>
  <clipPath id="p03319ec9de">
   <rect height="43.2" width="53.632653" x="182.644898" y="21.6"/>
  </clipPath>
  <clipPath id="p76a479bf20">
   <rect height="43.2" width="53.632653" x="252.367347" y="21.6"/>
  </clipPath>
 </defs>
</svg>
