<?xml version="1.0" encoding="utf-8" standalone="no"?>
<!DOCTYPE svg PUBLIC "-//W3C//DTD SVG 1.1//EN"
  "http://www.w3.org/Graphics/SVG/1.1/DTD/svg11.dtd">
<!-- Created with matplotlib (https://matplotlib.org/) -->
<svg height="396pt" version="1.1" viewBox="0 0 720 396" width="720pt" xmlns="http://www.w3.org/2000/svg" xmlns:xlink="http://www.w3.org/1999/xlink">
 <defs>
  <style type="text/css">
*{stroke-linecap:butt;stroke-linejoin:round;}
  </style>
 </defs>
 <g id="figure_1">
  <g id="patch_1">
   <path d="M 0 396 
L 720 396 
L 720 0 
L 0 0 
z
" style="fill:none;"/>
  </g>
  <g id="axes_1">
   <g id="patch_2">
    <path d="M 144 336.6 
L 648 336.6 
L 648 39.6 
L 144 39.6 
z
" style="fill:none;"/>
   </g>
   <g id="matplotlib.axis_1">
    <g id="xtick_1">
     <g id="line2d_1">
      <path clip-path="url(#pba63681db3)" d="M 166.909091 336.6 
L 166.909091 39.6 
" style="fill:none;stroke:#b2b2b2;stroke-dasharray:2.96,1.28;stroke-dashoffset:0;stroke-opacity:0.3;stroke-width:0.8;"/>
     </g>
     <g id="line2d_2">
      <defs>
       <path d="M 0 0 
L 0 3.5 
" id="m454450a98d" style="stroke:#000000;stroke-width:0.8;"/>
      </defs>
      <g>
       <use style="stroke:#000000;stroke-width:0.8;" x="166.909091" xlink:href="#m454450a98d" y="336.6"/>
      </g>
     </g>
     <g id="text_1">
      <!-- −3 -->
      <defs>
       <path d="M 10.59375 35.5 
L 73.1875 35.5 
L 73.1875 27.203125 
L 10.59375 27.203125 
z
" id="DejaVuSans-8722"/>
       <path d="M 40.578125 39.3125 
Q 47.65625 37.796875 51.625 33 
Q 55.609375 28.21875 55.609375 21.1875 
Q 55.609375 10.40625 48.1875 4.484375 
Q 40.765625 -1.421875 27.09375 -1.421875 
Q 22.515625 -1.421875 17.65625 -0.515625 
Q 12.796875 0.390625 7.625 2.203125 
L 7.625 11.71875 
Q 11.71875 9.328125 16.59375 8.109375 
Q 21.484375 6.890625 26.8125 6.890625 
Q 36.078125 6.890625 40.9375 10.546875 
Q 45.796875 14.203125 45.796875 21.1875 
Q 45.796875 27.640625 41.28125 31.265625 
Q 36.765625 34.90625 28.71875 34.90625 
L 20.21875 34.90625 
L 20.21875 43.015625 
L 29.109375 43.015625 
Q 36.375 43.015625 40.234375 45.921875 
Q 44.09375 48.828125 44.09375 54.296875 
Q 44.09375 59.90625 40.109375 62.90625 
Q 36.140625 65.921875 28.71875 65.921875 
Q 24.65625 65.921875 20.015625 65.03125 
Q 15.375 64.15625 9.8125 62.3125 
L 9.8125 71.09375 
Q 15.4375 72.65625 20.34375 73.4375 
Q 25.25 74.21875 29.59375 74.21875 
Q 40.828125 74.21875 47.359375 69.109375 
Q 53.90625 64.015625 53.90625 55.328125 
Q 53.90625 49.265625 50.4375 45.09375 
Q 46.96875 40.921875 40.578125 39.3125 
z
" id="DejaVuSans-51"/>
      </defs>
      <g transform="translate(156.58956 354.237813)scale(0.14 -0.14)">
       <use xlink:href="#DejaVuSans-8722"/>
       <use x="83.789062" xlink:href="#DejaVuSans-51"/>
      </g>
     </g>
    </g>
    <g id="xtick_2">
     <g id="line2d_3">
      <path clip-path="url(#pba63681db3)" d="M 243.272727 336.6 
L 243.272727 39.6 
" style="fill:none;stroke:#b2b2b2;stroke-dasharray:2.96,1.28;stroke-dashoffset:0;stroke-opacity:0.3;stroke-width:0.8;"/>
     </g>
     <g id="line2d_4">
      <g>
       <use style="stroke:#000000;stroke-width:0.8;" x="243.272727" xlink:href="#m454450a98d" y="336.6"/>
      </g>
     </g>
     <g id="text_2">
      <!-- −2 -->
      <defs>
       <path d="M 19.1875 8.296875 
L 53.609375 8.296875 
L 53.609375 0 
L 7.328125 0 
L 7.328125 8.296875 
Q 12.9375 14.109375 22.625 23.890625 
Q 32.328125 33.6875 34.8125 36.53125 
Q 39.546875 41.84375 41.421875 45.53125 
Q 43.3125 49.21875 43.3125 52.78125 
Q 43.3125 58.59375 39.234375 62.25 
Q 35.15625 65.921875 28.609375 65.921875 
Q 23.96875 65.921875 18.8125 64.3125 
Q 13.671875 62.703125 7.8125 59.421875 
L 7.8125 69.390625 
Q 13.765625 71.78125 18.9375 73 
Q 24.125 74.21875 28.421875 74.21875 
Q 39.75 74.21875 46.484375 68.546875 
Q 53.21875 62.890625 53.21875 53.421875 
Q 53.21875 48.921875 51.53125 44.890625 
Q 49.859375 40.875 45.40625 35.40625 
Q 44.1875 33.984375 37.640625 27.21875 
Q 31.109375 20.453125 19.1875 8.296875 
z
" id="DejaVuSans-50"/>
      </defs>
      <g transform="translate(232.953196 354.237813)scale(0.14 -0.14)">
       <use xlink:href="#DejaVuSans-8722"/>
       <use x="83.789062" xlink:href="#DejaVuSans-50"/>
      </g>
     </g>
    </g>
    <g id="xtick_3">
     <g id="line2d_5">
      <path clip-path="url(#pba63681db3)" d="M 319.636364 336.6 
L 319.636364 39.6 
" style="fill:none;stroke:#b2b2b2;stroke-dasharray:2.96,1.28;stroke-dashoffset:0;stroke-opacity:0.3;stroke-width:0.8;"/>
     </g>
     <g id="line2d_6">
      <g>
       <use style="stroke:#000000;stroke-width:0.8;" x="319.636364" xlink:href="#m454450a98d" y="336.6"/>
      </g>
     </g>
     <g id="text_3">
      <!-- −1 -->
      <defs>
       <path d="M 12.40625 8.296875 
L 28.515625 8.296875 
L 28.515625 63.921875 
L 10.984375 60.40625 
L 10.984375 69.390625 
L 28.421875 72.90625 
L 38.28125 72.90625 
L 38.28125 8.296875 
L 54.390625 8.296875 
L 54.390625 0 
L 12.40625 0 
z
" id="DejaVuSans-49"/>
      </defs>
      <g transform="translate(309.316832 354.237813)scale(0.14 -0.14)">
       <use xlink:href="#DejaVuSans-8722"/>
       <use x="83.789062" xlink:href="#DejaVuSans-49"/>
      </g>
     </g>
    </g>
    <g id="xtick_4">
     <g id="line2d_7">
      <path clip-path="url(#pba63681db3)" d="M 396 336.6 
L 396 39.6 
" style="fill:none;stroke:#b2b2b2;stroke-dasharray:2.96,1.28;stroke-dashoffset:0;stroke-opacity:0.3;stroke-width:0.8;"/>
     </g>
     <g id="line2d_8">
      <g>
       <use style="stroke:#000000;stroke-width:0.8;" x="396" xlink:href="#m454450a98d" y="336.6"/>
      </g>
     </g>
     <g id="text_4">
      <!-- 0 -->
      <defs>
       <path d="M 31.78125 66.40625 
Q 24.171875 66.40625 20.328125 58.90625 
Q 16.5 51.421875 16.5 36.375 
Q 16.5 21.390625 20.328125 13.890625 
Q 24.171875 6.390625 31.78125 6.390625 
Q 39.453125 6.390625 43.28125 13.890625 
Q 47.125 21.390625 47.125 36.375 
Q 47.125 51.421875 43.28125 58.90625 
Q 39.453125 66.40625 31.78125 66.40625 
z
M 31.78125 74.21875 
Q 44.046875 74.21875 50.515625 64.515625 
Q 56.984375 54.828125 56.984375 36.375 
Q 56.984375 17.96875 50.515625 8.265625 
Q 44.046875 -1.421875 31.78125 -1.421875 
Q 19.53125 -1.421875 13.0625 8.265625 
Q 6.59375 17.96875 6.59375 36.375 
Q 6.59375 54.828125 13.0625 64.515625 
Q 19.53125 74.21875 31.78125 74.21875 
z
" id="DejaVuSans-48"/>
      </defs>
      <g transform="translate(391.54625 354.237813)scale(0.14 -0.14)">
       <use xlink:href="#DejaVuSans-48"/>
      </g>
     </g>
    </g>
    <g id="xtick_5">
     <g id="line2d_9">
      <path clip-path="url(#pba63681db3)" d="M 472.363636 336.6 
L 472.363636 39.6 
" style="fill:none;stroke:#b2b2b2;stroke-dasharray:2.96,1.28;stroke-dashoffset:0;stroke-opacity:0.3;stroke-width:0.8;"/>
     </g>
     <g id="line2d_10">
      <g>
       <use style="stroke:#000000;stroke-width:0.8;" x="472.363636" xlink:href="#m454450a98d" y="336.6"/>
      </g>
     </g>
     <g id="text_5">
      <!-- 1 -->
      <g transform="translate(467.909886 354.237813)scale(0.14 -0.14)">
       <use xlink:href="#DejaVuSans-49"/>
      </g>
     </g>
    </g>
    <g id="xtick_6">
     <g id="line2d_11">
      <path clip-path="url(#pba63681db3)" d="M 548.727273 336.6 
L 548.727273 39.6 
" style="fill:none;stroke:#b2b2b2;stroke-dasharray:2.96,1.28;stroke-dashoffset:0;stroke-opacity:0.3;stroke-width:0.8;"/>
     </g>
     <g id="line2d_12">
      <g>
       <use style="stroke:#000000;stroke-width:0.8;" x="548.727273" xlink:href="#m454450a98d" y="336.6"/>
      </g>
     </g>
     <g id="text_6">
      <!-- 2 -->
      <g transform="translate(544.273523 354.237813)scale(0.14 -0.14)">
       <use xlink:href="#DejaVuSans-50"/>
      </g>
     </g>
    </g>
    <g id="xtick_7">
     <g id="line2d_13">
      <path clip-path="url(#pba63681db3)" d="M 625.090909 336.6 
L 625.090909 39.6 
" style="fill:none;stroke:#b2b2b2;stroke-dasharray:2.96,1.28;stroke-dashoffset:0;stroke-opacity:0.3;stroke-width:0.8;"/>
     </g>
     <g id="line2d_14">
      <g>
       <use style="stroke:#000000;stroke-width:0.8;" x="625.090909" xlink:href="#m454450a98d" y="336.6"/>
      </g>
     </g>
     <g id="text_7">
      <!-- 3 -->
      <g transform="translate(620.637159 354.237813)scale(0.14 -0.14)">
       <use xlink:href="#DejaVuSans-51"/>
      </g>
     </g>
    </g>
    <g id="text_8">
     <!-- Magnetic Flux ($\Phi$) -->
     <defs>
      <path d="M 9.8125 72.90625 
L 24.515625 72.90625 
L 43.109375 23.296875 
L 61.8125 72.90625 
L 76.515625 72.90625 
L 76.515625 0 
L 66.890625 0 
L 66.890625 64.015625 
L 48.09375 14.015625 
L 38.1875 14.015625 
L 19.390625 64.015625 
L 19.390625 0 
L 9.8125 0 
z
" id="DejaVuSans-77"/>
      <path d="M 34.28125 27.484375 
Q 23.390625 27.484375 19.1875 25 
Q 14.984375 22.515625 14.984375 16.5 
Q 14.984375 11.71875 18.140625 8.90625 
Q 21.296875 6.109375 26.703125 6.109375 
Q 34.1875 6.109375 38.703125 11.40625 
Q 43.21875 16.703125 43.21875 25.484375 
L 43.21875 27.484375 
z
M 52.203125 31.203125 
L 52.203125 0 
L 43.21875 0 
L 43.21875 8.296875 
Q 40.140625 3.328125 35.546875 0.953125 
Q 30.953125 -1.421875 24.3125 -1.421875 
Q 15.921875 -1.421875 10.953125 3.296875 
Q 6 8.015625 6 15.921875 
Q 6 25.140625 12.171875 29.828125 
Q 18.359375 34.515625 30.609375 34.515625 
L 43.21875 34.515625 
L 43.21875 35.40625 
Q 43.21875 41.609375 39.140625 45 
Q 35.0625 48.390625 27.6875 48.390625 
Q 23 48.390625 18.546875 47.265625 
Q 14.109375 46.140625 10.015625 43.890625 
L 10.015625 52.203125 
Q 14.9375 54.109375 19.578125 55.046875 
Q 24.21875 56 28.609375 56 
Q 40.484375 56 46.34375 49.84375 
Q 52.203125 43.703125 52.203125 31.203125 
z
" id="DejaVuSans-97"/>
      <path d="M 45.40625 27.984375 
Q 45.40625 37.75 41.375 43.109375 
Q 37.359375 48.484375 30.078125 48.484375 
Q 22.859375 48.484375 18.828125 43.109375 
Q 14.796875 37.75 14.796875 27.984375 
Q 14.796875 18.265625 18.828125 12.890625 
Q 22.859375 7.515625 30.078125 7.515625 
Q 37.359375 7.515625 41.375 12.890625 
Q 45.40625 18.265625 45.40625 27.984375 
z
M 54.390625 6.78125 
Q 54.390625 -7.171875 48.1875 -13.984375 
Q 42 -20.796875 29.203125 -20.796875 
Q 24.46875 -20.796875 20.265625 -20.09375 
Q 16.0625 -19.390625 12.109375 -17.921875 
L 12.109375 -9.1875 
Q 16.0625 -11.328125 19.921875 -12.34375 
Q 23.78125 -13.375 27.78125 -13.375 
Q 36.625 -13.375 41.015625 -8.765625 
Q 45.40625 -4.15625 45.40625 5.171875 
L 45.40625 9.625 
Q 42.625 4.78125 38.28125 2.390625 
Q 33.9375 0 27.875 0 
Q 17.828125 0 11.671875 7.65625 
Q 5.515625 15.328125 5.515625 27.984375 
Q 5.515625 40.671875 11.671875 48.328125 
Q 17.828125 56 27.875 56 
Q 33.9375 56 38.28125 53.609375 
Q 42.625 51.21875 45.40625 46.390625 
L 45.40625 54.6875 
L 54.390625 54.6875 
z
" id="DejaVuSans-103"/>
      <path d="M 54.890625 33.015625 
L 54.890625 0 
L 45.90625 0 
L 45.90625 32.71875 
Q 45.90625 40.484375 42.875 44.328125 
Q 39.84375 48.1875 33.796875 48.1875 
Q 26.515625 48.1875 22.3125 43.546875 
Q 18.109375 38.921875 18.109375 30.90625 
L 18.109375 0 
L 9.078125 0 
L 9.078125 54.6875 
L 18.109375 54.6875 
L 18.109375 46.1875 
Q 21.34375 51.125 25.703125 53.5625 
Q 30.078125 56 35.796875 56 
Q 45.21875 56 50.046875 50.171875 
Q 54.890625 44.34375 54.890625 33.015625 
z
" id="DejaVuSans-110"/>
      <path d="M 56.203125 29.59375 
L 56.203125 25.203125 
L 14.890625 25.203125 
Q 15.484375 15.921875 20.484375 11.0625 
Q 25.484375 6.203125 34.421875 6.203125 
Q 39.59375 6.203125 44.453125 7.46875 
Q 49.3125 8.734375 54.109375 11.28125 
L 54.109375 2.78125 
Q 49.265625 0.734375 44.1875 -0.34375 
Q 39.109375 -1.421875 33.890625 -1.421875 
Q 20.796875 -1.421875 13.15625 6.1875 
Q 5.515625 13.8125 5.515625 26.8125 
Q 5.515625 40.234375 12.765625 48.109375 
Q 20.015625 56 32.328125 56 
Q 43.359375 56 49.78125 48.890625 
Q 56.203125 41.796875 56.203125 29.59375 
z
M 47.21875 32.234375 
Q 47.125 39.59375 43.09375 43.984375 
Q 39.0625 48.390625 32.421875 48.390625 
Q 24.90625 48.390625 20.390625 44.140625 
Q 15.875 39.890625 15.1875 32.171875 
z
" id="DejaVuSans-101"/>
      <path d="M 18.3125 70.21875 
L 18.3125 54.6875 
L 36.8125 54.6875 
L 36.8125 47.703125 
L 18.3125 47.703125 
L 18.3125 18.015625 
Q 18.3125 11.328125 20.140625 9.421875 
Q 21.96875 7.515625 27.59375 7.515625 
L 36.8125 7.515625 
L 36.8125 0 
L 27.59375 0 
Q 17.1875 0 13.234375 3.875 
Q 9.28125 7.765625 9.28125 18.015625 
L 9.28125 47.703125 
L 2.6875 47.703125 
L 2.6875 54.6875 
L 9.28125 54.6875 
L 9.28125 70.21875 
z
" id="DejaVuSans-116"/>
      <path d="M 9.421875 54.6875 
L 18.40625 54.6875 
L 18.40625 0 
L 9.421875 0 
z
M 9.421875 75.984375 
L 18.40625 75.984375 
L 18.40625 64.59375 
L 9.421875 64.59375 
z
" id="DejaVuSans-105"/>
      <path d="M 48.78125 52.59375 
L 48.78125 44.1875 
Q 44.96875 46.296875 41.140625 47.34375 
Q 37.3125 48.390625 33.40625 48.390625 
Q 24.65625 48.390625 19.8125 42.84375 
Q 14.984375 37.3125 14.984375 27.296875 
Q 14.984375 17.28125 19.8125 11.734375 
Q 24.65625 6.203125 33.40625 6.203125 
Q 37.3125 6.203125 41.140625 7.25 
Q 44.96875 8.296875 48.78125 10.40625 
L 48.78125 2.09375 
Q 45.015625 0.34375 40.984375 -0.53125 
Q 36.96875 -1.421875 32.421875 -1.421875 
Q 20.0625 -1.421875 12.78125 6.34375 
Q 5.515625 14.109375 5.515625 27.296875 
Q 5.515625 40.671875 12.859375 48.328125 
Q 20.21875 56 33.015625 56 
Q 37.15625 56 41.109375 55.140625 
Q 45.0625 54.296875 48.78125 52.59375 
z
" id="DejaVuSans-99"/>
      <path id="DejaVuSans-32"/>
      <path d="M 9.8125 72.90625 
L 51.703125 72.90625 
L 51.703125 64.59375 
L 19.671875 64.59375 
L 19.671875 43.109375 
L 48.578125 43.109375 
L 48.578125 34.8125 
L 19.671875 34.8125 
L 19.671875 0 
L 9.8125 0 
z
" id="DejaVuSans-70"/>
      <path d="M 9.421875 75.984375 
L 18.40625 75.984375 
L 18.40625 0 
L 9.421875 0 
z
" id="DejaVuSans-108"/>
      <path d="M 8.5 21.578125 
L 8.5 54.6875 
L 17.484375 54.6875 
L 17.484375 21.921875 
Q 17.484375 14.15625 20.5 10.265625 
Q 23.53125 6.390625 29.59375 6.390625 
Q 36.859375 6.390625 41.078125 11.03125 
Q 45.3125 15.671875 45.3125 23.6875 
L 45.3125 54.6875 
L 54.296875 54.6875 
L 54.296875 0 
L 45.3125 0 
L 45.3125 8.40625 
Q 42.046875 3.421875 37.71875 1 
Q 33.40625 -1.421875 27.6875 -1.421875 
Q 18.265625 -1.421875 13.375 4.4375 
Q 8.5 10.296875 8.5 21.578125 
z
M 31.109375 56 
z
" id="DejaVuSans-117"/>
      <path d="M 54.890625 54.6875 
L 35.109375 28.078125 
L 55.90625 0 
L 45.3125 0 
L 29.390625 21.484375 
L 13.484375 0 
L 2.875 0 
L 24.125 28.609375 
L 4.6875 54.6875 
L 15.28125 54.6875 
L 29.78125 35.203125 
L 44.28125 54.6875 
z
" id="DejaVuSans-120"/>
      <path d="M 31 75.875 
Q 24.46875 64.65625 21.28125 53.65625 
Q 18.109375 42.671875 18.109375 31.390625 
Q 18.109375 20.125 21.3125 9.0625 
Q 24.515625 -2 31 -13.1875 
L 23.1875 -13.1875 
Q 15.875 -1.703125 12.234375 9.375 
Q 8.59375 20.453125 8.59375 31.390625 
Q 8.59375 42.28125 12.203125 53.3125 
Q 15.828125 64.359375 23.1875 75.875 
z
" id="DejaVuSans-40"/>
      <path d="M 18.609375 0 
L 18.609375 3.515625 
Q 31.390625 3.515625 31.390625 6.6875 
L 31.390625 13.921875 
Q 21.78125 14.84375 14.5 19.671875 
Q 10.6875 22.265625 8.140625 26.078125 
Q 5.609375 29.890625 5.609375 34.1875 
Q 5.609375 38.421875 8.140625 42.25 
Q 10.6875 46.09375 14.5 48.578125 
Q 18.265625 51.125 22.4375 52.515625 
Q 26.609375 53.90625 31.390625 54.390625 
L 31.390625 61.625 
Q 31.390625 64.796875 18.609375 64.796875 
L 18.609375 68.3125 
L 52.875 68.3125 
L 52.875 64.796875 
Q 40.09375 64.796875 40.09375 61.625 
L 40.09375 54.390625 
Q 44.234375 54.390625 48.875 52.84375 
Q 53.515625 51.3125 57.46875 48.671875 
Q 61.421875 46.046875 63.953125 42.265625 
Q 66.5 38.484375 66.5 34.1875 
Q 66.5 29.890625 63.953125 26.125 
Q 61.421875 22.359375 57.34375 19.625 
Q 53.265625 16.890625 48.625 15.40625 
Q 44 13.921875 40.09375 13.921875 
L 40.09375 6.6875 
Q 40.09375 3.515625 52.875 3.515625 
L 52.875 0 
z
M 40.09375 16.5 
Q 48.140625 17.53125 52.125 21.890625 
Q 56.109375 26.265625 56.109375 34.1875 
Q 56.109375 42.140625 52.078125 46.484375 
Q 48.046875 50.828125 40.09375 51.8125 
z
M 31.390625 16.609375 
L 31.390625 51.703125 
Q 16.015625 49.5625 16.015625 34.1875 
Q 16.015625 18.75 31.390625 16.609375 
z
" id="Cmr10-169"/>
      <path d="M 8.015625 75.875 
L 15.828125 75.875 
Q 23.140625 64.359375 26.78125 53.3125 
Q 30.421875 42.28125 30.421875 31.390625 
Q 30.421875 20.453125 26.78125 9.375 
Q 23.140625 -1.703125 15.828125 -13.1875 
L 8.015625 -13.1875 
Q 14.5 -2 17.703125 9.0625 
Q 20.90625 20.125 20.90625 31.390625 
Q 20.90625 42.671875 17.703125 53.65625 
Q 14.5 64.65625 8.015625 75.875 
z
" id="DejaVuSans-41"/>
     </defs>
     <g transform="translate(308 376.349375)scale(0.2 -0.2)">
      <use transform="translate(0 0.015625)" xlink:href="#DejaVuSans-77"/>
      <use transform="translate(86.279297 0.015625)" xlink:href="#DejaVuSans-97"/>
      <use transform="translate(147.558594 0.015625)" xlink:href="#DejaVuSans-103"/>
      <use transform="translate(211.035156 0.015625)" xlink:href="#DejaVuSans-110"/>
      <use transform="translate(274.414062 0.015625)" xlink:href="#DejaVuSans-101"/>
      <use transform="translate(335.9375 0.015625)" xlink:href="#DejaVuSans-116"/>
      <use transform="translate(375.146484 0.015625)" xlink:href="#DejaVuSans-105"/>
      <use transform="translate(402.929688 0.015625)" xlink:href="#DejaVuSans-99"/>
      <use transform="translate(457.910156 0.015625)" xlink:href="#DejaVuSans-32"/>
      <use transform="translate(489.697266 0.015625)" xlink:href="#DejaVuSans-70"/>
      <use transform="translate(547.216797 0.015625)" xlink:href="#DejaVuSans-108"/>
      <use transform="translate(575 0.015625)" xlink:href="#DejaVuSans-117"/>
      <use transform="translate(638.378906 0.015625)" xlink:href="#DejaVuSans-120"/>
      <use transform="translate(697.558594 0.015625)" xlink:href="#DejaVuSans-32"/>
      <use transform="translate(729.345703 0.015625)" xlink:href="#DejaVuSans-40"/>
      <use transform="translate(768.359375 0.015625)" xlink:href="#Cmr10-169"/>
      <use transform="translate(840.576172 0.015625)" xlink:href="#DejaVuSans-41"/>
     </g>
    </g>
   </g>
   <g id="matplotlib.axis_2">
    <g id="ytick_1">
     <g id="line2d_15">
      <path clip-path="url(#pba63681db3)" d="M 144 336.6 
L 648 336.6 
" style="fill:none;stroke:#b2b2b2;stroke-dasharray:2.96,1.28;stroke-dashoffset:0;stroke-opacity:0.3;stroke-width:0.8;"/>
     </g>
     <g id="line2d_16">
      <defs>
       <path d="M 0 0 
L -3.5 0 
" id="mc1373680ca" style="stroke:#000000;stroke-width:0.8;"/>
      </defs>
      <g>
       <use style="stroke:#000000;stroke-width:0.8;" x="144" xlink:href="#mc1373680ca" y="336.6"/>
      </g>
     </g>
     <g id="text_9">
      <!-- 0.0 -->
      <defs>
       <path d="M 10.6875 12.40625 
L 21 12.40625 
L 21 0 
L 10.6875 0 
z
" id="DejaVuSans-46"/>
      </defs>
      <g transform="translate(114.735625 341.918906)scale(0.14 -0.14)">
       <use xlink:href="#DejaVuSans-48"/>
       <use x="63.623047" xlink:href="#DejaVuSans-46"/>
       <use x="95.410156" xlink:href="#DejaVuSans-48"/>
      </g>
     </g>
    </g>
    <g id="ytick_2">
     <g id="line2d_17">
      <path clip-path="url(#pba63681db3)" d="M 144 299.475 
L 648 299.475 
" style="fill:none;stroke:#b2b2b2;stroke-dasharray:2.96,1.28;stroke-dashoffset:0;stroke-opacity:0.3;stroke-width:0.8;"/>
     </g>
     <g id="line2d_18">
      <g>
       <use style="stroke:#000000;stroke-width:0.8;" x="144" xlink:href="#mc1373680ca" y="299.475"/>
      </g>
     </g>
     <g id="text_10">
      <!-- 2.5 -->
      <defs>
       <path d="M 10.796875 72.90625 
L 49.515625 72.90625 
L 49.515625 64.59375 
L 19.828125 64.59375 
L 19.828125 46.734375 
Q 21.96875 47.46875 24.109375 47.828125 
Q 26.265625 48.1875 28.421875 48.1875 
Q 40.625 48.1875 47.75 41.5 
Q 54.890625 34.8125 54.890625 23.390625 
Q 54.890625 11.625 47.5625 5.09375 
Q 40.234375 -1.421875 26.90625 -1.421875 
Q 22.3125 -1.421875 17.546875 -0.640625 
Q 12.796875 0.140625 7.71875 1.703125 
L 7.71875 11.625 
Q 12.109375 9.234375 16.796875 8.0625 
Q 21.484375 6.890625 26.703125 6.890625 
Q 35.15625 6.890625 40.078125 11.328125 
Q 45.015625 15.765625 45.015625 23.390625 
Q 45.015625 31 40.078125 35.4375 
Q 35.15625 39.890625 26.703125 39.890625 
Q 22.75 39.890625 18.8125 39.015625 
Q 14.890625 38.140625 10.796875 36.28125 
z
" id="DejaVuSans-53"/>
      </defs>
      <g transform="translate(114.735625 304.793906)scale(0.14 -0.14)">
       <use xlink:href="#DejaVuSans-50"/>
       <use x="63.623047" xlink:href="#DejaVuSans-46"/>
       <use x="95.410156" xlink:href="#DejaVuSans-53"/>
      </g>
     </g>
    </g>
    <g id="ytick_3">
     <g id="line2d_19">
      <path clip-path="url(#pba63681db3)" d="M 144 262.35 
L 648 262.35 
" style="fill:none;stroke:#b2b2b2;stroke-dasharray:2.96,1.28;stroke-dashoffset:0;stroke-opacity:0.3;stroke-width:0.8;"/>
     </g>
     <g id="line2d_20">
      <g>
       <use style="stroke:#000000;stroke-width:0.8;" x="144" xlink:href="#mc1373680ca" y="262.35"/>
      </g>
     </g>
     <g id="text_11">
      <!-- 5.0 -->
      <g transform="translate(114.735625 267.668906)scale(0.14 -0.14)">
       <use xlink:href="#DejaVuSans-53"/>
       <use x="63.623047" xlink:href="#DejaVuSans-46"/>
       <use x="95.410156" xlink:href="#DejaVuSans-48"/>
      </g>
     </g>
    </g>
    <g id="ytick_4">
     <g id="line2d_21">
      <path clip-path="url(#pba63681db3)" d="M 144 225.225 
L 648 225.225 
" style="fill:none;stroke:#b2b2b2;stroke-dasharray:2.96,1.28;stroke-dashoffset:0;stroke-opacity:0.3;stroke-width:0.8;"/>
     </g>
     <g id="line2d_22">
      <g>
       <use style="stroke:#000000;stroke-width:0.8;" x="144" xlink:href="#mc1373680ca" y="225.225"/>
      </g>
     </g>
     <g id="text_12">
      <!-- 7.5 -->
      <defs>
       <path d="M 8.203125 72.90625 
L 55.078125 72.90625 
L 55.078125 68.703125 
L 28.609375 0 
L 18.3125 0 
L 43.21875 64.59375 
L 8.203125 64.59375 
z
" id="DejaVuSans-55"/>
      </defs>
      <g transform="translate(114.735625 230.543906)scale(0.14 -0.14)">
       <use xlink:href="#DejaVuSans-55"/>
       <use x="63.623047" xlink:href="#DejaVuSans-46"/>
       <use x="95.410156" xlink:href="#DejaVuSans-53"/>
      </g>
     </g>
    </g>
    <g id="ytick_5">
     <g id="line2d_23">
      <path clip-path="url(#pba63681db3)" d="M 144 188.1 
L 648 188.1 
" style="fill:none;stroke:#b2b2b2;stroke-dasharray:2.96,1.28;stroke-dashoffset:0;stroke-opacity:0.3;stroke-width:0.8;"/>
     </g>
     <g id="line2d_24">
      <g>
       <use style="stroke:#000000;stroke-width:0.8;" x="144" xlink:href="#mc1373680ca" y="188.1"/>
      </g>
     </g>
     <g id="text_13">
      <!-- 10.0 -->
      <g transform="translate(105.828125 193.418906)scale(0.14 -0.14)">
       <use xlink:href="#DejaVuSans-49"/>
       <use x="63.623047" xlink:href="#DejaVuSans-48"/>
       <use x="127.246094" xlink:href="#DejaVuSans-46"/>
       <use x="159.033203" xlink:href="#DejaVuSans-48"/>
      </g>
     </g>
    </g>
    <g id="ytick_6">
     <g id="line2d_25">
      <path clip-path="url(#pba63681db3)" d="M 144 150.975 
L 648 150.975 
" style="fill:none;stroke:#b2b2b2;stroke-dasharray:2.96,1.28;stroke-dashoffset:0;stroke-opacity:0.3;stroke-width:0.8;"/>
     </g>
     <g id="line2d_26">
      <g>
       <use style="stroke:#000000;stroke-width:0.8;" x="144" xlink:href="#mc1373680ca" y="150.975"/>
      </g>
     </g>
     <g id="text_14">
      <!-- 12.5 -->
      <g transform="translate(105.828125 156.293906)scale(0.14 -0.14)">
       <use xlink:href="#DejaVuSans-49"/>
       <use x="63.623047" xlink:href="#DejaVuSans-50"/>
       <use x="127.246094" xlink:href="#DejaVuSans-46"/>
       <use x="159.033203" xlink:href="#DejaVuSans-53"/>
      </g>
     </g>
    </g>
    <g id="ytick_7">
     <g id="line2d_27">
      <path clip-path="url(#pba63681db3)" d="M 144 113.85 
L 648 113.85 
" style="fill:none;stroke:#b2b2b2;stroke-dasharray:2.96,1.28;stroke-dashoffset:0;stroke-opacity:0.3;stroke-width:0.8;"/>
     </g>
     <g id="line2d_28">
      <g>
       <use style="stroke:#000000;stroke-width:0.8;" x="144" xlink:href="#mc1373680ca" y="113.85"/>
      </g>
     </g>
     <g id="text_15">
      <!-- 15.0 -->
      <g transform="translate(105.828125 119.168906)scale(0.14 -0.14)">
       <use xlink:href="#DejaVuSans-49"/>
       <use x="63.623047" xlink:href="#DejaVuSans-53"/>
       <use x="127.246094" xlink:href="#DejaVuSans-46"/>
       <use x="159.033203" xlink:href="#DejaVuSans-48"/>
      </g>
     </g>
    </g>
    <g id="ytick_8">
     <g id="line2d_29">
      <path clip-path="url(#pba63681db3)" d="M 144 76.725 
L 648 76.725 
" style="fill:none;stroke:#b2b2b2;stroke-dasharray:2.96,1.28;stroke-dashoffset:0;stroke-opacity:0.3;stroke-width:0.8;"/>
     </g>
     <g id="line2d_30">
      <g>
       <use style="stroke:#000000;stroke-width:0.8;" x="144" xlink:href="#mc1373680ca" y="76.725"/>
      </g>
     </g>
     <g id="text_16">
      <!-- 17.5 -->
      <g transform="translate(105.828125 82.043906)scale(0.14 -0.14)">
       <use xlink:href="#DejaVuSans-49"/>
       <use x="63.623047" xlink:href="#DejaVuSans-55"/>
       <use x="127.246094" xlink:href="#DejaVuSans-46"/>
       <use x="159.033203" xlink:href="#DejaVuSans-53"/>
      </g>
     </g>
    </g>
    <g id="ytick_9">
     <g id="line2d_31">
      <path clip-path="url(#pba63681db3)" d="M 144 39.6 
L 648 39.6 
" style="fill:none;stroke:#b2b2b2;stroke-dasharray:2.96,1.28;stroke-dashoffset:0;stroke-opacity:0.3;stroke-width:0.8;"/>
     </g>
     <g id="line2d_32">
      <g>
       <use style="stroke:#000000;stroke-width:0.8;" x="144" xlink:href="#mc1373680ca" y="39.6"/>
      </g>
     </g>
     <g id="text_17">
      <!-- 20.0 -->
      <g transform="translate(105.828125 44.918906)scale(0.14 -0.14)">
       <use xlink:href="#DejaVuSans-50"/>
       <use x="63.623047" xlink:href="#DejaVuSans-48"/>
       <use x="127.246094" xlink:href="#DejaVuSans-46"/>
       <use x="159.033203" xlink:href="#DejaVuSans-48"/>
      </g>
     </g>
    </g>
    <g id="text_18">
     <!-- $\omega/2\pi$ (GHz) -->
     <defs>
      <path d="M 12.109375 -1.125 
Q 6.453125 -1.125 3.9375 3.015625 
Q 1.421875 7.171875 1.421875 13.1875 
Q 1.421875 17.140625 2.125 20.921875 
Q 2.828125 24.703125 4.265625 28.578125 
Q 5.71875 32.46875 7.5625 35.859375 
Q 9.421875 39.265625 11.71875 42.484375 
Q 12.15625 43.109375 12.890625 43.109375 
Q 13.53125 43.109375 13.921875 42.71875 
Q 14.3125 42.328125 14.3125 41.796875 
Q 14.3125 41.265625 14.015625 40.828125 
Q 4.890625 28.265625 4.890625 17.671875 
Q 4.890625 13.09375 7 9.796875 
Q 9.125 6.5 13.484375 6.5 
Q 17.234375 6.5 20.4375 8.6875 
Q 23.640625 10.890625 25.984375 14.3125 
Q 25.984375 16.0625 26.59375 19.765625 
Q 27.203125 23.484375 28.484375 26.390625 
Q 29.78125 29.296875 31.59375 29.296875 
Q 33.890625 29.296875 33.890625 26.609375 
Q 33.890625 25.046875 33.21875 22.671875 
Q 32.5625 20.3125 31.75 18.265625 
Q 30.953125 16.21875 29.78125 13.625 
Q 30.953125 6.5 36.921875 6.5 
Q 40.375 6.5 43.859375 8.5 
Q 47.359375 10.5 50.046875 13.75 
Q 52.734375 17 54.265625 20.75 
Q 55.8125 24.515625 55.8125 27.875 
Q 55.8125 30.90625 54.859375 32.59375 
Q 53.90625 34.28125 52.34375 36.125 
Q 50.78125 37.984375 50.78125 39.109375 
Q 50.78125 41.0625 52.4375 42.671875 
Q 54.109375 44.28125 56 44.28125 
Q 58.453125 44.28125 59.46875 42.0625 
Q 60.5 39.84375 60.5 37.015625 
Q 60.5 32.421875 58.671875 25.4375 
Q 56.84375 18.453125 54.5 13.8125 
Q 51.265625 7.515625 46.40625 3.1875 
Q 41.546875 -1.125 35.5 -1.125 
Q 31.640625 -1.125 29.265625 1.1875 
Q 26.90625 3.515625 26.21875 7.515625 
Q 23.4375 3.5625 19.875 1.21875 
Q 16.3125 -1.125 12.109375 -1.125 
z
" id="Cmmi10-33"/>
      <path d="M 5.609375 -23 
Q 5.609375 -22.703125 5.71875 -22.609375 
L 40.484375 73.78125 
Q 40.671875 74.359375 41.15625 74.671875 
Q 41.65625 75 42.28125 75 
Q 43.171875 75 43.71875 74.453125 
Q 44.28125 73.921875 44.28125 73 
L 44.28125 72.609375 
L 9.515625 -23.78125 
Q 8.9375 -25 7.625 -25 
Q 6.78125 -25 6.1875 -24.40625 
Q 5.609375 -23.828125 5.609375 -23 
z
" id="Cmmi10-61"/>
      <path d="M 4.984375 0 
L 4.984375 2.6875 
Q 4.984375 2.9375 5.171875 3.21875 
L 20.703125 20.40625 
Q 24.21875 24.21875 26.40625 26.796875 
Q 28.609375 29.390625 30.75 32.765625 
Q 32.90625 36.140625 34.15625 39.625 
Q 35.40625 43.109375 35.40625 47.015625 
Q 35.40625 51.125 33.890625 54.859375 
Q 32.375 58.59375 29.375 60.84375 
Q 26.375 63.09375 22.125 63.09375 
Q 17.78125 63.09375 14.3125 60.46875 
Q 10.84375 57.859375 9.421875 53.71875 
Q 9.8125 53.8125 10.5 53.8125 
Q 12.75 53.8125 14.328125 52.296875 
Q 15.921875 50.78125 15.921875 48.390625 
Q 15.921875 46.09375 14.328125 44.5 
Q 12.75 42.921875 10.5 42.921875 
Q 8.15625 42.921875 6.5625 44.546875 
Q 4.984375 46.1875 4.984375 48.390625 
Q 4.984375 52.15625 6.390625 55.4375 
Q 7.8125 58.734375 10.46875 61.296875 
Q 13.140625 63.875 16.484375 65.234375 
Q 19.828125 66.609375 23.578125 66.609375 
Q 29.296875 66.609375 34.21875 64.1875 
Q 39.15625 61.765625 42.03125 57.34375 
Q 44.921875 52.9375 44.921875 47.015625 
Q 44.921875 42.671875 43.015625 38.765625 
Q 41.109375 34.859375 38.125 31.65625 
Q 35.15625 28.46875 30.515625 24.40625 
Q 25.875 20.359375 24.421875 19 
L 13.09375 8.109375 
L 22.703125 8.109375 
Q 29.78125 8.109375 34.546875 8.21875 
Q 39.3125 8.34375 39.59375 8.59375 
Q 40.765625 9.859375 42 17.828125 
L 44.921875 17.828125 
L 42.09375 0 
z
" id="Cmr10-50"/>
      <path d="M 10.109375 1.703125 
Q 10.109375 2.25 10.5 3.328125 
Q 13.28125 9.125 15.6875 14.71875 
Q 18.109375 20.3125 20.03125 25.609375 
Q 21.96875 30.90625 23.578125 36.921875 
L 17.1875 36.921875 
Q 13.53125 36.921875 10.34375 34.625 
Q 7.171875 32.328125 5.078125 28.8125 
Q 4.890625 28.421875 4.5 28.421875 
L 3.328125 28.421875 
Q 2.390625 28.421875 2.390625 29.390625 
Q 2.390625 29.59375 2.59375 29.984375 
Q 5.859375 35.546875 9.59375 39.328125 
Q 13.328125 43.109375 18.015625 43.109375 
L 54.296875 43.109375 
Q 55.328125 43.109375 56.046875 42.421875 
Q 56.78125 41.75 56.78125 40.578125 
Q 56.78125 39.109375 55.734375 38.015625 
Q 54.6875 36.921875 53.21875 36.921875 
L 40.484375 36.921875 
Q 38.875 29.046875 38.71875 21.578125 
Q 38.71875 11.96875 42.09375 4.203125 
Q 42.390625 3.609375 42.390625 2.984375 
Q 42.390625 1.90625 41.75 0.96875 
Q 41.109375 0.046875 40.109375 -0.53125 
Q 39.109375 -1.125 37.984375 -1.125 
Q 35.359375 -1.125 34.375 3.171875 
Q 33.40625 7.46875 33.40625 11.53125 
Q 33.40625 17.234375 34.375 22.53125 
Q 35.359375 27.828125 37.5 36.921875 
L 26.609375 36.921875 
Q 18.703125 4.890625 17.09375 1.609375 
Q 15.671875 -1.125 13.1875 -1.125 
Q 11.96875 -1.125 11.03125 -0.3125 
Q 10.109375 0.484375 10.109375 1.703125 
z
" id="Cmmi10-188"/>
      <path d="M 59.515625 10.40625 
L 59.515625 29.984375 
L 43.40625 29.984375 
L 43.40625 38.09375 
L 69.28125 38.09375 
L 69.28125 6.78125 
Q 63.578125 2.734375 56.6875 0.65625 
Q 49.8125 -1.421875 42 -1.421875 
Q 24.90625 -1.421875 15.25 8.5625 
Q 5.609375 18.5625 5.609375 36.375 
Q 5.609375 54.25 15.25 64.234375 
Q 24.90625 74.21875 42 74.21875 
Q 49.125 74.21875 55.546875 72.453125 
Q 61.96875 70.703125 67.390625 67.28125 
L 67.390625 56.78125 
Q 61.921875 61.421875 55.765625 63.765625 
Q 49.609375 66.109375 42.828125 66.109375 
Q 29.4375 66.109375 22.71875 58.640625 
Q 16.015625 51.171875 16.015625 36.375 
Q 16.015625 21.625 22.71875 14.15625 
Q 29.4375 6.6875 42.828125 6.6875 
Q 48.046875 6.6875 52.140625 7.59375 
Q 56.25 8.5 59.515625 10.40625 
z
" id="DejaVuSans-71"/>
      <path d="M 9.8125 72.90625 
L 19.671875 72.90625 
L 19.671875 43.015625 
L 55.515625 43.015625 
L 55.515625 72.90625 
L 65.375 72.90625 
L 65.375 0 
L 55.515625 0 
L 55.515625 34.71875 
L 19.671875 34.71875 
L 19.671875 0 
L 9.8125 0 
z
" id="DejaVuSans-72"/>
      <path d="M 5.515625 54.6875 
L 48.1875 54.6875 
L 48.1875 46.484375 
L 14.40625 7.171875 
L 48.1875 7.171875 
L 48.1875 0 
L 4.296875 0 
L 4.296875 8.203125 
L 38.09375 47.515625 
L 5.515625 47.515625 
z
" id="DejaVuSans-122"/>
     </defs>
     <g transform="translate(96.828125 241.6)rotate(-90)scale(0.2 -0.2)">
      <use transform="translate(0 0.125)" xlink:href="#Cmmi10-33"/>
      <use transform="translate(62.207031 0.125)" xlink:href="#Cmmi10-61"/>
      <use transform="translate(112.207031 0.125)" xlink:href="#Cmr10-50"/>
      <use transform="translate(162.207031 0.125)" xlink:href="#Cmmi10-188"/>
      <use transform="translate(219.189453 0.125)" xlink:href="#DejaVuSans-32"/>
      <use transform="translate(250.976562 0.125)" xlink:href="#DejaVuSans-40"/>
      <use transform="translate(289.990234 0.125)" xlink:href="#DejaVuSans-71"/>
      <use transform="translate(367.480469 0.125)" xlink:href="#DejaVuSans-72"/>
      <use transform="translate(442.675781 0.125)" xlink:href="#DejaVuSans-122"/>
      <use transform="translate(495.166016 0.125)" xlink:href="#DejaVuSans-41"/>
     </g>
    </g>
   </g>
   <g id="line2d_33">
    <defs>
     <path d="M 0 1.5 
C 0.397805 1.5 0.77937 1.341951 1.06066 1.06066 
C 1.341951 0.77937 1.5 0.397805 1.5 0 
C 1.5 -0.397805 1.341951 -0.77937 1.06066 -1.06066 
C 0.77937 -1.341951 0.397805 -1.5 0 -1.5 
C -0.397805 -1.5 -0.77937 -1.341951 -1.06066 -1.06066 
C -1.341951 -0.77937 -1.5 -0.397805 -1.5 0 
C -1.5 0.397805 -1.341951 0.77937 -1.06066 1.06066 
C -0.77937 1.341951 -0.397805 1.5 0 1.5 
z
" id="m56b78f24e8" style="stroke:#004ba8;stroke-opacity:0.5;stroke-width:2;"/>
    </defs>
    <g clip-path="url(#pba63681db3)">
     <use style="fill:#004ba8;fill-opacity:0.5;stroke:#004ba8;stroke-opacity:0.5;stroke-width:2;" x="196.996145" xlink:href="#m56b78f24e8" y="146.162858"/>
     <use style="fill:#004ba8;fill-opacity:0.5;stroke:#004ba8;stroke-opacity:0.5;stroke-width:2;" x="197.484545" xlink:href="#m56b78f24e8" y="144.149049"/>
     <use style="fill:#004ba8;fill-opacity:0.5;stroke:#004ba8;stroke-opacity:0.5;stroke-width:2;" x="197.972945" xlink:href="#m56b78f24e8" y="142.318193"/>
     <use style="fill:#004ba8;fill-opacity:0.5;stroke:#004ba8;stroke-opacity:0.5;stroke-width:2;" x="198.461455" xlink:href="#m56b78f24e8" y="140.670585"/>
     <use style="fill:#004ba8;fill-opacity:0.5;stroke:#004ba8;stroke-opacity:0.5;stroke-width:2;" x="198.949855" xlink:href="#m56b78f24e8" y="139.022829"/>
     <use style="fill:#004ba8;fill-opacity:0.5;stroke:#004ba8;stroke-opacity:0.5;stroke-width:2;" x="199.438364" xlink:href="#m56b78f24e8" y="137.741422"/>
     <use style="fill:#004ba8;fill-opacity:0.5;stroke:#004ba8;stroke-opacity:0.5;stroke-width:2;" x="199.926764" xlink:href="#m56b78f24e8" y="136.398834"/>
     <use style="fill:#004ba8;fill-opacity:0.5;stroke:#004ba8;stroke-opacity:0.5;stroke-width:2;" x="200.415273" xlink:href="#m56b78f24e8" y="135.178313"/>
     <use style="fill:#004ba8;fill-opacity:0.5;stroke:#004ba8;stroke-opacity:0.5;stroke-width:2;" x="200.903782" xlink:href="#m56b78f24e8" y="133.957791"/>
     <use style="fill:#004ba8;fill-opacity:0.5;stroke:#004ba8;stroke-opacity:0.5;stroke-width:2;" x="201.392182" xlink:href="#m56b78f24e8" y="133.042437"/>
     <use style="fill:#004ba8;fill-opacity:0.5;stroke:#004ba8;stroke-opacity:0.5;stroke-width:2;" x="201.880691" xlink:href="#m56b78f24e8" y="132.554318"/>
     <use style="fill:#004ba8;fill-opacity:0.5;stroke:#004ba8;stroke-opacity:0.5;stroke-width:2;" x="202.369091" xlink:href="#m56b78f24e8" y="129.869141"/>
     <use style="fill:#004ba8;fill-opacity:0.5;stroke:#004ba8;stroke-opacity:0.5;stroke-width:2;" x="202.857491" xlink:href="#m56b78f24e8" y="129.381021"/>
     <use style="fill:#004ba8;fill-opacity:0.5;stroke:#004ba8;stroke-opacity:0.5;stroke-width:2;" x="203.346" xlink:href="#m56b78f24e8" y="128.709653"/>
     <use style="fill:#004ba8;fill-opacity:0.5;stroke:#004ba8;stroke-opacity:0.5;stroke-width:2;" x="203.8344" xlink:href="#m56b78f24e8" y="128.221533"/>
    </g>
   </g>
   <g id="line2d_34">
    <g clip-path="url(#pba63681db3)">
     <use style="fill:#004ba8;fill-opacity:0.5;stroke:#004ba8;stroke-opacity:0.5;stroke-width:2;" x="274.287273" xlink:href="#m56b78f24e8" y="188.436531"/>
     <use style="fill:#004ba8;fill-opacity:0.5;stroke:#004ba8;stroke-opacity:0.5;stroke-width:2;" x="274.665" xlink:href="#m56b78f24e8" y="186.067035"/>
     <use style="fill:#004ba8;fill-opacity:0.5;stroke:#004ba8;stroke-opacity:0.5;stroke-width:2;" x="275.042727" xlink:href="#m56b78f24e8" y="184.383342"/>
     <use style="fill:#004ba8;fill-opacity:0.5;stroke:#004ba8;stroke-opacity:0.5;stroke-width:2;" x="275.420455" xlink:href="#m56b78f24e8" y="182.824538"/>
     <use style="fill:#004ba8;fill-opacity:0.5;stroke:#004ba8;stroke-opacity:0.5;stroke-width:2;" x="275.798182" xlink:href="#m56b78f24e8" y="180.766773"/>
     <use style="fill:#004ba8;fill-opacity:0.5;stroke:#004ba8;stroke-opacity:0.5;stroke-width:2;" x="276.175909" xlink:href="#m56b78f24e8" y="179.20782"/>
     <use style="fill:#004ba8;fill-opacity:0.5;stroke:#004ba8;stroke-opacity:0.5;stroke-width:2;" x="276.553636" xlink:href="#m56b78f24e8" y="177.898347"/>
     <use style="fill:#004ba8;fill-opacity:0.5;stroke:#004ba8;stroke-opacity:0.5;stroke-width:2;" x="276.931364" xlink:href="#m56b78f24e8" y="176.651244"/>
     <use style="fill:#004ba8;fill-opacity:0.5;stroke:#004ba8;stroke-opacity:0.5;stroke-width:2;" x="277.309091" xlink:href="#m56b78f24e8" y="175.591103"/>
     <use style="fill:#004ba8;fill-opacity:0.5;stroke:#004ba8;stroke-opacity:0.5;stroke-width:2;" x="277.686818" xlink:href="#m56b78f24e8" y="174.65585"/>
     <use style="fill:#004ba8;fill-opacity:0.5;stroke:#004ba8;stroke-opacity:0.5;stroke-width:2;" x="278.064545" xlink:href="#m56b78f24e8" y="173.720448"/>
     <use style="fill:#004ba8;fill-opacity:0.5;stroke:#004ba8;stroke-opacity:0.5;stroke-width:2;" x="278.442273" xlink:href="#m56b78f24e8" y="172.722825"/>
     <use style="fill:#004ba8;fill-opacity:0.5;stroke:#004ba8;stroke-opacity:0.5;stroke-width:2;" x="278.82" xlink:href="#m56b78f24e8" y="171.974534"/>
     <use style="fill:#004ba8;fill-opacity:0.5;stroke:#004ba8;stroke-opacity:0.5;stroke-width:2;" x="279.197727" xlink:href="#m56b78f24e8" y="171.413204"/>
     <use style="fill:#004ba8;fill-opacity:0.5;stroke:#004ba8;stroke-opacity:0.5;stroke-width:2;" x="279.575455" xlink:href="#m56b78f24e8" y="170.852022"/>
     <use style="fill:#004ba8;fill-opacity:0.5;stroke:#004ba8;stroke-opacity:0.5;stroke-width:2;" x="279.953182" xlink:href="#m56b78f24e8" y="170.353211"/>
     <use style="fill:#004ba8;fill-opacity:0.5;stroke:#004ba8;stroke-opacity:0.5;stroke-width:2;" x="280.330909" xlink:href="#m56b78f24e8" y="170.103731"/>
     <use style="fill:#004ba8;fill-opacity:0.5;stroke:#004ba8;stroke-opacity:0.5;stroke-width:2;" x="280.708636" xlink:href="#m56b78f24e8" y="169.916769"/>
     <use style="fill:#004ba8;fill-opacity:0.5;stroke:#004ba8;stroke-opacity:0.5;stroke-width:2;" x="281.086364" xlink:href="#m56b78f24e8" y="169.792029"/>
     <use style="fill:#004ba8;fill-opacity:0.5;stroke:#004ba8;stroke-opacity:0.5;stroke-width:2;" x="281.464091" xlink:href="#m56b78f24e8" y="169.916769"/>
     <use style="fill:#004ba8;fill-opacity:0.5;stroke:#004ba8;stroke-opacity:0.5;stroke-width:2;" x="281.841818" xlink:href="#m56b78f24e8" y="170.103731"/>
     <use style="fill:#004ba8;fill-opacity:0.5;stroke:#004ba8;stroke-opacity:0.5;stroke-width:2;" x="282.219545" xlink:href="#m56b78f24e8" y="170.290841"/>
     <use style="fill:#004ba8;fill-opacity:0.5;stroke:#004ba8;stroke-opacity:0.5;stroke-width:2;" x="282.597273" xlink:href="#m56b78f24e8" y="170.540321"/>
     <use style="fill:#004ba8;fill-opacity:0.5;stroke:#004ba8;stroke-opacity:0.5;stroke-width:2;" x="282.975" xlink:href="#m56b78f24e8" y="170.914392"/>
     <use style="fill:#004ba8;fill-opacity:0.5;stroke:#004ba8;stroke-opacity:0.5;stroke-width:2;" x="283.352727" xlink:href="#m56b78f24e8" y="171.288612"/>
     <use style="fill:#004ba8;fill-opacity:0.5;stroke:#004ba8;stroke-opacity:0.5;stroke-width:2;" x="283.730455" xlink:href="#m56b78f24e8" y="171.787424"/>
     <use style="fill:#004ba8;fill-opacity:0.5;stroke:#004ba8;stroke-opacity:0.5;stroke-width:2;" x="284.108182" xlink:href="#m56b78f24e8" y="172.223865"/>
     <use style="fill:#004ba8;fill-opacity:0.5;stroke:#004ba8;stroke-opacity:0.5;stroke-width:2;" x="284.485909" xlink:href="#m56b78f24e8" y="172.972157"/>
     <use style="fill:#004ba8;fill-opacity:0.5;stroke:#004ba8;stroke-opacity:0.5;stroke-width:2;" x="284.863636" xlink:href="#m56b78f24e8" y="173.845188"/>
     <use style="fill:#004ba8;fill-opacity:0.5;stroke:#004ba8;stroke-opacity:0.5;stroke-width:2;" x="285.241364" xlink:href="#m56b78f24e8" y="174.468739"/>
     <use style="fill:#004ba8;fill-opacity:0.5;stroke:#004ba8;stroke-opacity:0.5;stroke-width:2;" x="285.619091" xlink:href="#m56b78f24e8" y="175.217031"/>
     <use style="fill:#004ba8;fill-opacity:0.5;stroke:#004ba8;stroke-opacity:0.5;stroke-width:2;" x="285.996818" xlink:href="#m56b78f24e8" y="176.152284"/>
     <use style="fill:#004ba8;fill-opacity:0.5;stroke:#004ba8;stroke-opacity:0.5;stroke-width:2;" x="286.374545" xlink:href="#m56b78f24e8" y="176.464134"/>
     <use style="fill:#004ba8;fill-opacity:0.5;stroke:#004ba8;stroke-opacity:0.5;stroke-width:2;" x="286.752273" xlink:href="#m56b78f24e8" y="177.274796"/>
     <use style="fill:#004ba8;fill-opacity:0.5;stroke:#004ba8;stroke-opacity:0.5;stroke-width:2;" x="287.13" xlink:href="#m56b78f24e8" y="177.898347"/>
     <use style="fill:#004ba8;fill-opacity:0.5;stroke:#004ba8;stroke-opacity:0.5;stroke-width:2;" x="287.507727" xlink:href="#m56b78f24e8" y="178.646638"/>
     <use style="fill:#004ba8;fill-opacity:0.5;stroke:#004ba8;stroke-opacity:0.5;stroke-width:2;" x="287.885455" xlink:href="#m56b78f24e8" y="178.95834"/>
     <use style="fill:#004ba8;fill-opacity:0.5;stroke:#004ba8;stroke-opacity:0.5;stroke-width:2;" x="288.263182" xlink:href="#m56b78f24e8" y="179.4573"/>
     <use style="fill:#004ba8;fill-opacity:0.5;stroke:#004ba8;stroke-opacity:0.5;stroke-width:2;" x="288.640909" xlink:href="#m56b78f24e8" y="179.706632"/>
     <use style="fill:#004ba8;fill-opacity:0.5;stroke:#004ba8;stroke-opacity:0.5;stroke-width:2;" x="289.018636" xlink:href="#m56b78f24e8" y="179.956111"/>
     <use style="fill:#004ba8;fill-opacity:0.5;stroke:#004ba8;stroke-opacity:0.5;stroke-width:2;" x="289.396364" xlink:href="#m56b78f24e8" y="179.956111"/>
    </g>
   </g>
   <g id="line2d_35">
    <g clip-path="url(#pba63681db3)">
     <use style="fill:#004ba8;fill-opacity:0.5;stroke:#004ba8;stroke-opacity:0.5;stroke-width:2;" x="350.644364" xlink:href="#m56b78f24e8" y="207.385799"/>
     <use style="fill:#004ba8;fill-opacity:0.5;stroke:#004ba8;stroke-opacity:0.5;stroke-width:2;" x="351.164455" xlink:href="#m56b78f24e8" y="204.633426"/>
     <use style="fill:#004ba8;fill-opacity:0.5;stroke:#004ba8;stroke-opacity:0.5;stroke-width:2;" x="351.684545" xlink:href="#m56b78f24e8" y="201.525915"/>
     <use style="fill:#004ba8;fill-opacity:0.5;stroke:#004ba8;stroke-opacity:0.5;stroke-width:2;" x="352.204636" xlink:href="#m56b78f24e8" y="198.595965"/>
     <use style="fill:#004ba8;fill-opacity:0.5;stroke:#004ba8;stroke-opacity:0.5;stroke-width:2;" x="352.724727" xlink:href="#m56b78f24e8" y="196.109941"/>
     <use style="fill:#004ba8;fill-opacity:0.5;stroke:#004ba8;stroke-opacity:0.5;stroke-width:2;" x="353.244818" xlink:href="#m56b78f24e8" y="194.156647"/>
     <use style="fill:#004ba8;fill-opacity:0.5;stroke:#004ba8;stroke-opacity:0.5;stroke-width:2;" x="353.764909" xlink:href="#m56b78f24e8" y="192.114564"/>
     <use style="fill:#004ba8;fill-opacity:0.5;stroke:#004ba8;stroke-opacity:0.5;stroke-width:2;" x="354.285" xlink:href="#m56b78f24e8" y="190.250042"/>
     <use style="fill:#004ba8;fill-opacity:0.5;stroke:#004ba8;stroke-opacity:0.5;stroke-width:2;" x="354.805091" xlink:href="#m56b78f24e8" y="188.829462"/>
     <use style="fill:#004ba8;fill-opacity:0.5;stroke:#004ba8;stroke-opacity:0.5;stroke-width:2;" x="355.325182" xlink:href="#m56b78f24e8" y="187.764093"/>
     <use style="fill:#004ba8;fill-opacity:0.5;stroke:#004ba8;stroke-opacity:0.5;stroke-width:2;" x="355.845273" xlink:href="#m56b78f24e8" y="186.965014"/>
     <use style="fill:#004ba8;fill-opacity:0.5;stroke:#004ba8;stroke-opacity:0.5;stroke-width:2;" x="356.365364" xlink:href="#m56b78f24e8" y="186.254591"/>
     <use style="fill:#004ba8;fill-opacity:0.5;stroke:#004ba8;stroke-opacity:0.5;stroke-width:2;" x="356.885455" xlink:href="#m56b78f24e8" y="185.98833"/>
     <use style="fill:#004ba8;fill-opacity:0.5;stroke:#004ba8;stroke-opacity:0.5;stroke-width:2;" x="357.405545" xlink:href="#m56b78f24e8" y="185.899527"/>
     <use style="fill:#004ba8;fill-opacity:0.5;stroke:#004ba8;stroke-opacity:0.5;stroke-width:2;" x="357.925636" xlink:href="#m56b78f24e8" y="185.899527"/>
     <use style="fill:#004ba8;fill-opacity:0.5;stroke:#004ba8;stroke-opacity:0.5;stroke-width:2;" x="358.445727" xlink:href="#m56b78f24e8" y="186.254591"/>
     <use style="fill:#004ba8;fill-opacity:0.5;stroke:#004ba8;stroke-opacity:0.5;stroke-width:2;" x="358.965818" xlink:href="#m56b78f24e8" y="186.787408"/>
     <use style="fill:#004ba8;fill-opacity:0.5;stroke:#004ba8;stroke-opacity:0.5;stroke-width:2;" x="359.485909" xlink:href="#m56b78f24e8" y="187.586487"/>
     <use style="fill:#004ba8;fill-opacity:0.5;stroke:#004ba8;stroke-opacity:0.5;stroke-width:2;" x="360.006" xlink:href="#m56b78f24e8" y="188.740674"/>
     <use style="fill:#004ba8;fill-opacity:0.5;stroke:#004ba8;stroke-opacity:0.5;stroke-width:2;" x="360.526091" xlink:href="#m56b78f24e8" y="190.250042"/>
     <use style="fill:#004ba8;fill-opacity:0.5;stroke:#004ba8;stroke-opacity:0.5;stroke-width:2;" x="361.046182" xlink:href="#m56b78f24e8" y="191.759411"/>
     <use style="fill:#004ba8;fill-opacity:0.5;stroke:#004ba8;stroke-opacity:0.5;stroke-width:2;" x="361.566273" xlink:href="#m56b78f24e8" y="193.357568"/>
     <use style="fill:#004ba8;fill-opacity:0.5;stroke:#004ba8;stroke-opacity:0.5;stroke-width:2;" x="362.086364" xlink:href="#m56b78f24e8" y="195.310863"/>
     <use style="fill:#004ba8;fill-opacity:0.5;stroke:#004ba8;stroke-opacity:0.5;stroke-width:2;" x="362.606455" xlink:href="#m56b78f24e8" y="197.352946"/>
    </g>
   </g>
   <g id="line2d_36">
    <g clip-path="url(#pba63681db3)">
     <use style="fill:#004ba8;fill-opacity:0.5;stroke:#004ba8;stroke-opacity:0.5;stroke-width:2;" x="429.152727" xlink:href="#m56b78f24e8" y="197.914588"/>
     <use style="fill:#004ba8;fill-opacity:0.5;stroke:#004ba8;stroke-opacity:0.5;stroke-width:2;" x="429.625451" xlink:href="#m56b78f24e8" y="195.769624"/>
     <use style="fill:#004ba8;fill-opacity:0.5;stroke:#004ba8;stroke-opacity:0.5;stroke-width:2;" x="430.098185" xlink:href="#m56b78f24e8" y="193.511786"/>
     <use style="fill:#004ba8;fill-opacity:0.5;stroke:#004ba8;stroke-opacity:0.5;stroke-width:2;" x="430.570909" xlink:href="#m56b78f24e8" y="191.818395"/>
     <use style="fill:#004ba8;fill-opacity:0.5;stroke:#004ba8;stroke-opacity:0.5;stroke-width:2;" x="431.043633" xlink:href="#m56b78f24e8" y="190.3508"/>
     <use style="fill:#004ba8;fill-opacity:0.5;stroke:#004ba8;stroke-opacity:0.5;stroke-width:2;" x="431.516367" xlink:href="#m56b78f24e8" y="189.334763"/>
     <use style="fill:#004ba8;fill-opacity:0.5;stroke:#004ba8;stroke-opacity:0.5;stroke-width:2;" x="431.989091" xlink:href="#m56b78f24e8" y="188.318726"/>
     <use style="fill:#004ba8;fill-opacity:0.5;stroke:#004ba8;stroke-opacity:0.5;stroke-width:2;" x="432.461815" xlink:href="#m56b78f24e8" y="187.528424"/>
     <use style="fill:#004ba8;fill-opacity:0.5;stroke:#004ba8;stroke-opacity:0.5;stroke-width:2;" x="432.934549" xlink:href="#m56b78f24e8" y="186.738255"/>
     <use style="fill:#004ba8;fill-opacity:0.5;stroke:#004ba8;stroke-opacity:0.5;stroke-width:2;" x="433.407273" xlink:href="#m56b78f24e8" y="186.512387"/>
     <use style="fill:#004ba8;fill-opacity:0.5;stroke:#004ba8;stroke-opacity:0.5;stroke-width:2;" x="433.879996" xlink:href="#m56b78f24e8" y="186.173807"/>
     <use style="fill:#004ba8;fill-opacity:0.5;stroke:#004ba8;stroke-opacity:0.5;stroke-width:2;" x="434.352731" xlink:href="#m56b78f24e8" y="186.286667"/>
     <use style="fill:#004ba8;fill-opacity:0.5;stroke:#004ba8;stroke-opacity:0.5;stroke-width:2;" x="434.825455" xlink:href="#m56b78f24e8" y="186.286667"/>
     <use style="fill:#004ba8;fill-opacity:0.5;stroke:#004ba8;stroke-opacity:0.5;stroke-width:2;" x="435.298178" xlink:href="#m56b78f24e8" y="186.625395"/>
     <use style="fill:#004ba8;fill-opacity:0.5;stroke:#004ba8;stroke-opacity:0.5;stroke-width:2;" x="435.770913" xlink:href="#m56b78f24e8" y="187.189844"/>
     <use style="fill:#004ba8;fill-opacity:0.5;stroke:#004ba8;stroke-opacity:0.5;stroke-width:2;" x="436.243636" xlink:href="#m56b78f24e8" y="188.093021"/>
     <use style="fill:#004ba8;fill-opacity:0.5;stroke:#004ba8;stroke-opacity:0.5;stroke-width:2;" x="436.71636" xlink:href="#m56b78f24e8" y="188.43163"/>
     <use style="fill:#004ba8;fill-opacity:0.5;stroke:#004ba8;stroke-opacity:0.5;stroke-width:2;" x="437.189095" xlink:href="#m56b78f24e8" y="190.125005"/>
     <use style="fill:#004ba8;fill-opacity:0.5;stroke:#004ba8;stroke-opacity:0.5;stroke-width:2;" x="437.661818" xlink:href="#m56b78f24e8" y="191.592616"/>
     <use style="fill:#004ba8;fill-opacity:0.5;stroke:#004ba8;stroke-opacity:0.5;stroke-width:2;" x="438.134542" xlink:href="#m56b78f24e8" y="193.173102"/>
     <use style="fill:#004ba8;fill-opacity:0.5;stroke:#004ba8;stroke-opacity:0.5;stroke-width:2;" x="438.607276" xlink:href="#m56b78f24e8" y="194.640712"/>
     <use style="fill:#004ba8;fill-opacity:0.5;stroke:#004ba8;stroke-opacity:0.5;stroke-width:2;" x="439.08" xlink:href="#m56b78f24e8" y="197.01144"/>
    </g>
   </g>
   <g id="line2d_37">
    <g clip-path="url(#pba63681db3)">
     <use style="fill:#004ba8;fill-opacity:0.5;stroke:#004ba8;stroke-opacity:0.5;stroke-width:2;" x="503.2836" xlink:href="#m56b78f24e8" y="181.919579"/>
     <use style="fill:#004ba8;fill-opacity:0.5;stroke:#004ba8;stroke-opacity:0.5;stroke-width:2;" x="503.947636" xlink:href="#m56b78f24e8" y="180.692078"/>
     <use style="fill:#004ba8;fill-opacity:0.5;stroke:#004ba8;stroke-opacity:0.5;stroke-width:2;" x="504.611673" xlink:href="#m56b78f24e8" y="179.873842"/>
     <use style="fill:#004ba8;fill-opacity:0.5;stroke:#004ba8;stroke-opacity:0.5;stroke-width:2;" x="505.2756" xlink:href="#m56b78f24e8" y="178.510019"/>
     <use style="fill:#004ba8;fill-opacity:0.5;stroke:#004ba8;stroke-opacity:0.5;stroke-width:2;" x="505.939636" xlink:href="#m56b78f24e8" y="176.600606"/>
     <use style="fill:#004ba8;fill-opacity:0.5;stroke:#004ba8;stroke-opacity:0.5;stroke-width:2;" x="506.603673" xlink:href="#m56b78f24e8" y="175.373253"/>
     <use style="fill:#004ba8;fill-opacity:0.5;stroke:#004ba8;stroke-opacity:0.5;stroke-width:2;" x="507.2676" xlink:href="#m56b78f24e8" y="174.282075"/>
     <use style="fill:#004ba8;fill-opacity:0.5;stroke:#004ba8;stroke-opacity:0.5;stroke-width:2;" x="507.931636" xlink:href="#m56b78f24e8" y="173.46384"/>
     <use style="fill:#004ba8;fill-opacity:0.5;stroke:#004ba8;stroke-opacity:0.5;stroke-width:2;" x="508.595673" xlink:href="#m56b78f24e8" y="172.372811"/>
     <use style="fill:#004ba8;fill-opacity:0.5;stroke:#004ba8;stroke-opacity:0.5;stroke-width:2;" x="509.2596" xlink:href="#m56b78f24e8" y="171.554427"/>
     <use style="fill:#004ba8;fill-opacity:0.5;stroke:#004ba8;stroke-opacity:0.5;stroke-width:2;" x="509.923636" xlink:href="#m56b78f24e8" y="171.281781"/>
     <use style="fill:#004ba8;fill-opacity:0.5;stroke:#004ba8;stroke-opacity:0.5;stroke-width:2;" x="510.587673" xlink:href="#m56b78f24e8" y="171.145309"/>
     <use style="fill:#004ba8;fill-opacity:0.5;stroke:#004ba8;stroke-opacity:0.5;stroke-width:2;" x="511.2516" xlink:href="#m56b78f24e8" y="171.418104"/>
     <use style="fill:#004ba8;fill-opacity:0.5;stroke:#004ba8;stroke-opacity:0.5;stroke-width:2;" x="511.915636" xlink:href="#m56b78f24e8" y="171.963693"/>
     <use style="fill:#004ba8;fill-opacity:0.5;stroke:#004ba8;stroke-opacity:0.5;stroke-width:2;" x="512.579673" xlink:href="#m56b78f24e8" y="172.918251"/>
     <use style="fill:#004ba8;fill-opacity:0.5;stroke:#004ba8;stroke-opacity:0.5;stroke-width:2;" x="513.2436" xlink:href="#m56b78f24e8" y="174.418547"/>
     <use style="fill:#004ba8;fill-opacity:0.5;stroke:#004ba8;stroke-opacity:0.5;stroke-width:2;" x="513.907636" xlink:href="#m56b78f24e8" y="175.78237"/>
     <use style="fill:#004ba8;fill-opacity:0.5;stroke:#004ba8;stroke-opacity:0.5;stroke-width:2;" x="514.571673" xlink:href="#m56b78f24e8" y="177.555312"/>
     <use style="fill:#004ba8;fill-opacity:0.5;stroke:#004ba8;stroke-opacity:0.5;stroke-width:2;" x="515.2356" xlink:href="#m56b78f24e8" y="179.873842"/>
     <use style="fill:#004ba8;fill-opacity:0.5;stroke:#004ba8;stroke-opacity:0.5;stroke-width:2;" x="515.899636" xlink:href="#m56b78f24e8" y="182.328696"/>
     <use style="fill:#004ba8;fill-opacity:0.5;stroke:#004ba8;stroke-opacity:0.5;stroke-width:2;" x="516.563673" xlink:href="#m56b78f24e8" y="185.192667"/>
    </g>
   </g>
   <g id="line2d_38">
    <g clip-path="url(#pba63681db3)">
     <use style="fill:#004ba8;fill-opacity:0.5;stroke:#004ba8;stroke-opacity:0.5;stroke-width:2;" x="589.171309" xlink:href="#m56b78f24e8" y="133.827854"/>
     <use style="fill:#004ba8;fill-opacity:0.5;stroke:#004ba8;stroke-opacity:0.5;stroke-width:2;" x="589.8756" xlink:href="#m56b78f24e8" y="134.52224"/>
     <use style="fill:#004ba8;fill-opacity:0.5;stroke:#004ba8;stroke-opacity:0.5;stroke-width:2;" x="590.58" xlink:href="#m56b78f24e8" y="135.56367"/>
     <use style="fill:#004ba8;fill-opacity:0.5;stroke:#004ba8;stroke-opacity:0.5;stroke-width:2;" x="591.2844" xlink:href="#m56b78f24e8" y="136.778697"/>
     <use style="fill:#004ba8;fill-opacity:0.5;stroke:#004ba8;stroke-opacity:0.5;stroke-width:2;" x="591.988691" xlink:href="#m56b78f24e8" y="138.861707"/>
     <use style="fill:#004ba8;fill-opacity:0.5;stroke:#004ba8;stroke-opacity:0.5;stroke-width:2;" x="592.693091" xlink:href="#m56b78f24e8" y="141.118164"/>
     <use style="fill:#004ba8;fill-opacity:0.5;stroke:#004ba8;stroke-opacity:0.5;stroke-width:2;" x="593.397491" xlink:href="#m56b78f24e8" y="143.548218"/>
     <use style="fill:#004ba8;fill-opacity:0.5;stroke:#004ba8;stroke-opacity:0.5;stroke-width:2;" x="594.101782" xlink:href="#m56b78f24e8" y="146.151869"/>
     <use style="fill:#004ba8;fill-opacity:0.5;stroke:#004ba8;stroke-opacity:0.5;stroke-width:2;" x="594.806182" xlink:href="#m56b78f24e8" y="148.929115"/>
    </g>
   </g>
   <g id="line2d_39">
    <defs>
     <path d="M 0 1.5 
C 0.397805 1.5 0.77937 1.341951 1.06066 1.06066 
C 1.341951 0.77937 1.5 0.397805 1.5 0 
C 1.5 -0.397805 1.341951 -0.77937 1.06066 -1.06066 
C 0.77937 -1.341951 0.397805 -1.5 0 -1.5 
C -0.397805 -1.5 -0.77937 -1.341951 -1.06066 -1.06066 
C -1.341951 -0.77937 -1.5 -0.397805 -1.5 0 
C -1.5 0.397805 -1.341951 0.77937 -1.06066 1.06066 
C -0.77937 1.341951 -0.397805 1.5 0 1.5 
z
" id="m55dc5fcd14" style="stroke:#990000;stroke-opacity:0.5;stroke-width:2;"/>
    </defs>
    <g clip-path="url(#pba63681db3)">
     <use style="fill:#990000;fill-opacity:0.5;stroke:#990000;stroke-opacity:0.5;stroke-width:2;" x="197.929309" xlink:href="#m55dc5fcd14" y="103.330111"/>
     <use style="fill:#990000;fill-opacity:0.5;stroke:#990000;stroke-opacity:0.5;stroke-width:2;" x="198.475418" xlink:href="#m55dc5fcd14" y="101.153547"/>
     <use style="fill:#990000;fill-opacity:0.5;stroke:#990000;stroke-opacity:0.5;stroke-width:2;" x="199.021636" xlink:href="#m55dc5fcd14" y="99.82863"/>
     <use style="fill:#990000;fill-opacity:0.5;stroke:#990000;stroke-opacity:0.5;stroke-width:2;" x="199.567745" xlink:href="#m55dc5fcd14" y="98.598308"/>
     <use style="fill:#990000;fill-opacity:0.5;stroke:#990000;stroke-opacity:0.5;stroke-width:2;" x="200.113855" xlink:href="#m55dc5fcd14" y="97.652066"/>
     <use style="fill:#990000;fill-opacity:0.5;stroke:#990000;stroke-opacity:0.5;stroke-width:2;" x="200.660073" xlink:href="#m55dc5fcd14" y="96.516338"/>
     <use style="fill:#990000;fill-opacity:0.5;stroke:#990000;stroke-opacity:0.5;stroke-width:2;" x="201.206182" xlink:href="#m55dc5fcd14" y="95.759285"/>
     <use style="fill:#990000;fill-opacity:0.5;stroke:#990000;stroke-opacity:0.5;stroke-width:2;" x="201.7524" xlink:href="#m55dc5fcd14" y="95.380758"/>
     <use style="fill:#990000;fill-opacity:0.5;stroke:#990000;stroke-opacity:0.5;stroke-width:2;" x="202.298509" xlink:href="#m55dc5fcd14" y="96.137811"/>
     <use style="fill:#990000;fill-opacity:0.5;stroke:#990000;stroke-opacity:0.5;stroke-width:2;" x="202.844727" xlink:href="#m55dc5fcd14" y="96.611081"/>
     <use style="fill:#990000;fill-opacity:0.5;stroke:#990000;stroke-opacity:0.5;stroke-width:2;" x="203.390836" xlink:href="#m55dc5fcd14" y="97.178796"/>
     <use style="fill:#990000;fill-opacity:0.5;stroke:#990000;stroke-opacity:0.5;stroke-width:2;" x="203.937055" xlink:href="#m55dc5fcd14" y="97.462728"/>
     <use style="fill:#990000;fill-opacity:0.5;stroke:#990000;stroke-opacity:0.5;stroke-width:2;" x="204.483164" xlink:href="#m55dc5fcd14" y="98.030592"/>
     <use style="fill:#990000;fill-opacity:0.5;stroke:#990000;stroke-opacity:0.5;stroke-width:2;" x="205.029273" xlink:href="#m55dc5fcd14" y="99.544698"/>
     <use style="fill:#990000;fill-opacity:0.5;stroke:#990000;stroke-opacity:0.5;stroke-width:2;" x="205.575491" xlink:href="#m55dc5fcd14" y="100.112562"/>
     <use style="fill:#990000;fill-opacity:0.5;stroke:#990000;stroke-opacity:0.5;stroke-width:2;" x="206.1216" xlink:href="#m55dc5fcd14" y="101.153547"/>
     <use style="fill:#990000;fill-opacity:0.5;stroke:#990000;stroke-opacity:0.5;stroke-width:2;" x="206.667818" xlink:href="#m55dc5fcd14" y="103.519449"/>
     <use style="fill:#990000;fill-opacity:0.5;stroke:#990000;stroke-opacity:0.5;stroke-width:2;" x="207.213927" xlink:href="#m55dc5fcd14" y="106.547661"/>
     <use style="fill:#990000;fill-opacity:0.5;stroke:#990000;stroke-opacity:0.5;stroke-width:2;" x="207.760145" xlink:href="#m55dc5fcd14" y="108.913563"/>
     <use style="fill:#990000;fill-opacity:0.5;stroke:#990000;stroke-opacity:0.5;stroke-width:2;" x="208.306255" xlink:href="#m55dc5fcd14" y="112.036518"/>
     <use style="fill:#990000;fill-opacity:0.5;stroke:#990000;stroke-opacity:0.5;stroke-width:2;" x="208.852473" xlink:href="#m55dc5fcd14" y="114.497015"/>
     <use style="fill:#990000;fill-opacity:0.5;stroke:#990000;stroke-opacity:0.5;stroke-width:2;" x="209.398582" xlink:href="#m55dc5fcd14" y="116.48439"/>
     <use style="fill:#990000;fill-opacity:0.5;stroke:#990000;stroke-opacity:0.5;stroke-width:2;" x="209.9448" xlink:href="#m55dc5fcd14" y="117.998496"/>
     <use style="fill:#990000;fill-opacity:0.5;stroke:#990000;stroke-opacity:0.5;stroke-width:2;" x="210.490909" xlink:href="#m55dc5fcd14" y="119.796683"/>
    </g>
   </g>
   <g id="line2d_40">
    <g clip-path="url(#pba63681db3)">
     <use style="fill:#990000;fill-opacity:0.5;stroke:#990000;stroke-opacity:0.5;stroke-width:2;" x="274.614545" xlink:href="#m55dc5fcd14" y="89.775923"/>
     <use style="fill:#990000;fill-opacity:0.5;stroke:#990000;stroke-opacity:0.5;stroke-width:2;" x="275.16204" xlink:href="#m55dc5fcd14" y="88.516197"/>
     <use style="fill:#990000;fill-opacity:0.5;stroke:#990000;stroke-opacity:0.5;stroke-width:2;" x="275.709545" xlink:href="#m55dc5fcd14" y="87.134553"/>
     <use style="fill:#990000;fill-opacity:0.5;stroke:#990000;stroke-opacity:0.5;stroke-width:2;" x="276.25704" xlink:href="#m55dc5fcd14" y="86.606339"/>
     <use style="fill:#990000;fill-opacity:0.5;stroke:#990000;stroke-opacity:0.5;stroke-width:2;" x="276.804545" xlink:href="#m55dc5fcd14" y="85.834287"/>
     <use style="fill:#990000;fill-opacity:0.5;stroke:#990000;stroke-opacity:0.5;stroke-width:2;" x="277.352051" xlink:href="#m55dc5fcd14" y="85.306073"/>
     <use style="fill:#990000;fill-opacity:0.5;stroke:#990000;stroke-opacity:0.5;stroke-width:2;" x="277.899545" xlink:href="#m55dc5fcd14" y="84.615251"/>
     <use style="fill:#990000;fill-opacity:0.5;stroke:#990000;stroke-opacity:0.5;stroke-width:2;" x="278.447051" xlink:href="#m55dc5fcd14" y="84.493332"/>
     <use style="fill:#990000;fill-opacity:0.5;stroke:#990000;stroke-opacity:0.5;stroke-width:2;" x="278.994545" xlink:href="#m55dc5fcd14" y="85.021546"/>
     <use style="fill:#990000;fill-opacity:0.5;stroke:#990000;stroke-opacity:0.5;stroke-width:2;" x="279.54204" xlink:href="#m55dc5fcd14" y="85.224694"/>
     <use style="fill:#990000;fill-opacity:0.5;stroke:#990000;stroke-opacity:0.5;stroke-width:2;" x="280.089545" xlink:href="#m55dc5fcd14" y="85.224694"/>
     <use style="fill:#990000;fill-opacity:0.5;stroke:#990000;stroke-opacity:0.5;stroke-width:2;" x="280.63704" xlink:href="#m55dc5fcd14" y="86.078124"/>
     <use style="fill:#990000;fill-opacity:0.5;stroke:#990000;stroke-opacity:0.5;stroke-width:2;" x="281.184545" xlink:href="#m55dc5fcd14" y="86.48442"/>
     <use style="fill:#990000;fill-opacity:0.5;stroke:#990000;stroke-opacity:0.5;stroke-width:2;" x="281.732051" xlink:href="#m55dc5fcd14" y="87.419079"/>
     <use style="fill:#990000;fill-opacity:0.5;stroke:#990000;stroke-opacity:0.5;stroke-width:2;" x="282.279545" xlink:href="#m55dc5fcd14" y="89.207019"/>
     <use style="fill:#990000;fill-opacity:0.5;stroke:#990000;stroke-opacity:0.5;stroke-width:2;" x="282.827051" xlink:href="#m55dc5fcd14" y="90.304137"/>
     <use style="fill:#990000;fill-opacity:0.5;stroke:#990000;stroke-opacity:0.5;stroke-width:2;" x="283.374545" xlink:href="#m55dc5fcd14" y="92.010848"/>
    </g>
   </g>
   <g id="line2d_41">
    <g clip-path="url(#pba63681db3)">
     <use style="fill:#990000;fill-opacity:0.5;stroke:#990000;stroke-opacity:0.5;stroke-width:2;" x="350.738182" xlink:href="#m55dc5fcd14" y="87.423682"/>
     <use style="fill:#990000;fill-opacity:0.5;stroke:#990000;stroke-opacity:0.5;stroke-width:2;" x="351.285709" xlink:href="#m55dc5fcd14" y="86.395023"/>
     <use style="fill:#990000;fill-opacity:0.5;stroke:#990000;stroke-opacity:0.5;stroke-width:2;" x="351.833247" xlink:href="#m55dc5fcd14" y="85.095797"/>
     <use style="fill:#990000;fill-opacity:0.5;stroke:#990000;stroke-opacity:0.5;stroke-width:2;" x="352.380775" xlink:href="#m55dc5fcd14" y="84.013083"/>
     <use style="fill:#990000;fill-opacity:0.5;stroke:#990000;stroke-opacity:0.5;stroke-width:2;" x="352.928313" xlink:href="#m55dc5fcd14" y="83.146882"/>
     <use style="fill:#990000;fill-opacity:0.5;stroke:#990000;stroke-opacity:0.5;stroke-width:2;" x="353.47584" xlink:href="#m55dc5fcd14" y="82.389087"/>
     <use style="fill:#990000;fill-opacity:0.5;stroke:#990000;stroke-opacity:0.5;stroke-width:2;" x="354.023378" xlink:href="#m55dc5fcd14" y="81.577089"/>
     <use style="fill:#990000;fill-opacity:0.5;stroke:#990000;stroke-opacity:0.5;stroke-width:2;" x="354.570905" xlink:href="#m55dc5fcd14" y="80.927402"/>
     <use style="fill:#990000;fill-opacity:0.5;stroke:#990000;stroke-opacity:0.5;stroke-width:2;" x="355.118444" xlink:href="#m55dc5fcd14" y="80.602632"/>
     <use style="fill:#990000;fill-opacity:0.5;stroke:#990000;stroke-opacity:0.5;stroke-width:2;" x="355.665971" xlink:href="#m55dc5fcd14" y="80.602632"/>
     <use style="fill:#990000;fill-opacity:0.5;stroke:#990000;stroke-opacity:0.5;stroke-width:2;" x="356.213509" xlink:href="#m55dc5fcd14" y="80.602632"/>
     <use style="fill:#990000;fill-opacity:0.5;stroke:#990000;stroke-opacity:0.5;stroke-width:2;" x="356.761036" xlink:href="#m55dc5fcd14" y="80.440173"/>
     <use style="fill:#990000;fill-opacity:0.5;stroke:#990000;stroke-opacity:0.5;stroke-width:2;" x="357.308575" xlink:href="#m55dc5fcd14" y="80.656686"/>
     <use style="fill:#990000;fill-opacity:0.5;stroke:#990000;stroke-opacity:0.5;stroke-width:2;" x="357.856102" xlink:href="#m55dc5fcd14" y="81.143914"/>
     <use style="fill:#990000;fill-opacity:0.5;stroke:#990000;stroke-opacity:0.5;stroke-width:2;" x="358.40364" xlink:href="#m55dc5fcd14" y="81.41463"/>
     <use style="fill:#990000;fill-opacity:0.5;stroke:#990000;stroke-opacity:0.5;stroke-width:2;" x="358.951167" xlink:href="#m55dc5fcd14" y="82.172574"/>
     <use style="fill:#990000;fill-opacity:0.5;stroke:#990000;stroke-opacity:0.5;stroke-width:2;" x="359.498705" xlink:href="#m55dc5fcd14" y="82.768059"/>
     <use style="fill:#990000;fill-opacity:0.5;stroke:#990000;stroke-opacity:0.5;stroke-width:2;" x="360.046233" xlink:href="#m55dc5fcd14" y="83.4718"/>
     <use style="fill:#990000;fill-opacity:0.5;stroke:#990000;stroke-opacity:0.5;stroke-width:2;" x="360.593771" xlink:href="#m55dc5fcd14" y="84.771027"/>
     <use style="fill:#990000;fill-opacity:0.5;stroke:#990000;stroke-opacity:0.5;stroke-width:2;" x="361.141298" xlink:href="#m55dc5fcd14" y="86.395023"/>
     <use style="fill:#990000;fill-opacity:0.5;stroke:#990000;stroke-opacity:0.5;stroke-width:2;" x="361.688836" xlink:href="#m55dc5fcd14" y="87.802506"/>
     <use style="fill:#990000;fill-opacity:0.5;stroke:#990000;stroke-opacity:0.5;stroke-width:2;" x="362.236364" xlink:href="#m55dc5fcd14" y="89.42665"/>
    </g>
   </g>
   <g id="line2d_42">
    <g clip-path="url(#pba63681db3)">
     <use style="fill:#990000;fill-opacity:0.5;stroke:#990000;stroke-opacity:0.5;stroke-width:2;" x="431.498182" xlink:href="#m55dc5fcd14" y="83.434527"/>
     <use style="fill:#990000;fill-opacity:0.5;stroke:#990000;stroke-opacity:0.5;stroke-width:2;" x="431.681815" xlink:href="#m55dc5fcd14" y="82.992294"/>
     <use style="fill:#990000;fill-opacity:0.5;stroke:#990000;stroke-opacity:0.5;stroke-width:2;" x="431.865458" xlink:href="#m55dc5fcd14" y="82.574564"/>
     <use style="fill:#990000;fill-opacity:0.5;stroke:#990000;stroke-opacity:0.5;stroke-width:2;" x="432.049091" xlink:href="#m55dc5fcd14" y="82.279642"/>
     <use style="fill:#990000;fill-opacity:0.5;stroke:#990000;stroke-opacity:0.5;stroke-width:2;" x="432.232724" xlink:href="#m55dc5fcd14" y="82.058526"/>
     <use style="fill:#990000;fill-opacity:0.5;stroke:#990000;stroke-opacity:0.5;stroke-width:2;" x="432.416367" xlink:href="#m55dc5fcd14" y="81.886563"/>
     <use style="fill:#990000;fill-opacity:0.5;stroke:#990000;stroke-opacity:0.5;stroke-width:2;" x="432.6" xlink:href="#m55dc5fcd14" y="81.640944"/>
     <use style="fill:#990000;fill-opacity:0.5;stroke:#990000;stroke-opacity:0.5;stroke-width:2;" x="432.783633" xlink:href="#m55dc5fcd14" y="81.395176"/>
     <use style="fill:#990000;fill-opacity:0.5;stroke:#990000;stroke-opacity:0.5;stroke-width:2;" x="432.967276" xlink:href="#m55dc5fcd14" y="81.17406"/>
     <use style="fill:#990000;fill-opacity:0.5;stroke:#990000;stroke-opacity:0.5;stroke-width:2;" x="433.150909" xlink:href="#m55dc5fcd14" y="81.05125"/>
     <use style="fill:#990000;fill-opacity:0.5;stroke:#990000;stroke-opacity:0.5;stroke-width:2;" x="433.334542" xlink:href="#m55dc5fcd14" y="80.952944"/>
     <use style="fill:#990000;fill-opacity:0.5;stroke:#990000;stroke-opacity:0.5;stroke-width:2;" x="433.518185" xlink:href="#m55dc5fcd14" y="80.830134"/>
     <use style="fill:#990000;fill-opacity:0.5;stroke:#990000;stroke-opacity:0.5;stroke-width:2;" x="433.701818" xlink:href="#m55dc5fcd14" y="80.682673"/>
     <use style="fill:#990000;fill-opacity:0.5;stroke:#990000;stroke-opacity:0.5;stroke-width:2;" x="433.885451" xlink:href="#m55dc5fcd14" y="80.584366"/>
     <use style="fill:#990000;fill-opacity:0.5;stroke:#990000;stroke-opacity:0.5;stroke-width:2;" x="434.069095" xlink:href="#m55dc5fcd14" y="80.510711"/>
     <use style="fill:#990000;fill-opacity:0.5;stroke:#990000;stroke-opacity:0.5;stroke-width:2;" x="434.252727" xlink:href="#m55dc5fcd14" y="80.36325"/>
     <use style="fill:#990000;fill-opacity:0.5;stroke:#990000;stroke-opacity:0.5;stroke-width:2;" x="434.43636" xlink:href="#m55dc5fcd14" y="80.338748"/>
     <use style="fill:#990000;fill-opacity:0.5;stroke:#990000;stroke-opacity:0.5;stroke-width:2;" x="434.620004" xlink:href="#m55dc5fcd14" y="80.338748"/>
     <use style="fill:#990000;fill-opacity:0.5;stroke:#990000;stroke-opacity:0.5;stroke-width:2;" x="434.803636" xlink:href="#m55dc5fcd14" y="80.338748"/>
     <use style="fill:#990000;fill-opacity:0.5;stroke:#990000;stroke-opacity:0.5;stroke-width:2;" x="434.987269" xlink:href="#m55dc5fcd14" y="80.412403"/>
     <use style="fill:#990000;fill-opacity:0.5;stroke:#990000;stroke-opacity:0.5;stroke-width:2;" x="435.170913" xlink:href="#m55dc5fcd14" y="80.387752"/>
     <use style="fill:#990000;fill-opacity:0.5;stroke:#990000;stroke-opacity:0.5;stroke-width:2;" x="435.354545" xlink:href="#m55dc5fcd14" y="80.338748"/>
     <use style="fill:#990000;fill-opacity:0.5;stroke:#990000;stroke-opacity:0.5;stroke-width:2;" x="435.538178" xlink:href="#m55dc5fcd14" y="80.412403"/>
     <use style="fill:#990000;fill-opacity:0.5;stroke:#990000;stroke-opacity:0.5;stroke-width:2;" x="435.721822" xlink:href="#m55dc5fcd14" y="80.338748"/>
     <use style="fill:#990000;fill-opacity:0.5;stroke:#990000;stroke-opacity:0.5;stroke-width:2;" x="435.905455" xlink:href="#m55dc5fcd14" y="80.510711"/>
     <use style="fill:#990000;fill-opacity:0.5;stroke:#990000;stroke-opacity:0.5;stroke-width:2;" x="436.089087" xlink:href="#m55dc5fcd14" y="80.510711"/>
     <use style="fill:#990000;fill-opacity:0.5;stroke:#990000;stroke-opacity:0.5;stroke-width:2;" x="436.272731" xlink:href="#m55dc5fcd14" y="80.609017"/>
     <use style="fill:#990000;fill-opacity:0.5;stroke:#990000;stroke-opacity:0.5;stroke-width:2;" x="436.456364" xlink:href="#m55dc5fcd14" y="80.78098"/>
     <use style="fill:#990000;fill-opacity:0.5;stroke:#990000;stroke-opacity:0.5;stroke-width:2;" x="436.639996" xlink:href="#m55dc5fcd14" y="81.0266"/>
     <use style="fill:#990000;fill-opacity:0.5;stroke:#990000;stroke-opacity:0.5;stroke-width:2;" x="436.82364" xlink:href="#m55dc5fcd14" y="81.149558"/>
     <use style="fill:#990000;fill-opacity:0.5;stroke:#990000;stroke-opacity:0.5;stroke-width:2;" x="437.007273" xlink:href="#m55dc5fcd14" y="81.517986"/>
    </g>
   </g>
   <g id="line2d_43">
    <g clip-path="url(#pba63681db3)">
     <use style="fill:#990000;fill-opacity:0.5;stroke:#990000;stroke-opacity:0.5;stroke-width:2;" x="506.552727" xlink:href="#m55dc5fcd14" y="93.452337"/>
     <use style="fill:#990000;fill-opacity:0.5;stroke:#990000;stroke-opacity:0.5;stroke-width:2;" x="506.900727" xlink:href="#m55dc5fcd14" y="92.527628"/>
     <use style="fill:#990000;fill-opacity:0.5;stroke:#990000;stroke-opacity:0.5;stroke-width:2;" x="507.248727" xlink:href="#m55dc5fcd14" y="92.013966"/>
     <use style="fill:#990000;fill-opacity:0.5;stroke:#990000;stroke-opacity:0.5;stroke-width:2;" x="507.596727" xlink:href="#m55dc5fcd14" y="91.500304"/>
     <use style="fill:#990000;fill-opacity:0.5;stroke:#990000;stroke-opacity:0.5;stroke-width:2;" x="507.944727" xlink:href="#m55dc5fcd14" y="90.472981"/>
     <use style="fill:#990000;fill-opacity:0.5;stroke:#990000;stroke-opacity:0.5;stroke-width:2;" x="508.292727" xlink:href="#m55dc5fcd14" y="89.856558"/>
     <use style="fill:#990000;fill-opacity:0.5;stroke:#990000;stroke-opacity:0.5;stroke-width:2;" x="508.640727" xlink:href="#m55dc5fcd14" y="89.034759"/>
     <use style="fill:#990000;fill-opacity:0.5;stroke:#990000;stroke-opacity:0.5;stroke-width:2;" x="508.988727" xlink:href="#m55dc5fcd14" y="88.315573"/>
     <use style="fill:#990000;fill-opacity:0.5;stroke:#990000;stroke-opacity:0.5;stroke-width:2;" x="509.336727" xlink:href="#m55dc5fcd14" y="88.726473"/>
     <use style="fill:#990000;fill-opacity:0.5;stroke:#990000;stroke-opacity:0.5;stroke-width:2;" x="509.684727" xlink:href="#m55dc5fcd14" y="87.69915"/>
     <use style="fill:#990000;fill-opacity:0.5;stroke:#990000;stroke-opacity:0.5;stroke-width:2;" x="510.032727" xlink:href="#m55dc5fcd14" y="86.979965"/>
     <use style="fill:#990000;fill-opacity:0.5;stroke:#990000;stroke-opacity:0.5;stroke-width:2;" x="510.380727" xlink:href="#m55dc5fcd14" y="86.774589"/>
     <use style="fill:#990000;fill-opacity:0.5;stroke:#990000;stroke-opacity:0.5;stroke-width:2;" x="510.728727" xlink:href="#m55dc5fcd14" y="85.952642"/>
     <use style="fill:#990000;fill-opacity:0.5;stroke:#990000;stroke-opacity:0.5;stroke-width:2;" x="511.076727" xlink:href="#m55dc5fcd14" y="85.747118"/>
     <use style="fill:#990000;fill-opacity:0.5;stroke:#990000;stroke-opacity:0.5;stroke-width:2;" x="511.424727" xlink:href="#m55dc5fcd14" y="85.541742"/>
     <use style="fill:#990000;fill-opacity:0.5;stroke:#990000;stroke-opacity:0.5;stroke-width:2;" x="511.772727" xlink:href="#m55dc5fcd14" y="85.43898"/>
     <use style="fill:#990000;fill-opacity:0.5;stroke:#990000;stroke-opacity:0.5;stroke-width:2;" x="512.120727" xlink:href="#m55dc5fcd14" y="85.233456"/>
     <use style="fill:#990000;fill-opacity:0.5;stroke:#990000;stroke-opacity:0.5;stroke-width:2;" x="512.468727" xlink:href="#m55dc5fcd14" y="85.130842"/>
     <use style="fill:#990000;fill-opacity:0.5;stroke:#990000;stroke-opacity:0.5;stroke-width:2;" x="512.816727" xlink:href="#m55dc5fcd14" y="84.822557"/>
     <use style="fill:#990000;fill-opacity:0.5;stroke:#990000;stroke-opacity:0.5;stroke-width:2;" x="513.164727" xlink:href="#m55dc5fcd14" y="84.822557"/>
     <use style="fill:#990000;fill-opacity:0.5;stroke:#990000;stroke-opacity:0.5;stroke-width:2;" x="513.512727" xlink:href="#m55dc5fcd14" y="84.925318"/>
     <use style="fill:#990000;fill-opacity:0.5;stroke:#990000;stroke-opacity:0.5;stroke-width:2;" x="513.860727" xlink:href="#m55dc5fcd14" y="85.233456"/>
     <use style="fill:#990000;fill-opacity:0.5;stroke:#990000;stroke-opacity:0.5;stroke-width:2;" x="514.208727" xlink:href="#m55dc5fcd14" y="85.644504"/>
     <use style="fill:#990000;fill-opacity:0.5;stroke:#990000;stroke-opacity:0.5;stroke-width:2;" x="514.556727" xlink:href="#m55dc5fcd14" y="85.84988"/>
     <use style="fill:#990000;fill-opacity:0.5;stroke:#990000;stroke-opacity:0.5;stroke-width:2;" x="514.904727" xlink:href="#m55dc5fcd14" y="86.158165"/>
     <use style="fill:#990000;fill-opacity:0.5;stroke:#990000;stroke-opacity:0.5;stroke-width:2;" x="515.252727" xlink:href="#m55dc5fcd14" y="86.363541"/>
     <use style="fill:#990000;fill-opacity:0.5;stroke:#990000;stroke-opacity:0.5;stroke-width:2;" x="515.600727" xlink:href="#m55dc5fcd14" y="87.082726"/>
     <use style="fill:#990000;fill-opacity:0.5;stroke:#990000;stroke-opacity:0.5;stroke-width:2;" x="515.948727" xlink:href="#m55dc5fcd14" y="87.493626"/>
     <use style="fill:#990000;fill-opacity:0.5;stroke:#990000;stroke-opacity:0.5;stroke-width:2;" x="516.296727" xlink:href="#m55dc5fcd14" y="88.007288"/>
     <use style="fill:#990000;fill-opacity:0.5;stroke:#990000;stroke-opacity:0.5;stroke-width:2;" x="516.644727" xlink:href="#m55dc5fcd14" y="88.726473"/>
     <use style="fill:#990000;fill-opacity:0.5;stroke:#990000;stroke-opacity:0.5;stroke-width:2;" x="516.992727" xlink:href="#m55dc5fcd14" y="88.829235"/>
    </g>
   </g>
   <g id="line2d_44">
    <path clip-path="url(#pba63681db3)" d="M 194.251514 -1 
L 195.55978 319.467517 
L 195.788985 296.719427 
L 196.476602 150.411147 
L 197.851835 148.179467 
L 199.685479 144.451295 
L 201.519123 140.893554 
L 202.665151 139.144848 
L 203.581973 138.12611 
L 204.269589 137.617363 
L 204.957206 137.344883 
L 205.644822 137.319909 
L 206.332439 137.549922 
L 207.020055 138.038845 
L 207.707672 138.787128 
L 208.624494 140.182481 
L 209.541316 142.015559 
L 210.687344 144.874744 
L 212.062577 149.010361 
L 214.125426 156.094422 
L 215.729865 161.567611 
L 215.95907 178.433991 
L 216.646687 325.389618 
L 217.972944 -1 
M 270.337203 -1 
L 271.65601 324.538114 
L 271.885215 291.248962 
L 272.343626 194.272805 
L 275.323298 180.34662 
L 276.698531 174.90713 
L 277.844559 171.199416 
L 278.761381 168.857935 
L 279.678203 167.116914 
L 280.365819 166.223405 
L 281.053436 165.693782 
L 281.511847 165.546372 
L 281.970258 165.56537 
L 282.428669 165.751964 
L 283.116285 166.347839 
L 283.803902 167.324023 
L 284.491518 168.680211 
L 285.408341 171.075651 
L 286.325163 174.132002 
L 287.47119 178.852825 
L 288.617218 184.517889 
L 289.992451 192.426827 
L 291.826095 204.407081 
L 292.513711 315.700228 
L 293.787608 -1 
M 346.386545 -1 
L 347.75224 330.992447 
L 348.210651 227.842045 
L 349.815089 214.367836 
L 351.190322 204.571943 
L 352.33635 197.737687 
L 353.482378 192.150147 
L 354.3992 188.591425 
L 355.316022 185.849595 
L 356.003638 184.331885 
L 356.691255 183.277467 
L 357.378871 182.687624 
L 357.837282 182.553123 
L 358.295693 182.626067 
L 358.754104 182.906885 
L 359.212515 183.39604 
L 359.900132 184.521522 
L 360.587748 186.118819 
L 361.50457 188.986277 
L 362.421393 192.70233 
L 363.338215 197.273788 
L 364.484242 204.202798 
L 365.63027 212.497383 
L 367.005503 224.282453 
L 367.693119 230.935653 
L 367.922325 241.513574 
L 368.15153 298.215734 
L 368.380736 317.322929 
L 369.650263 -1 
M 422.349737 -1 
L 423.619264 317.322929 
L 423.84847 298.215734 
L 424.077675 241.513574 
L 424.306881 230.935653 
L 425.682114 218.137812 
L 427.057347 207.355729 
L 428.203374 199.88266 
L 429.349402 193.764715 
L 430.266224 189.835484 
L 431.183046 186.756467 
L 432.099868 184.521522 
L 432.787485 183.39604 
L 433.475101 182.740464 
L 433.933512 182.563639 
L 434.391923 182.594469 
L 434.850334 182.832541 
L 435.308745 183.277467 
L 435.996362 184.331885 
L 436.683978 185.849595 
L 437.6008 188.591425 
L 438.517622 192.150147 
L 439.66365 197.737687 
L 440.809678 204.571943 
L 442.184911 214.367836 
L 443.560144 225.794044 
L 443.789349 227.842045 
L 444.24776 330.992447 
L 444.935377 169.022291 
L 445.613455 -1 
M 498.212392 -1 
L 499.486289 315.700228 
L 499.715494 300.128817 
L 500.173905 204.407081 
L 502.236755 191.033285 
L 503.841193 182.143627 
L 504.987221 176.847237 
L 506.133248 172.522162 
L 507.05007 169.794488 
L 507.966893 167.733928 
L 508.654509 166.630956 
L 509.342126 165.908385 
L 510.029742 165.56537 
L 510.488153 165.546372 
L 510.946564 165.693782 
L 511.634181 166.223405 
L 512.321797 167.116914 
L 513.009414 168.365059 
L 513.926236 170.559767 
L 514.843058 173.325526 
L 515.989085 177.505825 
L 517.364319 183.389016 
L 519.656374 194.272805 
L 520.34399 324.538114 
L 521.662797 -1 
M 574.027056 -1 
L 575.353313 325.389618 
L 575.582519 290.236853 
L 576.04093 178.433991 
L 576.270135 161.567611 
L 578.56219 153.67483 
L 580.62504 146.858299 
L 582.000273 143.087297 
L 583.1463 140.600668 
L 584.063122 139.093766 
L 584.979945 138.038845 
L 585.667561 137.549922 
L 586.355178 137.319909 
L 587.042794 137.344883 
L 587.730411 137.617363 
L 588.418027 138.12611 
L 589.334849 139.144848 
L 590.251671 140.506769 
L 591.626904 143.043403 
L 594.835782 149.377578 
L 595.523398 150.411147 
L 595.752604 185.449856 
L 596.211015 296.719427 
L 596.44022 319.467517 
L 597.748486 -1 
L 597.748486 -1 
" style="fill:none;stroke:#004ba8;stroke-linecap:square;"/>
   </g>
   <g id="line2d_45">
    <path clip-path="url(#pba63681db3)" d="M 166.909091 303.532074 
L 167.825913 303.325521 
L 168.742735 303.357844 
L 169.659557 303.629121 
L 170.576379 304.136172 
L 171.493201 304.872432 
L 172.639229 306.099038 
L 174.014462 307.979517 
L 175.6189 310.63566 
L 180.203011 318.714317 
L 181.119833 319.726314 
L 181.807449 320.164507 
L 182.495066 320.275984 
L 182.953477 320.156494 
L 183.641093 319.687395 
L 184.32871 318.893635 
L 185.245532 317.407777 
L 186.391559 315.041965 
L 188.225204 310.597066 
L 190.97567 303.316447 
L 192.350903 299.205123 
L 193.267725 295.840965 
L 193.49693 294.876614 
L 193.726136 331.817697 
L 194.413752 194.359123 
L 194.642958 151.907529 
L 194.872163 151.490764 
L 195.330574 151.356367 
L 195.55978 151.516157 
L 196.018191 246.297999 
L 196.247396 301.670106 
L 196.476602 316.044037 
L 197.164218 153.878139 
L 197.393424 130.33772 
L 197.851835 124.649288 
L 198.768657 116.506947 
L 199.914685 108.207346 
L 201.060712 101.546974 
L 202.20674 96.352917 
L 203.123562 93.188211 
L 204.040384 90.869941 
L 204.728 89.674047 
L 205.415617 88.936658 
L 205.874028 88.69775 
L 206.332439 88.660058 
L 206.79085 88.823138 
L 207.249261 89.186852 
L 207.936878 90.109083 
L 208.624494 91.485184 
L 209.312111 93.31898 
L 210.228933 96.48684 
L 211.145755 100.502001 
L 212.062577 105.400928 
L 213.208604 112.865513 
L 214.354632 122.133391 
L 214.813043 127.036726 
L 215.042248 138.646811 
L 215.95907 320.334836 
L 216.646687 164.830956 
L 216.875892 165.015725 
L 217.563509 166.833686 
L 217.792715 188.997091 
L 218.480331 334.525492 
L 218.709537 299.401131 
L 219.626359 302.763973 
L 221.001592 306.760396 
L 223.752058 313.810149 
L 226.044113 319.257037 
L 227.190141 321.460859 
L 228.106963 322.70768 
L 228.794579 323.230328 
L 229.25299 323.353953 
L 229.711401 323.292194 
L 230.169812 323.050737 
L 230.857429 322.384037 
L 231.774251 321.039147 
L 232.920278 318.881777 
L 237.9628 308.735491 
L 239.338033 306.648138 
L 240.48406 305.269204 
L 241.630088 304.247565 
L 242.54691 303.70017 
L 243.463732 303.399469 
L 244.380554 303.34884 
L 245.297376 303.549128 
L 246.214198 303.998702 
L 247.13102 304.69342 
L 248.277048 305.895965 
L 249.423075 307.451112 
L 250.798308 309.74267 
L 252.402747 312.912748 
L 254.694802 318.025078 
L 256.757652 322.485662 
L 257.674474 324.062599 
L 258.36209 324.920878 
L 259.049707 325.407769 
L 259.508118 325.49696 
L 259.966529 325.392267 
L 260.42494 325.102525 
L 261.112556 324.36465 
L 262.029378 322.954644 
L 263.404611 320.345426 
L 266.384283 314.576129 
L 269.59316 308.672755 
L 269.822366 334.713952 
L 270.509982 202.722626 
L 271.426804 198.607439 
L 271.65601 197.90727 
L 272.343626 321.491239 
L 273.260448 121.361807 
L 273.718859 115.278846 
L 274.635681 108.36519 
L 275.781709 101.273302 
L 276.927737 95.500715 
L 278.073764 90.934389 
L 278.990586 88.114413 
L 279.907408 86.018528 
L 280.595025 84.915966 
L 281.282641 84.212466 
L 281.741052 83.96405 
L 282.199463 83.89145 
L 282.657874 83.994186 
L 283.116285 84.271834 
L 283.803902 85.015472 
L 284.491518 86.150833 
L 285.179135 87.677269 
L 286.095957 90.320806 
L 287.012779 93.662033 
L 288.158807 98.833947 
L 289.304834 105.164244 
L 290.450862 112.944921 
L 290.680067 114.928815 
L 290.909273 118.87782 
L 291.367684 211.078502 
L 291.826095 319.702313 
L 292.0553 298.76224 
L 292.513711 209.408735 
L 293.430533 215.748959 
L 293.659739 217.489409 
L 293.888944 245.031581 
L 294.347355 327.543925 
L 294.576561 313.209127 
L 295.493383 314.766806 
L 298.473055 319.441436 
L 300.077493 322.535994 
L 302.598754 327.460721 
L 303.28637 328.387382 
L 303.744781 328.768073 
L 304.203193 328.908801 
L 304.661604 328.787582 
L 305.120015 328.410814 
L 305.807631 327.438105 
L 306.724453 325.608256 
L 308.328892 321.711313 
L 311.537769 313.789755 
L 313.142207 310.391428 
L 314.517441 307.938823 
L 315.663468 306.265487 
L 316.809496 304.955749 
L 317.726318 304.18209 
L 318.64314 303.659357 
L 319.559962 303.391903 
L 320.476784 303.382001 
L 321.393606 303.629898 
L 322.310428 304.133844 
L 323.22725 304.890068 
L 324.373278 306.181015 
L 325.519305 307.840653 
L 326.894538 310.287471 
L 328.498977 313.704092 
L 330.332621 318.210709 
L 334.916731 329.993797 
L 335.604348 331.078875 
L 336.062759 331.455079 
L 336.52117 331.489681 
L 336.979581 331.194039 
L 337.667197 330.289792 
L 338.813225 328.205063 
L 340.646869 324.842369 
L 341.792896 323.177715 
L 342.709718 322.202453 
L 343.626541 321.581287 
L 344.314157 321.350115 
L 345.230979 321.31769 
L 345.68939 321.375346 
L 345.918596 323.326042 
L 346.377007 246.074392 
L 347.523034 234.37094 
L 347.75224 236.86091 
L 348.210651 327.993149 
L 349.127473 117.170169 
L 349.356678 108.364827 
L 350.044295 103.503582 
L 351.190322 97.23501 
L 352.33635 91.986719 
L 353.482378 87.6766 
L 354.628405 84.305617 
L 355.545227 82.293475 
L 356.232844 81.187851 
L 356.92046 80.430215 
L 357.608077 80.021677 
L 358.066488 79.943425 
L 358.524899 80.020317 
L 359.212515 80.425783 
L 359.900132 81.177642 
L 360.587748 82.27302 
L 361.50457 84.261095 
L 362.421393 86.841261 
L 363.56742 90.878054 
L 364.713448 95.794745 
L 365.859475 101.619184 
L 366.547092 105.820054 
L 366.776297 108.027829 
L 367.005503 130.616837 
L 367.922325 328.346564 
L 368.380736 238.381318 
L 369.297558 248.808163 
L 369.755969 254.811045 
L 370.21438 328.536161 
L 370.443585 324.197387 
L 371.131202 323.767684 
L 371.818819 323.589532 
L 372.506435 323.673948 
L 373.194052 324.016117 
L 373.881668 324.604846 
L 374.79849 325.746572 
L 375.715312 327.254928 
L 376.86134 329.574747 
L 379.3826 335.125256 
L 379.611806 335.156372 
L 379.841011 334.910653 
L 380.299422 333.940675 
L 381.674656 330.1007 
L 386.02956 317.63831 
L 387.863204 313.126474 
L 389.467643 309.769091 
L 390.842876 307.402476 
L 391.988904 305.824188 
L 393.134931 304.624389 
L 394.051753 303.946541 
L 394.968575 303.52479 
L 395.885397 303.362146 
L 396.802219 303.459761 
L 397.719041 303.816944 
L 398.635863 304.431153 
L 399.552685 305.297965 
L 400.698713 306.726834 
L 401.844741 308.523492 
L 403.219974 311.133563 
L 404.824412 314.741748 
L 406.658056 319.483039 
L 409.179317 326.716707 
L 411.700578 333.940675 
L 412.158989 334.910653 
L 412.388194 335.156372 
L 412.6174 335.125256 
L 413.075811 334.404487 
L 416.743099 326.458008 
L 417.659921 325.126916 
L 418.576743 324.185647 
L 419.264359 323.759818 
L 419.951976 323.58856 
L 420.639593 323.679239 
L 421.327209 324.028781 
L 421.556415 324.197387 
L 421.78562 328.536161 
L 422.244031 254.811045 
L 423.390059 240.75964 
L 423.619264 238.381318 
L 423.84847 273.985925 
L 424.077675 328.346564 
L 424.536086 236.599972 
L 424.994497 130.616837 
L 425.223703 108.027829 
L 425.682114 104.293609 
L 426.828141 98.008445 
L 428.203374 91.791487 
L 429.349402 87.577224 
L 430.49543 84.261095 
L 431.412252 82.27302 
L 432.099868 81.177642 
L 432.787485 80.425783 
L 433.475101 80.020317 
L 433.933512 79.943425 
L 434.391923 80.021677 
L 435.07954 80.430215 
L 435.767156 81.187851 
L 436.454773 82.293475 
L 437.371595 84.305617 
L 438.288417 86.926908 
L 439.434444 91.049986 
L 440.580472 96.109052 
L 441.7265 102.152686 
L 442.414116 106.466727 
L 442.643322 108.364827 
L 442.872527 117.170169 
L 443.789349 327.993149 
L 444.24776 236.86091 
L 444.476966 234.37094 
L 445.622993 246.074392 
L 445.852199 272.44362 
L 446.081404 323.326042 
L 446.31061 321.375346 
L 447.456637 321.315215 
L 448.144254 321.482376 
L 448.83187 321.846637 
L 449.748693 322.647258 
L 450.665515 323.788884 
L 451.811542 325.623333 
L 455.020419 331.194039 
L 455.47883 331.489681 
L 455.937241 331.455079 
L 456.395652 331.078875 
L 457.083269 329.993797 
L 458.000091 327.952412 
L 459.833735 323.117125 
L 462.813407 315.328862 
L 464.647051 311.205626 
L 466.022284 308.603025 
L 467.397517 306.484064 
L 468.543544 305.117905 
L 469.689572 304.133844 
L 470.606394 303.629898 
L 471.523216 303.382001 
L 472.440038 303.391903 
L 473.35686 303.659357 
L 474.273682 304.18209 
L 475.190504 304.955749 
L 476.336532 306.265487 
L 477.482559 307.938823 
L 478.857793 310.391428 
L 480.462231 313.789755 
L 482.525081 318.78928 
L 485.504752 326.107365 
L 486.421574 327.809524 
L 487.109191 328.629655 
L 487.567602 328.881219 
L 488.026013 328.870425 
L 488.484424 328.605405 
L 489.172041 327.80885 
L 490.088863 326.25042 
L 494.902178 317.153504 
L 497.423439 313.209127 
L 497.652645 327.543925 
L 497.88185 295.151229 
L 498.340261 217.489409 
L 499.486289 209.408735 
L 499.715494 243.933283 
L 499.9447 298.76224 
L 500.173905 319.702313 
L 501.090727 118.87782 
L 501.319933 114.928815 
L 502.007549 109.596376 
L 503.153577 102.486102 
L 504.299604 96.630602 
L 505.445632 91.903869 
L 506.362454 88.912077 
L 507.279276 86.616211 
L 507.966893 85.350442 
L 508.654509 84.476133 
L 509.342126 83.994186 
L 509.800537 83.89145 
L 510.258948 83.96405 
L 510.717359 84.212466 
L 511.404975 84.915966 
L 512.092592 86.018528 
L 512.780208 87.522995 
L 513.69703 90.160827 
L 514.613852 93.533074 
L 515.530674 97.660791 
L 516.676702 103.94117 
L 517.82273 111.637073 
L 518.510346 117.419015 
L 518.739552 121.361807 
L 519.197963 212.527407 
L 519.656374 321.491239 
L 519.885579 296.737258 
L 520.34399 197.90727 
L 520.802401 199.60508 
L 521.490018 202.722626 
L 521.948429 286.198606 
L 522.177634 334.713952 
L 522.40684 308.672755 
L 523.323662 310.590521 
L 528.824594 320.801157 
L 530.199827 323.342413 
L 531.116649 324.646852 
L 531.804266 325.269534 
L 532.262677 325.468573 
L 532.721088 325.476679 
L 533.179499 325.291043 
L 533.867115 324.672223 
L 534.554732 323.708157 
L 535.471554 322.035427 
L 537.075993 318.547443 
L 540.28487 311.496929 
L 541.889308 308.542226 
L 543.264541 306.477072 
L 544.410569 305.1307 
L 545.556596 304.149617 
L 546.473419 303.638269 
L 547.390241 303.37541 
L 548.307063 303.363292 
L 549.223885 303.601691 
L 550.140707 304.087872 
L 551.057529 304.816462 
L 552.203556 306.05521 
L 553.349584 307.636123 
L 554.724817 309.93687 
L 556.329256 313.067457 
L 560.454955 321.415438 
L 561.371777 322.643621 
L 562.059393 323.193223 
L 562.517804 323.346108 
L 562.976215 323.315303 
L 563.434626 323.099787 
L 564.122243 322.450058 
L 564.809859 321.460859 
L 565.726682 319.74071 
L 567.101915 316.630907 
L 570.081586 309.162109 
L 571.91523 304.184966 
L 572.832052 301.189543 
L 573.290463 299.401131 
L 573.519669 334.525492 
L 574.436491 166.833686 
L 575.124108 165.015725 
L 575.353313 164.830956 
L 576.04093 320.334836 
L 576.270135 297.664621 
L 576.957752 138.646811 
L 577.186957 127.036726 
L 577.874574 120.090593 
L 579.020601 111.245015 
L 580.166629 104.090587 
L 581.312656 98.386637 
L 582.229478 94.79866 
L 583.1463 92.045346 
L 583.833917 90.517205 
L 584.521533 89.443989 
L 585.20915 88.823138 
L 585.667561 88.660058 
L 586.125972 88.69775 
L 586.584383 88.936658 
L 587.042794 89.377539 
L 587.730411 90.420044 
L 588.418027 91.924753 
L 589.105644 93.899038 
L 590.022466 97.279655 
L 590.939288 101.546974 
L 591.85611 106.751426 
L 593.002137 114.70208 
L 593.918959 122.442642 
L 594.377371 127.077751 
L 594.606576 130.33772 
L 594.835782 153.878139 
L 595.523398 316.044037 
L 595.752604 301.670106 
L 596.44022 151.516157 
L 596.669426 151.356367 
L 597.127837 151.490764 
L 597.357042 151.907529 
L 598.273864 331.817697 
L 598.50307 294.876614 
L 599.419892 298.433937 
L 600.795125 302.671994 
L 603.08718 308.828227 
L 605.379235 314.520115 
L 606.754468 317.407777 
L 607.67129 318.893635 
L 608.358907 319.687395 
L 609.046523 320.156494 
L 609.73414 320.277084 
L 610.421756 320.052881 
L 611.109373 319.515031 
L 612.026195 318.399223 
L 613.172222 316.561589 
L 615.693483 311.883914 
L 617.527127 308.693736 
L 618.90236 306.679149 
L 620.048388 305.323462 
L 621.194415 304.299083 
L 622.111237 303.733977 
L 623.028059 303.403329 
L 623.944882 303.311148 
L 624.861704 303.458168 
L 625.090909 303.532074 
L 625.090909 303.532074 
" style="fill:none;stroke:#990000;stroke-linecap:square;"/>
   </g>
   <g id="patch_3">
    <path d="M 144 336.6 
L 144 39.6 
" style="fill:none;stroke:#8787ff;stroke-linecap:square;stroke-linejoin:miter;stroke-width:0.8;"/>
   </g>
   <g id="patch_4">
    <path d="M 648 336.6 
L 648 39.6 
" style="fill:none;stroke:#8787ff;stroke-linecap:square;stroke-linejoin:miter;stroke-width:0.8;"/>
   </g>
   <g id="patch_5">
    <path d="M 144 336.6 
L 648 336.6 
" style="fill:none;stroke:#8787ff;stroke-linecap:square;stroke-linejoin:miter;stroke-width:0.8;"/>
   </g>
   <g id="patch_6">
    <path d="M 144 39.6 
L 648 39.6 
" style="fill:none;stroke:#8787ff;stroke-linecap:square;stroke-linejoin:miter;stroke-width:0.8;"/>
   </g>
  </g>
 </g>
 <defs>
  <clipPath id="pba63681db3">
   <rect height="297" width="504" x="144" y="39.6"/>
  </clipPath>
 </defs>
</svg>
