<?xml version="1.0" encoding="utf-8" standalone="no"?>
<!DOCTYPE svg PUBLIC "-//W3C//DTD SVG 1.1//EN"
  "http://www.w3.org/Graphics/SVG/1.1/DTD/svg11.dtd">
<!-- Created with matplotlib (https://matplotlib.org/) -->
<svg height="396pt" version="1.1" viewBox="0 0 648 396" width="648pt" xmlns="http://www.w3.org/2000/svg" xmlns:xlink="http://www.w3.org/1999/xlink">
 <defs>
  <style type="text/css">
*{stroke-linecap:butt;stroke-linejoin:round;}
  </style>
 </defs>
 <g id="figure_1">
  <g id="patch_1">
   <path d="M 0 396 
L 648 396 
L 648 0 
L 0 0 
z
" style="fill:none;"/>
  </g>
  <g id="axes_1">
   <g id="patch_2">
    <path d="M 129.6 336.6 
L 583.2 336.6 
L 583.2 39.6 
L 129.6 39.6 
z
" style="fill:none;"/>
   </g>
   <g id="matplotlib.axis_1">
    <g id="xtick_1">
     <g id="line2d_1">
      <path clip-path="url(#p2b6d7b4ba9)" d="M 129.6 336.6 
L 129.6 39.6 
" style="fill:none;stroke:#b2b2b2;stroke-dasharray:2.96,1.28;stroke-dashoffset:0;stroke-opacity:0.3;stroke-width:0.8;"/>
     </g>
     <g id="line2d_2">
      <defs>
       <path d="M 0 0 
L 0 3.5 
" id="m3ec67bcbe6" style="stroke:#000000;stroke-width:0.8;"/>
      </defs>
      <g>
       <use style="stroke:#000000;stroke-width:0.8;" x="129.6" xlink:href="#m3ec67bcbe6" y="336.6"/>
      </g>
     </g>
     <g id="text_1">
      <!-- 0.0 -->
      <defs>
       <path d="M 31.78125 66.40625 
Q 24.171875 66.40625 20.328125 58.90625 
Q 16.5 51.421875 16.5 36.375 
Q 16.5 21.390625 20.328125 13.890625 
Q 24.171875 6.390625 31.78125 6.390625 
Q 39.453125 6.390625 43.28125 13.890625 
Q 47.125 21.390625 47.125 36.375 
Q 47.125 51.421875 43.28125 58.90625 
Q 39.453125 66.40625 31.78125 66.40625 
z
M 31.78125 74.21875 
Q 44.046875 74.21875 50.515625 64.515625 
Q 56.984375 54.828125 56.984375 36.375 
Q 56.984375 17.96875 50.515625 8.265625 
Q 44.046875 -1.421875 31.78125 -1.421875 
Q 19.53125 -1.421875 13.0625 8.265625 
Q 6.59375 17.96875 6.59375 36.375 
Q 6.59375 54.828125 13.0625 64.515625 
Q 19.53125 74.21875 31.78125 74.21875 
z
" id="DejaVuSans-48"/>
       <path d="M 10.6875 12.40625 
L 21 12.40625 
L 21 0 
L 10.6875 0 
z
" id="DejaVuSans-46"/>
      </defs>
      <g transform="translate(109.721094 362.596094)scale(0.25 -0.25)">
       <use xlink:href="#DejaVuSans-48"/>
       <use x="63.623047" xlink:href="#DejaVuSans-46"/>
       <use x="95.410156" xlink:href="#DejaVuSans-48"/>
      </g>
     </g>
    </g>
    <g id="xtick_2">
     <g id="line2d_3">
      <path clip-path="url(#p2b6d7b4ba9)" d="M 220.32 336.6 
L 220.32 39.6 
" style="fill:none;stroke:#b2b2b2;stroke-dasharray:2.96,1.28;stroke-dashoffset:0;stroke-opacity:0.3;stroke-width:0.8;"/>
     </g>
     <g id="line2d_4">
      <g>
       <use style="stroke:#000000;stroke-width:0.8;" x="220.32" xlink:href="#m3ec67bcbe6" y="336.6"/>
      </g>
     </g>
     <g id="text_2">
      <!-- 0.2 -->
      <defs>
       <path d="M 19.1875 8.296875 
L 53.609375 8.296875 
L 53.609375 0 
L 7.328125 0 
L 7.328125 8.296875 
Q 12.9375 14.109375 22.625 23.890625 
Q 32.328125 33.6875 34.8125 36.53125 
Q 39.546875 41.84375 41.421875 45.53125 
Q 43.3125 49.21875 43.3125 52.78125 
Q 43.3125 58.59375 39.234375 62.25 
Q 35.15625 65.921875 28.609375 65.921875 
Q 23.96875 65.921875 18.8125 64.3125 
Q 13.671875 62.703125 7.8125 59.421875 
L 7.8125 69.390625 
Q 13.765625 71.78125 18.9375 73 
Q 24.125 74.21875 28.421875 74.21875 
Q 39.75 74.21875 46.484375 68.546875 
Q 53.21875 62.890625 53.21875 53.421875 
Q 53.21875 48.921875 51.53125 44.890625 
Q 49.859375 40.875 45.40625 35.40625 
Q 44.1875 33.984375 37.640625 27.21875 
Q 31.109375 20.453125 19.1875 8.296875 
z
" id="DejaVuSans-50"/>
      </defs>
      <g transform="translate(200.441094 362.596094)scale(0.25 -0.25)">
       <use xlink:href="#DejaVuSans-48"/>
       <use x="63.623047" xlink:href="#DejaVuSans-46"/>
       <use x="95.410156" xlink:href="#DejaVuSans-50"/>
      </g>
     </g>
    </g>
    <g id="xtick_3">
     <g id="line2d_5">
      <path clip-path="url(#p2b6d7b4ba9)" d="M 311.04 336.6 
L 311.04 39.6 
" style="fill:none;stroke:#b2b2b2;stroke-dasharray:2.96,1.28;stroke-dashoffset:0;stroke-opacity:0.3;stroke-width:0.8;"/>
     </g>
     <g id="line2d_6">
      <g>
       <use style="stroke:#000000;stroke-width:0.8;" x="311.04" xlink:href="#m3ec67bcbe6" y="336.6"/>
      </g>
     </g>
     <g id="text_3">
      <!-- 0.4 -->
      <defs>
       <path d="M 37.796875 64.3125 
L 12.890625 25.390625 
L 37.796875 25.390625 
z
M 35.203125 72.90625 
L 47.609375 72.90625 
L 47.609375 25.390625 
L 58.015625 25.390625 
L 58.015625 17.1875 
L 47.609375 17.1875 
L 47.609375 0 
L 37.796875 0 
L 37.796875 17.1875 
L 4.890625 17.1875 
L 4.890625 26.703125 
z
" id="DejaVuSans-52"/>
      </defs>
      <g transform="translate(291.161094 362.596094)scale(0.25 -0.25)">
       <use xlink:href="#DejaVuSans-48"/>
       <use x="63.623047" xlink:href="#DejaVuSans-46"/>
       <use x="95.410156" xlink:href="#DejaVuSans-52"/>
      </g>
     </g>
    </g>
    <g id="xtick_4">
     <g id="line2d_7">
      <path clip-path="url(#p2b6d7b4ba9)" d="M 401.76 336.6 
L 401.76 39.6 
" style="fill:none;stroke:#b2b2b2;stroke-dasharray:2.96,1.28;stroke-dashoffset:0;stroke-opacity:0.3;stroke-width:0.8;"/>
     </g>
     <g id="line2d_8">
      <g>
       <use style="stroke:#000000;stroke-width:0.8;" x="401.76" xlink:href="#m3ec67bcbe6" y="336.6"/>
      </g>
     </g>
     <g id="text_4">
      <!-- 0.6 -->
      <defs>
       <path d="M 33.015625 40.375 
Q 26.375 40.375 22.484375 35.828125 
Q 18.609375 31.296875 18.609375 23.390625 
Q 18.609375 15.53125 22.484375 10.953125 
Q 26.375 6.390625 33.015625 6.390625 
Q 39.65625 6.390625 43.53125 10.953125 
Q 47.40625 15.53125 47.40625 23.390625 
Q 47.40625 31.296875 43.53125 35.828125 
Q 39.65625 40.375 33.015625 40.375 
z
M 52.59375 71.296875 
L 52.59375 62.3125 
Q 48.875 64.0625 45.09375 64.984375 
Q 41.3125 65.921875 37.59375 65.921875 
Q 27.828125 65.921875 22.671875 59.328125 
Q 17.53125 52.734375 16.796875 39.40625 
Q 19.671875 43.65625 24.015625 45.921875 
Q 28.375 48.1875 33.59375 48.1875 
Q 44.578125 48.1875 50.953125 41.515625 
Q 57.328125 34.859375 57.328125 23.390625 
Q 57.328125 12.15625 50.6875 5.359375 
Q 44.046875 -1.421875 33.015625 -1.421875 
Q 20.359375 -1.421875 13.671875 8.265625 
Q 6.984375 17.96875 6.984375 36.375 
Q 6.984375 53.65625 15.1875 63.9375 
Q 23.390625 74.21875 37.203125 74.21875 
Q 40.921875 74.21875 44.703125 73.484375 
Q 48.484375 72.75 52.59375 71.296875 
z
" id="DejaVuSans-54"/>
      </defs>
      <g transform="translate(381.881094 362.596094)scale(0.25 -0.25)">
       <use xlink:href="#DejaVuSans-48"/>
       <use x="63.623047" xlink:href="#DejaVuSans-46"/>
       <use x="95.410156" xlink:href="#DejaVuSans-54"/>
      </g>
     </g>
    </g>
    <g id="xtick_5">
     <g id="line2d_9">
      <path clip-path="url(#p2b6d7b4ba9)" d="M 492.48 336.6 
L 492.48 39.6 
" style="fill:none;stroke:#b2b2b2;stroke-dasharray:2.96,1.28;stroke-dashoffset:0;stroke-opacity:0.3;stroke-width:0.8;"/>
     </g>
     <g id="line2d_10">
      <g>
       <use style="stroke:#000000;stroke-width:0.8;" x="492.48" xlink:href="#m3ec67bcbe6" y="336.6"/>
      </g>
     </g>
     <g id="text_5">
      <!-- 0.8 -->
      <defs>
       <path d="M 31.78125 34.625 
Q 24.75 34.625 20.71875 30.859375 
Q 16.703125 27.09375 16.703125 20.515625 
Q 16.703125 13.921875 20.71875 10.15625 
Q 24.75 6.390625 31.78125 6.390625 
Q 38.8125 6.390625 42.859375 10.171875 
Q 46.921875 13.96875 46.921875 20.515625 
Q 46.921875 27.09375 42.890625 30.859375 
Q 38.875 34.625 31.78125 34.625 
z
M 21.921875 38.8125 
Q 15.578125 40.375 12.03125 44.71875 
Q 8.5 49.078125 8.5 55.328125 
Q 8.5 64.0625 14.71875 69.140625 
Q 20.953125 74.21875 31.78125 74.21875 
Q 42.671875 74.21875 48.875 69.140625 
Q 55.078125 64.0625 55.078125 55.328125 
Q 55.078125 49.078125 51.53125 44.71875 
Q 48 40.375 41.703125 38.8125 
Q 48.828125 37.15625 52.796875 32.3125 
Q 56.78125 27.484375 56.78125 20.515625 
Q 56.78125 9.90625 50.3125 4.234375 
Q 43.84375 -1.421875 31.78125 -1.421875 
Q 19.734375 -1.421875 13.25 4.234375 
Q 6.78125 9.90625 6.78125 20.515625 
Q 6.78125 27.484375 10.78125 32.3125 
Q 14.796875 37.15625 21.921875 38.8125 
z
M 18.3125 54.390625 
Q 18.3125 48.734375 21.84375 45.5625 
Q 25.390625 42.390625 31.78125 42.390625 
Q 38.140625 42.390625 41.71875 45.5625 
Q 45.3125 48.734375 45.3125 54.390625 
Q 45.3125 60.0625 41.71875 63.234375 
Q 38.140625 66.40625 31.78125 66.40625 
Q 25.390625 66.40625 21.84375 63.234375 
Q 18.3125 60.0625 18.3125 54.390625 
z
" id="DejaVuSans-56"/>
      </defs>
      <g transform="translate(472.601094 362.596094)scale(0.25 -0.25)">
       <use xlink:href="#DejaVuSans-48"/>
       <use x="63.623047" xlink:href="#DejaVuSans-46"/>
       <use x="95.410156" xlink:href="#DejaVuSans-56"/>
      </g>
     </g>
    </g>
    <g id="xtick_6">
     <g id="line2d_11">
      <path clip-path="url(#p2b6d7b4ba9)" d="M 583.2 336.6 
L 583.2 39.6 
" style="fill:none;stroke:#b2b2b2;stroke-dasharray:2.96,1.28;stroke-dashoffset:0;stroke-opacity:0.3;stroke-width:0.8;"/>
     </g>
     <g id="line2d_12">
      <g>
       <use style="stroke:#000000;stroke-width:0.8;" x="583.2" xlink:href="#m3ec67bcbe6" y="336.6"/>
      </g>
     </g>
     <g id="text_6">
      <!-- 1.0 -->
      <defs>
       <path d="M 12.40625 8.296875 
L 28.515625 8.296875 
L 28.515625 63.921875 
L 10.984375 60.40625 
L 10.984375 69.390625 
L 28.421875 72.90625 
L 38.28125 72.90625 
L 38.28125 8.296875 
L 54.390625 8.296875 
L 54.390625 0 
L 12.40625 0 
z
" id="DejaVuSans-49"/>
      </defs>
      <g transform="translate(563.321094 362.596094)scale(0.25 -0.25)">
       <use xlink:href="#DejaVuSans-49"/>
       <use x="63.623047" xlink:href="#DejaVuSans-46"/>
       <use x="95.410156" xlink:href="#DejaVuSans-48"/>
      </g>
     </g>
    </g>
    <g id="text_7">
     <!-- Normalized Magnetic Flux ($\Phi/\Phi_0$) -->
     <defs>
      <path d="M 9.8125 72.90625 
L 23.09375 72.90625 
L 55.421875 11.921875 
L 55.421875 72.90625 
L 64.984375 72.90625 
L 64.984375 0 
L 51.703125 0 
L 19.390625 60.984375 
L 19.390625 0 
L 9.8125 0 
z
" id="DejaVuSans-78"/>
      <path d="M 30.609375 48.390625 
Q 23.390625 48.390625 19.1875 42.75 
Q 14.984375 37.109375 14.984375 27.296875 
Q 14.984375 17.484375 19.15625 11.84375 
Q 23.34375 6.203125 30.609375 6.203125 
Q 37.796875 6.203125 41.984375 11.859375 
Q 46.1875 17.53125 46.1875 27.296875 
Q 46.1875 37.015625 41.984375 42.703125 
Q 37.796875 48.390625 30.609375 48.390625 
z
M 30.609375 56 
Q 42.328125 56 49.015625 48.375 
Q 55.71875 40.765625 55.71875 27.296875 
Q 55.71875 13.875 49.015625 6.21875 
Q 42.328125 -1.421875 30.609375 -1.421875 
Q 18.84375 -1.421875 12.171875 6.21875 
Q 5.515625 13.875 5.515625 27.296875 
Q 5.515625 40.765625 12.171875 48.375 
Q 18.84375 56 30.609375 56 
z
" id="DejaVuSans-111"/>
      <path d="M 41.109375 46.296875 
Q 39.59375 47.171875 37.8125 47.578125 
Q 36.03125 48 33.890625 48 
Q 26.265625 48 22.1875 43.046875 
Q 18.109375 38.09375 18.109375 28.8125 
L 18.109375 0 
L 9.078125 0 
L 9.078125 54.6875 
L 18.109375 54.6875 
L 18.109375 46.1875 
Q 20.953125 51.171875 25.484375 53.578125 
Q 30.03125 56 36.53125 56 
Q 37.453125 56 38.578125 55.875 
Q 39.703125 55.765625 41.0625 55.515625 
z
" id="DejaVuSans-114"/>
      <path d="M 52 44.1875 
Q 55.375 50.25 60.0625 53.125 
Q 64.75 56 71.09375 56 
Q 79.640625 56 84.28125 50.015625 
Q 88.921875 44.046875 88.921875 33.015625 
L 88.921875 0 
L 79.890625 0 
L 79.890625 32.71875 
Q 79.890625 40.578125 77.09375 44.375 
Q 74.3125 48.1875 68.609375 48.1875 
Q 61.625 48.1875 57.5625 43.546875 
Q 53.515625 38.921875 53.515625 30.90625 
L 53.515625 0 
L 44.484375 0 
L 44.484375 32.71875 
Q 44.484375 40.625 41.703125 44.40625 
Q 38.921875 48.1875 33.109375 48.1875 
Q 26.21875 48.1875 22.15625 43.53125 
Q 18.109375 38.875 18.109375 30.90625 
L 18.109375 0 
L 9.078125 0 
L 9.078125 54.6875 
L 18.109375 54.6875 
L 18.109375 46.1875 
Q 21.1875 51.21875 25.484375 53.609375 
Q 29.78125 56 35.6875 56 
Q 41.65625 56 45.828125 52.96875 
Q 50 49.953125 52 44.1875 
z
" id="DejaVuSans-109"/>
      <path d="M 34.28125 27.484375 
Q 23.390625 27.484375 19.1875 25 
Q 14.984375 22.515625 14.984375 16.5 
Q 14.984375 11.71875 18.140625 8.90625 
Q 21.296875 6.109375 26.703125 6.109375 
Q 34.1875 6.109375 38.703125 11.40625 
Q 43.21875 16.703125 43.21875 25.484375 
L 43.21875 27.484375 
z
M 52.203125 31.203125 
L 52.203125 0 
L 43.21875 0 
L 43.21875 8.296875 
Q 40.140625 3.328125 35.546875 0.953125 
Q 30.953125 -1.421875 24.3125 -1.421875 
Q 15.921875 -1.421875 10.953125 3.296875 
Q 6 8.015625 6 15.921875 
Q 6 25.140625 12.171875 29.828125 
Q 18.359375 34.515625 30.609375 34.515625 
L 43.21875 34.515625 
L 43.21875 35.40625 
Q 43.21875 41.609375 39.140625 45 
Q 35.0625 48.390625 27.6875 48.390625 
Q 23 48.390625 18.546875 47.265625 
Q 14.109375 46.140625 10.015625 43.890625 
L 10.015625 52.203125 
Q 14.9375 54.109375 19.578125 55.046875 
Q 24.21875 56 28.609375 56 
Q 40.484375 56 46.34375 49.84375 
Q 52.203125 43.703125 52.203125 31.203125 
z
" id="DejaVuSans-97"/>
      <path d="M 9.421875 75.984375 
L 18.40625 75.984375 
L 18.40625 0 
L 9.421875 0 
z
" id="DejaVuSans-108"/>
      <path d="M 9.421875 54.6875 
L 18.40625 54.6875 
L 18.40625 0 
L 9.421875 0 
z
M 9.421875 75.984375 
L 18.40625 75.984375 
L 18.40625 64.59375 
L 9.421875 64.59375 
z
" id="DejaVuSans-105"/>
      <path d="M 5.515625 54.6875 
L 48.1875 54.6875 
L 48.1875 46.484375 
L 14.40625 7.171875 
L 48.1875 7.171875 
L 48.1875 0 
L 4.296875 0 
L 4.296875 8.203125 
L 38.09375 47.515625 
L 5.515625 47.515625 
z
" id="DejaVuSans-122"/>
      <path d="M 56.203125 29.59375 
L 56.203125 25.203125 
L 14.890625 25.203125 
Q 15.484375 15.921875 20.484375 11.0625 
Q 25.484375 6.203125 34.421875 6.203125 
Q 39.59375 6.203125 44.453125 7.46875 
Q 49.3125 8.734375 54.109375 11.28125 
L 54.109375 2.78125 
Q 49.265625 0.734375 44.1875 -0.34375 
Q 39.109375 -1.421875 33.890625 -1.421875 
Q 20.796875 -1.421875 13.15625 6.1875 
Q 5.515625 13.8125 5.515625 26.8125 
Q 5.515625 40.234375 12.765625 48.109375 
Q 20.015625 56 32.328125 56 
Q 43.359375 56 49.78125 48.890625 
Q 56.203125 41.796875 56.203125 29.59375 
z
M 47.21875 32.234375 
Q 47.125 39.59375 43.09375 43.984375 
Q 39.0625 48.390625 32.421875 48.390625 
Q 24.90625 48.390625 20.390625 44.140625 
Q 15.875 39.890625 15.1875 32.171875 
z
" id="DejaVuSans-101"/>
      <path d="M 45.40625 46.390625 
L 45.40625 75.984375 
L 54.390625 75.984375 
L 54.390625 0 
L 45.40625 0 
L 45.40625 8.203125 
Q 42.578125 3.328125 38.25 0.953125 
Q 33.9375 -1.421875 27.875 -1.421875 
Q 17.96875 -1.421875 11.734375 6.484375 
Q 5.515625 14.40625 5.515625 27.296875 
Q 5.515625 40.1875 11.734375 48.09375 
Q 17.96875 56 27.875 56 
Q 33.9375 56 38.25 53.625 
Q 42.578125 51.265625 45.40625 46.390625 
z
M 14.796875 27.296875 
Q 14.796875 17.390625 18.875 11.75 
Q 22.953125 6.109375 30.078125 6.109375 
Q 37.203125 6.109375 41.296875 11.75 
Q 45.40625 17.390625 45.40625 27.296875 
Q 45.40625 37.203125 41.296875 42.84375 
Q 37.203125 48.484375 30.078125 48.484375 
Q 22.953125 48.484375 18.875 42.84375 
Q 14.796875 37.203125 14.796875 27.296875 
z
" id="DejaVuSans-100"/>
      <path id="DejaVuSans-32"/>
      <path d="M 9.8125 72.90625 
L 24.515625 72.90625 
L 43.109375 23.296875 
L 61.8125 72.90625 
L 76.515625 72.90625 
L 76.515625 0 
L 66.890625 0 
L 66.890625 64.015625 
L 48.09375 14.015625 
L 38.1875 14.015625 
L 19.390625 64.015625 
L 19.390625 0 
L 9.8125 0 
z
" id="DejaVuSans-77"/>
      <path d="M 45.40625 27.984375 
Q 45.40625 37.75 41.375 43.109375 
Q 37.359375 48.484375 30.078125 48.484375 
Q 22.859375 48.484375 18.828125 43.109375 
Q 14.796875 37.75 14.796875 27.984375 
Q 14.796875 18.265625 18.828125 12.890625 
Q 22.859375 7.515625 30.078125 7.515625 
Q 37.359375 7.515625 41.375 12.890625 
Q 45.40625 18.265625 45.40625 27.984375 
z
M 54.390625 6.78125 
Q 54.390625 -7.171875 48.1875 -13.984375 
Q 42 -20.796875 29.203125 -20.796875 
Q 24.46875 -20.796875 20.265625 -20.09375 
Q 16.0625 -19.390625 12.109375 -17.921875 
L 12.109375 -9.1875 
Q 16.0625 -11.328125 19.921875 -12.34375 
Q 23.78125 -13.375 27.78125 -13.375 
Q 36.625 -13.375 41.015625 -8.765625 
Q 45.40625 -4.15625 45.40625 5.171875 
L 45.40625 9.625 
Q 42.625 4.78125 38.28125 2.390625 
Q 33.9375 0 27.875 0 
Q 17.828125 0 11.671875 7.65625 
Q 5.515625 15.328125 5.515625 27.984375 
Q 5.515625 40.671875 11.671875 48.328125 
Q 17.828125 56 27.875 56 
Q 33.9375 56 38.28125 53.609375 
Q 42.625 51.21875 45.40625 46.390625 
L 45.40625 54.6875 
L 54.390625 54.6875 
z
" id="DejaVuSans-103"/>
      <path d="M 54.890625 33.015625 
L 54.890625 0 
L 45.90625 0 
L 45.90625 32.71875 
Q 45.90625 40.484375 42.875 44.328125 
Q 39.84375 48.1875 33.796875 48.1875 
Q 26.515625 48.1875 22.3125 43.546875 
Q 18.109375 38.921875 18.109375 30.90625 
L 18.109375 0 
L 9.078125 0 
L 9.078125 54.6875 
L 18.109375 54.6875 
L 18.109375 46.1875 
Q 21.34375 51.125 25.703125 53.5625 
Q 30.078125 56 35.796875 56 
Q 45.21875 56 50.046875 50.171875 
Q 54.890625 44.34375 54.890625 33.015625 
z
" id="DejaVuSans-110"/>
      <path d="M 18.3125 70.21875 
L 18.3125 54.6875 
L 36.8125 54.6875 
L 36.8125 47.703125 
L 18.3125 47.703125 
L 18.3125 18.015625 
Q 18.3125 11.328125 20.140625 9.421875 
Q 21.96875 7.515625 27.59375 7.515625 
L 36.8125 7.515625 
L 36.8125 0 
L 27.59375 0 
Q 17.1875 0 13.234375 3.875 
Q 9.28125 7.765625 9.28125 18.015625 
L 9.28125 47.703125 
L 2.6875 47.703125 
L 2.6875 54.6875 
L 9.28125 54.6875 
L 9.28125 70.21875 
z
" id="DejaVuSans-116"/>
      <path d="M 48.78125 52.59375 
L 48.78125 44.1875 
Q 44.96875 46.296875 41.140625 47.34375 
Q 37.3125 48.390625 33.40625 48.390625 
Q 24.65625 48.390625 19.8125 42.84375 
Q 14.984375 37.3125 14.984375 27.296875 
Q 14.984375 17.28125 19.8125 11.734375 
Q 24.65625 6.203125 33.40625 6.203125 
Q 37.3125 6.203125 41.140625 7.25 
Q 44.96875 8.296875 48.78125 10.40625 
L 48.78125 2.09375 
Q 45.015625 0.34375 40.984375 -0.53125 
Q 36.96875 -1.421875 32.421875 -1.421875 
Q 20.0625 -1.421875 12.78125 6.34375 
Q 5.515625 14.109375 5.515625 27.296875 
Q 5.515625 40.671875 12.859375 48.328125 
Q 20.21875 56 33.015625 56 
Q 37.15625 56 41.109375 55.140625 
Q 45.0625 54.296875 48.78125 52.59375 
z
" id="DejaVuSans-99"/>
      <path d="M 9.8125 72.90625 
L 51.703125 72.90625 
L 51.703125 64.59375 
L 19.671875 64.59375 
L 19.671875 43.109375 
L 48.578125 43.109375 
L 48.578125 34.8125 
L 19.671875 34.8125 
L 19.671875 0 
L 9.8125 0 
z
" id="DejaVuSans-70"/>
      <path d="M 8.5 21.578125 
L 8.5 54.6875 
L 17.484375 54.6875 
L 17.484375 21.921875 
Q 17.484375 14.15625 20.5 10.265625 
Q 23.53125 6.390625 29.59375 6.390625 
Q 36.859375 6.390625 41.078125 11.03125 
Q 45.3125 15.671875 45.3125 23.6875 
L 45.3125 54.6875 
L 54.296875 54.6875 
L 54.296875 0 
L 45.3125 0 
L 45.3125 8.40625 
Q 42.046875 3.421875 37.71875 1 
Q 33.40625 -1.421875 27.6875 -1.421875 
Q 18.265625 -1.421875 13.375 4.4375 
Q 8.5 10.296875 8.5 21.578125 
z
M 31.109375 56 
z
" id="DejaVuSans-117"/>
      <path d="M 54.890625 54.6875 
L 35.109375 28.078125 
L 55.90625 0 
L 45.3125 0 
L 29.390625 21.484375 
L 13.484375 0 
L 2.875 0 
L 24.125 28.609375 
L 4.6875 54.6875 
L 15.28125 54.6875 
L 29.78125 35.203125 
L 44.28125 54.6875 
z
" id="DejaVuSans-120"/>
      <path d="M 31 75.875 
Q 24.46875 64.65625 21.28125 53.65625 
Q 18.109375 42.671875 18.109375 31.390625 
Q 18.109375 20.125 21.3125 9.0625 
Q 24.515625 -2 31 -13.1875 
L 23.1875 -13.1875 
Q 15.875 -1.703125 12.234375 9.375 
Q 8.59375 20.453125 8.59375 31.390625 
Q 8.59375 42.28125 12.203125 53.3125 
Q 15.828125 64.359375 23.1875 75.875 
z
" id="DejaVuSans-40"/>
      <path d="M 18.609375 0 
L 18.609375 3.515625 
Q 31.390625 3.515625 31.390625 6.6875 
L 31.390625 13.921875 
Q 21.78125 14.84375 14.5 19.671875 
Q 10.6875 22.265625 8.140625 26.078125 
Q 5.609375 29.890625 5.609375 34.1875 
Q 5.609375 38.421875 8.140625 42.25 
Q 10.6875 46.09375 14.5 48.578125 
Q 18.265625 51.125 22.4375 52.515625 
Q 26.609375 53.90625 31.390625 54.390625 
L 31.390625 61.625 
Q 31.390625 64.796875 18.609375 64.796875 
L 18.609375 68.3125 
L 52.875 68.3125 
L 52.875 64.796875 
Q 40.09375 64.796875 40.09375 61.625 
L 40.09375 54.390625 
Q 44.234375 54.390625 48.875 52.84375 
Q 53.515625 51.3125 57.46875 48.671875 
Q 61.421875 46.046875 63.953125 42.265625 
Q 66.5 38.484375 66.5 34.1875 
Q 66.5 29.890625 63.953125 26.125 
Q 61.421875 22.359375 57.34375 19.625 
Q 53.265625 16.890625 48.625 15.40625 
Q 44 13.921875 40.09375 13.921875 
L 40.09375 6.6875 
Q 40.09375 3.515625 52.875 3.515625 
L 52.875 0 
z
M 40.09375 16.5 
Q 48.140625 17.53125 52.125 21.890625 
Q 56.109375 26.265625 56.109375 34.1875 
Q 56.109375 42.140625 52.078125 46.484375 
Q 48.046875 50.828125 40.09375 51.8125 
z
M 31.390625 16.609375 
L 31.390625 51.703125 
Q 16.015625 49.5625 16.015625 34.1875 
Q 16.015625 18.75 31.390625 16.609375 
z
" id="Cmr10-169"/>
      <path d="M 5.609375 -23 
Q 5.609375 -22.703125 5.71875 -22.609375 
L 40.484375 73.78125 
Q 40.671875 74.359375 41.15625 74.671875 
Q 41.65625 75 42.28125 75 
Q 43.171875 75 43.71875 74.453125 
Q 44.28125 73.921875 44.28125 73 
L 44.28125 72.609375 
L 9.515625 -23.78125 
Q 8.9375 -25 7.625 -25 
Q 6.78125 -25 6.1875 -24.40625 
Q 5.609375 -23.828125 5.609375 -23 
z
" id="Cmmi10-61"/>
      <path d="M 25 -2.203125 
Q 12.75 -2.203125 8.328125 7.875 
Q 3.90625 17.96875 3.90625 31.890625 
Q 3.90625 40.578125 5.484375 48.234375 
Q 7.078125 55.90625 11.78125 61.25 
Q 16.5 66.609375 25 66.609375 
Q 31.59375 66.609375 35.78125 63.375 
Q 39.984375 60.15625 42.1875 55.046875 
Q 44.390625 49.953125 45.1875 44.109375 
Q 46 38.28125 46 31.890625 
Q 46 23.296875 44.40625 15.796875 
Q 42.828125 8.296875 38.1875 3.046875 
Q 33.546875 -2.203125 25 -2.203125 
z
M 25 0.390625 
Q 30.5625 0.390625 33.296875 6.09375 
Q 36.03125 11.8125 36.671875 18.75 
Q 37.3125 25.6875 37.3125 33.5 
Q 37.3125 41.015625 36.671875 47.359375 
Q 36.03125 53.71875 33.3125 58.859375 
Q 30.609375 64.015625 25 64.015625 
Q 19.34375 64.015625 16.609375 58.828125 
Q 13.875 53.65625 13.234375 47.328125 
Q 12.59375 41.015625 12.59375 33.5 
Q 12.59375 27.9375 12.859375 23 
Q 13.140625 18.0625 14.3125 12.8125 
Q 15.484375 7.5625 18.09375 3.96875 
Q 20.703125 0.390625 25 0.390625 
z
" id="Cmr10-48"/>
      <path d="M 8.015625 75.875 
L 15.828125 75.875 
Q 23.140625 64.359375 26.78125 53.3125 
Q 30.421875 42.28125 30.421875 31.390625 
Q 30.421875 20.453125 26.78125 9.375 
Q 23.140625 -1.703125 15.828125 -13.1875 
L 8.015625 -13.1875 
Q 14.5 -2 17.703125 9.0625 
Q 20.90625 20.125 20.90625 31.390625 
Q 20.90625 42.671875 17.703125 53.65625 
Q 14.5 64.65625 8.015625 75.875 
z
" id="DejaVuSans-41"/>
     </defs>
     <g transform="translate(150.275 390.795313)scale(0.25 -0.25)">
      <use transform="translate(0 0.015625)" xlink:href="#DejaVuSans-78"/>
      <use transform="translate(74.804688 0.015625)" xlink:href="#DejaVuSans-111"/>
      <use transform="translate(135.986328 0.015625)" xlink:href="#DejaVuSans-114"/>
      <use transform="translate(177.099609 0.015625)" xlink:href="#DejaVuSans-109"/>
      <use transform="translate(274.511719 0.015625)" xlink:href="#DejaVuSans-97"/>
      <use transform="translate(335.791016 0.015625)" xlink:href="#DejaVuSans-108"/>
      <use transform="translate(363.574219 0.015625)" xlink:href="#DejaVuSans-105"/>
      <use transform="translate(391.357422 0.015625)" xlink:href="#DejaVuSans-122"/>
      <use transform="translate(443.847656 0.015625)" xlink:href="#DejaVuSans-101"/>
      <use transform="translate(505.371094 0.015625)" xlink:href="#DejaVuSans-100"/>
      <use transform="translate(568.847656 0.015625)" xlink:href="#DejaVuSans-32"/>
      <use transform="translate(600.634766 0.015625)" xlink:href="#DejaVuSans-77"/>
      <use transform="translate(686.914062 0.015625)" xlink:href="#DejaVuSans-97"/>
      <use transform="translate(748.193359 0.015625)" xlink:href="#DejaVuSans-103"/>
      <use transform="translate(811.669922 0.015625)" xlink:href="#DejaVuSans-110"/>
      <use transform="translate(875.048828 0.015625)" xlink:href="#DejaVuSans-101"/>
      <use transform="translate(936.572266 0.015625)" xlink:href="#DejaVuSans-116"/>
      <use transform="translate(975.78125 0.015625)" xlink:href="#DejaVuSans-105"/>
      <use transform="translate(1003.564453 0.015625)" xlink:href="#DejaVuSans-99"/>
      <use transform="translate(1058.544922 0.015625)" xlink:href="#DejaVuSans-32"/>
      <use transform="translate(1090.332031 0.015625)" xlink:href="#DejaVuSans-70"/>
      <use transform="translate(1147.851562 0.015625)" xlink:href="#DejaVuSans-108"/>
      <use transform="translate(1175.634766 0.015625)" xlink:href="#DejaVuSans-117"/>
      <use transform="translate(1239.013672 0.015625)" xlink:href="#DejaVuSans-120"/>
      <use transform="translate(1298.193359 0.015625)" xlink:href="#DejaVuSans-32"/>
      <use transform="translate(1329.980469 0.015625)" xlink:href="#DejaVuSans-40"/>
      <use transform="translate(1368.994141 0.015625)" xlink:href="#Cmr10-169"/>
      <use transform="translate(1441.210938 0.015625)" xlink:href="#Cmmi10-61"/>
      <use transform="translate(1491.210938 0.015625)" xlink:href="#Cmr10-169"/>
      <use transform="translate(1567.891875 -16.990625)scale(0.7)" xlink:href="#Cmr10-48"/>
      <use transform="translate(1609.269219 0.015625)" xlink:href="#DejaVuSans-41"/>
     </g>
    </g>
   </g>
   <g id="matplotlib.axis_2">
    <g id="ytick_1">
     <g id="line2d_13">
      <path clip-path="url(#p2b6d7b4ba9)" d="M 129.6 323.159147 
L 583.2 323.159147 
" style="fill:none;stroke:#b2b2b2;stroke-dasharray:2.96,1.28;stroke-dashoffset:0;stroke-opacity:0.3;stroke-width:0.8;"/>
     </g>
     <g id="line2d_14">
      <defs>
       <path d="M 0 0 
L -3.5 0 
" id="m6c1d41ad91" style="stroke:#000000;stroke-width:0.8;"/>
      </defs>
      <g>
       <use style="stroke:#000000;stroke-width:0.8;" x="129.6" xlink:href="#m6c1d41ad91" y="323.159147"/>
      </g>
     </g>
     <g id="text_8">
      <!-- 0 -->
      <g transform="translate(106.69375 332.657194)scale(0.25 -0.25)">
       <use xlink:href="#DejaVuSans-48"/>
      </g>
     </g>
    </g>
    <g id="ytick_2">
     <g id="line2d_15">
      <path clip-path="url(#p2b6d7b4ba9)" d="M 129.6 246.504962 
L 583.2 246.504962 
" style="fill:none;stroke:#b2b2b2;stroke-dasharray:2.96,1.28;stroke-dashoffset:0;stroke-opacity:0.3;stroke-width:0.8;"/>
     </g>
     <g id="line2d_16">
      <g>
       <use style="stroke:#000000;stroke-width:0.8;" x="129.6" xlink:href="#m6c1d41ad91" y="246.504962"/>
      </g>
     </g>
     <g id="text_9">
      <!-- 10 -->
      <g transform="translate(90.7875 256.003009)scale(0.25 -0.25)">
       <use xlink:href="#DejaVuSans-49"/>
       <use x="63.623047" xlink:href="#DejaVuSans-48"/>
      </g>
     </g>
    </g>
    <g id="ytick_3">
     <g id="line2d_17">
      <path clip-path="url(#p2b6d7b4ba9)" d="M 129.6 169.850777 
L 583.2 169.850777 
" style="fill:none;stroke:#b2b2b2;stroke-dasharray:2.96,1.28;stroke-dashoffset:0;stroke-opacity:0.3;stroke-width:0.8;"/>
     </g>
     <g id="line2d_18">
      <g>
       <use style="stroke:#000000;stroke-width:0.8;" x="129.6" xlink:href="#m6c1d41ad91" y="169.850777"/>
      </g>
     </g>
     <g id="text_10">
      <!-- 20 -->
      <g transform="translate(90.7875 179.348824)scale(0.25 -0.25)">
       <use xlink:href="#DejaVuSans-50"/>
       <use x="63.623047" xlink:href="#DejaVuSans-48"/>
      </g>
     </g>
    </g>
    <g id="ytick_4">
     <g id="line2d_19">
      <path clip-path="url(#p2b6d7b4ba9)" d="M 129.6 93.196592 
L 583.2 93.196592 
" style="fill:none;stroke:#b2b2b2;stroke-dasharray:2.96,1.28;stroke-dashoffset:0;stroke-opacity:0.3;stroke-width:0.8;"/>
     </g>
     <g id="line2d_20">
      <g>
       <use style="stroke:#000000;stroke-width:0.8;" x="129.6" xlink:href="#m6c1d41ad91" y="93.196592"/>
      </g>
     </g>
     <g id="text_11">
      <!-- 30 -->
      <defs>
       <path d="M 40.578125 39.3125 
Q 47.65625 37.796875 51.625 33 
Q 55.609375 28.21875 55.609375 21.1875 
Q 55.609375 10.40625 48.1875 4.484375 
Q 40.765625 -1.421875 27.09375 -1.421875 
Q 22.515625 -1.421875 17.65625 -0.515625 
Q 12.796875 0.390625 7.625 2.203125 
L 7.625 11.71875 
Q 11.71875 9.328125 16.59375 8.109375 
Q 21.484375 6.890625 26.8125 6.890625 
Q 36.078125 6.890625 40.9375 10.546875 
Q 45.796875 14.203125 45.796875 21.1875 
Q 45.796875 27.640625 41.28125 31.265625 
Q 36.765625 34.90625 28.71875 34.90625 
L 20.21875 34.90625 
L 20.21875 43.015625 
L 29.109375 43.015625 
Q 36.375 43.015625 40.234375 45.921875 
Q 44.09375 48.828125 44.09375 54.296875 
Q 44.09375 59.90625 40.109375 62.90625 
Q 36.140625 65.921875 28.71875 65.921875 
Q 24.65625 65.921875 20.015625 65.03125 
Q 15.375 64.15625 9.8125 62.3125 
L 9.8125 71.09375 
Q 15.4375 72.65625 20.34375 73.4375 
Q 25.25 74.21875 29.59375 74.21875 
Q 40.828125 74.21875 47.359375 69.109375 
Q 53.90625 64.015625 53.90625 55.328125 
Q 53.90625 49.265625 50.4375 45.09375 
Q 46.96875 40.921875 40.578125 39.3125 
z
" id="DejaVuSans-51"/>
      </defs>
      <g transform="translate(90.7875 102.694639)scale(0.25 -0.25)">
       <use xlink:href="#DejaVuSans-51"/>
       <use x="63.623047" xlink:href="#DejaVuSans-48"/>
      </g>
     </g>
    </g>
    <g id="text_12">
     <!-- Matrix elements ($\mu$V) -->
     <defs>
      <path d="M 44.28125 53.078125 
L 44.28125 44.578125 
Q 40.484375 46.53125 36.375 47.5 
Q 32.28125 48.484375 27.875 48.484375 
Q 21.1875 48.484375 17.84375 46.4375 
Q 14.5 44.390625 14.5 40.28125 
Q 14.5 37.15625 16.890625 35.375 
Q 19.28125 33.59375 26.515625 31.984375 
L 29.59375 31.296875 
Q 39.15625 29.25 43.1875 25.515625 
Q 47.21875 21.78125 47.21875 15.09375 
Q 47.21875 7.46875 41.1875 3.015625 
Q 35.15625 -1.421875 24.609375 -1.421875 
Q 20.21875 -1.421875 15.453125 -0.5625 
Q 10.6875 0.296875 5.421875 2 
L 5.421875 11.28125 
Q 10.40625 8.6875 15.234375 7.390625 
Q 20.0625 6.109375 24.8125 6.109375 
Q 31.15625 6.109375 34.5625 8.28125 
Q 37.984375 10.453125 37.984375 14.40625 
Q 37.984375 18.0625 35.515625 20.015625 
Q 33.0625 21.96875 24.703125 23.78125 
L 21.578125 24.515625 
Q 13.234375 26.265625 9.515625 29.90625 
Q 5.8125 33.546875 5.8125 39.890625 
Q 5.8125 47.609375 11.28125 51.796875 
Q 16.75 56 26.8125 56 
Q 31.78125 56 36.171875 55.265625 
Q 40.578125 54.546875 44.28125 53.078125 
z
" id="DejaVuSans-115"/>
      <path d="M 2.78125 -18.796875 
Q 2.78125 -18.21875 2.875 -18.015625 
L 17.578125 41.015625 
Q 18.015625 42.4375 19.15625 43.3125 
Q 20.3125 44.1875 21.78125 44.1875 
Q 23.046875 44.1875 23.921875 43.421875 
Q 24.8125 42.671875 24.8125 41.40625 
Q 24.8125 41.109375 24.78125 40.9375 
Q 24.75 40.765625 24.703125 40.578125 
L 18.796875 17.1875 
Q 17.828125 13.03125 17.828125 10.015625 
Q 17.828125 6.296875 19.578125 3.90625 
Q 21.34375 1.515625 24.90625 1.515625 
Q 32.171875 1.515625 37.703125 10.59375 
Q 37.75 10.6875 37.765625 10.734375 
Q 37.796875 10.796875 37.796875 10.890625 
L 45.015625 39.890625 
Q 45.359375 41.21875 46.578125 42.15625 
Q 47.796875 43.109375 49.21875 43.109375 
Q 50.390625 43.109375 51.296875 42.328125 
Q 52.203125 41.546875 52.203125 40.28125 
Q 52.203125 39.703125 52.09375 39.5 
L 44.921875 10.6875 
Q 44.1875 7.859375 44.1875 5.8125 
Q 44.1875 1.515625 47.125 1.515625 
Q 50.25 1.515625 51.828125 5.375 
Q 53.421875 9.234375 54.59375 14.703125 
Q 54.78125 15.28125 55.421875 15.28125 
L 56.59375 15.28125 
Q 56.984375 15.28125 57.25 14.96875 
Q 57.515625 14.65625 57.515625 14.3125 
Q 55.765625 7.328125 53.6875 3.09375 
Q 51.609375 -1.125 46.921875 -1.125 
Q 43.609375 -1.125 41.046875 0.78125 
Q 38.484375 2.6875 37.703125 5.90625 
Q 35.203125 2.78125 31.859375 0.828125 
Q 28.515625 -1.125 24.8125 -1.125 
Q 18.5625 -1.125 14.984375 1.8125 
L 9.90625 -18.40625 
Q 9.625 -19.828125 8.453125 -20.703125 
Q 7.28125 -21.578125 5.8125 -21.578125 
Q 4.59375 -21.578125 3.6875 -20.8125 
Q 2.78125 -20.0625 2.78125 -18.796875 
z
" id="Cmmi10-185"/>
      <path d="M 28.609375 0 
L 0.78125 72.90625 
L 11.078125 72.90625 
L 34.1875 11.53125 
L 57.328125 72.90625 
L 67.578125 72.90625 
L 39.796875 0 
z
" id="DejaVuSans-86"/>
     </defs>
     <g transform="translate(81.2875 319.35)rotate(-90)scale(0.25 -0.25)">
      <use transform="translate(0 0.015625)" xlink:href="#DejaVuSans-77"/>
      <use transform="translate(86.279297 0.015625)" xlink:href="#DejaVuSans-97"/>
      <use transform="translate(147.558594 0.015625)" xlink:href="#DejaVuSans-116"/>
      <use transform="translate(186.767578 0.015625)" xlink:href="#DejaVuSans-114"/>
      <use transform="translate(227.880859 0.015625)" xlink:href="#DejaVuSans-105"/>
      <use transform="translate(255.664062 0.015625)" xlink:href="#DejaVuSans-120"/>
      <use transform="translate(314.84375 0.015625)" xlink:href="#DejaVuSans-32"/>
      <use transform="translate(346.630859 0.015625)" xlink:href="#DejaVuSans-101"/>
      <use transform="translate(408.154297 0.015625)" xlink:href="#DejaVuSans-108"/>
      <use transform="translate(435.9375 0.015625)" xlink:href="#DejaVuSans-101"/>
      <use transform="translate(497.460938 0.015625)" xlink:href="#DejaVuSans-109"/>
      <use transform="translate(594.873047 0.015625)" xlink:href="#DejaVuSans-101"/>
      <use transform="translate(656.396484 0.015625)" xlink:href="#DejaVuSans-110"/>
      <use transform="translate(719.775391 0.015625)" xlink:href="#DejaVuSans-116"/>
      <use transform="translate(758.984375 0.015625)" xlink:href="#DejaVuSans-115"/>
      <use transform="translate(811.083984 0.015625)" xlink:href="#DejaVuSans-32"/>
      <use transform="translate(842.871094 0.015625)" xlink:href="#DejaVuSans-40"/>
      <use transform="translate(881.884766 0.015625)" xlink:href="#Cmmi10-185"/>
      <use transform="translate(942.089844 0.015625)" xlink:href="#DejaVuSans-86"/>
      <use transform="translate(1010.498047 0.015625)" xlink:href="#DejaVuSans-41"/>
     </g>
    </g>
   </g>
   <g id="line2d_21">
    <path clip-path="url(#p2b6d7b4ba9)" d="M 129.327786 86.413468 
L 130.961072 86.517796 
L 132.594359 86.934669 
L 134.227646 87.662499 
L 135.860932 88.698524 
L 137.494219 90.038817 
L 139.127506 91.678314 
L 140.760792 93.610843 
L 142.394079 95.829164 
L 144.571794 99.217059 
L 146.74951 103.075947 
L 148.927225 107.380709 
L 151.64937 113.346251 
L 154.371514 119.90596 
L 157.638088 128.471937 
L 160.904661 137.684754 
L 164.715663 149.087942 
L 169.615523 164.482076 
L 188.126105 223.484139 
L 192.481536 236.251674 
L 196.292539 246.782353 
L 200.103541 256.639763 
L 203.370114 264.51633 
L 206.636687 271.845794 
L 209.903261 278.622349 
L 213.169834 284.850496 
L 216.436407 290.543902 
L 219.702981 295.724035 
L 222.969554 300.418467 
L 226.236127 304.658608 
L 229.502701 308.476483 
L 232.769274 311.900071 
L 236.035847 314.947126 
L 238.757992 317.200147 
L 241.480136 319.182668 
L 244.20228 320.87119 
L 246.379996 321.960681 
L 247.468854 322.355214 
L 248.557712 322.520852 
L 249.646569 322.386262 
L 258.90186 320.220803 
L 264.346149 319.441455 
L 270.879296 318.496872 
L 273.60144 317.911993 
L 275.779156 317.216411 
L 276.868014 316.690552 
L 277.412442 316.252122 
L 277.956871 309.871478 
L 278.5013 308.132734 
L 279.590158 308.628478 
L 280.679016 308.87797 
L 282.312302 309.015005 
L 283.945589 308.939531 
L 285.578876 308.608387 
L 286.667734 308.14325 
L 287.212162 307.775488 
L 287.756591 307.250628 
L 288.30102 306.455471 
L 288.845449 305.127368 
L 289.389878 302.493742 
L 289.934307 294.965268 
L 290.478736 246.074646 
L 291.023165 317.702136 
L 291.567594 319.922192 
L 292.112022 317.795552 
L 292.656451 317.872045 
L 293.20088 317.745741 
L 293.745309 278.213499 
L 294.289738 267.472738 
L 294.834167 265.273803 
L 295.923025 262.602683 
L 306.267173 240.094968 
L 314.433607 221.138863 
L 320.966753 206.226689 
L 325.322184 196.84931 
L 328.588758 190.281322 
L 331.855331 184.218572 
L 334.577475 179.617436 
L 337.29962 175.478175 
L 339.477335 172.529081 
L 341.655051 169.924184 
L 343.832767 167.681561 
L 346.010482 165.81687 
L 347.643769 164.674336 
L 349.277055 163.756315 
L 350.910342 163.066435 
L 352.543629 162.607409 
L 354.176915 162.381021 
L 355.810202 162.388115 
L 357.443489 162.628584 
L 359.076775 163.101378 
L 360.710062 163.804498 
L 362.343349 164.735017 
L 363.976635 165.889089 
L 365.609922 167.261975 
L 367.787638 169.423049 
L 369.965353 171.947461 
L 372.143069 174.817119 
L 374.320784 178.011615 
L 377.042929 182.427019 
L 379.765073 187.266454 
L 383.031646 193.55976 
L 386.842649 201.449526 
L 391.742509 212.209439 
L 407.530946 247.461566 
L 411.341948 255.154072 
L 415.152951 262.59155 
L 415.697379 264.027837 
L 416.241808 266.976321 
L 416.786237 294.617519 
L 417.330666 316.053566 
L 417.875095 316.419136 
L 418.419524 317.395889 
L 418.963953 320.322492 
L 419.508382 310.298953 
L 420.052811 273.899497 
L 420.597239 299.091669 
L 421.141668 303.895683 
L 421.686097 305.875101 
L 422.230526 306.950404 
L 422.774955 307.623083 
L 423.863813 308.407938 
L 424.952671 308.831783 
L 426.585957 309.142312 
L 428.219244 309.215225 
L 429.852531 309.077168 
L 430.941388 308.812735 
L 432.030246 308.266591 
L 432.574675 314.410077 
L 433.119104 316.227916 
L 433.663533 316.699017 
L 434.75239 317.254219 
L 436.385677 317.814273 
L 439.107822 318.45358 
L 442.918824 319.070032 
L 458.162833 321.272263 
L 460.340548 321.50108 
L 461.973835 321.455987 
L 463.607121 321.144467 
L 465.240408 320.58474 
L 467.418124 319.542128 
L 469.595839 318.238025 
L 472.317984 316.303685 
L 475.040128 314.067073 
L 477.762272 311.545602 
L 480.484417 308.743328 
L 483.206561 305.65496 
L 485.928706 302.26893 
L 488.65085 298.570111 
L 491.372995 294.542048 
L 494.095139 290.168675 
L 496.817283 285.435621 
L 500.083857 279.264945 
L 503.35043 272.546158 
L 506.617003 265.274467 
L 509.883577 257.455065 
L 513.15015 249.104151 
L 516.961152 238.72768 
L 520.772154 227.732084 
L 525.127586 214.522812 
L 530.571874 197.300421 
L 546.360312 146.867411 
L 550.171314 135.607831 
L 553.437888 126.54912 
L 556.704461 118.164623 
L 559.426605 111.77576 
L 562.14875 105.997445 
L 564.326465 101.853165 
L 566.504181 98.163246 
L 568.681896 94.951762 
L 570.315183 92.869959 
L 571.94847 91.077003 
L 573.581756 89.579613 
L 575.215043 88.383426 
L 576.84833 87.492957 
L 578.481616 86.911577 
L 580.114903 86.641487 
L 581.74819 86.683705 
L 583.381476 87.038066 
L 583.381476 87.038066 
" style="fill:none;stroke:#004ba8;stroke-linecap:square;stroke-width:1.8;"/>
   </g>
   <g id="line2d_22">
    <path clip-path="url(#p2b6d7b4ba9)" d="M 129.327786 322.888597 
L 129.872214 322.888597 
L 138.583077 314.368781 
L 143.482937 309.86437 
L 147.838368 306.158086 
L 151.64937 303.204544 
L 154.915943 300.920541 
L 158.182517 298.886993 
L 161.44909 297.119623 
L 164.715663 295.629142 
L 167.982236 294.421202 
L 170.704381 293.631041 
L 173.426525 293.035467 
L 176.693099 292.571348 
L 179.959672 292.369668 
L 183.226245 292.415283 
L 186.492819 292.689821 
L 189.759392 293.172263 
L 193.570394 293.967073 
L 197.925825 295.133611 
L 202.825685 296.703921 
L 208.814403 298.87744 
L 219.158552 302.92354 
L 241.480136 311.861306 
L 249.10214 315.323578 
L 256.724145 318.728772 
L 265.435007 322.322111 
L 267.068294 322.859241 
L 267.612723 322.81886 
L 268.70158 322.412233 
L 270.879296 321.314114 
L 272.512583 320.307283 
L 274.145869 319.005375 
L 275.234727 317.757399 
L 275.779156 316.853622 
L 276.323585 315.50234 
L 276.868014 313.086355 
L 277.412442 309.357971 
L 277.956871 313.145785 
L 278.5013 316.087576 
L 279.590158 314.901819 
L 280.134587 314.022583 
L 280.679016 312.493774 
L 281.223445 310.03392 
L 282.312302 311.527038 
L 282.856731 311.846222 
L 283.945589 311.97429 
L 285.034447 311.814313 
L 286.123305 311.482637 
L 287.212162 310.970062 
L 288.30102 310.146239 
L 288.845449 309.475422 
L 289.389878 308.338848 
L 289.934307 305.506832 
L 290.478736 279.74257 
L 291.023165 269.411244 
L 291.567594 268.845997 
L 292.656451 266.843526 
L 293.20088 265.739676 
L 294.289738 300.800244 
L 294.834167 303.02994 
L 295.378596 302.794525 
L 295.923025 301.078774 
L 296.467453 297.065219 
L 297.011882 286.211909 
L 297.556311 243.719608 
L 298.10074 217.788409 
L 298.645169 216.251811 
L 299.734027 215.580911 
L 302.456171 213.988206 
L 313.344749 207.358362 
L 318.244609 204.697928 
L 322.60004 202.568108 
L 326.955471 200.677824 
L 331.310902 199.036745 
L 335.666333 197.649124 
L 340.021764 196.515795 
L 344.377195 195.636018 
L 348.732627 195.009112 
L 353.088058 194.635723 
L 356.89906 194.519102 
L 360.710062 194.602083 
L 364.521064 194.889399 
L 368.332066 195.386763 
L 372.143069 196.100315 
L 375.954071 197.035896 
L 379.765073 198.198205 
L 383.576075 199.589901 
L 387.387077 201.210705 
L 391.19808 203.056552 
L 395.553511 205.430287 
L 399.908942 208.06426 
L 404.808802 211.289589 
L 411.341948 215.663035 
L 411.886377 216.252297 
L 412.430806 220.871064 
L 412.975235 268.94215 
L 413.519664 292.802378 
L 414.064093 299.55577 
L 414.608522 302.352859 
L 415.152951 303.45324 
L 415.697379 303.015177 
L 416.241808 298.48935 
L 416.786237 270.015695 
L 417.330666 264.256785 
L 418.419524 266.045353 
L 418.963953 266.728023 
L 419.508382 267.131545 
L 420.052811 297.781401 
L 420.597239 307.413078 
L 421.141668 309.30437 
L 421.686097 310.208158 
L 422.774955 311.204282 
L 423.863813 311.79768 
L 425.497099 312.335146 
L 426.585957 312.488233 
L 427.130386 312.471603 
L 427.674815 312.339787 
L 428.219244 311.97695 
L 428.763673 311.173308 
L 429.308102 311.746698 
L 429.852531 313.57685 
L 430.396959 314.62107 
L 431.485817 315.92355 
L 432.030246 316.484647 
L 432.574675 309.423388 
L 433.119104 310.578884 
L 433.663533 314.120915 
L 434.207962 316.094235 
L 434.75239 317.247497 
L 435.841248 318.676327 
L 436.930106 319.64923 
L 438.563393 320.756143 
L 440.741108 321.881957 
L 442.374395 322.451711 
L 443.463253 322.512487 
L 444.55211 322.270953 
L 447.274255 321.295484 
L 454.35183 318.465232 
L 460.884977 315.617627 
L 473.95127 309.844053 
L 483.206561 306.114212 
L 504.439288 297.811245 
L 509.883577 295.937636 
L 514.239008 294.640701 
L 518.05001 293.703141 
L 521.861012 292.990985 
L 525.127586 292.588808 
L 528.394159 292.402433 
L 531.660732 292.451917 
L 534.927305 292.754482 
L 537.64945 293.210022 
L 540.371594 293.8569 
L 543.093739 294.698968 
L 545.815883 295.737856 
L 549.082456 297.243154 
L 552.34903 299.024898 
L 555.615603 301.072185 
L 558.882176 303.369086 
L 562.693179 306.336308 
L 567.04861 310.055953 
L 571.94847 314.571788 
L 578.481616 320.937893 
L 580.659332 323.1 
L 581.74819 322.136374 
L 583.381476 320.516602 
L 583.381476 320.516602 
" style="fill:none;stroke:#009e73;stroke-linecap:square;stroke-width:1.8;"/>
   </g>
   <g id="line2d_23">
    <path clip-path="url(#p2b6d7b4ba9)" d="M 129.327786 321.710361 
L 129.872214 321.710361 
L 136.94979 284.537935 
L 141.305221 262.848348 
L 144.571794 247.595199 
L 147.838368 233.450101 
L 150.560512 222.645416 
L 153.282657 212.834774 
L 155.460372 205.755089 
L 157.638088 199.394623 
L 159.815803 193.779193 
L 161.44909 190.068172 
L 163.082376 186.792396 
L 164.715663 183.955074 
L 166.34895 181.557256 
L 167.982236 179.597873 
L 169.615523 178.073801 
L 170.704381 177.297146 
L 171.793239 176.709742 
L 172.882096 176.309237 
L 173.970954 176.092927 
L 175.059812 176.057776 
L 176.14867 176.200425 
L 177.237528 176.517211 
L 178.326385 177.004182 
L 179.959672 178.044434 
L 181.592959 179.442752 
L 183.226245 181.182709 
L 184.859532 183.246888 
L 186.492819 185.617031 
L 188.670534 189.220345 
L 190.84825 193.287557 
L 193.570394 198.951768 
L 196.292539 205.173685 
L 199.559112 213.246512 
L 203.370114 223.307558 
L 208.269974 236.915029 
L 228.413843 293.663303 
L 232.769274 305.014829 
L 236.035847 312.937939 
L 238.213563 317.755918 
L 239.846849 320.926526 
L 240.391278 321.736613 
L 240.935707 322.039261 
L 241.480136 321.595053 
L 245.291138 316.38154 
L 246.924425 314.721079 
L 248.557712 313.493389 
L 249.646569 312.910472 
L 250.735427 312.507024 
L 251.824285 312.272317 
L 253.457572 312.208997 
L 255.090858 312.451368 
L 256.724145 312.95396 
L 258.357431 313.675316 
L 260.535147 314.918116 
L 262.712863 316.427141 
L 265.435007 318.628758 
L 268.70158 321.459459 
L 269.246009 321.749953 
L 269.790438 321.792747 
L 270.334867 321.535232 
L 271.423725 320.445245 
L 272.512583 318.974323 
L 273.60144 317.229644 
L 274.690298 315.165428 
L 275.779156 312.595474 
L 276.323585 310.952992 
L 277.412442 307.247579 
L 277.956871 274.035351 
L 278.5013 306.61599 
L 279.045729 308.775607 
L 280.679016 312.271918 
L 281.223445 300.230163 
L 281.767874 285.647573 
L 282.312302 282.56706 
L 282.856731 281.44906 
L 283.945589 280.173095 
L 286.123305 277.832943 
L 289.389878 273.892262 
L 289.934307 273.8684 
L 290.478736 292.222145 
L 291.023165 315.281925 
L 291.567594 312.20716 
L 293.20088 307.525462 
L 293.745309 312.622609 
L 294.289738 309.505735 
L 295.378596 304.944214 
L 295.923025 301.666408 
L 296.467453 295.807464 
L 297.011882 281.229784 
L 297.556311 224.664381 
L 298.10074 187.409888 
L 298.645169 183.44867 
L 299.734027 179.57508 
L 319.333467 115.56725 
L 323.144469 104.156968 
L 326.411042 94.970115 
L 329.677616 86.448729 
L 332.39976 79.933508 
L 335.121904 74.013732 
L 337.29962 69.743454 
L 339.477335 65.914935 
L 341.655051 62.551523 
L 343.832767 59.674017 
L 345.466053 57.84572 
L 347.09934 56.307476 
L 348.732627 55.064839 
L 350.365913 54.122362 
L 351.9992 53.483568 
L 353.632486 53.15093 
L 355.265773 53.125861 
L 356.89906 53.408698 
L 358.532346 53.998709 
L 360.165633 54.894093 
L 361.79892 56.091991 
L 363.432206 57.588507 
L 365.065493 59.378725 
L 366.69878 61.456744 
L 368.876495 64.663148 
L 371.054211 68.350161 
L 373.231926 72.496356 
L 375.409642 77.077853 
L 378.131786 83.376946 
L 380.853931 90.260222 
L 384.120504 99.208212 
L 387.387077 108.805808 
L 391.19808 120.677536 
L 396.09794 136.741004 
L 403.175515 160.872079 
L 411.341948 189.072395 
L 411.886377 191.464418 
L 412.430806 199.477533 
L 412.975235 261.491745 
L 413.519664 291.394622 
L 414.064093 300.213654 
L 414.608522 304.404549 
L 415.152951 307.015256 
L 415.697379 309.011699 
L 416.241808 310.444448 
L 416.786237 300.306518 
L 417.330666 306.68534 
L 417.875095 309.290408 
L 418.963953 312.592339 
L 419.508382 315.80581 
L 420.052811 273.602158 
L 420.597239 270.561672 
L 421.141668 270.779275 
L 424.952671 273.972222 
L 426.585957 274.854508 
L 427.674815 275.458561 
L 428.219244 276.323097 
L 428.763673 280.507342 
L 429.308102 297.469955 
L 429.852531 305.702609 
L 430.396959 307.274154 
L 430.941388 307.509904 
L 431.485817 306.760186 
L 432.574675 295.009051 
L 433.119104 308.306707 
L 433.663533 310.916988 
L 434.75239 313.733709 
L 435.841248 315.778301 
L 436.930106 317.444902 
L 438.018964 318.791445 
L 439.107822 319.779381 
L 439.65225 320.104731 
L 440.196679 320.295817 
L 440.741108 320.345883 
L 441.829966 320.075966 
L 442.918824 319.489152 
L 445.640968 317.610977 
L 448.907542 315.445105 
L 451.085257 314.232804 
L 453.262973 313.281568 
L 454.896259 312.783268 
L 456.529546 312.508972 
L 458.162833 312.497426 
L 459.796119 312.787116 
L 461.429406 313.411534 
L 463.062693 314.392111 
L 464.695979 315.72612 
L 466.873695 317.938369 
L 468.506981 319.53094 
L 469.05141 319.859336 
L 469.595839 319.966787 
L 470.140268 319.798723 
L 470.684697 319.362828 
L 471.773555 317.909095 
L 472.862412 315.997142 
L 474.495699 312.670387 
L 476.673415 307.725424 
L 479.939988 299.635975 
L 483.75099 289.564219 
L 489.195279 274.472784 
L 497.361712 251.064713 
L 505.528146 227.827655 
L 509.883577 216.073052 
L 513.15015 207.799571 
L 516.416723 200.158572 
L 519.138868 194.388261 
L 521.316583 190.229821 
L 523.494299 186.529638 
L 525.672014 183.334112 
L 527.305301 181.295683 
L 528.938588 179.584485 
L 530.571874 178.217768 
L 532.205161 177.211775 
L 533.294019 176.749017 
L 534.382877 176.457469 
L 535.471734 176.341013 
L 536.560592 176.40324 
L 537.64945 176.647434 
L 538.738308 177.076554 
L 539.827165 177.693224 
L 540.916023 178.49971 
L 542.54931 180.069406 
L 544.182597 182.0752 
L 545.815883 184.519913 
L 547.44917 187.404298 
L 549.082456 190.726993 
L 550.715743 194.484467 
L 552.893459 200.160559 
L 555.071174 206.579539 
L 557.24889 213.71485 
L 559.426605 221.533131 
L 562.14875 232.204931 
L 564.870894 243.789185 
L 568.137467 258.7446 
L 571.94847 277.38216 
L 576.84833 302.658909 
L 580.659332 322.842815 
L 581.203761 320.581875 
L 583.381476 309.030664 
L 583.381476 309.030664 
" style="fill:none;stroke:#990000;stroke-linecap:square;stroke-width:1.8;"/>
   </g>
   <g id="patch_3">
    <path d="M 129.6 336.6 
L 129.6 39.6 
" style="fill:none;stroke:#8787ff;stroke-linecap:square;stroke-linejoin:miter;stroke-width:0.8;"/>
   </g>
   <g id="patch_4">
    <path d="M 583.2 336.6 
L 583.2 39.6 
" style="fill:none;stroke:#8787ff;stroke-linecap:square;stroke-linejoin:miter;stroke-width:0.8;"/>
   </g>
   <g id="patch_5">
    <path d="M 129.6 336.6 
L 583.2 336.6 
" style="fill:none;stroke:#8787ff;stroke-linecap:square;stroke-linejoin:miter;stroke-width:0.8;"/>
   </g>
   <g id="patch_6">
    <path d="M 129.6 39.6 
L 583.2 39.6 
" style="fill:none;stroke:#8787ff;stroke-linecap:square;stroke-linejoin:miter;stroke-width:0.8;"/>
   </g>
  </g>
 </g>
 <defs>
  <clipPath id="p2b6d7b4ba9">
   <rect height="297" width="453.6" x="129.6" y="39.6"/>
  </clipPath>
 </defs>
</svg>
