<?xml version="1.0" encoding="utf-8" standalone="no"?>
<!DOCTYPE svg PUBLIC "-//W3C//DTD SVG 1.1//EN"
  "http://www.w3.org/Graphics/SVG/1.1/DTD/svg11.dtd">
<!-- Created with matplotlib (https://matplotlib.org/) -->
<svg height="396pt" version="1.1" viewBox="0 0 648 396" width="648pt" xmlns="http://www.w3.org/2000/svg" xmlns:xlink="http://www.w3.org/1999/xlink">
 <defs>
  <style type="text/css">
*{stroke-linecap:butt;stroke-linejoin:round;}
  </style>
 </defs>
 <g id="figure_1">
  <g id="patch_1">
   <path d="M 0 396 
L 648 396 
L 648 0 
L 0 0 
z
" style="fill:none;"/>
  </g>
  <g id="axes_1">
   <g id="patch_2">
    <path d="M 129.6 336.6 
L 583.2 336.6 
L 583.2 39.6 
L 129.6 39.6 
z
" style="fill:none;"/>
   </g>
   <g id="matplotlib.axis_1">
    <g id="xtick_1">
     <g id="line2d_1">
      <path clip-path="url(#p4399ccea76)" d="M 205.2 336.6 
L 205.2 39.6 
" style="fill:none;stroke:#b2b2b2;stroke-dasharray:2.96,1.28;stroke-dashoffset:0;stroke-opacity:0.3;stroke-width:0.8;"/>
     </g>
     <g id="line2d_2">
      <defs>
       <path d="M 0 0 
L 0 3.5 
" id="m6754819960" style="stroke:#000000;stroke-width:0.8;"/>
      </defs>
      <g>
       <use style="stroke:#000000;stroke-width:0.8;" x="205.2" xlink:href="#m6754819960" y="336.6"/>
      </g>
     </g>
     <g id="text_1">
      <!-- −2 -->
      <defs>
       <path d="M 10.59375 35.5 
L 73.1875 35.5 
L 73.1875 27.203125 
L 10.59375 27.203125 
z
" id="DejaVuSans-8722"/>
       <path d="M 19.1875 8.296875 
L 53.609375 8.296875 
L 53.609375 0 
L 7.328125 0 
L 7.328125 8.296875 
Q 12.9375 14.109375 22.625 23.890625 
Q 32.328125 33.6875 34.8125 36.53125 
Q 39.546875 41.84375 41.421875 45.53125 
Q 43.3125 49.21875 43.3125 52.78125 
Q 43.3125 58.59375 39.234375 62.25 
Q 35.15625 65.921875 28.609375 65.921875 
Q 23.96875 65.921875 18.8125 64.3125 
Q 13.671875 62.703125 7.8125 59.421875 
L 7.8125 69.390625 
Q 13.765625 71.78125 18.9375 73 
Q 24.125 74.21875 28.421875 74.21875 
Q 39.75 74.21875 46.484375 68.546875 
Q 53.21875 62.890625 53.21875 53.421875 
Q 53.21875 48.921875 51.53125 44.890625 
Q 49.859375 40.875 45.40625 35.40625 
Q 44.1875 33.984375 37.640625 27.21875 
Q 31.109375 20.453125 19.1875 8.296875 
z
" id="DejaVuSans-50"/>
      </defs>
      <g transform="translate(186.772266 362.596094)scale(0.25 -0.25)">
       <use xlink:href="#DejaVuSans-8722"/>
       <use x="83.789062" xlink:href="#DejaVuSans-50"/>
      </g>
     </g>
    </g>
    <g id="xtick_2">
     <g id="line2d_3">
      <path clip-path="url(#p4399ccea76)" d="M 280.8 336.6 
L 280.8 39.6 
" style="fill:none;stroke:#b2b2b2;stroke-dasharray:2.96,1.28;stroke-dashoffset:0;stroke-opacity:0.3;stroke-width:0.8;"/>
     </g>
     <g id="line2d_4">
      <g>
       <use style="stroke:#000000;stroke-width:0.8;" x="280.8" xlink:href="#m6754819960" y="336.6"/>
      </g>
     </g>
     <g id="text_2">
      <!-- −1 -->
      <defs>
       <path d="M 12.40625 8.296875 
L 28.515625 8.296875 
L 28.515625 63.921875 
L 10.984375 60.40625 
L 10.984375 69.390625 
L 28.421875 72.90625 
L 38.28125 72.90625 
L 38.28125 8.296875 
L 54.390625 8.296875 
L 54.390625 0 
L 12.40625 0 
z
" id="DejaVuSans-49"/>
      </defs>
      <g transform="translate(262.372266 362.596094)scale(0.25 -0.25)">
       <use xlink:href="#DejaVuSans-8722"/>
       <use x="83.789062" xlink:href="#DejaVuSans-49"/>
      </g>
     </g>
    </g>
    <g id="xtick_3">
     <g id="line2d_5">
      <path clip-path="url(#p4399ccea76)" d="M 356.4 336.6 
L 356.4 39.6 
" style="fill:none;stroke:#b2b2b2;stroke-dasharray:2.96,1.28;stroke-dashoffset:0;stroke-opacity:0.3;stroke-width:0.8;"/>
     </g>
     <g id="line2d_6">
      <g>
       <use style="stroke:#000000;stroke-width:0.8;" x="356.4" xlink:href="#m6754819960" y="336.6"/>
      </g>
     </g>
     <g id="text_3">
      <!-- 0 -->
      <defs>
       <path d="M 31.78125 66.40625 
Q 24.171875 66.40625 20.328125 58.90625 
Q 16.5 51.421875 16.5 36.375 
Q 16.5 21.390625 20.328125 13.890625 
Q 24.171875 6.390625 31.78125 6.390625 
Q 39.453125 6.390625 43.28125 13.890625 
Q 47.125 21.390625 47.125 36.375 
Q 47.125 51.421875 43.28125 58.90625 
Q 39.453125 66.40625 31.78125 66.40625 
z
M 31.78125 74.21875 
Q 44.046875 74.21875 50.515625 64.515625 
Q 56.984375 54.828125 56.984375 36.375 
Q 56.984375 17.96875 50.515625 8.265625 
Q 44.046875 -1.421875 31.78125 -1.421875 
Q 19.53125 -1.421875 13.0625 8.265625 
Q 6.59375 17.96875 6.59375 36.375 
Q 6.59375 54.828125 13.0625 64.515625 
Q 19.53125 74.21875 31.78125 74.21875 
z
" id="DejaVuSans-48"/>
      </defs>
      <g transform="translate(348.446875 362.596094)scale(0.25 -0.25)">
       <use xlink:href="#DejaVuSans-48"/>
      </g>
     </g>
    </g>
    <g id="xtick_4">
     <g id="line2d_7">
      <path clip-path="url(#p4399ccea76)" d="M 432 336.6 
L 432 39.6 
" style="fill:none;stroke:#b2b2b2;stroke-dasharray:2.96,1.28;stroke-dashoffset:0;stroke-opacity:0.3;stroke-width:0.8;"/>
     </g>
     <g id="line2d_8">
      <g>
       <use style="stroke:#000000;stroke-width:0.8;" x="432" xlink:href="#m6754819960" y="336.6"/>
      </g>
     </g>
     <g id="text_4">
      <!-- 1 -->
      <g transform="translate(424.046875 362.596094)scale(0.25 -0.25)">
       <use xlink:href="#DejaVuSans-49"/>
      </g>
     </g>
    </g>
    <g id="xtick_5">
     <g id="line2d_9">
      <path clip-path="url(#p4399ccea76)" d="M 507.6 336.6 
L 507.6 39.6 
" style="fill:none;stroke:#b2b2b2;stroke-dasharray:2.96,1.28;stroke-dashoffset:0;stroke-opacity:0.3;stroke-width:0.8;"/>
     </g>
     <g id="line2d_10">
      <g>
       <use style="stroke:#000000;stroke-width:0.8;" x="507.6" xlink:href="#m6754819960" y="336.6"/>
      </g>
     </g>
     <g id="text_5">
      <!-- 2 -->
      <g transform="translate(499.646875 362.596094)scale(0.25 -0.25)">
       <use xlink:href="#DejaVuSans-50"/>
      </g>
     </g>
    </g>
    <g id="text_6">
     <!-- Normalized Magnetic Flux ($\Phi/\Phi_0$) -->
     <defs>
      <path d="M 9.8125 72.90625 
L 23.09375 72.90625 
L 55.421875 11.921875 
L 55.421875 72.90625 
L 64.984375 72.90625 
L 64.984375 0 
L 51.703125 0 
L 19.390625 60.984375 
L 19.390625 0 
L 9.8125 0 
z
" id="DejaVuSans-78"/>
      <path d="M 30.609375 48.390625 
Q 23.390625 48.390625 19.1875 42.75 
Q 14.984375 37.109375 14.984375 27.296875 
Q 14.984375 17.484375 19.15625 11.84375 
Q 23.34375 6.203125 30.609375 6.203125 
Q 37.796875 6.203125 41.984375 11.859375 
Q 46.1875 17.53125 46.1875 27.296875 
Q 46.1875 37.015625 41.984375 42.703125 
Q 37.796875 48.390625 30.609375 48.390625 
z
M 30.609375 56 
Q 42.328125 56 49.015625 48.375 
Q 55.71875 40.765625 55.71875 27.296875 
Q 55.71875 13.875 49.015625 6.21875 
Q 42.328125 -1.421875 30.609375 -1.421875 
Q 18.84375 -1.421875 12.171875 6.21875 
Q 5.515625 13.875 5.515625 27.296875 
Q 5.515625 40.765625 12.171875 48.375 
Q 18.84375 56 30.609375 56 
z
" id="DejaVuSans-111"/>
      <path d="M 41.109375 46.296875 
Q 39.59375 47.171875 37.8125 47.578125 
Q 36.03125 48 33.890625 48 
Q 26.265625 48 22.1875 43.046875 
Q 18.109375 38.09375 18.109375 28.8125 
L 18.109375 0 
L 9.078125 0 
L 9.078125 54.6875 
L 18.109375 54.6875 
L 18.109375 46.1875 
Q 20.953125 51.171875 25.484375 53.578125 
Q 30.03125 56 36.53125 56 
Q 37.453125 56 38.578125 55.875 
Q 39.703125 55.765625 41.0625 55.515625 
z
" id="DejaVuSans-114"/>
      <path d="M 52 44.1875 
Q 55.375 50.25 60.0625 53.125 
Q 64.75 56 71.09375 56 
Q 79.640625 56 84.28125 50.015625 
Q 88.921875 44.046875 88.921875 33.015625 
L 88.921875 0 
L 79.890625 0 
L 79.890625 32.71875 
Q 79.890625 40.578125 77.09375 44.375 
Q 74.3125 48.1875 68.609375 48.1875 
Q 61.625 48.1875 57.5625 43.546875 
Q 53.515625 38.921875 53.515625 30.90625 
L 53.515625 0 
L 44.484375 0 
L 44.484375 32.71875 
Q 44.484375 40.625 41.703125 44.40625 
Q 38.921875 48.1875 33.109375 48.1875 
Q 26.21875 48.1875 22.15625 43.53125 
Q 18.109375 38.875 18.109375 30.90625 
L 18.109375 0 
L 9.078125 0 
L 9.078125 54.6875 
L 18.109375 54.6875 
L 18.109375 46.1875 
Q 21.1875 51.21875 25.484375 53.609375 
Q 29.78125 56 35.6875 56 
Q 41.65625 56 45.828125 52.96875 
Q 50 49.953125 52 44.1875 
z
" id="DejaVuSans-109"/>
      <path d="M 34.28125 27.484375 
Q 23.390625 27.484375 19.1875 25 
Q 14.984375 22.515625 14.984375 16.5 
Q 14.984375 11.71875 18.140625 8.90625 
Q 21.296875 6.109375 26.703125 6.109375 
Q 34.1875 6.109375 38.703125 11.40625 
Q 43.21875 16.703125 43.21875 25.484375 
L 43.21875 27.484375 
z
M 52.203125 31.203125 
L 52.203125 0 
L 43.21875 0 
L 43.21875 8.296875 
Q 40.140625 3.328125 35.546875 0.953125 
Q 30.953125 -1.421875 24.3125 -1.421875 
Q 15.921875 -1.421875 10.953125 3.296875 
Q 6 8.015625 6 15.921875 
Q 6 25.140625 12.171875 29.828125 
Q 18.359375 34.515625 30.609375 34.515625 
L 43.21875 34.515625 
L 43.21875 35.40625 
Q 43.21875 41.609375 39.140625 45 
Q 35.0625 48.390625 27.6875 48.390625 
Q 23 48.390625 18.546875 47.265625 
Q 14.109375 46.140625 10.015625 43.890625 
L 10.015625 52.203125 
Q 14.9375 54.109375 19.578125 55.046875 
Q 24.21875 56 28.609375 56 
Q 40.484375 56 46.34375 49.84375 
Q 52.203125 43.703125 52.203125 31.203125 
z
" id="DejaVuSans-97"/>
      <path d="M 9.421875 75.984375 
L 18.40625 75.984375 
L 18.40625 0 
L 9.421875 0 
z
" id="DejaVuSans-108"/>
      <path d="M 9.421875 54.6875 
L 18.40625 54.6875 
L 18.40625 0 
L 9.421875 0 
z
M 9.421875 75.984375 
L 18.40625 75.984375 
L 18.40625 64.59375 
L 9.421875 64.59375 
z
" id="DejaVuSans-105"/>
      <path d="M 5.515625 54.6875 
L 48.1875 54.6875 
L 48.1875 46.484375 
L 14.40625 7.171875 
L 48.1875 7.171875 
L 48.1875 0 
L 4.296875 0 
L 4.296875 8.203125 
L 38.09375 47.515625 
L 5.515625 47.515625 
z
" id="DejaVuSans-122"/>
      <path d="M 56.203125 29.59375 
L 56.203125 25.203125 
L 14.890625 25.203125 
Q 15.484375 15.921875 20.484375 11.0625 
Q 25.484375 6.203125 34.421875 6.203125 
Q 39.59375 6.203125 44.453125 7.46875 
Q 49.3125 8.734375 54.109375 11.28125 
L 54.109375 2.78125 
Q 49.265625 0.734375 44.1875 -0.34375 
Q 39.109375 -1.421875 33.890625 -1.421875 
Q 20.796875 -1.421875 13.15625 6.1875 
Q 5.515625 13.8125 5.515625 26.8125 
Q 5.515625 40.234375 12.765625 48.109375 
Q 20.015625 56 32.328125 56 
Q 43.359375 56 49.78125 48.890625 
Q 56.203125 41.796875 56.203125 29.59375 
z
M 47.21875 32.234375 
Q 47.125 39.59375 43.09375 43.984375 
Q 39.0625 48.390625 32.421875 48.390625 
Q 24.90625 48.390625 20.390625 44.140625 
Q 15.875 39.890625 15.1875 32.171875 
z
" id="DejaVuSans-101"/>
      <path d="M 45.40625 46.390625 
L 45.40625 75.984375 
L 54.390625 75.984375 
L 54.390625 0 
L 45.40625 0 
L 45.40625 8.203125 
Q 42.578125 3.328125 38.25 0.953125 
Q 33.9375 -1.421875 27.875 -1.421875 
Q 17.96875 -1.421875 11.734375 6.484375 
Q 5.515625 14.40625 5.515625 27.296875 
Q 5.515625 40.1875 11.734375 48.09375 
Q 17.96875 56 27.875 56 
Q 33.9375 56 38.25 53.625 
Q 42.578125 51.265625 45.40625 46.390625 
z
M 14.796875 27.296875 
Q 14.796875 17.390625 18.875 11.75 
Q 22.953125 6.109375 30.078125 6.109375 
Q 37.203125 6.109375 41.296875 11.75 
Q 45.40625 17.390625 45.40625 27.296875 
Q 45.40625 37.203125 41.296875 42.84375 
Q 37.203125 48.484375 30.078125 48.484375 
Q 22.953125 48.484375 18.875 42.84375 
Q 14.796875 37.203125 14.796875 27.296875 
z
" id="DejaVuSans-100"/>
      <path id="DejaVuSans-32"/>
      <path d="M 9.8125 72.90625 
L 24.515625 72.90625 
L 43.109375 23.296875 
L 61.8125 72.90625 
L 76.515625 72.90625 
L 76.515625 0 
L 66.890625 0 
L 66.890625 64.015625 
L 48.09375 14.015625 
L 38.1875 14.015625 
L 19.390625 64.015625 
L 19.390625 0 
L 9.8125 0 
z
" id="DejaVuSans-77"/>
      <path d="M 45.40625 27.984375 
Q 45.40625 37.75 41.375 43.109375 
Q 37.359375 48.484375 30.078125 48.484375 
Q 22.859375 48.484375 18.828125 43.109375 
Q 14.796875 37.75 14.796875 27.984375 
Q 14.796875 18.265625 18.828125 12.890625 
Q 22.859375 7.515625 30.078125 7.515625 
Q 37.359375 7.515625 41.375 12.890625 
Q 45.40625 18.265625 45.40625 27.984375 
z
M 54.390625 6.78125 
Q 54.390625 -7.171875 48.1875 -13.984375 
Q 42 -20.796875 29.203125 -20.796875 
Q 24.46875 -20.796875 20.265625 -20.09375 
Q 16.0625 -19.390625 12.109375 -17.921875 
L 12.109375 -9.1875 
Q 16.0625 -11.328125 19.921875 -12.34375 
Q 23.78125 -13.375 27.78125 -13.375 
Q 36.625 -13.375 41.015625 -8.765625 
Q 45.40625 -4.15625 45.40625 5.171875 
L 45.40625 9.625 
Q 42.625 4.78125 38.28125 2.390625 
Q 33.9375 0 27.875 0 
Q 17.828125 0 11.671875 7.65625 
Q 5.515625 15.328125 5.515625 27.984375 
Q 5.515625 40.671875 11.671875 48.328125 
Q 17.828125 56 27.875 56 
Q 33.9375 56 38.28125 53.609375 
Q 42.625 51.21875 45.40625 46.390625 
L 45.40625 54.6875 
L 54.390625 54.6875 
z
" id="DejaVuSans-103"/>
      <path d="M 54.890625 33.015625 
L 54.890625 0 
L 45.90625 0 
L 45.90625 32.71875 
Q 45.90625 40.484375 42.875 44.328125 
Q 39.84375 48.1875 33.796875 48.1875 
Q 26.515625 48.1875 22.3125 43.546875 
Q 18.109375 38.921875 18.109375 30.90625 
L 18.109375 0 
L 9.078125 0 
L 9.078125 54.6875 
L 18.109375 54.6875 
L 18.109375 46.1875 
Q 21.34375 51.125 25.703125 53.5625 
Q 30.078125 56 35.796875 56 
Q 45.21875 56 50.046875 50.171875 
Q 54.890625 44.34375 54.890625 33.015625 
z
" id="DejaVuSans-110"/>
      <path d="M 18.3125 70.21875 
L 18.3125 54.6875 
L 36.8125 54.6875 
L 36.8125 47.703125 
L 18.3125 47.703125 
L 18.3125 18.015625 
Q 18.3125 11.328125 20.140625 9.421875 
Q 21.96875 7.515625 27.59375 7.515625 
L 36.8125 7.515625 
L 36.8125 0 
L 27.59375 0 
Q 17.1875 0 13.234375 3.875 
Q 9.28125 7.765625 9.28125 18.015625 
L 9.28125 47.703125 
L 2.6875 47.703125 
L 2.6875 54.6875 
L 9.28125 54.6875 
L 9.28125 70.21875 
z
" id="DejaVuSans-116"/>
      <path d="M 48.78125 52.59375 
L 48.78125 44.1875 
Q 44.96875 46.296875 41.140625 47.34375 
Q 37.3125 48.390625 33.40625 48.390625 
Q 24.65625 48.390625 19.8125 42.84375 
Q 14.984375 37.3125 14.984375 27.296875 
Q 14.984375 17.28125 19.8125 11.734375 
Q 24.65625 6.203125 33.40625 6.203125 
Q 37.3125 6.203125 41.140625 7.25 
Q 44.96875 8.296875 48.78125 10.40625 
L 48.78125 2.09375 
Q 45.015625 0.34375 40.984375 -0.53125 
Q 36.96875 -1.421875 32.421875 -1.421875 
Q 20.0625 -1.421875 12.78125 6.34375 
Q 5.515625 14.109375 5.515625 27.296875 
Q 5.515625 40.671875 12.859375 48.328125 
Q 20.21875 56 33.015625 56 
Q 37.15625 56 41.109375 55.140625 
Q 45.0625 54.296875 48.78125 52.59375 
z
" id="DejaVuSans-99"/>
      <path d="M 9.8125 72.90625 
L 51.703125 72.90625 
L 51.703125 64.59375 
L 19.671875 64.59375 
L 19.671875 43.109375 
L 48.578125 43.109375 
L 48.578125 34.8125 
L 19.671875 34.8125 
L 19.671875 0 
L 9.8125 0 
z
" id="DejaVuSans-70"/>
      <path d="M 8.5 21.578125 
L 8.5 54.6875 
L 17.484375 54.6875 
L 17.484375 21.921875 
Q 17.484375 14.15625 20.5 10.265625 
Q 23.53125 6.390625 29.59375 6.390625 
Q 36.859375 6.390625 41.078125 11.03125 
Q 45.3125 15.671875 45.3125 23.6875 
L 45.3125 54.6875 
L 54.296875 54.6875 
L 54.296875 0 
L 45.3125 0 
L 45.3125 8.40625 
Q 42.046875 3.421875 37.71875 1 
Q 33.40625 -1.421875 27.6875 -1.421875 
Q 18.265625 -1.421875 13.375 4.4375 
Q 8.5 10.296875 8.5 21.578125 
z
M 31.109375 56 
z
" id="DejaVuSans-117"/>
      <path d="M 54.890625 54.6875 
L 35.109375 28.078125 
L 55.90625 0 
L 45.3125 0 
L 29.390625 21.484375 
L 13.484375 0 
L 2.875 0 
L 24.125 28.609375 
L 4.6875 54.6875 
L 15.28125 54.6875 
L 29.78125 35.203125 
L 44.28125 54.6875 
z
" id="DejaVuSans-120"/>
      <path d="M 31 75.875 
Q 24.46875 64.65625 21.28125 53.65625 
Q 18.109375 42.671875 18.109375 31.390625 
Q 18.109375 20.125 21.3125 9.0625 
Q 24.515625 -2 31 -13.1875 
L 23.1875 -13.1875 
Q 15.875 -1.703125 12.234375 9.375 
Q 8.59375 20.453125 8.59375 31.390625 
Q 8.59375 42.28125 12.203125 53.3125 
Q 15.828125 64.359375 23.1875 75.875 
z
" id="DejaVuSans-40"/>
      <path d="M 18.609375 0 
L 18.609375 3.515625 
Q 31.390625 3.515625 31.390625 6.6875 
L 31.390625 13.921875 
Q 21.78125 14.84375 14.5 19.671875 
Q 10.6875 22.265625 8.140625 26.078125 
Q 5.609375 29.890625 5.609375 34.1875 
Q 5.609375 38.421875 8.140625 42.25 
Q 10.6875 46.09375 14.5 48.578125 
Q 18.265625 51.125 22.4375 52.515625 
Q 26.609375 53.90625 31.390625 54.390625 
L 31.390625 61.625 
Q 31.390625 64.796875 18.609375 64.796875 
L 18.609375 68.3125 
L 52.875 68.3125 
L 52.875 64.796875 
Q 40.09375 64.796875 40.09375 61.625 
L 40.09375 54.390625 
Q 44.234375 54.390625 48.875 52.84375 
Q 53.515625 51.3125 57.46875 48.671875 
Q 61.421875 46.046875 63.953125 42.265625 
Q 66.5 38.484375 66.5 34.1875 
Q 66.5 29.890625 63.953125 26.125 
Q 61.421875 22.359375 57.34375 19.625 
Q 53.265625 16.890625 48.625 15.40625 
Q 44 13.921875 40.09375 13.921875 
L 40.09375 6.6875 
Q 40.09375 3.515625 52.875 3.515625 
L 52.875 0 
z
M 40.09375 16.5 
Q 48.140625 17.53125 52.125 21.890625 
Q 56.109375 26.265625 56.109375 34.1875 
Q 56.109375 42.140625 52.078125 46.484375 
Q 48.046875 50.828125 40.09375 51.8125 
z
M 31.390625 16.609375 
L 31.390625 51.703125 
Q 16.015625 49.5625 16.015625 34.1875 
Q 16.015625 18.75 31.390625 16.609375 
z
" id="Cmr10-169"/>
      <path d="M 5.609375 -23 
Q 5.609375 -22.703125 5.71875 -22.609375 
L 40.484375 73.78125 
Q 40.671875 74.359375 41.15625 74.671875 
Q 41.65625 75 42.28125 75 
Q 43.171875 75 43.71875 74.453125 
Q 44.28125 73.921875 44.28125 73 
L 44.28125 72.609375 
L 9.515625 -23.78125 
Q 8.9375 -25 7.625 -25 
Q 6.78125 -25 6.1875 -24.40625 
Q 5.609375 -23.828125 5.609375 -23 
z
" id="Cmmi10-61"/>
      <path d="M 25 -2.203125 
Q 12.75 -2.203125 8.328125 7.875 
Q 3.90625 17.96875 3.90625 31.890625 
Q 3.90625 40.578125 5.484375 48.234375 
Q 7.078125 55.90625 11.78125 61.25 
Q 16.5 66.609375 25 66.609375 
Q 31.59375 66.609375 35.78125 63.375 
Q 39.984375 60.15625 42.1875 55.046875 
Q 44.390625 49.953125 45.1875 44.109375 
Q 46 38.28125 46 31.890625 
Q 46 23.296875 44.40625 15.796875 
Q 42.828125 8.296875 38.1875 3.046875 
Q 33.546875 -2.203125 25 -2.203125 
z
M 25 0.390625 
Q 30.5625 0.390625 33.296875 6.09375 
Q 36.03125 11.8125 36.671875 18.75 
Q 37.3125 25.6875 37.3125 33.5 
Q 37.3125 41.015625 36.671875 47.359375 
Q 36.03125 53.71875 33.3125 58.859375 
Q 30.609375 64.015625 25 64.015625 
Q 19.34375 64.015625 16.609375 58.828125 
Q 13.875 53.65625 13.234375 47.328125 
Q 12.59375 41.015625 12.59375 33.5 
Q 12.59375 27.9375 12.859375 23 
Q 13.140625 18.0625 14.3125 12.8125 
Q 15.484375 7.5625 18.09375 3.96875 
Q 20.703125 0.390625 25 0.390625 
z
" id="Cmr10-48"/>
      <path d="M 8.015625 75.875 
L 15.828125 75.875 
Q 23.140625 64.359375 26.78125 53.3125 
Q 30.421875 42.28125 30.421875 31.390625 
Q 30.421875 20.453125 26.78125 9.375 
Q 23.140625 -1.703125 15.828125 -13.1875 
L 8.015625 -13.1875 
Q 14.5 -2 17.703125 9.0625 
Q 20.90625 20.125 20.90625 31.390625 
Q 20.90625 42.671875 17.703125 53.65625 
Q 14.5 64.65625 8.015625 75.875 
z
" id="DejaVuSans-41"/>
     </defs>
     <g transform="translate(150.275 390.795313)scale(0.25 -0.25)">
      <use transform="translate(0 0.015625)" xlink:href="#DejaVuSans-78"/>
      <use transform="translate(74.804688 0.015625)" xlink:href="#DejaVuSans-111"/>
      <use transform="translate(135.986328 0.015625)" xlink:href="#DejaVuSans-114"/>
      <use transform="translate(177.099609 0.015625)" xlink:href="#DejaVuSans-109"/>
      <use transform="translate(274.511719 0.015625)" xlink:href="#DejaVuSans-97"/>
      <use transform="translate(335.791016 0.015625)" xlink:href="#DejaVuSans-108"/>
      <use transform="translate(363.574219 0.015625)" xlink:href="#DejaVuSans-105"/>
      <use transform="translate(391.357422 0.015625)" xlink:href="#DejaVuSans-122"/>
      <use transform="translate(443.847656 0.015625)" xlink:href="#DejaVuSans-101"/>
      <use transform="translate(505.371094 0.015625)" xlink:href="#DejaVuSans-100"/>
      <use transform="translate(568.847656 0.015625)" xlink:href="#DejaVuSans-32"/>
      <use transform="translate(600.634766 0.015625)" xlink:href="#DejaVuSans-77"/>
      <use transform="translate(686.914062 0.015625)" xlink:href="#DejaVuSans-97"/>
      <use transform="translate(748.193359 0.015625)" xlink:href="#DejaVuSans-103"/>
      <use transform="translate(811.669922 0.015625)" xlink:href="#DejaVuSans-110"/>
      <use transform="translate(875.048828 0.015625)" xlink:href="#DejaVuSans-101"/>
      <use transform="translate(936.572266 0.015625)" xlink:href="#DejaVuSans-116"/>
      <use transform="translate(975.78125 0.015625)" xlink:href="#DejaVuSans-105"/>
      <use transform="translate(1003.564453 0.015625)" xlink:href="#DejaVuSans-99"/>
      <use transform="translate(1058.544922 0.015625)" xlink:href="#DejaVuSans-32"/>
      <use transform="translate(1090.332031 0.015625)" xlink:href="#DejaVuSans-70"/>
      <use transform="translate(1147.851562 0.015625)" xlink:href="#DejaVuSans-108"/>
      <use transform="translate(1175.634766 0.015625)" xlink:href="#DejaVuSans-117"/>
      <use transform="translate(1239.013672 0.015625)" xlink:href="#DejaVuSans-120"/>
      <use transform="translate(1298.193359 0.015625)" xlink:href="#DejaVuSans-32"/>
      <use transform="translate(1329.980469 0.015625)" xlink:href="#DejaVuSans-40"/>
      <use transform="translate(1368.994141 0.015625)" xlink:href="#Cmr10-169"/>
      <use transform="translate(1441.210938 0.015625)" xlink:href="#Cmmi10-61"/>
      <use transform="translate(1491.210938 0.015625)" xlink:href="#Cmr10-169"/>
      <use transform="translate(1567.891875 -16.990625)scale(0.7)" xlink:href="#Cmr10-48"/>
      <use transform="translate(1609.269219 0.015625)" xlink:href="#DejaVuSans-41"/>
     </g>
    </g>
   </g>
   <g id="matplotlib.axis_2">
    <g id="ytick_1">
     <g id="line2d_11">
      <path clip-path="url(#p4399ccea76)" d="M 129.6 287.1 
L 583.2 287.1 
" style="fill:none;stroke:#b2b2b2;stroke-dasharray:2.96,1.28;stroke-dashoffset:0;stroke-opacity:0.3;stroke-width:0.8;"/>
     </g>
     <g id="line2d_12">
      <defs>
       <path d="M 0 0 
L -3.5 0 
" id="m94176a9eb1" style="stroke:#000000;stroke-width:0.8;"/>
      </defs>
      <g>
       <use style="stroke:#000000;stroke-width:0.8;" x="129.6" xlink:href="#m94176a9eb1" y="287.1"/>
      </g>
     </g>
     <g id="text_7">
      <!-- 10.0 -->
      <defs>
       <path d="M 10.6875 12.40625 
L 21 12.40625 
L 21 0 
L 10.6875 0 
z
" id="DejaVuSans-46"/>
      </defs>
      <g transform="translate(66.935937 296.598047)scale(0.25 -0.25)">
       <use xlink:href="#DejaVuSans-49"/>
       <use x="63.623047" xlink:href="#DejaVuSans-48"/>
       <use x="127.246094" xlink:href="#DejaVuSans-46"/>
       <use x="159.033203" xlink:href="#DejaVuSans-48"/>
      </g>
     </g>
    </g>
    <g id="ytick_2">
     <g id="line2d_13">
      <path clip-path="url(#p4399ccea76)" d="M 129.6 225.225 
L 583.2 225.225 
" style="fill:none;stroke:#b2b2b2;stroke-dasharray:2.96,1.28;stroke-dashoffset:0;stroke-opacity:0.3;stroke-width:0.8;"/>
     </g>
     <g id="line2d_14">
      <g>
       <use style="stroke:#000000;stroke-width:0.8;" x="129.6" xlink:href="#m94176a9eb1" y="225.225"/>
      </g>
     </g>
     <g id="text_8">
      <!-- 12.5 -->
      <defs>
       <path d="M 10.796875 72.90625 
L 49.515625 72.90625 
L 49.515625 64.59375 
L 19.828125 64.59375 
L 19.828125 46.734375 
Q 21.96875 47.46875 24.109375 47.828125 
Q 26.265625 48.1875 28.421875 48.1875 
Q 40.625 48.1875 47.75 41.5 
Q 54.890625 34.8125 54.890625 23.390625 
Q 54.890625 11.625 47.5625 5.09375 
Q 40.234375 -1.421875 26.90625 -1.421875 
Q 22.3125 -1.421875 17.546875 -0.640625 
Q 12.796875 0.140625 7.71875 1.703125 
L 7.71875 11.625 
Q 12.109375 9.234375 16.796875 8.0625 
Q 21.484375 6.890625 26.703125 6.890625 
Q 35.15625 6.890625 40.078125 11.328125 
Q 45.015625 15.765625 45.015625 23.390625 
Q 45.015625 31 40.078125 35.4375 
Q 35.15625 39.890625 26.703125 39.890625 
Q 22.75 39.890625 18.8125 39.015625 
Q 14.890625 38.140625 10.796875 36.28125 
z
" id="DejaVuSans-53"/>
      </defs>
      <g transform="translate(66.935937 234.723047)scale(0.25 -0.25)">
       <use xlink:href="#DejaVuSans-49"/>
       <use x="63.623047" xlink:href="#DejaVuSans-50"/>
       <use x="127.246094" xlink:href="#DejaVuSans-46"/>
       <use x="159.033203" xlink:href="#DejaVuSans-53"/>
      </g>
     </g>
    </g>
    <g id="ytick_3">
     <g id="line2d_15">
      <path clip-path="url(#p4399ccea76)" d="M 129.6 163.35 
L 583.2 163.35 
" style="fill:none;stroke:#b2b2b2;stroke-dasharray:2.96,1.28;stroke-dashoffset:0;stroke-opacity:0.3;stroke-width:0.8;"/>
     </g>
     <g id="line2d_16">
      <g>
       <use style="stroke:#000000;stroke-width:0.8;" x="129.6" xlink:href="#m94176a9eb1" y="163.35"/>
      </g>
     </g>
     <g id="text_9">
      <!-- 15.0 -->
      <g transform="translate(66.935937 172.848047)scale(0.25 -0.25)">
       <use xlink:href="#DejaVuSans-49"/>
       <use x="63.623047" xlink:href="#DejaVuSans-53"/>
       <use x="127.246094" xlink:href="#DejaVuSans-46"/>
       <use x="159.033203" xlink:href="#DejaVuSans-48"/>
      </g>
     </g>
    </g>
    <g id="ytick_4">
     <g id="line2d_17">
      <path clip-path="url(#p4399ccea76)" d="M 129.6 101.475 
L 583.2 101.475 
" style="fill:none;stroke:#b2b2b2;stroke-dasharray:2.96,1.28;stroke-dashoffset:0;stroke-opacity:0.3;stroke-width:0.8;"/>
     </g>
     <g id="line2d_18">
      <g>
       <use style="stroke:#000000;stroke-width:0.8;" x="129.6" xlink:href="#m94176a9eb1" y="101.475"/>
      </g>
     </g>
     <g id="text_10">
      <!-- 17.5 -->
      <defs>
       <path d="M 8.203125 72.90625 
L 55.078125 72.90625 
L 55.078125 68.703125 
L 28.609375 0 
L 18.3125 0 
L 43.21875 64.59375 
L 8.203125 64.59375 
z
" id="DejaVuSans-55"/>
      </defs>
      <g transform="translate(66.935937 110.973047)scale(0.25 -0.25)">
       <use xlink:href="#DejaVuSans-49"/>
       <use x="63.623047" xlink:href="#DejaVuSans-55"/>
       <use x="127.246094" xlink:href="#DejaVuSans-46"/>
       <use x="159.033203" xlink:href="#DejaVuSans-53"/>
      </g>
     </g>
    </g>
    <g id="ytick_5">
     <g id="line2d_19">
      <path clip-path="url(#p4399ccea76)" d="M 129.6 39.6 
L 583.2 39.6 
" style="fill:none;stroke:#b2b2b2;stroke-dasharray:2.96,1.28;stroke-dashoffset:0;stroke-opacity:0.3;stroke-width:0.8;"/>
     </g>
     <g id="line2d_20">
      <g>
       <use style="stroke:#000000;stroke-width:0.8;" x="129.6" xlink:href="#m94176a9eb1" y="39.6"/>
      </g>
     </g>
     <g id="text_11">
      <!-- 20.0 -->
      <g transform="translate(66.935937 49.098047)scale(0.25 -0.25)">
       <use xlink:href="#DejaVuSans-50"/>
       <use x="63.623047" xlink:href="#DejaVuSans-48"/>
       <use x="127.246094" xlink:href="#DejaVuSans-46"/>
       <use x="159.033203" xlink:href="#DejaVuSans-48"/>
      </g>
     </g>
    </g>
    <g id="text_12">
     <!-- $\omega/2\pi$ (GHz) -->
     <defs>
      <path d="M 12.109375 -1.125 
Q 6.453125 -1.125 3.9375 3.015625 
Q 1.421875 7.171875 1.421875 13.1875 
Q 1.421875 17.140625 2.125 20.921875 
Q 2.828125 24.703125 4.265625 28.578125 
Q 5.71875 32.46875 7.5625 35.859375 
Q 9.421875 39.265625 11.71875 42.484375 
Q 12.15625 43.109375 12.890625 43.109375 
Q 13.53125 43.109375 13.921875 42.71875 
Q 14.3125 42.328125 14.3125 41.796875 
Q 14.3125 41.265625 14.015625 40.828125 
Q 4.890625 28.265625 4.890625 17.671875 
Q 4.890625 13.09375 7 9.796875 
Q 9.125 6.5 13.484375 6.5 
Q 17.234375 6.5 20.4375 8.6875 
Q 23.640625 10.890625 25.984375 14.3125 
Q 25.984375 16.0625 26.59375 19.765625 
Q 27.203125 23.484375 28.484375 26.390625 
Q 29.78125 29.296875 31.59375 29.296875 
Q 33.890625 29.296875 33.890625 26.609375 
Q 33.890625 25.046875 33.21875 22.671875 
Q 32.5625 20.3125 31.75 18.265625 
Q 30.953125 16.21875 29.78125 13.625 
Q 30.953125 6.5 36.921875 6.5 
Q 40.375 6.5 43.859375 8.5 
Q 47.359375 10.5 50.046875 13.75 
Q 52.734375 17 54.265625 20.75 
Q 55.8125 24.515625 55.8125 27.875 
Q 55.8125 30.90625 54.859375 32.59375 
Q 53.90625 34.28125 52.34375 36.125 
Q 50.78125 37.984375 50.78125 39.109375 
Q 50.78125 41.0625 52.4375 42.671875 
Q 54.109375 44.28125 56 44.28125 
Q 58.453125 44.28125 59.46875 42.0625 
Q 60.5 39.84375 60.5 37.015625 
Q 60.5 32.421875 58.671875 25.4375 
Q 56.84375 18.453125 54.5 13.8125 
Q 51.265625 7.515625 46.40625 3.1875 
Q 41.546875 -1.125 35.5 -1.125 
Q 31.640625 -1.125 29.265625 1.1875 
Q 26.90625 3.515625 26.21875 7.515625 
Q 23.4375 3.5625 19.875 1.21875 
Q 16.3125 -1.125 12.109375 -1.125 
z
" id="Cmmi10-33"/>
      <path d="M 4.984375 0 
L 4.984375 2.6875 
Q 4.984375 2.9375 5.171875 3.21875 
L 20.703125 20.40625 
Q 24.21875 24.21875 26.40625 26.796875 
Q 28.609375 29.390625 30.75 32.765625 
Q 32.90625 36.140625 34.15625 39.625 
Q 35.40625 43.109375 35.40625 47.015625 
Q 35.40625 51.125 33.890625 54.859375 
Q 32.375 58.59375 29.375 60.84375 
Q 26.375 63.09375 22.125 63.09375 
Q 17.78125 63.09375 14.3125 60.46875 
Q 10.84375 57.859375 9.421875 53.71875 
Q 9.8125 53.8125 10.5 53.8125 
Q 12.75 53.8125 14.328125 52.296875 
Q 15.921875 50.78125 15.921875 48.390625 
Q 15.921875 46.09375 14.328125 44.5 
Q 12.75 42.921875 10.5 42.921875 
Q 8.15625 42.921875 6.5625 44.546875 
Q 4.984375 46.1875 4.984375 48.390625 
Q 4.984375 52.15625 6.390625 55.4375 
Q 7.8125 58.734375 10.46875 61.296875 
Q 13.140625 63.875 16.484375 65.234375 
Q 19.828125 66.609375 23.578125 66.609375 
Q 29.296875 66.609375 34.21875 64.1875 
Q 39.15625 61.765625 42.03125 57.34375 
Q 44.921875 52.9375 44.921875 47.015625 
Q 44.921875 42.671875 43.015625 38.765625 
Q 41.109375 34.859375 38.125 31.65625 
Q 35.15625 28.46875 30.515625 24.40625 
Q 25.875 20.359375 24.421875 19 
L 13.09375 8.109375 
L 22.703125 8.109375 
Q 29.78125 8.109375 34.546875 8.21875 
Q 39.3125 8.34375 39.59375 8.59375 
Q 40.765625 9.859375 42 17.828125 
L 44.921875 17.828125 
L 42.09375 0 
z
" id="Cmr10-50"/>
      <path d="M 10.109375 1.703125 
Q 10.109375 2.25 10.5 3.328125 
Q 13.28125 9.125 15.6875 14.71875 
Q 18.109375 20.3125 20.03125 25.609375 
Q 21.96875 30.90625 23.578125 36.921875 
L 17.1875 36.921875 
Q 13.53125 36.921875 10.34375 34.625 
Q 7.171875 32.328125 5.078125 28.8125 
Q 4.890625 28.421875 4.5 28.421875 
L 3.328125 28.421875 
Q 2.390625 28.421875 2.390625 29.390625 
Q 2.390625 29.59375 2.59375 29.984375 
Q 5.859375 35.546875 9.59375 39.328125 
Q 13.328125 43.109375 18.015625 43.109375 
L 54.296875 43.109375 
Q 55.328125 43.109375 56.046875 42.421875 
Q 56.78125 41.75 56.78125 40.578125 
Q 56.78125 39.109375 55.734375 38.015625 
Q 54.6875 36.921875 53.21875 36.921875 
L 40.484375 36.921875 
Q 38.875 29.046875 38.71875 21.578125 
Q 38.71875 11.96875 42.09375 4.203125 
Q 42.390625 3.609375 42.390625 2.984375 
Q 42.390625 1.90625 41.75 0.96875 
Q 41.109375 0.046875 40.109375 -0.53125 
Q 39.109375 -1.125 37.984375 -1.125 
Q 35.359375 -1.125 34.375 3.171875 
Q 33.40625 7.46875 33.40625 11.53125 
Q 33.40625 17.234375 34.375 22.53125 
Q 35.359375 27.828125 37.5 36.921875 
L 26.609375 36.921875 
Q 18.703125 4.890625 17.09375 1.609375 
Q 15.671875 -1.125 13.1875 -1.125 
Q 11.96875 -1.125 11.03125 -0.3125 
Q 10.109375 0.484375 10.109375 1.703125 
z
" id="Cmmi10-188"/>
      <path d="M 59.515625 10.40625 
L 59.515625 29.984375 
L 43.40625 29.984375 
L 43.40625 38.09375 
L 69.28125 38.09375 
L 69.28125 6.78125 
Q 63.578125 2.734375 56.6875 0.65625 
Q 49.8125 -1.421875 42 -1.421875 
Q 24.90625 -1.421875 15.25 8.5625 
Q 5.609375 18.5625 5.609375 36.375 
Q 5.609375 54.25 15.25 64.234375 
Q 24.90625 74.21875 42 74.21875 
Q 49.125 74.21875 55.546875 72.453125 
Q 61.96875 70.703125 67.390625 67.28125 
L 67.390625 56.78125 
Q 61.921875 61.421875 55.765625 63.765625 
Q 49.609375 66.109375 42.828125 66.109375 
Q 29.4375 66.109375 22.71875 58.640625 
Q 16.015625 51.171875 16.015625 36.375 
Q 16.015625 21.625 22.71875 14.15625 
Q 29.4375 6.6875 42.828125 6.6875 
Q 48.046875 6.6875 52.140625 7.59375 
Q 56.25 8.5 59.515625 10.40625 
z
" id="DejaVuSans-71"/>
      <path d="M 9.8125 72.90625 
L 19.671875 72.90625 
L 19.671875 43.015625 
L 55.515625 43.015625 
L 55.515625 72.90625 
L 65.375 72.90625 
L 65.375 0 
L 55.515625 0 
L 55.515625 34.71875 
L 19.671875 34.71875 
L 19.671875 0 
L 9.8125 0 
z
" id="DejaVuSans-72"/>
     </defs>
     <g transform="translate(56.685937 254.975)rotate(-90)scale(0.25 -0.25)">
      <use transform="translate(0 0.125)" xlink:href="#Cmmi10-33"/>
      <use transform="translate(62.207031 0.125)" xlink:href="#Cmmi10-61"/>
      <use transform="translate(112.207031 0.125)" xlink:href="#Cmr10-50"/>
      <use transform="translate(162.207031 0.125)" xlink:href="#Cmmi10-188"/>
      <use transform="translate(219.189453 0.125)" xlink:href="#DejaVuSans-32"/>
      <use transform="translate(250.976562 0.125)" xlink:href="#DejaVuSans-40"/>
      <use transform="translate(289.990234 0.125)" xlink:href="#DejaVuSans-71"/>
      <use transform="translate(367.480469 0.125)" xlink:href="#DejaVuSans-72"/>
      <use transform="translate(442.675781 0.125)" xlink:href="#DejaVuSans-122"/>
      <use transform="translate(495.166016 0.125)" xlink:href="#DejaVuSans-41"/>
     </g>
    </g>
   </g>
   <g id="line2d_21">
    <defs>
     <path d="M 0 3.5 
C 0.928211 3.5 1.81853 3.131218 2.474874 2.474874 
C 3.131218 1.81853 3.5 0.928211 3.5 0 
C 3.5 -0.928211 3.131218 -1.81853 2.474874 -2.474874 
C 1.81853 -3.131218 0.928211 -3.5 0 -3.5 
C -0.928211 -3.5 -1.81853 -3.131218 -2.474874 -2.474874 
C -3.131218 -1.81853 -3.5 -0.928211 -3.5 0 
C -3.5 0.928211 -3.131218 1.81853 -2.474874 2.474874 
C -1.81853 3.131218 -0.928211 3.5 0 3.5 
z
" id="mebec448771" style="stroke:#56b4e9;stroke-opacity:0.95;"/>
    </defs>
    <g clip-path="url(#p4399ccea76)">
     <use style="fill:#004ba8;fill-opacity:0.95;stroke:#56b4e9;stroke-opacity:0.95;" x="159.386184" xlink:href="#mebec448771" y="217.204763"/>
     <use style="fill:#004ba8;fill-opacity:0.95;stroke:#56b4e9;stroke-opacity:0.95;" x="159.8697" xlink:href="#mebec448771" y="213.848415"/>
     <use style="fill:#004ba8;fill-opacity:0.95;stroke:#56b4e9;stroke-opacity:0.95;" x="160.353216" xlink:href="#mebec448771" y="210.796988"/>
     <use style="fill:#004ba8;fill-opacity:0.95;stroke:#56b4e9;stroke-opacity:0.95;" x="160.83684" xlink:href="#mebec448771" y="208.050975"/>
     <use style="fill:#004ba8;fill-opacity:0.95;stroke:#56b4e9;stroke-opacity:0.95;" x="161.320356" xlink:href="#mebec448771" y="205.304715"/>
     <use style="fill:#004ba8;fill-opacity:0.95;stroke:#56b4e9;stroke-opacity:0.95;" x="161.80398" xlink:href="#mebec448771" y="203.169038"/>
     <use style="fill:#004ba8;fill-opacity:0.95;stroke:#56b4e9;stroke-opacity:0.95;" x="162.287496" xlink:href="#mebec448771" y="200.93139"/>
     <use style="fill:#004ba8;fill-opacity:0.95;stroke:#56b4e9;stroke-opacity:0.95;" x="162.77112" xlink:href="#mebec448771" y="198.897188"/>
     <use style="fill:#004ba8;fill-opacity:0.95;stroke:#56b4e9;stroke-opacity:0.95;" x="163.254744" xlink:href="#mebec448771" y="196.862985"/>
     <use style="fill:#004ba8;fill-opacity:0.95;stroke:#56b4e9;stroke-opacity:0.95;" x="163.73826" xlink:href="#mebec448771" y="195.337395"/>
     <use style="fill:#004ba8;fill-opacity:0.95;stroke:#56b4e9;stroke-opacity:0.95;" x="164.221884" xlink:href="#mebec448771" y="194.523863"/>
     <use style="fill:#004ba8;fill-opacity:0.95;stroke:#56b4e9;stroke-opacity:0.95;" x="164.7054" xlink:href="#mebec448771" y="190.048568"/>
     <use style="fill:#004ba8;fill-opacity:0.95;stroke:#56b4e9;stroke-opacity:0.95;" x="165.188916" xlink:href="#mebec448771" y="189.235035"/>
     <use style="fill:#004ba8;fill-opacity:0.95;stroke:#56b4e9;stroke-opacity:0.95;" x="165.67254" xlink:href="#mebec448771" y="188.116088"/>
     <use style="fill:#004ba8;fill-opacity:0.95;stroke:#56b4e9;stroke-opacity:0.95;" x="166.156056" xlink:href="#mebec448771" y="187.302555"/>
    </g>
   </g>
   <g id="line2d_22">
    <g clip-path="url(#p4399ccea76)">
     <use style="fill:#004ba8;fill-opacity:0.95;stroke:#56b4e9;stroke-opacity:0.95;" x="235.9044" xlink:href="#mebec448771" y="287.660885"/>
     <use style="fill:#004ba8;fill-opacity:0.95;stroke:#56b4e9;stroke-opacity:0.95;" x="236.27835" xlink:href="#mebec448771" y="283.711725"/>
     <use style="fill:#004ba8;fill-opacity:0.95;stroke:#56b4e9;stroke-opacity:0.95;" x="236.6523" xlink:href="#mebec448771" y="280.90557"/>
     <use style="fill:#004ba8;fill-opacity:0.95;stroke:#56b4e9;stroke-opacity:0.95;" x="237.02625" xlink:href="#mebec448771" y="278.307563"/>
     <use style="fill:#004ba8;fill-opacity:0.95;stroke:#56b4e9;stroke-opacity:0.95;" x="237.4002" xlink:href="#mebec448771" y="274.877955"/>
     <use style="fill:#004ba8;fill-opacity:0.95;stroke:#56b4e9;stroke-opacity:0.95;" x="237.77415" xlink:href="#mebec448771" y="272.2797"/>
     <use style="fill:#004ba8;fill-opacity:0.95;stroke:#56b4e9;stroke-opacity:0.95;" x="238.1481" xlink:href="#mebec448771" y="270.097245"/>
     <use style="fill:#004ba8;fill-opacity:0.95;stroke:#56b4e9;stroke-opacity:0.95;" x="238.52205" xlink:href="#mebec448771" y="268.01874"/>
     <use style="fill:#004ba8;fill-opacity:0.95;stroke:#56b4e9;stroke-opacity:0.95;" x="238.896" xlink:href="#mebec448771" y="266.251838"/>
     <use style="fill:#004ba8;fill-opacity:0.95;stroke:#56b4e9;stroke-opacity:0.95;" x="239.26995" xlink:href="#mebec448771" y="264.693083"/>
     <use style="fill:#004ba8;fill-opacity:0.95;stroke:#56b4e9;stroke-opacity:0.95;" x="239.6439" xlink:href="#mebec448771" y="263.13408"/>
     <use style="fill:#004ba8;fill-opacity:0.95;stroke:#56b4e9;stroke-opacity:0.95;" x="240.01785" xlink:href="#mebec448771" y="261.471375"/>
     <use style="fill:#004ba8;fill-opacity:0.95;stroke:#56b4e9;stroke-opacity:0.95;" x="240.3918" xlink:href="#mebec448771" y="260.224223"/>
     <use style="fill:#004ba8;fill-opacity:0.95;stroke:#56b4e9;stroke-opacity:0.95;" x="240.76575" xlink:href="#mebec448771" y="259.288673"/>
     <use style="fill:#004ba8;fill-opacity:0.95;stroke:#56b4e9;stroke-opacity:0.95;" x="241.1397" xlink:href="#mebec448771" y="258.35337"/>
     <use style="fill:#004ba8;fill-opacity:0.95;stroke:#56b4e9;stroke-opacity:0.95;" x="241.51365" xlink:href="#mebec448771" y="257.522018"/>
     <use style="fill:#004ba8;fill-opacity:0.95;stroke:#56b4e9;stroke-opacity:0.95;" x="241.8876" xlink:href="#mebec448771" y="257.106218"/>
     <use style="fill:#004ba8;fill-opacity:0.95;stroke:#56b4e9;stroke-opacity:0.95;" x="242.26155" xlink:href="#mebec448771" y="256.794615"/>
     <use style="fill:#004ba8;fill-opacity:0.95;stroke:#56b4e9;stroke-opacity:0.95;" x="242.6355" xlink:href="#mebec448771" y="256.586715"/>
     <use style="fill:#004ba8;fill-opacity:0.95;stroke:#56b4e9;stroke-opacity:0.95;" x="243.00945" xlink:href="#mebec448771" y="256.794615"/>
     <use style="fill:#004ba8;fill-opacity:0.95;stroke:#56b4e9;stroke-opacity:0.95;" x="243.3834" xlink:href="#mebec448771" y="257.106218"/>
     <use style="fill:#004ba8;fill-opacity:0.95;stroke:#56b4e9;stroke-opacity:0.95;" x="243.75735" xlink:href="#mebec448771" y="257.418068"/>
     <use style="fill:#004ba8;fill-opacity:0.95;stroke:#56b4e9;stroke-opacity:0.95;" x="244.1313" xlink:href="#mebec448771" y="257.833867"/>
     <use style="fill:#004ba8;fill-opacity:0.95;stroke:#56b4e9;stroke-opacity:0.95;" x="244.50525" xlink:href="#mebec448771" y="258.45732"/>
     <use style="fill:#004ba8;fill-opacity:0.95;stroke:#56b4e9;stroke-opacity:0.95;" x="244.8792" xlink:href="#mebec448771" y="259.08102"/>
     <use style="fill:#004ba8;fill-opacity:0.95;stroke:#56b4e9;stroke-opacity:0.95;" x="245.25315" xlink:href="#mebec448771" y="259.912373"/>
     <use style="fill:#004ba8;fill-opacity:0.95;stroke:#56b4e9;stroke-opacity:0.95;" x="245.6271" xlink:href="#mebec448771" y="260.639775"/>
     <use style="fill:#004ba8;fill-opacity:0.95;stroke:#56b4e9;stroke-opacity:0.95;" x="246.00105" xlink:href="#mebec448771" y="261.886928"/>
     <use style="fill:#004ba8;fill-opacity:0.95;stroke:#56b4e9;stroke-opacity:0.95;" x="246.375" xlink:href="#mebec448771" y="263.34198"/>
     <use style="fill:#004ba8;fill-opacity:0.95;stroke:#56b4e9;stroke-opacity:0.95;" x="246.74895" xlink:href="#mebec448771" y="264.381233"/>
     <use style="fill:#004ba8;fill-opacity:0.95;stroke:#56b4e9;stroke-opacity:0.95;" x="247.1229" xlink:href="#mebec448771" y="265.628385"/>
     <use style="fill:#004ba8;fill-opacity:0.95;stroke:#56b4e9;stroke-opacity:0.95;" x="247.49685" xlink:href="#mebec448771" y="267.18714"/>
     <use style="fill:#004ba8;fill-opacity:0.95;stroke:#56b4e9;stroke-opacity:0.95;" x="247.8708" xlink:href="#mebec448771" y="267.70689"/>
     <use style="fill:#004ba8;fill-opacity:0.95;stroke:#56b4e9;stroke-opacity:0.95;" x="248.24475" xlink:href="#mebec448771" y="269.057993"/>
     <use style="fill:#004ba8;fill-opacity:0.95;stroke:#56b4e9;stroke-opacity:0.95;" x="248.6187" xlink:href="#mebec448771" y="270.097245"/>
     <use style="fill:#004ba8;fill-opacity:0.95;stroke:#56b4e9;stroke-opacity:0.95;" x="248.99265" xlink:href="#mebec448771" y="271.344398"/>
     <use style="fill:#004ba8;fill-opacity:0.95;stroke:#56b4e9;stroke-opacity:0.95;" x="249.3666" xlink:href="#mebec448771" y="271.8639"/>
     <use style="fill:#004ba8;fill-opacity:0.95;stroke:#56b4e9;stroke-opacity:0.95;" x="249.74055" xlink:href="#mebec448771" y="272.6955"/>
     <use style="fill:#004ba8;fill-opacity:0.95;stroke:#56b4e9;stroke-opacity:0.95;" x="250.1145" xlink:href="#mebec448771" y="273.111053"/>
     <use style="fill:#004ba8;fill-opacity:0.95;stroke:#56b4e9;stroke-opacity:0.95;" x="250.48845" xlink:href="#mebec448771" y="273.526853"/>
     <use style="fill:#004ba8;fill-opacity:0.95;stroke:#56b4e9;stroke-opacity:0.95;" x="250.8624" xlink:href="#mebec448771" y="273.526853"/>
    </g>
   </g>
   <g id="line2d_23">
    <g clip-path="url(#p4399ccea76)">
     <use style="fill:#004ba8;fill-opacity:0.95;stroke:#56b4e9;stroke-opacity:0.95;" x="311.49792" xlink:href="#mebec448771" y="319.242998"/>
     <use style="fill:#004ba8;fill-opacity:0.95;stroke:#56b4e9;stroke-opacity:0.95;" x="312.01281" xlink:href="#mebec448771" y="314.65571"/>
     <use style="fill:#004ba8;fill-opacity:0.95;stroke:#56b4e9;stroke-opacity:0.95;" x="312.5277" xlink:href="#mebec448771" y="309.476524"/>
     <use style="fill:#004ba8;fill-opacity:0.95;stroke:#56b4e9;stroke-opacity:0.95;" x="313.04259" xlink:href="#mebec448771" y="304.593275"/>
     <use style="fill:#004ba8;fill-opacity:0.95;stroke:#56b4e9;stroke-opacity:0.95;" x="313.55748" xlink:href="#mebec448771" y="300.449903"/>
     <use style="fill:#004ba8;fill-opacity:0.95;stroke:#56b4e9;stroke-opacity:0.95;" x="314.07237" xlink:href="#mebec448771" y="297.194411"/>
     <use style="fill:#004ba8;fill-opacity:0.95;stroke:#56b4e9;stroke-opacity:0.95;" x="314.58726" xlink:href="#mebec448771" y="293.79094"/>
     <use style="fill:#004ba8;fill-opacity:0.95;stroke:#56b4e9;stroke-opacity:0.95;" x="315.10215" xlink:href="#mebec448771" y="290.683404"/>
     <use style="fill:#004ba8;fill-opacity:0.95;stroke:#56b4e9;stroke-opacity:0.95;" x="315.61704" xlink:href="#mebec448771" y="288.31577"/>
     <use style="fill:#004ba8;fill-opacity:0.95;stroke:#56b4e9;stroke-opacity:0.95;" x="316.13193" xlink:href="#mebec448771" y="286.540155"/>
     <use style="fill:#004ba8;fill-opacity:0.95;stroke:#56b4e9;stroke-opacity:0.95;" x="316.64682" xlink:href="#mebec448771" y="285.208358"/>
     <use style="fill:#004ba8;fill-opacity:0.95;stroke:#56b4e9;stroke-opacity:0.95;" x="317.16171" xlink:href="#mebec448771" y="284.024318"/>
     <use style="fill:#004ba8;fill-opacity:0.95;stroke:#56b4e9;stroke-opacity:0.95;" x="317.6766" xlink:href="#mebec448771" y="283.58055"/>
     <use style="fill:#004ba8;fill-opacity:0.95;stroke:#56b4e9;stroke-opacity:0.95;" x="318.19149" xlink:href="#mebec448771" y="283.432545"/>
     <use style="fill:#004ba8;fill-opacity:0.95;stroke:#56b4e9;stroke-opacity:0.95;" x="318.70638" xlink:href="#mebec448771" y="283.432545"/>
     <use style="fill:#004ba8;fill-opacity:0.95;stroke:#56b4e9;stroke-opacity:0.95;" x="319.22127" xlink:href="#mebec448771" y="284.024318"/>
     <use style="fill:#004ba8;fill-opacity:0.95;stroke:#56b4e9;stroke-opacity:0.95;" x="319.73616" xlink:href="#mebec448771" y="284.912348"/>
     <use style="fill:#004ba8;fill-opacity:0.95;stroke:#56b4e9;stroke-opacity:0.95;" x="320.25105" xlink:href="#mebec448771" y="286.244145"/>
     <use style="fill:#004ba8;fill-opacity:0.95;stroke:#56b4e9;stroke-opacity:0.95;" x="320.76594" xlink:href="#mebec448771" y="288.167789"/>
     <use style="fill:#004ba8;fill-opacity:0.95;stroke:#56b4e9;stroke-opacity:0.95;" x="321.28083" xlink:href="#mebec448771" y="290.683404"/>
     <use style="fill:#004ba8;fill-opacity:0.95;stroke:#56b4e9;stroke-opacity:0.95;" x="321.79572" xlink:href="#mebec448771" y="293.199019"/>
     <use style="fill:#004ba8;fill-opacity:0.95;stroke:#56b4e9;stroke-opacity:0.95;" x="322.31061" xlink:href="#mebec448771" y="295.862614"/>
     <use style="fill:#004ba8;fill-opacity:0.95;stroke:#56b4e9;stroke-opacity:0.95;" x="322.8255" xlink:href="#mebec448771" y="299.118105"/>
     <use style="fill:#004ba8;fill-opacity:0.95;stroke:#56b4e9;stroke-opacity:0.95;" x="323.34039" xlink:href="#mebec448771" y="302.521577"/>
    </g>
   </g>
   <g id="line2d_24">
    <g clip-path="url(#p4399ccea76)">
     <use style="fill:#004ba8;fill-opacity:0.95;stroke:#56b4e9;stroke-opacity:0.95;" x="389.2212" xlink:href="#mebec448771" y="303.457646"/>
     <use style="fill:#004ba8;fill-opacity:0.95;stroke:#56b4e9;stroke-opacity:0.95;" x="389.689196" xlink:href="#mebec448771" y="299.882707"/>
     <use style="fill:#004ba8;fill-opacity:0.95;stroke:#56b4e9;stroke-opacity:0.95;" x="390.157204" xlink:href="#mebec448771" y="296.119643"/>
     <use style="fill:#004ba8;fill-opacity:0.95;stroke:#56b4e9;stroke-opacity:0.95;" x="390.6252" xlink:href="#mebec448771" y="293.297326"/>
     <use style="fill:#004ba8;fill-opacity:0.95;stroke:#56b4e9;stroke-opacity:0.95;" x="391.093196" xlink:href="#mebec448771" y="290.851333"/>
     <use style="fill:#004ba8;fill-opacity:0.95;stroke:#56b4e9;stroke-opacity:0.95;" x="391.561204" xlink:href="#mebec448771" y="289.157938"/>
     <use style="fill:#004ba8;fill-opacity:0.95;stroke:#56b4e9;stroke-opacity:0.95;" x="392.0292" xlink:href="#mebec448771" y="287.464543"/>
     <use style="fill:#004ba8;fill-opacity:0.95;stroke:#56b4e9;stroke-opacity:0.95;" x="392.497196" xlink:href="#mebec448771" y="286.147373"/>
     <use style="fill:#004ba8;fill-opacity:0.95;stroke:#56b4e9;stroke-opacity:0.95;" x="392.965204" xlink:href="#mebec448771" y="284.830425"/>
     <use style="fill:#004ba8;fill-opacity:0.95;stroke:#56b4e9;stroke-opacity:0.95;" x="393.4332" xlink:href="#mebec448771" y="284.453978"/>
     <use style="fill:#004ba8;fill-opacity:0.95;stroke:#56b4e9;stroke-opacity:0.95;" x="393.901196" xlink:href="#mebec448771" y="283.889678"/>
     <use style="fill:#004ba8;fill-opacity:0.95;stroke:#56b4e9;stroke-opacity:0.95;" x="394.369204" xlink:href="#mebec448771" y="284.077778"/>
     <use style="fill:#004ba8;fill-opacity:0.95;stroke:#56b4e9;stroke-opacity:0.95;" x="394.8372" xlink:href="#mebec448771" y="284.077778"/>
     <use style="fill:#004ba8;fill-opacity:0.95;stroke:#56b4e9;stroke-opacity:0.95;" x="395.305196" xlink:href="#mebec448771" y="284.642325"/>
     <use style="fill:#004ba8;fill-opacity:0.95;stroke:#56b4e9;stroke-opacity:0.95;" x="395.773204" xlink:href="#mebec448771" y="285.583073"/>
     <use style="fill:#004ba8;fill-opacity:0.95;stroke:#56b4e9;stroke-opacity:0.95;" x="396.2412" xlink:href="#mebec448771" y="287.088368"/>
     <use style="fill:#004ba8;fill-opacity:0.95;stroke:#56b4e9;stroke-opacity:0.95;" x="396.709196" xlink:href="#mebec448771" y="287.652717"/>
     <use style="fill:#004ba8;fill-opacity:0.95;stroke:#56b4e9;stroke-opacity:0.95;" x="397.177204" xlink:href="#mebec448771" y="290.475009"/>
     <use style="fill:#004ba8;fill-opacity:0.95;stroke:#56b4e9;stroke-opacity:0.95;" x="397.6452" xlink:href="#mebec448771" y="292.921027"/>
     <use style="fill:#004ba8;fill-opacity:0.95;stroke:#56b4e9;stroke-opacity:0.95;" x="398.113196" xlink:href="#mebec448771" y="295.555169"/>
     <use style="fill:#004ba8;fill-opacity:0.95;stroke:#56b4e9;stroke-opacity:0.95;" x="398.581204" xlink:href="#mebec448771" y="298.001187"/>
     <use style="fill:#004ba8;fill-opacity:0.95;stroke:#56b4e9;stroke-opacity:0.95;" x="399.0492" xlink:href="#mebec448771" y="301.952401"/>
    </g>
   </g>
   <g id="line2d_25">
    <g clip-path="url(#p4399ccea76)">
     <use style="fill:#004ba8;fill-opacity:0.95;stroke:#56b4e9;stroke-opacity:0.95;" x="462.610764" xlink:href="#mebec448771" y="276.799298"/>
     <use style="fill:#004ba8;fill-opacity:0.95;stroke:#56b4e9;stroke-opacity:0.95;" x="463.26816" xlink:href="#mebec448771" y="274.753463"/>
     <use style="fill:#004ba8;fill-opacity:0.95;stroke:#56b4e9;stroke-opacity:0.95;" x="463.925556" xlink:href="#mebec448771" y="273.389738"/>
     <use style="fill:#004ba8;fill-opacity:0.95;stroke:#56b4e9;stroke-opacity:0.95;" x="464.582844" xlink:href="#mebec448771" y="271.116698"/>
     <use style="fill:#004ba8;fill-opacity:0.95;stroke:#56b4e9;stroke-opacity:0.95;" x="465.24024" xlink:href="#mebec448771" y="267.934343"/>
     <use style="fill:#004ba8;fill-opacity:0.95;stroke:#56b4e9;stroke-opacity:0.95;" x="465.897636" xlink:href="#mebec448771" y="265.888755"/>
     <use style="fill:#004ba8;fill-opacity:0.95;stroke:#56b4e9;stroke-opacity:0.95;" x="466.554924" xlink:href="#mebec448771" y="264.070125"/>
     <use style="fill:#004ba8;fill-opacity:0.95;stroke:#56b4e9;stroke-opacity:0.95;" x="467.21232" xlink:href="#mebec448771" y="262.7064"/>
     <use style="fill:#004ba8;fill-opacity:0.95;stroke:#56b4e9;stroke-opacity:0.95;" x="467.869716" xlink:href="#mebec448771" y="260.888018"/>
     <use style="fill:#004ba8;fill-opacity:0.95;stroke:#56b4e9;stroke-opacity:0.95;" x="468.527004" xlink:href="#mebec448771" y="259.524045"/>
     <use style="fill:#004ba8;fill-opacity:0.95;stroke:#56b4e9;stroke-opacity:0.95;" x="469.1844" xlink:href="#mebec448771" y="259.069635"/>
     <use style="fill:#004ba8;fill-opacity:0.95;stroke:#56b4e9;stroke-opacity:0.95;" x="469.841796" xlink:href="#mebec448771" y="258.842182"/>
     <use style="fill:#004ba8;fill-opacity:0.95;stroke:#56b4e9;stroke-opacity:0.95;" x="470.499084" xlink:href="#mebec448771" y="259.29684"/>
     <use style="fill:#004ba8;fill-opacity:0.95;stroke:#56b4e9;stroke-opacity:0.95;" x="471.15648" xlink:href="#mebec448771" y="260.206155"/>
     <use style="fill:#004ba8;fill-opacity:0.95;stroke:#56b4e9;stroke-opacity:0.95;" x="471.813876" xlink:href="#mebec448771" y="261.797085"/>
     <use style="fill:#004ba8;fill-opacity:0.95;stroke:#56b4e9;stroke-opacity:0.95;" x="472.471164" xlink:href="#mebec448771" y="264.297578"/>
     <use style="fill:#004ba8;fill-opacity:0.95;stroke:#56b4e9;stroke-opacity:0.95;" x="473.12856" xlink:href="#mebec448771" y="266.570618"/>
     <use style="fill:#004ba8;fill-opacity:0.95;stroke:#56b4e9;stroke-opacity:0.95;" x="473.785956" xlink:href="#mebec448771" y="269.52552"/>
     <use style="fill:#004ba8;fill-opacity:0.95;stroke:#56b4e9;stroke-opacity:0.95;" x="474.443244" xlink:href="#mebec448771" y="273.389738"/>
     <use style="fill:#004ba8;fill-opacity:0.95;stroke:#56b4e9;stroke-opacity:0.95;" x="475.10064" xlink:href="#mebec448771" y="277.48116"/>
     <use style="fill:#004ba8;fill-opacity:0.95;stroke:#56b4e9;stroke-opacity:0.95;" x="475.758036" xlink:href="#mebec448771" y="282.254445"/>
    </g>
   </g>
   <g id="line2d_26">
    <g clip-path="url(#p4399ccea76)">
     <use style="fill:#004ba8;fill-opacity:0.95;stroke:#56b4e9;stroke-opacity:0.95;" x="547.639596" xlink:href="#mebec448771" y="196.646423"/>
     <use style="fill:#004ba8;fill-opacity:0.95;stroke:#56b4e9;stroke-opacity:0.95;" x="548.336844" xlink:href="#mebec448771" y="197.803733"/>
     <use style="fill:#004ba8;fill-opacity:0.95;stroke:#56b4e9;stroke-opacity:0.95;" x="549.0342" xlink:href="#mebec448771" y="199.53945"/>
     <use style="fill:#004ba8;fill-opacity:0.95;stroke:#56b4e9;stroke-opacity:0.95;" x="549.731556" xlink:href="#mebec448771" y="201.564495"/>
     <use style="fill:#004ba8;fill-opacity:0.95;stroke:#56b4e9;stroke-opacity:0.95;" x="550.428804" xlink:href="#mebec448771" y="205.036178"/>
     <use style="fill:#004ba8;fill-opacity:0.95;stroke:#56b4e9;stroke-opacity:0.95;" x="551.12616" xlink:href="#mebec448771" y="208.79694"/>
     <use style="fill:#004ba8;fill-opacity:0.95;stroke:#56b4e9;stroke-opacity:0.95;" x="551.823516" xlink:href="#mebec448771" y="212.84703"/>
     <use style="fill:#004ba8;fill-opacity:0.95;stroke:#56b4e9;stroke-opacity:0.95;" x="552.520764" xlink:href="#mebec448771" y="217.186448"/>
     <use style="fill:#004ba8;fill-opacity:0.95;stroke:#56b4e9;stroke-opacity:0.95;" x="553.21812" xlink:href="#mebec448771" y="221.815193"/>
    </g>
   </g>
   <g id="line2d_27">
    <defs>
     <path d="M 0 2.5 
C 0.663008 2.5 1.29895 2.236584 1.767767 1.767767 
C 2.236584 1.29895 2.5 0.663008 2.5 0 
C 2.5 -0.663008 2.236584 -1.29895 1.767767 -1.767767 
C 1.29895 -2.236584 0.663008 -2.5 0 -2.5 
C -0.663008 -2.5 -1.29895 -2.236584 -1.767767 -1.767767 
C -2.236584 -1.29895 -2.5 -0.663008 -2.5 0 
C -2.5 0.663008 -2.236584 1.29895 -1.767767 1.767767 
C -1.29895 2.236584 -0.663008 2.5 0 2.5 
z
" id="mcfe1821d92" style="stroke:#fb2c07;stroke-opacity:0.95;stroke-width:0.4;"/>
    </defs>
    <g clip-path="url(#p4399ccea76)">
     <use style="fill:#990000;fill-opacity:0.95;stroke:#fb2c07;stroke-opacity:0.95;stroke-width:0.4;" x="160.310016" xlink:href="#mcfe1821d92" y="145.816852"/>
     <use style="fill:#990000;fill-opacity:0.95;stroke:#fb2c07;stroke-opacity:0.95;stroke-width:0.4;" x="160.850664" xlink:href="#mcfe1821d92" y="142.189245"/>
     <use style="fill:#990000;fill-opacity:0.95;stroke:#fb2c07;stroke-opacity:0.95;stroke-width:0.4;" x="161.39142" xlink:href="#mcfe1821d92" y="139.98105"/>
     <use style="fill:#990000;fill-opacity:0.95;stroke:#fb2c07;stroke-opacity:0.95;stroke-width:0.4;" x="161.932068" xlink:href="#mcfe1821d92" y="137.930513"/>
     <use style="fill:#990000;fill-opacity:0.95;stroke:#fb2c07;stroke-opacity:0.95;stroke-width:0.4;" x="162.472716" xlink:href="#mcfe1821d92" y="136.353443"/>
     <use style="fill:#990000;fill-opacity:0.95;stroke:#fb2c07;stroke-opacity:0.95;stroke-width:0.4;" x="163.013472" xlink:href="#mcfe1821d92" y="134.460563"/>
     <use style="fill:#990000;fill-opacity:0.95;stroke:#fb2c07;stroke-opacity:0.95;stroke-width:0.4;" x="163.55412" xlink:href="#mcfe1821d92" y="133.198808"/>
     <use style="fill:#990000;fill-opacity:0.95;stroke:#fb2c07;stroke-opacity:0.95;stroke-width:0.4;" x="164.094876" xlink:href="#mcfe1821d92" y="132.56793"/>
     <use style="fill:#990000;fill-opacity:0.95;stroke:#fb2c07;stroke-opacity:0.95;stroke-width:0.4;" x="164.635524" xlink:href="#mcfe1821d92" y="133.829685"/>
     <use style="fill:#990000;fill-opacity:0.95;stroke:#fb2c07;stroke-opacity:0.95;stroke-width:0.4;" x="165.17628" xlink:href="#mcfe1821d92" y="134.618468"/>
     <use style="fill:#990000;fill-opacity:0.95;stroke:#fb2c07;stroke-opacity:0.95;stroke-width:0.4;" x="165.716928" xlink:href="#mcfe1821d92" y="135.56466"/>
     <use style="fill:#990000;fill-opacity:0.95;stroke:#fb2c07;stroke-opacity:0.95;stroke-width:0.4;" x="166.257684" xlink:href="#mcfe1821d92" y="136.03788"/>
     <use style="fill:#990000;fill-opacity:0.95;stroke:#fb2c07;stroke-opacity:0.95;stroke-width:0.4;" x="166.798332" xlink:href="#mcfe1821d92" y="136.98432"/>
     <use style="fill:#990000;fill-opacity:0.95;stroke:#fb2c07;stroke-opacity:0.95;stroke-width:0.4;" x="167.33898" xlink:href="#mcfe1821d92" y="139.50783"/>
     <use style="fill:#990000;fill-opacity:0.95;stroke:#fb2c07;stroke-opacity:0.95;stroke-width:0.4;" x="167.879736" xlink:href="#mcfe1821d92" y="140.45427"/>
     <use style="fill:#990000;fill-opacity:0.95;stroke:#fb2c07;stroke-opacity:0.95;stroke-width:0.4;" x="168.420384" xlink:href="#mcfe1821d92" y="142.189245"/>
     <use style="fill:#990000;fill-opacity:0.95;stroke:#fb2c07;stroke-opacity:0.95;stroke-width:0.4;" x="168.96114" xlink:href="#mcfe1821d92" y="146.132415"/>
     <use style="fill:#990000;fill-opacity:0.95;stroke:#fb2c07;stroke-opacity:0.95;stroke-width:0.4;" x="169.501788" xlink:href="#mcfe1821d92" y="151.179435"/>
     <use style="fill:#990000;fill-opacity:0.95;stroke:#fb2c07;stroke-opacity:0.95;stroke-width:0.4;" x="170.042544" xlink:href="#mcfe1821d92" y="155.122605"/>
     <use style="fill:#990000;fill-opacity:0.95;stroke:#fb2c07;stroke-opacity:0.95;stroke-width:0.4;" x="170.583192" xlink:href="#mcfe1821d92" y="160.32753"/>
     <use style="fill:#990000;fill-opacity:0.95;stroke:#fb2c07;stroke-opacity:0.95;stroke-width:0.4;" x="171.123948" xlink:href="#mcfe1821d92" y="164.428358"/>
     <use style="fill:#990000;fill-opacity:0.95;stroke:#fb2c07;stroke-opacity:0.95;stroke-width:0.4;" x="171.664596" xlink:href="#mcfe1821d92" y="167.74065"/>
     <use style="fill:#990000;fill-opacity:0.95;stroke:#fb2c07;stroke-opacity:0.95;stroke-width:0.4;" x="172.205352" xlink:href="#mcfe1821d92" y="170.26416"/>
     <use style="fill:#990000;fill-opacity:0.95;stroke:#fb2c07;stroke-opacity:0.95;stroke-width:0.4;" x="172.746" xlink:href="#mcfe1821d92" y="173.261138"/>
    </g>
   </g>
   <g id="line2d_28">
    <g clip-path="url(#p4399ccea76)">
     <use style="fill:#990000;fill-opacity:0.95;stroke:#fb2c07;stroke-opacity:0.95;stroke-width:0.4;" x="236.2284" xlink:href="#mcfe1821d92" y="123.226538"/>
     <use style="fill:#990000;fill-opacity:0.95;stroke:#fb2c07;stroke-opacity:0.95;stroke-width:0.4;" x="236.77042" xlink:href="#mcfe1821d92" y="121.126995"/>
     <use style="fill:#990000;fill-opacity:0.95;stroke:#fb2c07;stroke-opacity:0.95;stroke-width:0.4;" x="237.31245" xlink:href="#mcfe1821d92" y="118.824255"/>
     <use style="fill:#990000;fill-opacity:0.95;stroke:#fb2c07;stroke-opacity:0.95;stroke-width:0.4;" x="237.85447" xlink:href="#mcfe1821d92" y="117.943898"/>
     <use style="fill:#990000;fill-opacity:0.95;stroke:#fb2c07;stroke-opacity:0.95;stroke-width:0.4;" x="238.3965" xlink:href="#mcfe1821d92" y="116.657145"/>
     <use style="fill:#990000;fill-opacity:0.95;stroke:#fb2c07;stroke-opacity:0.95;stroke-width:0.4;" x="238.93853" xlink:href="#mcfe1821d92" y="115.776788"/>
     <use style="fill:#990000;fill-opacity:0.95;stroke:#fb2c07;stroke-opacity:0.95;stroke-width:0.4;" x="239.48055" xlink:href="#mcfe1821d92" y="114.625418"/>
     <use style="fill:#990000;fill-opacity:0.95;stroke:#fb2c07;stroke-opacity:0.95;stroke-width:0.4;" x="240.02258" xlink:href="#mcfe1821d92" y="114.42222"/>
     <use style="fill:#990000;fill-opacity:0.95;stroke:#fb2c07;stroke-opacity:0.95;stroke-width:0.4;" x="240.5646" xlink:href="#mcfe1821d92" y="115.302577"/>
     <use style="fill:#990000;fill-opacity:0.95;stroke:#fb2c07;stroke-opacity:0.95;stroke-width:0.4;" x="241.10662" xlink:href="#mcfe1821d92" y="115.641158"/>
     <use style="fill:#990000;fill-opacity:0.95;stroke:#fb2c07;stroke-opacity:0.95;stroke-width:0.4;" x="241.64865" xlink:href="#mcfe1821d92" y="115.641158"/>
     <use style="fill:#990000;fill-opacity:0.95;stroke:#fb2c07;stroke-opacity:0.95;stroke-width:0.4;" x="242.19067" xlink:href="#mcfe1821d92" y="117.06354"/>
     <use style="fill:#990000;fill-opacity:0.95;stroke:#fb2c07;stroke-opacity:0.95;stroke-width:0.4;" x="242.7327" xlink:href="#mcfe1821d92" y="117.7407"/>
     <use style="fill:#990000;fill-opacity:0.95;stroke:#fb2c07;stroke-opacity:0.95;stroke-width:0.4;" x="243.27473" xlink:href="#mcfe1821d92" y="119.298465"/>
     <use style="fill:#990000;fill-opacity:0.95;stroke:#fb2c07;stroke-opacity:0.95;stroke-width:0.4;" x="243.81675" xlink:href="#mcfe1821d92" y="122.278365"/>
     <use style="fill:#990000;fill-opacity:0.95;stroke:#fb2c07;stroke-opacity:0.95;stroke-width:0.4;" x="244.35878" xlink:href="#mcfe1821d92" y="124.106895"/>
     <use style="fill:#990000;fill-opacity:0.95;stroke:#fb2c07;stroke-opacity:0.95;stroke-width:0.4;" x="244.9008" xlink:href="#mcfe1821d92" y="126.951413"/>
    </g>
   </g>
   <g id="line2d_29">
    <g clip-path="url(#p4399ccea76)">
     <use style="fill:#990000;fill-opacity:0.95;stroke:#fb2c07;stroke-opacity:0.95;stroke-width:0.4;" x="311.5908" xlink:href="#mcfe1821d92" y="119.306138"/>
     <use style="fill:#990000;fill-opacity:0.95;stroke:#fb2c07;stroke-opacity:0.95;stroke-width:0.4;" x="312.132852" xlink:href="#mcfe1821d92" y="117.591705"/>
     <use style="fill:#990000;fill-opacity:0.95;stroke:#fb2c07;stroke-opacity:0.95;stroke-width:0.4;" x="312.674915" xlink:href="#mcfe1821d92" y="115.426328"/>
     <use style="fill:#990000;fill-opacity:0.95;stroke:#fb2c07;stroke-opacity:0.95;stroke-width:0.4;" x="313.216967" xlink:href="#mcfe1821d92" y="113.621805"/>
     <use style="fill:#990000;fill-opacity:0.95;stroke:#fb2c07;stroke-opacity:0.95;stroke-width:0.4;" x="313.75903" xlink:href="#mcfe1821d92" y="112.178137"/>
     <use style="fill:#990000;fill-opacity:0.95;stroke:#fb2c07;stroke-opacity:0.95;stroke-width:0.4;" x="314.301082" xlink:href="#mcfe1821d92" y="110.915145"/>
     <use style="fill:#990000;fill-opacity:0.95;stroke:#fb2c07;stroke-opacity:0.95;stroke-width:0.4;" x="314.843144" xlink:href="#mcfe1821d92" y="109.561815"/>
     <use style="fill:#990000;fill-opacity:0.95;stroke:#fb2c07;stroke-opacity:0.95;stroke-width:0.4;" x="315.385196" xlink:href="#mcfe1821d92" y="108.479003"/>
     <use style="fill:#990000;fill-opacity:0.95;stroke:#fb2c07;stroke-opacity:0.95;stroke-width:0.4;" x="315.927259" xlink:href="#mcfe1821d92" y="107.93772"/>
     <use style="fill:#990000;fill-opacity:0.95;stroke:#fb2c07;stroke-opacity:0.95;stroke-width:0.4;" x="316.469311" xlink:href="#mcfe1821d92" y="107.93772"/>
     <use style="fill:#990000;fill-opacity:0.95;stroke:#fb2c07;stroke-opacity:0.95;stroke-width:0.4;" x="317.011374" xlink:href="#mcfe1821d92" y="107.93772"/>
     <use style="fill:#990000;fill-opacity:0.95;stroke:#fb2c07;stroke-opacity:0.95;stroke-width:0.4;" x="317.553426" xlink:href="#mcfe1821d92" y="107.666955"/>
     <use style="fill:#990000;fill-opacity:0.95;stroke:#fb2c07;stroke-opacity:0.95;stroke-width:0.4;" x="318.095489" xlink:href="#mcfe1821d92" y="108.02781"/>
     <use style="fill:#990000;fill-opacity:0.95;stroke:#fb2c07;stroke-opacity:0.95;stroke-width:0.4;" x="318.637541" xlink:href="#mcfe1821d92" y="108.839858"/>
     <use style="fill:#990000;fill-opacity:0.95;stroke:#fb2c07;stroke-opacity:0.95;stroke-width:0.4;" x="319.179604" xlink:href="#mcfe1821d92" y="109.29105"/>
     <use style="fill:#990000;fill-opacity:0.95;stroke:#fb2c07;stroke-opacity:0.95;stroke-width:0.4;" x="319.721656" xlink:href="#mcfe1821d92" y="110.55429"/>
     <use style="fill:#990000;fill-opacity:0.95;stroke:#fb2c07;stroke-opacity:0.95;stroke-width:0.4;" x="320.263718" xlink:href="#mcfe1821d92" y="111.546765"/>
     <use style="fill:#990000;fill-opacity:0.95;stroke:#fb2c07;stroke-opacity:0.95;stroke-width:0.4;" x="320.80577" xlink:href="#mcfe1821d92" y="112.719668"/>
     <use style="fill:#990000;fill-opacity:0.95;stroke:#fb2c07;stroke-opacity:0.95;stroke-width:0.4;" x="321.347833" xlink:href="#mcfe1821d92" y="114.885045"/>
     <use style="fill:#990000;fill-opacity:0.95;stroke:#fb2c07;stroke-opacity:0.95;stroke-width:0.4;" x="321.889885" xlink:href="#mcfe1821d92" y="117.591705"/>
     <use style="fill:#990000;fill-opacity:0.95;stroke:#fb2c07;stroke-opacity:0.95;stroke-width:0.4;" x="322.431948" xlink:href="#mcfe1821d92" y="119.93751"/>
     <use style="fill:#990000;fill-opacity:0.95;stroke:#fb2c07;stroke-opacity:0.95;stroke-width:0.4;" x="322.974" xlink:href="#mcfe1821d92" y="122.644417"/>
    </g>
   </g>
   <g id="line2d_30">
    <g clip-path="url(#p4399ccea76)">
     <use style="fill:#990000;fill-opacity:0.95;stroke:#fb2c07;stroke-opacity:0.95;stroke-width:0.4;" x="391.5432" xlink:href="#mcfe1821d92" y="112.657545"/>
     <use style="fill:#990000;fill-opacity:0.95;stroke:#fb2c07;stroke-opacity:0.95;stroke-width:0.4;" x="391.724996" xlink:href="#mcfe1821d92" y="111.92049"/>
     <use style="fill:#990000;fill-opacity:0.95;stroke:#fb2c07;stroke-opacity:0.95;stroke-width:0.4;" x="391.906804" xlink:href="#mcfe1821d92" y="111.224273"/>
     <use style="fill:#990000;fill-opacity:0.95;stroke:#fb2c07;stroke-opacity:0.95;stroke-width:0.4;" x="392.0886" xlink:href="#mcfe1821d92" y="110.732738"/>
     <use style="fill:#990000;fill-opacity:0.95;stroke:#fb2c07;stroke-opacity:0.95;stroke-width:0.4;" x="392.270396" xlink:href="#mcfe1821d92" y="110.36421"/>
     <use style="fill:#990000;fill-opacity:0.95;stroke:#fb2c07;stroke-opacity:0.95;stroke-width:0.4;" x="392.452204" xlink:href="#mcfe1821d92" y="110.077605"/>
     <use style="fill:#990000;fill-opacity:0.95;stroke:#fb2c07;stroke-opacity:0.95;stroke-width:0.4;" x="392.634" xlink:href="#mcfe1821d92" y="109.66824"/>
     <use style="fill:#990000;fill-opacity:0.95;stroke:#fb2c07;stroke-opacity:0.95;stroke-width:0.4;" x="392.815796" xlink:href="#mcfe1821d92" y="109.258627"/>
     <use style="fill:#990000;fill-opacity:0.95;stroke:#fb2c07;stroke-opacity:0.95;stroke-width:0.4;" x="392.997604" xlink:href="#mcfe1821d92" y="108.8901"/>
     <use style="fill:#990000;fill-opacity:0.95;stroke:#fb2c07;stroke-opacity:0.95;stroke-width:0.4;" x="393.1794" xlink:href="#mcfe1821d92" y="108.685417"/>
     <use style="fill:#990000;fill-opacity:0.95;stroke:#fb2c07;stroke-opacity:0.95;stroke-width:0.4;" x="393.361196" xlink:href="#mcfe1821d92" y="108.521573"/>
     <use style="fill:#990000;fill-opacity:0.95;stroke:#fb2c07;stroke-opacity:0.95;stroke-width:0.4;" x="393.543004" xlink:href="#mcfe1821d92" y="108.31689"/>
     <use style="fill:#990000;fill-opacity:0.95;stroke:#fb2c07;stroke-opacity:0.95;stroke-width:0.4;" x="393.7248" xlink:href="#mcfe1821d92" y="108.071123"/>
     <use style="fill:#990000;fill-opacity:0.95;stroke:#fb2c07;stroke-opacity:0.95;stroke-width:0.4;" x="393.906596" xlink:href="#mcfe1821d92" y="107.907277"/>
     <use style="fill:#990000;fill-opacity:0.95;stroke:#fb2c07;stroke-opacity:0.95;stroke-width:0.4;" x="394.088404" xlink:href="#mcfe1821d92" y="107.784518"/>
     <use style="fill:#990000;fill-opacity:0.95;stroke:#fb2c07;stroke-opacity:0.95;stroke-width:0.4;" x="394.2702" xlink:href="#mcfe1821d92" y="107.53875"/>
     <use style="fill:#990000;fill-opacity:0.95;stroke:#fb2c07;stroke-opacity:0.95;stroke-width:0.4;" x="394.451996" xlink:href="#mcfe1821d92" y="107.497912"/>
     <use style="fill:#990000;fill-opacity:0.95;stroke:#fb2c07;stroke-opacity:0.95;stroke-width:0.4;" x="394.633804" xlink:href="#mcfe1821d92" y="107.497912"/>
     <use style="fill:#990000;fill-opacity:0.95;stroke:#fb2c07;stroke-opacity:0.95;stroke-width:0.4;" x="394.8156" xlink:href="#mcfe1821d92" y="107.497912"/>
     <use style="fill:#990000;fill-opacity:0.95;stroke:#fb2c07;stroke-opacity:0.95;stroke-width:0.4;" x="394.997396" xlink:href="#mcfe1821d92" y="107.620673"/>
     <use style="fill:#990000;fill-opacity:0.95;stroke:#fb2c07;stroke-opacity:0.95;stroke-width:0.4;" x="395.179204" xlink:href="#mcfe1821d92" y="107.579588"/>
     <use style="fill:#990000;fill-opacity:0.95;stroke:#fb2c07;stroke-opacity:0.95;stroke-width:0.4;" x="395.361" xlink:href="#mcfe1821d92" y="107.497912"/>
     <use style="fill:#990000;fill-opacity:0.95;stroke:#fb2c07;stroke-opacity:0.95;stroke-width:0.4;" x="395.542796" xlink:href="#mcfe1821d92" y="107.620673"/>
     <use style="fill:#990000;fill-opacity:0.95;stroke:#fb2c07;stroke-opacity:0.95;stroke-width:0.4;" x="395.724604" xlink:href="#mcfe1821d92" y="107.497912"/>
     <use style="fill:#990000;fill-opacity:0.95;stroke:#fb2c07;stroke-opacity:0.95;stroke-width:0.4;" x="395.9064" xlink:href="#mcfe1821d92" y="107.784518"/>
     <use style="fill:#990000;fill-opacity:0.95;stroke:#fb2c07;stroke-opacity:0.95;stroke-width:0.4;" x="396.088196" xlink:href="#mcfe1821d92" y="107.784518"/>
     <use style="fill:#990000;fill-opacity:0.95;stroke:#fb2c07;stroke-opacity:0.95;stroke-width:0.4;" x="396.270004" xlink:href="#mcfe1821d92" y="107.948363"/>
     <use style="fill:#990000;fill-opacity:0.95;stroke:#fb2c07;stroke-opacity:0.95;stroke-width:0.4;" x="396.4518" xlink:href="#mcfe1821d92" y="108.234967"/>
     <use style="fill:#990000;fill-opacity:0.95;stroke:#fb2c07;stroke-opacity:0.95;stroke-width:0.4;" x="396.633596" xlink:href="#mcfe1821d92" y="108.644333"/>
     <use style="fill:#990000;fill-opacity:0.95;stroke:#fb2c07;stroke-opacity:0.95;stroke-width:0.4;" x="396.815404" xlink:href="#mcfe1821d92" y="108.849263"/>
     <use style="fill:#990000;fill-opacity:0.95;stroke:#fb2c07;stroke-opacity:0.95;stroke-width:0.4;" x="396.9972" xlink:href="#mcfe1821d92" y="109.46331"/>
    </g>
   </g>
   <g id="line2d_31">
    <g clip-path="url(#p4399ccea76)">
     <use style="fill:#990000;fill-opacity:0.95;stroke:#fb2c07;stroke-opacity:0.95;stroke-width:0.4;" x="465.8472" xlink:href="#mcfe1821d92" y="129.353895"/>
     <use style="fill:#990000;fill-opacity:0.95;stroke:#fb2c07;stroke-opacity:0.95;stroke-width:0.4;" x="466.19172" xlink:href="#mcfe1821d92" y="127.812713"/>
     <use style="fill:#990000;fill-opacity:0.95;stroke:#fb2c07;stroke-opacity:0.95;stroke-width:0.4;" x="466.53624" xlink:href="#mcfe1821d92" y="126.95661"/>
     <use style="fill:#990000;fill-opacity:0.95;stroke:#fb2c07;stroke-opacity:0.95;stroke-width:0.4;" x="466.88076" xlink:href="#mcfe1821d92" y="126.100507"/>
     <use style="fill:#990000;fill-opacity:0.95;stroke:#fb2c07;stroke-opacity:0.95;stroke-width:0.4;" x="467.22528" xlink:href="#mcfe1821d92" y="124.388303"/>
     <use style="fill:#990000;fill-opacity:0.95;stroke:#fb2c07;stroke-opacity:0.95;stroke-width:0.4;" x="467.5698" xlink:href="#mcfe1821d92" y="123.36093"/>
     <use style="fill:#990000;fill-opacity:0.95;stroke:#fb2c07;stroke-opacity:0.95;stroke-width:0.4;" x="467.91432" xlink:href="#mcfe1821d92" y="121.991265"/>
     <use style="fill:#990000;fill-opacity:0.95;stroke:#fb2c07;stroke-opacity:0.95;stroke-width:0.4;" x="468.25884" xlink:href="#mcfe1821d92" y="120.792622"/>
     <use style="fill:#990000;fill-opacity:0.95;stroke:#fb2c07;stroke-opacity:0.95;stroke-width:0.4;" x="468.60336" xlink:href="#mcfe1821d92" y="121.477455"/>
     <use style="fill:#990000;fill-opacity:0.95;stroke:#fb2c07;stroke-opacity:0.95;stroke-width:0.4;" x="468.94788" xlink:href="#mcfe1821d92" y="119.76525"/>
     <use style="fill:#990000;fill-opacity:0.95;stroke:#fb2c07;stroke-opacity:0.95;stroke-width:0.4;" x="469.2924" xlink:href="#mcfe1821d92" y="118.566608"/>
     <use style="fill:#990000;fill-opacity:0.95;stroke:#fb2c07;stroke-opacity:0.95;stroke-width:0.4;" x="469.63692" xlink:href="#mcfe1821d92" y="118.224315"/>
     <use style="fill:#990000;fill-opacity:0.95;stroke:#fb2c07;stroke-opacity:0.95;stroke-width:0.4;" x="469.98144" xlink:href="#mcfe1821d92" y="116.854403"/>
     <use style="fill:#990000;fill-opacity:0.95;stroke:#fb2c07;stroke-opacity:0.95;stroke-width:0.4;" x="470.32596" xlink:href="#mcfe1821d92" y="116.511863"/>
     <use style="fill:#990000;fill-opacity:0.95;stroke:#fb2c07;stroke-opacity:0.95;stroke-width:0.4;" x="470.67048" xlink:href="#mcfe1821d92" y="116.16957"/>
     <use style="fill:#990000;fill-opacity:0.95;stroke:#fb2c07;stroke-opacity:0.95;stroke-width:0.4;" x="471.015" xlink:href="#mcfe1821d92" y="115.9983"/>
     <use style="fill:#990000;fill-opacity:0.95;stroke:#fb2c07;stroke-opacity:0.95;stroke-width:0.4;" x="471.35952" xlink:href="#mcfe1821d92" y="115.65576"/>
     <use style="fill:#990000;fill-opacity:0.95;stroke:#fb2c07;stroke-opacity:0.95;stroke-width:0.4;" x="471.70404" xlink:href="#mcfe1821d92" y="115.484738"/>
     <use style="fill:#990000;fill-opacity:0.95;stroke:#fb2c07;stroke-opacity:0.95;stroke-width:0.4;" x="472.04856" xlink:href="#mcfe1821d92" y="114.970928"/>
     <use style="fill:#990000;fill-opacity:0.95;stroke:#fb2c07;stroke-opacity:0.95;stroke-width:0.4;" x="472.39308" xlink:href="#mcfe1821d92" y="114.970928"/>
     <use style="fill:#990000;fill-opacity:0.95;stroke:#fb2c07;stroke-opacity:0.95;stroke-width:0.4;" x="472.7376" xlink:href="#mcfe1821d92" y="115.142198"/>
     <use style="fill:#990000;fill-opacity:0.95;stroke:#fb2c07;stroke-opacity:0.95;stroke-width:0.4;" x="473.08212" xlink:href="#mcfe1821d92" y="115.65576"/>
     <use style="fill:#990000;fill-opacity:0.95;stroke:#fb2c07;stroke-opacity:0.95;stroke-width:0.4;" x="473.42664" xlink:href="#mcfe1821d92" y="116.34084"/>
     <use style="fill:#990000;fill-opacity:0.95;stroke:#fb2c07;stroke-opacity:0.95;stroke-width:0.4;" x="473.77116" xlink:href="#mcfe1821d92" y="116.683133"/>
     <use style="fill:#990000;fill-opacity:0.95;stroke:#fb2c07;stroke-opacity:0.95;stroke-width:0.4;" x="474.11568" xlink:href="#mcfe1821d92" y="117.196943"/>
     <use style="fill:#990000;fill-opacity:0.95;stroke:#fb2c07;stroke-opacity:0.95;stroke-width:0.4;" x="474.4602" xlink:href="#mcfe1821d92" y="117.539235"/>
     <use style="fill:#990000;fill-opacity:0.95;stroke:#fb2c07;stroke-opacity:0.95;stroke-width:0.4;" x="474.80472" xlink:href="#mcfe1821d92" y="118.737877"/>
     <use style="fill:#990000;fill-opacity:0.95;stroke:#fb2c07;stroke-opacity:0.95;stroke-width:0.4;" x="475.14924" xlink:href="#mcfe1821d92" y="119.42271"/>
     <use style="fill:#990000;fill-opacity:0.95;stroke:#fb2c07;stroke-opacity:0.95;stroke-width:0.4;" x="475.49376" xlink:href="#mcfe1821d92" y="120.278813"/>
     <use style="fill:#990000;fill-opacity:0.95;stroke:#fb2c07;stroke-opacity:0.95;stroke-width:0.4;" x="475.83828" xlink:href="#mcfe1821d92" y="121.477455"/>
     <use style="fill:#990000;fill-opacity:0.95;stroke:#fb2c07;stroke-opacity:0.95;stroke-width:0.4;" x="476.1828" xlink:href="#mcfe1821d92" y="121.648725"/>
    </g>
   </g>
   <g id="line2d_32">
    <path clip-path="url(#p4399ccea76)" d="M 156.661716 -1 
L 156.884211 60.959662 
L 157.706549 397 
M 158.504915 397 
L 159.157895 223.561693 
L 160.294737 220.371483 
L 163.705263 208.889531 
L 164.842105 205.861084 
L 165.978947 203.701419 
L 167.115789 202.574252 
L 168.252632 202.584808 
L 169.389474 203.788328 
L 170.526316 206.194163 
L 171.663158 209.765569 
L 172.8 214.415085 
L 173.936842 219.995144 
L 176.210526 232.964744 
L 177.347368 239.612381 
L 178.434098 397 
M 178.523346 397 
L 179.621053 193.431756 
L 180.128684 -1 
M 232.058884 -1 
L 233.013762 397 
M 233.209367 397 
L 234.189474 295.689337 
L 236.463158 277.624081 
L 237.6 269.515203 
L 238.736842 262.523463 
L 239.873684 256.886729 
L 241.010526 252.768425 
L 242.147368 250.279213 
L 243.284211 249.491686 
L 244.421053 250.449581 
L 245.557895 253.172768 
L 246.694737 257.658648 
L 247.831579 263.880093 
L 248.968421 271.779449 
L 250.105263 281.257526 
L 251.242105 292.156046 
L 252.378947 304.232442 
L 253.515789 388.616214 
L 254.652632 205.890136 
L 255.171877 -1 
M 307.347343 -1 
L 308.084211 310.106037 
L 309.221053 351.335492 
L 310.357895 335.108484 
L 311.494737 320.732224 
L 312.631579 308.341878 
L 313.768421 298.013842 
L 314.905263 289.791769 
L 316.042105 283.70053 
L 317.178947 279.755197 
L 318.315789 277.96663 
L 319.452632 278.344909 
L 320.589474 280.901445 
L 321.726316 285.650269 
L 322.863158 292.608751 
L 324 301.797881 
L 325.136842 313.242237 
L 326.273684 326.970014 
L 327.410526 343.014816 
L 328.547368 361.411717 
L 329.684211 238.797332 
L 330.24947 -1 
M 382.55053 -1 
L 383.115789 238.797332 
L 384.252632 361.411717 
L 385.389474 343.014816 
L 386.526316 326.970014 
L 387.663158 313.242237 
L 388.8 301.797881 
L 389.936842 292.608751 
L 391.073684 285.650269 
L 392.210526 280.901445 
L 393.347368 278.344909 
L 394.484211 277.96663 
L 395.621053 279.755197 
L 396.757895 283.70053 
L 397.894737 289.791769 
L 399.031579 298.013842 
L 400.168421 308.341878 
L 401.305263 320.732224 
L 402.442105 335.108484 
L 403.578947 351.335492 
L 404.715789 310.106037 
L 405.452657 -1 
M 457.628123 -1 
L 458.147368 205.890136 
L 459.284211 388.616214 
L 460.421053 304.232442 
L 462.694737 281.257526 
L 463.831579 271.779449 
L 464.968421 263.880093 
L 466.105263 257.658648 
L 467.242105 253.172768 
L 468.378947 250.449581 
L 469.515789 249.491686 
L 470.652632 250.279213 
L 471.789474 252.768425 
L 472.926316 256.886729 
L 474.063158 262.523463 
L 475.2 269.515203 
L 477.473684 286.508242 
L 478.610526 295.689337 
L 479.590633 397 
M 479.786238 397 
L 480.741116 -1 
M 532.671316 -1 
L 533.178947 193.431756 
L 534.276654 397 
M 534.365902 397 
L 535.452632 239.612381 
L 538.863158 219.995144 
L 540 214.415085 
L 541.136842 209.765569 
L 542.273684 206.194163 
L 543.410526 203.788328 
L 544.547368 202.584808 
L 545.684211 202.574252 
L 546.821053 203.701419 
L 547.957895 205.861084 
L 549.094737 208.889531 
L 551.368421 216.52267 
L 552.505263 220.371483 
L 553.642105 223.561693 
L 554.295085 397 
M 555.093451 397 
L 556.138284 -1 
L 556.138284 -1 
" style="fill:none;stroke:#004ba8;stroke-linecap:square;"/>
   </g>
   <g id="line2d_33">
    <path clip-path="url(#p4399ccea76)" d="M 156.166156 397 
L 156.884211 278.180146 
L 158.021053 228.037868 
L 159.157895 385.26842 
L 160.294737 180.326786 
L 161.431579 163.948747 
L 162.568421 150.833487 
L 163.705263 140.365576 
L 164.842105 132.301648 
L 165.978947 126.502627 
L 167.115789 122.883877 
L 168.252632 121.395198 
L 169.389474 122.011347 
L 170.526316 124.728167 
L 171.663158 129.562964 
L 172.8 136.55962 
L 173.936842 145.801496 
L 175.073684 157.443442 
L 176.210526 171.83552 
L 177.347368 237.420536 
L 178.484211 375.925276 
L 179.621053 251.028577 
L 180.294779 397 
M 231.70562 397 
L 231.915789 375.94212 
L 233.052632 304.755759 
L 233.921645 397 
M 234.314033 397 
L 235.326316 165.954439 
L 236.463158 151.796044 
L 237.6 140.394933 
L 238.736842 131.150196 
L 239.873684 123.902563 
L 241.010526 118.576398 
L 242.147368 115.130383 
L 243.284211 113.539749 
L 244.421053 113.788189 
L 245.557895 115.864165 
L 246.694737 119.759988 
L 247.831579 125.473785 
L 248.968421 133.016481 
L 250.105263 142.43199 
L 251.242105 153.877789 
L 252.378947 173.31361 
L 253.256567 397 
M 254.083162 397 
L 254.652632 330.68574 
L 255.072697 397 
M 307.755275 397 
L 308.084211 369.456756 
L 308.403967 397 
M 309.474918 397 
L 310.357895 152.201306 
L 311.494737 140.427044 
L 312.631579 130.888206 
L 313.768421 122.947032 
L 314.905263 116.571503 
L 316.042105 111.778133 
L 317.178947 108.588225 
L 318.315789 107.016738 
L 319.452632 107.068581 
L 320.589474 108.737107 
L 321.726316 112.003325 
L 322.863158 116.83573 
L 324 123.192077 
L 325.136842 131.028706 
L 326.273684 140.349195 
L 327.410526 152.405169 
L 328.154583 397 
M 329.569978 397 
L 329.684211 382.576358 
L 329.796977 397 
M 383.003023 397 
L 383.115789 382.576358 
L 383.230022 397 
M 384.645417 397 
L 385.389474 152.405169 
L 386.526316 140.349195 
L 387.663158 131.028706 
L 388.8 123.192077 
L 389.936842 116.83573 
L 391.073684 112.003325 
L 392.210526 108.737107 
L 393.347368 107.068581 
L 394.484211 107.016738 
L 395.621053 108.588225 
L 396.757895 111.778133 
L 397.894737 116.571503 
L 399.031579 122.947032 
L 400.168421 130.888206 
L 401.305263 140.427044 
L 402.442105 152.201306 
L 403.325082 397 
M 404.396033 397 
L 404.715789 369.456756 
L 405.044725 397 
M 457.727303 397 
L 458.147368 330.68574 
L 458.716838 397 
M 459.543433 397 
L 460.421053 173.31361 
L 461.557895 153.877789 
L 462.694737 142.43199 
L 463.831579 133.016481 
L 464.968421 125.473785 
L 466.105263 119.759988 
L 467.242105 115.864165 
L 468.378947 113.788189 
L 469.515789 113.539749 
L 470.652632 115.130383 
L 471.789474 118.576398 
L 472.926316 123.902563 
L 474.063158 131.150196 
L 475.2 140.394933 
L 476.336842 151.796044 
L 477.473684 165.954439 
L 478.485967 397 
M 478.878355 397 
L 479.747368 304.755759 
L 480.884211 375.94212 
L 481.09438 397 
M 532.505221 397 
L 533.178947 251.028577 
L 534.315789 375.925276 
L 535.452632 237.420536 
L 536.589474 171.83552 
L 537.726316 157.443442 
L 538.863158 145.801496 
L 540 136.55962 
L 541.136842 129.562964 
L 542.273684 124.728167 
L 543.410526 122.011347 
L 544.547368 121.395198 
L 545.684211 122.883877 
L 546.821053 126.502627 
L 547.957895 132.301648 
L 549.094737 140.365576 
L 550.231579 150.833487 
L 551.368421 163.948747 
L 552.505263 180.326786 
L 553.642105 385.26842 
L 554.778947 228.037868 
L 555.915789 278.180146 
L 556.633844 397 
L 556.633844 397 
" style="fill:none;stroke:#990000;stroke-linecap:square;"/>
   </g>
   <g id="patch_3">
    <path d="M 129.6 336.6 
L 129.6 39.6 
" style="fill:none;stroke:#8787ff;stroke-linecap:square;stroke-linejoin:miter;stroke-width:0.8;"/>
   </g>
   <g id="patch_4">
    <path d="M 583.2 336.6 
L 583.2 39.6 
" style="fill:none;stroke:#8787ff;stroke-linecap:square;stroke-linejoin:miter;stroke-width:0.8;"/>
   </g>
   <g id="patch_5">
    <path d="M 129.6 336.6 
L 583.2 336.6 
" style="fill:none;stroke:#8787ff;stroke-linecap:square;stroke-linejoin:miter;stroke-width:0.8;"/>
   </g>
   <g id="patch_6">
    <path d="M 129.6 39.6 
L 583.2 39.6 
" style="fill:none;stroke:#8787ff;stroke-linecap:square;stroke-linejoin:miter;stroke-width:0.8;"/>
   </g>
  </g>
 </g>
 <defs>
  <clipPath id="p4399ccea76">
   <rect height="297" width="453.6" x="129.6" y="39.6"/>
  </clipPath>
 </defs>
</svg>
