<?xml version="1.0" encoding="UTF-8" standalone="no"?>
<!-- Created with Inkscape (http://www.inkscape.org/) -->

<svg
   xmlns:dc="http://purl.org/dc/elements/1.1/"
   xmlns:cc="http://creativecommons.org/ns#"
   xmlns:rdf="http://www.w3.org/1999/02/22-rdf-syntax-ns#"
   xmlns:svg="http://www.w3.org/2000/svg"
   xmlns="http://www.w3.org/2000/svg"
   xmlns:sodipodi="http://sodipodi.sourceforge.net/DTD/sodipodi-0.dtd"
   xmlns:inkscape="http://www.inkscape.org/namespaces/inkscape"
   width="199.60736mm"
   height="134.71547mm"
   viewBox="0 0 199.60736 134.71547"
   version="1.1"
   id="svg8"
   sodipodi:docname="cqps-resistance.svg"
   inkscape:version="0.92.2 5c3e80d, 2017-08-06">
  <defs
     id="defs2" />
  <sodipodi:namedview
     id="base"
     pagecolor="#ffffff"
     bordercolor="#666666"
     borderopacity="1.0"
     inkscape:pageopacity="0.0"
     inkscape:pageshadow="2"
     inkscape:zoom="0.98994949"
     inkscape:cx="430.08061"
     inkscape:cy="280.60825"
     inkscape:document-units="mm"
     inkscape:current-layer="layer1"
     showgrid="false"
     inkscape:window-width="1680"
     inkscape:window-height="1005"
     inkscape:window-x="78"
     inkscape:window-y="0"
     inkscape:window-maximized="0"
     fit-margin-top="0"
     fit-margin-left="0"
     fit-margin-right="0"
     fit-margin-bottom="0" />
  <metadata
     id="metadata5">
    <rdf:RDF>
      <cc:Work
         rdf:about="">
        <dc:format>image/svg+xml</dc:format>
        <dc:type
           rdf:resource="http://purl.org/dc/dcmitype/StillImage" />
        <dc:title />
      </cc:Work>
    </rdf:RDF>
  </metadata>
  <g
     inkscape:label="Layer 1"
     inkscape:groupmode="layer"
     id="layer1"
     transform="translate(-3.8809191,-38.070295)">
    <path
       style="opacity:0.916;vector-effect:none;fill:#000000;fill-opacity:0.83809527;stroke:none;stroke-width:1.5;stroke-linecap:round;stroke-linejoin:miter;stroke-miterlimit:4;stroke-dasharray:none;stroke-dashoffset:0;stroke-opacity:1;paint-order:stroke fill markers"
       id="path817"
       d="m 11.856334,86.621725 c 1.884015,-0.239602 3.777821,-0.384916 5.666665,-0.579808 2.135873,-0.239781 4.281836,-0.35795 6.428565,-0.442325 0,0 -1.803815,1.816719 -1.803815,1.816719 v 0 c -2.137114,0.06831 -4.272288,0.193249 -6.397595,0.435001 -1.907943,0.193823 -3.818954,0.353113 -5.716422,0.638916 0,0 1.822602,-1.868503 1.822602,-1.868503 z"
       inkscape:connector-curvature="0" />
    <path
       style="opacity:0.916;vector-effect:none;fill:#000000;fill-opacity:0.83809527;stroke:none;stroke-width:1.5;stroke-linecap:round;stroke-linejoin:miter;stroke-miterlimit:4;stroke-dasharray:none;stroke-dashoffset:0;stroke-opacity:1;paint-order:stroke fill markers"
       id="path827"
       d="m 5.7330588,92.344763 c 1.8123241,0.03677 3.6220836,-0.122942 5.4325612,-0.197631 3.129771,-0.0498 6.255843,-0.168606 9.382992,-0.302011 1.661658,-0.08243 3.322657,-0.107916 4.985849,-0.09837 0,0 -1.760563,1.758659 -1.760563,1.758659 v 0 c -1.659072,-0.0084 -3.316088,0.01701 -4.973482,0.10287 -3.136538,0.133705 -6.272445,0.251449 -9.4107923,0.330896 -1.8362287,0.08952 -3.6696676,0.25124 -5.5087046,0.257723 0,0 1.8521397,-1.852139 1.8521397,-1.852139 z"
       inkscape:connector-curvature="0" />
    <path
       style="opacity:0.916;vector-effect:none;fill:#000000;fill-opacity:0.83809527;stroke:none;stroke-width:1.5;stroke-linecap:round;stroke-linejoin:miter;stroke-miterlimit:4;stroke-dasharray:none;stroke-dashoffset:0;stroke-opacity:1;paint-order:stroke fill markers"
       id="path835"
       d="m 16.705343,86.587808 c 0.172853,-1.742033 0.300027,-3.487761 0.448363,-5.232064 0.232822,-2.892348 0.293011,-5.794542 0.327793,-8.694838 0.01425,-1.39904 0.01207,-2.798133 0.0055,-4.197199 0,0 2.074874,-1.506786 2.074874,-1.506786 v 0 c -0.01274,1.410541 -0.02553,2.821096 -0.04746,4.231528 -0.05012,2.900842 -0.102201,5.803242 -0.304163,8.698381 -0.132454,1.720511 -0.238812,3.442131 -0.385833,5.161381 0,0 -2.119075,1.539597 -2.119074,1.539597 z"
       inkscape:connector-curvature="0" />
    <path
       style="opacity:0.916;vector-effect:none;fill:#000000;fill-opacity:0.83809527;stroke:none;stroke-width:1.5;stroke-linecap:round;stroke-linejoin:miter;stroke-miterlimit:4;stroke-dasharray:none;stroke-dashoffset:0;stroke-opacity:1;paint-order:stroke fill markers"
       id="path837"
       d="m 21.260412,67.34177 c 2.182464,-0.153246 4.366749,-0.29333 6.551804,-0.410652 3.453183,-0.177363 6.908147,-0.221861 10.363769,-0.120456 1.404885,0.0363 2.795818,0.236079 4.185497,0.426272 0,0 -1.811139,1.761226 -1.811139,1.761226 v 0 c -1.372328,-0.19825 -2.74623,-0.404561 -4.135602,-0.436719 -3.453021,-0.104478 -6.905966,-0.05748 -10.355583,0.14301 -2.208797,0.135623 -4.421276,0.274156 -6.62112,0.512159 0,0 1.822374,-1.87484 1.822374,-1.87484 z"
       inkscape:connector-curvature="0" />
    <path
       style="opacity:0.916;vector-effect:none;fill:#000000;fill-opacity:0.83809527;stroke:none;stroke-width:1.5;stroke-linecap:round;stroke-linejoin:miter;stroke-miterlimit:4;stroke-dasharray:none;stroke-dashoffset:0;stroke-opacity:1;paint-order:stroke fill markers"
       id="path839"
       d="m 43.42508,61.760978 c 0.253545,2.050166 0.416539,4.107463 0.532781,6.169644 0.104161,2.133176 0.136568,4.268911 0.17426,6.40403 0.08048,0.598792 0.04788,1.28555 0.33677,1.838182 0.749363,0.447376 1.778307,0.459134 2.623706,0.537089 4.142272,0.192066 8.294859,-0.159198 12.430384,-0.389861 4.728747,-0.254289 9.461651,-0.420865 14.195973,-0.523097 1.61341,-0.03313 3.227083,-0.0495 4.840692,-0.06929 0,0 -1.811057,1.812116 -1.811057,1.812116 v 0 c -1.591638,-0.0105 -3.183321,-0.0087 -4.774925,0.0085 -4.709398,0.06103 -9.418415,0.18632 -14.120757,0.461108 -4.18838,0.247378 -8.389151,0.631743 -12.586517,0.4948 -0.916731,-0.07765 -2.092272,-0.06454 -2.842522,-0.677637 -0.346438,-0.576512 -0.280167,-1.336802 -0.37375,-1.976943 0.0064,-2.142665 -0.01955,-4.285919 -0.12259,-6.426412 -0.113943,-2.037601 -0.268851,-4.071887 -0.595516,-6.088075 0,0 2.093068,-1.574163 2.093068,-1.574163 z"
       inkscape:connector-curvature="0" />
    <path
       style="opacity:0.916;vector-effect:none;fill:#000000;fill-opacity:0.83809527;stroke:none;stroke-width:1.5;stroke-linecap:round;stroke-linejoin:miter;stroke-miterlimit:4;stroke-dasharray:none;stroke-dashoffset:0;stroke-opacity:1;paint-order:stroke fill markers"
       id="path841"
       d="m 47.732066,59.840373 c 3.658737,0.130257 7.315091,-0.04446 10.970037,-0.195141 4.683519,-0.203645 9.368473,-0.37446 14.055331,-0.477131 2.367076,-0.04225 4.734483,-0.05776 7.101853,-0.07206 0.866116,-0.05954 1.764493,0.120055 2.6035,-0.145224 0.431334,-0.152056 0.330438,-0.436404 0.643414,-0.01931 0.06078,1.254514 0.134694,2.514457 0.18171,3.771858 0.02204,2.936483 0.192715,5.864582 0.447342,8.789051 0.142536,1.915128 0.418534,3.817249 0.704659,5.715291 0.01921,0.106603 0.03841,0.213204 0.05761,0.319804 0,0 -2.090107,1.568871 -2.090107,1.568871 v 0 c -0.01511,-0.111895 -0.03022,-0.223793 -0.04533,-0.335688 -0.234138,-1.924227 -0.506016,-3.845634 -0.63835,-5.780405 -0.246081,-2.921309 -0.428818,-5.845442 -0.480632,-8.777467 -0.06207,-1.218118 -0.190862,-2.437947 -0.221199,-3.653411 0.04527,0.03378 0.104312,0.05444 0.13581,0.101327 0.01037,0.01543 -0.485269,0.240684 -0.501684,0.199255 -0.859118,0.169233 -1.743437,0.02445 -2.61231,0.06158 -2.345201,-0.01476 -4.690563,-0.0172 -7.035676,0.01206 -4.659413,0.06109 -9.318016,0.18225 -13.972828,0.403317 -3.715957,0.176146 -7.430926,0.362921 -11.152166,0.36244 0,0 1.849014,-1.849015 1.849014,-1.849015 z"
       inkscape:connector-curvature="0" />
    <path
       style="opacity:0.916;vector-effect:none;fill:#000000;fill-opacity:0.83809527;stroke:none;stroke-width:1.5;stroke-linecap:round;stroke-linejoin:miter;stroke-miterlimit:4;stroke-dasharray:none;stroke-dashoffset:0;stroke-opacity:1;paint-order:stroke fill markers"
       id="path843"
       d="m 51.704771,41.460568 c -0.04396,2.337234 -0.0409,4.675068 -0.04043,7.012622 0.03457,1.997649 -0.100094,3.992801 -0.235529,5.9846 -0.01805,0.269489 -0.03957,0.538715 -0.05824,0.808154 0,0 -2.150581,1.518586 -2.150581,1.518586 v 0 c 0.05488,-0.270981 0.06835,-0.54706 0.100989,-0.821346 0.189429,-1.998588 0.344242,-4.005331 0.312293,-6.014336 5.29e-4,-2.31797 0.0039,-4.636235 -0.04043,-6.953874 0,0 2.111925,-1.534406 2.111925,-1.534406 z"
       inkscape:connector-curvature="0" />
    <path
       style="opacity:0.916;vector-effect:none;fill:#000000;fill-opacity:0.83809527;stroke:none;stroke-width:1.5;stroke-linecap:round;stroke-linejoin:miter;stroke-miterlimit:4;stroke-dasharray:none;stroke-dashoffset:0;stroke-opacity:1;paint-order:stroke fill markers"
       id="path845"
       d="m 57.376202,42.170011 c -0.131667,1.806995 -0.379867,3.602066 -0.554201,5.405104 -0.11779,0.932487 -0.258287,1.864794 -0.474819,2.780154 -0.726152,0.426604 -1.390965,0.981239 -2.178455,1.279811 -0.138734,0.0526 -0.02024,-0.296116 -0.02495,-0.444413 -0.0065,-0.204195 -0.01333,-0.408588 -0.0086,-0.612828 0.02215,-0.950494 0.121361,-1.898173 0.219159,-2.842871 0.173329,-1.974321 0.448218,-3.936206 0.703728,-5.900883 0.03959,-1.147482 1.336342,-4.167928 2.851341,-2.609424 0.779076,0.894601 1.482466,1.820101 2.472425,2.492907 1.169898,0.687485 1.851528,0.591794 2.883432,-0.248788 -2.152867,1.65449 -1.775457,1.579698 -1.148382,0.668986 0.372237,-0.540607 0.651481,-1.121966 0.878092,-1.735172 0.383891,-1.241922 -0.01609,-0.819899 2.323375,-1.935361 0.10379,-0.04949 0.0081,0.229862 0.0087,0.344848 7.94e-4,0.178173 -0.003,0.356338 -0.0045,0.534508 -0.02652,1.983436 -0.03369,3.967075 -0.03553,5.950667 -0.06041,1.510363 0.04904,3.009493 0.238879,4.505796 0.04166,0.318553 0.08741,0.63655 0.137718,0.953847 0,0 -2.10853,1.576988 -2.10853,1.576988 v 0 c -0.03935,-0.325856 -0.07697,-0.651918 -0.113824,-0.978067 -0.170164,-1.518002 -0.27708,-3.037271 -0.208598,-4.566523 0.0049,-1.972323 0.0098,-3.94476 -0.0084,-5.917022 -0.0028,-0.172961 -0.0053,-0.34593 -0.0083,-0.518885 -0.0019,-0.102585 -0.08248,-0.238938 -0.0064,-0.307735 2.866419,-2.590744 2.282063,-2.267892 1.947733,-1.103003 -0.685313,1.967148 -1.83981,3.179856 -3.601046,4.468255 -1.150823,0.774951 -1.927243,0.746371 -3.109367,0.0205 -0.988264,-0.69564 -1.712082,-1.622962 -2.52359,-2.505623 -0.813126,-0.725604 -0.205637,-0.07317 1.711309,-1.80154 0.04582,-0.04131 -0.128299,0.02998 -0.168307,0.07693 -0.244592,0.287018 -0.218265,0.816914 -0.301824,1.14653 -0.290216,1.966399 -0.580141,3.932753 -0.740124,5.915136 -0.09228,0.926489 -0.186396,1.857944 -0.199631,2.790087 -0.0028,0.198572 0.0093,0.397094 0.01717,0.595532 0.0054,0.137308 0.117348,0.312105 0.0226,0.411628 -0.630896,0.662633 -1.399164,1.179311 -2.098746,1.76897 0.411379,-0.839261 0.341897,-1.887366 0.574852,-2.772881 0.180785,-1.782464 0.427797,-3.559093 0.520105,-5.349156 0,0 2.1155,-1.536999 2.1155,-1.536999 z"
       inkscape:connector-curvature="0" />
    <path
       style="opacity:0.916;vector-effect:none;fill:#000000;fill-opacity:0.83809527;stroke:none;stroke-width:1.5;stroke-linecap:round;stroke-linejoin:miter;stroke-miterlimit:4;stroke-dasharray:none;stroke-dashoffset:0;stroke-opacity:1;paint-order:stroke fill markers"
       id="path847"
       d="m 70.410638,50.390967 c 0.947478,0.01376 1.895112,0.0098 2.842609,1.27e-4 1.335752,0.0069 1.06743,-0.361455 -1.386001,1.580713 -0.331332,-0.879372 -0.594789,-1.769136 -0.81121,-2.686254 -0.377531,-1.696931 -0.588984,-3.427224 -0.464315,-5.16319 0.377275,-2.66233 2.115979,-3.489423 4.176927,-5.107421 1.647106,-0.610455 2.384568,0.07221 3.086976,1.513864 0.588055,1.942375 0.06927,3.933034 -0.400754,5.841134 -0.281379,1.099622 -0.558128,2.201709 -0.736706,3.323376 -2.48e-4,0.146082 -0.04085,0.26157 0.09192,0.364823 0.410581,0.31931 1.228098,0.27068 1.702194,0.305793 0.798621,0.04354 1.598536,0.04759 2.398049,0.05523 0,0 -1.814544,1.81103 -1.814544,1.81103 v 0 c -0.808355,-0.0079 -1.617054,-0.01241 -2.424642,-0.05297 -0.72244,-0.05675 -2.008957,-0.01807 -2.095548,-0.980512 0.197234,-1.140507 0.480214,-2.26256 0.780791,-3.379864 0.476224,-1.849829 1.012714,-3.784314 0.4869,-5.683006 -0.651386,-1.364528 -1.308296,-1.870165 -2.79418,-1.194541 0.466561,-0.424987 0.942578,-0.839814 1.39968,-1.274956 0.160634,-0.152918 -0.350581,0.273161 -0.509662,0.427694 -0.711366,0.691015 -1.127633,1.558668 -1.257816,2.539103 -0.168947,1.711103 0.04155,3.419361 0.419042,5.093517 0.227632,0.914041 0.477263,1.805549 0.86941,2.663214 -1.939477,1.84069 -1.163129,1.88541 -2.565273,1.851986 -0.947581,-0.0098 -1.895297,-0.01342 -2.842863,1.27e-4 0,0 1.849017,-1.849017 1.849017,-1.849017 z"
       inkscape:connector-curvature="0" />
    <path
       style="opacity:0.916;vector-effect:none;fill:#000000;fill-opacity:0.83809527;stroke:none;stroke-width:1.5;stroke-linecap:round;stroke-linejoin:miter;stroke-miterlimit:4;stroke-dasharray:none;stroke-dashoffset:0;stroke-opacity:1;paint-order:stroke fill markers"
       id="path849"
       d="m 18.856628,92.755026 c 0.248949,3.416273 0.188299,6.852266 0.200971,10.276074 0.04857,6.67581 0.0217,13.3506 -0.186151,20.02353 -0.105867,4.47959 -0.364929,8.95151 -0.634887,13.42333 -0.02031,0.35572 -0.04062,0.71144 -0.06093,1.06717 0,0 -2.065235,1.47947 -2.065235,1.47947 v 0 c 0.02772,-0.36131 0.05545,-0.72263 0.08317,-1.08394 0.355525,-4.50332 0.679664,-9.0085 0.792961,-13.52597 0.22944,-6.66141 0.263132,-13.32533 0.156539,-19.98992 -0.0492,-3.36429 -0.02918,-6.746256 -0.379506,-10.095582 0,0 2.093069,-1.574162 2.093069,-1.574162 z"
       inkscape:connector-curvature="0" />
    <path
       style="opacity:0.916;vector-effect:none;fill:#000000;fill-opacity:0.83809527;stroke:none;stroke-width:1.5;stroke-linecap:round;stroke-linejoin:miter;stroke-miterlimit:4;stroke-dasharray:none;stroke-dashoffset:0;stroke-opacity:1;paint-order:stroke fill markers"
       id="path851"
       d="m 25.31456,96.140846 c 0.527419,1.853311 0.917351,3.748545 1.265973,5.643494 0.314656,1.46917 0.543553,2.95542 0.841622,4.42762 0.247676,0.8512 0.248983,0.68942 -1.998118,1.28718 -0.21147,0.0563 0.08752,-0.42881 0.132837,-0.64289 0.230063,-1.08685 0.475818,-2.16448 0.749299,-3.2414 0.660816,-2.33345 1.174484,-4.740607 2.306429,-6.902798 0.08747,-0.116139 0.174943,-0.232278 0.262414,-0.348417 0,0 2.209464,-1.375629 2.209464,-1.375629 v 0 c -0.105275,0.106116 -0.210548,0.212233 -0.31582,0.318352 -1.234892,2.115169 -1.736442,4.541086 -2.388965,6.878902 -0.393306,1.56967 -0.237731,0.8679 -0.534464,2.34149 -0.05716,0.28389 -0.115567,0.56753 -0.170243,0.8519 -0.04016,0.2089 0.02762,0.46937 -0.114263,0.62785 -2.134811,2.38463 -1.971599,2.86902 -2.22503,1.77856 -0.23414,-1.49617 -0.468266,-2.99231 -0.776831,-4.4756 -0.336358,-1.87283 -0.72227,-3.752365 -1.311622,-5.562522 0,0 2.067318,-1.606092 2.067318,-1.606092 z"
       inkscape:connector-curvature="0" />
    <path
       style="opacity:0.916;vector-effect:none;fill:#000000;fill-opacity:0.83809527;stroke:none;stroke-width:1.5;stroke-linecap:round;stroke-linejoin:miter;stroke-miterlimit:4;stroke-dasharray:none;stroke-dashoffset:0;stroke-opacity:1;paint-order:stroke fill markers"
       id="path853"
       d="m 34.132094,103.54472 c 0.827434,0.48825 1.589682,1.07342 2.385652,1.60915 0.232244,0.15197 0.464392,0.3047 0.705189,0.44294 0,0 -1.966939,1.76004 -1.966939,1.76004 v 0 c -0.232315,-0.1546 -0.462135,-0.3129 -0.69092,-0.47266 -0.783677,-0.55185 -1.545682,-1.13841 -2.386764,-1.60293 0,0 1.953782,-1.73654 1.953782,-1.73654 z"
       inkscape:connector-curvature="0" />
    <path
       style="opacity:0.916;vector-effect:none;fill:#000000;fill-opacity:0.83809527;stroke:none;stroke-width:1.5;stroke-linecap:round;stroke-linejoin:miter;stroke-miterlimit:4;stroke-dasharray:none;stroke-dashoffset:0;stroke-opacity:1;paint-order:stroke fill markers"
       id="path855"
       d="m 39.510705,103.02846 c -0.777327,1.81721 -1.511618,3.65462 -2.227183,5.49735 -0.348073,1.07582 -0.968322,2.08327 -1.21408,3.19343 0,0 -2.161943,1.50267 -2.161943,1.50267 v 0 c 0.235019,-1.14721 0.906241,-2.17609 1.268352,-3.28132 0.713462,-1.82589 1.459341,-3.63908 2.149311,-5.47412 0,0 2.185543,-1.43801 2.185543,-1.43801 z"
       inkscape:connector-curvature="0" />
    <path
       style="opacity:0.916;vector-effect:none;fill:#000000;fill-opacity:0.83809527;stroke:none;stroke-width:1.5;stroke-linecap:round;stroke-linejoin:miter;stroke-miterlimit:4;stroke-dasharray:none;stroke-dashoffset:0;stroke-opacity:1;paint-order:stroke fill markers"
       id="path857"
       d="m 86.997938,67.398333 c 1.703732,0.06246 3.404016,-0.107823 5.103252,-0.209566 1.019254,-0.06364 2.039075,-0.118269 3.059057,-0.168891 0.294399,-0.02037 0.273169,-0.06213 0.440521,0.204131 -0.08684,1.58913 -0.08337,3.18452 -0.102749,4.77583 -0.02077,4.61896 0.06862,9.243062 0.302977,13.856525 0.160676,2.511197 0.321175,5.022157 0.441148,7.535669 0.03026,0.502997 0.0378,1.007457 0.07234,1.510149 0,0 -2.121768,1.577959 -2.121768,1.577959 v 0 c -0.0035,-0.523512 -0.007,-1.048046 -0.02141,-1.571662 -0.06951,-2.536176 -0.216966,-5.068871 -0.346437,-7.602497 -0.188834,-4.614654 -0.259136,-9.235636 -0.327123,-13.853263 -0.01516,-1.565648 -0.03595,-3.131265 -0.04877,-4.696921 0.257841,0.218311 0.05827,0.09601 -0.138539,0.127209 -1.00189,0.0217 -2.003099,0.06681 -3.003685,0.121682 -1.719344,0.101883 -3.437337,0.252463 -5.160952,0.245787 0,0 1.852139,-1.852141 1.852138,-1.852141 z"
       inkscape:connector-curvature="0" />
    <path
       style="opacity:0.916;vector-effect:none;fill:#000000;fill-opacity:0.83809527;stroke:none;stroke-width:1.5;stroke-linecap:round;stroke-linejoin:miter;stroke-miterlimit:4;stroke-dasharray:none;stroke-dashoffset:0;stroke-opacity:1;paint-order:stroke fill markers"
       id="path865"
       d="m 87.041589,94.614181 c 2.710085,0.04417 5.420553,0.07639 8.130135,0.0019 2.529835,-0.100798 5.059386,-0.209573 7.588546,-0.326096 0.17771,-0.0084 0.35542,-0.01677 0.53313,-0.02516 0,0 -1.82821,1.840812 -1.82821,1.840812 v 0 c -0.1729,0.0037 -0.34579,0.0073 -0.51868,0.01101 -2.507671,0.06168 -5.013886,0.164714 -7.520657,0.254384 -2.744039,0.06687 -5.488898,0.03957 -8.23328,0.09224 0,0 1.849016,-1.849017 1.849016,-1.849017 z"
       inkscape:connector-curvature="0" />
    <path
       style="opacity:0.916;vector-effect:none;fill:#000000;fill-opacity:0.83809527;stroke:none;stroke-width:1.5;stroke-linecap:round;stroke-linejoin:miter;stroke-miterlimit:4;stroke-dasharray:none;stroke-dashoffset:0;stroke-opacity:1;paint-order:stroke fill markers"
       id="path867"
       d="m 86.858344,98.866438 c 0.208508,3.931432 0.374222,7.864582 0.487024,11.800412 0.109003,4.31902 0.177128,8.63905 0.220009,12.95921 0.01791,1.73463 0.02511,3.46937 0.04715,5.20396 -0.122052,0.075 0.120584,0.60253 0.0123,0.6938 -0.02373,0.02 0.0042,-0.0712 0.03027,-0.088 1.121386,-0.22621 2.232821,-0.57275 3.345928,-0.85487 2.920834,-0.67465 5.897295,-1.00103 8.880211,-1.23851 1.130454,-0.0795 2.262414,-0.13523 3.394654,-0.18193 0.51611,-0.0213 1.02458,-0.008 1.53116,-0.10875 0,0 -1.82023,1.87386 -1.82023,1.87386 v 0 c -1.61157,0.15326 -3.249938,0.001 -4.861246,0.20019 -2.984219,0.23066 -5.960832,0.57497 -8.872513,1.29472 -1.142061,0.30663 -2.309458,0.77079 -3.489068,0.85052 -0.407853,-0.17625 -0.255593,-0.52211 -0.257922,-0.91121 0.02874,-1.75578 0.03679,-3.51186 0.04344,-5.26784 0.0064,-4.34004 -0.0057,-8.68053 -0.12692,-13.01922 -0.124479,-3.89502 -0.267431,-7.79197 -0.679747,-11.66931 0,0 2.1155,-1.537002 2.1155,-1.537002 z"
       inkscape:connector-curvature="0" />
    <path
       style="opacity:0.916;vector-effect:none;fill:#000000;fill-opacity:0.83809527;stroke:none;stroke-width:1.5;stroke-linecap:round;stroke-linejoin:miter;stroke-miterlimit:4;stroke-dasharray:none;stroke-dashoffset:0;stroke-opacity:1;paint-order:stroke fill markers"
       id="path869"
       d="m 103.1454,94.315887 c 0.45277,4.041635 0.84647,8.088833 1.22071,12.138383 0.4255,4.88438 0.79111,9.77401 1.27383,14.65318 0.29141,1.58473 0.0952,3.32788 0.68456,4.85676 0,0 -2.06802,1.61383 -2.06802,1.61383 v 0 c -0.53347,-1.59557 -0.35804,-3.35712 -0.60374,-4.99886 -0.4143,-4.90429 -0.73656,-9.81573 -1.18593,-14.71727 -0.39159,-4.00172 -0.7783,-8.007386 -1.41464,-11.979348 0,0 2.09323,-1.566675 2.09323,-1.566675 z"
       inkscape:connector-curvature="0" />
    <path
       style="opacity:0.916;vector-effect:none;fill:#000000;fill-opacity:0.83809527;stroke:none;stroke-width:1.5;stroke-linecap:round;stroke-linejoin:miter;stroke-miterlimit:4;stroke-dasharray:none;stroke-dashoffset:0;stroke-opacity:1;paint-order:stroke fill markers"
       id="path875"
       d="m 63.80001,111.00819 c -0.04065,2.13587 -0.03621,4.2723 -0.03183,6.40846 0.0058,1.08979 0.09987,2.16605 0.342821,3.22753 0,0 -2.063303,1.5686 -2.063303,1.5686 v 0 c -0.231801,-1.09073 -0.320786,-2.19201 -0.327779,-3.30798 0.0043,-2.12074 0.0092,-4.24177 -0.03183,-6.36221 0,0 2.111925,-1.5344 2.111925,-1.5344 z"
       inkscape:connector-curvature="0" />
    <path
       style="opacity:0.916;vector-effect:none;fill:#000000;fill-opacity:0.83809527;stroke:none;stroke-width:1.5;stroke-linecap:round;stroke-linejoin:miter;stroke-miterlimit:4;stroke-dasharray:none;stroke-dashoffset:0;stroke-opacity:1;paint-order:stroke fill markers"
       id="path877"
       d="m 69.30228,109.06681 c -1.091221,1.19886 -1.649336,2.71714 -2.123615,4.23831 -0.477054,1.77921 -0.67972,3.43388 0.169307,5.12187 0.430998,0.56617 1.005988,0.92762 1.691651,0.51769 0.174635,-0.10441 0.641699,-0.49955 0.472979,-0.38584 -0.493156,0.33239 -0.965118,0.69519 -1.447678,1.04278 1.099558,-1.70145 1.530236,-3.63159 1.454417,-5.63328 -0.169891,-1.1589 -0.398465,-2.02096 -1.615522,-2.37413 0,0 1.897806,-1.77362 1.897806,-1.77362 v 0 c 1.270691,0.51614 1.589654,1.32436 1.778934,2.63653 0.10077,2.08047 -0.298831,3.95674 -1.338614,5.78033 -0.813832,0.75265 -1.604039,1.53168 -2.441493,2.25797 -0.879171,0.76246 -1.845694,0.39307 -2.46706,-0.45657 -0.888489,-1.77681 -0.736176,-3.41178 -0.257614,-5.29822 0.448657,-1.53336 0.9833,-3.04549 1.997197,-4.3077 0,0 2.229305,-1.36612 2.229305,-1.36612 z"
       inkscape:connector-curvature="0" />
    <path
       style="opacity:0.916;vector-effect:none;fill:#000000;fill-opacity:0.83809527;stroke:none;stroke-width:1.5;stroke-linecap:round;stroke-linejoin:miter;stroke-miterlimit:4;stroke-dasharray:none;stroke-dashoffset:0;stroke-opacity:1;paint-order:stroke fill markers"
       id="path879"
       d="m 73.220195,110.93287 c -0.313563,1.57497 -0.145565,3.14867 0.206952,4.69795 0.266899,0.71645 0.83072,2.27438 1.802887,2.31716 0.125423,0.006 0.24438,-0.0576 0.36657,-0.0865 1.131951,-0.99541 -0.717929,0.64763 -1.205503,0.85793 -0.229896,0.0992 0.261834,-0.42809 0.36739,-0.65512 0.373541,-0.80343 0.523417,-1.66036 0.678354,-2.52425 0.18392,-1.54571 -0.0636,-2.89886 -1.192199,-4.00895 -0.140308,-0.0941 -0.280614,-0.18812 -0.420923,-0.28218 0,0 1.942285,-1.71968 1.942285,-1.71968 v 0 c 0.149093,0.10698 0.298186,0.21396 0.447278,0.32094 1.189247,1.21373 1.473298,2.54877 1.316734,4.22269 -0.42571,2.60522 -0.973728,4.33692 -3.756753,5.65022 -0.149537,-5.3e-4 -0.302368,0.0297 -0.448614,-0.002 -1.108967,-0.23664 -1.572464,-1.64693 -1.93244,-2.54067 -0.364643,-1.56189 -0.561708,-3.14432 -0.315931,-4.74386 0,0 2.143913,-1.50418 2.143913,-1.50418 z"
       inkscape:connector-curvature="0" />
    <path
       style="opacity:0.916;vector-effect:none;fill:#000000;fill-opacity:0.83809527;stroke:none;stroke-width:1.5;stroke-linecap:round;stroke-linejoin:miter;stroke-miterlimit:4;stroke-dasharray:none;stroke-dashoffset:0;stroke-opacity:1;paint-order:stroke fill markers"
       id="path881"
       d="m 77.631257,120.1511 c 0.369515,-1.12883 0.321339,-2.30724 0.135462,-3.46326 -0.203841,-1.15652 -0.617318,-2.262 -0.737622,-3.4334 0.04781,-2.03576 1.759218,-3.35477 3.505399,-4.23831 1.40554,-0.57606 1.907093,0.34466 2.183648,1.5792 0.107884,1.63668 -0.321352,3.24157 -0.706982,4.81771 -0.08068,0.52488 -0.602613,1.44539 0.04127,1.77897 0.355222,0.0716 0.713489,0.10977 1.070824,0.17255 0,0 -1.869561,1.8099 -1.869561,1.8099 v 0 c -0.38844,-0.0588 -0.787112,-0.0873 -1.155452,-0.23405 -0.794826,-0.55138 -0.409413,-1.26993 -0.21029,-2.063 0.395695,-1.54463 0.836829,-3.11257 0.773263,-4.72203 -0.226065,-1.17985 -0.61346,-1.82236 -1.866318,-1.2129 -0.786503,0.48309 -1.465866,0.93273 1.109866,-1.07271 0.136023,-0.1059 -0.234307,0.25446 -0.332263,0.39631 -0.227526,0.32949 -0.320747,0.55772 -0.398471,0.94767 -0.03262,0.16365 -0.03798,0.33157 -0.05697,0.49736 0.07135,1.1735 0.51,2.27088 0.715536,3.42233 0.20728,1.17338 0.282599,2.37964 -0.04492,3.54082 0,0 -2.156428,1.47684 -2.156428,1.47684 z"
       inkscape:connector-curvature="0" />
    <path
       style="opacity:0.916;vector-effect:none;fill:#000000;fill-opacity:0.83809527;stroke:none;stroke-width:1.5;stroke-linecap:round;stroke-linejoin:miter;stroke-miterlimit:4;stroke-dasharray:none;stroke-dashoffset:0;stroke-opacity:1;paint-order:stroke fill markers"
       id="path883"
       d="m 16.934538,136.61754 c -0.03573,1.95497 -0.0344,3.91047 -0.04004,5.86571 0.004,2.67068 -0.170111,5.33765 -0.266604,8.00596 -0.01,0.33939 -0.01999,0.67878 -0.02998,1.01818 0,0 -2.064783,1.48922 -2.064783,1.48922 v 0 c 0.01372,-0.34257 0.02743,-0.68513 0.04115,-1.0277 0.11388,-2.66701 0.298006,-5.33393 0.281218,-8.00424 -0.0056,-1.93584 -0.004,-3.87196 -0.04004,-5.80753 0,0 2.119076,-1.5396 2.119076,-1.5396 z"
       inkscape:connector-curvature="0" />
    <path
       style="opacity:0.916;vector-effect:none;fill:#000000;fill-opacity:0.83809527;stroke:none;stroke-width:1.5;stroke-linecap:round;stroke-linejoin:miter;stroke-miterlimit:4;stroke-dasharray:none;stroke-dashoffset:0;stroke-opacity:1;paint-order:stroke fill markers"
       id="path889"
       d="m 18.576381,159.39199 c 3.393287,0.2148 6.787716,0.44364 10.183768,0.63943 8.081584,0.47254 16.176611,0.51937 24.269035,0.50184 12.660141,-0.2091 25.320741,-0.35095 37.982385,-0.423 16.420551,-0.0808 32.841351,-0.0135 49.261821,-0.10019 15.44672,-0.11412 30.89001,-0.44646 46.33767,-0.42964 0,0 -1.44347,1.44174 -1.44347,1.44174 v 0 c -15.39087,-0.16875 -30.77785,0.14954 -46.16806,0.26318 -16.45174,0.097 -32.90407,0.0538 -49.355645,0.19461 -12.714264,0.115 -25.427054,0.30806 -38.138984,0.57908 -8.144859,0.0624 -16.291872,0.0517 -24.429174,-0.36075 -3.449156,-0.16312 -6.900865,-0.38076 -10.351485,-0.45416 0,0 1.852139,-1.85214 1.852139,-1.85214 z"
       inkscape:connector-curvature="0" />
    <path
       style="opacity:0.916;vector-effect:none;fill:#000000;fill-opacity:0.83809527;stroke:none;stroke-width:1.5;stroke-linecap:round;stroke-linejoin:miter;stroke-miterlimit:4;stroke-dasharray:none;stroke-dashoffset:0;stroke-opacity:1;paint-order:stroke fill markers"
       id="path901"
       d="m 98.231324,128.3821 c 0.190439,2.40926 0.214929,4.82801 0.251187,7.24335 0.03439,3.04976 0.04218,6.09972 0.05572,9.14962 0.01156,1.97078 0.01508,3.94158 0.01625,5.91239 0.009,1.75163 -0.168228,3.49758 -0.267499,5.24532 -0.05525,1.04731 -0.08322,2.09587 -0.08812,3.14458 5.3e-4,0.55852 -0.0024,1.11702 -0.0043,1.67554 0.0051,0.91168 -0.154172,1.81471 -0.263218,2.71771 -0.03289,0.279 -0.0641,0.55822 -0.09124,0.83784 0.0029,0.0104 -0.0054,0.0246 -0.0058,0.0266 0,0 -2.149941,1.54168 -2.149941,1.54168 v 0 c 2.65e-4,-0.012 -0.007,-0.0272 7.94e-4,-0.0395 0.03745,-0.28655 0.07772,-0.57273 0.115279,-0.85926 0.11906,-0.89254 0.287589,-1.78787 0.281657,-2.6899 -0.0033,-0.55906 -0.01111,-1.11813 1.48e-4,-1.67717 0.02289,-1.06084 0.05705,-2.12151 0.118705,-3.1809 0.103169,-1.74507 0.28838,-3.48854 0.281943,-5.23757 0.0027,-1.97938 0.0093,-3.95873 0.01961,-5.93808 0.0092,-3.05342 0.01045,-6.10707 -0.03435,-9.16024 -0.04341,-2.38525 -0.06997,-4.77791 -0.32929,-7.1516 0,0 2.092463,-1.56039 2.092463,-1.56039 z"
       inkscape:connector-curvature="0" />
    <path
       style="opacity:0.916;vector-effect:none;fill:#000000;fill-opacity:0.83809527;stroke:none;stroke-width:1.5;stroke-linecap:round;stroke-linejoin:miter;stroke-miterlimit:4;stroke-dasharray:none;stroke-dashoffset:0;stroke-opacity:1;paint-order:stroke fill markers"
       id="path903"
       d="m 91.155678,162.27036 c 2.151615,0.0353 4.303678,0.036 6.455531,0.0425 3.146171,0.0395 6.294181,-0.0546 9.439221,0.0439 1.23992,0.0184 2.41531,0.29799 3.56269,0.74091 0,0 -1.89442,1.75809 -1.89442,1.75809 v 0 c -1.10773,-0.43982 -2.2495,-0.70335 -3.44948,-0.72942 -3.14013,-0.10724 -6.283617,-0.0294 -9.425065,-0.0465 -2.180217,0.007 -4.36063,0.008 -6.540619,0.0426 0,0 1.852142,-1.85214 1.852142,-1.85214 z"
       inkscape:connector-curvature="0" />
    <path
       style="opacity:0.916;vector-effect:none;fill:#000000;fill-opacity:0.83809527;stroke:none;stroke-width:1.5;stroke-linecap:round;stroke-linejoin:miter;stroke-miterlimit:4;stroke-dasharray:none;stroke-dashoffset:0;stroke-opacity:1;paint-order:stroke fill markers"
       id="path905"
       d="m 96.900975,166.3747 c 1.627703,-0.12112 3.229265,-0.45387 4.836775,-0.72269 0.93047,-0.1519 1.86526,-0.27442 2.80446,-0.35644 0,0 -1.84108,1.87064 -1.84108,1.87064 v 0 c -0.92031,0.0662 -1.83578,0.1843 -2.746922,0.32905 -1.622401,0.26776 -3.238616,0.58011 -4.875834,0.74795 0,0 1.822601,-1.86851 1.822601,-1.86851 z"
       inkscape:connector-curvature="0" />
    <path
       style="opacity:0.916;vector-effect:none;fill:#000000;fill-opacity:0.83809527;stroke:none;stroke-width:1.5;stroke-linecap:round;stroke-linejoin:miter;stroke-miterlimit:4;stroke-dasharray:none;stroke-dashoffset:0;stroke-opacity:1;paint-order:stroke fill markers"
       id="path907"
       d="m 100.21156,170.90356 c 1.17618,-0.15713 2.35162,-0.23525 3.53542,-0.15187 0.5882,0.0475 1.1736,0.12214 1.76113,0.17622 0,0 -1.87396,1.83574 -1.87396,1.83574 v 0 c -0.57713,-0.0663 -1.15264,-0.14788 -1.7322,-0.19124 -1.17626,-0.0734 -2.349136,0.0175 -3.511437,0.21336 0,0 1.821047,-1.88221 1.821047,-1.88221 z"
       inkscape:connector-curvature="0" />
    <path
       style="opacity:0.916;vector-effect:none;fill:#000000;fill-opacity:0.83809527;stroke:none;stroke-width:1.5;stroke-linecap:round;stroke-linejoin:miter;stroke-miterlimit:4;stroke-dasharray:none;stroke-dashoffset:0;stroke-opacity:1;paint-order:stroke fill markers"
       id="path909"
       d="m 98.046549,65.889554 c 2.720071,0.02693 5.439371,-0.112656 8.159281,-0.167079 5.45543,-0.105894 10.91236,-0.06336 16.36762,-0.16679 5.17441,-0.136364 10.34944,-0.241139 15.52502,-0.319342 3.04773,-0.01323 6.09013,-0.217474 9.13381,-0.355933 1.14805,-0.0516 2.2964,-0.09572 3.44507,-0.130842 0.32448,-0.01611 0.31735,-0.0669 0.4914,0.224817 -0.20244,1.008991 0.007,0.08944 -2.13822,1.852874 0,0 1.76429,-1.954562 1.76429,-1.954562 v 0 c -1.90935,1.629667 -2.70633,1.727605 -1.80191,1.59879 0.29607,0.250148 0.052,0.102732 -0.16702,0.135826 -1.1263,0.0032 -2.25229,0.03557 -3.37793,0.07211 -3.02163,0.110575 -6.04193,0.300638 -9.06687,0.27831 -5.16041,0.04227 -10.31988,0.141219 -15.47871,0.275222 -5.47039,0.09883 -10.94274,0.05709 -16.41232,0.214207 -2.76371,0.08786 -5.524682,0.250862 -8.289403,0.288277 0,0 1.845892,-1.84589 1.845892,-1.84589 z"
       inkscape:connector-curvature="0" />
    <path
       style="opacity:0.916;vector-effect:none;fill:#000000;fill-opacity:0.83809527;stroke:none;stroke-width:1.5;stroke-linecap:round;stroke-linejoin:miter;stroke-miterlimit:4;stroke-dasharray:none;stroke-dashoffset:0;stroke-opacity:1;paint-order:stroke fill markers"
       id="path911"
       d="m 152.37227,65.07023 c 1.65824,-0.205698 3.31645,-0.415531 4.97222,-0.644308 1.3389,-0.178975 2.68396,-0.306123 4.03052,-0.410366 0.20372,0.0038 0.41414,-0.05425 0.61723,-0.02813 0.0459,0.08354 0.1141,0.15826 0.13771,0.250605 0.0181,0.07074 -0.22935,1.92513 -0.24215,2.052019 -0.12652,1.444434 -0.16784,2.894446 -0.18524,4.343741 -0.005,0.463349 -0.008,0.926862 0.002,1.390168 0.0407,0.198702 -0.26324,0.0074 5.3e-4,-0.242512 0.82212,-0.299894 1.67947,-0.407341 2.54839,-0.485092 1.29448,-0.03179 2.21827,0.234754 2.9551,1.332892 0.44319,1.050922 0.0899,2.050454 -0.43631,2.988331 -0.87505,1.126506 -1.96081,2.256414 -3.34014,2.700393 -1.31219,0.295161 0.92458,-1.149914 1.66647,-1.844517 0.59825,-0.04581 1.10394,0.02215 1.59667,0.3794 0.61858,0.624911 0.5898,1.383554 0.35614,2.173459 -0.73369,1.360848 -2.03283,2.603069 -3.54721,3.014202 -0.33267,0.0784 -0.67844,0.09448 -1.0193,0.08257 1.53465,-1.68548 1.60479,-2.189921 3.23014,-1.624533 0.82342,0.216831 1.40014,0.6673 1.74364,1.440235 0.24705,0.69078 0.20417,1.374878 -0.14559,2.012363 -0.17887,0.230965 -0.34242,0.509826 -0.59052,0.676246 -0.2956,-0.525912 0.79029,0.386823 0.83784,0.430022 0.71007,0.761378 0.7982,1.424461 0.46836,2.388775 -1.07894,1.877149 -3.0151,3.249683 -5.02293,4.001288 -0.84906,0.222559 -1.8327,0.694571 -2.61676,0.106095 -0.0495,-0.08998 -0.099,-0.179951 -0.14856,-0.269925 0,0 2.05047,-1.634218 2.05047,-1.634218 v 0 c 0.0205,0.05648 0.041,0.112951 0.0615,0.169429 0.70437,0.461111 1.68944,-0.09545 2.40748,-0.262692 0.57308,-0.238691 0.68423,-0.259622 1.21835,-0.584509 0.20066,-0.122052 0.7508,-0.559213 0.58468,-0.393189 -2.71888,2.717254 -1.16291,1.00049 -0.68896,0.316148 0.38644,-0.906765 0.4003,-1.369415 -0.29066,-2.127962 -0.14653,-0.126492 -0.28054,-0.258554 -0.45249,-0.351094 -0.23239,-0.125074 -0.51718,-0.08785 -0.63482,-0.374129 0.10027,-0.275889 0.48953,-0.397402 0.61381,-0.674561 0.40867,-0.541072 0.51662,-1.156988 0.30241,-1.811522 -0.29363,-0.725766 -0.8495,-1.075698 -1.60015,-1.268492 -1.51281,-0.442111 -1.99491,0.488622 0.54109,-2.025602 0.31961,-5.3e-4 0.63972,-0.02948 0.94584,-0.127495 0.95837,-0.340847 1.58993,-1.150543 -1.18178,1.244907 -0.0903,0.07804 0.18611,-0.149876 0.27259,-0.232127 0.32507,-0.309192 0.26854,-0.273841 0.50834,-0.660136 0.25324,-0.665112 0.38601,-1.339955 -0.16182,-1.898859 -0.45966,-0.301172 -0.95981,-0.284416 -1.49302,-0.244983 1.5873,-1.691812 0.98621,-1.597847 1.98166,-1.949413 0.20545,-0.08731 0.89129,-0.601903 0.54045,-0.288364 -3.19634,2.856521 -1.80046,1.612308 -1.17693,0.92624 0.53219,-0.836154 0.96532,-1.759185 0.61153,-2.755077 -0.67023,-1.031229 -1.57655,-1.189167 -2.75687,-1.132792 -0.84664,0.09389 -1.72014,0.19372 -2.48206,0.604692 -0.21498,0.106577 -0.40131,0.07952 -0.39045,-0.172371 0.007,-0.473736 0.0194,-0.947375 0.0295,-1.421045 0.0454,-1.456587 0.0824,-2.914108 0.18852,-4.367879 0.0429,-0.538822 0.12329,-1.078773 0.16087,-1.617134 0.0168,-0.239731 -0.0284,-0.470961 -0.0205,-0.472826 0.0771,-0.01818 0.12233,0.100693 0.18349,0.15104 -0.18735,0.01487 -0.38277,0.01365 -0.57181,0.02728 -1.32885,0.07625 -2.65484,0.199157 -3.97396,0.378285 -1.67244,0.229968 -3.34826,0.432467 -5.01538,0.699239 0,0 1.82105,-1.882209 1.82105,-1.882209 z"
       inkscape:connector-curvature="0" />
    <path
       style="opacity:0.916;vector-effect:none;fill:#000000;fill-opacity:0.83809527;stroke:none;stroke-width:1.5;stroke-linecap:round;stroke-linejoin:miter;stroke-miterlimit:4;stroke-dasharray:none;stroke-dashoffset:0;stroke-opacity:1;paint-order:stroke fill markers"
       id="path913"
       d="m 177.28924,74.527896 c 0.59885,0.900181 1.69534,1.233604 2.65418,1.615824 0.89738,0.46601 1.83125,1.108135 2.05104,2.173054 0.0438,0.211982 0.0261,0.432107 0.0392,0.648158 -0.3418,2.533798 -2.42428,3.577066 -4.31832,5.062233 -0.73778,0.286237 -1.82774,0.950688 -2.60541,0.420629 -0.13916,-0.09485 -0.23976,-0.236566 -0.35964,-0.354848 -0.0909,-0.160446 -0.18171,-0.32089 -0.27257,-0.481336 0,0 2.01965,-1.63024 2.01965,-1.63024 v 0 c 0.0761,0.139507 0.15221,0.279013 0.22832,0.418518 0.0968,0.09106 0.17594,0.205721 0.29046,0.273187 0.64843,0.382008 1.83598,-0.305551 2.41629,-0.568563 -0.45757,0.418177 -0.92715,0.823569 -1.3727,1.25453 -0.17265,0.166986 0.37873,-0.29664 0.55313,-0.461793 0.69539,-0.658519 1.20843,-1.443128 1.3329,-2.40705 0.002,-0.194175 0.036,-0.390488 0.007,-0.58252 -0.15099,-1.005051 -1.08118,-1.588026 -1.90372,-2.008174 -1.01836,-0.405604 -2.13645,-0.785786 -2.79332,-1.719326 0,0 2.0334,-1.652283 2.0334,-1.652283 z"
       inkscape:connector-curvature="0" />
    <path
       style="opacity:0.916;vector-effect:none;fill:#000000;fill-opacity:0.83809527;stroke:none;stroke-width:1.5;stroke-linecap:round;stroke-linejoin:miter;stroke-miterlimit:4;stroke-dasharray:none;stroke-dashoffset:0;stroke-opacity:1;paint-order:stroke fill markers"
       id="path915"
       d="m 177.3187,71.8738 c 1.20526,-0.149053 2.41831,-0.215218 3.63096,-0.267335 0,0 -1.82086,1.836404 -1.82086,1.836404 v 0 c -1.21378,0.05109 -2.43087,0.115337 -3.63115,0.313142 0,0 1.82105,-1.882211 1.82105,-1.882211 z"
       inkscape:connector-curvature="0" />
    <path
       style="opacity:0.916;vector-effect:none;fill:#000000;fill-opacity:0.83809527;stroke:none;stroke-width:1.5;stroke-linecap:round;stroke-linejoin:miter;stroke-miterlimit:4;stroke-dasharray:none;stroke-dashoffset:0;stroke-opacity:1;paint-order:stroke fill markers"
       id="path917"
       d="m 185.88811,70.518223 c -0.0303,1.804175 -0.03,3.608771 -0.0296,5.413158 -0.04,1.360342 0.11721,2.713524 0.29135,4.059719 0.1997,1.434303 0.1755,0.541298 -2.01043,2.153364 -0.0519,-1.004374 0.1432,-1.942549 0.43978,-2.897058 1.08093,-2.827229 2.75041,-3.816101 5.11407,-5.699826 0.85399,-0.455498 1.95906,-0.532283 2.20553,0.660488 0.0432,0.209155 0.0155,0.426868 0.0232,0.640299 -0.33245,1.61816 -1.20813,3.055869 -1.98761,4.492075 -0.15193,0.378812 -1.01021,1.597517 -0.75617,2.021287 0.0389,0.06492 0.11884,0.0938 0.17825,0.140695 1.055,0.328033 2.17541,0.215762 3.25936,0.340674 0,0 -1.85763,1.81741 -1.85763,1.81741 v 0 c -1.12739,-0.117541 -2.31416,-0.0013 -3.38002,-0.446143 -0.0926,-0.08656 -0.20838,-0.153612 -0.27777,-0.259683 -0.4293,-0.656283 0.46097,-1.64678 0.68197,-2.20908 0.77141,-1.411576 1.62333,-2.811757 2.04579,-4.377079 0.009,-0.184685 0.0496,-0.370499 0.0273,-0.554054 -0.12759,-1.048419 -1.26785,-0.728604 -1.86597,-0.344215 0.43349,-0.392453 0.88153,-0.769416 1.30047,-1.177361 0.20707,-0.201636 -0.45655,0.356362 -0.664,0.557604 -0.8528,0.827254 -1.47423,1.857719 -1.92136,2.950655 -0.30132,0.923948 -0.53202,1.824227 -0.42748,2.803839 -2.24363,1.902376 -2.03165,2.528943 -2.21841,0.94333 -0.14656,-1.36928 -0.3035,-2.743203 -0.25647,-4.122939 2.6e-4,-1.790051 7.9e-4,-3.580323 -0.0296,-5.370158 0,0 2.11551,-1.537001 2.11551,-1.537001 z"
       inkscape:connector-curvature="0" />
    <path
       style="opacity:0.916;vector-effect:none;fill:#000000;fill-opacity:0.83809527;stroke:none;stroke-width:1.5;stroke-linecap:round;stroke-linejoin:miter;stroke-miterlimit:4;stroke-dasharray:none;stroke-dashoffset:0;stroke-opacity:1;paint-order:stroke fill markers"
       id="path919"
       d="m 163.20775,92.109376 c -0.0333,1.935009 -0.0289,3.870436 -0.0303,5.805665 0.001,1.873448 7.9e-4,3.746909 0.0185,5.620289 0.009,0.53745 0.003,0.30235 0.016,0.70538 0,0 -2.12014,1.54038 -2.12014,1.54038 v 0 c 0.0127,-0.4185 0.006,-0.17565 0.016,-0.72861 0.0175,-1.88233 0.0174,-3.76473 0.0185,-5.647126 -0.002,-1.920528 0.003,-3.841268 -0.0303,-5.761572 0,0 2.11193,-1.534406 2.11193,-1.534406 z"
       inkscape:connector-curvature="0" />
    <path
       style="opacity:0.916;vector-effect:none;fill:#000000;fill-opacity:0.83809527;stroke:none;stroke-width:1.5;stroke-linecap:round;stroke-linejoin:miter;stroke-miterlimit:4;stroke-dasharray:none;stroke-dashoffset:0;stroke-opacity:1;paint-order:stroke fill markers"
       id="path925"
       d="m 163.11603,104.50251 c -0.88549,1.40509 -1.91377,2.71647 -2.94337,4.01784 -1.17402,1.63263 -2.6918,2.79567 -4.22956,4.07916 -0.13349,0.0819 -0.28778,0.26488 -0.43584,0.13527 0.6742,-0.50806 1.32615,-1.04705 2.02258,-1.52418 0.0338,-0.0232 0.0126,0.0816 0.0272,0.11984 0.0263,0.0692 0.0631,0.13392 0.0948,0.20082 0.17474,0.36909 0.3856,0.70994 0.59718,1.05935 0.74166,1.18484 1.4435,2.39323 2.15968,3.59345 0.64517,1.05977 1.21876,2.16823 1.66287,3.32753 0.18786,0.48199 0.31664,0.98075 0.38539,1.49274 0.0124,0.0908 0.008,0.18249 0.0427,0.2673 -0.5848,-0.91665 0.86862,-1.03743 -2.00858,1.26663 -0.0709,0.0568 0.12322,-0.13378 0.17781,-0.20632 0.14714,-0.19553 0.43366,-0.65428 0.54417,-0.8269 1.0651,-1.57634 2.10409,-3.16379 3.24591,-4.68631 0.77202,-1.03328 1.63652,-1.99255 2.36101,-3.06091 0.0195,0.009 0.27845,-0.46242 0.28418,-0.45899 0.0364,0.0218 0.0463,0.071 0.0694,0.1065 0,0 2.00136,-1.72397 2.00136,-1.72397 v 0 c 0.24208,0.29925 0.0177,0.34691 -0.15389,0.66877 -0.73197,1.09167 -1.60902,2.06682 -2.40938,3.10756 -1.13848,1.50718 -2.17736,3.07234 -3.22195,4.64526 -0.58144,0.94495 -1.98054,3.71027 -3.08648,2.64297 0.0232,-0.0192 0.0675,-0.0624 0.0389,-0.17234 -0.0331,-0.5008 -0.14833,-0.98806 -0.31685,-1.46076 -0.41755,-1.15463 -0.97642,-2.2586 -1.61361,-3.30696 -0.7138,-1.19882 -1.41841,-2.40253 -2.1742,-3.57578 -0.044,-0.0693 -0.88785,-1.40605 -0.82994,-1.46686 0.62928,-0.66071 1.34111,-1.23754 2.01166,-1.85631 -0.10564,-0.11966 0.18984,-0.19765 0.24881,-0.2811 -3.96473,3.34396 -0.26809,0.31786 0.34268,-0.74667 1.0209,-1.27592 2.03898,-2.56659 2.90557,-3.95334 0,0 2.19977,-1.42329 2.19977,-1.42329 z"
       inkscape:connector-curvature="0" />
    <path
       style="opacity:0.916;vector-effect:none;fill:#000000;fill-opacity:0.83809527;stroke:none;stroke-width:1.5;stroke-linecap:round;stroke-linejoin:miter;stroke-miterlimit:4;stroke-dasharray:none;stroke-dashoffset:0;stroke-opacity:1;paint-order:stroke fill markers"
       id="path927"
       d="m 164.48119,104.86168 c 0.80843,1.35308 1.68357,2.66313 2.54157,3.98449 0.43451,0.6651 0.87736,1.32501 1.33902,1.97163 0.2186,0.29385 0.0523,-0.046 -1.98766,1.55307 0,0 2.15448,-1.51506 2.15448,-1.51506 v 0 c -0.38089,0.33838 -1.58909,2.591 -2.19937,1.63247 -0.43261,-0.67134 -0.86527,-1.34266 -1.2983,-2.01374 -0.84419,-1.33331 -1.71038,-2.65362 -2.57899,-3.97111 0,0 2.02925,-1.64175 2.02925,-1.64175 z"
       inkscape:connector-curvature="0" />
    <path
       style="opacity:0.916;vector-effect:none;fill:#000000;fill-opacity:0.83809527;stroke:none;stroke-width:1.5;stroke-linecap:round;stroke-linejoin:miter;stroke-miterlimit:4;stroke-dasharray:none;stroke-dashoffset:0;stroke-opacity:1;paint-order:stroke fill markers"
       id="path929"
       d="m 159.23504,110.48918 c 1.61405,-0.0265 3.2203,0.0774 4.82874,0.19614 0.62841,0.0737 1.25275,0.17883 1.87173,0.30941 0.27674,0.0584 0.51547,0.1549 0.79587,0.12149 0.20562,-0.0656 0.10831,-0.0147 0.28793,-0.1599 0,0 -1.7678,1.94363 -1.7678,1.94363 v 0 c -0.25574,0.0778 -0.12915,0.0562 -0.3787,0.0707 -0.88305,-0.10387 -1.73373,-0.47393 -2.63557,-0.48627 -1.61519,-0.12594 -3.23035,-0.21784 -4.85121,-0.14619 0,0 1.84901,-1.84902 1.84901,-1.84902 z"
       inkscape:connector-curvature="0" />
    <path
       style="opacity:0.916;vector-effect:none;fill:#000000;fill-opacity:0.83809527;stroke:none;stroke-width:1.5;stroke-linecap:round;stroke-linejoin:miter;stroke-miterlimit:4;stroke-dasharray:none;stroke-dashoffset:0;stroke-opacity:1;paint-order:stroke fill markers"
       id="path931"
       d="m 173.07061,106.83746 c 0.12572,1.35035 0.18626,2.70308 0.3867,4.04511 0.10643,0.53237 0.16323,1.08085 0.32314,1.60155 -0.74215,0.4499 -1.4355,0.99247 -2.22643,1.34972 -0.0953,0.0431 -0.0829,-0.19236 -0.11667,-0.29138 -0.27339,-0.80148 -0.30914,-1.65505 -0.36835,-2.49198 -0.22253,-2.33086 0.21481,-4.58308 1.06106,-6.74476 0.84103,-1.692 2.93912,-4.411344 4.7442,-4.669059 0.17132,-0.02447 0.345,0.02792 0.5175,0.04188 0.14373,0.104531 0.31359,0.180345 0.43119,0.313592 0.88307,1.000547 0.66028,2.621307 0.51879,3.813157 -0.22989,1.60697 -0.84196,3.10311 -1.37053,4.62364 -0.29231,0.93087 -0.51376,1.89703 -0.48536,2.8768 0.11554,0.75319 0.62826,1.1108 1.31058,1.31883 0.352,0.0873 0.71365,0.10772 1.07379,0.13126 0,0 -1.85916,1.83062 -1.85916,1.83062 v 0 c -0.37696,-0.0337 -0.75526,-0.0652 -1.11963,-0.17621 -0.76071,-0.27591 -1.33573,-0.72859 -1.50543,-1.56206 -0.0744,-1.00857 0.16246,-2.00952 0.44834,-2.97201 0.51364,-1.52027 1.18065,-2.99232 1.42131,-4.59509 0.13724,-1.01511 0.39131,-2.70345 -0.37882,-3.5634 -0.0859,-0.0959 -0.21805,-0.13682 -0.32708,-0.20523 -0.14512,0.007 -0.29505,-0.0168 -0.43537,0.0208 -0.64118,0.17216 -2.02991,1.34382 0.82966,-0.95727 0.22022,-0.17721 -0.42329,0.37731 -0.60712,0.59203 -0.51293,0.59915 -0.71155,1.03585 -1.10268,1.72876 -0.87704,2.11493 -1.34483,4.3313 -1.10323,6.63178 0.0538,0.67585 0.0928,1.35674 0.2495,2.01909 0.0301,0.12721 0.0687,0.25248 0.11182,0.37589 0.0325,0.093 0.1835,0.20198 0.11465,0.27249 -0.6221,0.63719 -1.36766,1.14088 -2.0515,1.71133 0.0301,0.015 0.0709,0.0727 0.0902,0.0452 0.0847,-0.12122 -0.34953,-1.35765 -0.25851,-1.5191 -0.19539,-1.34071 -0.24712,-2.69088 -0.40901,-4.03561 0,0 2.09246,-1.56039 2.09246,-1.56039 z"
       inkscape:connector-curvature="0" />
    <path
       style="opacity:0.916;vector-effect:none;fill:#000000;fill-opacity:0.83809527;stroke:none;stroke-width:1.5;stroke-linecap:round;stroke-linejoin:miter;stroke-miterlimit:4;stroke-dasharray:none;stroke-dashoffset:0;stroke-opacity:1;paint-order:stroke fill markers"
       id="path933"
       d="m 182.09077,111.26239 c -0.15629,0.0362 -0.31443,0.0652 -0.46888,0.10853 -0.50747,0.14253 -0.60008,0.17529 -1.04591,0.46387 -0.16502,0.10682 -0.62894,0.47145 -0.47714,0.34656 1.84409,-1.51712 1.93164,-1.6776 1.16844,-0.78287 -0.7047,1.00175 -0.95486,1.94327 -0.45753,3.08473 0.81109,1.09403 1.85207,0.85463 3.04209,0.62211 0,0 -1.77483,1.8385 -1.77483,1.8385 v 0 c -1.26267,0.20383 -2.48188,0.31971 -3.29846,-0.84809 -0.58316,-1.23619 -0.40717,-2.16885 0.29522,-3.32306 1.23905,-1.57314 2.83938,-3.00946 4.83938,-3.38512 0,0 -1.82238,1.87484 -1.82238,1.87484 z"
       inkscape:connector-curvature="0" />
    <path
       style="opacity:0.916;vector-effect:none;fill:#000000;fill-opacity:0.83809527;stroke:none;stroke-width:1.5;stroke-linecap:round;stroke-linejoin:miter;stroke-miterlimit:4;stroke-dasharray:none;stroke-dashoffset:0;stroke-opacity:1;paint-order:stroke fill markers"
       id="path935"
       d="m 188.74275,108.68883 c -0.87917,0.83147 -1.41973,1.84112 -1.77328,2.98381 -0.15509,0.97924 -0.34867,1.92156 0.6521,2.47395 0.49063,0.12072 0.90248,-0.0431 1.30618,-0.32912 0.17011,-0.12052 0.64389,-0.52941 0.47682,-0.40471 -1.56332,1.16688 -1.87033,1.68846 -1.03827,0.5661 0.59993,-1.02861 1.12861,-2.09375 0.65578,-3.26407 -0.59321,-0.8802 -1.35573,-0.85475 -2.19943,-0.35401 0,0 1.75019,-1.92068 1.75019,-1.92068 v 0 c 1.01933,-0.42702 1.8431,-0.29525 2.48958,0.66373 0.58343,1.32646 0.10613,2.27319 -0.52414,3.49179 -0.97771,1.46871 -0.34292,0.62759 -2.83588,2.76121 -0.58352,0.49941 -1.26615,0.80287 -2.02004,0.52815 -1.11452,-0.7278 -0.99388,-1.5496 -0.84583,-2.7532 0.31932,-1.16631 0.8144,-2.20831 1.67692,-3.07683 0,0 2.2293,-1.36612 2.2293,-1.36612 z"
       inkscape:connector-curvature="0" />
    <path
       style="opacity:0.916;vector-effect:none;fill:#000000;fill-opacity:0.83809527;stroke:none;stroke-width:1.5;stroke-linecap:round;stroke-linejoin:miter;stroke-miterlimit:4;stroke-dasharray:none;stroke-dashoffset:0;stroke-opacity:1;paint-order:stroke fill markers"
       id="path937"
       d="m 189.8112,112.18628 c 0.85751,0.58478 1.7069,1.18326 2.57991,1.74489 0.47906,0.2824 0.91592,0.62659 1.38321,0.92822 0,0 -1.96217,1.74354 -1.96217,1.74354 v 0 c -0.45399,-0.31412 -0.8877,-0.65702 -1.35838,-0.94585 -0.86679,-0.56954 -1.71308,-1.17093 -2.59261,-1.7209 0,0 1.95004,-1.7499 1.95004,-1.7499 z"
       inkscape:connector-curvature="0" />
    <path
       style="opacity:0.916;vector-effect:none;fill:#000000;fill-opacity:0.83809527;stroke:none;stroke-width:1.5;stroke-linecap:round;stroke-linejoin:miter;stroke-miterlimit:4;stroke-dasharray:none;stroke-dashoffset:0;stroke-opacity:1;paint-order:stroke fill markers"
       id="path939"
       d="m 195.3393,113.561 c -0.0124,0.6828 -0.007,1.36581 0.003,2.04861 0.0159,0.96039 0.22455,0.50673 -2.12091,1.4152 -0.13003,0.0504 0.003,-0.27887 0.004,-0.4183 0.008,-0.74301 0.005,-0.41451 0.009,-1.21378 -0.0254,-1.72773 0.15704,-3.44223 0.58598,-5.11469 0.59456,-1.79535 1.91855,-3.97148 3.92002,-4.36652 1.02869,0.12777 1.36931,1.06538 1.51155,1.96778 0.0401,1.12352 -0.4131,2.11451 -1.1633,2.92535 -2.3532,1.97224 -1.35975,1.53075 -2.55816,2.02301 0,0 1.76256,-1.93504 1.76256,-1.93504 v 0 c 0.85494,-0.52492 0.3061,-0.20471 -1.42224,1.26926 0.79076,-0.71314 1.27817,-1.64925 1.3033,-2.72946 -0.0821,-0.72497 -0.31966,-1.66928 -1.22298,-1.62338 -0.92721,0.40087 -0.69556,0.33968 1.26489,-1.231 0.13753,-0.11019 -0.2531,0.24681 -0.36169,0.38562 -0.43167,0.55183 -0.69032,1.2084 -0.92102,1.86227 -0.46065,1.64461 -0.65506,3.33977 -0.60984,5.049 0.013,2.26352 0.40732,1.32218 -2.11303,3.46214 -0.0466,0.0396 0.15718,-0.41083 0.006,-0.18327 0.01,-0.68433 0.0157,-1.36887 0.003,-2.0532 0,0 2.11908,-1.5396 2.11908,-1.5396 z"
       inkscape:connector-curvature="0" />
    <path
       style="opacity:0.916;vector-effect:none;fill:#000000;fill-opacity:0.83809527;stroke:none;stroke-width:1.5;stroke-linecap:round;stroke-linejoin:miter;stroke-miterlimit:4;stroke-dasharray:none;stroke-dashoffset:0;stroke-opacity:1;paint-order:stroke fill markers"
       id="path941"
       d="m 202.55305,107.4961 c 0.21579,1.0119 0.58133,1.97803 0.81272,2.98625 0.28895,1.33803 0.0662,2.45877 -0.66192,3.6017 -1.20489,1.25016 -0.28745,0.34118 -2.98319,2.47227 0,0 1.71815,-1.92569 1.71815,-1.92569 v 0 c -1.56105,1.42305 -1.87268,1.69509 -0.9109,0.84282 0.78194,-1.0617 1.04184,-2.1137 0.77414,-3.4212 -0.22055,-1.0127 -0.57626,-1.98128 -0.84206,-2.98199 0,0 2.09306,-1.57416 2.09306,-1.57416 z"
       inkscape:connector-curvature="0" />
    <path
       style="opacity:0.916;vector-effect:none;fill:#000000;fill-opacity:0.83809527;stroke:none;stroke-width:1.5;stroke-linecap:round;stroke-linejoin:miter;stroke-miterlimit:4;stroke-dasharray:none;stroke-dashoffset:0;stroke-opacity:1;paint-order:stroke fill markers"
       id="path943"
       d="m 162.83334,123.76635 c -0.0205,1.2744 -0.0215,2.54908 -0.0139,3.8236 0.0212,0.46937 -0.0671,0.96825 0.15224,1.40281 0,0 -2.05349,1.64685 -2.05349,1.64685 v 0 c -0.25246,-0.48155 -0.20816,-0.99973 -0.1901,-1.53021 0.008,-1.2678 0.007,-2.53577 -0.0139,-3.80345 0,0 2.11907,-1.5396 2.11907,-1.5396 z"
       inkscape:connector-curvature="0" />
    <path
       style="opacity:0.916;vector-effect:none;fill:#000000;fill-opacity:0.83809527;stroke:none;stroke-width:1.5;stroke-linecap:round;stroke-linejoin:miter;stroke-miterlimit:4;stroke-dasharray:none;stroke-dashoffset:0;stroke-opacity:1;paint-order:stroke fill markers"
       id="path945"
       d="m 166.00941,127.74253 c 0.94512,0.83263 1.20696,1.78888 1.23355,3.00448 -0.0627,0.79394 -0.25527,1.57073 -0.4849,2.33112 -0.0219,0.1149 -0.10787,0.22755 -0.081,0.34326 -0.05,-0.0808 -0.11708,-0.15322 -0.15005,-0.24233 -0.003,-0.009 0.0381,-0.004 0.2118,-0.004 0.27504,7.9e-4 0.55014,-0.002 0.82518,-0.002 1.02653,0.1052 1.11595,1.10066 1.16718,1.94849 -0.012,1.14225 -0.49579,2.17833 -0.95614,3.19855 -0.10958,0.24812 -0.23536,0.48861 -0.35146,0.73357 -0.36292,-0.44222 0.55853,-0.0801 0.6623,-0.0145 0.10723,0.0678 0.19444,0.16303 0.29166,0.24455 0.79765,1.03157 0.64973,1.97757 0.15221,3.1089 -0.38416,0.6668 -0.91969,1.20689 -1.51701,1.6842 -1.66127,1.32751 -2.2632,2.01313 -3.95986,2.61701 -0.85912,0.28911 -1.33764,0.28998 -2.04452,-0.26755 0,0 1.959,-1.71786 1.959,-1.71786 v 0 c 0.59352,0.44082 1.15946,0.35918 1.84066,0.0994 1.61144,-0.63826 1.79377,-1.23033 0.003,0.59249 -0.18295,0.18622 0.41359,-0.31945 0.6077,-0.49401 0.1856,-0.1669 0.36527,-0.34145 0.52994,-0.52903 0.15554,-0.17717 0.28567,-0.37513 0.42851,-0.56269 0.48455,-0.93417 0.7481,-1.9153 0.0328,-2.81216 -0.24031,-0.18074 -0.21141,-0.19981 -0.50138,-0.26508 -0.13184,-0.0297 -0.40647,0.0321 -0.52201,-0.0512 -0.0732,-0.0528 -0.12229,-0.1329 -0.18343,-0.19936 0.16081,-0.22482 0.26804,-0.48414 0.39751,-0.72725 0.47427,-0.98758 0.98087,-1.99498 1.04468,-3.10745 -0.0233,-0.71817 -0.0184,-1.61251 -0.92846,-1.62873 -0.0786,0.001 -1.0275,0.0483 -1.0547,0.0267 -0.0883,-0.07 -0.15811,-0.16063 -0.23717,-0.24095 0.0932,0.0471 0.12043,-0.1971 0.16014,-0.25502 0.26265,-0.74008 0.45934,-1.50456 0.56416,-2.28352 0.0103,-1.1517 -0.17255,-2.04127 -1.11127,-2.80598 0,0 1.97147,-1.72188 1.97147,-1.72188 z"
       inkscape:connector-curvature="0" />
    <path
       style="opacity:0.916;vector-effect:none;fill:#000000;fill-opacity:0.83809527;stroke:none;stroke-width:1.5;stroke-linecap:round;stroke-linejoin:miter;stroke-miterlimit:4;stroke-dasharray:none;stroke-dashoffset:0;stroke-opacity:1;paint-order:stroke fill markers"
       id="path947"
       d="m 176.59274,133.03419 c 1.0687,0.86929 2.38091,1.33137 3.59384,1.95579 1.15261,0.66739 2.07306,1.7477 2.2125,3.11531 0.0279,0.27349 0.001,0.54981 0.002,0.82472 -0.14934,1.06594 -0.62777,2.03987 -1.46774,2.73403 -2.49379,2.0609 -1.64223,1.61774 -3.23568,2.32715 -1.1044,0.29644 -1.78084,-0.27322 -2.52067,-1.00718 0,0 1.95377,-1.67239 1.95377,-1.67239 v 0 c 0.69866,0.67329 1.30222,1.13337 2.3072,0.77895 1.19358,-0.59393 0.70568,-0.42356 -0.70032,0.91068 -0.18466,0.17522 0.3982,-0.32018 0.5711,-0.50702 0.53983,-0.58338 0.8712,-1.2802 1.01298,-2.05842 0.009,-0.26055 0.0432,-0.52148 0.0267,-0.78166 -0.0825,-1.30462 -0.96728,-2.31623 -2.06101,-2.93673 -1.23507,-0.6306 -2.55967,-1.10464 -3.66591,-1.96135 0,0 1.97146,-1.72188 1.97146,-1.72188 z"
       inkscape:connector-curvature="0" />
    <path
       style="opacity:0.916;vector-effect:none;fill:#000000;fill-opacity:0.83809527;stroke:none;stroke-width:1.5;stroke-linecap:round;stroke-linejoin:miter;stroke-miterlimit:4;stroke-dasharray:none;stroke-dashoffset:0;stroke-opacity:1;paint-order:stroke fill markers"
       id="path949"
       d="m 176.64233,130.7891 c 1.57921,-0.29613 3.17101,-0.52552 4.74844,-0.83226 0.89718,-0.16793 1.78896,-0.37061 2.64957,-0.67522 0,0 -1.77142,1.88873 -1.77142,1.88873 v 0 c -0.87065,0.26997 -1.75985,0.47536 -2.65772,0.63403 -1.58878,0.29351 -3.19172,0.51827 -4.76824,0.87448 0,0 1.79937,-1.88976 1.79937,-1.88976 z"
       inkscape:connector-curvature="0" />
    <path
       style="opacity:0.916;vector-effect:none;fill:#000000;fill-opacity:0.83809527;stroke:none;stroke-width:1.5;stroke-linecap:round;stroke-linejoin:miter;stroke-miterlimit:4;stroke-dasharray:none;stroke-dashoffset:0;stroke-opacity:1;paint-order:stroke fill markers"
       id="path951"
       d="m 188.53215,128.77307 c -0.0266,1.57474 -0.0223,3.14982 -0.016,4.72471 0.003,0.77256 0.009,1.54515 0.0246,2.31756 -2.41172,4.41625 -2.20349,0.99145 -1.97439,0.11389 0.0575,-0.22028 0.14048,-0.4331 0.21072,-0.64965 0.54671,-1.5395 1.54053,-2.81528 2.73222,-3.90692 -0.0473,-0.22539 3.33882,-3.56603 3.66316,-1.34955 0.0303,0.20721 0.006,0.41878 0.008,0.62817 -0.26467,1.78318 -0.80258,3.51202 -1.16665,5.27676 -0.27319,1.79246 -0.17609,2.94476 0.95689,4.38272 0.44681,0.48491 0.98145,0.83237 1.63642,0.93298 0,0 -1.90418,1.81701 -1.90418,1.81701 v 0 c -0.66785,-0.2149 -1.25054,-0.55796 -1.7152,-1.09734 -1.17075,-1.50124 -1.33482,-2.69983 -1.06737,-4.57723 0.3456,-1.7488 0.86456,-3.45862 1.16509,-5.21594 0.008,-0.21129 0.0662,-0.66855 -0.0464,-0.90517 -0.40256,-0.8457 -3.31589,2.3829 0.67185,-1.22357 -1.21358,1.039 -2.23304,2.27714 -2.79773,3.79095 -0.18947,0.52441 -0.344,1.01111 -0.37838,1.57096 -0.006,0.0927 0.0716,0.21486 0.004,0.27856 -2.16953,2.04562 -2.20686,2.6337 -2.12779,1.68031 0.0156,-0.78432 0.0216,-1.56882 0.0246,-2.35329 0.006,-1.56716 0.0109,-3.13451 -0.016,-4.70152 0,0 2.11192,-1.5344 2.11192,-1.5344 z"
       inkscape:connector-curvature="0" />
    <path
       style="opacity:0.916;vector-effect:none;fill:#000000;fill-opacity:0.83809527;stroke:none;stroke-width:1.5;stroke-linecap:round;stroke-linejoin:miter;stroke-miterlimit:4;stroke-dasharray:none;stroke-dashoffset:0;stroke-opacity:1;paint-order:stroke fill markers"
       id="path953"
       d="m 162.82977,148.04985 c -0.0229,1.40985 -0.0203,2.82002 -0.01,4.22997 0.003,0.34496 0.006,0.6899 0.0159,1.03474 0,0 -2.12405,1.54321 -2.12405,1.54321 v 0 c 0.01,-0.35254 0.0125,-0.70517 0.0159,-1.05783 0.0103,-1.40519 0.0133,-2.8106 -0.01,-4.21568 0,0 2.11192,-1.53441 2.11192,-1.53441 z"
       inkscape:connector-curvature="0" />
    <path
       style="opacity:0.916;vector-effect:none;fill:#008080;fill-opacity:0.83809527;stroke:none;stroke-width:1.5;stroke-linecap:round;stroke-linejoin:miter;stroke-miterlimit:4;stroke-dasharray:none;stroke-dashoffset:0;stroke-opacity:1;paint-order:stroke fill markers"
       id="path1057"
       d="m 159.15147,150.31288 c -0.0946,0.0662 -0.18859,0.13337 -0.28386,0.19865 -0.27115,0.1858 -1.05482,0.78304 -0.80554,0.56879 2.03483,-1.74889 0.37577,-0.1825 0.0142,0.22082 -0.81455,0.89462 -1.27921,1.83746 -1.52175,3.01095 -0.18972,1.39765 0.45049,2.61047 1.15911,3.76078 1.06782,1.6508 2.32716,2.56219 4.08969,3.36741 1.37476,0.52703 2.878,0.76094 4.27311,0.16408 0.26674,-0.11412 0.51122,-0.27448 0.76684,-0.41172 0.23754,-0.18818 0.68036,-0.26321 0.71264,-0.56453 0.0294,-0.2745 -0.59336,0.69802 -0.69965,0.44323 -0.12221,-0.29297 0.39463,-0.49879 0.56464,-0.76685 0.52299,-0.82463 0.79629,-1.70001 1.05181,-2.63161 0.3562,-1.53022 0.28804,-3.13791 -0.37679,-4.58064 -0.13753,-0.29846 -0.31883,-0.57472 -0.47825,-0.86208 -1.01786,-1.52102 -2.48245,-2.66436 -4.20887,-3.28368 -0.34619,-0.12419 -0.70773,-0.20054 -1.06159,-0.30081 -1.38169,-0.22858 -2.80164,-0.18535 -4.02323,0.57835 -0.28875,0.18053 -0.60172,0.35625 -0.80419,0.63007 -0.14015,0.18953 0.40454,-0.24208 0.6068,-0.36312 0,0 -1.50484,0.92711 -1.50484,0.92711 v 0 c 0.39861,-0.36538 2.01589,-1.99123 2.89903,-2.49949 1.26402,-0.72745 2.71107,-0.73576 4.10708,-0.48327 0.35885,0.10632 0.7255,0.18922 1.07656,0.31896 1.75603,0.64894 3.2433,1.81577 4.29276,3.36168 0.16615,0.29354 0.35457,0.57554 0.49844,0.88061 0.68976,1.46254 0.78746,3.10633 0.44187,4.66917 -0.0799,0.31001 -0.14333,0.6247 -0.23955,0.93003 -0.69003,2.18966 -2.15412,3.62598 -4.05558,4.91783 -0.26368,0.13028 -0.5168,0.28457 -0.79104,0.39084 -1.43495,0.55604 -2.96948,0.2853 -4.36006,-0.26109 -1.78168,-0.83334 -3.07284,-1.76949 -4.16776,-3.43753 -0.73383,-1.17632 -1.4067,-2.41667 -1.2617,-3.85256 0.22144,-1.20409 0.65546,-2.17503 1.4813,-3.09943 1.11467,-1.28207 2.40264,-2.4201 3.85438,-3.30827 0,0 -1.24606,1.36732 -1.24606,1.36732 z"
       inkscape:connector-curvature="0" />
    <path
       style="opacity:0.916;vector-effect:none;fill:#008080;fill-opacity:0.83809527;stroke:none;stroke-width:1.5;stroke-linecap:round;stroke-linejoin:miter;stroke-miterlimit:4;stroke-dasharray:none;stroke-dashoffset:0;stroke-opacity:1;paint-order:stroke fill markers"
       id="path1059"
       d="m 162.00464,152.41271 c -0.39322,1.09259 -0.73197,2.2031 -1.07694,3.31153 -0.12303,0.11041 -0.31412,1.45086 -0.4125,1.52012 -0.50067,0.35244 -1.02423,0.67119 -1.53635,1.00679 -0.0397,-1.13043 0.30931,-2.25347 0.532,-3.3549 0.29578,-1.58557 0.69874,-3.14822 1.20432,-4.67937 0.3824,-1.15776 0.65033,-1.4492 1.99879,-2.15596 0.0864,-0.0453 0.20758,0.28588 0.34304,0.60254 0.45038,1.44239 0.94842,2.86863 1.47394,4.28557 0.41716,1.12704 0.87367,2.23916 1.29334,3.36519 0.0747,0.20258 0.14716,0.40596 0.2158,0.61065 0,0 -1.47496,1.13858 -1.47496,1.13858 v 0 c -0.055,-0.2089 -0.12063,-0.41479 -0.18839,-0.61987 -0.38809,-1.14151 -0.83779,-2.26174 -1.25418,-3.39294 -0.52108,-1.40976 -1.02503,-2.82559 -1.50362,-4.24999 -0.41081,-0.94075 -0.4933,-0.23893 1.09229,-1.5844 0.0593,-0.0504 -0.1185,0.10434 -0.15968,0.17039 -0.10041,0.16108 -0.28775,0.68186 -0.33905,0.81561 -0.53233,1.52235 -0.94391,3.0843 -1.2345,4.67109 -0.20556,1.06999 -0.51104,2.14385 -0.52544,3.23822 -0.49608,0.38757 -0.98568,0.78359 -1.48825,1.16271 -0.0247,0.0186 0.0386,-0.0493 0.0503,-0.078 0.0267,-0.0654 0.0445,-0.13403 0.064,-0.20189 0.11927,-0.41588 0.21902,-0.83752 0.351,-1.24983 0.34707,-1.09788 0.68641,-2.19774 1.0432,-3.29255 0,0 1.53182,-1.03932 1.53182,-1.03932 z"
       inkscape:connector-curvature="0" />
    <path
       style="opacity:0.916;vector-effect:none;fill:#008080;fill-opacity:0.83809527;stroke:none;stroke-width:1.5;stroke-linecap:round;stroke-linejoin:miter;stroke-miterlimit:4;stroke-dasharray:none;stroke-dashoffset:0;stroke-opacity:1;paint-order:stroke fill markers"
       id="path1061"
       d="m 161.37838,154.49225 c 0.87985,-0.0805 1.7596,-0.1609 2.64141,-0.21654 0.11368,-0.007 0.22736,-0.0135 0.34103,-0.0202 0,0 -1.29244,1.30654 -1.29244,1.30654 v 0 c -0.1118,0.006 -0.2236,0.011 -0.33539,0.0165 -0.88908,0.0542 -1.77529,0.13877 -2.66206,0.22112 0,0 1.30745,-1.30745 1.30745,-1.30745 z"
       inkscape:connector-curvature="0" />
    <path
       style="opacity:0.916;vector-effect:none;fill:#ff0000;fill-opacity:0.83809527;stroke:none;stroke-width:1.5;stroke-linecap:round;stroke-linejoin:miter;stroke-miterlimit:4;stroke-dasharray:none;stroke-dashoffset:0;stroke-opacity:1;paint-order:stroke fill markers"
       id="path1071"
       d="m 57.304998,66.047762 c 0.14774,1.519881 0.338542,3.034999 0.493942,4.554075 0.146535,1.210093 0.312746,2.417791 0.485312,3.624432 0.135007,0.788042 0.510699,0.442034 -1.521489,1.172522 -0.107315,0.03858 -0.07597,-0.215059 -0.112731,-0.323012 -0.177622,-0.521575 -0.161769,-0.485179 -0.342191,-1.063212 -0.599413,-1.863219 -0.799496,-3.819347 -0.879874,-5.765419 0.0479,-1.223441 0.18955,-3.032694 1.182833,-3.922461 0.583194,-0.522416 1.215001,-0.987878 1.822503,-1.481816 0.161607,-0.02732 0.321281,-0.09283 0.484822,-0.08197 1.154959,0.07668 1.360445,1.534887 1.461982,2.399884 0.04829,1.427705 -0.224134,2.829345 -0.550823,4.210542 -0.271425,0.902906 -0.246089,1.760984 0.191162,2.596041 0.522313,0.740421 1.269928,1.230503 2.129461,1.488879 0.475462,0.03563 0.240983,0.0327 0.703403,0.0113 0,0 -1.296397,1.301173 -1.296397,1.301173 v 0 c -0.486127,-0.004 -0.238985,0.01434 -0.741085,-0.05951 -0.889804,-0.308541 -1.670748,-0.816618 -2.220426,-1.595734 -0.468722,-0.863436 -0.550666,-1.764212 -0.25832,-2.710921 0.334502,-1.367853 0.635674,-2.750325 0.600236,-4.168881 -0.07542,-0.718187 -0.220168,-2.204857 -1.280819,-2.153746 -0.147762,0.0071 -0.28408,0.08269 -0.426122,0.124029 0.304578,-0.279469 0.58038,-0.593971 0.913728,-0.838406 0.171133,-0.125486 -0.299707,0.303373 -0.421277,0.477307 -0.683977,0.978569 -0.825879,2.202449 -0.870281,3.360805 0.06988,1.925654 0.264541,3.864407 0.88532,5.700139 0.107992,0.323961 0.498641,1.319731 0.478639,1.342795 -0.414602,0.478086 -0.978197,0.803883 -1.447067,1.228875 -0.03782,0.03428 0.468286,0.101185 0.03856,-0.148177 -0.133059,-1.22338 -0.287965,-2.444128 -0.437068,-3.665625 -0.152598,-1.503756 -0.342842,-3.003169 -0.545952,-4.500808 0,0 1.480024,-1.1131 1.480024,-1.1131 z"
       inkscape:connector-curvature="0" />
    <path
       style="opacity:0.916;vector-effect:none;fill:#ff0000;fill-opacity:0.83809527;stroke:none;stroke-width:1.5;stroke-linecap:round;stroke-linejoin:miter;stroke-miterlimit:4;stroke-dasharray:none;stroke-dashoffset:0;stroke-opacity:1;paint-order:stroke fill markers"
       id="path1073"
       d="m 67.728292,70.125616 c 0.115711,1.237869 0.159293,2.480559 0.193379,3.722835 0.0043,0.235175 0.0085,0.47035 0.01281,0.705522 0,0 -1.455933,1.06184 -1.455933,1.06184 v 0 c -0.0043,-0.234564 -0.0085,-0.469131 -0.01275,-0.703697 -0.03136,-1.229355 -0.06759,-2.461366 -0.217083,-3.683143 0,0 1.479592,-1.103357 1.479592,-1.103357 z"
       inkscape:connector-curvature="0" />
    <path
       style="opacity:0.916;vector-effect:none;fill:#ff0000;fill-opacity:0.83809527;stroke:none;stroke-width:1.5;stroke-linecap:round;stroke-linejoin:miter;stroke-miterlimit:4;stroke-dasharray:none;stroke-dashoffset:0;stroke-opacity:1;paint-order:stroke fill markers"
       id="path1075"
       d="m 91.490193,110.75977 c -0.004,1.74516 -0.05677,3.48758 -0.180967,5.22841 -0.126857,1.21595 -0.176927,2.46677 -0.487037,3.65621 -0.519732,0.26676 -0.989264,0.67198 -1.559195,0.80029 -0.143949,0.0324 -0.02838,-0.29384 -0.03589,-0.4412 -0.01,-0.1961 -0.0132,-0.3925 -0.01656,-0.58882 -0.01405,-0.82074 -0.0057,-1.64209 -0.0033,-2.46288 0.06957,-2.12002 0.247073,-4.24222 0.677807,-6.32078 0.274082,-0.85279 0.456853,-1.97657 1.192146,-2.59472 1.713545,-1.44057 1.042699,-1.3868 2.1472,-1.33588 0.116901,0.0853 0.253179,0.14905 0.350702,0.256 0.788752,0.86494 0.606057,2.61353 0.542182,3.66945 -0.156835,1.74091 -0.649663,3.42261 -0.998924,5.12924 -0.168725,0.95111 -0.35133,1.55792 0.32312,2.32523 0.456922,0.36281 0.986242,0.5792 1.543142,0.73137 0,0 -1.336201,1.26313 -1.336201,1.26313 v 0 c -0.582322,-0.17689 -1.138812,-0.41756 -1.611903,-0.81047 -0.729567,-0.83504 -0.600527,-1.43509 -0.399179,-2.47898 0.360442,-1.70498 0.865955,-3.38361 1.035547,-5.12374 0.06045,-0.94793 0.258395,-2.71382 -0.470053,-3.4886 -0.07361,-0.0783 -0.182108,-0.11413 -0.273164,-0.17119 -0.775245,0.0871 -0.469342,0.11877 0.693362,-0.92318 0.133506,-0.11965 -0.269497,0.24014 -0.376799,0.38376 -0.470654,0.62993 -0.694232,1.41591 -0.906012,2.15756 -0.456433,2.06224 -0.627912,4.17528 -0.691354,6.28431 0.0031,0.81293 0.0016,1.62635 0.02558,2.43904 0.0056,0.19111 0.0123,0.38222 0.02342,0.57309 0.0081,0.13846 0.120748,0.30635 0.03413,0.41467 -0.411906,0.51512 -0.963904,0.90054 -1.445855,1.35081 0.153717,-0.33571 0.202104,-0.7176 0.265152,-1.07828 0.149682,-0.8563 0.268266,-1.71867 0.32045,-2.58698 0.128058,-1.72128 0.186658,-3.44601 0.125042,-5.17188 0,0 1.493356,-1.08499 1.493356,-1.08499 z"
       inkscape:connector-curvature="0" />
    <path
       style="opacity:0.916;vector-effect:none;fill:#ff0000;fill-opacity:0.83809527;stroke:none;stroke-width:1.5;stroke-linecap:round;stroke-linejoin:miter;stroke-miterlimit:4;stroke-dasharray:none;stroke-dashoffset:0;stroke-opacity:1;paint-order:stroke fill markers"
       id="path1077"
       d="m 98.539172,115.73706 c 1.079582,0.13879 1.280565,1.13093 1.388811,2.04492 -0.0097,1.21082 -0.450638,2.338 -1.021249,3.38668 -0.139137,0.23585 -0.292881,0.46282 -0.462793,0.67753 -0.06908,0.0873 -0.120055,0.14432 -0.126088,0.14058 -0.02257,-0.014 -0.01381,-0.0513 -0.02069,-0.077 0.712346,-0.0471 1.408755,-0.22061 2.114317,-0.3252 0.68886,-0.0882 0.34779,-0.0608 1.02298,-0.0848 0,0 -1.28307,1.2946 -1.28307,1.2946 v 0 c -0.660641,0.0358 -0.325113,0.005 -1.006296,0.0966 -0.728265,0.12034 -1.490331,0.36837 -2.228373,0.27055 -0.05166,-0.0494 -0.11901,-0.0865 -0.154983,-0.14835 -0.01934,-0.0332 0.57241,-0.75583 0.613646,-0.84873 0.60021,-1.00845 1.046903,-2.11714 1.099312,-3.30222 -0.07974,-0.80001 -0.254699,-1.78561 -1.245177,-1.81551 0,0 1.309661,-1.30966 1.309661,-1.30966 z"
       inkscape:connector-curvature="0" />
    <path
       style="opacity:0.91600001;vector-effect:none;fill:#00ff00;fill-opacity:0.83809527;stroke:none;stroke-width:1.5;stroke-linecap:round;stroke-linejoin:miter;stroke-miterlimit:4;stroke-dasharray:none;stroke-dashoffset:0;stroke-opacity:1;paint-order:stroke fill markers"
       id="path880"
       d="m 152.7052,68.136399 c -0.93286,0.07134 -1.86121,0.305975 -2.66132,0.808551 -0.25214,0.158371 -0.47957,0.353031 -0.71935,0.529545 0.18164,-0.10709 0.62431,-0.516604 0.5449,-0.321276 -0.18029,0.443466 -0.60732,0.741765 -0.87671,1.137481 -0.33516,0.492318 -0.64653,1.001535 -0.93443,1.522899 -1.11685,2.022515 -1.89649,4.170389 -2.68405,6.334313 -1.02912,3.089788 -1.64546,6.297131 -1.84703,9.54655 -0.10256,1.653183 -0.0745,2.937844 -0.0717,4.590262 0.0666,2.835254 0.18344,5.702498 -0.44945,8.490926 -0.37415,1.64846 -0.62692,2.0845 -1.25983,3.62244 -1.15913,2.53116 -2.89499,4.69397 -4.86057,6.63782 -1.09407,0.96761 -2.14369,2.01853 -3.37054,2.81906 -0.14102,0.10026 -0.22817,0.0103 -0.28911,-0.14253 0.55342,-0.3616 1.07137,-0.78439 1.66025,-1.0848 0.005,-0.002 0.63437,0.18316 0.71028,0.20745 0.73171,0.23407 1.42546,0.52086 2.12655,0.83441 2.27584,1.08561 3.95158,2.98657 5.04385,5.24171 0.30473,0.62917 0.52714,1.29499 0.79071,1.94248 1.54422,4.76583 1.01392,9.77746 0.75936,14.6906 -0.21325,3.82029 -0.17733,7.71493 0.89063,11.42116 0.15039,0.52191 0.35527,1.02655 0.5329,1.53982 0.7466,1.63729 0.34921,0.86664 1.1769,2.31976 0,0 -1.36299,1.10092 -1.36299,1.10092 v 0 c -0.82089,-1.48626 -0.42768,-0.69865 -1.16406,-2.37051 -0.17433,-0.52274 -0.37575,-1.03722 -0.523,-1.56823 -1.03684,-3.73917 -1.07455,-7.65604 -0.86006,-11.50169 0.0734,-1.4182 0.20668,-3.83421 0.24725,-5.25615 0.0691,-2.42049 0.0745,-4.84568 -0.42605,-7.22869 -0.1503,-0.71555 -0.38704,-1.41018 -0.58055,-2.11528 -0.26346,-0.63781 -0.48539,-1.2944 -0.79036,-1.91344 -1.09406,-2.22083 -2.77906,-4.06504 -5.04531,-5.09524 -0.70808,-0.30062 -1.40506,-0.57092 -2.14417,-0.7847 -0.13851,-0.0401 -0.27819,-0.076 -0.41761,-0.11274 -0.10221,-0.0269 -0.37056,0.006 -0.30724,-0.0784 0.34651,-0.46326 0.83951,-0.79622 1.25926,-1.19432 -0.10987,-0.10175 -0.20842,-0.16141 -0.0539,-0.24088 0.11375,-0.0795 0.14833,-0.10234 0.27206,-0.19626 0.0836,-0.0635 0.32807,-0.26201 0.24902,-0.19291 -0.33402,0.292 -0.67686,0.57374 -1.01423,0.86185 -0.16385,0.13992 0.33147,-0.27544 0.49365,-0.41728 0.21093,-0.18448 0.41705,-0.3744 0.62557,-0.5616 2.00062,-1.93259 3.77086,-4.09219 4.96781,-6.62405 0.64499,-1.52033 0.90869,-1.96689 1.29388,-3.59981 0.65615,-2.781562 0.55502,-5.648725 0.48573,-8.48177 -0.002,-1.64652 -0.0298,-2.960991 0.0709,-4.608271 0.19934,-3.260167 0.80993,-6.479749 1.82781,-9.584272 0.77227,-2.154666 1.53345,-4.299447 2.61222,-6.32578 0.32109,-0.603128 1.20267,-2.109457 1.73628,-2.661452 0.6677,-0.690713 1.4234,-1.290579 2.13511,-1.935869 0.24956,-0.173376 0.48738,-0.364998 0.74868,-0.520131 0.83659,-0.496699 1.80096,-0.719939 2.76171,-0.791294 0,0 -1.30966,1.309658 -1.30966,1.309658 z"
       inkscape:connector-curvature="0" />
    <path
       style="opacity:0.91600001;vector-effect:none;fill:#00ff00;fill-opacity:0.83809527;stroke:none;stroke-width:1.5;stroke-linecap:round;stroke-linejoin:miter;stroke-miterlimit:4;stroke-dasharray:none;stroke-dashoffset:0;stroke-opacity:1;paint-order:stroke fill markers"
       id="path882"
       d="m 110.7336,84.567354 c -0.0978,1.15021 -0.15439,2.302383 -0.29862,3.448008 -0.24277,1.664814 0.16771,1.015889 -1.75038,2.242161 -0.37605,-0.80545 -0.39207,-1.72095 -0.44058,-2.592787 -0.0504,-1.548064 0.42863,-3.026711 1.06976,-4.41512 0.66667,-1.306836 1.56888,-2.205945 2.79933,-3.051376 0.057,-0.03917 0.12868,0.05074 0.19302,0.07611 0.0484,0.07526 0.11453,0.141719 0.14523,0.225772 0.20124,0.551048 -0.0567,1.467403 -0.14744,2.030158 -0.20875,1.119172 -0.0606,1.391066 0.67199,2.204414 0.54121,0.572844 1.21796,1.175781 1.33315,2.004112 0.0215,0.154581 -0.002,0.312129 -0.002,0.468194 -0.0456,0.158379 -0.0746,0.322535 -0.13687,0.475136 -0.53031,1.299501 -2.25814,2.498257 -3.31128,3.1902 -0.45968,0.272209 -0.92223,0.530143 -1.44815,0.636942 0,0 1.27266,-1.334275 1.27266,-1.334275 v 0 c 0.49602,-0.140179 0.94557,-0.388173 1.38183,-0.660575 0.15282,-0.104449 0.58372,-0.449619 0.45845,-0.313346 -0.27328,0.297286 -0.59358,0.548529 -0.9078,0.802169 -0.15221,0.122868 0.28852,-0.264927 0.42079,-0.409045 0.35333,-0.384982 0.63853,-0.815359 0.78748,-1.31971 0.0122,-0.141928 0.0476,-0.28375 0.0367,-0.425784 -0.0621,-0.806288 -0.77146,-1.385869 -1.27862,-1.934921 -0.73495,-0.803762 -0.99965,-1.210088 -0.77144,-2.333961 0.10106,-0.643316 0.32996,-1.378612 0.15593,-2.019544 -0.59651,0.135073 -0.20855,0.06093 1.12263,-1.030684 0.0959,-0.07861 -0.17317,0.177586 -0.2553,0.270452 -0.39485,0.446468 -0.74857,0.927176 -1.02117,1.459185 -0.66086,1.352441 -1.14642,2.809806 -1.1101,4.333105 0.0498,0.832929 0.0643,1.711338 0.41502,2.483844 -0.46739,0.411589 -0.92646,0.832829 -1.40218,1.234766 -0.0641,0.05419 0.0475,-0.161351 0.0634,-0.243806 0.0641,-0.332663 0.11997,-0.666869 0.17043,-1.00186 0.1584,-1.132729 0.22495,-2.271456 0.29125,-3.412948 0,0 1.49335,-1.084988 1.49335,-1.084988 z"
       inkscape:connector-curvature="0" />
    <path
       style="opacity:0.91600001;vector-effect:none;fill:#00ff00;fill-opacity:0.83809527;stroke:none;stroke-width:1.5;stroke-linecap:round;stroke-linejoin:miter;stroke-miterlimit:4;stroke-dasharray:none;stroke-dashoffset:0;stroke-opacity:1;paint-order:stroke fill markers"
       id="path884"
       d="m 113.95958,90.900101 c -0.47153,-0.708935 -0.72951,-1.492568 -0.74306,-2.340576 0.18765,-1.548857 1.7153,-2.340708 2.82454,-3.216142 0,0 -1.21377,1.361794 -1.21377,1.361794 v 0 c 0.32909,-0.297815 0.66443,-0.588856 0.98726,-0.893447 0.11111,-0.104826 -0.24035,0.189198 -0.35169,0.29378 -0.39719,0.373094 -0.69355,0.832567 -0.76529,1.379386 -0.0241,0.810128 0.21376,1.562667 0.68264,2.2288 0,0 -1.42063,1.186405 -1.42063,1.186405 z"
       inkscape:connector-curvature="0" />
    <path
       style="opacity:0.91600001;vector-effect:none;fill:#00ff00;fill-opacity:0.83809527;stroke:none;stroke-width:1.5;stroke-linecap:round;stroke-linejoin:miter;stroke-miterlimit:4;stroke-dasharray:none;stroke-dashoffset:0;stroke-opacity:1;paint-order:stroke fill markers"
       id="path886"
       d="m 119.83105,86.04346 c -0.8825,-0.08129 -1.66629,0.09439 -2.41324,0.566711 0.34197,-0.279594 0.66572,-0.583094 1.02592,-0.838782 0.12237,-0.08687 -0.21443,0.211111 -0.30752,0.328821 -0.33748,0.426747 -0.50899,0.855639 -0.45969,1.394233 0.0422,0.07681 0.0633,0.169709 0.12649,0.230446 0.37417,0.359823 1.11637,0.116689 1.49155,-0.08514 0.16605,-0.08932 0.31114,-0.213051 0.4667,-0.319575 -0.30793,0.247799 -0.57725,0.553326 -0.92381,0.743397 -0.17555,0.09628 0.27222,-0.294396 0.39437,-0.453024 0.39401,-0.511625 0.63866,-1.080543 0.82355,-1.692746 0.002,-0.183743 0.13534,-0.496263 0.01,-0.675902 -0.006,-0.0089 -0.0652,0.183195 -0.0611,0.180337 0.44455,-0.316039 0.85436,-0.678312 1.28155,-1.017468 -0.36691,0.749535 -0.12432,1.520893 0.25177,2.20812 0.35642,0.41756 0.16361,0.229213 0.57552,0.567986 0,0 -1.38178,1.201206 -1.38178,1.201206 v 0 c -0.43746,-0.373732 -0.23105,-0.167588 -0.61582,-0.621827 -0.40726,-0.727496 -0.6729,-1.525392 -0.38337,-2.350929 0.91002,-0.837057 2.04447,-2.377675 1.83523,-0.526113 -0.47349,1.716881 -1.5272,2.744878 -3.01418,3.790905 -0.59607,0.35256 -1.56607,0.836523 -2.18179,0.208783 -0.0781,-0.07967 -0.11247,-0.192792 -0.16871,-0.289187 -0.0177,-0.115152 -0.0515,-0.228973 -0.0529,-0.345461 -0.0165,-1.357945 1.70907,-2.317666 2.48875,-2.99497 0.7915,-0.428448 1.60437,-0.575336 2.50265,-0.519485 0,0 -1.30966,1.309661 -1.30966,1.309661 z"
       inkscape:connector-curvature="0" />
    <path
       style="opacity:0.91600001;vector-effect:none;fill:#00ff00;fill-opacity:0.83809527;stroke:none;stroke-width:1.5;stroke-linecap:round;stroke-linejoin:miter;stroke-miterlimit:4;stroke-dasharray:none;stroke-dashoffset:0;stroke-opacity:1;paint-order:stroke fill markers"
       id="path888"
       d="m 122.04388,88.158785 c -0.10512,-0.944036 0.28024,-1.754548 0.7692,-2.529991 0.61569,-0.715703 2.13605,-2.299327 3.28893,-2.329939 0.12404,-0.0033 0.24566,0.0352 0.3685,0.05281 0.86365,0.408956 0.94157,1.401381 1.0391,2.247418 0,0 -1.46271,1.087496 -1.46271,1.087496 v 0 c -0.0778,-0.73764 -0.10013,-1.718958 -0.88765,-2.048611 -0.40552,-0.01749 -0.69659,0.0569 -1.05978,0.252331 -0.13429,0.07226 -0.49498,0.350205 -0.38933,0.240236 0.18418,-0.191706 1.64329,-1.480873 0.63359,-0.484399 -0.48897,0.731012 -0.90939,1.48657 -0.81983,2.399549 0,0 -1.48002,1.113102 -1.48002,1.113102 z"
       inkscape:connector-curvature="0" />
    <path
       style="opacity:0.91600001;vector-effect:none;fill:#00ff00;fill-opacity:0.83809527;stroke:none;stroke-width:1.5;stroke-linecap:round;stroke-linejoin:miter;stroke-miterlimit:4;stroke-dasharray:none;stroke-dashoffset:0;stroke-opacity:1;paint-order:stroke fill markers"
       id="path890"
       d="m 129.21728,83.762772 c -0.46241,0.378831 -1.73377,1.162431 0.40036,-0.38605 0.12688,-0.09207 -0.22699,0.217006 -0.32912,0.335933 -0.27723,0.322818 -0.2917,0.398817 -0.49055,0.771017 -0.32687,0.910918 -0.18515,1.567905 0.50309,2.24073 0.76778,0.575831 1.5525,0.355981 2.37472,0.03974 0,0 -1.23816,1.326944 -1.23816,1.326944 v 0 c -0.9447,0.318611 -1.67324,0.456343 -2.52557,-0.178554 -0.74155,-0.735523 -0.93485,-1.410679 -0.63917,-2.425584 0.64571,-1.37483 1.93294,-2.282698 3.19047,-3.091495 0,0 -1.24607,1.367319 -1.24607,1.367319 z"
       inkscape:connector-curvature="0" />
    <path
       style="opacity:0.91600001;vector-effect:none;fill:#00ff00;fill-opacity:0.83809527;stroke:none;stroke-width:1.5;stroke-linecap:round;stroke-linejoin:miter;stroke-miterlimit:4;stroke-dasharray:none;stroke-dashoffset:0;stroke-opacity:1;paint-order:stroke fill markers"
       id="path892"
       d="m 133.74414,75.70408 c 0.19497,1.498859 0.46261,2.986246 0.67952,4.481902 0.18331,1.365681 0.28392,2.74045 0.34474,4.116474 0.0147,0.352825 0.0261,0.705782 0.0334,1.058834 -0.5032,0.331491 -0.97655,0.713483 -1.5096,0.994471 -0.0589,0.03106 -0.002,-0.133332 0.002,-0.199814 0.005,-0.08827 0.0119,-0.176771 0.0265,-0.26399 0.0704,-0.419048 0.24146,-0.74748 0.45138,-1.112179 0.62694,-0.725998 2.09323,-2.454193 3.31633,-2.061652 0.15284,0.04905 0.2847,0.148349 0.42706,0.222525 0.52155,0.360969 0.8166,0.897522 1.13329,1.427546 0,0 -1.40333,1.140042 -1.40333,1.140042 v 0 c -0.30017,-0.500779 -0.57358,-1.008679 -1.07899,-1.335701 -0.34072,-0.15331 -0.40095,-0.237427 -0.78535,-0.189214 -0.57783,0.07247 -1.99869,1.213281 0.24822,-0.529492 0.12256,-0.09506 -0.21533,0.223305 -0.32299,0.33496 -0.20956,0.323257 -0.27407,0.378989 -0.40017,0.732419 -0.0473,0.132718 -0.10369,0.394785 -0.11459,0.545455 -0.005,0.06412 0.0516,0.149174 0.004,0.192812 -0.47076,0.43515 -1.00428,0.797065 -1.50642,1.195599 0.0224,-0.357468 0.005,-0.71655 0.005,-1.074272 -0.035,-1.379288 -0.11683,-2.758051 -0.29832,-4.126645 -0.21087,-1.486022 -0.47673,-2.963817 -0.73265,-4.442272 0,0 1.48013,-1.107808 1.48013,-1.107808 z"
       inkscape:connector-curvature="0" />
  </g>
</svg>
